G75*
%MOIN*%
%OFA0B0*%
%FSLAX25Y25*%
%IPPOS*%
%LPD*%
%AMOC8*
5,1,8,0,0,1.08239X$1,22.5*
%
%ADD10R,0.12611X0.04737*%
%ADD11C,0.06312*%
%ADD12C,0.01800*%
%ADD13R,0.03753X0.03556*%
%ADD14R,0.03162X0.03162*%
%ADD15R,0.07887X0.04737*%
%ADD16R,0.07887X0.03950*%
%ADD17R,0.03950X0.07887*%
%ADD18R,0.07099X0.03950*%
%ADD19C,0.04737*%
%ADD20R,0.04343X0.03398*%
%ADD21R,0.01981X0.06312*%
%ADD22R,0.05721X0.09855*%
%ADD23R,0.06312X0.07099*%
%ADD24C,0.13800*%
%ADD25R,0.01784X0.01883*%
%ADD26R,0.01883X0.01784*%
%ADD27R,0.04737X0.05131*%
%ADD28R,0.05131X0.04737*%
%ADD29R,0.03280X0.04068*%
%ADD30R,0.02965X0.05524*%
%ADD31R,0.06800X0.03800*%
%ADD32C,0.01990*%
%ADD33R,0.05524X0.03162*%
%ADD34C,0.08200*%
%ADD35R,0.08674X0.05524*%
%ADD36R,0.06115X0.03162*%
%ADD37C,0.05000*%
%ADD38C,0.06706*%
D10*
X0075341Y0082240D03*
X0075341Y0092240D03*
X0075341Y0102240D03*
X0075341Y0112240D03*
X0075341Y0122240D03*
X0075341Y0132240D03*
X0075341Y0241720D03*
X0075341Y0251720D03*
X0075341Y0261720D03*
X0075341Y0271720D03*
X0075341Y0281720D03*
X0075341Y0291720D03*
X0075341Y0401201D03*
X0075341Y0411201D03*
X0075341Y0421201D03*
X0075341Y0431201D03*
X0075341Y0441201D03*
X0075341Y0451201D03*
X0255821Y0451201D03*
X0255821Y0441201D03*
X0255821Y0431201D03*
X0255821Y0421201D03*
X0255821Y0411201D03*
X0255821Y0401201D03*
X0255821Y0291720D03*
X0255821Y0281720D03*
X0255821Y0271720D03*
X0255821Y0261720D03*
X0255821Y0251720D03*
X0255821Y0241720D03*
X0255821Y0132240D03*
X0255821Y0122240D03*
X0255821Y0112240D03*
X0255821Y0102240D03*
X0255821Y0092240D03*
X0255821Y0082240D03*
X0436301Y0082240D03*
X0436301Y0092240D03*
X0436301Y0102240D03*
X0436301Y0112240D03*
X0436301Y0122240D03*
X0436301Y0132240D03*
X0436301Y0241720D03*
X0436301Y0251720D03*
X0436301Y0261720D03*
X0436301Y0271720D03*
X0436301Y0281720D03*
X0436301Y0291720D03*
X0436301Y0401201D03*
X0436301Y0411201D03*
X0436301Y0421201D03*
X0436301Y0431201D03*
X0436301Y0441201D03*
X0436301Y0451201D03*
D11*
X0416616Y0446201D03*
X0416616Y0406201D03*
X0416616Y0286720D03*
X0416616Y0246720D03*
X0416616Y0127240D03*
X0416616Y0087240D03*
X0236136Y0087240D03*
X0236136Y0127240D03*
X0236136Y0246720D03*
X0236136Y0286720D03*
X0236136Y0406201D03*
X0236136Y0446201D03*
X0055656Y0446201D03*
X0055656Y0406201D03*
X0055656Y0286720D03*
X0055656Y0246720D03*
X0055656Y0127240D03*
X0055656Y0087240D03*
D12*
X0144238Y0099366D03*
X0144238Y0101335D03*
X0144238Y0103303D03*
X0144238Y0105272D03*
X0144238Y0107240D03*
X0144238Y0109209D03*
X0144238Y0111177D03*
X0144238Y0113146D03*
X0144238Y0115114D03*
X0146207Y0115114D03*
X0148175Y0115114D03*
X0148175Y0113146D03*
X0146207Y0113146D03*
X0146207Y0111177D03*
X0148175Y0111177D03*
X0148175Y0109209D03*
X0146207Y0109209D03*
X0146207Y0107240D03*
X0148175Y0107240D03*
X0148175Y0105272D03*
X0146207Y0105272D03*
X0146207Y0103303D03*
X0148175Y0103303D03*
X0148175Y0101335D03*
X0146207Y0101335D03*
X0146207Y0099366D03*
X0148175Y0099366D03*
X0150144Y0099366D03*
X0152112Y0099366D03*
X0152112Y0101335D03*
X0152112Y0103303D03*
X0150144Y0103303D03*
X0150144Y0101335D03*
X0150144Y0105272D03*
X0150144Y0107240D03*
X0152112Y0107240D03*
X0152112Y0105272D03*
X0154081Y0105272D03*
X0154081Y0107240D03*
X0156049Y0107240D03*
X0156049Y0105272D03*
X0158018Y0105272D03*
X0158018Y0107240D03*
X0159986Y0107240D03*
X0159986Y0105272D03*
X0159986Y0103303D03*
X0158018Y0103303D03*
X0158018Y0101335D03*
X0159986Y0101335D03*
X0159986Y0099366D03*
X0158018Y0099366D03*
X0156049Y0099366D03*
X0154081Y0099366D03*
X0154081Y0101335D03*
X0154081Y0103303D03*
X0156049Y0103303D03*
X0156049Y0101335D03*
X0156049Y0109209D03*
X0156049Y0111177D03*
X0154081Y0111177D03*
X0154081Y0109209D03*
X0152112Y0109209D03*
X0152112Y0111177D03*
X0150144Y0111177D03*
X0150144Y0109209D03*
X0150144Y0113146D03*
X0150144Y0115114D03*
X0152112Y0115114D03*
X0152112Y0113146D03*
X0154081Y0113146D03*
X0154081Y0115114D03*
X0156049Y0115114D03*
X0156049Y0113146D03*
X0158018Y0113146D03*
X0158018Y0115114D03*
X0159986Y0115114D03*
X0159986Y0113146D03*
X0159986Y0111177D03*
X0158018Y0111177D03*
X0158018Y0109209D03*
X0159986Y0109209D03*
X0324718Y0109209D03*
X0324718Y0111177D03*
X0324718Y0113146D03*
X0324718Y0115114D03*
X0326687Y0115114D03*
X0326687Y0113146D03*
X0328655Y0113146D03*
X0328655Y0115114D03*
X0330624Y0115114D03*
X0330624Y0113146D03*
X0332593Y0113146D03*
X0334561Y0113146D03*
X0334561Y0115114D03*
X0332593Y0115114D03*
X0336530Y0115114D03*
X0338498Y0115114D03*
X0338498Y0113146D03*
X0336530Y0113146D03*
X0336530Y0111177D03*
X0338498Y0111177D03*
X0338498Y0109209D03*
X0336530Y0109209D03*
X0336530Y0107240D03*
X0338498Y0107240D03*
X0338498Y0105272D03*
X0336530Y0105272D03*
X0336530Y0103303D03*
X0338498Y0103303D03*
X0338498Y0101335D03*
X0336530Y0101335D03*
X0336530Y0099366D03*
X0338498Y0099366D03*
X0340467Y0099366D03*
X0340467Y0101335D03*
X0340467Y0103303D03*
X0340467Y0105272D03*
X0340467Y0107240D03*
X0340467Y0109209D03*
X0340467Y0111177D03*
X0340467Y0113146D03*
X0340467Y0115114D03*
X0334561Y0111177D03*
X0334561Y0109209D03*
X0332593Y0109209D03*
X0332593Y0111177D03*
X0330624Y0111177D03*
X0330624Y0109209D03*
X0328655Y0109209D03*
X0326687Y0109209D03*
X0326687Y0111177D03*
X0328655Y0111177D03*
X0328655Y0107240D03*
X0326687Y0107240D03*
X0326687Y0105272D03*
X0328655Y0105272D03*
X0328655Y0103303D03*
X0326687Y0103303D03*
X0326687Y0101335D03*
X0328655Y0101335D03*
X0328655Y0099366D03*
X0326687Y0099366D03*
X0324718Y0099366D03*
X0324718Y0101335D03*
X0324718Y0103303D03*
X0324718Y0105272D03*
X0324718Y0107240D03*
X0330624Y0107240D03*
X0330624Y0105272D03*
X0332593Y0105272D03*
X0334561Y0105272D03*
X0334561Y0107240D03*
X0332593Y0107240D03*
X0332593Y0103303D03*
X0334561Y0103303D03*
X0334561Y0101335D03*
X0332593Y0101335D03*
X0332593Y0099366D03*
X0334561Y0099366D03*
X0330624Y0099366D03*
X0330624Y0101335D03*
X0330624Y0103303D03*
X0505199Y0103303D03*
X0507167Y0103303D03*
X0507167Y0101335D03*
X0505199Y0101335D03*
X0505199Y0099366D03*
X0507167Y0099366D03*
X0509136Y0099366D03*
X0511104Y0099366D03*
X0511104Y0101335D03*
X0511104Y0103303D03*
X0509136Y0103303D03*
X0509136Y0101335D03*
X0509136Y0105272D03*
X0509136Y0107240D03*
X0511104Y0107240D03*
X0511104Y0105272D03*
X0513073Y0105272D03*
X0513073Y0107240D03*
X0515041Y0107240D03*
X0515041Y0105272D03*
X0517010Y0105272D03*
X0517010Y0107240D03*
X0518978Y0107240D03*
X0518978Y0105272D03*
X0520947Y0105272D03*
X0520947Y0107240D03*
X0520947Y0109209D03*
X0520947Y0111177D03*
X0520947Y0113146D03*
X0520947Y0115114D03*
X0518978Y0115114D03*
X0517010Y0115114D03*
X0517010Y0113146D03*
X0518978Y0113146D03*
X0518978Y0111177D03*
X0517010Y0111177D03*
X0517010Y0109209D03*
X0518978Y0109209D03*
X0515041Y0109209D03*
X0515041Y0111177D03*
X0513073Y0111177D03*
X0513073Y0109209D03*
X0511104Y0109209D03*
X0511104Y0111177D03*
X0509136Y0111177D03*
X0509136Y0109209D03*
X0507167Y0109209D03*
X0507167Y0111177D03*
X0505199Y0111177D03*
X0505199Y0109209D03*
X0505199Y0107240D03*
X0507167Y0107240D03*
X0507167Y0105272D03*
X0505199Y0105272D03*
X0505199Y0113146D03*
X0505199Y0115114D03*
X0507167Y0115114D03*
X0507167Y0113146D03*
X0509136Y0113146D03*
X0509136Y0115114D03*
X0511104Y0115114D03*
X0511104Y0113146D03*
X0513073Y0113146D03*
X0513073Y0115114D03*
X0515041Y0115114D03*
X0515041Y0113146D03*
X0515041Y0103303D03*
X0513073Y0103303D03*
X0513073Y0101335D03*
X0515041Y0101335D03*
X0517010Y0101335D03*
X0517010Y0103303D03*
X0518978Y0103303D03*
X0518978Y0101335D03*
X0520947Y0101335D03*
X0520947Y0103303D03*
X0520947Y0099366D03*
X0518978Y0099366D03*
X0517010Y0099366D03*
X0515041Y0099366D03*
X0513073Y0099366D03*
X0513073Y0258846D03*
X0515041Y0258846D03*
X0517010Y0258846D03*
X0518978Y0258846D03*
X0520947Y0258846D03*
X0520947Y0260815D03*
X0520947Y0262783D03*
X0518978Y0262783D03*
X0518978Y0260815D03*
X0517010Y0260815D03*
X0517010Y0262783D03*
X0515041Y0262783D03*
X0515041Y0260815D03*
X0513073Y0260815D03*
X0513073Y0262783D03*
X0511104Y0262783D03*
X0511104Y0260815D03*
X0509136Y0260815D03*
X0509136Y0262783D03*
X0507167Y0262783D03*
X0507167Y0260815D03*
X0505199Y0260815D03*
X0505199Y0262783D03*
X0505199Y0264752D03*
X0507167Y0264752D03*
X0507167Y0266720D03*
X0505199Y0266720D03*
X0505199Y0268689D03*
X0507167Y0268689D03*
X0507167Y0270657D03*
X0505199Y0270657D03*
X0505199Y0272626D03*
X0507167Y0272626D03*
X0507167Y0274594D03*
X0505199Y0274594D03*
X0509136Y0274594D03*
X0509136Y0272626D03*
X0511104Y0272626D03*
X0511104Y0274594D03*
X0513073Y0274594D03*
X0513073Y0272626D03*
X0515041Y0272626D03*
X0515041Y0274594D03*
X0517010Y0274594D03*
X0517010Y0272626D03*
X0518978Y0272626D03*
X0518978Y0274594D03*
X0520947Y0274594D03*
X0520947Y0272626D03*
X0520947Y0270657D03*
X0520947Y0268689D03*
X0520947Y0266720D03*
X0520947Y0264752D03*
X0518978Y0264752D03*
X0517010Y0264752D03*
X0517010Y0266720D03*
X0518978Y0266720D03*
X0518978Y0268689D03*
X0517010Y0268689D03*
X0517010Y0270657D03*
X0518978Y0270657D03*
X0515041Y0270657D03*
X0515041Y0268689D03*
X0513073Y0268689D03*
X0513073Y0270657D03*
X0511104Y0270657D03*
X0511104Y0268689D03*
X0509136Y0268689D03*
X0509136Y0270657D03*
X0509136Y0266720D03*
X0509136Y0264752D03*
X0511104Y0264752D03*
X0511104Y0266720D03*
X0513073Y0266720D03*
X0513073Y0264752D03*
X0515041Y0264752D03*
X0515041Y0266720D03*
X0511104Y0258846D03*
X0509136Y0258846D03*
X0507167Y0258846D03*
X0505199Y0258846D03*
X0340467Y0258846D03*
X0340467Y0260815D03*
X0340467Y0262783D03*
X0340467Y0264752D03*
X0340467Y0266720D03*
X0340467Y0268689D03*
X0340467Y0270657D03*
X0340467Y0272626D03*
X0340467Y0274594D03*
X0338498Y0274594D03*
X0338498Y0272626D03*
X0336530Y0272626D03*
X0336530Y0274594D03*
X0334561Y0274594D03*
X0334561Y0272626D03*
X0332593Y0272626D03*
X0332593Y0274594D03*
X0330624Y0274594D03*
X0330624Y0272626D03*
X0328655Y0272626D03*
X0326687Y0272626D03*
X0326687Y0274594D03*
X0328655Y0274594D03*
X0324718Y0274594D03*
X0324718Y0272626D03*
X0324718Y0270657D03*
X0324718Y0268689D03*
X0324718Y0266720D03*
X0324718Y0264752D03*
X0324718Y0262783D03*
X0324718Y0260815D03*
X0324718Y0258846D03*
X0326687Y0258846D03*
X0328655Y0258846D03*
X0328655Y0260815D03*
X0326687Y0260815D03*
X0326687Y0262783D03*
X0328655Y0262783D03*
X0328655Y0264752D03*
X0326687Y0264752D03*
X0326687Y0266720D03*
X0328655Y0266720D03*
X0328655Y0268689D03*
X0326687Y0268689D03*
X0326687Y0270657D03*
X0328655Y0270657D03*
X0330624Y0270657D03*
X0330624Y0268689D03*
X0332593Y0268689D03*
X0334561Y0268689D03*
X0334561Y0270657D03*
X0332593Y0270657D03*
X0336530Y0270657D03*
X0338498Y0270657D03*
X0338498Y0268689D03*
X0336530Y0268689D03*
X0336530Y0266720D03*
X0338498Y0266720D03*
X0338498Y0264752D03*
X0336530Y0264752D03*
X0336530Y0262783D03*
X0338498Y0262783D03*
X0338498Y0260815D03*
X0336530Y0260815D03*
X0336530Y0258846D03*
X0338498Y0258846D03*
X0334561Y0258846D03*
X0332593Y0258846D03*
X0332593Y0260815D03*
X0334561Y0260815D03*
X0334561Y0262783D03*
X0332593Y0262783D03*
X0332593Y0264752D03*
X0334561Y0264752D03*
X0334561Y0266720D03*
X0332593Y0266720D03*
X0330624Y0266720D03*
X0330624Y0264752D03*
X0330624Y0262783D03*
X0330624Y0260815D03*
X0330624Y0258846D03*
X0159986Y0258846D03*
X0158018Y0258846D03*
X0156049Y0258846D03*
X0154081Y0258846D03*
X0152112Y0258846D03*
X0150144Y0258846D03*
X0148175Y0258846D03*
X0146207Y0258846D03*
X0144238Y0258846D03*
X0144238Y0260815D03*
X0144238Y0262783D03*
X0146207Y0262783D03*
X0146207Y0260815D03*
X0148175Y0260815D03*
X0148175Y0262783D03*
X0150144Y0262783D03*
X0150144Y0260815D03*
X0152112Y0260815D03*
X0152112Y0262783D03*
X0154081Y0262783D03*
X0154081Y0260815D03*
X0156049Y0260815D03*
X0156049Y0262783D03*
X0158018Y0262783D03*
X0158018Y0260815D03*
X0159986Y0260815D03*
X0159986Y0262783D03*
X0159986Y0264752D03*
X0158018Y0264752D03*
X0158018Y0266720D03*
X0159986Y0266720D03*
X0159986Y0268689D03*
X0158018Y0268689D03*
X0158018Y0270657D03*
X0159986Y0270657D03*
X0159986Y0272626D03*
X0158018Y0272626D03*
X0158018Y0274594D03*
X0159986Y0274594D03*
X0156049Y0274594D03*
X0156049Y0272626D03*
X0154081Y0272626D03*
X0154081Y0274594D03*
X0152112Y0274594D03*
X0152112Y0272626D03*
X0150144Y0272626D03*
X0150144Y0274594D03*
X0148175Y0274594D03*
X0148175Y0272626D03*
X0146207Y0272626D03*
X0146207Y0274594D03*
X0144238Y0274594D03*
X0144238Y0272626D03*
X0144238Y0270657D03*
X0144238Y0268689D03*
X0144238Y0266720D03*
X0144238Y0264752D03*
X0146207Y0264752D03*
X0148175Y0264752D03*
X0148175Y0266720D03*
X0146207Y0266720D03*
X0146207Y0268689D03*
X0148175Y0268689D03*
X0148175Y0270657D03*
X0146207Y0270657D03*
X0150144Y0270657D03*
X0150144Y0268689D03*
X0152112Y0268689D03*
X0152112Y0270657D03*
X0154081Y0270657D03*
X0154081Y0268689D03*
X0156049Y0268689D03*
X0156049Y0270657D03*
X0156049Y0266720D03*
X0156049Y0264752D03*
X0154081Y0264752D03*
X0154081Y0266720D03*
X0152112Y0266720D03*
X0152112Y0264752D03*
X0150144Y0264752D03*
X0150144Y0266720D03*
X0150144Y0418327D03*
X0152112Y0418327D03*
X0152112Y0420295D03*
X0150144Y0420295D03*
X0150144Y0422264D03*
X0152112Y0422264D03*
X0152112Y0424232D03*
X0150144Y0424232D03*
X0150144Y0426201D03*
X0152112Y0426201D03*
X0152112Y0428169D03*
X0150144Y0428169D03*
X0150144Y0430138D03*
X0152112Y0430138D03*
X0152112Y0432106D03*
X0150144Y0432106D03*
X0150144Y0434075D03*
X0152112Y0434075D03*
X0154081Y0434075D03*
X0156049Y0434075D03*
X0158018Y0434075D03*
X0159986Y0434075D03*
X0159986Y0432106D03*
X0159986Y0430138D03*
X0158018Y0430138D03*
X0158018Y0432106D03*
X0156049Y0432106D03*
X0156049Y0430138D03*
X0154081Y0430138D03*
X0154081Y0432106D03*
X0154081Y0428169D03*
X0156049Y0428169D03*
X0156049Y0426201D03*
X0154081Y0426201D03*
X0154081Y0424232D03*
X0156049Y0424232D03*
X0156049Y0422264D03*
X0154081Y0422264D03*
X0154081Y0420295D03*
X0156049Y0420295D03*
X0156049Y0418327D03*
X0154081Y0418327D03*
X0158018Y0418327D03*
X0159986Y0418327D03*
X0159986Y0420295D03*
X0158018Y0420295D03*
X0158018Y0422264D03*
X0159986Y0422264D03*
X0159986Y0424232D03*
X0158018Y0424232D03*
X0158018Y0426201D03*
X0159986Y0426201D03*
X0159986Y0428169D03*
X0158018Y0428169D03*
X0148175Y0428169D03*
X0148175Y0426201D03*
X0146207Y0426201D03*
X0146207Y0428169D03*
X0146207Y0430138D03*
X0148175Y0430138D03*
X0148175Y0432106D03*
X0146207Y0432106D03*
X0146207Y0434075D03*
X0148175Y0434075D03*
X0144238Y0434075D03*
X0144238Y0432106D03*
X0144238Y0430138D03*
X0144238Y0428169D03*
X0144238Y0426201D03*
X0144238Y0424232D03*
X0144238Y0422264D03*
X0146207Y0422264D03*
X0148175Y0422264D03*
X0148175Y0424232D03*
X0146207Y0424232D03*
X0146207Y0420295D03*
X0148175Y0420295D03*
X0148175Y0418327D03*
X0146207Y0418327D03*
X0144238Y0418327D03*
X0144238Y0420295D03*
X0324718Y0420295D03*
X0324718Y0418327D03*
X0326687Y0418327D03*
X0326687Y0420295D03*
X0328655Y0420295D03*
X0328655Y0418327D03*
X0330624Y0418327D03*
X0330624Y0420295D03*
X0332593Y0420295D03*
X0334561Y0420295D03*
X0334561Y0418327D03*
X0332593Y0418327D03*
X0336530Y0418327D03*
X0338498Y0418327D03*
X0338498Y0420295D03*
X0336530Y0420295D03*
X0336530Y0422264D03*
X0338498Y0422264D03*
X0338498Y0424232D03*
X0336530Y0424232D03*
X0336530Y0426201D03*
X0338498Y0426201D03*
X0338498Y0428169D03*
X0336530Y0428169D03*
X0336530Y0430138D03*
X0338498Y0430138D03*
X0338498Y0432106D03*
X0336530Y0432106D03*
X0336530Y0434075D03*
X0338498Y0434075D03*
X0340467Y0434075D03*
X0340467Y0432106D03*
X0340467Y0430138D03*
X0340467Y0428169D03*
X0340467Y0426201D03*
X0340467Y0424232D03*
X0340467Y0422264D03*
X0340467Y0420295D03*
X0340467Y0418327D03*
X0334561Y0422264D03*
X0334561Y0424232D03*
X0332593Y0424232D03*
X0332593Y0422264D03*
X0330624Y0422264D03*
X0330624Y0424232D03*
X0328655Y0424232D03*
X0326687Y0424232D03*
X0326687Y0422264D03*
X0328655Y0422264D03*
X0324718Y0422264D03*
X0324718Y0424232D03*
X0324718Y0426201D03*
X0324718Y0428169D03*
X0324718Y0430138D03*
X0324718Y0432106D03*
X0324718Y0434075D03*
X0326687Y0434075D03*
X0328655Y0434075D03*
X0328655Y0432106D03*
X0326687Y0432106D03*
X0326687Y0430138D03*
X0328655Y0430138D03*
X0328655Y0428169D03*
X0326687Y0428169D03*
X0326687Y0426201D03*
X0328655Y0426201D03*
X0330624Y0426201D03*
X0330624Y0428169D03*
X0332593Y0428169D03*
X0334561Y0428169D03*
X0334561Y0426201D03*
X0332593Y0426201D03*
X0332593Y0430138D03*
X0334561Y0430138D03*
X0334561Y0432106D03*
X0332593Y0432106D03*
X0332593Y0434075D03*
X0334561Y0434075D03*
X0330624Y0434075D03*
X0330624Y0432106D03*
X0330624Y0430138D03*
X0505199Y0430138D03*
X0505199Y0432106D03*
X0507167Y0432106D03*
X0507167Y0430138D03*
X0507167Y0428169D03*
X0505199Y0428169D03*
X0505199Y0426201D03*
X0507167Y0426201D03*
X0507167Y0424232D03*
X0505199Y0424232D03*
X0505199Y0422264D03*
X0507167Y0422264D03*
X0507167Y0420295D03*
X0505199Y0420295D03*
X0505199Y0418327D03*
X0507167Y0418327D03*
X0509136Y0418327D03*
X0509136Y0420295D03*
X0511104Y0420295D03*
X0511104Y0418327D03*
X0513073Y0418327D03*
X0513073Y0420295D03*
X0515041Y0420295D03*
X0515041Y0418327D03*
X0517010Y0418327D03*
X0517010Y0420295D03*
X0518978Y0420295D03*
X0518978Y0418327D03*
X0520947Y0418327D03*
X0520947Y0420295D03*
X0520947Y0422264D03*
X0520947Y0424232D03*
X0518978Y0424232D03*
X0517010Y0424232D03*
X0517010Y0422264D03*
X0518978Y0422264D03*
X0515041Y0422264D03*
X0513073Y0422264D03*
X0513073Y0424232D03*
X0515041Y0424232D03*
X0515041Y0426201D03*
X0513073Y0426201D03*
X0513073Y0428169D03*
X0515041Y0428169D03*
X0515041Y0430138D03*
X0513073Y0430138D03*
X0513073Y0432106D03*
X0515041Y0432106D03*
X0515041Y0434075D03*
X0513073Y0434075D03*
X0511104Y0434075D03*
X0509136Y0434075D03*
X0507167Y0434075D03*
X0505199Y0434075D03*
X0509136Y0432106D03*
X0509136Y0430138D03*
X0511104Y0430138D03*
X0511104Y0432106D03*
X0511104Y0428169D03*
X0509136Y0428169D03*
X0509136Y0426201D03*
X0511104Y0426201D03*
X0511104Y0424232D03*
X0509136Y0424232D03*
X0509136Y0422264D03*
X0511104Y0422264D03*
X0517010Y0426201D03*
X0517010Y0428169D03*
X0518978Y0428169D03*
X0518978Y0426201D03*
X0520947Y0426201D03*
X0520947Y0428169D03*
X0520947Y0430138D03*
X0520947Y0432106D03*
X0518978Y0432106D03*
X0517010Y0432106D03*
X0517010Y0430138D03*
X0518978Y0430138D03*
X0518978Y0434075D03*
X0517010Y0434075D03*
X0520947Y0434075D03*
D13*
X0519764Y0411634D03*
X0519764Y0407697D03*
X0525079Y0407697D03*
X0525079Y0411634D03*
X0344599Y0411634D03*
X0344599Y0407697D03*
X0339284Y0407697D03*
X0339284Y0411634D03*
X0164119Y0411634D03*
X0164119Y0407697D03*
X0158804Y0407697D03*
X0158804Y0411634D03*
X0158804Y0252154D03*
X0158804Y0248217D03*
X0164119Y0248217D03*
X0164119Y0252154D03*
X0339284Y0252154D03*
X0339284Y0248217D03*
X0344599Y0248217D03*
X0344599Y0252154D03*
X0519764Y0252154D03*
X0519764Y0248217D03*
X0525079Y0248217D03*
X0525079Y0252154D03*
X0525079Y0092673D03*
X0525079Y0088736D03*
X0519764Y0088736D03*
X0519764Y0092673D03*
X0344599Y0092673D03*
X0344599Y0088736D03*
X0339284Y0088736D03*
X0339284Y0092673D03*
X0164119Y0092673D03*
X0164119Y0088736D03*
X0158804Y0088736D03*
X0158804Y0092673D03*
D14*
X0159593Y0084699D03*
X0163530Y0084699D03*
X0168254Y0087555D03*
X0168254Y0091492D03*
X0168254Y0095429D03*
X0168254Y0099366D03*
X0171252Y0099366D03*
X0175189Y0099366D03*
X0178220Y0099366D03*
X0181252Y0099366D03*
X0185189Y0099366D03*
X0178220Y0095429D03*
X0141285Y0092280D03*
X0137545Y0092280D03*
X0137545Y0088343D03*
X0141285Y0088343D03*
X0132750Y0085469D03*
X0132750Y0081531D03*
X0124750Y0081500D03*
X0124750Y0085437D03*
X0114711Y0101335D03*
X0114711Y0105272D03*
X0110774Y0105272D03*
X0110774Y0101335D03*
X0127703Y0106453D03*
X0127703Y0110390D03*
X0127703Y0114327D03*
X0127703Y0118264D03*
X0122585Y0148579D03*
X0122585Y0152516D03*
X0118648Y0152516D03*
X0118648Y0148579D03*
X0144238Y0148579D03*
X0144238Y0152516D03*
X0163923Y0152516D03*
X0163923Y0156453D03*
X0163923Y0148579D03*
X0163923Y0144642D03*
X0173766Y0158421D03*
X0177703Y0158421D03*
X0177703Y0162358D03*
X0173766Y0162358D03*
X0233380Y0152516D03*
X0237317Y0152516D03*
X0237317Y0148579D03*
X0233380Y0148579D03*
X0259758Y0164327D03*
X0263695Y0164327D03*
X0270388Y0133618D03*
X0274325Y0133618D03*
X0299128Y0148579D03*
X0299128Y0152516D03*
X0303065Y0152516D03*
X0303065Y0148579D03*
X0324718Y0148579D03*
X0324718Y0152516D03*
X0344404Y0152516D03*
X0344404Y0156453D03*
X0344404Y0148579D03*
X0344404Y0144642D03*
X0354246Y0158421D03*
X0358183Y0158421D03*
X0358183Y0162358D03*
X0354246Y0162358D03*
X0413860Y0152516D03*
X0417797Y0152516D03*
X0417797Y0148579D03*
X0413860Y0148579D03*
X0440238Y0164327D03*
X0444175Y0164327D03*
X0450868Y0133618D03*
X0454805Y0133618D03*
X0479608Y0148579D03*
X0479608Y0152516D03*
X0483545Y0152516D03*
X0483545Y0148579D03*
X0505199Y0148579D03*
X0505199Y0152516D03*
X0524884Y0152516D03*
X0524884Y0156453D03*
X0524884Y0148579D03*
X0524884Y0144642D03*
X0534726Y0158421D03*
X0534726Y0162358D03*
X0538663Y0162358D03*
X0538663Y0158421D03*
X0488663Y0118264D03*
X0488663Y0114327D03*
X0488663Y0110390D03*
X0488663Y0106453D03*
X0475671Y0105272D03*
X0471734Y0105272D03*
X0471734Y0101335D03*
X0475671Y0101335D03*
X0485711Y0085437D03*
X0485711Y0081500D03*
X0493711Y0081531D03*
X0493711Y0085469D03*
X0498506Y0088343D03*
X0502246Y0088343D03*
X0502246Y0092280D03*
X0498506Y0092280D03*
X0520553Y0084699D03*
X0524490Y0084699D03*
X0529215Y0087555D03*
X0529215Y0091492D03*
X0529215Y0095429D03*
X0529215Y0099366D03*
X0532212Y0099366D03*
X0536149Y0099366D03*
X0539181Y0099366D03*
X0542212Y0099366D03*
X0546149Y0099366D03*
X0539181Y0095429D03*
X0499293Y0073776D03*
X0499293Y0069839D03*
X0452049Y0042280D03*
X0452049Y0038343D03*
X0448112Y0061965D03*
X0448112Y0065902D03*
X0365669Y0099366D03*
X0361732Y0099366D03*
X0358700Y0099366D03*
X0355669Y0099366D03*
X0351732Y0099366D03*
X0348734Y0099366D03*
X0348734Y0095429D03*
X0348734Y0091492D03*
X0348734Y0087555D03*
X0344010Y0084699D03*
X0340073Y0084699D03*
X0358700Y0095429D03*
X0321766Y0092280D03*
X0318026Y0092280D03*
X0318026Y0088343D03*
X0321766Y0088343D03*
X0313230Y0085469D03*
X0313230Y0081531D03*
X0305230Y0081500D03*
X0305230Y0085437D03*
X0295191Y0101335D03*
X0295191Y0105272D03*
X0291254Y0105272D03*
X0291254Y0101335D03*
X0308183Y0106453D03*
X0308183Y0110390D03*
X0308183Y0114327D03*
X0308183Y0118264D03*
X0318813Y0073776D03*
X0318813Y0069839D03*
X0271569Y0042280D03*
X0271569Y0038343D03*
X0267632Y0061965D03*
X0267632Y0065902D03*
X0138333Y0069839D03*
X0138333Y0073776D03*
X0091089Y0042280D03*
X0091089Y0038343D03*
X0087152Y0061965D03*
X0087152Y0065902D03*
X0089907Y0133618D03*
X0093844Y0133618D03*
X0083215Y0164327D03*
X0079278Y0164327D03*
X0056837Y0152516D03*
X0056837Y0148579D03*
X0052900Y0148579D03*
X0052900Y0152516D03*
X0091089Y0197823D03*
X0091089Y0201760D03*
X0087152Y0221445D03*
X0087152Y0225382D03*
X0124750Y0240980D03*
X0124750Y0244917D03*
X0132750Y0244949D03*
X0132750Y0241012D03*
X0137545Y0247823D03*
X0141285Y0247823D03*
X0141285Y0251760D03*
X0137545Y0251760D03*
X0127703Y0265933D03*
X0127703Y0269870D03*
X0127703Y0273807D03*
X0127703Y0277744D03*
X0114711Y0264752D03*
X0114711Y0260815D03*
X0110774Y0260815D03*
X0110774Y0264752D03*
X0093844Y0293098D03*
X0089907Y0293098D03*
X0056837Y0308059D03*
X0056837Y0311996D03*
X0052900Y0311996D03*
X0052900Y0308059D03*
X0079278Y0323807D03*
X0083215Y0323807D03*
X0118648Y0311996D03*
X0122585Y0311996D03*
X0122585Y0308059D03*
X0118648Y0308059D03*
X0144238Y0308059D03*
X0144238Y0311996D03*
X0163923Y0311996D03*
X0163923Y0308059D03*
X0163923Y0304122D03*
X0163923Y0315933D03*
X0173766Y0317902D03*
X0173766Y0321839D03*
X0177703Y0321839D03*
X0177703Y0317902D03*
X0233380Y0311996D03*
X0237317Y0311996D03*
X0237317Y0308059D03*
X0233380Y0308059D03*
X0259758Y0323807D03*
X0263695Y0323807D03*
X0299128Y0311996D03*
X0303065Y0311996D03*
X0303065Y0308059D03*
X0299128Y0308059D03*
X0324718Y0308059D03*
X0324718Y0311996D03*
X0344404Y0311996D03*
X0344404Y0308059D03*
X0344404Y0304122D03*
X0344404Y0315933D03*
X0354246Y0317902D03*
X0354246Y0321839D03*
X0358183Y0321839D03*
X0358183Y0317902D03*
X0308183Y0277744D03*
X0308183Y0273807D03*
X0308183Y0269870D03*
X0308183Y0265933D03*
X0295191Y0264752D03*
X0295191Y0260815D03*
X0291254Y0260815D03*
X0291254Y0264752D03*
X0318026Y0251760D03*
X0321766Y0251760D03*
X0321766Y0247823D03*
X0318026Y0247823D03*
X0313230Y0244949D03*
X0313230Y0241012D03*
X0305230Y0240980D03*
X0305230Y0244917D03*
X0318813Y0233256D03*
X0318813Y0229319D03*
X0340073Y0244180D03*
X0344010Y0244180D03*
X0348734Y0247035D03*
X0348734Y0250972D03*
X0348734Y0254909D03*
X0348734Y0258846D03*
X0351732Y0258846D03*
X0355669Y0258846D03*
X0358700Y0258846D03*
X0361732Y0258846D03*
X0365669Y0258846D03*
X0358700Y0254909D03*
X0413860Y0308059D03*
X0413860Y0311996D03*
X0417797Y0311996D03*
X0417797Y0308059D03*
X0440238Y0323807D03*
X0444175Y0323807D03*
X0479608Y0311996D03*
X0479608Y0308059D03*
X0483545Y0308059D03*
X0483545Y0311996D03*
X0505199Y0311996D03*
X0505199Y0308059D03*
X0524884Y0308059D03*
X0524884Y0304122D03*
X0524884Y0311996D03*
X0524884Y0315933D03*
X0534726Y0317902D03*
X0534726Y0321839D03*
X0538663Y0321839D03*
X0538663Y0317902D03*
X0488663Y0277744D03*
X0488663Y0273807D03*
X0488663Y0269870D03*
X0488663Y0265933D03*
X0475671Y0264752D03*
X0471734Y0264752D03*
X0471734Y0260815D03*
X0475671Y0260815D03*
X0485711Y0244917D03*
X0485711Y0240980D03*
X0493711Y0241012D03*
X0493711Y0244949D03*
X0498506Y0247823D03*
X0502246Y0247823D03*
X0502246Y0251760D03*
X0498506Y0251760D03*
X0520553Y0244180D03*
X0524490Y0244180D03*
X0529215Y0247035D03*
X0529215Y0250972D03*
X0529215Y0254909D03*
X0529215Y0258846D03*
X0532212Y0258846D03*
X0536149Y0258846D03*
X0539181Y0258846D03*
X0542212Y0258846D03*
X0546149Y0258846D03*
X0539181Y0254909D03*
X0499293Y0233256D03*
X0499293Y0229319D03*
X0452049Y0201760D03*
X0452049Y0197823D03*
X0448112Y0221445D03*
X0448112Y0225382D03*
X0450868Y0293098D03*
X0454805Y0293098D03*
X0452049Y0357303D03*
X0452049Y0361240D03*
X0448112Y0380925D03*
X0448112Y0384862D03*
X0485711Y0400461D03*
X0485711Y0404398D03*
X0493711Y0404429D03*
X0493711Y0400492D03*
X0498506Y0407303D03*
X0502246Y0407303D03*
X0502246Y0411240D03*
X0498506Y0411240D03*
X0488663Y0425413D03*
X0488663Y0429350D03*
X0488663Y0433287D03*
X0488663Y0437224D03*
X0475671Y0424232D03*
X0475671Y0420295D03*
X0471734Y0420295D03*
X0471734Y0424232D03*
X0454805Y0452579D03*
X0450868Y0452579D03*
X0479608Y0467539D03*
X0483545Y0467539D03*
X0483545Y0471476D03*
X0479608Y0471476D03*
X0505199Y0471476D03*
X0505199Y0467539D03*
X0524884Y0467539D03*
X0524884Y0463602D03*
X0524884Y0471476D03*
X0524884Y0475413D03*
X0534726Y0477382D03*
X0534726Y0481319D03*
X0538663Y0481319D03*
X0538663Y0477382D03*
X0539181Y0418327D03*
X0542212Y0418327D03*
X0546149Y0418327D03*
X0539181Y0414390D03*
X0536149Y0418327D03*
X0532212Y0418327D03*
X0529215Y0418327D03*
X0529215Y0414390D03*
X0529215Y0410453D03*
X0529215Y0406516D03*
X0524490Y0403660D03*
X0520553Y0403660D03*
X0499293Y0392736D03*
X0499293Y0388799D03*
X0417797Y0467539D03*
X0413860Y0467539D03*
X0413860Y0471476D03*
X0417797Y0471476D03*
X0440238Y0483287D03*
X0444175Y0483287D03*
X0365669Y0418327D03*
X0361732Y0418327D03*
X0358700Y0418327D03*
X0355669Y0418327D03*
X0351732Y0418327D03*
X0348734Y0418327D03*
X0348734Y0414390D03*
X0348734Y0410453D03*
X0348734Y0406516D03*
X0344010Y0403660D03*
X0340073Y0403660D03*
X0358700Y0414390D03*
X0321766Y0411240D03*
X0318026Y0411240D03*
X0318026Y0407303D03*
X0321766Y0407303D03*
X0313230Y0404429D03*
X0313230Y0400492D03*
X0305230Y0400461D03*
X0305230Y0404398D03*
X0318813Y0392736D03*
X0318813Y0388799D03*
X0295191Y0420295D03*
X0291254Y0420295D03*
X0291254Y0424232D03*
X0295191Y0424232D03*
X0308183Y0425413D03*
X0308183Y0429350D03*
X0308183Y0433287D03*
X0308183Y0437224D03*
X0274325Y0452579D03*
X0270388Y0452579D03*
X0299128Y0467539D03*
X0303065Y0467539D03*
X0303065Y0471476D03*
X0299128Y0471476D03*
X0324718Y0471476D03*
X0324718Y0467539D03*
X0344404Y0467539D03*
X0344404Y0463602D03*
X0344404Y0471476D03*
X0344404Y0475413D03*
X0354246Y0477382D03*
X0354246Y0481319D03*
X0358183Y0481319D03*
X0358183Y0477382D03*
X0263695Y0483287D03*
X0259758Y0483287D03*
X0237317Y0471476D03*
X0237317Y0467539D03*
X0233380Y0467539D03*
X0233380Y0471476D03*
X0177703Y0477382D03*
X0177703Y0481319D03*
X0173766Y0481319D03*
X0173766Y0477382D03*
X0163923Y0475413D03*
X0163923Y0471476D03*
X0163923Y0467539D03*
X0163923Y0463602D03*
X0144238Y0467539D03*
X0144238Y0471476D03*
X0122585Y0471476D03*
X0122585Y0467539D03*
X0118648Y0467539D03*
X0118648Y0471476D03*
X0093844Y0452579D03*
X0089907Y0452579D03*
X0056837Y0467539D03*
X0056837Y0471476D03*
X0052900Y0471476D03*
X0052900Y0467539D03*
X0079278Y0483287D03*
X0083215Y0483287D03*
X0127703Y0437224D03*
X0127703Y0433287D03*
X0127703Y0429350D03*
X0127703Y0425413D03*
X0114711Y0424232D03*
X0114711Y0420295D03*
X0110774Y0420295D03*
X0110774Y0424232D03*
X0137545Y0411240D03*
X0141285Y0411240D03*
X0141285Y0407303D03*
X0137545Y0407303D03*
X0132750Y0404429D03*
X0132750Y0400492D03*
X0124750Y0400461D03*
X0124750Y0404398D03*
X0138333Y0392736D03*
X0138333Y0388799D03*
X0159593Y0403660D03*
X0163530Y0403660D03*
X0168254Y0406516D03*
X0168254Y0410453D03*
X0168254Y0414390D03*
X0168254Y0418327D03*
X0171252Y0418327D03*
X0175189Y0418327D03*
X0178220Y0418327D03*
X0181252Y0418327D03*
X0185189Y0418327D03*
X0178220Y0414390D03*
X0091089Y0361240D03*
X0091089Y0357303D03*
X0087152Y0380925D03*
X0087152Y0384862D03*
X0168254Y0258846D03*
X0171252Y0258846D03*
X0175189Y0258846D03*
X0178220Y0258846D03*
X0181252Y0258846D03*
X0185189Y0258846D03*
X0178220Y0254909D03*
X0168254Y0254909D03*
X0168254Y0250972D03*
X0168254Y0247035D03*
X0163530Y0244180D03*
X0159593Y0244180D03*
X0138333Y0233256D03*
X0138333Y0229319D03*
X0267632Y0225382D03*
X0267632Y0221445D03*
X0271569Y0201760D03*
X0271569Y0197823D03*
X0270388Y0293098D03*
X0274325Y0293098D03*
X0271569Y0357303D03*
X0271569Y0361240D03*
X0267632Y0380925D03*
X0267632Y0384862D03*
D15*
X0314089Y0426398D03*
X0314089Y0436240D03*
X0494569Y0436240D03*
X0494569Y0426398D03*
X0494569Y0276760D03*
X0494569Y0266917D03*
X0314089Y0266917D03*
X0314089Y0276760D03*
X0133608Y0276760D03*
X0133608Y0266917D03*
X0133608Y0117280D03*
X0133608Y0107437D03*
X0314089Y0107437D03*
X0314089Y0117280D03*
X0494569Y0117280D03*
X0494569Y0107437D03*
X0133608Y0426398D03*
X0133608Y0436240D03*
D16*
X0135183Y0421476D03*
X0135183Y0415177D03*
X0315663Y0415177D03*
X0315663Y0421476D03*
X0496144Y0421476D03*
X0496144Y0415177D03*
X0496144Y0261996D03*
X0496144Y0255697D03*
X0315663Y0255697D03*
X0315663Y0261996D03*
X0135183Y0261996D03*
X0135183Y0255697D03*
X0135183Y0102516D03*
X0135183Y0096217D03*
X0315663Y0096217D03*
X0315663Y0102516D03*
X0496144Y0102516D03*
X0496144Y0096217D03*
D17*
X0506774Y0090705D03*
X0513073Y0090705D03*
X0332593Y0090705D03*
X0326293Y0090705D03*
X0152112Y0090705D03*
X0145813Y0090705D03*
X0145813Y0250185D03*
X0152112Y0250185D03*
X0326293Y0250185D03*
X0332593Y0250185D03*
X0506774Y0250185D03*
X0513073Y0250185D03*
X0513073Y0409665D03*
X0506774Y0409665D03*
X0332593Y0409665D03*
X0326293Y0409665D03*
X0152112Y0409665D03*
X0145813Y0409665D03*
D18*
X0199860Y0404941D03*
X0199860Y0418327D03*
X0380341Y0418327D03*
X0380341Y0404941D03*
X0380341Y0258846D03*
X0380341Y0245461D03*
X0199860Y0245461D03*
X0199860Y0258846D03*
X0199860Y0099366D03*
X0199860Y0085980D03*
X0380341Y0085980D03*
X0380341Y0099366D03*
X0560821Y0099366D03*
X0560821Y0085980D03*
X0560821Y0245461D03*
X0560821Y0258846D03*
X0560821Y0404941D03*
X0560821Y0418327D03*
D19*
X0539195Y0451634D03*
X0539195Y0456634D03*
X0539195Y0461634D03*
X0539195Y0466634D03*
X0539195Y0471634D03*
X0534195Y0471634D03*
X0534195Y0466634D03*
X0534195Y0461634D03*
X0534195Y0456634D03*
X0534195Y0451634D03*
X0520191Y0513191D03*
X0414648Y0485256D03*
X0358715Y0471634D03*
X0358715Y0466634D03*
X0358715Y0461634D03*
X0358715Y0456634D03*
X0358715Y0451634D03*
X0353715Y0451634D03*
X0353715Y0456634D03*
X0353715Y0461634D03*
X0353715Y0466634D03*
X0353715Y0471634D03*
X0234167Y0485256D03*
X0178234Y0471634D03*
X0173234Y0471634D03*
X0173234Y0466634D03*
X0173234Y0461634D03*
X0173234Y0456634D03*
X0173234Y0451634D03*
X0178234Y0451634D03*
X0178234Y0456634D03*
X0178234Y0461634D03*
X0178234Y0466634D03*
X0097750Y0513191D03*
X0053687Y0485256D03*
X0187545Y0351398D03*
X0234167Y0325776D03*
X0178234Y0312154D03*
X0173234Y0312154D03*
X0173234Y0307154D03*
X0178234Y0307154D03*
X0178234Y0302154D03*
X0173234Y0302154D03*
X0173234Y0297154D03*
X0178234Y0297154D03*
X0178234Y0292154D03*
X0173234Y0292154D03*
X0053687Y0325776D03*
X0187545Y0191917D03*
X0234167Y0166295D03*
X0178234Y0152673D03*
X0173234Y0152673D03*
X0173234Y0147673D03*
X0173234Y0142673D03*
X0173234Y0137673D03*
X0173234Y0132673D03*
X0178234Y0132673D03*
X0178234Y0137673D03*
X0178234Y0142673D03*
X0178234Y0147673D03*
X0053687Y0166295D03*
X0187545Y0032437D03*
X0353715Y0132673D03*
X0358715Y0132673D03*
X0358715Y0137673D03*
X0358715Y0142673D03*
X0358715Y0147673D03*
X0358715Y0152673D03*
X0353715Y0152673D03*
X0353715Y0147673D03*
X0353715Y0142673D03*
X0353715Y0137673D03*
X0414648Y0166295D03*
X0368026Y0191917D03*
X0358715Y0292154D03*
X0358715Y0297154D03*
X0358715Y0302154D03*
X0358715Y0307154D03*
X0358715Y0312154D03*
X0353715Y0312154D03*
X0353715Y0307154D03*
X0353715Y0302154D03*
X0353715Y0297154D03*
X0353715Y0292154D03*
X0414648Y0325776D03*
X0368026Y0351398D03*
X0534195Y0312154D03*
X0539195Y0312154D03*
X0539195Y0307154D03*
X0534195Y0307154D03*
X0534195Y0302154D03*
X0539195Y0302154D03*
X0539195Y0297154D03*
X0534195Y0297154D03*
X0534195Y0292154D03*
X0539195Y0292154D03*
X0548506Y0351398D03*
X0548506Y0191917D03*
X0539195Y0152673D03*
X0539195Y0147673D03*
X0539195Y0142673D03*
X0539195Y0137673D03*
X0539195Y0132673D03*
X0534195Y0132673D03*
X0534195Y0137673D03*
X0534195Y0142673D03*
X0534195Y0147673D03*
X0534195Y0152673D03*
X0548506Y0032437D03*
X0368026Y0032437D03*
D20*
X0439549Y0036000D03*
X0444864Y0036000D03*
X0444864Y0044622D03*
X0439549Y0044622D03*
X0439549Y0169858D03*
X0444864Y0169858D03*
X0444864Y0178480D03*
X0439549Y0178480D03*
X0439549Y0195480D03*
X0444864Y0195480D03*
X0444864Y0204102D03*
X0439549Y0204102D03*
X0439549Y0329339D03*
X0444864Y0329339D03*
X0444864Y0337961D03*
X0439549Y0337961D03*
X0439549Y0354961D03*
X0444864Y0354961D03*
X0444864Y0363583D03*
X0439549Y0363583D03*
X0439549Y0488819D03*
X0444864Y0488819D03*
X0444864Y0497441D03*
X0439549Y0497441D03*
X0264384Y0497441D03*
X0259069Y0497441D03*
X0259069Y0488819D03*
X0264384Y0488819D03*
X0264384Y0363583D03*
X0259069Y0363583D03*
X0259069Y0354961D03*
X0264384Y0354961D03*
X0264384Y0337961D03*
X0259069Y0337961D03*
X0259069Y0329339D03*
X0264384Y0329339D03*
X0264384Y0204102D03*
X0259069Y0204102D03*
X0259069Y0195480D03*
X0264384Y0195480D03*
X0264384Y0178480D03*
X0259069Y0178480D03*
X0259069Y0169858D03*
X0264384Y0169858D03*
X0264384Y0044622D03*
X0259069Y0044622D03*
X0259069Y0036000D03*
X0264384Y0036000D03*
X0083904Y0036000D03*
X0078589Y0036000D03*
X0078589Y0044622D03*
X0083904Y0044622D03*
X0083904Y0169858D03*
X0078589Y0169858D03*
X0078589Y0178480D03*
X0083904Y0178480D03*
X0083904Y0195480D03*
X0078589Y0195480D03*
X0078589Y0204102D03*
X0083904Y0204102D03*
X0083904Y0329339D03*
X0078589Y0329339D03*
X0078589Y0337961D03*
X0083904Y0337961D03*
X0083904Y0354961D03*
X0078589Y0354961D03*
X0078589Y0363583D03*
X0083904Y0363583D03*
X0083904Y0488819D03*
X0078589Y0488819D03*
X0078589Y0497441D03*
X0083904Y0497441D03*
D21*
X0105852Y0483681D03*
X0107821Y0483681D03*
X0109789Y0483681D03*
X0111758Y0483681D03*
X0113726Y0483681D03*
X0115695Y0483681D03*
X0117663Y0483681D03*
X0119632Y0483681D03*
X0121600Y0483681D03*
X0123569Y0483681D03*
X0125537Y0483681D03*
X0127506Y0483681D03*
X0129474Y0483681D03*
X0131443Y0483681D03*
X0133411Y0483681D03*
X0135380Y0483681D03*
X0137348Y0483681D03*
X0139317Y0483681D03*
X0141285Y0483681D03*
X0143254Y0483681D03*
X0145222Y0483681D03*
X0147191Y0483681D03*
X0149159Y0483681D03*
X0151128Y0483681D03*
X0286333Y0483681D03*
X0288301Y0483681D03*
X0290270Y0483681D03*
X0292238Y0483681D03*
X0294207Y0483681D03*
X0296175Y0483681D03*
X0298144Y0483681D03*
X0300112Y0483681D03*
X0302081Y0483681D03*
X0304049Y0483681D03*
X0306018Y0483681D03*
X0307986Y0483681D03*
X0309955Y0483681D03*
X0311923Y0483681D03*
X0313892Y0483681D03*
X0315860Y0483681D03*
X0317829Y0483681D03*
X0319797Y0483681D03*
X0321766Y0483681D03*
X0323734Y0483681D03*
X0325703Y0483681D03*
X0327671Y0483681D03*
X0329640Y0483681D03*
X0331608Y0483681D03*
X0466813Y0483681D03*
X0468781Y0483681D03*
X0470750Y0483681D03*
X0472718Y0483681D03*
X0474687Y0483681D03*
X0476655Y0483681D03*
X0478624Y0483681D03*
X0480592Y0483681D03*
X0482561Y0483681D03*
X0484530Y0483681D03*
X0486498Y0483681D03*
X0488467Y0483681D03*
X0490435Y0483681D03*
X0492404Y0483681D03*
X0494372Y0483681D03*
X0496341Y0483681D03*
X0498309Y0483681D03*
X0500278Y0483681D03*
X0502246Y0483681D03*
X0504215Y0483681D03*
X0506183Y0483681D03*
X0508152Y0483681D03*
X0510120Y0483681D03*
X0512089Y0483681D03*
X0512089Y0324201D03*
X0510120Y0324201D03*
X0508152Y0324201D03*
X0506183Y0324201D03*
X0504215Y0324201D03*
X0502246Y0324201D03*
X0500278Y0324201D03*
X0498309Y0324201D03*
X0496341Y0324201D03*
X0494372Y0324201D03*
X0492404Y0324201D03*
X0490435Y0324201D03*
X0488467Y0324201D03*
X0486498Y0324201D03*
X0484530Y0324201D03*
X0482561Y0324201D03*
X0480592Y0324201D03*
X0478624Y0324201D03*
X0476655Y0324201D03*
X0474687Y0324201D03*
X0472718Y0324201D03*
X0470750Y0324201D03*
X0468781Y0324201D03*
X0466813Y0324201D03*
X0331608Y0324201D03*
X0329640Y0324201D03*
X0327671Y0324201D03*
X0325703Y0324201D03*
X0323734Y0324201D03*
X0321766Y0324201D03*
X0319797Y0324201D03*
X0317829Y0324201D03*
X0315860Y0324201D03*
X0313892Y0324201D03*
X0311923Y0324201D03*
X0309955Y0324201D03*
X0307986Y0324201D03*
X0306018Y0324201D03*
X0304049Y0324201D03*
X0302081Y0324201D03*
X0300112Y0324201D03*
X0298144Y0324201D03*
X0296175Y0324201D03*
X0294207Y0324201D03*
X0292238Y0324201D03*
X0290270Y0324201D03*
X0288301Y0324201D03*
X0286333Y0324201D03*
X0151128Y0324201D03*
X0149159Y0324201D03*
X0147191Y0324201D03*
X0145222Y0324201D03*
X0143254Y0324201D03*
X0141285Y0324201D03*
X0139317Y0324201D03*
X0137348Y0324201D03*
X0135380Y0324201D03*
X0133411Y0324201D03*
X0131443Y0324201D03*
X0129474Y0324201D03*
X0127506Y0324201D03*
X0125537Y0324201D03*
X0123569Y0324201D03*
X0121600Y0324201D03*
X0119632Y0324201D03*
X0117663Y0324201D03*
X0115695Y0324201D03*
X0113726Y0324201D03*
X0111758Y0324201D03*
X0109789Y0324201D03*
X0107821Y0324201D03*
X0105852Y0324201D03*
X0105852Y0164720D03*
X0107821Y0164720D03*
X0109789Y0164720D03*
X0111758Y0164720D03*
X0113726Y0164720D03*
X0115695Y0164720D03*
X0117663Y0164720D03*
X0119632Y0164720D03*
X0121600Y0164720D03*
X0123569Y0164720D03*
X0125537Y0164720D03*
X0127506Y0164720D03*
X0129474Y0164720D03*
X0131443Y0164720D03*
X0133411Y0164720D03*
X0135380Y0164720D03*
X0137348Y0164720D03*
X0139317Y0164720D03*
X0141285Y0164720D03*
X0143254Y0164720D03*
X0145222Y0164720D03*
X0147191Y0164720D03*
X0149159Y0164720D03*
X0151128Y0164720D03*
X0286333Y0164720D03*
X0288301Y0164720D03*
X0290270Y0164720D03*
X0292238Y0164720D03*
X0294207Y0164720D03*
X0296175Y0164720D03*
X0298144Y0164720D03*
X0300112Y0164720D03*
X0302081Y0164720D03*
X0304049Y0164720D03*
X0306018Y0164720D03*
X0307986Y0164720D03*
X0309955Y0164720D03*
X0311923Y0164720D03*
X0313892Y0164720D03*
X0315860Y0164720D03*
X0317829Y0164720D03*
X0319797Y0164720D03*
X0321766Y0164720D03*
X0323734Y0164720D03*
X0325703Y0164720D03*
X0327671Y0164720D03*
X0329640Y0164720D03*
X0331608Y0164720D03*
X0466813Y0164720D03*
X0468781Y0164720D03*
X0470750Y0164720D03*
X0472718Y0164720D03*
X0474687Y0164720D03*
X0476655Y0164720D03*
X0478624Y0164720D03*
X0480592Y0164720D03*
X0482561Y0164720D03*
X0484530Y0164720D03*
X0486498Y0164720D03*
X0488467Y0164720D03*
X0490435Y0164720D03*
X0492404Y0164720D03*
X0494372Y0164720D03*
X0496341Y0164720D03*
X0498309Y0164720D03*
X0500278Y0164720D03*
X0502246Y0164720D03*
X0504215Y0164720D03*
X0506183Y0164720D03*
X0508152Y0164720D03*
X0510120Y0164720D03*
X0512089Y0164720D03*
D22*
X0516321Y0169642D03*
X0462581Y0169642D03*
X0335841Y0169642D03*
X0282100Y0169642D03*
X0155360Y0169642D03*
X0101620Y0169642D03*
X0101620Y0329122D03*
X0155360Y0329122D03*
X0282100Y0329122D03*
X0335841Y0329122D03*
X0462581Y0329122D03*
X0516321Y0329122D03*
X0516321Y0488602D03*
X0462581Y0488602D03*
X0335841Y0488602D03*
X0282100Y0488602D03*
X0155360Y0488602D03*
X0101620Y0488602D03*
D23*
X0096404Y0487224D03*
X0160577Y0487224D03*
X0276884Y0487224D03*
X0341057Y0487224D03*
X0457364Y0487224D03*
X0521537Y0487224D03*
X0521537Y0327744D03*
X0457364Y0327744D03*
X0341057Y0327744D03*
X0276884Y0327744D03*
X0160577Y0327744D03*
X0096404Y0327744D03*
X0096404Y0168264D03*
X0160577Y0168264D03*
X0276884Y0168264D03*
X0341057Y0168264D03*
X0457364Y0168264D03*
X0521537Y0168264D03*
D24*
X0060886Y0039636D03*
X0196095Y0039636D03*
X0241366Y0039636D03*
X0376575Y0039636D03*
X0421846Y0039636D03*
X0557055Y0039636D03*
X0557055Y0174845D03*
X0557055Y0199116D03*
X0421846Y0199116D03*
X0421846Y0174845D03*
X0376575Y0174845D03*
X0376575Y0199116D03*
X0241366Y0199116D03*
X0241366Y0174845D03*
X0196095Y0174845D03*
X0196095Y0199116D03*
X0060886Y0199116D03*
X0060886Y0174845D03*
X0060886Y0334325D03*
X0060886Y0358596D03*
X0196095Y0358596D03*
X0196095Y0334325D03*
X0241366Y0334325D03*
X0241366Y0358596D03*
X0376575Y0358596D03*
X0376575Y0334325D03*
X0421846Y0334325D03*
X0421846Y0358596D03*
X0557055Y0358596D03*
X0557055Y0334325D03*
X0557055Y0493805D03*
X0421846Y0493805D03*
X0376575Y0493805D03*
X0241366Y0493805D03*
X0196095Y0493805D03*
X0060886Y0493805D03*
D25*
X0127506Y0393720D03*
X0129474Y0393720D03*
X0129474Y0387815D03*
X0127506Y0387815D03*
X0307986Y0387815D03*
X0309955Y0387815D03*
X0309955Y0393720D03*
X0307986Y0393720D03*
X0488467Y0393720D03*
X0490435Y0393720D03*
X0490435Y0387815D03*
X0488467Y0387815D03*
X0488467Y0234240D03*
X0490435Y0234240D03*
X0490435Y0228335D03*
X0488467Y0228335D03*
X0309955Y0228335D03*
X0307986Y0228335D03*
X0307986Y0234240D03*
X0309955Y0234240D03*
X0129474Y0234240D03*
X0127506Y0234240D03*
X0127506Y0228335D03*
X0129474Y0228335D03*
X0129474Y0074760D03*
X0127506Y0074760D03*
X0127506Y0068854D03*
X0129474Y0068854D03*
X0307986Y0068854D03*
X0309955Y0068854D03*
X0309955Y0074760D03*
X0307986Y0074760D03*
X0488467Y0074760D03*
X0490435Y0074760D03*
X0490435Y0068854D03*
X0488467Y0068854D03*
D26*
X0486498Y0068854D03*
X0486498Y0070823D03*
X0486498Y0072791D03*
X0486498Y0074760D03*
X0492404Y0074760D03*
X0492404Y0072791D03*
X0492404Y0070823D03*
X0492404Y0068854D03*
X0311923Y0068854D03*
X0311923Y0070823D03*
X0311923Y0072791D03*
X0311923Y0074760D03*
X0306018Y0074760D03*
X0306018Y0072791D03*
X0306018Y0070823D03*
X0306018Y0068854D03*
X0131443Y0068854D03*
X0131443Y0070823D03*
X0131443Y0072791D03*
X0131443Y0074760D03*
X0125537Y0074760D03*
X0125537Y0072791D03*
X0125537Y0070823D03*
X0125537Y0068854D03*
X0125537Y0228335D03*
X0125537Y0230303D03*
X0125537Y0232272D03*
X0125537Y0234240D03*
X0131443Y0234240D03*
X0131443Y0232272D03*
X0131443Y0230303D03*
X0131443Y0228335D03*
X0306018Y0228335D03*
X0306018Y0230303D03*
X0306018Y0232272D03*
X0306018Y0234240D03*
X0311923Y0234240D03*
X0311923Y0232272D03*
X0311923Y0230303D03*
X0311923Y0228335D03*
X0486498Y0228335D03*
X0486498Y0230303D03*
X0486498Y0232272D03*
X0486498Y0234240D03*
X0492404Y0234240D03*
X0492404Y0232272D03*
X0492404Y0230303D03*
X0492404Y0228335D03*
X0492404Y0387815D03*
X0492404Y0389783D03*
X0492404Y0391752D03*
X0492404Y0393720D03*
X0486498Y0393720D03*
X0486498Y0391752D03*
X0486498Y0389783D03*
X0486498Y0387815D03*
X0311923Y0387815D03*
X0311923Y0389783D03*
X0311923Y0391752D03*
X0311923Y0393720D03*
X0306018Y0393720D03*
X0306018Y0391752D03*
X0306018Y0389783D03*
X0306018Y0387815D03*
X0131443Y0387815D03*
X0131443Y0389783D03*
X0131443Y0391752D03*
X0131443Y0393720D03*
X0125537Y0393720D03*
X0125537Y0391752D03*
X0125537Y0389783D03*
X0125537Y0387815D03*
D27*
X0124553Y0378366D03*
X0124553Y0371673D03*
X0116679Y0371673D03*
X0116679Y0378366D03*
X0108805Y0378366D03*
X0108805Y0371673D03*
X0132427Y0371673D03*
X0132427Y0378366D03*
X0144238Y0387421D03*
X0144238Y0394114D03*
X0112742Y0466161D03*
X0106837Y0466161D03*
X0106837Y0472854D03*
X0112742Y0472854D03*
X0095026Y0470098D03*
X0089120Y0470098D03*
X0089120Y0476791D03*
X0095026Y0476791D03*
X0269600Y0476791D03*
X0275506Y0476791D03*
X0275506Y0470098D03*
X0269600Y0470098D03*
X0287317Y0472854D03*
X0293222Y0472854D03*
X0293222Y0466161D03*
X0287317Y0466161D03*
X0324718Y0394114D03*
X0324718Y0387421D03*
X0312907Y0378366D03*
X0312907Y0371673D03*
X0305033Y0371673D03*
X0305033Y0378366D03*
X0297159Y0378366D03*
X0297159Y0371673D03*
X0289285Y0371673D03*
X0289285Y0378366D03*
X0275506Y0317311D03*
X0269600Y0317311D03*
X0269600Y0310618D03*
X0275506Y0310618D03*
X0287317Y0313374D03*
X0293222Y0313374D03*
X0293222Y0306681D03*
X0287317Y0306681D03*
X0324718Y0234634D03*
X0324718Y0227941D03*
X0312907Y0218886D03*
X0305033Y0218886D03*
X0305033Y0212193D03*
X0312907Y0212193D03*
X0297159Y0212193D03*
X0289285Y0212193D03*
X0289285Y0218886D03*
X0297159Y0218886D03*
X0275506Y0157831D03*
X0269600Y0157831D03*
X0269600Y0151138D03*
X0275506Y0151138D03*
X0287317Y0153894D03*
X0293222Y0153894D03*
X0293222Y0147201D03*
X0287317Y0147201D03*
X0324718Y0075154D03*
X0324718Y0068461D03*
X0312907Y0059406D03*
X0305033Y0059406D03*
X0305033Y0052713D03*
X0312907Y0052713D03*
X0297159Y0052713D03*
X0289285Y0052713D03*
X0289285Y0059406D03*
X0297159Y0059406D03*
X0144238Y0068461D03*
X0132427Y0059406D03*
X0132427Y0052713D03*
X0124553Y0052713D03*
X0116679Y0052713D03*
X0108805Y0052713D03*
X0108805Y0059406D03*
X0116679Y0059406D03*
X0124553Y0059406D03*
X0144238Y0075154D03*
X0112742Y0147201D03*
X0106837Y0147201D03*
X0106837Y0153894D03*
X0112742Y0153894D03*
X0095026Y0151138D03*
X0089120Y0151138D03*
X0089120Y0157831D03*
X0095026Y0157831D03*
X0108805Y0212193D03*
X0116679Y0212193D03*
X0124553Y0212193D03*
X0124553Y0218886D03*
X0116679Y0218886D03*
X0108805Y0218886D03*
X0132427Y0218886D03*
X0144238Y0227941D03*
X0144238Y0234634D03*
X0132427Y0212193D03*
X0112742Y0306681D03*
X0106837Y0306681D03*
X0106837Y0313374D03*
X0112742Y0313374D03*
X0095026Y0310618D03*
X0089120Y0310618D03*
X0089120Y0317311D03*
X0095026Y0317311D03*
X0450081Y0317311D03*
X0455986Y0317311D03*
X0455986Y0310618D03*
X0450081Y0310618D03*
X0467797Y0313374D03*
X0473703Y0313374D03*
X0473703Y0306681D03*
X0467797Y0306681D03*
X0469766Y0371673D03*
X0469766Y0378366D03*
X0477640Y0378366D03*
X0477640Y0371673D03*
X0485514Y0371673D03*
X0485514Y0378366D03*
X0493388Y0378366D03*
X0493388Y0371673D03*
X0505199Y0387421D03*
X0505199Y0394114D03*
X0473703Y0466161D03*
X0467797Y0466161D03*
X0467797Y0472854D03*
X0473703Y0472854D03*
X0455986Y0470098D03*
X0450081Y0470098D03*
X0450081Y0476791D03*
X0455986Y0476791D03*
X0505199Y0234634D03*
X0505199Y0227941D03*
X0493388Y0218886D03*
X0485514Y0218886D03*
X0485514Y0212193D03*
X0493388Y0212193D03*
X0477640Y0212193D03*
X0469766Y0212193D03*
X0469766Y0218886D03*
X0477640Y0218886D03*
X0455986Y0157831D03*
X0450081Y0157831D03*
X0450081Y0151138D03*
X0455986Y0151138D03*
X0467797Y0153894D03*
X0473703Y0153894D03*
X0473703Y0147201D03*
X0467797Y0147201D03*
X0505199Y0075154D03*
X0505199Y0068461D03*
X0493388Y0059406D03*
X0485514Y0059406D03*
X0485514Y0052713D03*
X0493388Y0052713D03*
X0477640Y0052713D03*
X0469766Y0052713D03*
X0469766Y0059406D03*
X0477640Y0059406D03*
D28*
X0477049Y0067870D03*
X0470356Y0067870D03*
X0461301Y0059996D03*
X0461301Y0054091D03*
X0461301Y0048185D03*
X0454608Y0048185D03*
X0454608Y0054091D03*
X0454608Y0059996D03*
X0470356Y0075744D03*
X0477049Y0075744D03*
X0549096Y0126925D03*
X0555789Y0126925D03*
X0555789Y0158421D03*
X0549096Y0158421D03*
X0477049Y0227350D03*
X0470356Y0227350D03*
X0461301Y0219476D03*
X0461301Y0213571D03*
X0454608Y0213571D03*
X0454608Y0219476D03*
X0454608Y0207665D03*
X0461301Y0207665D03*
X0470356Y0235224D03*
X0477049Y0235224D03*
X0549096Y0286405D03*
X0555789Y0286405D03*
X0555789Y0317902D03*
X0549096Y0317902D03*
X0477049Y0386831D03*
X0470356Y0386831D03*
X0470356Y0394705D03*
X0477049Y0394705D03*
X0461301Y0378957D03*
X0454608Y0378957D03*
X0454608Y0373051D03*
X0454608Y0367146D03*
X0461301Y0367146D03*
X0461301Y0373051D03*
X0456380Y0304516D03*
X0449687Y0304516D03*
X0375309Y0317902D03*
X0368616Y0317902D03*
X0368616Y0286405D03*
X0375309Y0286405D03*
X0296569Y0235224D03*
X0289876Y0235224D03*
X0289876Y0227350D03*
X0296569Y0227350D03*
X0280821Y0219476D03*
X0280821Y0213571D03*
X0274128Y0213571D03*
X0274128Y0219476D03*
X0274128Y0207665D03*
X0280821Y0207665D03*
X0275900Y0145035D03*
X0269207Y0145035D03*
X0194829Y0158421D03*
X0188136Y0158421D03*
X0188136Y0126925D03*
X0194829Y0126925D03*
X0116089Y0075744D03*
X0109396Y0075744D03*
X0109396Y0067870D03*
X0116089Y0067870D03*
X0100341Y0059996D03*
X0100341Y0054091D03*
X0100341Y0048185D03*
X0093648Y0048185D03*
X0093648Y0054091D03*
X0093648Y0059996D03*
X0095419Y0145035D03*
X0088726Y0145035D03*
X0093648Y0207665D03*
X0100341Y0207665D03*
X0100341Y0213571D03*
X0100341Y0219476D03*
X0093648Y0219476D03*
X0093648Y0213571D03*
X0109396Y0227350D03*
X0116089Y0227350D03*
X0116089Y0235224D03*
X0109396Y0235224D03*
X0188136Y0286405D03*
X0194829Y0286405D03*
X0194829Y0317902D03*
X0188136Y0317902D03*
X0269207Y0304516D03*
X0275900Y0304516D03*
X0274128Y0367146D03*
X0274128Y0373051D03*
X0280821Y0373051D03*
X0280821Y0367146D03*
X0280821Y0378957D03*
X0274128Y0378957D03*
X0289876Y0386831D03*
X0296569Y0386831D03*
X0296569Y0394705D03*
X0289876Y0394705D03*
X0368616Y0445886D03*
X0375309Y0445886D03*
X0375309Y0477382D03*
X0368616Y0477382D03*
X0449687Y0463996D03*
X0456380Y0463996D03*
X0549096Y0477382D03*
X0555789Y0477382D03*
X0555789Y0445886D03*
X0549096Y0445886D03*
X0275900Y0463996D03*
X0269207Y0463996D03*
X0194829Y0477382D03*
X0188136Y0477382D03*
X0188136Y0445886D03*
X0194829Y0445886D03*
X0116089Y0394705D03*
X0109396Y0394705D03*
X0109396Y0386831D03*
X0116089Y0386831D03*
X0100341Y0378957D03*
X0093648Y0378957D03*
X0093648Y0373051D03*
X0093648Y0367146D03*
X0100341Y0367146D03*
X0100341Y0373051D03*
X0095419Y0304516D03*
X0088726Y0304516D03*
X0088726Y0463996D03*
X0095419Y0463996D03*
X0368616Y0158421D03*
X0375309Y0158421D03*
X0375309Y0126925D03*
X0368616Y0126925D03*
X0449687Y0145035D03*
X0456380Y0145035D03*
X0296569Y0075744D03*
X0289876Y0075744D03*
X0289876Y0067870D03*
X0296569Y0067870D03*
X0280821Y0059996D03*
X0280821Y0054091D03*
X0280821Y0048185D03*
X0274128Y0048185D03*
X0274128Y0054091D03*
X0274128Y0059996D03*
D29*
X0278065Y0093461D03*
X0278065Y0101335D03*
X0269010Y0101335D03*
X0269010Y0093461D03*
X0267829Y0138736D03*
X0276884Y0138736D03*
X0278065Y0252941D03*
X0278065Y0260815D03*
X0269010Y0260815D03*
X0269010Y0252941D03*
X0267829Y0298217D03*
X0276884Y0298217D03*
X0278065Y0412421D03*
X0278065Y0420295D03*
X0269010Y0420295D03*
X0269010Y0412421D03*
X0267829Y0457697D03*
X0276884Y0457697D03*
X0448309Y0457697D03*
X0457364Y0457697D03*
X0458545Y0420295D03*
X0458545Y0412421D03*
X0449490Y0412421D03*
X0449490Y0420295D03*
X0448309Y0298217D03*
X0457364Y0298217D03*
X0458545Y0260815D03*
X0458545Y0252941D03*
X0449490Y0252941D03*
X0449490Y0260815D03*
X0448309Y0138736D03*
X0457364Y0138736D03*
X0458545Y0101335D03*
X0458545Y0093461D03*
X0449490Y0093461D03*
X0449490Y0101335D03*
X0097585Y0101335D03*
X0097585Y0093461D03*
X0088530Y0093461D03*
X0088530Y0101335D03*
X0087348Y0138736D03*
X0096404Y0138736D03*
X0097585Y0252941D03*
X0097585Y0260815D03*
X0088530Y0260815D03*
X0088530Y0252941D03*
X0087348Y0298217D03*
X0096404Y0298217D03*
X0097585Y0412421D03*
X0097585Y0420295D03*
X0088530Y0420295D03*
X0088530Y0412421D03*
X0087348Y0457697D03*
X0096404Y0457697D03*
D30*
X0150341Y0464389D03*
X0154081Y0464389D03*
X0157821Y0464389D03*
X0157821Y0474626D03*
X0150341Y0474626D03*
X0330821Y0474626D03*
X0338301Y0474626D03*
X0338301Y0464389D03*
X0334561Y0464389D03*
X0330821Y0464389D03*
X0511301Y0464389D03*
X0515041Y0464389D03*
X0518781Y0464389D03*
X0518781Y0474626D03*
X0511301Y0474626D03*
X0511301Y0315146D03*
X0518781Y0315146D03*
X0518781Y0304909D03*
X0515041Y0304909D03*
X0511301Y0304909D03*
X0338301Y0304909D03*
X0334561Y0304909D03*
X0330821Y0304909D03*
X0330821Y0315146D03*
X0338301Y0315146D03*
X0157821Y0315146D03*
X0150341Y0315146D03*
X0150341Y0304909D03*
X0154081Y0304909D03*
X0157821Y0304909D03*
X0157821Y0155666D03*
X0150341Y0155666D03*
X0150341Y0145429D03*
X0154081Y0145429D03*
X0157821Y0145429D03*
X0330821Y0145429D03*
X0334561Y0145429D03*
X0338301Y0145429D03*
X0338301Y0155666D03*
X0330821Y0155666D03*
X0511301Y0155666D03*
X0518781Y0155666D03*
X0518781Y0145429D03*
X0515041Y0145429D03*
X0511301Y0145429D03*
D31*
X0441396Y0143047D03*
X0441396Y0158047D03*
X0419396Y0158047D03*
X0419396Y0143047D03*
X0419396Y0071433D03*
X0419396Y0056433D03*
X0441396Y0056433D03*
X0441396Y0071433D03*
X0260915Y0071433D03*
X0260915Y0056433D03*
X0238915Y0056433D03*
X0238915Y0071433D03*
X0238915Y0143047D03*
X0238915Y0158047D03*
X0260915Y0158047D03*
X0260915Y0143047D03*
X0260915Y0215913D03*
X0260915Y0230913D03*
X0238915Y0230913D03*
X0238915Y0215913D03*
X0238915Y0302528D03*
X0238915Y0317528D03*
X0260915Y0317528D03*
X0260915Y0302528D03*
X0260915Y0375394D03*
X0260915Y0390394D03*
X0238915Y0390394D03*
X0238915Y0375394D03*
X0238915Y0462008D03*
X0238915Y0477008D03*
X0260915Y0477008D03*
X0260915Y0462008D03*
X0419396Y0462008D03*
X0419396Y0477008D03*
X0441396Y0477008D03*
X0441396Y0462008D03*
X0441396Y0390394D03*
X0441396Y0375394D03*
X0419396Y0375394D03*
X0419396Y0390394D03*
X0419396Y0317528D03*
X0419396Y0302528D03*
X0441396Y0302528D03*
X0441396Y0317528D03*
X0441396Y0230913D03*
X0441396Y0215913D03*
X0419396Y0215913D03*
X0419396Y0230913D03*
X0080435Y0230913D03*
X0080435Y0215913D03*
X0058435Y0215913D03*
X0058435Y0230913D03*
X0058435Y0302528D03*
X0058435Y0317528D03*
X0080435Y0317528D03*
X0080435Y0302528D03*
X0080435Y0375394D03*
X0080435Y0390394D03*
X0058435Y0390394D03*
X0058435Y0375394D03*
X0058435Y0462008D03*
X0058435Y0477008D03*
X0080435Y0477008D03*
X0080435Y0462008D03*
X0080435Y0158047D03*
X0080435Y0143047D03*
X0058435Y0143047D03*
X0058435Y0158047D03*
X0058435Y0071433D03*
X0058435Y0056433D03*
X0080435Y0056433D03*
X0080435Y0071433D03*
D32*
X0107432Y0049074D02*
X0110178Y0049074D01*
X0110178Y0046328D01*
X0107432Y0046328D01*
X0107432Y0049074D01*
X0107432Y0048218D02*
X0110178Y0048218D01*
X0115306Y0049074D02*
X0118052Y0049074D01*
X0118052Y0046328D01*
X0115306Y0046328D01*
X0115306Y0049074D01*
X0115306Y0048218D02*
X0118052Y0048218D01*
X0123180Y0049074D02*
X0125926Y0049074D01*
X0125926Y0046328D01*
X0123180Y0046328D01*
X0123180Y0049074D01*
X0123180Y0048218D02*
X0125926Y0048218D01*
X0131054Y0049074D02*
X0133800Y0049074D01*
X0133800Y0046328D01*
X0131054Y0046328D01*
X0131054Y0049074D01*
X0131054Y0048218D02*
X0133800Y0048218D01*
X0133800Y0042168D02*
X0131054Y0042168D01*
X0133800Y0042168D02*
X0133800Y0039422D01*
X0131054Y0039422D01*
X0131054Y0042168D01*
X0131054Y0041312D02*
X0133800Y0041312D01*
X0125926Y0042168D02*
X0123180Y0042168D01*
X0125926Y0042168D02*
X0125926Y0039422D01*
X0123180Y0039422D01*
X0123180Y0042168D01*
X0123180Y0041312D02*
X0125926Y0041312D01*
X0118052Y0042168D02*
X0115306Y0042168D01*
X0118052Y0042168D02*
X0118052Y0039422D01*
X0115306Y0039422D01*
X0115306Y0042168D01*
X0115306Y0041312D02*
X0118052Y0041312D01*
X0110178Y0042168D02*
X0107432Y0042168D01*
X0110178Y0042168D02*
X0110178Y0039422D01*
X0107432Y0039422D01*
X0107432Y0042168D01*
X0107432Y0041312D02*
X0110178Y0041312D01*
X0287912Y0042168D02*
X0290658Y0042168D01*
X0290658Y0039422D01*
X0287912Y0039422D01*
X0287912Y0042168D01*
X0287912Y0041312D02*
X0290658Y0041312D01*
X0295786Y0042168D02*
X0298532Y0042168D01*
X0298532Y0039422D01*
X0295786Y0039422D01*
X0295786Y0042168D01*
X0295786Y0041312D02*
X0298532Y0041312D01*
X0303660Y0042168D02*
X0306406Y0042168D01*
X0306406Y0039422D01*
X0303660Y0039422D01*
X0303660Y0042168D01*
X0303660Y0041312D02*
X0306406Y0041312D01*
X0311534Y0042168D02*
X0314280Y0042168D01*
X0314280Y0039422D01*
X0311534Y0039422D01*
X0311534Y0042168D01*
X0311534Y0041312D02*
X0314280Y0041312D01*
X0314280Y0049074D02*
X0311534Y0049074D01*
X0314280Y0049074D02*
X0314280Y0046328D01*
X0311534Y0046328D01*
X0311534Y0049074D01*
X0311534Y0048218D02*
X0314280Y0048218D01*
X0306406Y0049074D02*
X0303660Y0049074D01*
X0306406Y0049074D02*
X0306406Y0046328D01*
X0303660Y0046328D01*
X0303660Y0049074D01*
X0303660Y0048218D02*
X0306406Y0048218D01*
X0298532Y0049074D02*
X0295786Y0049074D01*
X0298532Y0049074D02*
X0298532Y0046328D01*
X0295786Y0046328D01*
X0295786Y0049074D01*
X0295786Y0048218D02*
X0298532Y0048218D01*
X0290658Y0049074D02*
X0287912Y0049074D01*
X0290658Y0049074D02*
X0290658Y0046328D01*
X0287912Y0046328D01*
X0287912Y0049074D01*
X0287912Y0048218D02*
X0290658Y0048218D01*
X0468393Y0049074D02*
X0471139Y0049074D01*
X0471139Y0046328D01*
X0468393Y0046328D01*
X0468393Y0049074D01*
X0468393Y0048218D02*
X0471139Y0048218D01*
X0476267Y0049074D02*
X0479013Y0049074D01*
X0479013Y0046328D01*
X0476267Y0046328D01*
X0476267Y0049074D01*
X0476267Y0048218D02*
X0479013Y0048218D01*
X0484141Y0049074D02*
X0486887Y0049074D01*
X0486887Y0046328D01*
X0484141Y0046328D01*
X0484141Y0049074D01*
X0484141Y0048218D02*
X0486887Y0048218D01*
X0492015Y0049074D02*
X0494761Y0049074D01*
X0494761Y0046328D01*
X0492015Y0046328D01*
X0492015Y0049074D01*
X0492015Y0048218D02*
X0494761Y0048218D01*
X0494761Y0042168D02*
X0492015Y0042168D01*
X0494761Y0042168D02*
X0494761Y0039422D01*
X0492015Y0039422D01*
X0492015Y0042168D01*
X0492015Y0041312D02*
X0494761Y0041312D01*
X0486887Y0042168D02*
X0484141Y0042168D01*
X0486887Y0042168D02*
X0486887Y0039422D01*
X0484141Y0039422D01*
X0484141Y0042168D01*
X0484141Y0041312D02*
X0486887Y0041312D01*
X0479013Y0042168D02*
X0476267Y0042168D01*
X0479013Y0042168D02*
X0479013Y0039422D01*
X0476267Y0039422D01*
X0476267Y0042168D01*
X0476267Y0041312D02*
X0479013Y0041312D01*
X0471139Y0042168D02*
X0468393Y0042168D01*
X0471139Y0042168D02*
X0471139Y0039422D01*
X0468393Y0039422D01*
X0468393Y0042168D01*
X0468393Y0041312D02*
X0471139Y0041312D01*
X0471139Y0201649D02*
X0468393Y0201649D01*
X0471139Y0201649D02*
X0471139Y0198903D01*
X0468393Y0198903D01*
X0468393Y0201649D01*
X0468393Y0200793D02*
X0471139Y0200793D01*
X0476267Y0201649D02*
X0479013Y0201649D01*
X0479013Y0198903D01*
X0476267Y0198903D01*
X0476267Y0201649D01*
X0476267Y0200793D02*
X0479013Y0200793D01*
X0484141Y0201649D02*
X0486887Y0201649D01*
X0486887Y0198903D01*
X0484141Y0198903D01*
X0484141Y0201649D01*
X0484141Y0200793D02*
X0486887Y0200793D01*
X0492015Y0201649D02*
X0494761Y0201649D01*
X0494761Y0198903D01*
X0492015Y0198903D01*
X0492015Y0201649D01*
X0492015Y0200793D02*
X0494761Y0200793D01*
X0494761Y0208554D02*
X0492015Y0208554D01*
X0494761Y0208554D02*
X0494761Y0205808D01*
X0492015Y0205808D01*
X0492015Y0208554D01*
X0492015Y0207698D02*
X0494761Y0207698D01*
X0486887Y0208554D02*
X0484141Y0208554D01*
X0486887Y0208554D02*
X0486887Y0205808D01*
X0484141Y0205808D01*
X0484141Y0208554D01*
X0484141Y0207698D02*
X0486887Y0207698D01*
X0479013Y0208554D02*
X0476267Y0208554D01*
X0479013Y0208554D02*
X0479013Y0205808D01*
X0476267Y0205808D01*
X0476267Y0208554D01*
X0476267Y0207698D02*
X0479013Y0207698D01*
X0471139Y0208554D02*
X0468393Y0208554D01*
X0471139Y0208554D02*
X0471139Y0205808D01*
X0468393Y0205808D01*
X0468393Y0208554D01*
X0468393Y0207698D02*
X0471139Y0207698D01*
X0314280Y0208554D02*
X0311534Y0208554D01*
X0314280Y0208554D02*
X0314280Y0205808D01*
X0311534Y0205808D01*
X0311534Y0208554D01*
X0311534Y0207698D02*
X0314280Y0207698D01*
X0314280Y0201649D02*
X0311534Y0201649D01*
X0314280Y0201649D02*
X0314280Y0198903D01*
X0311534Y0198903D01*
X0311534Y0201649D01*
X0311534Y0200793D02*
X0314280Y0200793D01*
X0306406Y0201649D02*
X0303660Y0201649D01*
X0306406Y0201649D02*
X0306406Y0198903D01*
X0303660Y0198903D01*
X0303660Y0201649D01*
X0303660Y0200793D02*
X0306406Y0200793D01*
X0306406Y0208554D02*
X0303660Y0208554D01*
X0306406Y0208554D02*
X0306406Y0205808D01*
X0303660Y0205808D01*
X0303660Y0208554D01*
X0303660Y0207698D02*
X0306406Y0207698D01*
X0298532Y0208554D02*
X0295786Y0208554D01*
X0298532Y0208554D02*
X0298532Y0205808D01*
X0295786Y0205808D01*
X0295786Y0208554D01*
X0295786Y0207698D02*
X0298532Y0207698D01*
X0298532Y0201649D02*
X0295786Y0201649D01*
X0298532Y0201649D02*
X0298532Y0198903D01*
X0295786Y0198903D01*
X0295786Y0201649D01*
X0295786Y0200793D02*
X0298532Y0200793D01*
X0290658Y0201649D02*
X0287912Y0201649D01*
X0290658Y0201649D02*
X0290658Y0198903D01*
X0287912Y0198903D01*
X0287912Y0201649D01*
X0287912Y0200793D02*
X0290658Y0200793D01*
X0290658Y0208554D02*
X0287912Y0208554D01*
X0290658Y0208554D02*
X0290658Y0205808D01*
X0287912Y0205808D01*
X0287912Y0208554D01*
X0287912Y0207698D02*
X0290658Y0207698D01*
X0133800Y0208554D02*
X0131054Y0208554D01*
X0133800Y0208554D02*
X0133800Y0205808D01*
X0131054Y0205808D01*
X0131054Y0208554D01*
X0131054Y0207698D02*
X0133800Y0207698D01*
X0133800Y0201649D02*
X0131054Y0201649D01*
X0133800Y0201649D02*
X0133800Y0198903D01*
X0131054Y0198903D01*
X0131054Y0201649D01*
X0131054Y0200793D02*
X0133800Y0200793D01*
X0125926Y0201649D02*
X0123180Y0201649D01*
X0125926Y0201649D02*
X0125926Y0198903D01*
X0123180Y0198903D01*
X0123180Y0201649D01*
X0123180Y0200793D02*
X0125926Y0200793D01*
X0125926Y0208554D02*
X0123180Y0208554D01*
X0125926Y0208554D02*
X0125926Y0205808D01*
X0123180Y0205808D01*
X0123180Y0208554D01*
X0123180Y0207698D02*
X0125926Y0207698D01*
X0118052Y0208554D02*
X0115306Y0208554D01*
X0118052Y0208554D02*
X0118052Y0205808D01*
X0115306Y0205808D01*
X0115306Y0208554D01*
X0115306Y0207698D02*
X0118052Y0207698D01*
X0118052Y0201649D02*
X0115306Y0201649D01*
X0118052Y0201649D02*
X0118052Y0198903D01*
X0115306Y0198903D01*
X0115306Y0201649D01*
X0115306Y0200793D02*
X0118052Y0200793D01*
X0110178Y0201649D02*
X0107432Y0201649D01*
X0110178Y0201649D02*
X0110178Y0198903D01*
X0107432Y0198903D01*
X0107432Y0201649D01*
X0107432Y0200793D02*
X0110178Y0200793D01*
X0110178Y0208554D02*
X0107432Y0208554D01*
X0110178Y0208554D02*
X0110178Y0205808D01*
X0107432Y0205808D01*
X0107432Y0208554D01*
X0107432Y0207698D02*
X0110178Y0207698D01*
X0110178Y0361129D02*
X0107432Y0361129D01*
X0110178Y0361129D02*
X0110178Y0358383D01*
X0107432Y0358383D01*
X0107432Y0361129D01*
X0107432Y0360273D02*
X0110178Y0360273D01*
X0115306Y0361129D02*
X0118052Y0361129D01*
X0118052Y0358383D01*
X0115306Y0358383D01*
X0115306Y0361129D01*
X0115306Y0360273D02*
X0118052Y0360273D01*
X0123180Y0361129D02*
X0125926Y0361129D01*
X0125926Y0358383D01*
X0123180Y0358383D01*
X0123180Y0361129D01*
X0123180Y0360273D02*
X0125926Y0360273D01*
X0131054Y0361129D02*
X0133800Y0361129D01*
X0133800Y0358383D01*
X0131054Y0358383D01*
X0131054Y0361129D01*
X0131054Y0360273D02*
X0133800Y0360273D01*
X0133800Y0368034D02*
X0131054Y0368034D01*
X0133800Y0368034D02*
X0133800Y0365288D01*
X0131054Y0365288D01*
X0131054Y0368034D01*
X0131054Y0367178D02*
X0133800Y0367178D01*
X0125926Y0368034D02*
X0123180Y0368034D01*
X0125926Y0368034D02*
X0125926Y0365288D01*
X0123180Y0365288D01*
X0123180Y0368034D01*
X0123180Y0367178D02*
X0125926Y0367178D01*
X0118052Y0368034D02*
X0115306Y0368034D01*
X0118052Y0368034D02*
X0118052Y0365288D01*
X0115306Y0365288D01*
X0115306Y0368034D01*
X0115306Y0367178D02*
X0118052Y0367178D01*
X0110178Y0368034D02*
X0107432Y0368034D01*
X0110178Y0368034D02*
X0110178Y0365288D01*
X0107432Y0365288D01*
X0107432Y0368034D01*
X0107432Y0367178D02*
X0110178Y0367178D01*
X0287912Y0368034D02*
X0290658Y0368034D01*
X0290658Y0365288D01*
X0287912Y0365288D01*
X0287912Y0368034D01*
X0287912Y0367178D02*
X0290658Y0367178D01*
X0295786Y0368034D02*
X0298532Y0368034D01*
X0298532Y0365288D01*
X0295786Y0365288D01*
X0295786Y0368034D01*
X0295786Y0367178D02*
X0298532Y0367178D01*
X0303660Y0368034D02*
X0306406Y0368034D01*
X0306406Y0365288D01*
X0303660Y0365288D01*
X0303660Y0368034D01*
X0303660Y0367178D02*
X0306406Y0367178D01*
X0311534Y0368034D02*
X0314280Y0368034D01*
X0314280Y0365288D01*
X0311534Y0365288D01*
X0311534Y0368034D01*
X0311534Y0367178D02*
X0314280Y0367178D01*
X0314280Y0361129D02*
X0311534Y0361129D01*
X0314280Y0361129D02*
X0314280Y0358383D01*
X0311534Y0358383D01*
X0311534Y0361129D01*
X0311534Y0360273D02*
X0314280Y0360273D01*
X0306406Y0361129D02*
X0303660Y0361129D01*
X0306406Y0361129D02*
X0306406Y0358383D01*
X0303660Y0358383D01*
X0303660Y0361129D01*
X0303660Y0360273D02*
X0306406Y0360273D01*
X0298532Y0361129D02*
X0295786Y0361129D01*
X0298532Y0361129D02*
X0298532Y0358383D01*
X0295786Y0358383D01*
X0295786Y0361129D01*
X0295786Y0360273D02*
X0298532Y0360273D01*
X0290658Y0361129D02*
X0287912Y0361129D01*
X0290658Y0361129D02*
X0290658Y0358383D01*
X0287912Y0358383D01*
X0287912Y0361129D01*
X0287912Y0360273D02*
X0290658Y0360273D01*
X0468393Y0361129D02*
X0471139Y0361129D01*
X0471139Y0358383D01*
X0468393Y0358383D01*
X0468393Y0361129D01*
X0468393Y0360273D02*
X0471139Y0360273D01*
X0476267Y0361129D02*
X0479013Y0361129D01*
X0479013Y0358383D01*
X0476267Y0358383D01*
X0476267Y0361129D01*
X0476267Y0360273D02*
X0479013Y0360273D01*
X0484141Y0361129D02*
X0486887Y0361129D01*
X0486887Y0358383D01*
X0484141Y0358383D01*
X0484141Y0361129D01*
X0484141Y0360273D02*
X0486887Y0360273D01*
X0492015Y0361129D02*
X0494761Y0361129D01*
X0494761Y0358383D01*
X0492015Y0358383D01*
X0492015Y0361129D01*
X0492015Y0360273D02*
X0494761Y0360273D01*
X0494761Y0368034D02*
X0492015Y0368034D01*
X0494761Y0368034D02*
X0494761Y0365288D01*
X0492015Y0365288D01*
X0492015Y0368034D01*
X0492015Y0367178D02*
X0494761Y0367178D01*
X0486887Y0368034D02*
X0484141Y0368034D01*
X0486887Y0368034D02*
X0486887Y0365288D01*
X0484141Y0365288D01*
X0484141Y0368034D01*
X0484141Y0367178D02*
X0486887Y0367178D01*
X0479013Y0368034D02*
X0476267Y0368034D01*
X0479013Y0368034D02*
X0479013Y0365288D01*
X0476267Y0365288D01*
X0476267Y0368034D01*
X0476267Y0367178D02*
X0479013Y0367178D01*
X0471139Y0368034D02*
X0468393Y0368034D01*
X0471139Y0368034D02*
X0471139Y0365288D01*
X0468393Y0365288D01*
X0468393Y0368034D01*
X0468393Y0367178D02*
X0471139Y0367178D01*
D33*
X0476852Y0430512D03*
X0476852Y0435512D03*
X0476852Y0440512D03*
X0476852Y0445512D03*
X0454805Y0445512D03*
X0454805Y0440512D03*
X0454805Y0435512D03*
X0454805Y0430512D03*
X0296372Y0430512D03*
X0296372Y0435512D03*
X0296372Y0440512D03*
X0296372Y0445512D03*
X0274325Y0445512D03*
X0274325Y0440512D03*
X0274325Y0435512D03*
X0274325Y0430512D03*
X0115892Y0430512D03*
X0115892Y0435512D03*
X0115892Y0440512D03*
X0115892Y0445512D03*
X0093844Y0445512D03*
X0093844Y0440512D03*
X0093844Y0435512D03*
X0093844Y0430512D03*
X0093844Y0286031D03*
X0093844Y0281031D03*
X0093844Y0276031D03*
X0093844Y0271031D03*
X0115892Y0271031D03*
X0115892Y0276031D03*
X0115892Y0281031D03*
X0115892Y0286031D03*
X0274325Y0286031D03*
X0274325Y0281031D03*
X0274325Y0276031D03*
X0274325Y0271031D03*
X0296372Y0271031D03*
X0296372Y0276031D03*
X0296372Y0281031D03*
X0296372Y0286031D03*
X0454805Y0286031D03*
X0454805Y0281031D03*
X0454805Y0276031D03*
X0454805Y0271031D03*
X0476852Y0271031D03*
X0476852Y0276031D03*
X0476852Y0281031D03*
X0476852Y0286031D03*
X0476852Y0126551D03*
X0476852Y0121551D03*
X0476852Y0116551D03*
X0476852Y0111551D03*
X0454805Y0111551D03*
X0454805Y0116551D03*
X0454805Y0121551D03*
X0454805Y0126551D03*
X0296372Y0126551D03*
X0296372Y0121551D03*
X0296372Y0116551D03*
X0296372Y0111551D03*
X0274325Y0111551D03*
X0274325Y0116551D03*
X0274325Y0121551D03*
X0274325Y0126551D03*
X0115892Y0126551D03*
X0115892Y0121551D03*
X0115892Y0116551D03*
X0115892Y0111551D03*
X0093844Y0111551D03*
X0093844Y0116551D03*
X0093844Y0121551D03*
X0093844Y0126551D03*
D34*
X0139750Y0192980D03*
X0149750Y0192980D03*
X0159750Y0192980D03*
X0169750Y0192980D03*
X0179750Y0192980D03*
X0179750Y0202980D03*
X0169750Y0202980D03*
X0159750Y0202980D03*
X0149750Y0202980D03*
X0139750Y0202980D03*
X0320230Y0202980D03*
X0330230Y0202980D03*
X0330230Y0192980D03*
X0320230Y0192980D03*
X0340230Y0192980D03*
X0350230Y0192980D03*
X0350230Y0202980D03*
X0340230Y0202980D03*
X0360230Y0202980D03*
X0360230Y0192980D03*
X0500711Y0192980D03*
X0510711Y0192980D03*
X0520711Y0192980D03*
X0530711Y0192980D03*
X0540711Y0192980D03*
X0540711Y0202980D03*
X0530711Y0202980D03*
X0520711Y0202980D03*
X0510711Y0202980D03*
X0500711Y0202980D03*
X0500711Y0352461D03*
X0500711Y0362461D03*
X0510711Y0362461D03*
X0510711Y0352461D03*
X0520711Y0352461D03*
X0520711Y0362461D03*
X0530711Y0362461D03*
X0530711Y0352461D03*
X0540711Y0352461D03*
X0540711Y0362461D03*
X0360230Y0362461D03*
X0360230Y0352461D03*
X0350230Y0352461D03*
X0350230Y0362461D03*
X0340230Y0362461D03*
X0340230Y0352461D03*
X0330230Y0352461D03*
X0330230Y0362461D03*
X0320230Y0362461D03*
X0320230Y0352461D03*
X0179750Y0352461D03*
X0179750Y0362461D03*
X0169750Y0362461D03*
X0159750Y0362461D03*
X0159750Y0352461D03*
X0169750Y0352461D03*
X0149750Y0352461D03*
X0149750Y0362461D03*
X0139750Y0362461D03*
X0139750Y0352461D03*
X0139750Y0043500D03*
X0149750Y0043500D03*
X0149750Y0033500D03*
X0139750Y0033500D03*
X0159750Y0033500D03*
X0169750Y0033500D03*
X0179750Y0033500D03*
X0179750Y0043500D03*
X0169750Y0043500D03*
X0159750Y0043500D03*
X0320230Y0043500D03*
X0330230Y0043500D03*
X0330230Y0033500D03*
X0320230Y0033500D03*
X0340230Y0033500D03*
X0350230Y0033500D03*
X0350230Y0043500D03*
X0340230Y0043500D03*
X0360230Y0043500D03*
X0360230Y0033500D03*
X0500711Y0033500D03*
X0510711Y0033500D03*
X0520711Y0033500D03*
X0530711Y0033500D03*
X0540711Y0033500D03*
X0540711Y0043500D03*
X0530711Y0043500D03*
X0520711Y0043500D03*
X0510711Y0043500D03*
X0500711Y0043500D03*
D35*
X0562974Y0131650D03*
X0562974Y0153697D03*
X0562974Y0291130D03*
X0562974Y0313177D03*
X0562974Y0450610D03*
X0562974Y0472657D03*
X0382494Y0472657D03*
X0382494Y0450610D03*
X0382494Y0313177D03*
X0382494Y0291130D03*
X0382494Y0153697D03*
X0382494Y0131650D03*
X0202014Y0131650D03*
X0202014Y0153697D03*
X0202014Y0291130D03*
X0202014Y0313177D03*
X0202014Y0450610D03*
X0202014Y0472657D03*
D36*
X0187545Y0467539D03*
X0187545Y0463602D03*
X0187545Y0459665D03*
X0187545Y0455728D03*
X0368026Y0455728D03*
X0368026Y0459665D03*
X0368026Y0463602D03*
X0368026Y0467539D03*
X0548506Y0467539D03*
X0548506Y0463602D03*
X0548506Y0459665D03*
X0548506Y0455728D03*
X0548506Y0308059D03*
X0548506Y0304122D03*
X0548506Y0300185D03*
X0548506Y0296248D03*
X0368026Y0296248D03*
X0368026Y0300185D03*
X0368026Y0304122D03*
X0368026Y0308059D03*
X0187545Y0308059D03*
X0187545Y0304122D03*
X0187545Y0300185D03*
X0187545Y0296248D03*
X0187545Y0148579D03*
X0187545Y0144642D03*
X0187545Y0140705D03*
X0187545Y0136768D03*
X0368026Y0136768D03*
X0368026Y0140705D03*
X0368026Y0144642D03*
X0368026Y0148579D03*
X0548506Y0148579D03*
X0548506Y0144642D03*
X0548506Y0140705D03*
X0548506Y0136768D03*
D37*
X0094185Y0020250D02*
X0094187Y0020369D01*
X0094193Y0020488D01*
X0094203Y0020607D01*
X0094217Y0020725D01*
X0094235Y0020843D01*
X0094256Y0020960D01*
X0094282Y0021076D01*
X0094312Y0021192D01*
X0094345Y0021306D01*
X0094382Y0021419D01*
X0094423Y0021531D01*
X0094468Y0021642D01*
X0094516Y0021751D01*
X0094568Y0021858D01*
X0094624Y0021963D01*
X0094683Y0022067D01*
X0094745Y0022168D01*
X0094811Y0022268D01*
X0094880Y0022365D01*
X0094952Y0022459D01*
X0095028Y0022552D01*
X0095106Y0022641D01*
X0095187Y0022728D01*
X0095272Y0022813D01*
X0095359Y0022894D01*
X0095448Y0022972D01*
X0095541Y0023048D01*
X0095635Y0023120D01*
X0095732Y0023189D01*
X0095832Y0023255D01*
X0095933Y0023317D01*
X0096037Y0023376D01*
X0096142Y0023432D01*
X0096249Y0023484D01*
X0096358Y0023532D01*
X0096469Y0023577D01*
X0096581Y0023618D01*
X0096694Y0023655D01*
X0096808Y0023688D01*
X0096924Y0023718D01*
X0097040Y0023744D01*
X0097157Y0023765D01*
X0097275Y0023783D01*
X0097393Y0023797D01*
X0097512Y0023807D01*
X0097631Y0023813D01*
X0097750Y0023815D01*
X0097869Y0023813D01*
X0097988Y0023807D01*
X0098107Y0023797D01*
X0098225Y0023783D01*
X0098343Y0023765D01*
X0098460Y0023744D01*
X0098576Y0023718D01*
X0098692Y0023688D01*
X0098806Y0023655D01*
X0098919Y0023618D01*
X0099031Y0023577D01*
X0099142Y0023532D01*
X0099251Y0023484D01*
X0099358Y0023432D01*
X0099463Y0023376D01*
X0099567Y0023317D01*
X0099668Y0023255D01*
X0099768Y0023189D01*
X0099865Y0023120D01*
X0099959Y0023048D01*
X0100052Y0022972D01*
X0100141Y0022894D01*
X0100228Y0022813D01*
X0100313Y0022728D01*
X0100394Y0022641D01*
X0100472Y0022552D01*
X0100548Y0022459D01*
X0100620Y0022365D01*
X0100689Y0022268D01*
X0100755Y0022168D01*
X0100817Y0022067D01*
X0100876Y0021963D01*
X0100932Y0021858D01*
X0100984Y0021751D01*
X0101032Y0021642D01*
X0101077Y0021531D01*
X0101118Y0021419D01*
X0101155Y0021306D01*
X0101188Y0021192D01*
X0101218Y0021076D01*
X0101244Y0020960D01*
X0101265Y0020843D01*
X0101283Y0020725D01*
X0101297Y0020607D01*
X0101307Y0020488D01*
X0101313Y0020369D01*
X0101315Y0020250D01*
X0101313Y0020131D01*
X0101307Y0020012D01*
X0101297Y0019893D01*
X0101283Y0019775D01*
X0101265Y0019657D01*
X0101244Y0019540D01*
X0101218Y0019424D01*
X0101188Y0019308D01*
X0101155Y0019194D01*
X0101118Y0019081D01*
X0101077Y0018969D01*
X0101032Y0018858D01*
X0100984Y0018749D01*
X0100932Y0018642D01*
X0100876Y0018537D01*
X0100817Y0018433D01*
X0100755Y0018332D01*
X0100689Y0018232D01*
X0100620Y0018135D01*
X0100548Y0018041D01*
X0100472Y0017948D01*
X0100394Y0017859D01*
X0100313Y0017772D01*
X0100228Y0017687D01*
X0100141Y0017606D01*
X0100052Y0017528D01*
X0099959Y0017452D01*
X0099865Y0017380D01*
X0099768Y0017311D01*
X0099668Y0017245D01*
X0099567Y0017183D01*
X0099463Y0017124D01*
X0099358Y0017068D01*
X0099251Y0017016D01*
X0099142Y0016968D01*
X0099031Y0016923D01*
X0098919Y0016882D01*
X0098806Y0016845D01*
X0098692Y0016812D01*
X0098576Y0016782D01*
X0098460Y0016756D01*
X0098343Y0016735D01*
X0098225Y0016717D01*
X0098107Y0016703D01*
X0097988Y0016693D01*
X0097869Y0016687D01*
X0097750Y0016685D01*
X0097631Y0016687D01*
X0097512Y0016693D01*
X0097393Y0016703D01*
X0097275Y0016717D01*
X0097157Y0016735D01*
X0097040Y0016756D01*
X0096924Y0016782D01*
X0096808Y0016812D01*
X0096694Y0016845D01*
X0096581Y0016882D01*
X0096469Y0016923D01*
X0096358Y0016968D01*
X0096249Y0017016D01*
X0096142Y0017068D01*
X0096037Y0017124D01*
X0095933Y0017183D01*
X0095832Y0017245D01*
X0095732Y0017311D01*
X0095635Y0017380D01*
X0095541Y0017452D01*
X0095448Y0017528D01*
X0095359Y0017606D01*
X0095272Y0017687D01*
X0095187Y0017772D01*
X0095106Y0017859D01*
X0095028Y0017948D01*
X0094952Y0018041D01*
X0094880Y0018135D01*
X0094811Y0018232D01*
X0094745Y0018332D01*
X0094683Y0018433D01*
X0094624Y0018537D01*
X0094568Y0018642D01*
X0094516Y0018749D01*
X0094468Y0018858D01*
X0094423Y0018969D01*
X0094382Y0019081D01*
X0094345Y0019194D01*
X0094312Y0019308D01*
X0094282Y0019424D01*
X0094256Y0019540D01*
X0094235Y0019657D01*
X0094217Y0019775D01*
X0094203Y0019893D01*
X0094193Y0020012D01*
X0094187Y0020131D01*
X0094185Y0020250D01*
D38*
X0097750Y0020250D03*
M02*
