G75*
%MOIN*%
%OFA0B0*%
%FSLAX25Y25*%
%IPPOS*%
%LPD*%
%AMOC8*
5,1,8,0,0,1.08239X$1,22.5*
%
%ADD10R,0.11811X0.03937*%
%ADD11C,0.01000*%
%ADD12R,0.02953X0.02756*%
%ADD13R,0.02362X0.02362*%
%ADD14R,0.07087X0.03937*%
%ADD15R,0.07087X0.03150*%
%ADD16R,0.03150X0.07087*%
%ADD17R,0.06299X0.03150*%
%ADD18R,0.03543X0.02598*%
%ADD19R,0.01181X0.05512*%
%ADD20R,0.04921X0.09055*%
%ADD21R,0.05512X0.06299*%
%ADD22R,0.00984X0.01083*%
%ADD23R,0.01083X0.00984*%
%ADD24R,0.03937X0.04331*%
%ADD25R,0.04331X0.03937*%
%ADD26R,0.02480X0.03268*%
%ADD27R,0.02165X0.04724*%
%ADD28R,0.06000X0.03000*%
%ADD29C,0.01181*%
%ADD30R,0.04724X0.02362*%
%ADD31R,0.07874X0.04724*%
%ADD32R,0.05315X0.02362*%
D10*
X0075341Y0082240D03*
X0075341Y0092240D03*
X0075341Y0102240D03*
X0075341Y0112240D03*
X0075341Y0122240D03*
X0075341Y0132240D03*
X0075341Y0241720D03*
X0075341Y0251720D03*
X0075341Y0261720D03*
X0075341Y0271720D03*
X0075341Y0281720D03*
X0075341Y0291720D03*
X0075341Y0401201D03*
X0075341Y0411201D03*
X0075341Y0421201D03*
X0075341Y0431201D03*
X0075341Y0441201D03*
X0075341Y0451201D03*
X0255821Y0451201D03*
X0255821Y0441201D03*
X0255821Y0431201D03*
X0255821Y0421201D03*
X0255821Y0411201D03*
X0255821Y0401201D03*
X0255821Y0291720D03*
X0255821Y0281720D03*
X0255821Y0271720D03*
X0255821Y0261720D03*
X0255821Y0251720D03*
X0255821Y0241720D03*
X0255821Y0132240D03*
X0255821Y0122240D03*
X0255821Y0112240D03*
X0255821Y0102240D03*
X0255821Y0092240D03*
X0255821Y0082240D03*
X0436301Y0082240D03*
X0436301Y0092240D03*
X0436301Y0102240D03*
X0436301Y0112240D03*
X0436301Y0122240D03*
X0436301Y0132240D03*
X0436301Y0241720D03*
X0436301Y0251720D03*
X0436301Y0261720D03*
X0436301Y0271720D03*
X0436301Y0281720D03*
X0436301Y0291720D03*
X0436301Y0401201D03*
X0436301Y0411201D03*
X0436301Y0421201D03*
X0436301Y0431201D03*
X0436301Y0441201D03*
X0436301Y0451201D03*
D11*
X0505199Y0434075D03*
X0507167Y0434075D03*
X0507167Y0432106D03*
X0505199Y0432106D03*
X0505199Y0430138D03*
X0507167Y0430138D03*
X0507167Y0428169D03*
X0505199Y0428169D03*
X0505199Y0426201D03*
X0507167Y0426201D03*
X0507167Y0424232D03*
X0505199Y0424232D03*
X0505199Y0422264D03*
X0507167Y0422264D03*
X0507167Y0420295D03*
X0505199Y0420295D03*
X0505199Y0418327D03*
X0507167Y0418327D03*
X0509136Y0418327D03*
X0509136Y0420295D03*
X0511104Y0420295D03*
X0511104Y0418327D03*
X0513073Y0418327D03*
X0513073Y0420295D03*
X0515041Y0420295D03*
X0515041Y0418327D03*
X0517010Y0418327D03*
X0517010Y0420295D03*
X0518978Y0420295D03*
X0518978Y0418327D03*
X0520947Y0418327D03*
X0520947Y0420295D03*
X0520947Y0422264D03*
X0520947Y0424232D03*
X0518978Y0424232D03*
X0517010Y0424232D03*
X0517010Y0422264D03*
X0518978Y0422264D03*
X0515041Y0422264D03*
X0513073Y0422264D03*
X0513073Y0424232D03*
X0515041Y0424232D03*
X0515041Y0426201D03*
X0513073Y0426201D03*
X0513073Y0428169D03*
X0515041Y0428169D03*
X0515041Y0430138D03*
X0513073Y0430138D03*
X0513073Y0432106D03*
X0515041Y0432106D03*
X0515041Y0434075D03*
X0513073Y0434075D03*
X0511104Y0434075D03*
X0509136Y0434075D03*
X0509136Y0432106D03*
X0509136Y0430138D03*
X0511104Y0430138D03*
X0511104Y0432106D03*
X0511104Y0428169D03*
X0509136Y0428169D03*
X0509136Y0426201D03*
X0511104Y0426201D03*
X0511104Y0424232D03*
X0509136Y0424232D03*
X0509136Y0422264D03*
X0511104Y0422264D03*
X0517010Y0426201D03*
X0517010Y0428169D03*
X0518978Y0428169D03*
X0518978Y0426201D03*
X0520947Y0426201D03*
X0520947Y0428169D03*
X0520947Y0430138D03*
X0520947Y0432106D03*
X0518978Y0432106D03*
X0517010Y0432106D03*
X0517010Y0430138D03*
X0518978Y0430138D03*
X0518978Y0434075D03*
X0517010Y0434075D03*
X0520947Y0434075D03*
X0340467Y0434075D03*
X0340467Y0432106D03*
X0340467Y0430138D03*
X0340467Y0428169D03*
X0340467Y0426201D03*
X0340467Y0424232D03*
X0340467Y0422264D03*
X0340467Y0420295D03*
X0340467Y0418327D03*
X0338498Y0418327D03*
X0338498Y0420295D03*
X0336530Y0420295D03*
X0336530Y0418327D03*
X0334561Y0418327D03*
X0334561Y0420295D03*
X0332593Y0420295D03*
X0332593Y0418327D03*
X0330624Y0418327D03*
X0330624Y0420295D03*
X0328655Y0420295D03*
X0326687Y0420295D03*
X0326687Y0418327D03*
X0328655Y0418327D03*
X0324718Y0418327D03*
X0324718Y0420295D03*
X0324718Y0422264D03*
X0324718Y0424232D03*
X0324718Y0426201D03*
X0324718Y0428169D03*
X0324718Y0430138D03*
X0324718Y0432106D03*
X0324718Y0434075D03*
X0326687Y0434075D03*
X0328655Y0434075D03*
X0328655Y0432106D03*
X0326687Y0432106D03*
X0326687Y0430138D03*
X0328655Y0430138D03*
X0328655Y0428169D03*
X0326687Y0428169D03*
X0326687Y0426201D03*
X0328655Y0426201D03*
X0328655Y0424232D03*
X0326687Y0424232D03*
X0326687Y0422264D03*
X0328655Y0422264D03*
X0330624Y0422264D03*
X0330624Y0424232D03*
X0332593Y0424232D03*
X0334561Y0424232D03*
X0334561Y0422264D03*
X0332593Y0422264D03*
X0336530Y0422264D03*
X0338498Y0422264D03*
X0338498Y0424232D03*
X0336530Y0424232D03*
X0336530Y0426201D03*
X0338498Y0426201D03*
X0338498Y0428169D03*
X0336530Y0428169D03*
X0336530Y0430138D03*
X0338498Y0430138D03*
X0338498Y0432106D03*
X0336530Y0432106D03*
X0336530Y0434075D03*
X0338498Y0434075D03*
X0334561Y0434075D03*
X0332593Y0434075D03*
X0332593Y0432106D03*
X0334561Y0432106D03*
X0334561Y0430138D03*
X0332593Y0430138D03*
X0332593Y0428169D03*
X0334561Y0428169D03*
X0334561Y0426201D03*
X0332593Y0426201D03*
X0330624Y0426201D03*
X0330624Y0428169D03*
X0330624Y0430138D03*
X0330624Y0432106D03*
X0330624Y0434075D03*
X0159986Y0434075D03*
X0158018Y0434075D03*
X0158018Y0432106D03*
X0159986Y0432106D03*
X0159986Y0430138D03*
X0158018Y0430138D03*
X0158018Y0428169D03*
X0159986Y0428169D03*
X0159986Y0426201D03*
X0158018Y0426201D03*
X0158018Y0424232D03*
X0159986Y0424232D03*
X0159986Y0422264D03*
X0158018Y0422264D03*
X0158018Y0420295D03*
X0159986Y0420295D03*
X0159986Y0418327D03*
X0158018Y0418327D03*
X0156049Y0418327D03*
X0156049Y0420295D03*
X0154081Y0420295D03*
X0154081Y0418327D03*
X0152112Y0418327D03*
X0152112Y0420295D03*
X0150144Y0420295D03*
X0150144Y0418327D03*
X0148175Y0418327D03*
X0148175Y0420295D03*
X0146207Y0420295D03*
X0146207Y0418327D03*
X0144238Y0418327D03*
X0144238Y0420295D03*
X0144238Y0422264D03*
X0144238Y0424232D03*
X0146207Y0424232D03*
X0148175Y0424232D03*
X0148175Y0422264D03*
X0146207Y0422264D03*
X0150144Y0422264D03*
X0152112Y0422264D03*
X0152112Y0424232D03*
X0150144Y0424232D03*
X0150144Y0426201D03*
X0152112Y0426201D03*
X0152112Y0428169D03*
X0150144Y0428169D03*
X0150144Y0430138D03*
X0152112Y0430138D03*
X0152112Y0432106D03*
X0150144Y0432106D03*
X0150144Y0434075D03*
X0152112Y0434075D03*
X0154081Y0434075D03*
X0156049Y0434075D03*
X0156049Y0432106D03*
X0156049Y0430138D03*
X0154081Y0430138D03*
X0154081Y0432106D03*
X0154081Y0428169D03*
X0156049Y0428169D03*
X0156049Y0426201D03*
X0154081Y0426201D03*
X0154081Y0424232D03*
X0156049Y0424232D03*
X0156049Y0422264D03*
X0154081Y0422264D03*
X0148175Y0426201D03*
X0148175Y0428169D03*
X0146207Y0428169D03*
X0146207Y0426201D03*
X0144238Y0426201D03*
X0144238Y0428169D03*
X0144238Y0430138D03*
X0144238Y0432106D03*
X0146207Y0432106D03*
X0148175Y0432106D03*
X0148175Y0430138D03*
X0146207Y0430138D03*
X0146207Y0434075D03*
X0148175Y0434075D03*
X0144238Y0434075D03*
X0144238Y0274594D03*
X0144238Y0272626D03*
X0144238Y0270657D03*
X0144238Y0268689D03*
X0144238Y0266720D03*
X0144238Y0264752D03*
X0144238Y0262783D03*
X0144238Y0260815D03*
X0144238Y0258846D03*
X0146207Y0258846D03*
X0148175Y0258846D03*
X0150144Y0258846D03*
X0152112Y0258846D03*
X0154081Y0258846D03*
X0156049Y0258846D03*
X0158018Y0258846D03*
X0159986Y0258846D03*
X0159986Y0260815D03*
X0158018Y0260815D03*
X0158018Y0262783D03*
X0159986Y0262783D03*
X0159986Y0264752D03*
X0158018Y0264752D03*
X0158018Y0266720D03*
X0159986Y0266720D03*
X0159986Y0268689D03*
X0158018Y0268689D03*
X0158018Y0270657D03*
X0159986Y0270657D03*
X0159986Y0272626D03*
X0158018Y0272626D03*
X0158018Y0274594D03*
X0159986Y0274594D03*
X0156049Y0274594D03*
X0156049Y0272626D03*
X0154081Y0272626D03*
X0154081Y0274594D03*
X0152112Y0274594D03*
X0152112Y0272626D03*
X0150144Y0272626D03*
X0150144Y0274594D03*
X0148175Y0274594D03*
X0148175Y0272626D03*
X0146207Y0272626D03*
X0146207Y0274594D03*
X0146207Y0270657D03*
X0146207Y0268689D03*
X0148175Y0268689D03*
X0148175Y0270657D03*
X0150144Y0270657D03*
X0150144Y0268689D03*
X0152112Y0268689D03*
X0152112Y0270657D03*
X0154081Y0270657D03*
X0154081Y0268689D03*
X0156049Y0268689D03*
X0156049Y0270657D03*
X0156049Y0266720D03*
X0156049Y0264752D03*
X0154081Y0264752D03*
X0154081Y0266720D03*
X0152112Y0266720D03*
X0152112Y0264752D03*
X0150144Y0264752D03*
X0150144Y0266720D03*
X0148175Y0266720D03*
X0148175Y0264752D03*
X0146207Y0264752D03*
X0146207Y0266720D03*
X0146207Y0262783D03*
X0146207Y0260815D03*
X0148175Y0260815D03*
X0148175Y0262783D03*
X0150144Y0262783D03*
X0150144Y0260815D03*
X0152112Y0260815D03*
X0152112Y0262783D03*
X0154081Y0262783D03*
X0154081Y0260815D03*
X0156049Y0260815D03*
X0156049Y0262783D03*
X0324718Y0262783D03*
X0324718Y0260815D03*
X0324718Y0258846D03*
X0326687Y0258846D03*
X0328655Y0258846D03*
X0328655Y0260815D03*
X0326687Y0260815D03*
X0326687Y0262783D03*
X0328655Y0262783D03*
X0328655Y0264752D03*
X0326687Y0264752D03*
X0326687Y0266720D03*
X0328655Y0266720D03*
X0328655Y0268689D03*
X0326687Y0268689D03*
X0326687Y0270657D03*
X0328655Y0270657D03*
X0328655Y0272626D03*
X0326687Y0272626D03*
X0326687Y0274594D03*
X0328655Y0274594D03*
X0330624Y0274594D03*
X0330624Y0272626D03*
X0332593Y0272626D03*
X0334561Y0272626D03*
X0334561Y0274594D03*
X0332593Y0274594D03*
X0336530Y0274594D03*
X0338498Y0274594D03*
X0338498Y0272626D03*
X0336530Y0272626D03*
X0336530Y0270657D03*
X0338498Y0270657D03*
X0338498Y0268689D03*
X0336530Y0268689D03*
X0336530Y0266720D03*
X0338498Y0266720D03*
X0338498Y0264752D03*
X0336530Y0264752D03*
X0336530Y0262783D03*
X0338498Y0262783D03*
X0338498Y0260815D03*
X0336530Y0260815D03*
X0336530Y0258846D03*
X0338498Y0258846D03*
X0340467Y0258846D03*
X0340467Y0260815D03*
X0340467Y0262783D03*
X0340467Y0264752D03*
X0340467Y0266720D03*
X0340467Y0268689D03*
X0340467Y0270657D03*
X0340467Y0272626D03*
X0340467Y0274594D03*
X0334561Y0270657D03*
X0334561Y0268689D03*
X0332593Y0268689D03*
X0332593Y0270657D03*
X0330624Y0270657D03*
X0330624Y0268689D03*
X0330624Y0266720D03*
X0330624Y0264752D03*
X0332593Y0264752D03*
X0334561Y0264752D03*
X0334561Y0266720D03*
X0332593Y0266720D03*
X0332593Y0262783D03*
X0334561Y0262783D03*
X0334561Y0260815D03*
X0332593Y0260815D03*
X0332593Y0258846D03*
X0334561Y0258846D03*
X0330624Y0258846D03*
X0330624Y0260815D03*
X0330624Y0262783D03*
X0324718Y0264752D03*
X0324718Y0266720D03*
X0324718Y0268689D03*
X0324718Y0270657D03*
X0324718Y0272626D03*
X0324718Y0274594D03*
X0505199Y0274594D03*
X0505199Y0272626D03*
X0507167Y0272626D03*
X0507167Y0274594D03*
X0509136Y0274594D03*
X0509136Y0272626D03*
X0511104Y0272626D03*
X0511104Y0274594D03*
X0513073Y0274594D03*
X0513073Y0272626D03*
X0515041Y0272626D03*
X0515041Y0274594D03*
X0517010Y0274594D03*
X0517010Y0272626D03*
X0518978Y0272626D03*
X0518978Y0274594D03*
X0520947Y0274594D03*
X0520947Y0272626D03*
X0520947Y0270657D03*
X0520947Y0268689D03*
X0520947Y0266720D03*
X0520947Y0264752D03*
X0520947Y0262783D03*
X0520947Y0260815D03*
X0520947Y0258846D03*
X0518978Y0258846D03*
X0517010Y0258846D03*
X0515041Y0258846D03*
X0513073Y0258846D03*
X0511104Y0258846D03*
X0509136Y0258846D03*
X0507167Y0258846D03*
X0505199Y0258846D03*
X0505199Y0260815D03*
X0507167Y0260815D03*
X0507167Y0262783D03*
X0505199Y0262783D03*
X0505199Y0264752D03*
X0507167Y0264752D03*
X0507167Y0266720D03*
X0505199Y0266720D03*
X0505199Y0268689D03*
X0507167Y0268689D03*
X0507167Y0270657D03*
X0505199Y0270657D03*
X0509136Y0270657D03*
X0509136Y0268689D03*
X0511104Y0268689D03*
X0511104Y0270657D03*
X0513073Y0270657D03*
X0513073Y0268689D03*
X0515041Y0268689D03*
X0515041Y0270657D03*
X0517010Y0270657D03*
X0517010Y0268689D03*
X0518978Y0268689D03*
X0518978Y0270657D03*
X0518978Y0266720D03*
X0518978Y0264752D03*
X0517010Y0264752D03*
X0517010Y0266720D03*
X0515041Y0266720D03*
X0515041Y0264752D03*
X0513073Y0264752D03*
X0513073Y0266720D03*
X0511104Y0266720D03*
X0511104Y0264752D03*
X0509136Y0264752D03*
X0509136Y0266720D03*
X0509136Y0262783D03*
X0509136Y0260815D03*
X0511104Y0260815D03*
X0511104Y0262783D03*
X0513073Y0262783D03*
X0513073Y0260815D03*
X0515041Y0260815D03*
X0515041Y0262783D03*
X0517010Y0262783D03*
X0517010Y0260815D03*
X0518978Y0260815D03*
X0518978Y0262783D03*
X0518978Y0115114D03*
X0517010Y0115114D03*
X0517010Y0113146D03*
X0518978Y0113146D03*
X0520947Y0113146D03*
X0520947Y0115114D03*
X0520947Y0111177D03*
X0520947Y0109209D03*
X0518978Y0109209D03*
X0518978Y0111177D03*
X0517010Y0111177D03*
X0517010Y0109209D03*
X0515041Y0109209D03*
X0515041Y0111177D03*
X0513073Y0111177D03*
X0513073Y0109209D03*
X0511104Y0109209D03*
X0511104Y0111177D03*
X0509136Y0111177D03*
X0509136Y0109209D03*
X0507167Y0109209D03*
X0507167Y0111177D03*
X0505199Y0111177D03*
X0505199Y0109209D03*
X0505199Y0107240D03*
X0507167Y0107240D03*
X0507167Y0105272D03*
X0505199Y0105272D03*
X0505199Y0103303D03*
X0507167Y0103303D03*
X0507167Y0101335D03*
X0505199Y0101335D03*
X0505199Y0099366D03*
X0507167Y0099366D03*
X0509136Y0099366D03*
X0511104Y0099366D03*
X0511104Y0101335D03*
X0511104Y0103303D03*
X0509136Y0103303D03*
X0509136Y0101335D03*
X0509136Y0105272D03*
X0509136Y0107240D03*
X0511104Y0107240D03*
X0511104Y0105272D03*
X0513073Y0105272D03*
X0513073Y0107240D03*
X0515041Y0107240D03*
X0515041Y0105272D03*
X0517010Y0105272D03*
X0517010Y0107240D03*
X0518978Y0107240D03*
X0518978Y0105272D03*
X0520947Y0105272D03*
X0520947Y0107240D03*
X0520947Y0103303D03*
X0520947Y0101335D03*
X0518978Y0101335D03*
X0518978Y0103303D03*
X0517010Y0103303D03*
X0517010Y0101335D03*
X0515041Y0101335D03*
X0515041Y0103303D03*
X0513073Y0103303D03*
X0513073Y0101335D03*
X0513073Y0099366D03*
X0515041Y0099366D03*
X0517010Y0099366D03*
X0518978Y0099366D03*
X0520947Y0099366D03*
X0515041Y0113146D03*
X0515041Y0115114D03*
X0513073Y0115114D03*
X0513073Y0113146D03*
X0511104Y0113146D03*
X0511104Y0115114D03*
X0509136Y0115114D03*
X0509136Y0113146D03*
X0507167Y0113146D03*
X0507167Y0115114D03*
X0505199Y0115114D03*
X0505199Y0113146D03*
X0340467Y0113146D03*
X0340467Y0115114D03*
X0338498Y0115114D03*
X0338498Y0113146D03*
X0336530Y0113146D03*
X0336530Y0115114D03*
X0334561Y0115114D03*
X0334561Y0113146D03*
X0332593Y0113146D03*
X0332593Y0115114D03*
X0330624Y0115114D03*
X0330624Y0113146D03*
X0328655Y0113146D03*
X0326687Y0113146D03*
X0326687Y0115114D03*
X0328655Y0115114D03*
X0324718Y0115114D03*
X0324718Y0113146D03*
X0324718Y0111177D03*
X0324718Y0109209D03*
X0324718Y0107240D03*
X0324718Y0105272D03*
X0324718Y0103303D03*
X0324718Y0101335D03*
X0324718Y0099366D03*
X0326687Y0099366D03*
X0328655Y0099366D03*
X0328655Y0101335D03*
X0326687Y0101335D03*
X0326687Y0103303D03*
X0328655Y0103303D03*
X0328655Y0105272D03*
X0326687Y0105272D03*
X0326687Y0107240D03*
X0328655Y0107240D03*
X0328655Y0109209D03*
X0326687Y0109209D03*
X0326687Y0111177D03*
X0328655Y0111177D03*
X0330624Y0111177D03*
X0330624Y0109209D03*
X0332593Y0109209D03*
X0334561Y0109209D03*
X0334561Y0111177D03*
X0332593Y0111177D03*
X0336530Y0111177D03*
X0338498Y0111177D03*
X0338498Y0109209D03*
X0336530Y0109209D03*
X0336530Y0107240D03*
X0338498Y0107240D03*
X0338498Y0105272D03*
X0336530Y0105272D03*
X0336530Y0103303D03*
X0338498Y0103303D03*
X0338498Y0101335D03*
X0336530Y0101335D03*
X0336530Y0099366D03*
X0338498Y0099366D03*
X0340467Y0099366D03*
X0340467Y0101335D03*
X0340467Y0103303D03*
X0340467Y0105272D03*
X0340467Y0107240D03*
X0340467Y0109209D03*
X0340467Y0111177D03*
X0334561Y0107240D03*
X0334561Y0105272D03*
X0332593Y0105272D03*
X0332593Y0107240D03*
X0330624Y0107240D03*
X0330624Y0105272D03*
X0330624Y0103303D03*
X0330624Y0101335D03*
X0332593Y0101335D03*
X0334561Y0101335D03*
X0334561Y0103303D03*
X0332593Y0103303D03*
X0332593Y0099366D03*
X0334561Y0099366D03*
X0330624Y0099366D03*
X0159986Y0099366D03*
X0158018Y0099366D03*
X0158018Y0101335D03*
X0158018Y0103303D03*
X0159986Y0103303D03*
X0159986Y0101335D03*
X0159986Y0105272D03*
X0159986Y0107240D03*
X0158018Y0107240D03*
X0158018Y0105272D03*
X0156049Y0105272D03*
X0156049Y0107240D03*
X0154081Y0107240D03*
X0154081Y0105272D03*
X0152112Y0105272D03*
X0152112Y0107240D03*
X0150144Y0107240D03*
X0150144Y0105272D03*
X0148175Y0105272D03*
X0148175Y0107240D03*
X0146207Y0107240D03*
X0146207Y0105272D03*
X0144238Y0105272D03*
X0144238Y0107240D03*
X0144238Y0109209D03*
X0144238Y0111177D03*
X0144238Y0113146D03*
X0144238Y0115114D03*
X0146207Y0115114D03*
X0148175Y0115114D03*
X0148175Y0113146D03*
X0146207Y0113146D03*
X0146207Y0111177D03*
X0148175Y0111177D03*
X0148175Y0109209D03*
X0146207Y0109209D03*
X0150144Y0109209D03*
X0150144Y0111177D03*
X0152112Y0111177D03*
X0152112Y0109209D03*
X0154081Y0109209D03*
X0154081Y0111177D03*
X0156049Y0111177D03*
X0156049Y0109209D03*
X0158018Y0109209D03*
X0158018Y0111177D03*
X0159986Y0111177D03*
X0159986Y0109209D03*
X0159986Y0113146D03*
X0159986Y0115114D03*
X0158018Y0115114D03*
X0158018Y0113146D03*
X0156049Y0113146D03*
X0156049Y0115114D03*
X0154081Y0115114D03*
X0154081Y0113146D03*
X0152112Y0113146D03*
X0152112Y0115114D03*
X0150144Y0115114D03*
X0150144Y0113146D03*
X0150144Y0103303D03*
X0152112Y0103303D03*
X0152112Y0101335D03*
X0150144Y0101335D03*
X0148175Y0101335D03*
X0148175Y0103303D03*
X0146207Y0103303D03*
X0146207Y0101335D03*
X0144238Y0101335D03*
X0144238Y0103303D03*
X0144238Y0099366D03*
X0146207Y0099366D03*
X0148175Y0099366D03*
X0150144Y0099366D03*
X0152112Y0099366D03*
X0154081Y0099366D03*
X0156049Y0099366D03*
X0156049Y0101335D03*
X0156049Y0103303D03*
X0154081Y0103303D03*
X0154081Y0101335D03*
D12*
X0158804Y0092673D03*
X0158804Y0088736D03*
X0164119Y0088736D03*
X0164119Y0092673D03*
X0339284Y0092673D03*
X0339284Y0088736D03*
X0344599Y0088736D03*
X0344599Y0092673D03*
X0519764Y0092673D03*
X0519764Y0088736D03*
X0525079Y0088736D03*
X0525079Y0092673D03*
X0525079Y0248217D03*
X0525079Y0252154D03*
X0519764Y0252154D03*
X0519764Y0248217D03*
X0344599Y0248217D03*
X0344599Y0252154D03*
X0339284Y0252154D03*
X0339284Y0248217D03*
X0164119Y0248217D03*
X0164119Y0252154D03*
X0158804Y0252154D03*
X0158804Y0248217D03*
X0158804Y0407697D03*
X0158804Y0411634D03*
X0164119Y0411634D03*
X0164119Y0407697D03*
X0339284Y0407697D03*
X0339284Y0411634D03*
X0344599Y0411634D03*
X0344599Y0407697D03*
X0519764Y0407697D03*
X0519764Y0411634D03*
X0525079Y0411634D03*
X0525079Y0407697D03*
D13*
X0524490Y0403660D03*
X0520553Y0403660D03*
X0529215Y0406516D03*
X0529215Y0410453D03*
X0529215Y0414390D03*
X0529215Y0418327D03*
X0532212Y0418327D03*
X0536149Y0418327D03*
X0539181Y0418327D03*
X0542212Y0418327D03*
X0546149Y0418327D03*
X0539181Y0414390D03*
X0502246Y0411240D03*
X0498506Y0411240D03*
X0498506Y0407303D03*
X0502246Y0407303D03*
X0493711Y0404429D03*
X0493711Y0400492D03*
X0485711Y0400461D03*
X0485711Y0404398D03*
X0499293Y0392736D03*
X0499293Y0388799D03*
X0475671Y0420295D03*
X0471734Y0420295D03*
X0471734Y0424232D03*
X0475671Y0424232D03*
X0488663Y0425413D03*
X0488663Y0429350D03*
X0488663Y0433287D03*
X0488663Y0437224D03*
X0452049Y0451791D03*
X0448112Y0451791D03*
X0479608Y0467539D03*
X0483545Y0467539D03*
X0483545Y0471476D03*
X0479608Y0471476D03*
X0505199Y0471476D03*
X0505199Y0467539D03*
X0524884Y0467539D03*
X0524884Y0463602D03*
X0524884Y0471476D03*
X0524884Y0475413D03*
X0534726Y0477382D03*
X0534726Y0481319D03*
X0538663Y0481319D03*
X0538663Y0477382D03*
X0444175Y0483287D03*
X0440238Y0483287D03*
X0414648Y0471476D03*
X0414648Y0467539D03*
X0358183Y0477382D03*
X0358183Y0481319D03*
X0354246Y0481319D03*
X0354246Y0477382D03*
X0344404Y0475413D03*
X0344404Y0471476D03*
X0344404Y0467539D03*
X0344404Y0463602D03*
X0324718Y0467539D03*
X0324718Y0471476D03*
X0303065Y0471476D03*
X0303065Y0467539D03*
X0299128Y0467539D03*
X0299128Y0471476D03*
X0271569Y0451791D03*
X0267632Y0451791D03*
X0291254Y0424232D03*
X0291254Y0420295D03*
X0295191Y0420295D03*
X0295191Y0424232D03*
X0308183Y0425413D03*
X0308183Y0429350D03*
X0308183Y0433287D03*
X0308183Y0437224D03*
X0318026Y0411240D03*
X0321766Y0411240D03*
X0321766Y0407303D03*
X0318026Y0407303D03*
X0313230Y0404429D03*
X0313230Y0400492D03*
X0305230Y0400461D03*
X0305230Y0404398D03*
X0318813Y0392736D03*
X0318813Y0388799D03*
X0340073Y0403660D03*
X0344010Y0403660D03*
X0348734Y0406516D03*
X0348734Y0410453D03*
X0348734Y0414390D03*
X0348734Y0418327D03*
X0351732Y0418327D03*
X0355669Y0418327D03*
X0358700Y0418327D03*
X0361732Y0418327D03*
X0365669Y0418327D03*
X0358700Y0414390D03*
X0271569Y0361240D03*
X0271569Y0357303D03*
X0267632Y0380925D03*
X0267632Y0384862D03*
X0263695Y0323807D03*
X0259758Y0323807D03*
X0234167Y0311996D03*
X0234167Y0308059D03*
X0267632Y0292311D03*
X0271569Y0292311D03*
X0299128Y0308059D03*
X0303065Y0308059D03*
X0303065Y0311996D03*
X0299128Y0311996D03*
X0324718Y0311996D03*
X0324718Y0308059D03*
X0344404Y0308059D03*
X0344404Y0304122D03*
X0344404Y0311996D03*
X0344404Y0315933D03*
X0354246Y0317902D03*
X0354246Y0321839D03*
X0358183Y0321839D03*
X0358183Y0317902D03*
X0308183Y0277744D03*
X0308183Y0273807D03*
X0308183Y0269870D03*
X0308183Y0265933D03*
X0295191Y0264752D03*
X0295191Y0260815D03*
X0291254Y0260815D03*
X0291254Y0264752D03*
X0318026Y0251760D03*
X0321766Y0251760D03*
X0321766Y0247823D03*
X0318026Y0247823D03*
X0313230Y0244949D03*
X0313230Y0241012D03*
X0305230Y0240980D03*
X0305230Y0244917D03*
X0318813Y0233256D03*
X0318813Y0229319D03*
X0340073Y0244180D03*
X0344010Y0244180D03*
X0348734Y0247035D03*
X0348734Y0250972D03*
X0348734Y0254909D03*
X0348734Y0258846D03*
X0351732Y0258846D03*
X0355669Y0258846D03*
X0358700Y0258846D03*
X0361732Y0258846D03*
X0365669Y0258846D03*
X0358700Y0254909D03*
X0414648Y0308059D03*
X0414648Y0311996D03*
X0440238Y0323807D03*
X0444175Y0323807D03*
X0479608Y0311996D03*
X0479608Y0308059D03*
X0483545Y0308059D03*
X0483545Y0311996D03*
X0505199Y0311996D03*
X0505199Y0308059D03*
X0524884Y0308059D03*
X0524884Y0304122D03*
X0524884Y0311996D03*
X0524884Y0315933D03*
X0534726Y0317902D03*
X0534726Y0321839D03*
X0538663Y0321839D03*
X0538663Y0317902D03*
X0488663Y0277744D03*
X0488663Y0273807D03*
X0488663Y0269870D03*
X0488663Y0265933D03*
X0475671Y0264752D03*
X0471734Y0264752D03*
X0471734Y0260815D03*
X0475671Y0260815D03*
X0485711Y0244917D03*
X0485711Y0240980D03*
X0493711Y0241012D03*
X0493711Y0244949D03*
X0498506Y0247823D03*
X0502246Y0247823D03*
X0502246Y0251760D03*
X0498506Y0251760D03*
X0520553Y0244180D03*
X0524490Y0244180D03*
X0529215Y0247035D03*
X0529215Y0250972D03*
X0529215Y0254909D03*
X0529215Y0258846D03*
X0532212Y0258846D03*
X0536149Y0258846D03*
X0539181Y0258846D03*
X0542212Y0258846D03*
X0546149Y0258846D03*
X0539181Y0254909D03*
X0499293Y0233256D03*
X0499293Y0229319D03*
X0452049Y0201760D03*
X0452049Y0197823D03*
X0448112Y0221445D03*
X0448112Y0225382D03*
X0444175Y0164327D03*
X0440238Y0164327D03*
X0414648Y0152516D03*
X0414648Y0148579D03*
X0448112Y0132831D03*
X0452049Y0132831D03*
X0479608Y0148579D03*
X0479608Y0152516D03*
X0483545Y0152516D03*
X0483545Y0148579D03*
X0505199Y0148579D03*
X0505199Y0152516D03*
X0524884Y0152516D03*
X0524884Y0156453D03*
X0524884Y0148579D03*
X0524884Y0144642D03*
X0534726Y0158421D03*
X0534726Y0162358D03*
X0538663Y0162358D03*
X0538663Y0158421D03*
X0488663Y0118264D03*
X0488663Y0114327D03*
X0488663Y0110390D03*
X0488663Y0106453D03*
X0475671Y0105272D03*
X0471734Y0105272D03*
X0471734Y0101335D03*
X0475671Y0101335D03*
X0485711Y0085437D03*
X0485711Y0081500D03*
X0493711Y0081531D03*
X0493711Y0085469D03*
X0498506Y0088343D03*
X0502246Y0088343D03*
X0502246Y0092280D03*
X0498506Y0092280D03*
X0520553Y0084699D03*
X0524490Y0084699D03*
X0529215Y0087555D03*
X0529215Y0091492D03*
X0529215Y0095429D03*
X0529215Y0099366D03*
X0532212Y0099366D03*
X0536149Y0099366D03*
X0539181Y0099366D03*
X0542212Y0099366D03*
X0546149Y0099366D03*
X0539181Y0095429D03*
X0499293Y0073776D03*
X0499293Y0069839D03*
X0452049Y0042280D03*
X0452049Y0038343D03*
X0448112Y0061965D03*
X0448112Y0065902D03*
X0365669Y0099366D03*
X0361732Y0099366D03*
X0358700Y0099366D03*
X0355669Y0099366D03*
X0351732Y0099366D03*
X0348734Y0099366D03*
X0348734Y0095429D03*
X0348734Y0091492D03*
X0348734Y0087555D03*
X0344010Y0084699D03*
X0340073Y0084699D03*
X0358700Y0095429D03*
X0321766Y0092280D03*
X0318026Y0092280D03*
X0318026Y0088343D03*
X0321766Y0088343D03*
X0313230Y0085469D03*
X0313230Y0081531D03*
X0305230Y0081500D03*
X0305230Y0085437D03*
X0295191Y0101335D03*
X0295191Y0105272D03*
X0291254Y0105272D03*
X0291254Y0101335D03*
X0308183Y0106453D03*
X0308183Y0110390D03*
X0308183Y0114327D03*
X0308183Y0118264D03*
X0303065Y0148579D03*
X0303065Y0152516D03*
X0299128Y0152516D03*
X0299128Y0148579D03*
X0324718Y0148579D03*
X0324718Y0152516D03*
X0344404Y0152516D03*
X0344404Y0156453D03*
X0344404Y0148579D03*
X0344404Y0144642D03*
X0354246Y0158421D03*
X0358183Y0158421D03*
X0358183Y0162358D03*
X0354246Y0162358D03*
X0271569Y0132831D03*
X0267632Y0132831D03*
X0234167Y0148579D03*
X0234167Y0152516D03*
X0259758Y0164327D03*
X0263695Y0164327D03*
X0271569Y0197823D03*
X0271569Y0201760D03*
X0267632Y0221445D03*
X0267632Y0225382D03*
X0185189Y0258846D03*
X0181252Y0258846D03*
X0178220Y0258846D03*
X0175189Y0258846D03*
X0171252Y0258846D03*
X0168254Y0258846D03*
X0168254Y0254909D03*
X0168254Y0250972D03*
X0168254Y0247035D03*
X0163530Y0244180D03*
X0159593Y0244180D03*
X0178220Y0254909D03*
X0141285Y0251760D03*
X0137545Y0251760D03*
X0137545Y0247823D03*
X0141285Y0247823D03*
X0132750Y0244949D03*
X0132750Y0241012D03*
X0124750Y0240980D03*
X0124750Y0244917D03*
X0138333Y0233256D03*
X0138333Y0229319D03*
X0114711Y0260815D03*
X0114711Y0264752D03*
X0110774Y0264752D03*
X0110774Y0260815D03*
X0127703Y0265933D03*
X0127703Y0269870D03*
X0127703Y0273807D03*
X0127703Y0277744D03*
X0122585Y0308059D03*
X0122585Y0311996D03*
X0118648Y0311996D03*
X0118648Y0308059D03*
X0144238Y0308059D03*
X0144238Y0311996D03*
X0163923Y0311996D03*
X0163923Y0308059D03*
X0163923Y0304122D03*
X0163923Y0315933D03*
X0173766Y0317902D03*
X0173766Y0321839D03*
X0177703Y0321839D03*
X0177703Y0317902D03*
X0091089Y0292311D03*
X0087152Y0292311D03*
X0053687Y0308059D03*
X0053687Y0311996D03*
X0079278Y0323807D03*
X0083215Y0323807D03*
X0091089Y0357303D03*
X0091089Y0361240D03*
X0087152Y0380925D03*
X0087152Y0384862D03*
X0124750Y0400461D03*
X0124750Y0404398D03*
X0132750Y0404429D03*
X0132750Y0400492D03*
X0137545Y0407303D03*
X0141285Y0407303D03*
X0141285Y0411240D03*
X0137545Y0411240D03*
X0127703Y0425413D03*
X0127703Y0429350D03*
X0127703Y0433287D03*
X0127703Y0437224D03*
X0114711Y0424232D03*
X0114711Y0420295D03*
X0110774Y0420295D03*
X0110774Y0424232D03*
X0091089Y0451791D03*
X0087152Y0451791D03*
X0118648Y0467539D03*
X0122585Y0467539D03*
X0122585Y0471476D03*
X0118648Y0471476D03*
X0144238Y0471476D03*
X0144238Y0467539D03*
X0163923Y0467539D03*
X0163923Y0463602D03*
X0163923Y0471476D03*
X0163923Y0475413D03*
X0173766Y0477382D03*
X0177703Y0477382D03*
X0177703Y0481319D03*
X0173766Y0481319D03*
X0234167Y0471476D03*
X0234167Y0467539D03*
X0259758Y0483287D03*
X0263695Y0483287D03*
X0185189Y0418327D03*
X0181252Y0418327D03*
X0178220Y0418327D03*
X0175189Y0418327D03*
X0171252Y0418327D03*
X0168254Y0418327D03*
X0168254Y0414390D03*
X0168254Y0410453D03*
X0168254Y0406516D03*
X0163530Y0403660D03*
X0159593Y0403660D03*
X0178220Y0414390D03*
X0138333Y0392736D03*
X0138333Y0388799D03*
X0053687Y0467539D03*
X0053687Y0471476D03*
X0079278Y0483287D03*
X0083215Y0483287D03*
X0087152Y0225382D03*
X0087152Y0221445D03*
X0091089Y0201760D03*
X0091089Y0197823D03*
X0083215Y0164327D03*
X0079278Y0164327D03*
X0053687Y0152516D03*
X0053687Y0148579D03*
X0087152Y0132831D03*
X0091089Y0132831D03*
X0118648Y0148579D03*
X0122585Y0148579D03*
X0122585Y0152516D03*
X0118648Y0152516D03*
X0144238Y0152516D03*
X0144238Y0148579D03*
X0163923Y0148579D03*
X0163923Y0152516D03*
X0163923Y0156453D03*
X0173766Y0158421D03*
X0177703Y0158421D03*
X0177703Y0162358D03*
X0173766Y0162358D03*
X0163923Y0144642D03*
X0127703Y0118264D03*
X0127703Y0114327D03*
X0127703Y0110390D03*
X0127703Y0106453D03*
X0114711Y0105272D03*
X0114711Y0101335D03*
X0110774Y0101335D03*
X0110774Y0105272D03*
X0124750Y0085437D03*
X0124750Y0081500D03*
X0132750Y0081531D03*
X0132750Y0085469D03*
X0137545Y0088343D03*
X0141285Y0088343D03*
X0141285Y0092280D03*
X0137545Y0092280D03*
X0138333Y0073776D03*
X0138333Y0069839D03*
X0159593Y0084699D03*
X0163530Y0084699D03*
X0168254Y0087555D03*
X0168254Y0091492D03*
X0168254Y0095429D03*
X0168254Y0099366D03*
X0171252Y0099366D03*
X0175189Y0099366D03*
X0178220Y0099366D03*
X0181252Y0099366D03*
X0185189Y0099366D03*
X0178220Y0095429D03*
X0091089Y0042280D03*
X0091089Y0038343D03*
X0087152Y0061965D03*
X0087152Y0065902D03*
X0267632Y0065902D03*
X0267632Y0061965D03*
X0271569Y0042280D03*
X0271569Y0038343D03*
X0318813Y0069839D03*
X0318813Y0073776D03*
X0448112Y0292311D03*
X0452049Y0292311D03*
X0452049Y0357303D03*
X0452049Y0361240D03*
X0448112Y0380925D03*
X0448112Y0384862D03*
D14*
X0494569Y0426398D03*
X0494569Y0436240D03*
X0314089Y0436240D03*
X0314089Y0426398D03*
X0133608Y0426398D03*
X0133608Y0436240D03*
X0133608Y0276760D03*
X0133608Y0266917D03*
X0314089Y0266917D03*
X0314089Y0276760D03*
X0494569Y0276760D03*
X0494569Y0266917D03*
X0494569Y0117280D03*
X0494569Y0107437D03*
X0314089Y0107437D03*
X0314089Y0117280D03*
X0133608Y0117280D03*
X0133608Y0107437D03*
D15*
X0135183Y0102516D03*
X0135183Y0096217D03*
X0315663Y0096217D03*
X0315663Y0102516D03*
X0496144Y0102516D03*
X0496144Y0096217D03*
X0496144Y0255697D03*
X0496144Y0261996D03*
X0315663Y0261996D03*
X0315663Y0255697D03*
X0135183Y0255697D03*
X0135183Y0261996D03*
X0135183Y0415177D03*
X0135183Y0421476D03*
X0315663Y0421476D03*
X0315663Y0415177D03*
X0496144Y0415177D03*
X0496144Y0421476D03*
D16*
X0506774Y0409665D03*
X0513073Y0409665D03*
X0332593Y0409665D03*
X0326293Y0409665D03*
X0152112Y0409665D03*
X0145813Y0409665D03*
X0145813Y0250185D03*
X0152112Y0250185D03*
X0326293Y0250185D03*
X0332593Y0250185D03*
X0506774Y0250185D03*
X0513073Y0250185D03*
X0513073Y0090705D03*
X0506774Y0090705D03*
X0332593Y0090705D03*
X0326293Y0090705D03*
X0152112Y0090705D03*
X0145813Y0090705D03*
D17*
X0199860Y0085980D03*
X0199860Y0099366D03*
X0380341Y0099366D03*
X0380341Y0085980D03*
X0560821Y0085980D03*
X0560821Y0099366D03*
X0560821Y0245461D03*
X0560821Y0258846D03*
X0560821Y0404941D03*
X0560821Y0418327D03*
X0380341Y0418327D03*
X0380341Y0404941D03*
X0199860Y0404941D03*
X0199860Y0418327D03*
X0199860Y0258846D03*
X0199860Y0245461D03*
X0380341Y0245461D03*
X0380341Y0258846D03*
D18*
X0439549Y0204102D03*
X0444864Y0204102D03*
X0444864Y0195480D03*
X0439549Y0195480D03*
X0439549Y0178480D03*
X0444864Y0178480D03*
X0444864Y0169858D03*
X0439549Y0169858D03*
X0439549Y0044622D03*
X0444864Y0044622D03*
X0444864Y0036000D03*
X0439549Y0036000D03*
X0264384Y0036000D03*
X0259069Y0036000D03*
X0259069Y0044622D03*
X0264384Y0044622D03*
X0264384Y0169858D03*
X0259069Y0169858D03*
X0259069Y0178480D03*
X0264384Y0178480D03*
X0264384Y0195480D03*
X0259069Y0195480D03*
X0259069Y0204102D03*
X0264384Y0204102D03*
X0264384Y0329339D03*
X0259069Y0329339D03*
X0259069Y0337961D03*
X0264384Y0337961D03*
X0264384Y0354961D03*
X0259069Y0354961D03*
X0259069Y0363583D03*
X0264384Y0363583D03*
X0264384Y0488819D03*
X0259069Y0488819D03*
X0259069Y0497441D03*
X0264384Y0497441D03*
X0439549Y0497441D03*
X0444864Y0497441D03*
X0444864Y0488819D03*
X0439549Y0488819D03*
X0439549Y0363583D03*
X0444864Y0363583D03*
X0444864Y0354961D03*
X0439549Y0354961D03*
X0439549Y0337961D03*
X0444864Y0337961D03*
X0444864Y0329339D03*
X0439549Y0329339D03*
X0083904Y0329339D03*
X0078589Y0329339D03*
X0078589Y0337961D03*
X0083904Y0337961D03*
X0083904Y0354961D03*
X0078589Y0354961D03*
X0078589Y0363583D03*
X0083904Y0363583D03*
X0083904Y0488819D03*
X0078589Y0488819D03*
X0078589Y0497441D03*
X0083904Y0497441D03*
X0083904Y0204102D03*
X0078589Y0204102D03*
X0078589Y0195480D03*
X0083904Y0195480D03*
X0083904Y0178480D03*
X0078589Y0178480D03*
X0078589Y0169858D03*
X0083904Y0169858D03*
X0083904Y0044622D03*
X0078589Y0044622D03*
X0078589Y0036000D03*
X0083904Y0036000D03*
D19*
X0105852Y0164720D03*
X0107821Y0164720D03*
X0109789Y0164720D03*
X0111758Y0164720D03*
X0113726Y0164720D03*
X0115695Y0164720D03*
X0117663Y0164720D03*
X0119632Y0164720D03*
X0121600Y0164720D03*
X0123569Y0164720D03*
X0125537Y0164720D03*
X0127506Y0164720D03*
X0129474Y0164720D03*
X0131443Y0164720D03*
X0133411Y0164720D03*
X0135380Y0164720D03*
X0137348Y0164720D03*
X0139317Y0164720D03*
X0141285Y0164720D03*
X0143254Y0164720D03*
X0145222Y0164720D03*
X0147191Y0164720D03*
X0149159Y0164720D03*
X0151128Y0164720D03*
X0286333Y0164720D03*
X0288301Y0164720D03*
X0290270Y0164720D03*
X0292238Y0164720D03*
X0294207Y0164720D03*
X0296175Y0164720D03*
X0298144Y0164720D03*
X0300112Y0164720D03*
X0302081Y0164720D03*
X0304049Y0164720D03*
X0306018Y0164720D03*
X0307986Y0164720D03*
X0309955Y0164720D03*
X0311923Y0164720D03*
X0313892Y0164720D03*
X0315860Y0164720D03*
X0317829Y0164720D03*
X0319797Y0164720D03*
X0321766Y0164720D03*
X0323734Y0164720D03*
X0325703Y0164720D03*
X0327671Y0164720D03*
X0329640Y0164720D03*
X0331608Y0164720D03*
X0466813Y0164720D03*
X0468781Y0164720D03*
X0470750Y0164720D03*
X0472718Y0164720D03*
X0474687Y0164720D03*
X0476655Y0164720D03*
X0478624Y0164720D03*
X0480592Y0164720D03*
X0482561Y0164720D03*
X0484530Y0164720D03*
X0486498Y0164720D03*
X0488467Y0164720D03*
X0490435Y0164720D03*
X0492404Y0164720D03*
X0494372Y0164720D03*
X0496341Y0164720D03*
X0498309Y0164720D03*
X0500278Y0164720D03*
X0502246Y0164720D03*
X0504215Y0164720D03*
X0506183Y0164720D03*
X0508152Y0164720D03*
X0510120Y0164720D03*
X0512089Y0164720D03*
X0512089Y0324201D03*
X0510120Y0324201D03*
X0508152Y0324201D03*
X0506183Y0324201D03*
X0504215Y0324201D03*
X0502246Y0324201D03*
X0500278Y0324201D03*
X0498309Y0324201D03*
X0496341Y0324201D03*
X0494372Y0324201D03*
X0492404Y0324201D03*
X0490435Y0324201D03*
X0488467Y0324201D03*
X0486498Y0324201D03*
X0484530Y0324201D03*
X0482561Y0324201D03*
X0480592Y0324201D03*
X0478624Y0324201D03*
X0476655Y0324201D03*
X0474687Y0324201D03*
X0472718Y0324201D03*
X0470750Y0324201D03*
X0468781Y0324201D03*
X0466813Y0324201D03*
X0331608Y0324201D03*
X0329640Y0324201D03*
X0327671Y0324201D03*
X0325703Y0324201D03*
X0323734Y0324201D03*
X0321766Y0324201D03*
X0319797Y0324201D03*
X0317829Y0324201D03*
X0315860Y0324201D03*
X0313892Y0324201D03*
X0311923Y0324201D03*
X0309955Y0324201D03*
X0307986Y0324201D03*
X0306018Y0324201D03*
X0304049Y0324201D03*
X0302081Y0324201D03*
X0300112Y0324201D03*
X0298144Y0324201D03*
X0296175Y0324201D03*
X0294207Y0324201D03*
X0292238Y0324201D03*
X0290270Y0324201D03*
X0288301Y0324201D03*
X0286333Y0324201D03*
X0151128Y0324201D03*
X0149159Y0324201D03*
X0147191Y0324201D03*
X0145222Y0324201D03*
X0143254Y0324201D03*
X0141285Y0324201D03*
X0139317Y0324201D03*
X0137348Y0324201D03*
X0135380Y0324201D03*
X0133411Y0324201D03*
X0131443Y0324201D03*
X0129474Y0324201D03*
X0127506Y0324201D03*
X0125537Y0324201D03*
X0123569Y0324201D03*
X0121600Y0324201D03*
X0119632Y0324201D03*
X0117663Y0324201D03*
X0115695Y0324201D03*
X0113726Y0324201D03*
X0111758Y0324201D03*
X0109789Y0324201D03*
X0107821Y0324201D03*
X0105852Y0324201D03*
X0105852Y0483681D03*
X0107821Y0483681D03*
X0109789Y0483681D03*
X0111758Y0483681D03*
X0113726Y0483681D03*
X0115695Y0483681D03*
X0117663Y0483681D03*
X0119632Y0483681D03*
X0121600Y0483681D03*
X0123569Y0483681D03*
X0125537Y0483681D03*
X0127506Y0483681D03*
X0129474Y0483681D03*
X0131443Y0483681D03*
X0133411Y0483681D03*
X0135380Y0483681D03*
X0137348Y0483681D03*
X0139317Y0483681D03*
X0141285Y0483681D03*
X0143254Y0483681D03*
X0145222Y0483681D03*
X0147191Y0483681D03*
X0149159Y0483681D03*
X0151128Y0483681D03*
X0286333Y0483681D03*
X0288301Y0483681D03*
X0290270Y0483681D03*
X0292238Y0483681D03*
X0294207Y0483681D03*
X0296175Y0483681D03*
X0298144Y0483681D03*
X0300112Y0483681D03*
X0302081Y0483681D03*
X0304049Y0483681D03*
X0306018Y0483681D03*
X0307986Y0483681D03*
X0309955Y0483681D03*
X0311923Y0483681D03*
X0313892Y0483681D03*
X0315860Y0483681D03*
X0317829Y0483681D03*
X0319797Y0483681D03*
X0321766Y0483681D03*
X0323734Y0483681D03*
X0325703Y0483681D03*
X0327671Y0483681D03*
X0329640Y0483681D03*
X0331608Y0483681D03*
X0466813Y0483681D03*
X0468781Y0483681D03*
X0470750Y0483681D03*
X0472718Y0483681D03*
X0474687Y0483681D03*
X0476655Y0483681D03*
X0478624Y0483681D03*
X0480592Y0483681D03*
X0482561Y0483681D03*
X0484530Y0483681D03*
X0486498Y0483681D03*
X0488467Y0483681D03*
X0490435Y0483681D03*
X0492404Y0483681D03*
X0494372Y0483681D03*
X0496341Y0483681D03*
X0498309Y0483681D03*
X0500278Y0483681D03*
X0502246Y0483681D03*
X0504215Y0483681D03*
X0506183Y0483681D03*
X0508152Y0483681D03*
X0510120Y0483681D03*
X0512089Y0483681D03*
D20*
X0516321Y0488602D03*
X0462581Y0488602D03*
X0335841Y0488602D03*
X0282100Y0488602D03*
X0155360Y0488602D03*
X0101620Y0488602D03*
X0101620Y0329122D03*
X0155360Y0329122D03*
X0282100Y0329122D03*
X0335841Y0329122D03*
X0462581Y0329122D03*
X0516321Y0329122D03*
X0516321Y0169642D03*
X0462581Y0169642D03*
X0335841Y0169642D03*
X0282100Y0169642D03*
X0155360Y0169642D03*
X0101620Y0169642D03*
D21*
X0096404Y0168264D03*
X0160577Y0168264D03*
X0276884Y0168264D03*
X0341057Y0168264D03*
X0457364Y0168264D03*
X0521537Y0168264D03*
X0521537Y0327744D03*
X0457364Y0327744D03*
X0341057Y0327744D03*
X0276884Y0327744D03*
X0160577Y0327744D03*
X0096404Y0327744D03*
X0096404Y0487224D03*
X0160577Y0487224D03*
X0276884Y0487224D03*
X0341057Y0487224D03*
X0457364Y0487224D03*
X0521537Y0487224D03*
D22*
X0490435Y0393720D03*
X0488467Y0393720D03*
X0488467Y0387815D03*
X0490435Y0387815D03*
X0309955Y0387815D03*
X0307986Y0387815D03*
X0307986Y0393720D03*
X0309955Y0393720D03*
X0129474Y0393720D03*
X0127506Y0393720D03*
X0127506Y0387815D03*
X0129474Y0387815D03*
X0129474Y0234240D03*
X0127506Y0234240D03*
X0127506Y0228335D03*
X0129474Y0228335D03*
X0307986Y0228335D03*
X0309955Y0228335D03*
X0309955Y0234240D03*
X0307986Y0234240D03*
X0488467Y0234240D03*
X0490435Y0234240D03*
X0490435Y0228335D03*
X0488467Y0228335D03*
X0488467Y0074760D03*
X0490435Y0074760D03*
X0490435Y0068854D03*
X0488467Y0068854D03*
X0309955Y0068854D03*
X0307986Y0068854D03*
X0307986Y0074760D03*
X0309955Y0074760D03*
X0129474Y0074760D03*
X0127506Y0074760D03*
X0127506Y0068854D03*
X0129474Y0068854D03*
D23*
X0131443Y0068854D03*
X0131443Y0070823D03*
X0131443Y0072791D03*
X0131443Y0074760D03*
X0125537Y0074760D03*
X0125537Y0072791D03*
X0125537Y0070823D03*
X0125537Y0068854D03*
X0306018Y0068854D03*
X0306018Y0070823D03*
X0306018Y0072791D03*
X0306018Y0074760D03*
X0311923Y0074760D03*
X0311923Y0072791D03*
X0311923Y0070823D03*
X0311923Y0068854D03*
X0486498Y0068854D03*
X0486498Y0070823D03*
X0486498Y0072791D03*
X0486498Y0074760D03*
X0492404Y0074760D03*
X0492404Y0072791D03*
X0492404Y0070823D03*
X0492404Y0068854D03*
X0492404Y0228335D03*
X0492404Y0230303D03*
X0492404Y0232272D03*
X0492404Y0234240D03*
X0486498Y0234240D03*
X0486498Y0232272D03*
X0486498Y0230303D03*
X0486498Y0228335D03*
X0311923Y0228335D03*
X0311923Y0230303D03*
X0311923Y0232272D03*
X0311923Y0234240D03*
X0306018Y0234240D03*
X0306018Y0232272D03*
X0306018Y0230303D03*
X0306018Y0228335D03*
X0131443Y0228335D03*
X0131443Y0230303D03*
X0131443Y0232272D03*
X0131443Y0234240D03*
X0125537Y0234240D03*
X0125537Y0232272D03*
X0125537Y0230303D03*
X0125537Y0228335D03*
X0125537Y0387815D03*
X0125537Y0389783D03*
X0125537Y0391752D03*
X0125537Y0393720D03*
X0131443Y0393720D03*
X0131443Y0391752D03*
X0131443Y0389783D03*
X0131443Y0387815D03*
X0306018Y0387815D03*
X0306018Y0389783D03*
X0306018Y0391752D03*
X0306018Y0393720D03*
X0311923Y0393720D03*
X0311923Y0391752D03*
X0311923Y0389783D03*
X0311923Y0387815D03*
X0486498Y0387815D03*
X0486498Y0389783D03*
X0486498Y0391752D03*
X0486498Y0393720D03*
X0492404Y0393720D03*
X0492404Y0391752D03*
X0492404Y0389783D03*
X0492404Y0387815D03*
D24*
X0505199Y0387421D03*
X0505199Y0394114D03*
X0493388Y0378366D03*
X0493388Y0371673D03*
X0485514Y0371673D03*
X0485514Y0378366D03*
X0477640Y0378366D03*
X0477640Y0371673D03*
X0469766Y0371673D03*
X0469766Y0378366D03*
X0455986Y0317311D03*
X0450081Y0317311D03*
X0450081Y0310618D03*
X0455986Y0310618D03*
X0467797Y0313374D03*
X0473703Y0313374D03*
X0473703Y0306681D03*
X0467797Y0306681D03*
X0505199Y0234634D03*
X0505199Y0227941D03*
X0493388Y0218886D03*
X0485514Y0218886D03*
X0485514Y0212193D03*
X0493388Y0212193D03*
X0477640Y0212193D03*
X0469766Y0212193D03*
X0469766Y0218886D03*
X0477640Y0218886D03*
X0455986Y0157831D03*
X0450081Y0157831D03*
X0450081Y0151138D03*
X0455986Y0151138D03*
X0467797Y0153894D03*
X0473703Y0153894D03*
X0473703Y0147201D03*
X0467797Y0147201D03*
X0505199Y0075154D03*
X0505199Y0068461D03*
X0493388Y0059406D03*
X0485514Y0059406D03*
X0485514Y0052713D03*
X0493388Y0052713D03*
X0477640Y0052713D03*
X0469766Y0052713D03*
X0469766Y0059406D03*
X0477640Y0059406D03*
X0324718Y0068461D03*
X0312907Y0059406D03*
X0305033Y0059406D03*
X0305033Y0052713D03*
X0312907Y0052713D03*
X0297159Y0052713D03*
X0289285Y0052713D03*
X0289285Y0059406D03*
X0297159Y0059406D03*
X0324718Y0075154D03*
X0293222Y0147201D03*
X0287317Y0147201D03*
X0287317Y0153894D03*
X0293222Y0153894D03*
X0275506Y0151138D03*
X0269600Y0151138D03*
X0269600Y0157831D03*
X0275506Y0157831D03*
X0289285Y0212193D03*
X0297159Y0212193D03*
X0297159Y0218886D03*
X0289285Y0218886D03*
X0305033Y0218886D03*
X0312907Y0218886D03*
X0324718Y0227941D03*
X0324718Y0234634D03*
X0312907Y0212193D03*
X0305033Y0212193D03*
X0293222Y0306681D03*
X0287317Y0306681D03*
X0287317Y0313374D03*
X0293222Y0313374D03*
X0275506Y0310618D03*
X0269600Y0310618D03*
X0269600Y0317311D03*
X0275506Y0317311D03*
X0289285Y0371673D03*
X0289285Y0378366D03*
X0297159Y0378366D03*
X0297159Y0371673D03*
X0305033Y0371673D03*
X0305033Y0378366D03*
X0312907Y0378366D03*
X0312907Y0371673D03*
X0324718Y0387421D03*
X0324718Y0394114D03*
X0293222Y0466161D03*
X0287317Y0466161D03*
X0287317Y0472854D03*
X0293222Y0472854D03*
X0275506Y0470098D03*
X0269600Y0470098D03*
X0269600Y0476791D03*
X0275506Y0476791D03*
X0144238Y0394114D03*
X0144238Y0387421D03*
X0132427Y0378366D03*
X0132427Y0371673D03*
X0124553Y0371673D03*
X0124553Y0378366D03*
X0116679Y0378366D03*
X0116679Y0371673D03*
X0108805Y0371673D03*
X0108805Y0378366D03*
X0095026Y0317311D03*
X0089120Y0317311D03*
X0089120Y0310618D03*
X0095026Y0310618D03*
X0106837Y0313374D03*
X0112742Y0313374D03*
X0112742Y0306681D03*
X0106837Y0306681D03*
X0144238Y0234634D03*
X0144238Y0227941D03*
X0132427Y0218886D03*
X0132427Y0212193D03*
X0124553Y0212193D03*
X0116679Y0212193D03*
X0108805Y0212193D03*
X0108805Y0218886D03*
X0116679Y0218886D03*
X0124553Y0218886D03*
X0095026Y0157831D03*
X0089120Y0157831D03*
X0089120Y0151138D03*
X0095026Y0151138D03*
X0106837Y0153894D03*
X0112742Y0153894D03*
X0112742Y0147201D03*
X0106837Y0147201D03*
X0144238Y0075154D03*
X0144238Y0068461D03*
X0132427Y0059406D03*
X0132427Y0052713D03*
X0124553Y0052713D03*
X0116679Y0052713D03*
X0108805Y0052713D03*
X0108805Y0059406D03*
X0116679Y0059406D03*
X0124553Y0059406D03*
X0112742Y0466161D03*
X0106837Y0466161D03*
X0106837Y0472854D03*
X0112742Y0472854D03*
X0095026Y0470098D03*
X0089120Y0470098D03*
X0089120Y0476791D03*
X0095026Y0476791D03*
X0450081Y0476791D03*
X0455986Y0476791D03*
X0455986Y0470098D03*
X0450081Y0470098D03*
X0467797Y0472854D03*
X0473703Y0472854D03*
X0473703Y0466161D03*
X0467797Y0466161D03*
D25*
X0456380Y0463996D03*
X0449687Y0463996D03*
X0375309Y0477382D03*
X0368616Y0477382D03*
X0368616Y0445886D03*
X0375309Y0445886D03*
X0296569Y0394705D03*
X0289876Y0394705D03*
X0289876Y0386831D03*
X0296569Y0386831D03*
X0280821Y0378957D03*
X0274128Y0378957D03*
X0274128Y0373051D03*
X0274128Y0367146D03*
X0280821Y0367146D03*
X0280821Y0373051D03*
X0275900Y0304516D03*
X0269207Y0304516D03*
X0194829Y0317902D03*
X0188136Y0317902D03*
X0188136Y0286405D03*
X0194829Y0286405D03*
X0116089Y0235224D03*
X0109396Y0235224D03*
X0109396Y0227350D03*
X0116089Y0227350D03*
X0100341Y0219476D03*
X0100341Y0213571D03*
X0093648Y0213571D03*
X0093648Y0219476D03*
X0093648Y0207665D03*
X0100341Y0207665D03*
X0095419Y0145035D03*
X0088726Y0145035D03*
X0109396Y0075744D03*
X0116089Y0075744D03*
X0116089Y0067870D03*
X0109396Y0067870D03*
X0100341Y0059996D03*
X0100341Y0054091D03*
X0100341Y0048185D03*
X0093648Y0048185D03*
X0093648Y0054091D03*
X0093648Y0059996D03*
X0188136Y0126925D03*
X0194829Y0126925D03*
X0194829Y0158421D03*
X0188136Y0158421D03*
X0269207Y0145035D03*
X0275900Y0145035D03*
X0274128Y0207665D03*
X0280821Y0207665D03*
X0280821Y0213571D03*
X0280821Y0219476D03*
X0274128Y0219476D03*
X0274128Y0213571D03*
X0289876Y0227350D03*
X0296569Y0227350D03*
X0296569Y0235224D03*
X0289876Y0235224D03*
X0368616Y0286405D03*
X0375309Y0286405D03*
X0375309Y0317902D03*
X0368616Y0317902D03*
X0449687Y0304516D03*
X0456380Y0304516D03*
X0454608Y0367146D03*
X0454608Y0373051D03*
X0461301Y0373051D03*
X0461301Y0367146D03*
X0461301Y0378957D03*
X0454608Y0378957D03*
X0470356Y0386831D03*
X0477049Y0386831D03*
X0477049Y0394705D03*
X0470356Y0394705D03*
X0549096Y0445886D03*
X0555789Y0445886D03*
X0555789Y0477382D03*
X0549096Y0477382D03*
X0549096Y0317902D03*
X0555789Y0317902D03*
X0555789Y0286405D03*
X0549096Y0286405D03*
X0477049Y0235224D03*
X0470356Y0235224D03*
X0470356Y0227350D03*
X0477049Y0227350D03*
X0461301Y0219476D03*
X0461301Y0213571D03*
X0454608Y0213571D03*
X0454608Y0219476D03*
X0454608Y0207665D03*
X0461301Y0207665D03*
X0456380Y0145035D03*
X0449687Y0145035D03*
X0375309Y0158421D03*
X0368616Y0158421D03*
X0368616Y0126925D03*
X0375309Y0126925D03*
X0296569Y0075744D03*
X0289876Y0075744D03*
X0289876Y0067870D03*
X0296569Y0067870D03*
X0280821Y0059996D03*
X0280821Y0054091D03*
X0280821Y0048185D03*
X0274128Y0048185D03*
X0274128Y0054091D03*
X0274128Y0059996D03*
X0454608Y0059996D03*
X0454608Y0054091D03*
X0454608Y0048185D03*
X0461301Y0048185D03*
X0461301Y0054091D03*
X0461301Y0059996D03*
X0470356Y0067870D03*
X0477049Y0067870D03*
X0477049Y0075744D03*
X0470356Y0075744D03*
X0549096Y0126925D03*
X0555789Y0126925D03*
X0555789Y0158421D03*
X0549096Y0158421D03*
X0194829Y0445886D03*
X0188136Y0445886D03*
X0188136Y0477382D03*
X0194829Y0477382D03*
X0269207Y0463996D03*
X0275900Y0463996D03*
X0116089Y0394705D03*
X0109396Y0394705D03*
X0109396Y0386831D03*
X0116089Y0386831D03*
X0100341Y0378957D03*
X0093648Y0378957D03*
X0093648Y0373051D03*
X0093648Y0367146D03*
X0100341Y0367146D03*
X0100341Y0373051D03*
X0095419Y0304516D03*
X0088726Y0304516D03*
X0088726Y0463996D03*
X0095419Y0463996D03*
D26*
X0097585Y0420295D03*
X0097585Y0412421D03*
X0088530Y0412421D03*
X0088530Y0420295D03*
X0269010Y0420295D03*
X0269010Y0412421D03*
X0278065Y0412421D03*
X0278065Y0420295D03*
X0449490Y0420295D03*
X0449490Y0412421D03*
X0458545Y0412421D03*
X0458545Y0420295D03*
X0458545Y0260815D03*
X0458545Y0252941D03*
X0449490Y0252941D03*
X0449490Y0260815D03*
X0278065Y0260815D03*
X0278065Y0252941D03*
X0269010Y0252941D03*
X0269010Y0260815D03*
X0097585Y0260815D03*
X0097585Y0252941D03*
X0088530Y0252941D03*
X0088530Y0260815D03*
X0088530Y0101335D03*
X0088530Y0093461D03*
X0097585Y0093461D03*
X0097585Y0101335D03*
X0269010Y0101335D03*
X0269010Y0093461D03*
X0278065Y0093461D03*
X0278065Y0101335D03*
X0449490Y0101335D03*
X0449490Y0093461D03*
X0458545Y0093461D03*
X0458545Y0101335D03*
D27*
X0511301Y0145429D03*
X0515041Y0145429D03*
X0518781Y0145429D03*
X0518781Y0155666D03*
X0511301Y0155666D03*
X0338301Y0155666D03*
X0330821Y0155666D03*
X0330821Y0145429D03*
X0334561Y0145429D03*
X0338301Y0145429D03*
X0157821Y0145429D03*
X0154081Y0145429D03*
X0150341Y0145429D03*
X0150341Y0155666D03*
X0157821Y0155666D03*
X0157821Y0304909D03*
X0154081Y0304909D03*
X0150341Y0304909D03*
X0150341Y0315146D03*
X0157821Y0315146D03*
X0330821Y0315146D03*
X0338301Y0315146D03*
X0338301Y0304909D03*
X0334561Y0304909D03*
X0330821Y0304909D03*
X0511301Y0304909D03*
X0515041Y0304909D03*
X0518781Y0304909D03*
X0518781Y0315146D03*
X0511301Y0315146D03*
X0511301Y0464389D03*
X0515041Y0464389D03*
X0518781Y0464389D03*
X0518781Y0474626D03*
X0511301Y0474626D03*
X0338301Y0474626D03*
X0330821Y0474626D03*
X0330821Y0464389D03*
X0334561Y0464389D03*
X0338301Y0464389D03*
X0157821Y0464389D03*
X0154081Y0464389D03*
X0150341Y0464389D03*
X0150341Y0474626D03*
X0157821Y0474626D03*
D28*
X0058435Y0056433D03*
X0058435Y0071433D03*
X0080435Y0071433D03*
X0080435Y0056433D03*
X0080435Y0143047D03*
X0080435Y0158047D03*
X0058435Y0158047D03*
X0058435Y0143047D03*
X0058435Y0215913D03*
X0058435Y0230913D03*
X0080435Y0230913D03*
X0080435Y0215913D03*
X0080435Y0302528D03*
X0080435Y0317528D03*
X0058435Y0317528D03*
X0058435Y0302528D03*
X0058435Y0375394D03*
X0058435Y0390394D03*
X0080435Y0390394D03*
X0080435Y0375394D03*
X0080435Y0462008D03*
X0080435Y0477008D03*
X0058435Y0477008D03*
X0058435Y0462008D03*
X0238915Y0462008D03*
X0238915Y0477008D03*
X0260915Y0477008D03*
X0260915Y0462008D03*
X0260915Y0390394D03*
X0260915Y0375394D03*
X0238915Y0375394D03*
X0238915Y0390394D03*
X0238915Y0317528D03*
X0238915Y0302528D03*
X0260915Y0302528D03*
X0260915Y0317528D03*
X0260915Y0230913D03*
X0260915Y0215913D03*
X0238915Y0215913D03*
X0238915Y0230913D03*
X0238915Y0158047D03*
X0238915Y0143047D03*
X0260915Y0143047D03*
X0260915Y0158047D03*
X0260915Y0071433D03*
X0260915Y0056433D03*
X0238915Y0056433D03*
X0238915Y0071433D03*
X0419396Y0071433D03*
X0419396Y0056433D03*
X0441396Y0056433D03*
X0441396Y0071433D03*
X0441396Y0143047D03*
X0441396Y0158047D03*
X0419396Y0158047D03*
X0419396Y0143047D03*
X0419396Y0215913D03*
X0419396Y0230913D03*
X0441396Y0230913D03*
X0441396Y0215913D03*
X0441396Y0302528D03*
X0441396Y0317528D03*
X0419396Y0317528D03*
X0419396Y0302528D03*
X0419396Y0375394D03*
X0419396Y0390394D03*
X0441396Y0390394D03*
X0441396Y0375394D03*
X0441396Y0462008D03*
X0441396Y0477008D03*
X0419396Y0477008D03*
X0419396Y0462008D03*
D29*
X0468388Y0368039D02*
X0471144Y0368039D01*
X0471144Y0365283D01*
X0468388Y0365283D01*
X0468388Y0368039D01*
X0468388Y0366405D02*
X0471144Y0366405D01*
X0471144Y0367527D02*
X0468388Y0367527D01*
X0468388Y0361134D02*
X0471144Y0361134D01*
X0471144Y0358378D01*
X0468388Y0358378D01*
X0468388Y0361134D01*
X0468388Y0359500D02*
X0471144Y0359500D01*
X0471144Y0360622D02*
X0468388Y0360622D01*
X0476262Y0361134D02*
X0479018Y0361134D01*
X0479018Y0358378D01*
X0476262Y0358378D01*
X0476262Y0361134D01*
X0476262Y0359500D02*
X0479018Y0359500D01*
X0479018Y0360622D02*
X0476262Y0360622D01*
X0476262Y0368039D02*
X0479018Y0368039D01*
X0479018Y0365283D01*
X0476262Y0365283D01*
X0476262Y0368039D01*
X0476262Y0366405D02*
X0479018Y0366405D01*
X0479018Y0367527D02*
X0476262Y0367527D01*
X0484136Y0368039D02*
X0486892Y0368039D01*
X0486892Y0365283D01*
X0484136Y0365283D01*
X0484136Y0368039D01*
X0484136Y0366405D02*
X0486892Y0366405D01*
X0486892Y0367527D02*
X0484136Y0367527D01*
X0484136Y0361134D02*
X0486892Y0361134D01*
X0486892Y0358378D01*
X0484136Y0358378D01*
X0484136Y0361134D01*
X0484136Y0359500D02*
X0486892Y0359500D01*
X0486892Y0360622D02*
X0484136Y0360622D01*
X0492010Y0361134D02*
X0494766Y0361134D01*
X0494766Y0358378D01*
X0492010Y0358378D01*
X0492010Y0361134D01*
X0492010Y0359500D02*
X0494766Y0359500D01*
X0494766Y0360622D02*
X0492010Y0360622D01*
X0492010Y0368039D02*
X0494766Y0368039D01*
X0494766Y0365283D01*
X0492010Y0365283D01*
X0492010Y0368039D01*
X0492010Y0366405D02*
X0494766Y0366405D01*
X0494766Y0367527D02*
X0492010Y0367527D01*
X0314285Y0368039D02*
X0311529Y0368039D01*
X0314285Y0368039D02*
X0314285Y0365283D01*
X0311529Y0365283D01*
X0311529Y0368039D01*
X0311529Y0366405D02*
X0314285Y0366405D01*
X0314285Y0367527D02*
X0311529Y0367527D01*
X0306411Y0368039D02*
X0303655Y0368039D01*
X0306411Y0368039D02*
X0306411Y0365283D01*
X0303655Y0365283D01*
X0303655Y0368039D01*
X0303655Y0366405D02*
X0306411Y0366405D01*
X0306411Y0367527D02*
X0303655Y0367527D01*
X0298537Y0368039D02*
X0295781Y0368039D01*
X0298537Y0368039D02*
X0298537Y0365283D01*
X0295781Y0365283D01*
X0295781Y0368039D01*
X0295781Y0366405D02*
X0298537Y0366405D01*
X0298537Y0367527D02*
X0295781Y0367527D01*
X0290663Y0368039D02*
X0287907Y0368039D01*
X0290663Y0368039D02*
X0290663Y0365283D01*
X0287907Y0365283D01*
X0287907Y0368039D01*
X0287907Y0366405D02*
X0290663Y0366405D01*
X0290663Y0367527D02*
X0287907Y0367527D01*
X0287907Y0361134D02*
X0290663Y0361134D01*
X0290663Y0358378D01*
X0287907Y0358378D01*
X0287907Y0361134D01*
X0287907Y0359500D02*
X0290663Y0359500D01*
X0290663Y0360622D02*
X0287907Y0360622D01*
X0295781Y0361134D02*
X0298537Y0361134D01*
X0298537Y0358378D01*
X0295781Y0358378D01*
X0295781Y0361134D01*
X0295781Y0359500D02*
X0298537Y0359500D01*
X0298537Y0360622D02*
X0295781Y0360622D01*
X0303655Y0361134D02*
X0306411Y0361134D01*
X0306411Y0358378D01*
X0303655Y0358378D01*
X0303655Y0361134D01*
X0303655Y0359500D02*
X0306411Y0359500D01*
X0306411Y0360622D02*
X0303655Y0360622D01*
X0311529Y0361134D02*
X0314285Y0361134D01*
X0314285Y0358378D01*
X0311529Y0358378D01*
X0311529Y0361134D01*
X0311529Y0359500D02*
X0314285Y0359500D01*
X0314285Y0360622D02*
X0311529Y0360622D01*
X0133805Y0361134D02*
X0131049Y0361134D01*
X0133805Y0361134D02*
X0133805Y0358378D01*
X0131049Y0358378D01*
X0131049Y0361134D01*
X0131049Y0359500D02*
X0133805Y0359500D01*
X0133805Y0360622D02*
X0131049Y0360622D01*
X0131049Y0368039D02*
X0133805Y0368039D01*
X0133805Y0365283D01*
X0131049Y0365283D01*
X0131049Y0368039D01*
X0131049Y0366405D02*
X0133805Y0366405D01*
X0133805Y0367527D02*
X0131049Y0367527D01*
X0125931Y0368039D02*
X0123175Y0368039D01*
X0125931Y0368039D02*
X0125931Y0365283D01*
X0123175Y0365283D01*
X0123175Y0368039D01*
X0123175Y0366405D02*
X0125931Y0366405D01*
X0125931Y0367527D02*
X0123175Y0367527D01*
X0118057Y0368039D02*
X0115301Y0368039D01*
X0118057Y0368039D02*
X0118057Y0365283D01*
X0115301Y0365283D01*
X0115301Y0368039D01*
X0115301Y0366405D02*
X0118057Y0366405D01*
X0118057Y0367527D02*
X0115301Y0367527D01*
X0110183Y0368039D02*
X0107427Y0368039D01*
X0110183Y0368039D02*
X0110183Y0365283D01*
X0107427Y0365283D01*
X0107427Y0368039D01*
X0107427Y0366405D02*
X0110183Y0366405D01*
X0110183Y0367527D02*
X0107427Y0367527D01*
X0107427Y0361134D02*
X0110183Y0361134D01*
X0110183Y0358378D01*
X0107427Y0358378D01*
X0107427Y0361134D01*
X0107427Y0359500D02*
X0110183Y0359500D01*
X0110183Y0360622D02*
X0107427Y0360622D01*
X0115301Y0361134D02*
X0118057Y0361134D01*
X0118057Y0358378D01*
X0115301Y0358378D01*
X0115301Y0361134D01*
X0115301Y0359500D02*
X0118057Y0359500D01*
X0118057Y0360622D02*
X0115301Y0360622D01*
X0123175Y0361134D02*
X0125931Y0361134D01*
X0125931Y0358378D01*
X0123175Y0358378D01*
X0123175Y0361134D01*
X0123175Y0359500D02*
X0125931Y0359500D01*
X0125931Y0360622D02*
X0123175Y0360622D01*
X0123175Y0208559D02*
X0125931Y0208559D01*
X0125931Y0205803D01*
X0123175Y0205803D01*
X0123175Y0208559D01*
X0123175Y0206925D02*
X0125931Y0206925D01*
X0125931Y0208047D02*
X0123175Y0208047D01*
X0118057Y0208559D02*
X0115301Y0208559D01*
X0118057Y0208559D02*
X0118057Y0205803D01*
X0115301Y0205803D01*
X0115301Y0208559D01*
X0115301Y0206925D02*
X0118057Y0206925D01*
X0118057Y0208047D02*
X0115301Y0208047D01*
X0110183Y0208559D02*
X0107427Y0208559D01*
X0110183Y0208559D02*
X0110183Y0205803D01*
X0107427Y0205803D01*
X0107427Y0208559D01*
X0107427Y0206925D02*
X0110183Y0206925D01*
X0110183Y0208047D02*
X0107427Y0208047D01*
X0107427Y0201654D02*
X0110183Y0201654D01*
X0110183Y0198898D01*
X0107427Y0198898D01*
X0107427Y0201654D01*
X0107427Y0200020D02*
X0110183Y0200020D01*
X0110183Y0201142D02*
X0107427Y0201142D01*
X0115301Y0201654D02*
X0118057Y0201654D01*
X0118057Y0198898D01*
X0115301Y0198898D01*
X0115301Y0201654D01*
X0115301Y0200020D02*
X0118057Y0200020D01*
X0118057Y0201142D02*
X0115301Y0201142D01*
X0123175Y0201654D02*
X0125931Y0201654D01*
X0125931Y0198898D01*
X0123175Y0198898D01*
X0123175Y0201654D01*
X0123175Y0200020D02*
X0125931Y0200020D01*
X0125931Y0201142D02*
X0123175Y0201142D01*
X0131049Y0201654D02*
X0133805Y0201654D01*
X0133805Y0198898D01*
X0131049Y0198898D01*
X0131049Y0201654D01*
X0131049Y0200020D02*
X0133805Y0200020D01*
X0133805Y0201142D02*
X0131049Y0201142D01*
X0131049Y0208559D02*
X0133805Y0208559D01*
X0133805Y0205803D01*
X0131049Y0205803D01*
X0131049Y0208559D01*
X0131049Y0206925D02*
X0133805Y0206925D01*
X0133805Y0208047D02*
X0131049Y0208047D01*
X0287907Y0208559D02*
X0290663Y0208559D01*
X0290663Y0205803D01*
X0287907Y0205803D01*
X0287907Y0208559D01*
X0287907Y0206925D02*
X0290663Y0206925D01*
X0290663Y0208047D02*
X0287907Y0208047D01*
X0295781Y0208559D02*
X0298537Y0208559D01*
X0298537Y0205803D01*
X0295781Y0205803D01*
X0295781Y0208559D01*
X0295781Y0206925D02*
X0298537Y0206925D01*
X0298537Y0208047D02*
X0295781Y0208047D01*
X0295781Y0201654D02*
X0298537Y0201654D01*
X0298537Y0198898D01*
X0295781Y0198898D01*
X0295781Y0201654D01*
X0295781Y0200020D02*
X0298537Y0200020D01*
X0298537Y0201142D02*
X0295781Y0201142D01*
X0290663Y0201654D02*
X0287907Y0201654D01*
X0290663Y0201654D02*
X0290663Y0198898D01*
X0287907Y0198898D01*
X0287907Y0201654D01*
X0287907Y0200020D02*
X0290663Y0200020D01*
X0290663Y0201142D02*
X0287907Y0201142D01*
X0303655Y0201654D02*
X0306411Y0201654D01*
X0306411Y0198898D01*
X0303655Y0198898D01*
X0303655Y0201654D01*
X0303655Y0200020D02*
X0306411Y0200020D01*
X0306411Y0201142D02*
X0303655Y0201142D01*
X0303655Y0208559D02*
X0306411Y0208559D01*
X0306411Y0205803D01*
X0303655Y0205803D01*
X0303655Y0208559D01*
X0303655Y0206925D02*
X0306411Y0206925D01*
X0306411Y0208047D02*
X0303655Y0208047D01*
X0311529Y0208559D02*
X0314285Y0208559D01*
X0314285Y0205803D01*
X0311529Y0205803D01*
X0311529Y0208559D01*
X0311529Y0206925D02*
X0314285Y0206925D01*
X0314285Y0208047D02*
X0311529Y0208047D01*
X0311529Y0201654D02*
X0314285Y0201654D01*
X0314285Y0198898D01*
X0311529Y0198898D01*
X0311529Y0201654D01*
X0311529Y0200020D02*
X0314285Y0200020D01*
X0314285Y0201142D02*
X0311529Y0201142D01*
X0468388Y0201654D02*
X0471144Y0201654D01*
X0471144Y0198898D01*
X0468388Y0198898D01*
X0468388Y0201654D01*
X0468388Y0200020D02*
X0471144Y0200020D01*
X0471144Y0201142D02*
X0468388Y0201142D01*
X0468388Y0208559D02*
X0471144Y0208559D01*
X0471144Y0205803D01*
X0468388Y0205803D01*
X0468388Y0208559D01*
X0468388Y0206925D02*
X0471144Y0206925D01*
X0471144Y0208047D02*
X0468388Y0208047D01*
X0476262Y0208559D02*
X0479018Y0208559D01*
X0479018Y0205803D01*
X0476262Y0205803D01*
X0476262Y0208559D01*
X0476262Y0206925D02*
X0479018Y0206925D01*
X0479018Y0208047D02*
X0476262Y0208047D01*
X0476262Y0201654D02*
X0479018Y0201654D01*
X0479018Y0198898D01*
X0476262Y0198898D01*
X0476262Y0201654D01*
X0476262Y0200020D02*
X0479018Y0200020D01*
X0479018Y0201142D02*
X0476262Y0201142D01*
X0484136Y0201654D02*
X0486892Y0201654D01*
X0486892Y0198898D01*
X0484136Y0198898D01*
X0484136Y0201654D01*
X0484136Y0200020D02*
X0486892Y0200020D01*
X0486892Y0201142D02*
X0484136Y0201142D01*
X0484136Y0208559D02*
X0486892Y0208559D01*
X0486892Y0205803D01*
X0484136Y0205803D01*
X0484136Y0208559D01*
X0484136Y0206925D02*
X0486892Y0206925D01*
X0486892Y0208047D02*
X0484136Y0208047D01*
X0492010Y0208559D02*
X0494766Y0208559D01*
X0494766Y0205803D01*
X0492010Y0205803D01*
X0492010Y0208559D01*
X0492010Y0206925D02*
X0494766Y0206925D01*
X0494766Y0208047D02*
X0492010Y0208047D01*
X0492010Y0201654D02*
X0494766Y0201654D01*
X0494766Y0198898D01*
X0492010Y0198898D01*
X0492010Y0201654D01*
X0492010Y0200020D02*
X0494766Y0200020D01*
X0494766Y0201142D02*
X0492010Y0201142D01*
X0492010Y0049079D02*
X0494766Y0049079D01*
X0494766Y0046323D01*
X0492010Y0046323D01*
X0492010Y0049079D01*
X0492010Y0047445D02*
X0494766Y0047445D01*
X0494766Y0048567D02*
X0492010Y0048567D01*
X0486892Y0049079D02*
X0484136Y0049079D01*
X0486892Y0049079D02*
X0486892Y0046323D01*
X0484136Y0046323D01*
X0484136Y0049079D01*
X0484136Y0047445D02*
X0486892Y0047445D01*
X0486892Y0048567D02*
X0484136Y0048567D01*
X0479018Y0049079D02*
X0476262Y0049079D01*
X0479018Y0049079D02*
X0479018Y0046323D01*
X0476262Y0046323D01*
X0476262Y0049079D01*
X0476262Y0047445D02*
X0479018Y0047445D01*
X0479018Y0048567D02*
X0476262Y0048567D01*
X0471144Y0049079D02*
X0468388Y0049079D01*
X0471144Y0049079D02*
X0471144Y0046323D01*
X0468388Y0046323D01*
X0468388Y0049079D01*
X0468388Y0047445D02*
X0471144Y0047445D01*
X0471144Y0048567D02*
X0468388Y0048567D01*
X0468388Y0042173D02*
X0471144Y0042173D01*
X0471144Y0039417D01*
X0468388Y0039417D01*
X0468388Y0042173D01*
X0468388Y0040539D02*
X0471144Y0040539D01*
X0471144Y0041661D02*
X0468388Y0041661D01*
X0476262Y0042173D02*
X0479018Y0042173D01*
X0479018Y0039417D01*
X0476262Y0039417D01*
X0476262Y0042173D01*
X0476262Y0040539D02*
X0479018Y0040539D01*
X0479018Y0041661D02*
X0476262Y0041661D01*
X0484136Y0042173D02*
X0486892Y0042173D01*
X0486892Y0039417D01*
X0484136Y0039417D01*
X0484136Y0042173D01*
X0484136Y0040539D02*
X0486892Y0040539D01*
X0486892Y0041661D02*
X0484136Y0041661D01*
X0492010Y0042173D02*
X0494766Y0042173D01*
X0494766Y0039417D01*
X0492010Y0039417D01*
X0492010Y0042173D01*
X0492010Y0040539D02*
X0494766Y0040539D01*
X0494766Y0041661D02*
X0492010Y0041661D01*
X0314285Y0042173D02*
X0311529Y0042173D01*
X0314285Y0042173D02*
X0314285Y0039417D01*
X0311529Y0039417D01*
X0311529Y0042173D01*
X0311529Y0040539D02*
X0314285Y0040539D01*
X0314285Y0041661D02*
X0311529Y0041661D01*
X0311529Y0049079D02*
X0314285Y0049079D01*
X0314285Y0046323D01*
X0311529Y0046323D01*
X0311529Y0049079D01*
X0311529Y0047445D02*
X0314285Y0047445D01*
X0314285Y0048567D02*
X0311529Y0048567D01*
X0306411Y0049079D02*
X0303655Y0049079D01*
X0306411Y0049079D02*
X0306411Y0046323D01*
X0303655Y0046323D01*
X0303655Y0049079D01*
X0303655Y0047445D02*
X0306411Y0047445D01*
X0306411Y0048567D02*
X0303655Y0048567D01*
X0298537Y0049079D02*
X0295781Y0049079D01*
X0298537Y0049079D02*
X0298537Y0046323D01*
X0295781Y0046323D01*
X0295781Y0049079D01*
X0295781Y0047445D02*
X0298537Y0047445D01*
X0298537Y0048567D02*
X0295781Y0048567D01*
X0290663Y0049079D02*
X0287907Y0049079D01*
X0290663Y0049079D02*
X0290663Y0046323D01*
X0287907Y0046323D01*
X0287907Y0049079D01*
X0287907Y0047445D02*
X0290663Y0047445D01*
X0290663Y0048567D02*
X0287907Y0048567D01*
X0287907Y0042173D02*
X0290663Y0042173D01*
X0290663Y0039417D01*
X0287907Y0039417D01*
X0287907Y0042173D01*
X0287907Y0040539D02*
X0290663Y0040539D01*
X0290663Y0041661D02*
X0287907Y0041661D01*
X0295781Y0042173D02*
X0298537Y0042173D01*
X0298537Y0039417D01*
X0295781Y0039417D01*
X0295781Y0042173D01*
X0295781Y0040539D02*
X0298537Y0040539D01*
X0298537Y0041661D02*
X0295781Y0041661D01*
X0303655Y0042173D02*
X0306411Y0042173D01*
X0306411Y0039417D01*
X0303655Y0039417D01*
X0303655Y0042173D01*
X0303655Y0040539D02*
X0306411Y0040539D01*
X0306411Y0041661D02*
X0303655Y0041661D01*
X0133805Y0042173D02*
X0131049Y0042173D01*
X0133805Y0042173D02*
X0133805Y0039417D01*
X0131049Y0039417D01*
X0131049Y0042173D01*
X0131049Y0040539D02*
X0133805Y0040539D01*
X0133805Y0041661D02*
X0131049Y0041661D01*
X0131049Y0049079D02*
X0133805Y0049079D01*
X0133805Y0046323D01*
X0131049Y0046323D01*
X0131049Y0049079D01*
X0131049Y0047445D02*
X0133805Y0047445D01*
X0133805Y0048567D02*
X0131049Y0048567D01*
X0125931Y0049079D02*
X0123175Y0049079D01*
X0125931Y0049079D02*
X0125931Y0046323D01*
X0123175Y0046323D01*
X0123175Y0049079D01*
X0123175Y0047445D02*
X0125931Y0047445D01*
X0125931Y0048567D02*
X0123175Y0048567D01*
X0118057Y0049079D02*
X0115301Y0049079D01*
X0118057Y0049079D02*
X0118057Y0046323D01*
X0115301Y0046323D01*
X0115301Y0049079D01*
X0115301Y0047445D02*
X0118057Y0047445D01*
X0118057Y0048567D02*
X0115301Y0048567D01*
X0110183Y0049079D02*
X0107427Y0049079D01*
X0110183Y0049079D02*
X0110183Y0046323D01*
X0107427Y0046323D01*
X0107427Y0049079D01*
X0107427Y0047445D02*
X0110183Y0047445D01*
X0110183Y0048567D02*
X0107427Y0048567D01*
X0107427Y0042173D02*
X0110183Y0042173D01*
X0110183Y0039417D01*
X0107427Y0039417D01*
X0107427Y0042173D01*
X0107427Y0040539D02*
X0110183Y0040539D01*
X0110183Y0041661D02*
X0107427Y0041661D01*
X0115301Y0042173D02*
X0118057Y0042173D01*
X0118057Y0039417D01*
X0115301Y0039417D01*
X0115301Y0042173D01*
X0115301Y0040539D02*
X0118057Y0040539D01*
X0118057Y0041661D02*
X0115301Y0041661D01*
X0123175Y0042173D02*
X0125931Y0042173D01*
X0125931Y0039417D01*
X0123175Y0039417D01*
X0123175Y0042173D01*
X0123175Y0040539D02*
X0125931Y0040539D01*
X0125931Y0041661D02*
X0123175Y0041661D01*
D30*
X0115892Y0111551D03*
X0115892Y0116551D03*
X0115892Y0121551D03*
X0115892Y0126551D03*
X0093844Y0126551D03*
X0093844Y0121551D03*
X0093844Y0116551D03*
X0093844Y0111551D03*
X0274325Y0111551D03*
X0274325Y0116551D03*
X0274325Y0121551D03*
X0274325Y0126551D03*
X0296372Y0126551D03*
X0296372Y0121551D03*
X0296372Y0116551D03*
X0296372Y0111551D03*
X0454805Y0111551D03*
X0454805Y0116551D03*
X0454805Y0121551D03*
X0454805Y0126551D03*
X0476852Y0126551D03*
X0476852Y0121551D03*
X0476852Y0116551D03*
X0476852Y0111551D03*
X0476852Y0271031D03*
X0476852Y0276031D03*
X0476852Y0281031D03*
X0476852Y0286031D03*
X0454805Y0286031D03*
X0454805Y0281031D03*
X0454805Y0276031D03*
X0454805Y0271031D03*
X0296372Y0271031D03*
X0296372Y0276031D03*
X0296372Y0281031D03*
X0296372Y0286031D03*
X0274325Y0286031D03*
X0274325Y0281031D03*
X0274325Y0276031D03*
X0274325Y0271031D03*
X0115892Y0271031D03*
X0115892Y0276031D03*
X0115892Y0281031D03*
X0115892Y0286031D03*
X0093844Y0286031D03*
X0093844Y0281031D03*
X0093844Y0276031D03*
X0093844Y0271031D03*
X0093844Y0430512D03*
X0093844Y0435512D03*
X0093844Y0440512D03*
X0093844Y0445512D03*
X0115892Y0445512D03*
X0115892Y0440512D03*
X0115892Y0435512D03*
X0115892Y0430512D03*
X0274325Y0430512D03*
X0274325Y0435512D03*
X0274325Y0440512D03*
X0274325Y0445512D03*
X0296372Y0445512D03*
X0296372Y0440512D03*
X0296372Y0435512D03*
X0296372Y0430512D03*
X0454805Y0430512D03*
X0454805Y0435512D03*
X0454805Y0440512D03*
X0454805Y0445512D03*
X0476852Y0445512D03*
X0476852Y0440512D03*
X0476852Y0435512D03*
X0476852Y0430512D03*
D31*
X0562974Y0450610D03*
X0562974Y0472657D03*
X0382494Y0472657D03*
X0382494Y0450610D03*
X0382494Y0313177D03*
X0382494Y0291130D03*
X0382494Y0153697D03*
X0382494Y0131650D03*
X0202014Y0131650D03*
X0202014Y0153697D03*
X0202014Y0291130D03*
X0202014Y0313177D03*
X0202014Y0450610D03*
X0202014Y0472657D03*
X0562974Y0313177D03*
X0562974Y0291130D03*
X0562974Y0153697D03*
X0562974Y0131650D03*
D32*
X0548506Y0136768D03*
X0548506Y0140705D03*
X0548506Y0144642D03*
X0548506Y0148579D03*
X0368026Y0148579D03*
X0368026Y0144642D03*
X0368026Y0140705D03*
X0368026Y0136768D03*
X0187545Y0136768D03*
X0187545Y0140705D03*
X0187545Y0144642D03*
X0187545Y0148579D03*
X0187545Y0296248D03*
X0187545Y0300185D03*
X0187545Y0304122D03*
X0187545Y0308059D03*
X0368026Y0308059D03*
X0368026Y0304122D03*
X0368026Y0300185D03*
X0368026Y0296248D03*
X0548506Y0296248D03*
X0548506Y0300185D03*
X0548506Y0304122D03*
X0548506Y0308059D03*
X0548506Y0455728D03*
X0548506Y0459665D03*
X0548506Y0463602D03*
X0548506Y0467539D03*
X0368026Y0467539D03*
X0368026Y0463602D03*
X0368026Y0459665D03*
X0368026Y0455728D03*
X0187545Y0455728D03*
X0187545Y0459665D03*
X0187545Y0463602D03*
X0187545Y0467539D03*
M02*
