G75*
%MOIN*%
%OFA0B0*%
%FSLAX25Y25*%
%IPPOS*%
%LPD*%
%AMOC8*
5,1,8,0,0,1.08239X$1,22.5*
%
%ADD10C,0.06312*%
%ADD11R,0.03162X0.03162*%
%ADD12C,0.04737*%
%ADD13R,0.10800X0.07800*%
%ADD14C,0.32296*%
%ADD15C,0.13800*%
%ADD16C,0.08200*%
%ADD17C,0.05800*%
%ADD18C,0.05000*%
%ADD19C,0.06706*%
D10*
X0055656Y0087240D03*
X0055656Y0127240D03*
X0055656Y0246720D03*
X0055656Y0286720D03*
X0055656Y0406201D03*
X0055656Y0446201D03*
X0236136Y0446201D03*
X0236136Y0406201D03*
X0236136Y0286720D03*
X0236136Y0246720D03*
X0236136Y0127240D03*
X0236136Y0087240D03*
X0416616Y0087240D03*
X0416616Y0127240D03*
X0416616Y0246720D03*
X0416616Y0286720D03*
X0416616Y0406201D03*
X0416616Y0446201D03*
D11*
X0345978Y0420689D03*
X0342041Y0420689D03*
X0341787Y0424626D03*
X0341787Y0428563D03*
X0334067Y0426601D03*
X0334067Y0422664D03*
X0333774Y0418327D03*
X0333774Y0414390D03*
X0329640Y0415471D03*
X0329640Y0419408D03*
X0325506Y0419311D03*
X0321569Y0419311D03*
X0321569Y0415177D03*
X0325506Y0415177D03*
X0338104Y0414390D03*
X0338104Y0418327D03*
X0328193Y0423732D03*
X0328193Y0427669D03*
X0323831Y0428169D03*
X0319894Y0428169D03*
X0319888Y0423642D03*
X0323825Y0423642D03*
X0165498Y0420689D03*
X0161561Y0420689D03*
X0161307Y0424626D03*
X0161307Y0428563D03*
X0153587Y0426601D03*
X0153587Y0422664D03*
X0153293Y0418327D03*
X0153293Y0414390D03*
X0149159Y0415471D03*
X0149159Y0419408D03*
X0145026Y0419311D03*
X0141089Y0419311D03*
X0141089Y0415177D03*
X0145026Y0415177D03*
X0143344Y0423642D03*
X0139407Y0423642D03*
X0139414Y0428169D03*
X0143351Y0428169D03*
X0147712Y0427669D03*
X0147712Y0423732D03*
X0157624Y0418327D03*
X0157624Y0414390D03*
X0161307Y0269083D03*
X0161307Y0265146D03*
X0161561Y0261209D03*
X0165498Y0261209D03*
X0157624Y0258846D03*
X0157624Y0254909D03*
X0153293Y0254909D03*
X0153293Y0258846D03*
X0149159Y0259928D03*
X0149159Y0255991D03*
X0145026Y0255697D03*
X0141089Y0255697D03*
X0141089Y0259831D03*
X0145026Y0259831D03*
X0143344Y0264161D03*
X0139407Y0264161D03*
X0139414Y0268689D03*
X0143351Y0268689D03*
X0147712Y0268189D03*
X0147712Y0264252D03*
X0153587Y0263183D03*
X0153587Y0267120D03*
X0319894Y0268689D03*
X0323831Y0268689D03*
X0328193Y0268189D03*
X0328193Y0264252D03*
X0323825Y0264161D03*
X0319888Y0264161D03*
X0321569Y0259831D03*
X0325506Y0259831D03*
X0325506Y0255697D03*
X0321569Y0255697D03*
X0329640Y0255991D03*
X0329640Y0259928D03*
X0333774Y0258846D03*
X0333774Y0254909D03*
X0338104Y0254909D03*
X0338104Y0258846D03*
X0342041Y0261209D03*
X0345978Y0261209D03*
X0341787Y0265146D03*
X0341787Y0269083D03*
X0334067Y0267120D03*
X0334067Y0263183D03*
X0500368Y0264161D03*
X0504305Y0264161D03*
X0508673Y0264252D03*
X0508673Y0268189D03*
X0504311Y0268689D03*
X0500374Y0268689D03*
X0502049Y0259831D03*
X0505986Y0259831D03*
X0505986Y0255697D03*
X0502049Y0255697D03*
X0510120Y0255991D03*
X0510120Y0259928D03*
X0514254Y0258846D03*
X0514254Y0254909D03*
X0518585Y0254909D03*
X0518585Y0258846D03*
X0522522Y0261209D03*
X0526459Y0261209D03*
X0522267Y0265146D03*
X0522267Y0269083D03*
X0514548Y0267120D03*
X0514548Y0263183D03*
X0514254Y0414390D03*
X0514254Y0418327D03*
X0510120Y0419408D03*
X0510120Y0415471D03*
X0505986Y0415177D03*
X0502049Y0415177D03*
X0502049Y0419311D03*
X0505986Y0419311D03*
X0504305Y0423642D03*
X0500368Y0423642D03*
X0500374Y0428169D03*
X0504311Y0428169D03*
X0508673Y0427669D03*
X0508673Y0423732D03*
X0514548Y0422664D03*
X0514548Y0426601D03*
X0522267Y0428563D03*
X0522267Y0424626D03*
X0522522Y0420689D03*
X0526459Y0420689D03*
X0518585Y0418327D03*
X0518585Y0414390D03*
X0522267Y0109602D03*
X0522267Y0105665D03*
X0522522Y0101728D03*
X0526459Y0101728D03*
X0518585Y0099366D03*
X0518585Y0095429D03*
X0514254Y0095429D03*
X0514254Y0099366D03*
X0510120Y0100447D03*
X0510120Y0096510D03*
X0505986Y0096217D03*
X0502049Y0096217D03*
X0502049Y0100350D03*
X0505986Y0100350D03*
X0504305Y0104681D03*
X0500368Y0104681D03*
X0500374Y0109209D03*
X0504311Y0109209D03*
X0508673Y0108709D03*
X0508673Y0104772D03*
X0514548Y0103703D03*
X0514548Y0107640D03*
X0345978Y0101728D03*
X0342041Y0101728D03*
X0341787Y0105665D03*
X0341787Y0109602D03*
X0334067Y0107640D03*
X0334067Y0103703D03*
X0333774Y0099366D03*
X0333774Y0095429D03*
X0329640Y0096510D03*
X0329640Y0100447D03*
X0325506Y0100350D03*
X0321569Y0100350D03*
X0321569Y0096217D03*
X0325506Y0096217D03*
X0323825Y0104681D03*
X0319888Y0104681D03*
X0319894Y0109209D03*
X0323831Y0109209D03*
X0328193Y0108709D03*
X0328193Y0104772D03*
X0338104Y0099366D03*
X0338104Y0095429D03*
X0165498Y0101728D03*
X0161561Y0101728D03*
X0161307Y0105665D03*
X0161307Y0109602D03*
X0153587Y0107640D03*
X0153587Y0103703D03*
X0153293Y0099366D03*
X0153293Y0095429D03*
X0149159Y0096510D03*
X0149159Y0100447D03*
X0145026Y0100350D03*
X0141089Y0100350D03*
X0141089Y0096217D03*
X0145026Y0096217D03*
X0143344Y0104681D03*
X0139407Y0104681D03*
X0139414Y0109209D03*
X0143351Y0109209D03*
X0147712Y0108709D03*
X0147712Y0104772D03*
X0157624Y0099366D03*
X0157624Y0095429D03*
D12*
X0173234Y0132673D03*
X0173234Y0137673D03*
X0173234Y0142673D03*
X0173234Y0147673D03*
X0173234Y0152673D03*
X0178234Y0152673D03*
X0178234Y0147673D03*
X0178234Y0142673D03*
X0178234Y0137673D03*
X0178234Y0132673D03*
X0249915Y0182043D03*
X0203293Y0207665D03*
X0178234Y0292154D03*
X0178234Y0297154D03*
X0178234Y0302154D03*
X0178234Y0307154D03*
X0178234Y0312154D03*
X0173234Y0312154D03*
X0173234Y0307154D03*
X0173234Y0302154D03*
X0173234Y0297154D03*
X0173234Y0292154D03*
X0249915Y0341524D03*
X0203293Y0367146D03*
X0178234Y0451634D03*
X0173234Y0451634D03*
X0173234Y0456634D03*
X0173234Y0461634D03*
X0173234Y0466634D03*
X0173234Y0471634D03*
X0178234Y0471634D03*
X0178234Y0466634D03*
X0178234Y0461634D03*
X0178234Y0456634D03*
X0249915Y0501004D03*
X0353715Y0471634D03*
X0358715Y0471634D03*
X0358715Y0466634D03*
X0358715Y0461634D03*
X0358715Y0456634D03*
X0358715Y0451634D03*
X0353715Y0451634D03*
X0353715Y0456634D03*
X0353715Y0461634D03*
X0353715Y0466634D03*
X0430396Y0501004D03*
X0520191Y0513191D03*
X0534195Y0471634D03*
X0539195Y0471634D03*
X0539195Y0466634D03*
X0534195Y0466634D03*
X0534195Y0461634D03*
X0539195Y0461634D03*
X0539195Y0456634D03*
X0534195Y0456634D03*
X0534195Y0451634D03*
X0539195Y0451634D03*
X0564254Y0367146D03*
X0539195Y0312154D03*
X0534195Y0312154D03*
X0534195Y0307154D03*
X0539195Y0307154D03*
X0539195Y0302154D03*
X0534195Y0302154D03*
X0534195Y0297154D03*
X0539195Y0297154D03*
X0539195Y0292154D03*
X0534195Y0292154D03*
X0430396Y0341524D03*
X0383774Y0367146D03*
X0358715Y0312154D03*
X0353715Y0312154D03*
X0353715Y0307154D03*
X0358715Y0307154D03*
X0358715Y0302154D03*
X0353715Y0302154D03*
X0353715Y0297154D03*
X0358715Y0297154D03*
X0358715Y0292154D03*
X0353715Y0292154D03*
X0383774Y0207665D03*
X0430396Y0182043D03*
X0358715Y0152673D03*
X0358715Y0147673D03*
X0358715Y0142673D03*
X0358715Y0137673D03*
X0358715Y0132673D03*
X0353715Y0132673D03*
X0353715Y0137673D03*
X0353715Y0142673D03*
X0353715Y0147673D03*
X0353715Y0152673D03*
X0383774Y0048185D03*
X0534195Y0132673D03*
X0539195Y0132673D03*
X0539195Y0137673D03*
X0534195Y0137673D03*
X0534195Y0142673D03*
X0539195Y0142673D03*
X0539195Y0147673D03*
X0534195Y0147673D03*
X0534195Y0152673D03*
X0539195Y0152673D03*
X0564254Y0207665D03*
X0564254Y0048185D03*
X0203293Y0048185D03*
X0069435Y0182043D03*
X0069435Y0341524D03*
X0069435Y0501004D03*
X0097750Y0513191D03*
D13*
X0097191Y0469508D03*
X0084986Y0469508D03*
X0084986Y0382894D03*
X0097191Y0382894D03*
X0097191Y0310028D03*
X0084986Y0310028D03*
X0084986Y0223413D03*
X0097191Y0223413D03*
X0097191Y0150547D03*
X0084986Y0150547D03*
X0084986Y0063933D03*
X0097191Y0063933D03*
X0265467Y0063933D03*
X0277671Y0063933D03*
X0277671Y0150547D03*
X0265467Y0150547D03*
X0265467Y0223413D03*
X0277671Y0223413D03*
X0277671Y0310028D03*
X0265467Y0310028D03*
X0265467Y0382894D03*
X0277671Y0382894D03*
X0277671Y0469508D03*
X0265467Y0469508D03*
X0445947Y0469508D03*
X0458152Y0469508D03*
X0458152Y0382894D03*
X0445947Y0382894D03*
X0445947Y0310028D03*
X0458152Y0310028D03*
X0458152Y0223413D03*
X0445947Y0223413D03*
X0445947Y0150547D03*
X0458152Y0150547D03*
X0458152Y0063933D03*
X0445947Y0063933D03*
D14*
X0452049Y0097398D02*
X0452049Y0117082D01*
X0271569Y0117082D02*
X0271569Y0097398D01*
X0091089Y0097398D02*
X0091089Y0117082D01*
X0091089Y0256878D02*
X0091089Y0276562D01*
X0271569Y0276562D02*
X0271569Y0256878D01*
X0452049Y0256878D02*
X0452049Y0276562D01*
X0452049Y0416359D02*
X0452049Y0436043D01*
X0271569Y0436043D02*
X0271569Y0416359D01*
X0091089Y0416359D02*
X0091089Y0436043D01*
D15*
X0060886Y0039636D03*
X0196095Y0039636D03*
X0241366Y0039636D03*
X0376575Y0039636D03*
X0421846Y0039636D03*
X0557055Y0039636D03*
X0557055Y0174845D03*
X0557055Y0199116D03*
X0421846Y0199116D03*
X0421846Y0174845D03*
X0376575Y0174845D03*
X0376575Y0199116D03*
X0241366Y0199116D03*
X0241366Y0174845D03*
X0196095Y0174845D03*
X0196095Y0199116D03*
X0060886Y0199116D03*
X0060886Y0174845D03*
X0060886Y0334325D03*
X0060886Y0358596D03*
X0196095Y0358596D03*
X0196095Y0334325D03*
X0241366Y0334325D03*
X0241366Y0358596D03*
X0376575Y0358596D03*
X0376575Y0334325D03*
X0421846Y0334325D03*
X0421846Y0358596D03*
X0557055Y0358596D03*
X0557055Y0334325D03*
X0557055Y0493805D03*
X0421846Y0493805D03*
X0376575Y0493805D03*
X0241366Y0493805D03*
X0196095Y0493805D03*
X0060886Y0493805D03*
D16*
X0139750Y0362461D03*
X0149750Y0362461D03*
X0149750Y0352461D03*
X0139750Y0352461D03*
X0159750Y0352461D03*
X0159750Y0362461D03*
X0169750Y0362461D03*
X0179750Y0362461D03*
X0179750Y0352461D03*
X0169750Y0352461D03*
X0320230Y0352461D03*
X0320230Y0362461D03*
X0330230Y0362461D03*
X0330230Y0352461D03*
X0340230Y0352461D03*
X0340230Y0362461D03*
X0350230Y0362461D03*
X0350230Y0352461D03*
X0360230Y0352461D03*
X0360230Y0362461D03*
X0500711Y0362461D03*
X0510711Y0362461D03*
X0510711Y0352461D03*
X0500711Y0352461D03*
X0520711Y0352461D03*
X0520711Y0362461D03*
X0530711Y0362461D03*
X0530711Y0352461D03*
X0540711Y0352461D03*
X0540711Y0362461D03*
X0540711Y0202980D03*
X0540711Y0192980D03*
X0530711Y0192980D03*
X0520711Y0192980D03*
X0520711Y0202980D03*
X0530711Y0202980D03*
X0510711Y0202980D03*
X0500711Y0202980D03*
X0500711Y0192980D03*
X0510711Y0192980D03*
X0360230Y0192980D03*
X0350230Y0192980D03*
X0340230Y0192980D03*
X0330230Y0192980D03*
X0320230Y0192980D03*
X0320230Y0202980D03*
X0330230Y0202980D03*
X0340230Y0202980D03*
X0350230Y0202980D03*
X0360230Y0202980D03*
X0179750Y0202980D03*
X0169750Y0202980D03*
X0159750Y0202980D03*
X0159750Y0192980D03*
X0169750Y0192980D03*
X0179750Y0192980D03*
X0149750Y0192980D03*
X0139750Y0192980D03*
X0139750Y0202980D03*
X0149750Y0202980D03*
X0149750Y0043500D03*
X0139750Y0043500D03*
X0139750Y0033500D03*
X0149750Y0033500D03*
X0159750Y0033500D03*
X0169750Y0033500D03*
X0179750Y0033500D03*
X0179750Y0043500D03*
X0169750Y0043500D03*
X0159750Y0043500D03*
X0320230Y0043500D03*
X0330230Y0043500D03*
X0330230Y0033500D03*
X0320230Y0033500D03*
X0340230Y0033500D03*
X0350230Y0033500D03*
X0350230Y0043500D03*
X0340230Y0043500D03*
X0360230Y0043500D03*
X0360230Y0033500D03*
X0500711Y0033500D03*
X0510711Y0033500D03*
X0520711Y0033500D03*
X0530711Y0033500D03*
X0540711Y0033500D03*
X0540711Y0043500D03*
X0530711Y0043500D03*
X0520711Y0043500D03*
X0510711Y0043500D03*
X0500711Y0043500D03*
D17*
X0560711Y0137500D03*
X0560711Y0147500D03*
X0545711Y0168500D03*
X0535711Y0168500D03*
X0485514Y0158821D03*
X0425711Y0158500D03*
X0425711Y0148500D03*
X0380230Y0147500D03*
X0380230Y0137500D03*
X0365230Y0168500D03*
X0355230Y0168500D03*
X0305033Y0158821D03*
X0245230Y0158500D03*
X0245230Y0148500D03*
X0199750Y0147500D03*
X0199750Y0137500D03*
X0184750Y0168500D03*
X0174750Y0168500D03*
X0124553Y0158821D03*
X0064750Y0158500D03*
X0064750Y0148500D03*
X0199750Y0296980D03*
X0199750Y0306980D03*
X0184750Y0327980D03*
X0174750Y0327980D03*
X0124553Y0318302D03*
X0064750Y0317980D03*
X0064750Y0307980D03*
X0245230Y0307980D03*
X0245230Y0317980D03*
X0305033Y0318302D03*
X0355230Y0327980D03*
X0365230Y0327980D03*
X0380230Y0306980D03*
X0380230Y0296980D03*
X0425711Y0307980D03*
X0425711Y0317980D03*
X0485514Y0318302D03*
X0535711Y0327980D03*
X0545711Y0327980D03*
X0560711Y0306980D03*
X0560711Y0296980D03*
X0560711Y0456461D03*
X0560711Y0466461D03*
X0545711Y0487461D03*
X0535711Y0487461D03*
X0485514Y0477782D03*
X0425711Y0477461D03*
X0425711Y0467461D03*
X0380230Y0466461D03*
X0380230Y0456461D03*
X0365230Y0487461D03*
X0355230Y0487461D03*
X0305033Y0477782D03*
X0245230Y0477461D03*
X0245230Y0467461D03*
X0199750Y0466461D03*
X0199750Y0456461D03*
X0184750Y0487461D03*
X0174750Y0487461D03*
X0124553Y0477782D03*
X0064750Y0477461D03*
X0064750Y0467461D03*
D18*
X0094185Y0020250D02*
X0094187Y0020369D01*
X0094193Y0020488D01*
X0094203Y0020607D01*
X0094217Y0020725D01*
X0094235Y0020843D01*
X0094256Y0020960D01*
X0094282Y0021076D01*
X0094312Y0021192D01*
X0094345Y0021306D01*
X0094382Y0021419D01*
X0094423Y0021531D01*
X0094468Y0021642D01*
X0094516Y0021751D01*
X0094568Y0021858D01*
X0094624Y0021963D01*
X0094683Y0022067D01*
X0094745Y0022168D01*
X0094811Y0022268D01*
X0094880Y0022365D01*
X0094952Y0022459D01*
X0095028Y0022552D01*
X0095106Y0022641D01*
X0095187Y0022728D01*
X0095272Y0022813D01*
X0095359Y0022894D01*
X0095448Y0022972D01*
X0095541Y0023048D01*
X0095635Y0023120D01*
X0095732Y0023189D01*
X0095832Y0023255D01*
X0095933Y0023317D01*
X0096037Y0023376D01*
X0096142Y0023432D01*
X0096249Y0023484D01*
X0096358Y0023532D01*
X0096469Y0023577D01*
X0096581Y0023618D01*
X0096694Y0023655D01*
X0096808Y0023688D01*
X0096924Y0023718D01*
X0097040Y0023744D01*
X0097157Y0023765D01*
X0097275Y0023783D01*
X0097393Y0023797D01*
X0097512Y0023807D01*
X0097631Y0023813D01*
X0097750Y0023815D01*
X0097869Y0023813D01*
X0097988Y0023807D01*
X0098107Y0023797D01*
X0098225Y0023783D01*
X0098343Y0023765D01*
X0098460Y0023744D01*
X0098576Y0023718D01*
X0098692Y0023688D01*
X0098806Y0023655D01*
X0098919Y0023618D01*
X0099031Y0023577D01*
X0099142Y0023532D01*
X0099251Y0023484D01*
X0099358Y0023432D01*
X0099463Y0023376D01*
X0099567Y0023317D01*
X0099668Y0023255D01*
X0099768Y0023189D01*
X0099865Y0023120D01*
X0099959Y0023048D01*
X0100052Y0022972D01*
X0100141Y0022894D01*
X0100228Y0022813D01*
X0100313Y0022728D01*
X0100394Y0022641D01*
X0100472Y0022552D01*
X0100548Y0022459D01*
X0100620Y0022365D01*
X0100689Y0022268D01*
X0100755Y0022168D01*
X0100817Y0022067D01*
X0100876Y0021963D01*
X0100932Y0021858D01*
X0100984Y0021751D01*
X0101032Y0021642D01*
X0101077Y0021531D01*
X0101118Y0021419D01*
X0101155Y0021306D01*
X0101188Y0021192D01*
X0101218Y0021076D01*
X0101244Y0020960D01*
X0101265Y0020843D01*
X0101283Y0020725D01*
X0101297Y0020607D01*
X0101307Y0020488D01*
X0101313Y0020369D01*
X0101315Y0020250D01*
X0101313Y0020131D01*
X0101307Y0020012D01*
X0101297Y0019893D01*
X0101283Y0019775D01*
X0101265Y0019657D01*
X0101244Y0019540D01*
X0101218Y0019424D01*
X0101188Y0019308D01*
X0101155Y0019194D01*
X0101118Y0019081D01*
X0101077Y0018969D01*
X0101032Y0018858D01*
X0100984Y0018749D01*
X0100932Y0018642D01*
X0100876Y0018537D01*
X0100817Y0018433D01*
X0100755Y0018332D01*
X0100689Y0018232D01*
X0100620Y0018135D01*
X0100548Y0018041D01*
X0100472Y0017948D01*
X0100394Y0017859D01*
X0100313Y0017772D01*
X0100228Y0017687D01*
X0100141Y0017606D01*
X0100052Y0017528D01*
X0099959Y0017452D01*
X0099865Y0017380D01*
X0099768Y0017311D01*
X0099668Y0017245D01*
X0099567Y0017183D01*
X0099463Y0017124D01*
X0099358Y0017068D01*
X0099251Y0017016D01*
X0099142Y0016968D01*
X0099031Y0016923D01*
X0098919Y0016882D01*
X0098806Y0016845D01*
X0098692Y0016812D01*
X0098576Y0016782D01*
X0098460Y0016756D01*
X0098343Y0016735D01*
X0098225Y0016717D01*
X0098107Y0016703D01*
X0097988Y0016693D01*
X0097869Y0016687D01*
X0097750Y0016685D01*
X0097631Y0016687D01*
X0097512Y0016693D01*
X0097393Y0016703D01*
X0097275Y0016717D01*
X0097157Y0016735D01*
X0097040Y0016756D01*
X0096924Y0016782D01*
X0096808Y0016812D01*
X0096694Y0016845D01*
X0096581Y0016882D01*
X0096469Y0016923D01*
X0096358Y0016968D01*
X0096249Y0017016D01*
X0096142Y0017068D01*
X0096037Y0017124D01*
X0095933Y0017183D01*
X0095832Y0017245D01*
X0095732Y0017311D01*
X0095635Y0017380D01*
X0095541Y0017452D01*
X0095448Y0017528D01*
X0095359Y0017606D01*
X0095272Y0017687D01*
X0095187Y0017772D01*
X0095106Y0017859D01*
X0095028Y0017948D01*
X0094952Y0018041D01*
X0094880Y0018135D01*
X0094811Y0018232D01*
X0094745Y0018332D01*
X0094683Y0018433D01*
X0094624Y0018537D01*
X0094568Y0018642D01*
X0094516Y0018749D01*
X0094468Y0018858D01*
X0094423Y0018969D01*
X0094382Y0019081D01*
X0094345Y0019194D01*
X0094312Y0019308D01*
X0094282Y0019424D01*
X0094256Y0019540D01*
X0094235Y0019657D01*
X0094217Y0019775D01*
X0094203Y0019893D01*
X0094193Y0020012D01*
X0094187Y0020131D01*
X0094185Y0020250D01*
D19*
X0097750Y0020250D03*
M02*
