G04 EAGLE Gerber RS-274X export*
G75*
%MOMM*%
%FSLAX34Y34*%
%LPD*%
%INSoldermask Top*%
%IPPOS*%
%AMOC8*
5,1,8,0,0,1.08239X$1,22.5*%
G01*
%ADD10R,3.203200X1.203200*%
%ADD11C,1.603200*%
%ADD12R,2.003200X1.203200*%
%ADD13R,0.803200X0.803200*%
%ADD14C,3.505200*%
%ADD15C,1.203200*%
%ADD16R,0.453200X0.478200*%
%ADD17R,0.478200X0.453200*%
%ADD18R,1.203200X1.303200*%
%ADD19R,1.303200X1.203200*%
%ADD20R,0.833200X1.033200*%
%ADD21R,0.753200X1.403200*%
%ADD22C,0.505344*%
%ADD23C,2.082800*%
%ADD24R,2.203200X1.403200*%
%ADD25R,1.553200X0.803200*%
%ADD26R,0.603200X0.803200*%
%ADD27R,0.803200X0.603200*%
%ADD28R,0.725200X0.928200*%
%ADD29C,1.003200*%
%ADD30C,0.600000*%
%ADD31R,0.403200X0.703200*%
%ADD32R,0.703200X0.403200*%
%ADD33R,1.103200X1.203200*%
%ADD34R,0.503200X1.603200*%
%ADD35R,1.453200X2.503200*%
%ADD36R,1.603200X1.803200*%
%ADD37C,1.270000*%
%ADD38C,1.703200*%


D10*
X65000Y187300D03*
X65000Y161900D03*
X65000Y136500D03*
X65000Y212700D03*
X65000Y238100D03*
X65000Y263500D03*
D11*
X15000Y250800D03*
X15000Y149200D03*
D12*
X250000Y182500D03*
X250000Y157500D03*
D13*
X230000Y165000D03*
X230000Y155000D03*
X230000Y175000D03*
X230000Y185000D03*
D14*
X28284Y28284D03*
X371716Y28284D03*
X28284Y371716D03*
X371716Y371716D03*
D15*
X10000Y390000D03*
X390000Y10000D03*
D16*
X197500Y102500D03*
X202500Y102500D03*
X202500Y117500D03*
X197500Y117500D03*
D17*
X192500Y117500D03*
X192500Y112500D03*
X192500Y102500D03*
X192500Y107500D03*
X207500Y102500D03*
X207500Y107500D03*
X207500Y112500D03*
X207500Y117500D03*
D18*
X240000Y118500D03*
X240000Y101500D03*
D13*
X225000Y115000D03*
X225000Y105000D03*
D18*
X250000Y318500D03*
X250000Y301500D03*
X270000Y318500D03*
X270000Y301500D03*
D19*
X168500Y120000D03*
X151500Y120000D03*
X168500Y100000D03*
X151500Y100000D03*
D20*
X121500Y165000D03*
X98500Y165000D03*
X121500Y185000D03*
X98500Y185000D03*
D21*
X180500Y276999D03*
X190000Y276999D03*
X199500Y276999D03*
X199500Y303001D03*
X180500Y303001D03*
D13*
X210000Y295000D03*
X210000Y285000D03*
X185000Y315000D03*
X195000Y315000D03*
D22*
X173490Y34720D02*
X166510Y34720D01*
X173490Y34720D02*
X173490Y27740D01*
X166510Y27740D01*
X166510Y34720D01*
X166510Y32540D02*
X173490Y32540D01*
X173490Y52260D02*
X166510Y52260D01*
X173490Y52260D02*
X173490Y45280D01*
X166510Y45280D01*
X166510Y52260D01*
X166510Y50080D02*
X173490Y50080D01*
X153490Y34720D02*
X146510Y34720D01*
X153490Y34720D02*
X153490Y27740D01*
X146510Y27740D01*
X146510Y34720D01*
X146510Y32540D02*
X153490Y32540D01*
X153490Y52260D02*
X146510Y52260D01*
X153490Y52260D02*
X153490Y45280D01*
X146510Y45280D01*
X146510Y52260D01*
X146510Y50080D02*
X153490Y50080D01*
X206510Y34720D02*
X213490Y34720D01*
X213490Y27740D01*
X206510Y27740D01*
X206510Y34720D01*
X206510Y32540D02*
X213490Y32540D01*
X213490Y52260D02*
X206510Y52260D01*
X213490Y52260D02*
X213490Y45280D01*
X206510Y45280D01*
X206510Y52260D01*
X206510Y50080D02*
X213490Y50080D01*
X193490Y34720D02*
X186510Y34720D01*
X193490Y34720D02*
X193490Y27740D01*
X186510Y27740D01*
X186510Y34720D01*
X186510Y32540D02*
X193490Y32540D01*
X193490Y52260D02*
X186510Y52260D01*
X193490Y52260D02*
X193490Y45280D01*
X186510Y45280D01*
X186510Y52260D01*
X186510Y50080D02*
X193490Y50080D01*
D18*
X170000Y61500D03*
X170000Y78500D03*
X150000Y61500D03*
X150000Y78500D03*
X210000Y61500D03*
X210000Y78500D03*
X190000Y61500D03*
X190000Y78500D03*
D23*
X228600Y12700D03*
X254000Y12700D03*
X279400Y12700D03*
X304800Y12700D03*
X330200Y12700D03*
X228600Y38100D03*
X254000Y38100D03*
X279400Y38100D03*
X304800Y38100D03*
X330200Y38100D03*
D13*
X185000Y263000D03*
X195000Y263000D03*
D24*
X386750Y262000D03*
X386750Y318000D03*
D25*
X350000Y275000D03*
X350000Y285000D03*
X350000Y295000D03*
X350000Y305000D03*
D13*
X210000Y145000D03*
X210000Y135000D03*
X190000Y145000D03*
X190000Y135000D03*
D26*
X395000Y245000D03*
X390000Y237000D03*
X385000Y245000D03*
X380000Y237000D03*
X375000Y245000D03*
X370000Y237000D03*
X365000Y245000D03*
X360000Y237000D03*
X355000Y245000D03*
X350000Y237000D03*
X345000Y245000D03*
X340000Y237000D03*
X335000Y245000D03*
X330000Y237000D03*
X325000Y245000D03*
X320000Y237000D03*
X315000Y245000D03*
X310000Y237000D03*
X305000Y245000D03*
X300000Y237000D03*
X295000Y245000D03*
D13*
X285000Y245000D03*
D27*
X285000Y235000D03*
X293000Y230000D03*
X285000Y225000D03*
X293000Y220000D03*
X285000Y215000D03*
X293000Y210000D03*
X285000Y205000D03*
X293000Y200000D03*
X285000Y195000D03*
X293000Y190000D03*
X285000Y185000D03*
X293000Y180000D03*
X285000Y175000D03*
X293000Y170000D03*
X285000Y165000D03*
D13*
X285000Y155000D03*
D26*
X295000Y155000D03*
X300000Y163000D03*
X305000Y155000D03*
X310000Y163000D03*
X315000Y155000D03*
X320000Y163000D03*
X325000Y155000D03*
X330000Y163000D03*
X335000Y155000D03*
X340000Y163000D03*
X345000Y155000D03*
X350000Y163000D03*
X355000Y155000D03*
X360000Y163000D03*
X365000Y155000D03*
X370000Y163000D03*
X375000Y155000D03*
X380000Y163000D03*
X385000Y155000D03*
X390000Y163000D03*
X395000Y155000D03*
D28*
X33000Y291000D03*
D29*
X20000Y300000D03*
D28*
X43000Y291000D03*
X43000Y309000D03*
X33000Y309000D03*
D30*
X13375Y300000D02*
X13377Y300163D01*
X13383Y300325D01*
X13393Y300487D01*
X13407Y300649D01*
X13425Y300811D01*
X13447Y300972D01*
X13473Y301133D01*
X13502Y301292D01*
X13536Y301452D01*
X13574Y301610D01*
X13615Y301767D01*
X13660Y301923D01*
X13709Y302078D01*
X13762Y302232D01*
X13819Y302384D01*
X13879Y302535D01*
X13943Y302685D01*
X14011Y302833D01*
X14082Y302979D01*
X14157Y303123D01*
X14236Y303265D01*
X14318Y303406D01*
X14403Y303544D01*
X14492Y303681D01*
X14584Y303815D01*
X14679Y303947D01*
X14777Y304076D01*
X14879Y304203D01*
X14983Y304327D01*
X15091Y304449D01*
X15202Y304568D01*
X15315Y304685D01*
X15432Y304798D01*
X15551Y304909D01*
X15673Y305017D01*
X15797Y305121D01*
X15924Y305223D01*
X16053Y305321D01*
X16185Y305416D01*
X16319Y305508D01*
X16456Y305597D01*
X16594Y305682D01*
X16735Y305764D01*
X16877Y305843D01*
X17021Y305918D01*
X17167Y305989D01*
X17315Y306057D01*
X17465Y306121D01*
X17616Y306181D01*
X17768Y306238D01*
X17922Y306291D01*
X18077Y306340D01*
X18233Y306385D01*
X18390Y306426D01*
X18548Y306464D01*
X18708Y306498D01*
X18867Y306527D01*
X19028Y306553D01*
X19189Y306575D01*
X19351Y306593D01*
X19513Y306607D01*
X19675Y306617D01*
X19837Y306623D01*
X20000Y306625D01*
X20163Y306623D01*
X20325Y306617D01*
X20487Y306607D01*
X20649Y306593D01*
X20811Y306575D01*
X20972Y306553D01*
X21133Y306527D01*
X21292Y306498D01*
X21452Y306464D01*
X21610Y306426D01*
X21767Y306385D01*
X21923Y306340D01*
X22078Y306291D01*
X22232Y306238D01*
X22384Y306181D01*
X22535Y306121D01*
X22685Y306057D01*
X22833Y305989D01*
X22979Y305918D01*
X23123Y305843D01*
X23265Y305764D01*
X23406Y305682D01*
X23544Y305597D01*
X23681Y305508D01*
X23815Y305416D01*
X23947Y305321D01*
X24076Y305223D01*
X24203Y305121D01*
X24327Y305017D01*
X24449Y304909D01*
X24568Y304798D01*
X24685Y304685D01*
X24798Y304568D01*
X24909Y304449D01*
X25017Y304327D01*
X25121Y304203D01*
X25223Y304076D01*
X25321Y303947D01*
X25416Y303815D01*
X25508Y303681D01*
X25597Y303544D01*
X25682Y303406D01*
X25764Y303265D01*
X25843Y303123D01*
X25918Y302979D01*
X25989Y302833D01*
X26057Y302685D01*
X26121Y302535D01*
X26181Y302384D01*
X26238Y302232D01*
X26291Y302078D01*
X26340Y301923D01*
X26385Y301767D01*
X26426Y301610D01*
X26464Y301452D01*
X26498Y301292D01*
X26527Y301133D01*
X26553Y300972D01*
X26575Y300811D01*
X26593Y300649D01*
X26607Y300487D01*
X26617Y300325D01*
X26623Y300163D01*
X26625Y300000D01*
X26623Y299837D01*
X26617Y299675D01*
X26607Y299513D01*
X26593Y299351D01*
X26575Y299189D01*
X26553Y299028D01*
X26527Y298867D01*
X26498Y298708D01*
X26464Y298548D01*
X26426Y298390D01*
X26385Y298233D01*
X26340Y298077D01*
X26291Y297922D01*
X26238Y297768D01*
X26181Y297616D01*
X26121Y297465D01*
X26057Y297315D01*
X25989Y297167D01*
X25918Y297021D01*
X25843Y296877D01*
X25764Y296735D01*
X25682Y296594D01*
X25597Y296456D01*
X25508Y296319D01*
X25416Y296185D01*
X25321Y296053D01*
X25223Y295924D01*
X25121Y295797D01*
X25017Y295673D01*
X24909Y295551D01*
X24798Y295432D01*
X24685Y295315D01*
X24568Y295202D01*
X24449Y295091D01*
X24327Y294983D01*
X24203Y294879D01*
X24076Y294777D01*
X23947Y294679D01*
X23815Y294584D01*
X23681Y294492D01*
X23544Y294403D01*
X23406Y294318D01*
X23265Y294236D01*
X23123Y294157D01*
X22979Y294082D01*
X22833Y294011D01*
X22685Y293943D01*
X22535Y293879D01*
X22384Y293819D01*
X22232Y293762D01*
X22078Y293709D01*
X21923Y293660D01*
X21767Y293615D01*
X21610Y293574D01*
X21452Y293536D01*
X21292Y293502D01*
X21133Y293473D01*
X20972Y293447D01*
X20811Y293425D01*
X20649Y293407D01*
X20487Y293393D01*
X20325Y293383D01*
X20163Y293377D01*
X20000Y293375D01*
X19837Y293377D01*
X19675Y293383D01*
X19513Y293393D01*
X19351Y293407D01*
X19189Y293425D01*
X19028Y293447D01*
X18867Y293473D01*
X18708Y293502D01*
X18548Y293536D01*
X18390Y293574D01*
X18233Y293615D01*
X18077Y293660D01*
X17922Y293709D01*
X17768Y293762D01*
X17616Y293819D01*
X17465Y293879D01*
X17315Y293943D01*
X17167Y294011D01*
X17021Y294082D01*
X16877Y294157D01*
X16735Y294236D01*
X16594Y294318D01*
X16456Y294403D01*
X16319Y294492D01*
X16185Y294584D01*
X16053Y294679D01*
X15924Y294777D01*
X15797Y294879D01*
X15673Y294983D01*
X15551Y295091D01*
X15432Y295202D01*
X15315Y295315D01*
X15202Y295432D01*
X15091Y295551D01*
X14983Y295673D01*
X14879Y295797D01*
X14777Y295924D01*
X14679Y296053D01*
X14584Y296185D01*
X14492Y296319D01*
X14403Y296456D01*
X14318Y296594D01*
X14236Y296735D01*
X14157Y296877D01*
X14082Y297021D01*
X14011Y297167D01*
X13943Y297315D01*
X13879Y297465D01*
X13819Y297616D01*
X13762Y297768D01*
X13709Y297922D01*
X13660Y298077D01*
X13615Y298233D01*
X13574Y298390D01*
X13536Y298548D01*
X13502Y298708D01*
X13473Y298867D01*
X13447Y299028D01*
X13425Y299189D01*
X13407Y299351D01*
X13393Y299513D01*
X13383Y299675D01*
X13377Y299837D01*
X13375Y300000D01*
D31*
X13500Y300000D03*
D32*
X20000Y306500D03*
X20000Y293500D03*
D31*
X26500Y300000D03*
D33*
X59500Y332000D03*
X59500Y348000D03*
X100500Y348000D03*
X100500Y332000D03*
D19*
X118500Y215000D03*
X101500Y215000D03*
X101500Y230000D03*
X118500Y230000D03*
X101500Y275000D03*
X118500Y275000D03*
X101500Y260000D03*
X118500Y260000D03*
X118500Y245000D03*
X101500Y245000D03*
X118500Y200000D03*
X101500Y200000D03*
D13*
X55000Y295000D03*
X55000Y305000D03*
D15*
X311650Y301300D03*
X311650Y314000D03*
X311650Y326700D03*
X311650Y339400D03*
X311650Y288600D03*
X324350Y301300D03*
X324350Y314000D03*
X324350Y326700D03*
X324350Y339400D03*
X324350Y288600D03*
D13*
X267000Y169000D03*
X267000Y159000D03*
D19*
X248500Y135000D03*
X231500Y135000D03*
D13*
X267000Y151000D03*
X267000Y141000D03*
D28*
X33000Y91000D03*
D29*
X20000Y100000D03*
D28*
X43000Y91000D03*
X43000Y109000D03*
X33000Y109000D03*
D30*
X13375Y100000D02*
X13377Y100163D01*
X13383Y100325D01*
X13393Y100487D01*
X13407Y100649D01*
X13425Y100811D01*
X13447Y100972D01*
X13473Y101133D01*
X13502Y101292D01*
X13536Y101452D01*
X13574Y101610D01*
X13615Y101767D01*
X13660Y101923D01*
X13709Y102078D01*
X13762Y102232D01*
X13819Y102384D01*
X13879Y102535D01*
X13943Y102685D01*
X14011Y102833D01*
X14082Y102979D01*
X14157Y103123D01*
X14236Y103265D01*
X14318Y103406D01*
X14403Y103544D01*
X14492Y103681D01*
X14584Y103815D01*
X14679Y103947D01*
X14777Y104076D01*
X14879Y104203D01*
X14983Y104327D01*
X15091Y104449D01*
X15202Y104568D01*
X15315Y104685D01*
X15432Y104798D01*
X15551Y104909D01*
X15673Y105017D01*
X15797Y105121D01*
X15924Y105223D01*
X16053Y105321D01*
X16185Y105416D01*
X16319Y105508D01*
X16456Y105597D01*
X16594Y105682D01*
X16735Y105764D01*
X16877Y105843D01*
X17021Y105918D01*
X17167Y105989D01*
X17315Y106057D01*
X17465Y106121D01*
X17616Y106181D01*
X17768Y106238D01*
X17922Y106291D01*
X18077Y106340D01*
X18233Y106385D01*
X18390Y106426D01*
X18548Y106464D01*
X18708Y106498D01*
X18867Y106527D01*
X19028Y106553D01*
X19189Y106575D01*
X19351Y106593D01*
X19513Y106607D01*
X19675Y106617D01*
X19837Y106623D01*
X20000Y106625D01*
X20163Y106623D01*
X20325Y106617D01*
X20487Y106607D01*
X20649Y106593D01*
X20811Y106575D01*
X20972Y106553D01*
X21133Y106527D01*
X21292Y106498D01*
X21452Y106464D01*
X21610Y106426D01*
X21767Y106385D01*
X21923Y106340D01*
X22078Y106291D01*
X22232Y106238D01*
X22384Y106181D01*
X22535Y106121D01*
X22685Y106057D01*
X22833Y105989D01*
X22979Y105918D01*
X23123Y105843D01*
X23265Y105764D01*
X23406Y105682D01*
X23544Y105597D01*
X23681Y105508D01*
X23815Y105416D01*
X23947Y105321D01*
X24076Y105223D01*
X24203Y105121D01*
X24327Y105017D01*
X24449Y104909D01*
X24568Y104798D01*
X24685Y104685D01*
X24798Y104568D01*
X24909Y104449D01*
X25017Y104327D01*
X25121Y104203D01*
X25223Y104076D01*
X25321Y103947D01*
X25416Y103815D01*
X25508Y103681D01*
X25597Y103544D01*
X25682Y103406D01*
X25764Y103265D01*
X25843Y103123D01*
X25918Y102979D01*
X25989Y102833D01*
X26057Y102685D01*
X26121Y102535D01*
X26181Y102384D01*
X26238Y102232D01*
X26291Y102078D01*
X26340Y101923D01*
X26385Y101767D01*
X26426Y101610D01*
X26464Y101452D01*
X26498Y101292D01*
X26527Y101133D01*
X26553Y100972D01*
X26575Y100811D01*
X26593Y100649D01*
X26607Y100487D01*
X26617Y100325D01*
X26623Y100163D01*
X26625Y100000D01*
X26623Y99837D01*
X26617Y99675D01*
X26607Y99513D01*
X26593Y99351D01*
X26575Y99189D01*
X26553Y99028D01*
X26527Y98867D01*
X26498Y98708D01*
X26464Y98548D01*
X26426Y98390D01*
X26385Y98233D01*
X26340Y98077D01*
X26291Y97922D01*
X26238Y97768D01*
X26181Y97616D01*
X26121Y97465D01*
X26057Y97315D01*
X25989Y97167D01*
X25918Y97021D01*
X25843Y96877D01*
X25764Y96735D01*
X25682Y96594D01*
X25597Y96456D01*
X25508Y96319D01*
X25416Y96185D01*
X25321Y96053D01*
X25223Y95924D01*
X25121Y95797D01*
X25017Y95673D01*
X24909Y95551D01*
X24798Y95432D01*
X24685Y95315D01*
X24568Y95202D01*
X24449Y95091D01*
X24327Y94983D01*
X24203Y94879D01*
X24076Y94777D01*
X23947Y94679D01*
X23815Y94584D01*
X23681Y94492D01*
X23544Y94403D01*
X23406Y94318D01*
X23265Y94236D01*
X23123Y94157D01*
X22979Y94082D01*
X22833Y94011D01*
X22685Y93943D01*
X22535Y93879D01*
X22384Y93819D01*
X22232Y93762D01*
X22078Y93709D01*
X21923Y93660D01*
X21767Y93615D01*
X21610Y93574D01*
X21452Y93536D01*
X21292Y93502D01*
X21133Y93473D01*
X20972Y93447D01*
X20811Y93425D01*
X20649Y93407D01*
X20487Y93393D01*
X20325Y93383D01*
X20163Y93377D01*
X20000Y93375D01*
X19837Y93377D01*
X19675Y93383D01*
X19513Y93393D01*
X19351Y93407D01*
X19189Y93425D01*
X19028Y93447D01*
X18867Y93473D01*
X18708Y93502D01*
X18548Y93536D01*
X18390Y93574D01*
X18233Y93615D01*
X18077Y93660D01*
X17922Y93709D01*
X17768Y93762D01*
X17616Y93819D01*
X17465Y93879D01*
X17315Y93943D01*
X17167Y94011D01*
X17021Y94082D01*
X16877Y94157D01*
X16735Y94236D01*
X16594Y94318D01*
X16456Y94403D01*
X16319Y94492D01*
X16185Y94584D01*
X16053Y94679D01*
X15924Y94777D01*
X15797Y94879D01*
X15673Y94983D01*
X15551Y95091D01*
X15432Y95202D01*
X15315Y95315D01*
X15202Y95432D01*
X15091Y95551D01*
X14983Y95673D01*
X14879Y95797D01*
X14777Y95924D01*
X14679Y96053D01*
X14584Y96185D01*
X14492Y96319D01*
X14403Y96456D01*
X14318Y96594D01*
X14236Y96735D01*
X14157Y96877D01*
X14082Y97021D01*
X14011Y97167D01*
X13943Y97315D01*
X13879Y97465D01*
X13819Y97616D01*
X13762Y97768D01*
X13709Y97922D01*
X13660Y98077D01*
X13615Y98233D01*
X13574Y98390D01*
X13536Y98548D01*
X13502Y98708D01*
X13473Y98867D01*
X13447Y99028D01*
X13425Y99189D01*
X13407Y99351D01*
X13393Y99513D01*
X13383Y99675D01*
X13377Y99837D01*
X13375Y100000D01*
D31*
X13500Y100000D03*
D32*
X20000Y106500D03*
X20000Y93500D03*
D31*
X26500Y100000D03*
D13*
X55000Y95000D03*
X55000Y105000D03*
D34*
X142500Y346000D03*
D35*
X268250Y358500D03*
D36*
X281500Y355000D03*
X118500Y355000D03*
D35*
X131750Y358500D03*
D34*
X147500Y346000D03*
X152500Y346000D03*
X157500Y346000D03*
X162500Y346000D03*
X167500Y346000D03*
X172500Y346000D03*
X177500Y346000D03*
X182500Y346000D03*
X187500Y346000D03*
X192500Y346000D03*
X197500Y346000D03*
X202500Y346000D03*
X207500Y346000D03*
X212500Y346000D03*
X217500Y346000D03*
X222500Y346000D03*
X227500Y346000D03*
X232500Y346000D03*
X237500Y346000D03*
X242500Y346000D03*
X247500Y346000D03*
X252500Y346000D03*
X257500Y346000D03*
D10*
X561520Y187300D03*
X561520Y161900D03*
X561520Y136500D03*
X561520Y212700D03*
X561520Y238100D03*
X561520Y263500D03*
D11*
X511520Y250800D03*
X511520Y149200D03*
D12*
X746520Y182500D03*
X746520Y157500D03*
D13*
X726520Y165000D03*
X726520Y155000D03*
X726520Y175000D03*
X726520Y185000D03*
D14*
X524804Y28284D03*
X868236Y28284D03*
X524804Y371716D03*
X868236Y371716D03*
D15*
X506520Y390000D03*
X886520Y10000D03*
D16*
X694020Y102500D03*
X699020Y102500D03*
X699020Y117500D03*
X694020Y117500D03*
D17*
X689020Y117500D03*
X689020Y112500D03*
X689020Y102500D03*
X689020Y107500D03*
X704020Y102500D03*
X704020Y107500D03*
X704020Y112500D03*
X704020Y117500D03*
D18*
X736520Y118500D03*
X736520Y101500D03*
D13*
X721520Y115000D03*
X721520Y105000D03*
D18*
X746520Y318500D03*
X746520Y301500D03*
X766520Y318500D03*
X766520Y301500D03*
D19*
X665020Y120000D03*
X648020Y120000D03*
X665020Y100000D03*
X648020Y100000D03*
D20*
X618020Y165000D03*
X595020Y165000D03*
X618020Y185000D03*
X595020Y185000D03*
D21*
X677020Y276999D03*
X686520Y276999D03*
X696020Y276999D03*
X696020Y303001D03*
X677020Y303001D03*
D13*
X706520Y295000D03*
X706520Y285000D03*
X681520Y315000D03*
X691520Y315000D03*
D22*
X670010Y34720D02*
X663030Y34720D01*
X670010Y34720D02*
X670010Y27740D01*
X663030Y27740D01*
X663030Y34720D01*
X663030Y32540D02*
X670010Y32540D01*
X670010Y52260D02*
X663030Y52260D01*
X670010Y52260D02*
X670010Y45280D01*
X663030Y45280D01*
X663030Y52260D01*
X663030Y50080D02*
X670010Y50080D01*
X650010Y34720D02*
X643030Y34720D01*
X650010Y34720D02*
X650010Y27740D01*
X643030Y27740D01*
X643030Y34720D01*
X643030Y32540D02*
X650010Y32540D01*
X650010Y52260D02*
X643030Y52260D01*
X650010Y52260D02*
X650010Y45280D01*
X643030Y45280D01*
X643030Y52260D01*
X643030Y50080D02*
X650010Y50080D01*
X703030Y34720D02*
X710010Y34720D01*
X710010Y27740D01*
X703030Y27740D01*
X703030Y34720D01*
X703030Y32540D02*
X710010Y32540D01*
X710010Y52260D02*
X703030Y52260D01*
X710010Y52260D02*
X710010Y45280D01*
X703030Y45280D01*
X703030Y52260D01*
X703030Y50080D02*
X710010Y50080D01*
X690010Y34720D02*
X683030Y34720D01*
X690010Y34720D02*
X690010Y27740D01*
X683030Y27740D01*
X683030Y34720D01*
X683030Y32540D02*
X690010Y32540D01*
X690010Y52260D02*
X683030Y52260D01*
X690010Y52260D02*
X690010Y45280D01*
X683030Y45280D01*
X683030Y52260D01*
X683030Y50080D02*
X690010Y50080D01*
D18*
X666520Y61500D03*
X666520Y78500D03*
X646520Y61500D03*
X646520Y78500D03*
X706520Y61500D03*
X706520Y78500D03*
X686520Y61500D03*
X686520Y78500D03*
D23*
X725120Y12700D03*
X750520Y12700D03*
X775920Y12700D03*
X801320Y12700D03*
X826720Y12700D03*
X725120Y38100D03*
X750520Y38100D03*
X775920Y38100D03*
X801320Y38100D03*
X826720Y38100D03*
D13*
X681520Y263000D03*
X691520Y263000D03*
D24*
X883270Y262000D03*
X883270Y318000D03*
D25*
X846520Y275000D03*
X846520Y285000D03*
X846520Y295000D03*
X846520Y305000D03*
D13*
X706520Y145000D03*
X706520Y135000D03*
X686520Y145000D03*
X686520Y135000D03*
D26*
X891520Y245000D03*
X886520Y237000D03*
X881520Y245000D03*
X876520Y237000D03*
X871520Y245000D03*
X866520Y237000D03*
X861520Y245000D03*
X856520Y237000D03*
X851520Y245000D03*
X846520Y237000D03*
X841520Y245000D03*
X836520Y237000D03*
X831520Y245000D03*
X826520Y237000D03*
X821520Y245000D03*
X816520Y237000D03*
X811520Y245000D03*
X806520Y237000D03*
X801520Y245000D03*
X796520Y237000D03*
X791520Y245000D03*
D13*
X781520Y245000D03*
D27*
X781520Y235000D03*
X789520Y230000D03*
X781520Y225000D03*
X789520Y220000D03*
X781520Y215000D03*
X789520Y210000D03*
X781520Y205000D03*
X789520Y200000D03*
X781520Y195000D03*
X789520Y190000D03*
X781520Y185000D03*
X789520Y180000D03*
X781520Y175000D03*
X789520Y170000D03*
X781520Y165000D03*
D13*
X781520Y155000D03*
D26*
X791520Y155000D03*
X796520Y163000D03*
X801520Y155000D03*
X806520Y163000D03*
X811520Y155000D03*
X816520Y163000D03*
X821520Y155000D03*
X826520Y163000D03*
X831520Y155000D03*
X836520Y163000D03*
X841520Y155000D03*
X846520Y163000D03*
X851520Y155000D03*
X856520Y163000D03*
X861520Y155000D03*
X866520Y163000D03*
X871520Y155000D03*
X876520Y163000D03*
X881520Y155000D03*
X886520Y163000D03*
X891520Y155000D03*
D28*
X529520Y291000D03*
D29*
X516520Y300000D03*
D28*
X539520Y291000D03*
X539520Y309000D03*
X529520Y309000D03*
D30*
X509895Y300000D02*
X509897Y300163D01*
X509903Y300325D01*
X509913Y300487D01*
X509927Y300649D01*
X509945Y300811D01*
X509967Y300972D01*
X509993Y301133D01*
X510022Y301292D01*
X510056Y301452D01*
X510094Y301610D01*
X510135Y301767D01*
X510180Y301923D01*
X510229Y302078D01*
X510282Y302232D01*
X510339Y302384D01*
X510399Y302535D01*
X510463Y302685D01*
X510531Y302833D01*
X510602Y302979D01*
X510677Y303123D01*
X510756Y303265D01*
X510838Y303406D01*
X510923Y303544D01*
X511012Y303681D01*
X511104Y303815D01*
X511199Y303947D01*
X511297Y304076D01*
X511399Y304203D01*
X511503Y304327D01*
X511611Y304449D01*
X511722Y304568D01*
X511835Y304685D01*
X511952Y304798D01*
X512071Y304909D01*
X512193Y305017D01*
X512317Y305121D01*
X512444Y305223D01*
X512573Y305321D01*
X512705Y305416D01*
X512839Y305508D01*
X512976Y305597D01*
X513114Y305682D01*
X513255Y305764D01*
X513397Y305843D01*
X513541Y305918D01*
X513687Y305989D01*
X513835Y306057D01*
X513985Y306121D01*
X514136Y306181D01*
X514288Y306238D01*
X514442Y306291D01*
X514597Y306340D01*
X514753Y306385D01*
X514910Y306426D01*
X515068Y306464D01*
X515228Y306498D01*
X515387Y306527D01*
X515548Y306553D01*
X515709Y306575D01*
X515871Y306593D01*
X516033Y306607D01*
X516195Y306617D01*
X516357Y306623D01*
X516520Y306625D01*
X516683Y306623D01*
X516845Y306617D01*
X517007Y306607D01*
X517169Y306593D01*
X517331Y306575D01*
X517492Y306553D01*
X517653Y306527D01*
X517812Y306498D01*
X517972Y306464D01*
X518130Y306426D01*
X518287Y306385D01*
X518443Y306340D01*
X518598Y306291D01*
X518752Y306238D01*
X518904Y306181D01*
X519055Y306121D01*
X519205Y306057D01*
X519353Y305989D01*
X519499Y305918D01*
X519643Y305843D01*
X519785Y305764D01*
X519926Y305682D01*
X520064Y305597D01*
X520201Y305508D01*
X520335Y305416D01*
X520467Y305321D01*
X520596Y305223D01*
X520723Y305121D01*
X520847Y305017D01*
X520969Y304909D01*
X521088Y304798D01*
X521205Y304685D01*
X521318Y304568D01*
X521429Y304449D01*
X521537Y304327D01*
X521641Y304203D01*
X521743Y304076D01*
X521841Y303947D01*
X521936Y303815D01*
X522028Y303681D01*
X522117Y303544D01*
X522202Y303406D01*
X522284Y303265D01*
X522363Y303123D01*
X522438Y302979D01*
X522509Y302833D01*
X522577Y302685D01*
X522641Y302535D01*
X522701Y302384D01*
X522758Y302232D01*
X522811Y302078D01*
X522860Y301923D01*
X522905Y301767D01*
X522946Y301610D01*
X522984Y301452D01*
X523018Y301292D01*
X523047Y301133D01*
X523073Y300972D01*
X523095Y300811D01*
X523113Y300649D01*
X523127Y300487D01*
X523137Y300325D01*
X523143Y300163D01*
X523145Y300000D01*
X523143Y299837D01*
X523137Y299675D01*
X523127Y299513D01*
X523113Y299351D01*
X523095Y299189D01*
X523073Y299028D01*
X523047Y298867D01*
X523018Y298708D01*
X522984Y298548D01*
X522946Y298390D01*
X522905Y298233D01*
X522860Y298077D01*
X522811Y297922D01*
X522758Y297768D01*
X522701Y297616D01*
X522641Y297465D01*
X522577Y297315D01*
X522509Y297167D01*
X522438Y297021D01*
X522363Y296877D01*
X522284Y296735D01*
X522202Y296594D01*
X522117Y296456D01*
X522028Y296319D01*
X521936Y296185D01*
X521841Y296053D01*
X521743Y295924D01*
X521641Y295797D01*
X521537Y295673D01*
X521429Y295551D01*
X521318Y295432D01*
X521205Y295315D01*
X521088Y295202D01*
X520969Y295091D01*
X520847Y294983D01*
X520723Y294879D01*
X520596Y294777D01*
X520467Y294679D01*
X520335Y294584D01*
X520201Y294492D01*
X520064Y294403D01*
X519926Y294318D01*
X519785Y294236D01*
X519643Y294157D01*
X519499Y294082D01*
X519353Y294011D01*
X519205Y293943D01*
X519055Y293879D01*
X518904Y293819D01*
X518752Y293762D01*
X518598Y293709D01*
X518443Y293660D01*
X518287Y293615D01*
X518130Y293574D01*
X517972Y293536D01*
X517812Y293502D01*
X517653Y293473D01*
X517492Y293447D01*
X517331Y293425D01*
X517169Y293407D01*
X517007Y293393D01*
X516845Y293383D01*
X516683Y293377D01*
X516520Y293375D01*
X516357Y293377D01*
X516195Y293383D01*
X516033Y293393D01*
X515871Y293407D01*
X515709Y293425D01*
X515548Y293447D01*
X515387Y293473D01*
X515228Y293502D01*
X515068Y293536D01*
X514910Y293574D01*
X514753Y293615D01*
X514597Y293660D01*
X514442Y293709D01*
X514288Y293762D01*
X514136Y293819D01*
X513985Y293879D01*
X513835Y293943D01*
X513687Y294011D01*
X513541Y294082D01*
X513397Y294157D01*
X513255Y294236D01*
X513114Y294318D01*
X512976Y294403D01*
X512839Y294492D01*
X512705Y294584D01*
X512573Y294679D01*
X512444Y294777D01*
X512317Y294879D01*
X512193Y294983D01*
X512071Y295091D01*
X511952Y295202D01*
X511835Y295315D01*
X511722Y295432D01*
X511611Y295551D01*
X511503Y295673D01*
X511399Y295797D01*
X511297Y295924D01*
X511199Y296053D01*
X511104Y296185D01*
X511012Y296319D01*
X510923Y296456D01*
X510838Y296594D01*
X510756Y296735D01*
X510677Y296877D01*
X510602Y297021D01*
X510531Y297167D01*
X510463Y297315D01*
X510399Y297465D01*
X510339Y297616D01*
X510282Y297768D01*
X510229Y297922D01*
X510180Y298077D01*
X510135Y298233D01*
X510094Y298390D01*
X510056Y298548D01*
X510022Y298708D01*
X509993Y298867D01*
X509967Y299028D01*
X509945Y299189D01*
X509927Y299351D01*
X509913Y299513D01*
X509903Y299675D01*
X509897Y299837D01*
X509895Y300000D01*
D31*
X510020Y300000D03*
D32*
X516520Y306500D03*
X516520Y293500D03*
D31*
X523020Y300000D03*
D33*
X556020Y332000D03*
X556020Y348000D03*
X597020Y348000D03*
X597020Y332000D03*
D19*
X615020Y215000D03*
X598020Y215000D03*
X598020Y230000D03*
X615020Y230000D03*
X598020Y275000D03*
X615020Y275000D03*
X598020Y260000D03*
X615020Y260000D03*
X615020Y245000D03*
X598020Y245000D03*
X615020Y200000D03*
X598020Y200000D03*
D13*
X551520Y295000D03*
X551520Y305000D03*
D15*
X808170Y301300D03*
X808170Y314000D03*
X808170Y326700D03*
X808170Y339400D03*
X808170Y288600D03*
X820870Y301300D03*
X820870Y314000D03*
X820870Y326700D03*
X820870Y339400D03*
X820870Y288600D03*
D13*
X763520Y169000D03*
X763520Y159000D03*
D19*
X745020Y135000D03*
X728020Y135000D03*
D13*
X763520Y151000D03*
X763520Y141000D03*
D28*
X529520Y91000D03*
D29*
X516520Y100000D03*
D28*
X539520Y91000D03*
X539520Y109000D03*
X529520Y109000D03*
D30*
X509895Y100000D02*
X509897Y100163D01*
X509903Y100325D01*
X509913Y100487D01*
X509927Y100649D01*
X509945Y100811D01*
X509967Y100972D01*
X509993Y101133D01*
X510022Y101292D01*
X510056Y101452D01*
X510094Y101610D01*
X510135Y101767D01*
X510180Y101923D01*
X510229Y102078D01*
X510282Y102232D01*
X510339Y102384D01*
X510399Y102535D01*
X510463Y102685D01*
X510531Y102833D01*
X510602Y102979D01*
X510677Y103123D01*
X510756Y103265D01*
X510838Y103406D01*
X510923Y103544D01*
X511012Y103681D01*
X511104Y103815D01*
X511199Y103947D01*
X511297Y104076D01*
X511399Y104203D01*
X511503Y104327D01*
X511611Y104449D01*
X511722Y104568D01*
X511835Y104685D01*
X511952Y104798D01*
X512071Y104909D01*
X512193Y105017D01*
X512317Y105121D01*
X512444Y105223D01*
X512573Y105321D01*
X512705Y105416D01*
X512839Y105508D01*
X512976Y105597D01*
X513114Y105682D01*
X513255Y105764D01*
X513397Y105843D01*
X513541Y105918D01*
X513687Y105989D01*
X513835Y106057D01*
X513985Y106121D01*
X514136Y106181D01*
X514288Y106238D01*
X514442Y106291D01*
X514597Y106340D01*
X514753Y106385D01*
X514910Y106426D01*
X515068Y106464D01*
X515228Y106498D01*
X515387Y106527D01*
X515548Y106553D01*
X515709Y106575D01*
X515871Y106593D01*
X516033Y106607D01*
X516195Y106617D01*
X516357Y106623D01*
X516520Y106625D01*
X516683Y106623D01*
X516845Y106617D01*
X517007Y106607D01*
X517169Y106593D01*
X517331Y106575D01*
X517492Y106553D01*
X517653Y106527D01*
X517812Y106498D01*
X517972Y106464D01*
X518130Y106426D01*
X518287Y106385D01*
X518443Y106340D01*
X518598Y106291D01*
X518752Y106238D01*
X518904Y106181D01*
X519055Y106121D01*
X519205Y106057D01*
X519353Y105989D01*
X519499Y105918D01*
X519643Y105843D01*
X519785Y105764D01*
X519926Y105682D01*
X520064Y105597D01*
X520201Y105508D01*
X520335Y105416D01*
X520467Y105321D01*
X520596Y105223D01*
X520723Y105121D01*
X520847Y105017D01*
X520969Y104909D01*
X521088Y104798D01*
X521205Y104685D01*
X521318Y104568D01*
X521429Y104449D01*
X521537Y104327D01*
X521641Y104203D01*
X521743Y104076D01*
X521841Y103947D01*
X521936Y103815D01*
X522028Y103681D01*
X522117Y103544D01*
X522202Y103406D01*
X522284Y103265D01*
X522363Y103123D01*
X522438Y102979D01*
X522509Y102833D01*
X522577Y102685D01*
X522641Y102535D01*
X522701Y102384D01*
X522758Y102232D01*
X522811Y102078D01*
X522860Y101923D01*
X522905Y101767D01*
X522946Y101610D01*
X522984Y101452D01*
X523018Y101292D01*
X523047Y101133D01*
X523073Y100972D01*
X523095Y100811D01*
X523113Y100649D01*
X523127Y100487D01*
X523137Y100325D01*
X523143Y100163D01*
X523145Y100000D01*
X523143Y99837D01*
X523137Y99675D01*
X523127Y99513D01*
X523113Y99351D01*
X523095Y99189D01*
X523073Y99028D01*
X523047Y98867D01*
X523018Y98708D01*
X522984Y98548D01*
X522946Y98390D01*
X522905Y98233D01*
X522860Y98077D01*
X522811Y97922D01*
X522758Y97768D01*
X522701Y97616D01*
X522641Y97465D01*
X522577Y97315D01*
X522509Y97167D01*
X522438Y97021D01*
X522363Y96877D01*
X522284Y96735D01*
X522202Y96594D01*
X522117Y96456D01*
X522028Y96319D01*
X521936Y96185D01*
X521841Y96053D01*
X521743Y95924D01*
X521641Y95797D01*
X521537Y95673D01*
X521429Y95551D01*
X521318Y95432D01*
X521205Y95315D01*
X521088Y95202D01*
X520969Y95091D01*
X520847Y94983D01*
X520723Y94879D01*
X520596Y94777D01*
X520467Y94679D01*
X520335Y94584D01*
X520201Y94492D01*
X520064Y94403D01*
X519926Y94318D01*
X519785Y94236D01*
X519643Y94157D01*
X519499Y94082D01*
X519353Y94011D01*
X519205Y93943D01*
X519055Y93879D01*
X518904Y93819D01*
X518752Y93762D01*
X518598Y93709D01*
X518443Y93660D01*
X518287Y93615D01*
X518130Y93574D01*
X517972Y93536D01*
X517812Y93502D01*
X517653Y93473D01*
X517492Y93447D01*
X517331Y93425D01*
X517169Y93407D01*
X517007Y93393D01*
X516845Y93383D01*
X516683Y93377D01*
X516520Y93375D01*
X516357Y93377D01*
X516195Y93383D01*
X516033Y93393D01*
X515871Y93407D01*
X515709Y93425D01*
X515548Y93447D01*
X515387Y93473D01*
X515228Y93502D01*
X515068Y93536D01*
X514910Y93574D01*
X514753Y93615D01*
X514597Y93660D01*
X514442Y93709D01*
X514288Y93762D01*
X514136Y93819D01*
X513985Y93879D01*
X513835Y93943D01*
X513687Y94011D01*
X513541Y94082D01*
X513397Y94157D01*
X513255Y94236D01*
X513114Y94318D01*
X512976Y94403D01*
X512839Y94492D01*
X512705Y94584D01*
X512573Y94679D01*
X512444Y94777D01*
X512317Y94879D01*
X512193Y94983D01*
X512071Y95091D01*
X511952Y95202D01*
X511835Y95315D01*
X511722Y95432D01*
X511611Y95551D01*
X511503Y95673D01*
X511399Y95797D01*
X511297Y95924D01*
X511199Y96053D01*
X511104Y96185D01*
X511012Y96319D01*
X510923Y96456D01*
X510838Y96594D01*
X510756Y96735D01*
X510677Y96877D01*
X510602Y97021D01*
X510531Y97167D01*
X510463Y97315D01*
X510399Y97465D01*
X510339Y97616D01*
X510282Y97768D01*
X510229Y97922D01*
X510180Y98077D01*
X510135Y98233D01*
X510094Y98390D01*
X510056Y98548D01*
X510022Y98708D01*
X509993Y98867D01*
X509967Y99028D01*
X509945Y99189D01*
X509927Y99351D01*
X509913Y99513D01*
X509903Y99675D01*
X509897Y99837D01*
X509895Y100000D01*
D31*
X510020Y100000D03*
D32*
X516520Y106500D03*
X516520Y93500D03*
D31*
X523020Y100000D03*
D13*
X551520Y95000D03*
X551520Y105000D03*
D34*
X639020Y346000D03*
D35*
X764770Y358500D03*
D36*
X778020Y355000D03*
X615020Y355000D03*
D35*
X628270Y358500D03*
D34*
X644020Y346000D03*
X649020Y346000D03*
X654020Y346000D03*
X659020Y346000D03*
X664020Y346000D03*
X669020Y346000D03*
X674020Y346000D03*
X679020Y346000D03*
X684020Y346000D03*
X689020Y346000D03*
X694020Y346000D03*
X699020Y346000D03*
X704020Y346000D03*
X709020Y346000D03*
X714020Y346000D03*
X719020Y346000D03*
X724020Y346000D03*
X729020Y346000D03*
X734020Y346000D03*
X739020Y346000D03*
X744020Y346000D03*
X749020Y346000D03*
X754020Y346000D03*
D10*
X1058040Y187300D03*
X1058040Y161900D03*
X1058040Y136500D03*
X1058040Y212700D03*
X1058040Y238100D03*
X1058040Y263500D03*
D11*
X1008040Y250800D03*
X1008040Y149200D03*
D12*
X1243040Y182500D03*
X1243040Y157500D03*
D13*
X1223040Y165000D03*
X1223040Y155000D03*
X1223040Y175000D03*
X1223040Y185000D03*
D14*
X1021324Y28284D03*
X1364756Y28284D03*
X1021324Y371716D03*
X1364756Y371716D03*
D15*
X1003040Y390000D03*
X1383040Y10000D03*
D16*
X1190540Y102500D03*
X1195540Y102500D03*
X1195540Y117500D03*
X1190540Y117500D03*
D17*
X1185540Y117500D03*
X1185540Y112500D03*
X1185540Y102500D03*
X1185540Y107500D03*
X1200540Y102500D03*
X1200540Y107500D03*
X1200540Y112500D03*
X1200540Y117500D03*
D18*
X1233040Y118500D03*
X1233040Y101500D03*
D13*
X1218040Y115000D03*
X1218040Y105000D03*
D18*
X1243040Y318500D03*
X1243040Y301500D03*
X1263040Y318500D03*
X1263040Y301500D03*
D19*
X1161540Y120000D03*
X1144540Y120000D03*
X1161540Y100000D03*
X1144540Y100000D03*
D20*
X1114540Y165000D03*
X1091540Y165000D03*
X1114540Y185000D03*
X1091540Y185000D03*
D21*
X1173540Y276999D03*
X1183040Y276999D03*
X1192540Y276999D03*
X1192540Y303001D03*
X1173540Y303001D03*
D13*
X1203040Y295000D03*
X1203040Y285000D03*
X1178040Y315000D03*
X1188040Y315000D03*
D22*
X1166530Y34720D02*
X1159550Y34720D01*
X1166530Y34720D02*
X1166530Y27740D01*
X1159550Y27740D01*
X1159550Y34720D01*
X1159550Y32540D02*
X1166530Y32540D01*
X1166530Y52260D02*
X1159550Y52260D01*
X1166530Y52260D02*
X1166530Y45280D01*
X1159550Y45280D01*
X1159550Y52260D01*
X1159550Y50080D02*
X1166530Y50080D01*
X1146530Y34720D02*
X1139550Y34720D01*
X1146530Y34720D02*
X1146530Y27740D01*
X1139550Y27740D01*
X1139550Y34720D01*
X1139550Y32540D02*
X1146530Y32540D01*
X1146530Y52260D02*
X1139550Y52260D01*
X1146530Y52260D02*
X1146530Y45280D01*
X1139550Y45280D01*
X1139550Y52260D01*
X1139550Y50080D02*
X1146530Y50080D01*
X1199550Y34720D02*
X1206530Y34720D01*
X1206530Y27740D01*
X1199550Y27740D01*
X1199550Y34720D01*
X1199550Y32540D02*
X1206530Y32540D01*
X1206530Y52260D02*
X1199550Y52260D01*
X1206530Y52260D02*
X1206530Y45280D01*
X1199550Y45280D01*
X1199550Y52260D01*
X1199550Y50080D02*
X1206530Y50080D01*
X1186530Y34720D02*
X1179550Y34720D01*
X1186530Y34720D02*
X1186530Y27740D01*
X1179550Y27740D01*
X1179550Y34720D01*
X1179550Y32540D02*
X1186530Y32540D01*
X1186530Y52260D02*
X1179550Y52260D01*
X1186530Y52260D02*
X1186530Y45280D01*
X1179550Y45280D01*
X1179550Y52260D01*
X1179550Y50080D02*
X1186530Y50080D01*
D18*
X1163040Y61500D03*
X1163040Y78500D03*
X1143040Y61500D03*
X1143040Y78500D03*
X1203040Y61500D03*
X1203040Y78500D03*
X1183040Y61500D03*
X1183040Y78500D03*
D23*
X1221640Y12700D03*
X1247040Y12700D03*
X1272440Y12700D03*
X1297840Y12700D03*
X1323240Y12700D03*
X1221640Y38100D03*
X1247040Y38100D03*
X1272440Y38100D03*
X1297840Y38100D03*
X1323240Y38100D03*
D13*
X1178040Y263000D03*
X1188040Y263000D03*
D24*
X1379790Y262000D03*
X1379790Y318000D03*
D25*
X1343040Y275000D03*
X1343040Y285000D03*
X1343040Y295000D03*
X1343040Y305000D03*
D13*
X1203040Y145000D03*
X1203040Y135000D03*
X1183040Y145000D03*
X1183040Y135000D03*
D26*
X1388040Y245000D03*
X1383040Y237000D03*
X1378040Y245000D03*
X1373040Y237000D03*
X1368040Y245000D03*
X1363040Y237000D03*
X1358040Y245000D03*
X1353040Y237000D03*
X1348040Y245000D03*
X1343040Y237000D03*
X1338040Y245000D03*
X1333040Y237000D03*
X1328040Y245000D03*
X1323040Y237000D03*
X1318040Y245000D03*
X1313040Y237000D03*
X1308040Y245000D03*
X1303040Y237000D03*
X1298040Y245000D03*
X1293040Y237000D03*
X1288040Y245000D03*
D13*
X1278040Y245000D03*
D27*
X1278040Y235000D03*
X1286040Y230000D03*
X1278040Y225000D03*
X1286040Y220000D03*
X1278040Y215000D03*
X1286040Y210000D03*
X1278040Y205000D03*
X1286040Y200000D03*
X1278040Y195000D03*
X1286040Y190000D03*
X1278040Y185000D03*
X1286040Y180000D03*
X1278040Y175000D03*
X1286040Y170000D03*
X1278040Y165000D03*
D13*
X1278040Y155000D03*
D26*
X1288040Y155000D03*
X1293040Y163000D03*
X1298040Y155000D03*
X1303040Y163000D03*
X1308040Y155000D03*
X1313040Y163000D03*
X1318040Y155000D03*
X1323040Y163000D03*
X1328040Y155000D03*
X1333040Y163000D03*
X1338040Y155000D03*
X1343040Y163000D03*
X1348040Y155000D03*
X1353040Y163000D03*
X1358040Y155000D03*
X1363040Y163000D03*
X1368040Y155000D03*
X1373040Y163000D03*
X1378040Y155000D03*
X1383040Y163000D03*
X1388040Y155000D03*
D28*
X1026040Y291000D03*
D29*
X1013040Y300000D03*
D28*
X1036040Y291000D03*
X1036040Y309000D03*
X1026040Y309000D03*
D30*
X1006415Y300000D02*
X1006417Y300163D01*
X1006423Y300325D01*
X1006433Y300487D01*
X1006447Y300649D01*
X1006465Y300811D01*
X1006487Y300972D01*
X1006513Y301133D01*
X1006542Y301292D01*
X1006576Y301452D01*
X1006614Y301610D01*
X1006655Y301767D01*
X1006700Y301923D01*
X1006749Y302078D01*
X1006802Y302232D01*
X1006859Y302384D01*
X1006919Y302535D01*
X1006983Y302685D01*
X1007051Y302833D01*
X1007122Y302979D01*
X1007197Y303123D01*
X1007276Y303265D01*
X1007358Y303406D01*
X1007443Y303544D01*
X1007532Y303681D01*
X1007624Y303815D01*
X1007719Y303947D01*
X1007817Y304076D01*
X1007919Y304203D01*
X1008023Y304327D01*
X1008131Y304449D01*
X1008242Y304568D01*
X1008355Y304685D01*
X1008472Y304798D01*
X1008591Y304909D01*
X1008713Y305017D01*
X1008837Y305121D01*
X1008964Y305223D01*
X1009093Y305321D01*
X1009225Y305416D01*
X1009359Y305508D01*
X1009496Y305597D01*
X1009634Y305682D01*
X1009775Y305764D01*
X1009917Y305843D01*
X1010061Y305918D01*
X1010207Y305989D01*
X1010355Y306057D01*
X1010505Y306121D01*
X1010656Y306181D01*
X1010808Y306238D01*
X1010962Y306291D01*
X1011117Y306340D01*
X1011273Y306385D01*
X1011430Y306426D01*
X1011588Y306464D01*
X1011748Y306498D01*
X1011907Y306527D01*
X1012068Y306553D01*
X1012229Y306575D01*
X1012391Y306593D01*
X1012553Y306607D01*
X1012715Y306617D01*
X1012877Y306623D01*
X1013040Y306625D01*
X1013203Y306623D01*
X1013365Y306617D01*
X1013527Y306607D01*
X1013689Y306593D01*
X1013851Y306575D01*
X1014012Y306553D01*
X1014173Y306527D01*
X1014332Y306498D01*
X1014492Y306464D01*
X1014650Y306426D01*
X1014807Y306385D01*
X1014963Y306340D01*
X1015118Y306291D01*
X1015272Y306238D01*
X1015424Y306181D01*
X1015575Y306121D01*
X1015725Y306057D01*
X1015873Y305989D01*
X1016019Y305918D01*
X1016163Y305843D01*
X1016305Y305764D01*
X1016446Y305682D01*
X1016584Y305597D01*
X1016721Y305508D01*
X1016855Y305416D01*
X1016987Y305321D01*
X1017116Y305223D01*
X1017243Y305121D01*
X1017367Y305017D01*
X1017489Y304909D01*
X1017608Y304798D01*
X1017725Y304685D01*
X1017838Y304568D01*
X1017949Y304449D01*
X1018057Y304327D01*
X1018161Y304203D01*
X1018263Y304076D01*
X1018361Y303947D01*
X1018456Y303815D01*
X1018548Y303681D01*
X1018637Y303544D01*
X1018722Y303406D01*
X1018804Y303265D01*
X1018883Y303123D01*
X1018958Y302979D01*
X1019029Y302833D01*
X1019097Y302685D01*
X1019161Y302535D01*
X1019221Y302384D01*
X1019278Y302232D01*
X1019331Y302078D01*
X1019380Y301923D01*
X1019425Y301767D01*
X1019466Y301610D01*
X1019504Y301452D01*
X1019538Y301292D01*
X1019567Y301133D01*
X1019593Y300972D01*
X1019615Y300811D01*
X1019633Y300649D01*
X1019647Y300487D01*
X1019657Y300325D01*
X1019663Y300163D01*
X1019665Y300000D01*
X1019663Y299837D01*
X1019657Y299675D01*
X1019647Y299513D01*
X1019633Y299351D01*
X1019615Y299189D01*
X1019593Y299028D01*
X1019567Y298867D01*
X1019538Y298708D01*
X1019504Y298548D01*
X1019466Y298390D01*
X1019425Y298233D01*
X1019380Y298077D01*
X1019331Y297922D01*
X1019278Y297768D01*
X1019221Y297616D01*
X1019161Y297465D01*
X1019097Y297315D01*
X1019029Y297167D01*
X1018958Y297021D01*
X1018883Y296877D01*
X1018804Y296735D01*
X1018722Y296594D01*
X1018637Y296456D01*
X1018548Y296319D01*
X1018456Y296185D01*
X1018361Y296053D01*
X1018263Y295924D01*
X1018161Y295797D01*
X1018057Y295673D01*
X1017949Y295551D01*
X1017838Y295432D01*
X1017725Y295315D01*
X1017608Y295202D01*
X1017489Y295091D01*
X1017367Y294983D01*
X1017243Y294879D01*
X1017116Y294777D01*
X1016987Y294679D01*
X1016855Y294584D01*
X1016721Y294492D01*
X1016584Y294403D01*
X1016446Y294318D01*
X1016305Y294236D01*
X1016163Y294157D01*
X1016019Y294082D01*
X1015873Y294011D01*
X1015725Y293943D01*
X1015575Y293879D01*
X1015424Y293819D01*
X1015272Y293762D01*
X1015118Y293709D01*
X1014963Y293660D01*
X1014807Y293615D01*
X1014650Y293574D01*
X1014492Y293536D01*
X1014332Y293502D01*
X1014173Y293473D01*
X1014012Y293447D01*
X1013851Y293425D01*
X1013689Y293407D01*
X1013527Y293393D01*
X1013365Y293383D01*
X1013203Y293377D01*
X1013040Y293375D01*
X1012877Y293377D01*
X1012715Y293383D01*
X1012553Y293393D01*
X1012391Y293407D01*
X1012229Y293425D01*
X1012068Y293447D01*
X1011907Y293473D01*
X1011748Y293502D01*
X1011588Y293536D01*
X1011430Y293574D01*
X1011273Y293615D01*
X1011117Y293660D01*
X1010962Y293709D01*
X1010808Y293762D01*
X1010656Y293819D01*
X1010505Y293879D01*
X1010355Y293943D01*
X1010207Y294011D01*
X1010061Y294082D01*
X1009917Y294157D01*
X1009775Y294236D01*
X1009634Y294318D01*
X1009496Y294403D01*
X1009359Y294492D01*
X1009225Y294584D01*
X1009093Y294679D01*
X1008964Y294777D01*
X1008837Y294879D01*
X1008713Y294983D01*
X1008591Y295091D01*
X1008472Y295202D01*
X1008355Y295315D01*
X1008242Y295432D01*
X1008131Y295551D01*
X1008023Y295673D01*
X1007919Y295797D01*
X1007817Y295924D01*
X1007719Y296053D01*
X1007624Y296185D01*
X1007532Y296319D01*
X1007443Y296456D01*
X1007358Y296594D01*
X1007276Y296735D01*
X1007197Y296877D01*
X1007122Y297021D01*
X1007051Y297167D01*
X1006983Y297315D01*
X1006919Y297465D01*
X1006859Y297616D01*
X1006802Y297768D01*
X1006749Y297922D01*
X1006700Y298077D01*
X1006655Y298233D01*
X1006614Y298390D01*
X1006576Y298548D01*
X1006542Y298708D01*
X1006513Y298867D01*
X1006487Y299028D01*
X1006465Y299189D01*
X1006447Y299351D01*
X1006433Y299513D01*
X1006423Y299675D01*
X1006417Y299837D01*
X1006415Y300000D01*
D31*
X1006540Y300000D03*
D32*
X1013040Y306500D03*
X1013040Y293500D03*
D31*
X1019540Y300000D03*
D33*
X1052540Y332000D03*
X1052540Y348000D03*
X1093540Y348000D03*
X1093540Y332000D03*
D19*
X1111540Y215000D03*
X1094540Y215000D03*
X1094540Y230000D03*
X1111540Y230000D03*
X1094540Y275000D03*
X1111540Y275000D03*
X1094540Y260000D03*
X1111540Y260000D03*
X1111540Y245000D03*
X1094540Y245000D03*
X1111540Y200000D03*
X1094540Y200000D03*
D13*
X1048040Y295000D03*
X1048040Y305000D03*
D15*
X1304690Y301300D03*
X1304690Y314000D03*
X1304690Y326700D03*
X1304690Y339400D03*
X1304690Y288600D03*
X1317390Y301300D03*
X1317390Y314000D03*
X1317390Y326700D03*
X1317390Y339400D03*
X1317390Y288600D03*
D13*
X1260040Y169000D03*
X1260040Y159000D03*
D19*
X1241540Y135000D03*
X1224540Y135000D03*
D13*
X1260040Y151000D03*
X1260040Y141000D03*
D28*
X1026040Y91000D03*
D29*
X1013040Y100000D03*
D28*
X1036040Y91000D03*
X1036040Y109000D03*
X1026040Y109000D03*
D30*
X1006415Y100000D02*
X1006417Y100163D01*
X1006423Y100325D01*
X1006433Y100487D01*
X1006447Y100649D01*
X1006465Y100811D01*
X1006487Y100972D01*
X1006513Y101133D01*
X1006542Y101292D01*
X1006576Y101452D01*
X1006614Y101610D01*
X1006655Y101767D01*
X1006700Y101923D01*
X1006749Y102078D01*
X1006802Y102232D01*
X1006859Y102384D01*
X1006919Y102535D01*
X1006983Y102685D01*
X1007051Y102833D01*
X1007122Y102979D01*
X1007197Y103123D01*
X1007276Y103265D01*
X1007358Y103406D01*
X1007443Y103544D01*
X1007532Y103681D01*
X1007624Y103815D01*
X1007719Y103947D01*
X1007817Y104076D01*
X1007919Y104203D01*
X1008023Y104327D01*
X1008131Y104449D01*
X1008242Y104568D01*
X1008355Y104685D01*
X1008472Y104798D01*
X1008591Y104909D01*
X1008713Y105017D01*
X1008837Y105121D01*
X1008964Y105223D01*
X1009093Y105321D01*
X1009225Y105416D01*
X1009359Y105508D01*
X1009496Y105597D01*
X1009634Y105682D01*
X1009775Y105764D01*
X1009917Y105843D01*
X1010061Y105918D01*
X1010207Y105989D01*
X1010355Y106057D01*
X1010505Y106121D01*
X1010656Y106181D01*
X1010808Y106238D01*
X1010962Y106291D01*
X1011117Y106340D01*
X1011273Y106385D01*
X1011430Y106426D01*
X1011588Y106464D01*
X1011748Y106498D01*
X1011907Y106527D01*
X1012068Y106553D01*
X1012229Y106575D01*
X1012391Y106593D01*
X1012553Y106607D01*
X1012715Y106617D01*
X1012877Y106623D01*
X1013040Y106625D01*
X1013203Y106623D01*
X1013365Y106617D01*
X1013527Y106607D01*
X1013689Y106593D01*
X1013851Y106575D01*
X1014012Y106553D01*
X1014173Y106527D01*
X1014332Y106498D01*
X1014492Y106464D01*
X1014650Y106426D01*
X1014807Y106385D01*
X1014963Y106340D01*
X1015118Y106291D01*
X1015272Y106238D01*
X1015424Y106181D01*
X1015575Y106121D01*
X1015725Y106057D01*
X1015873Y105989D01*
X1016019Y105918D01*
X1016163Y105843D01*
X1016305Y105764D01*
X1016446Y105682D01*
X1016584Y105597D01*
X1016721Y105508D01*
X1016855Y105416D01*
X1016987Y105321D01*
X1017116Y105223D01*
X1017243Y105121D01*
X1017367Y105017D01*
X1017489Y104909D01*
X1017608Y104798D01*
X1017725Y104685D01*
X1017838Y104568D01*
X1017949Y104449D01*
X1018057Y104327D01*
X1018161Y104203D01*
X1018263Y104076D01*
X1018361Y103947D01*
X1018456Y103815D01*
X1018548Y103681D01*
X1018637Y103544D01*
X1018722Y103406D01*
X1018804Y103265D01*
X1018883Y103123D01*
X1018958Y102979D01*
X1019029Y102833D01*
X1019097Y102685D01*
X1019161Y102535D01*
X1019221Y102384D01*
X1019278Y102232D01*
X1019331Y102078D01*
X1019380Y101923D01*
X1019425Y101767D01*
X1019466Y101610D01*
X1019504Y101452D01*
X1019538Y101292D01*
X1019567Y101133D01*
X1019593Y100972D01*
X1019615Y100811D01*
X1019633Y100649D01*
X1019647Y100487D01*
X1019657Y100325D01*
X1019663Y100163D01*
X1019665Y100000D01*
X1019663Y99837D01*
X1019657Y99675D01*
X1019647Y99513D01*
X1019633Y99351D01*
X1019615Y99189D01*
X1019593Y99028D01*
X1019567Y98867D01*
X1019538Y98708D01*
X1019504Y98548D01*
X1019466Y98390D01*
X1019425Y98233D01*
X1019380Y98077D01*
X1019331Y97922D01*
X1019278Y97768D01*
X1019221Y97616D01*
X1019161Y97465D01*
X1019097Y97315D01*
X1019029Y97167D01*
X1018958Y97021D01*
X1018883Y96877D01*
X1018804Y96735D01*
X1018722Y96594D01*
X1018637Y96456D01*
X1018548Y96319D01*
X1018456Y96185D01*
X1018361Y96053D01*
X1018263Y95924D01*
X1018161Y95797D01*
X1018057Y95673D01*
X1017949Y95551D01*
X1017838Y95432D01*
X1017725Y95315D01*
X1017608Y95202D01*
X1017489Y95091D01*
X1017367Y94983D01*
X1017243Y94879D01*
X1017116Y94777D01*
X1016987Y94679D01*
X1016855Y94584D01*
X1016721Y94492D01*
X1016584Y94403D01*
X1016446Y94318D01*
X1016305Y94236D01*
X1016163Y94157D01*
X1016019Y94082D01*
X1015873Y94011D01*
X1015725Y93943D01*
X1015575Y93879D01*
X1015424Y93819D01*
X1015272Y93762D01*
X1015118Y93709D01*
X1014963Y93660D01*
X1014807Y93615D01*
X1014650Y93574D01*
X1014492Y93536D01*
X1014332Y93502D01*
X1014173Y93473D01*
X1014012Y93447D01*
X1013851Y93425D01*
X1013689Y93407D01*
X1013527Y93393D01*
X1013365Y93383D01*
X1013203Y93377D01*
X1013040Y93375D01*
X1012877Y93377D01*
X1012715Y93383D01*
X1012553Y93393D01*
X1012391Y93407D01*
X1012229Y93425D01*
X1012068Y93447D01*
X1011907Y93473D01*
X1011748Y93502D01*
X1011588Y93536D01*
X1011430Y93574D01*
X1011273Y93615D01*
X1011117Y93660D01*
X1010962Y93709D01*
X1010808Y93762D01*
X1010656Y93819D01*
X1010505Y93879D01*
X1010355Y93943D01*
X1010207Y94011D01*
X1010061Y94082D01*
X1009917Y94157D01*
X1009775Y94236D01*
X1009634Y94318D01*
X1009496Y94403D01*
X1009359Y94492D01*
X1009225Y94584D01*
X1009093Y94679D01*
X1008964Y94777D01*
X1008837Y94879D01*
X1008713Y94983D01*
X1008591Y95091D01*
X1008472Y95202D01*
X1008355Y95315D01*
X1008242Y95432D01*
X1008131Y95551D01*
X1008023Y95673D01*
X1007919Y95797D01*
X1007817Y95924D01*
X1007719Y96053D01*
X1007624Y96185D01*
X1007532Y96319D01*
X1007443Y96456D01*
X1007358Y96594D01*
X1007276Y96735D01*
X1007197Y96877D01*
X1007122Y97021D01*
X1007051Y97167D01*
X1006983Y97315D01*
X1006919Y97465D01*
X1006859Y97616D01*
X1006802Y97768D01*
X1006749Y97922D01*
X1006700Y98077D01*
X1006655Y98233D01*
X1006614Y98390D01*
X1006576Y98548D01*
X1006542Y98708D01*
X1006513Y98867D01*
X1006487Y99028D01*
X1006465Y99189D01*
X1006447Y99351D01*
X1006433Y99513D01*
X1006423Y99675D01*
X1006417Y99837D01*
X1006415Y100000D01*
D31*
X1006540Y100000D03*
D32*
X1013040Y106500D03*
X1013040Y93500D03*
D31*
X1019540Y100000D03*
D13*
X1048040Y95000D03*
X1048040Y105000D03*
D34*
X1135540Y346000D03*
D35*
X1261290Y358500D03*
D36*
X1274540Y355000D03*
X1111540Y355000D03*
D35*
X1124790Y358500D03*
D34*
X1140540Y346000D03*
X1145540Y346000D03*
X1150540Y346000D03*
X1155540Y346000D03*
X1160540Y346000D03*
X1165540Y346000D03*
X1170540Y346000D03*
X1175540Y346000D03*
X1180540Y346000D03*
X1185540Y346000D03*
X1190540Y346000D03*
X1195540Y346000D03*
X1200540Y346000D03*
X1205540Y346000D03*
X1210540Y346000D03*
X1215540Y346000D03*
X1220540Y346000D03*
X1225540Y346000D03*
X1230540Y346000D03*
X1235540Y346000D03*
X1240540Y346000D03*
X1245540Y346000D03*
X1250540Y346000D03*
D10*
X65000Y592380D03*
X65000Y566980D03*
X65000Y541580D03*
X65000Y617780D03*
X65000Y643180D03*
X65000Y668580D03*
D11*
X15000Y655880D03*
X15000Y554280D03*
D12*
X250000Y587580D03*
X250000Y562580D03*
D13*
X230000Y570080D03*
X230000Y560080D03*
X230000Y580080D03*
X230000Y590080D03*
D14*
X28284Y433364D03*
X371716Y433364D03*
X28284Y776796D03*
X371716Y776796D03*
D15*
X10000Y795080D03*
X390000Y415080D03*
D16*
X197500Y507580D03*
X202500Y507580D03*
X202500Y522580D03*
X197500Y522580D03*
D17*
X192500Y522580D03*
X192500Y517580D03*
X192500Y507580D03*
X192500Y512580D03*
X207500Y507580D03*
X207500Y512580D03*
X207500Y517580D03*
X207500Y522580D03*
D18*
X240000Y523580D03*
X240000Y506580D03*
D13*
X225000Y520080D03*
X225000Y510080D03*
D18*
X250000Y723580D03*
X250000Y706580D03*
X270000Y723580D03*
X270000Y706580D03*
D19*
X168500Y525080D03*
X151500Y525080D03*
X168500Y505080D03*
X151500Y505080D03*
D20*
X121500Y570080D03*
X98500Y570080D03*
X121500Y590080D03*
X98500Y590080D03*
D21*
X180500Y682079D03*
X190000Y682079D03*
X199500Y682079D03*
X199500Y708081D03*
X180500Y708081D03*
D13*
X210000Y700080D03*
X210000Y690080D03*
X185000Y720080D03*
X195000Y720080D03*
D22*
X173490Y439800D02*
X166510Y439800D01*
X173490Y439800D02*
X173490Y432820D01*
X166510Y432820D01*
X166510Y439800D01*
X166510Y437620D02*
X173490Y437620D01*
X173490Y457340D02*
X166510Y457340D01*
X173490Y457340D02*
X173490Y450360D01*
X166510Y450360D01*
X166510Y457340D01*
X166510Y455160D02*
X173490Y455160D01*
X153490Y439800D02*
X146510Y439800D01*
X153490Y439800D02*
X153490Y432820D01*
X146510Y432820D01*
X146510Y439800D01*
X146510Y437620D02*
X153490Y437620D01*
X153490Y457340D02*
X146510Y457340D01*
X153490Y457340D02*
X153490Y450360D01*
X146510Y450360D01*
X146510Y457340D01*
X146510Y455160D02*
X153490Y455160D01*
X206510Y439800D02*
X213490Y439800D01*
X213490Y432820D01*
X206510Y432820D01*
X206510Y439800D01*
X206510Y437620D02*
X213490Y437620D01*
X213490Y457340D02*
X206510Y457340D01*
X213490Y457340D02*
X213490Y450360D01*
X206510Y450360D01*
X206510Y457340D01*
X206510Y455160D02*
X213490Y455160D01*
X193490Y439800D02*
X186510Y439800D01*
X193490Y439800D02*
X193490Y432820D01*
X186510Y432820D01*
X186510Y439800D01*
X186510Y437620D02*
X193490Y437620D01*
X193490Y457340D02*
X186510Y457340D01*
X193490Y457340D02*
X193490Y450360D01*
X186510Y450360D01*
X186510Y457340D01*
X186510Y455160D02*
X193490Y455160D01*
D18*
X170000Y466580D03*
X170000Y483580D03*
X150000Y466580D03*
X150000Y483580D03*
X210000Y466580D03*
X210000Y483580D03*
X190000Y466580D03*
X190000Y483580D03*
D23*
X228600Y417780D03*
X254000Y417780D03*
X279400Y417780D03*
X304800Y417780D03*
X330200Y417780D03*
X228600Y443180D03*
X254000Y443180D03*
X279400Y443180D03*
X304800Y443180D03*
X330200Y443180D03*
D13*
X185000Y668080D03*
X195000Y668080D03*
D24*
X386750Y667080D03*
X386750Y723080D03*
D25*
X350000Y680080D03*
X350000Y690080D03*
X350000Y700080D03*
X350000Y710080D03*
D13*
X210000Y550080D03*
X210000Y540080D03*
X190000Y550080D03*
X190000Y540080D03*
D26*
X395000Y650080D03*
X390000Y642080D03*
X385000Y650080D03*
X380000Y642080D03*
X375000Y650080D03*
X370000Y642080D03*
X365000Y650080D03*
X360000Y642080D03*
X355000Y650080D03*
X350000Y642080D03*
X345000Y650080D03*
X340000Y642080D03*
X335000Y650080D03*
X330000Y642080D03*
X325000Y650080D03*
X320000Y642080D03*
X315000Y650080D03*
X310000Y642080D03*
X305000Y650080D03*
X300000Y642080D03*
X295000Y650080D03*
D13*
X285000Y650080D03*
D27*
X285000Y640080D03*
X293000Y635080D03*
X285000Y630080D03*
X293000Y625080D03*
X285000Y620080D03*
X293000Y615080D03*
X285000Y610080D03*
X293000Y605080D03*
X285000Y600080D03*
X293000Y595080D03*
X285000Y590080D03*
X293000Y585080D03*
X285000Y580080D03*
X293000Y575080D03*
X285000Y570080D03*
D13*
X285000Y560080D03*
D26*
X295000Y560080D03*
X300000Y568080D03*
X305000Y560080D03*
X310000Y568080D03*
X315000Y560080D03*
X320000Y568080D03*
X325000Y560080D03*
X330000Y568080D03*
X335000Y560080D03*
X340000Y568080D03*
X345000Y560080D03*
X350000Y568080D03*
X355000Y560080D03*
X360000Y568080D03*
X365000Y560080D03*
X370000Y568080D03*
X375000Y560080D03*
X380000Y568080D03*
X385000Y560080D03*
X390000Y568080D03*
X395000Y560080D03*
D28*
X33000Y696080D03*
D29*
X20000Y705080D03*
D28*
X43000Y696080D03*
X43000Y714080D03*
X33000Y714080D03*
D30*
X13375Y705080D02*
X13377Y705243D01*
X13383Y705405D01*
X13393Y705567D01*
X13407Y705729D01*
X13425Y705891D01*
X13447Y706052D01*
X13473Y706213D01*
X13502Y706372D01*
X13536Y706532D01*
X13574Y706690D01*
X13615Y706847D01*
X13660Y707003D01*
X13709Y707158D01*
X13762Y707312D01*
X13819Y707464D01*
X13879Y707615D01*
X13943Y707765D01*
X14011Y707913D01*
X14082Y708059D01*
X14157Y708203D01*
X14236Y708345D01*
X14318Y708486D01*
X14403Y708624D01*
X14492Y708761D01*
X14584Y708895D01*
X14679Y709027D01*
X14777Y709156D01*
X14879Y709283D01*
X14983Y709407D01*
X15091Y709529D01*
X15202Y709648D01*
X15315Y709765D01*
X15432Y709878D01*
X15551Y709989D01*
X15673Y710097D01*
X15797Y710201D01*
X15924Y710303D01*
X16053Y710401D01*
X16185Y710496D01*
X16319Y710588D01*
X16456Y710677D01*
X16594Y710762D01*
X16735Y710844D01*
X16877Y710923D01*
X17021Y710998D01*
X17167Y711069D01*
X17315Y711137D01*
X17465Y711201D01*
X17616Y711261D01*
X17768Y711318D01*
X17922Y711371D01*
X18077Y711420D01*
X18233Y711465D01*
X18390Y711506D01*
X18548Y711544D01*
X18708Y711578D01*
X18867Y711607D01*
X19028Y711633D01*
X19189Y711655D01*
X19351Y711673D01*
X19513Y711687D01*
X19675Y711697D01*
X19837Y711703D01*
X20000Y711705D01*
X20163Y711703D01*
X20325Y711697D01*
X20487Y711687D01*
X20649Y711673D01*
X20811Y711655D01*
X20972Y711633D01*
X21133Y711607D01*
X21292Y711578D01*
X21452Y711544D01*
X21610Y711506D01*
X21767Y711465D01*
X21923Y711420D01*
X22078Y711371D01*
X22232Y711318D01*
X22384Y711261D01*
X22535Y711201D01*
X22685Y711137D01*
X22833Y711069D01*
X22979Y710998D01*
X23123Y710923D01*
X23265Y710844D01*
X23406Y710762D01*
X23544Y710677D01*
X23681Y710588D01*
X23815Y710496D01*
X23947Y710401D01*
X24076Y710303D01*
X24203Y710201D01*
X24327Y710097D01*
X24449Y709989D01*
X24568Y709878D01*
X24685Y709765D01*
X24798Y709648D01*
X24909Y709529D01*
X25017Y709407D01*
X25121Y709283D01*
X25223Y709156D01*
X25321Y709027D01*
X25416Y708895D01*
X25508Y708761D01*
X25597Y708624D01*
X25682Y708486D01*
X25764Y708345D01*
X25843Y708203D01*
X25918Y708059D01*
X25989Y707913D01*
X26057Y707765D01*
X26121Y707615D01*
X26181Y707464D01*
X26238Y707312D01*
X26291Y707158D01*
X26340Y707003D01*
X26385Y706847D01*
X26426Y706690D01*
X26464Y706532D01*
X26498Y706372D01*
X26527Y706213D01*
X26553Y706052D01*
X26575Y705891D01*
X26593Y705729D01*
X26607Y705567D01*
X26617Y705405D01*
X26623Y705243D01*
X26625Y705080D01*
X26623Y704917D01*
X26617Y704755D01*
X26607Y704593D01*
X26593Y704431D01*
X26575Y704269D01*
X26553Y704108D01*
X26527Y703947D01*
X26498Y703788D01*
X26464Y703628D01*
X26426Y703470D01*
X26385Y703313D01*
X26340Y703157D01*
X26291Y703002D01*
X26238Y702848D01*
X26181Y702696D01*
X26121Y702545D01*
X26057Y702395D01*
X25989Y702247D01*
X25918Y702101D01*
X25843Y701957D01*
X25764Y701815D01*
X25682Y701674D01*
X25597Y701536D01*
X25508Y701399D01*
X25416Y701265D01*
X25321Y701133D01*
X25223Y701004D01*
X25121Y700877D01*
X25017Y700753D01*
X24909Y700631D01*
X24798Y700512D01*
X24685Y700395D01*
X24568Y700282D01*
X24449Y700171D01*
X24327Y700063D01*
X24203Y699959D01*
X24076Y699857D01*
X23947Y699759D01*
X23815Y699664D01*
X23681Y699572D01*
X23544Y699483D01*
X23406Y699398D01*
X23265Y699316D01*
X23123Y699237D01*
X22979Y699162D01*
X22833Y699091D01*
X22685Y699023D01*
X22535Y698959D01*
X22384Y698899D01*
X22232Y698842D01*
X22078Y698789D01*
X21923Y698740D01*
X21767Y698695D01*
X21610Y698654D01*
X21452Y698616D01*
X21292Y698582D01*
X21133Y698553D01*
X20972Y698527D01*
X20811Y698505D01*
X20649Y698487D01*
X20487Y698473D01*
X20325Y698463D01*
X20163Y698457D01*
X20000Y698455D01*
X19837Y698457D01*
X19675Y698463D01*
X19513Y698473D01*
X19351Y698487D01*
X19189Y698505D01*
X19028Y698527D01*
X18867Y698553D01*
X18708Y698582D01*
X18548Y698616D01*
X18390Y698654D01*
X18233Y698695D01*
X18077Y698740D01*
X17922Y698789D01*
X17768Y698842D01*
X17616Y698899D01*
X17465Y698959D01*
X17315Y699023D01*
X17167Y699091D01*
X17021Y699162D01*
X16877Y699237D01*
X16735Y699316D01*
X16594Y699398D01*
X16456Y699483D01*
X16319Y699572D01*
X16185Y699664D01*
X16053Y699759D01*
X15924Y699857D01*
X15797Y699959D01*
X15673Y700063D01*
X15551Y700171D01*
X15432Y700282D01*
X15315Y700395D01*
X15202Y700512D01*
X15091Y700631D01*
X14983Y700753D01*
X14879Y700877D01*
X14777Y701004D01*
X14679Y701133D01*
X14584Y701265D01*
X14492Y701399D01*
X14403Y701536D01*
X14318Y701674D01*
X14236Y701815D01*
X14157Y701957D01*
X14082Y702101D01*
X14011Y702247D01*
X13943Y702395D01*
X13879Y702545D01*
X13819Y702696D01*
X13762Y702848D01*
X13709Y703002D01*
X13660Y703157D01*
X13615Y703313D01*
X13574Y703470D01*
X13536Y703628D01*
X13502Y703788D01*
X13473Y703947D01*
X13447Y704108D01*
X13425Y704269D01*
X13407Y704431D01*
X13393Y704593D01*
X13383Y704755D01*
X13377Y704917D01*
X13375Y705080D01*
D31*
X13500Y705080D03*
D32*
X20000Y711580D03*
X20000Y698580D03*
D31*
X26500Y705080D03*
D33*
X59500Y737080D03*
X59500Y753080D03*
X100500Y753080D03*
X100500Y737080D03*
D19*
X118500Y620080D03*
X101500Y620080D03*
X101500Y635080D03*
X118500Y635080D03*
X101500Y680080D03*
X118500Y680080D03*
X101500Y665080D03*
X118500Y665080D03*
X118500Y650080D03*
X101500Y650080D03*
X118500Y605080D03*
X101500Y605080D03*
D13*
X55000Y700080D03*
X55000Y710080D03*
D15*
X311650Y706380D03*
X311650Y719080D03*
X311650Y731780D03*
X311650Y744480D03*
X311650Y693680D03*
X324350Y706380D03*
X324350Y719080D03*
X324350Y731780D03*
X324350Y744480D03*
X324350Y693680D03*
D13*
X267000Y574080D03*
X267000Y564080D03*
D19*
X248500Y540080D03*
X231500Y540080D03*
D13*
X267000Y556080D03*
X267000Y546080D03*
D28*
X33000Y496080D03*
D29*
X20000Y505080D03*
D28*
X43000Y496080D03*
X43000Y514080D03*
X33000Y514080D03*
D30*
X13375Y505080D02*
X13377Y505243D01*
X13383Y505405D01*
X13393Y505567D01*
X13407Y505729D01*
X13425Y505891D01*
X13447Y506052D01*
X13473Y506213D01*
X13502Y506372D01*
X13536Y506532D01*
X13574Y506690D01*
X13615Y506847D01*
X13660Y507003D01*
X13709Y507158D01*
X13762Y507312D01*
X13819Y507464D01*
X13879Y507615D01*
X13943Y507765D01*
X14011Y507913D01*
X14082Y508059D01*
X14157Y508203D01*
X14236Y508345D01*
X14318Y508486D01*
X14403Y508624D01*
X14492Y508761D01*
X14584Y508895D01*
X14679Y509027D01*
X14777Y509156D01*
X14879Y509283D01*
X14983Y509407D01*
X15091Y509529D01*
X15202Y509648D01*
X15315Y509765D01*
X15432Y509878D01*
X15551Y509989D01*
X15673Y510097D01*
X15797Y510201D01*
X15924Y510303D01*
X16053Y510401D01*
X16185Y510496D01*
X16319Y510588D01*
X16456Y510677D01*
X16594Y510762D01*
X16735Y510844D01*
X16877Y510923D01*
X17021Y510998D01*
X17167Y511069D01*
X17315Y511137D01*
X17465Y511201D01*
X17616Y511261D01*
X17768Y511318D01*
X17922Y511371D01*
X18077Y511420D01*
X18233Y511465D01*
X18390Y511506D01*
X18548Y511544D01*
X18708Y511578D01*
X18867Y511607D01*
X19028Y511633D01*
X19189Y511655D01*
X19351Y511673D01*
X19513Y511687D01*
X19675Y511697D01*
X19837Y511703D01*
X20000Y511705D01*
X20163Y511703D01*
X20325Y511697D01*
X20487Y511687D01*
X20649Y511673D01*
X20811Y511655D01*
X20972Y511633D01*
X21133Y511607D01*
X21292Y511578D01*
X21452Y511544D01*
X21610Y511506D01*
X21767Y511465D01*
X21923Y511420D01*
X22078Y511371D01*
X22232Y511318D01*
X22384Y511261D01*
X22535Y511201D01*
X22685Y511137D01*
X22833Y511069D01*
X22979Y510998D01*
X23123Y510923D01*
X23265Y510844D01*
X23406Y510762D01*
X23544Y510677D01*
X23681Y510588D01*
X23815Y510496D01*
X23947Y510401D01*
X24076Y510303D01*
X24203Y510201D01*
X24327Y510097D01*
X24449Y509989D01*
X24568Y509878D01*
X24685Y509765D01*
X24798Y509648D01*
X24909Y509529D01*
X25017Y509407D01*
X25121Y509283D01*
X25223Y509156D01*
X25321Y509027D01*
X25416Y508895D01*
X25508Y508761D01*
X25597Y508624D01*
X25682Y508486D01*
X25764Y508345D01*
X25843Y508203D01*
X25918Y508059D01*
X25989Y507913D01*
X26057Y507765D01*
X26121Y507615D01*
X26181Y507464D01*
X26238Y507312D01*
X26291Y507158D01*
X26340Y507003D01*
X26385Y506847D01*
X26426Y506690D01*
X26464Y506532D01*
X26498Y506372D01*
X26527Y506213D01*
X26553Y506052D01*
X26575Y505891D01*
X26593Y505729D01*
X26607Y505567D01*
X26617Y505405D01*
X26623Y505243D01*
X26625Y505080D01*
X26623Y504917D01*
X26617Y504755D01*
X26607Y504593D01*
X26593Y504431D01*
X26575Y504269D01*
X26553Y504108D01*
X26527Y503947D01*
X26498Y503788D01*
X26464Y503628D01*
X26426Y503470D01*
X26385Y503313D01*
X26340Y503157D01*
X26291Y503002D01*
X26238Y502848D01*
X26181Y502696D01*
X26121Y502545D01*
X26057Y502395D01*
X25989Y502247D01*
X25918Y502101D01*
X25843Y501957D01*
X25764Y501815D01*
X25682Y501674D01*
X25597Y501536D01*
X25508Y501399D01*
X25416Y501265D01*
X25321Y501133D01*
X25223Y501004D01*
X25121Y500877D01*
X25017Y500753D01*
X24909Y500631D01*
X24798Y500512D01*
X24685Y500395D01*
X24568Y500282D01*
X24449Y500171D01*
X24327Y500063D01*
X24203Y499959D01*
X24076Y499857D01*
X23947Y499759D01*
X23815Y499664D01*
X23681Y499572D01*
X23544Y499483D01*
X23406Y499398D01*
X23265Y499316D01*
X23123Y499237D01*
X22979Y499162D01*
X22833Y499091D01*
X22685Y499023D01*
X22535Y498959D01*
X22384Y498899D01*
X22232Y498842D01*
X22078Y498789D01*
X21923Y498740D01*
X21767Y498695D01*
X21610Y498654D01*
X21452Y498616D01*
X21292Y498582D01*
X21133Y498553D01*
X20972Y498527D01*
X20811Y498505D01*
X20649Y498487D01*
X20487Y498473D01*
X20325Y498463D01*
X20163Y498457D01*
X20000Y498455D01*
X19837Y498457D01*
X19675Y498463D01*
X19513Y498473D01*
X19351Y498487D01*
X19189Y498505D01*
X19028Y498527D01*
X18867Y498553D01*
X18708Y498582D01*
X18548Y498616D01*
X18390Y498654D01*
X18233Y498695D01*
X18077Y498740D01*
X17922Y498789D01*
X17768Y498842D01*
X17616Y498899D01*
X17465Y498959D01*
X17315Y499023D01*
X17167Y499091D01*
X17021Y499162D01*
X16877Y499237D01*
X16735Y499316D01*
X16594Y499398D01*
X16456Y499483D01*
X16319Y499572D01*
X16185Y499664D01*
X16053Y499759D01*
X15924Y499857D01*
X15797Y499959D01*
X15673Y500063D01*
X15551Y500171D01*
X15432Y500282D01*
X15315Y500395D01*
X15202Y500512D01*
X15091Y500631D01*
X14983Y500753D01*
X14879Y500877D01*
X14777Y501004D01*
X14679Y501133D01*
X14584Y501265D01*
X14492Y501399D01*
X14403Y501536D01*
X14318Y501674D01*
X14236Y501815D01*
X14157Y501957D01*
X14082Y502101D01*
X14011Y502247D01*
X13943Y502395D01*
X13879Y502545D01*
X13819Y502696D01*
X13762Y502848D01*
X13709Y503002D01*
X13660Y503157D01*
X13615Y503313D01*
X13574Y503470D01*
X13536Y503628D01*
X13502Y503788D01*
X13473Y503947D01*
X13447Y504108D01*
X13425Y504269D01*
X13407Y504431D01*
X13393Y504593D01*
X13383Y504755D01*
X13377Y504917D01*
X13375Y505080D01*
D31*
X13500Y505080D03*
D32*
X20000Y511580D03*
X20000Y498580D03*
D31*
X26500Y505080D03*
D13*
X55000Y500080D03*
X55000Y510080D03*
D34*
X142500Y751080D03*
D35*
X268250Y763580D03*
D36*
X281500Y760080D03*
X118500Y760080D03*
D35*
X131750Y763580D03*
D34*
X147500Y751080D03*
X152500Y751080D03*
X157500Y751080D03*
X162500Y751080D03*
X167500Y751080D03*
X172500Y751080D03*
X177500Y751080D03*
X182500Y751080D03*
X187500Y751080D03*
X192500Y751080D03*
X197500Y751080D03*
X202500Y751080D03*
X207500Y751080D03*
X212500Y751080D03*
X217500Y751080D03*
X222500Y751080D03*
X227500Y751080D03*
X232500Y751080D03*
X237500Y751080D03*
X242500Y751080D03*
X247500Y751080D03*
X252500Y751080D03*
X257500Y751080D03*
D10*
X561520Y592380D03*
X561520Y566980D03*
X561520Y541580D03*
X561520Y617780D03*
X561520Y643180D03*
X561520Y668580D03*
D11*
X511520Y655880D03*
X511520Y554280D03*
D12*
X746520Y587580D03*
X746520Y562580D03*
D13*
X726520Y570080D03*
X726520Y560080D03*
X726520Y580080D03*
X726520Y590080D03*
D14*
X524804Y433364D03*
X868236Y433364D03*
X524804Y776796D03*
X868236Y776796D03*
D15*
X506520Y795080D03*
X886520Y415080D03*
D16*
X694020Y507580D03*
X699020Y507580D03*
X699020Y522580D03*
X694020Y522580D03*
D17*
X689020Y522580D03*
X689020Y517580D03*
X689020Y507580D03*
X689020Y512580D03*
X704020Y507580D03*
X704020Y512580D03*
X704020Y517580D03*
X704020Y522580D03*
D18*
X736520Y523580D03*
X736520Y506580D03*
D13*
X721520Y520080D03*
X721520Y510080D03*
D18*
X746520Y723580D03*
X746520Y706580D03*
X766520Y723580D03*
X766520Y706580D03*
D19*
X665020Y525080D03*
X648020Y525080D03*
X665020Y505080D03*
X648020Y505080D03*
D20*
X618020Y570080D03*
X595020Y570080D03*
X618020Y590080D03*
X595020Y590080D03*
D21*
X677020Y682079D03*
X686520Y682079D03*
X696020Y682079D03*
X696020Y708081D03*
X677020Y708081D03*
D13*
X706520Y700080D03*
X706520Y690080D03*
X681520Y720080D03*
X691520Y720080D03*
D22*
X670010Y439800D02*
X663030Y439800D01*
X670010Y439800D02*
X670010Y432820D01*
X663030Y432820D01*
X663030Y439800D01*
X663030Y437620D02*
X670010Y437620D01*
X670010Y457340D02*
X663030Y457340D01*
X670010Y457340D02*
X670010Y450360D01*
X663030Y450360D01*
X663030Y457340D01*
X663030Y455160D02*
X670010Y455160D01*
X650010Y439800D02*
X643030Y439800D01*
X650010Y439800D02*
X650010Y432820D01*
X643030Y432820D01*
X643030Y439800D01*
X643030Y437620D02*
X650010Y437620D01*
X650010Y457340D02*
X643030Y457340D01*
X650010Y457340D02*
X650010Y450360D01*
X643030Y450360D01*
X643030Y457340D01*
X643030Y455160D02*
X650010Y455160D01*
X703030Y439800D02*
X710010Y439800D01*
X710010Y432820D01*
X703030Y432820D01*
X703030Y439800D01*
X703030Y437620D02*
X710010Y437620D01*
X710010Y457340D02*
X703030Y457340D01*
X710010Y457340D02*
X710010Y450360D01*
X703030Y450360D01*
X703030Y457340D01*
X703030Y455160D02*
X710010Y455160D01*
X690010Y439800D02*
X683030Y439800D01*
X690010Y439800D02*
X690010Y432820D01*
X683030Y432820D01*
X683030Y439800D01*
X683030Y437620D02*
X690010Y437620D01*
X690010Y457340D02*
X683030Y457340D01*
X690010Y457340D02*
X690010Y450360D01*
X683030Y450360D01*
X683030Y457340D01*
X683030Y455160D02*
X690010Y455160D01*
D18*
X666520Y466580D03*
X666520Y483580D03*
X646520Y466580D03*
X646520Y483580D03*
X706520Y466580D03*
X706520Y483580D03*
X686520Y466580D03*
X686520Y483580D03*
D23*
X725120Y417780D03*
X750520Y417780D03*
X775920Y417780D03*
X801320Y417780D03*
X826720Y417780D03*
X725120Y443180D03*
X750520Y443180D03*
X775920Y443180D03*
X801320Y443180D03*
X826720Y443180D03*
D13*
X681520Y668080D03*
X691520Y668080D03*
D24*
X883270Y667080D03*
X883270Y723080D03*
D25*
X846520Y680080D03*
X846520Y690080D03*
X846520Y700080D03*
X846520Y710080D03*
D13*
X706520Y550080D03*
X706520Y540080D03*
X686520Y550080D03*
X686520Y540080D03*
D26*
X891520Y650080D03*
X886520Y642080D03*
X881520Y650080D03*
X876520Y642080D03*
X871520Y650080D03*
X866520Y642080D03*
X861520Y650080D03*
X856520Y642080D03*
X851520Y650080D03*
X846520Y642080D03*
X841520Y650080D03*
X836520Y642080D03*
X831520Y650080D03*
X826520Y642080D03*
X821520Y650080D03*
X816520Y642080D03*
X811520Y650080D03*
X806520Y642080D03*
X801520Y650080D03*
X796520Y642080D03*
X791520Y650080D03*
D13*
X781520Y650080D03*
D27*
X781520Y640080D03*
X789520Y635080D03*
X781520Y630080D03*
X789520Y625080D03*
X781520Y620080D03*
X789520Y615080D03*
X781520Y610080D03*
X789520Y605080D03*
X781520Y600080D03*
X789520Y595080D03*
X781520Y590080D03*
X789520Y585080D03*
X781520Y580080D03*
X789520Y575080D03*
X781520Y570080D03*
D13*
X781520Y560080D03*
D26*
X791520Y560080D03*
X796520Y568080D03*
X801520Y560080D03*
X806520Y568080D03*
X811520Y560080D03*
X816520Y568080D03*
X821520Y560080D03*
X826520Y568080D03*
X831520Y560080D03*
X836520Y568080D03*
X841520Y560080D03*
X846520Y568080D03*
X851520Y560080D03*
X856520Y568080D03*
X861520Y560080D03*
X866520Y568080D03*
X871520Y560080D03*
X876520Y568080D03*
X881520Y560080D03*
X886520Y568080D03*
X891520Y560080D03*
D28*
X529520Y696080D03*
D29*
X516520Y705080D03*
D28*
X539520Y696080D03*
X539520Y714080D03*
X529520Y714080D03*
D30*
X509895Y705080D02*
X509897Y705243D01*
X509903Y705405D01*
X509913Y705567D01*
X509927Y705729D01*
X509945Y705891D01*
X509967Y706052D01*
X509993Y706213D01*
X510022Y706372D01*
X510056Y706532D01*
X510094Y706690D01*
X510135Y706847D01*
X510180Y707003D01*
X510229Y707158D01*
X510282Y707312D01*
X510339Y707464D01*
X510399Y707615D01*
X510463Y707765D01*
X510531Y707913D01*
X510602Y708059D01*
X510677Y708203D01*
X510756Y708345D01*
X510838Y708486D01*
X510923Y708624D01*
X511012Y708761D01*
X511104Y708895D01*
X511199Y709027D01*
X511297Y709156D01*
X511399Y709283D01*
X511503Y709407D01*
X511611Y709529D01*
X511722Y709648D01*
X511835Y709765D01*
X511952Y709878D01*
X512071Y709989D01*
X512193Y710097D01*
X512317Y710201D01*
X512444Y710303D01*
X512573Y710401D01*
X512705Y710496D01*
X512839Y710588D01*
X512976Y710677D01*
X513114Y710762D01*
X513255Y710844D01*
X513397Y710923D01*
X513541Y710998D01*
X513687Y711069D01*
X513835Y711137D01*
X513985Y711201D01*
X514136Y711261D01*
X514288Y711318D01*
X514442Y711371D01*
X514597Y711420D01*
X514753Y711465D01*
X514910Y711506D01*
X515068Y711544D01*
X515228Y711578D01*
X515387Y711607D01*
X515548Y711633D01*
X515709Y711655D01*
X515871Y711673D01*
X516033Y711687D01*
X516195Y711697D01*
X516357Y711703D01*
X516520Y711705D01*
X516683Y711703D01*
X516845Y711697D01*
X517007Y711687D01*
X517169Y711673D01*
X517331Y711655D01*
X517492Y711633D01*
X517653Y711607D01*
X517812Y711578D01*
X517972Y711544D01*
X518130Y711506D01*
X518287Y711465D01*
X518443Y711420D01*
X518598Y711371D01*
X518752Y711318D01*
X518904Y711261D01*
X519055Y711201D01*
X519205Y711137D01*
X519353Y711069D01*
X519499Y710998D01*
X519643Y710923D01*
X519785Y710844D01*
X519926Y710762D01*
X520064Y710677D01*
X520201Y710588D01*
X520335Y710496D01*
X520467Y710401D01*
X520596Y710303D01*
X520723Y710201D01*
X520847Y710097D01*
X520969Y709989D01*
X521088Y709878D01*
X521205Y709765D01*
X521318Y709648D01*
X521429Y709529D01*
X521537Y709407D01*
X521641Y709283D01*
X521743Y709156D01*
X521841Y709027D01*
X521936Y708895D01*
X522028Y708761D01*
X522117Y708624D01*
X522202Y708486D01*
X522284Y708345D01*
X522363Y708203D01*
X522438Y708059D01*
X522509Y707913D01*
X522577Y707765D01*
X522641Y707615D01*
X522701Y707464D01*
X522758Y707312D01*
X522811Y707158D01*
X522860Y707003D01*
X522905Y706847D01*
X522946Y706690D01*
X522984Y706532D01*
X523018Y706372D01*
X523047Y706213D01*
X523073Y706052D01*
X523095Y705891D01*
X523113Y705729D01*
X523127Y705567D01*
X523137Y705405D01*
X523143Y705243D01*
X523145Y705080D01*
X523143Y704917D01*
X523137Y704755D01*
X523127Y704593D01*
X523113Y704431D01*
X523095Y704269D01*
X523073Y704108D01*
X523047Y703947D01*
X523018Y703788D01*
X522984Y703628D01*
X522946Y703470D01*
X522905Y703313D01*
X522860Y703157D01*
X522811Y703002D01*
X522758Y702848D01*
X522701Y702696D01*
X522641Y702545D01*
X522577Y702395D01*
X522509Y702247D01*
X522438Y702101D01*
X522363Y701957D01*
X522284Y701815D01*
X522202Y701674D01*
X522117Y701536D01*
X522028Y701399D01*
X521936Y701265D01*
X521841Y701133D01*
X521743Y701004D01*
X521641Y700877D01*
X521537Y700753D01*
X521429Y700631D01*
X521318Y700512D01*
X521205Y700395D01*
X521088Y700282D01*
X520969Y700171D01*
X520847Y700063D01*
X520723Y699959D01*
X520596Y699857D01*
X520467Y699759D01*
X520335Y699664D01*
X520201Y699572D01*
X520064Y699483D01*
X519926Y699398D01*
X519785Y699316D01*
X519643Y699237D01*
X519499Y699162D01*
X519353Y699091D01*
X519205Y699023D01*
X519055Y698959D01*
X518904Y698899D01*
X518752Y698842D01*
X518598Y698789D01*
X518443Y698740D01*
X518287Y698695D01*
X518130Y698654D01*
X517972Y698616D01*
X517812Y698582D01*
X517653Y698553D01*
X517492Y698527D01*
X517331Y698505D01*
X517169Y698487D01*
X517007Y698473D01*
X516845Y698463D01*
X516683Y698457D01*
X516520Y698455D01*
X516357Y698457D01*
X516195Y698463D01*
X516033Y698473D01*
X515871Y698487D01*
X515709Y698505D01*
X515548Y698527D01*
X515387Y698553D01*
X515228Y698582D01*
X515068Y698616D01*
X514910Y698654D01*
X514753Y698695D01*
X514597Y698740D01*
X514442Y698789D01*
X514288Y698842D01*
X514136Y698899D01*
X513985Y698959D01*
X513835Y699023D01*
X513687Y699091D01*
X513541Y699162D01*
X513397Y699237D01*
X513255Y699316D01*
X513114Y699398D01*
X512976Y699483D01*
X512839Y699572D01*
X512705Y699664D01*
X512573Y699759D01*
X512444Y699857D01*
X512317Y699959D01*
X512193Y700063D01*
X512071Y700171D01*
X511952Y700282D01*
X511835Y700395D01*
X511722Y700512D01*
X511611Y700631D01*
X511503Y700753D01*
X511399Y700877D01*
X511297Y701004D01*
X511199Y701133D01*
X511104Y701265D01*
X511012Y701399D01*
X510923Y701536D01*
X510838Y701674D01*
X510756Y701815D01*
X510677Y701957D01*
X510602Y702101D01*
X510531Y702247D01*
X510463Y702395D01*
X510399Y702545D01*
X510339Y702696D01*
X510282Y702848D01*
X510229Y703002D01*
X510180Y703157D01*
X510135Y703313D01*
X510094Y703470D01*
X510056Y703628D01*
X510022Y703788D01*
X509993Y703947D01*
X509967Y704108D01*
X509945Y704269D01*
X509927Y704431D01*
X509913Y704593D01*
X509903Y704755D01*
X509897Y704917D01*
X509895Y705080D01*
D31*
X510020Y705080D03*
D32*
X516520Y711580D03*
X516520Y698580D03*
D31*
X523020Y705080D03*
D33*
X556020Y737080D03*
X556020Y753080D03*
X597020Y753080D03*
X597020Y737080D03*
D19*
X615020Y620080D03*
X598020Y620080D03*
X598020Y635080D03*
X615020Y635080D03*
X598020Y680080D03*
X615020Y680080D03*
X598020Y665080D03*
X615020Y665080D03*
X615020Y650080D03*
X598020Y650080D03*
X615020Y605080D03*
X598020Y605080D03*
D13*
X551520Y700080D03*
X551520Y710080D03*
D15*
X808170Y706380D03*
X808170Y719080D03*
X808170Y731780D03*
X808170Y744480D03*
X808170Y693680D03*
X820870Y706380D03*
X820870Y719080D03*
X820870Y731780D03*
X820870Y744480D03*
X820870Y693680D03*
D13*
X763520Y574080D03*
X763520Y564080D03*
D19*
X745020Y540080D03*
X728020Y540080D03*
D13*
X763520Y556080D03*
X763520Y546080D03*
D28*
X529520Y496080D03*
D29*
X516520Y505080D03*
D28*
X539520Y496080D03*
X539520Y514080D03*
X529520Y514080D03*
D30*
X509895Y505080D02*
X509897Y505243D01*
X509903Y505405D01*
X509913Y505567D01*
X509927Y505729D01*
X509945Y505891D01*
X509967Y506052D01*
X509993Y506213D01*
X510022Y506372D01*
X510056Y506532D01*
X510094Y506690D01*
X510135Y506847D01*
X510180Y507003D01*
X510229Y507158D01*
X510282Y507312D01*
X510339Y507464D01*
X510399Y507615D01*
X510463Y507765D01*
X510531Y507913D01*
X510602Y508059D01*
X510677Y508203D01*
X510756Y508345D01*
X510838Y508486D01*
X510923Y508624D01*
X511012Y508761D01*
X511104Y508895D01*
X511199Y509027D01*
X511297Y509156D01*
X511399Y509283D01*
X511503Y509407D01*
X511611Y509529D01*
X511722Y509648D01*
X511835Y509765D01*
X511952Y509878D01*
X512071Y509989D01*
X512193Y510097D01*
X512317Y510201D01*
X512444Y510303D01*
X512573Y510401D01*
X512705Y510496D01*
X512839Y510588D01*
X512976Y510677D01*
X513114Y510762D01*
X513255Y510844D01*
X513397Y510923D01*
X513541Y510998D01*
X513687Y511069D01*
X513835Y511137D01*
X513985Y511201D01*
X514136Y511261D01*
X514288Y511318D01*
X514442Y511371D01*
X514597Y511420D01*
X514753Y511465D01*
X514910Y511506D01*
X515068Y511544D01*
X515228Y511578D01*
X515387Y511607D01*
X515548Y511633D01*
X515709Y511655D01*
X515871Y511673D01*
X516033Y511687D01*
X516195Y511697D01*
X516357Y511703D01*
X516520Y511705D01*
X516683Y511703D01*
X516845Y511697D01*
X517007Y511687D01*
X517169Y511673D01*
X517331Y511655D01*
X517492Y511633D01*
X517653Y511607D01*
X517812Y511578D01*
X517972Y511544D01*
X518130Y511506D01*
X518287Y511465D01*
X518443Y511420D01*
X518598Y511371D01*
X518752Y511318D01*
X518904Y511261D01*
X519055Y511201D01*
X519205Y511137D01*
X519353Y511069D01*
X519499Y510998D01*
X519643Y510923D01*
X519785Y510844D01*
X519926Y510762D01*
X520064Y510677D01*
X520201Y510588D01*
X520335Y510496D01*
X520467Y510401D01*
X520596Y510303D01*
X520723Y510201D01*
X520847Y510097D01*
X520969Y509989D01*
X521088Y509878D01*
X521205Y509765D01*
X521318Y509648D01*
X521429Y509529D01*
X521537Y509407D01*
X521641Y509283D01*
X521743Y509156D01*
X521841Y509027D01*
X521936Y508895D01*
X522028Y508761D01*
X522117Y508624D01*
X522202Y508486D01*
X522284Y508345D01*
X522363Y508203D01*
X522438Y508059D01*
X522509Y507913D01*
X522577Y507765D01*
X522641Y507615D01*
X522701Y507464D01*
X522758Y507312D01*
X522811Y507158D01*
X522860Y507003D01*
X522905Y506847D01*
X522946Y506690D01*
X522984Y506532D01*
X523018Y506372D01*
X523047Y506213D01*
X523073Y506052D01*
X523095Y505891D01*
X523113Y505729D01*
X523127Y505567D01*
X523137Y505405D01*
X523143Y505243D01*
X523145Y505080D01*
X523143Y504917D01*
X523137Y504755D01*
X523127Y504593D01*
X523113Y504431D01*
X523095Y504269D01*
X523073Y504108D01*
X523047Y503947D01*
X523018Y503788D01*
X522984Y503628D01*
X522946Y503470D01*
X522905Y503313D01*
X522860Y503157D01*
X522811Y503002D01*
X522758Y502848D01*
X522701Y502696D01*
X522641Y502545D01*
X522577Y502395D01*
X522509Y502247D01*
X522438Y502101D01*
X522363Y501957D01*
X522284Y501815D01*
X522202Y501674D01*
X522117Y501536D01*
X522028Y501399D01*
X521936Y501265D01*
X521841Y501133D01*
X521743Y501004D01*
X521641Y500877D01*
X521537Y500753D01*
X521429Y500631D01*
X521318Y500512D01*
X521205Y500395D01*
X521088Y500282D01*
X520969Y500171D01*
X520847Y500063D01*
X520723Y499959D01*
X520596Y499857D01*
X520467Y499759D01*
X520335Y499664D01*
X520201Y499572D01*
X520064Y499483D01*
X519926Y499398D01*
X519785Y499316D01*
X519643Y499237D01*
X519499Y499162D01*
X519353Y499091D01*
X519205Y499023D01*
X519055Y498959D01*
X518904Y498899D01*
X518752Y498842D01*
X518598Y498789D01*
X518443Y498740D01*
X518287Y498695D01*
X518130Y498654D01*
X517972Y498616D01*
X517812Y498582D01*
X517653Y498553D01*
X517492Y498527D01*
X517331Y498505D01*
X517169Y498487D01*
X517007Y498473D01*
X516845Y498463D01*
X516683Y498457D01*
X516520Y498455D01*
X516357Y498457D01*
X516195Y498463D01*
X516033Y498473D01*
X515871Y498487D01*
X515709Y498505D01*
X515548Y498527D01*
X515387Y498553D01*
X515228Y498582D01*
X515068Y498616D01*
X514910Y498654D01*
X514753Y498695D01*
X514597Y498740D01*
X514442Y498789D01*
X514288Y498842D01*
X514136Y498899D01*
X513985Y498959D01*
X513835Y499023D01*
X513687Y499091D01*
X513541Y499162D01*
X513397Y499237D01*
X513255Y499316D01*
X513114Y499398D01*
X512976Y499483D01*
X512839Y499572D01*
X512705Y499664D01*
X512573Y499759D01*
X512444Y499857D01*
X512317Y499959D01*
X512193Y500063D01*
X512071Y500171D01*
X511952Y500282D01*
X511835Y500395D01*
X511722Y500512D01*
X511611Y500631D01*
X511503Y500753D01*
X511399Y500877D01*
X511297Y501004D01*
X511199Y501133D01*
X511104Y501265D01*
X511012Y501399D01*
X510923Y501536D01*
X510838Y501674D01*
X510756Y501815D01*
X510677Y501957D01*
X510602Y502101D01*
X510531Y502247D01*
X510463Y502395D01*
X510399Y502545D01*
X510339Y502696D01*
X510282Y502848D01*
X510229Y503002D01*
X510180Y503157D01*
X510135Y503313D01*
X510094Y503470D01*
X510056Y503628D01*
X510022Y503788D01*
X509993Y503947D01*
X509967Y504108D01*
X509945Y504269D01*
X509927Y504431D01*
X509913Y504593D01*
X509903Y504755D01*
X509897Y504917D01*
X509895Y505080D01*
D31*
X510020Y505080D03*
D32*
X516520Y511580D03*
X516520Y498580D03*
D31*
X523020Y505080D03*
D13*
X551520Y500080D03*
X551520Y510080D03*
D34*
X639020Y751080D03*
D35*
X764770Y763580D03*
D36*
X778020Y760080D03*
X615020Y760080D03*
D35*
X628270Y763580D03*
D34*
X644020Y751080D03*
X649020Y751080D03*
X654020Y751080D03*
X659020Y751080D03*
X664020Y751080D03*
X669020Y751080D03*
X674020Y751080D03*
X679020Y751080D03*
X684020Y751080D03*
X689020Y751080D03*
X694020Y751080D03*
X699020Y751080D03*
X704020Y751080D03*
X709020Y751080D03*
X714020Y751080D03*
X719020Y751080D03*
X724020Y751080D03*
X729020Y751080D03*
X734020Y751080D03*
X739020Y751080D03*
X744020Y751080D03*
X749020Y751080D03*
X754020Y751080D03*
D10*
X1058040Y592380D03*
X1058040Y566980D03*
X1058040Y541580D03*
X1058040Y617780D03*
X1058040Y643180D03*
X1058040Y668580D03*
D11*
X1008040Y655880D03*
X1008040Y554280D03*
D12*
X1243040Y587580D03*
X1243040Y562580D03*
D13*
X1223040Y570080D03*
X1223040Y560080D03*
X1223040Y580080D03*
X1223040Y590080D03*
D14*
X1021324Y433364D03*
X1364756Y433364D03*
X1021324Y776796D03*
X1364756Y776796D03*
D15*
X1003040Y795080D03*
X1383040Y415080D03*
D16*
X1190540Y507580D03*
X1195540Y507580D03*
X1195540Y522580D03*
X1190540Y522580D03*
D17*
X1185540Y522580D03*
X1185540Y517580D03*
X1185540Y507580D03*
X1185540Y512580D03*
X1200540Y507580D03*
X1200540Y512580D03*
X1200540Y517580D03*
X1200540Y522580D03*
D18*
X1233040Y523580D03*
X1233040Y506580D03*
D13*
X1218040Y520080D03*
X1218040Y510080D03*
D18*
X1243040Y723580D03*
X1243040Y706580D03*
X1263040Y723580D03*
X1263040Y706580D03*
D19*
X1161540Y525080D03*
X1144540Y525080D03*
X1161540Y505080D03*
X1144540Y505080D03*
D20*
X1114540Y570080D03*
X1091540Y570080D03*
X1114540Y590080D03*
X1091540Y590080D03*
D21*
X1173540Y682079D03*
X1183040Y682079D03*
X1192540Y682079D03*
X1192540Y708081D03*
X1173540Y708081D03*
D13*
X1203040Y700080D03*
X1203040Y690080D03*
X1178040Y720080D03*
X1188040Y720080D03*
D22*
X1166530Y439800D02*
X1159550Y439800D01*
X1166530Y439800D02*
X1166530Y432820D01*
X1159550Y432820D01*
X1159550Y439800D01*
X1159550Y437620D02*
X1166530Y437620D01*
X1166530Y457340D02*
X1159550Y457340D01*
X1166530Y457340D02*
X1166530Y450360D01*
X1159550Y450360D01*
X1159550Y457340D01*
X1159550Y455160D02*
X1166530Y455160D01*
X1146530Y439800D02*
X1139550Y439800D01*
X1146530Y439800D02*
X1146530Y432820D01*
X1139550Y432820D01*
X1139550Y439800D01*
X1139550Y437620D02*
X1146530Y437620D01*
X1146530Y457340D02*
X1139550Y457340D01*
X1146530Y457340D02*
X1146530Y450360D01*
X1139550Y450360D01*
X1139550Y457340D01*
X1139550Y455160D02*
X1146530Y455160D01*
X1199550Y439800D02*
X1206530Y439800D01*
X1206530Y432820D01*
X1199550Y432820D01*
X1199550Y439800D01*
X1199550Y437620D02*
X1206530Y437620D01*
X1206530Y457340D02*
X1199550Y457340D01*
X1206530Y457340D02*
X1206530Y450360D01*
X1199550Y450360D01*
X1199550Y457340D01*
X1199550Y455160D02*
X1206530Y455160D01*
X1186530Y439800D02*
X1179550Y439800D01*
X1186530Y439800D02*
X1186530Y432820D01*
X1179550Y432820D01*
X1179550Y439800D01*
X1179550Y437620D02*
X1186530Y437620D01*
X1186530Y457340D02*
X1179550Y457340D01*
X1186530Y457340D02*
X1186530Y450360D01*
X1179550Y450360D01*
X1179550Y457340D01*
X1179550Y455160D02*
X1186530Y455160D01*
D18*
X1163040Y466580D03*
X1163040Y483580D03*
X1143040Y466580D03*
X1143040Y483580D03*
X1203040Y466580D03*
X1203040Y483580D03*
X1183040Y466580D03*
X1183040Y483580D03*
D23*
X1221640Y417780D03*
X1247040Y417780D03*
X1272440Y417780D03*
X1297840Y417780D03*
X1323240Y417780D03*
X1221640Y443180D03*
X1247040Y443180D03*
X1272440Y443180D03*
X1297840Y443180D03*
X1323240Y443180D03*
D13*
X1178040Y668080D03*
X1188040Y668080D03*
D24*
X1379790Y667080D03*
X1379790Y723080D03*
D25*
X1343040Y680080D03*
X1343040Y690080D03*
X1343040Y700080D03*
X1343040Y710080D03*
D13*
X1203040Y550080D03*
X1203040Y540080D03*
X1183040Y550080D03*
X1183040Y540080D03*
D26*
X1388040Y650080D03*
X1383040Y642080D03*
X1378040Y650080D03*
X1373040Y642080D03*
X1368040Y650080D03*
X1363040Y642080D03*
X1358040Y650080D03*
X1353040Y642080D03*
X1348040Y650080D03*
X1343040Y642080D03*
X1338040Y650080D03*
X1333040Y642080D03*
X1328040Y650080D03*
X1323040Y642080D03*
X1318040Y650080D03*
X1313040Y642080D03*
X1308040Y650080D03*
X1303040Y642080D03*
X1298040Y650080D03*
X1293040Y642080D03*
X1288040Y650080D03*
D13*
X1278040Y650080D03*
D27*
X1278040Y640080D03*
X1286040Y635080D03*
X1278040Y630080D03*
X1286040Y625080D03*
X1278040Y620080D03*
X1286040Y615080D03*
X1278040Y610080D03*
X1286040Y605080D03*
X1278040Y600080D03*
X1286040Y595080D03*
X1278040Y590080D03*
X1286040Y585080D03*
X1278040Y580080D03*
X1286040Y575080D03*
X1278040Y570080D03*
D13*
X1278040Y560080D03*
D26*
X1288040Y560080D03*
X1293040Y568080D03*
X1298040Y560080D03*
X1303040Y568080D03*
X1308040Y560080D03*
X1313040Y568080D03*
X1318040Y560080D03*
X1323040Y568080D03*
X1328040Y560080D03*
X1333040Y568080D03*
X1338040Y560080D03*
X1343040Y568080D03*
X1348040Y560080D03*
X1353040Y568080D03*
X1358040Y560080D03*
X1363040Y568080D03*
X1368040Y560080D03*
X1373040Y568080D03*
X1378040Y560080D03*
X1383040Y568080D03*
X1388040Y560080D03*
D28*
X1026040Y696080D03*
D29*
X1013040Y705080D03*
D28*
X1036040Y696080D03*
X1036040Y714080D03*
X1026040Y714080D03*
D30*
X1006415Y705080D02*
X1006417Y705243D01*
X1006423Y705405D01*
X1006433Y705567D01*
X1006447Y705729D01*
X1006465Y705891D01*
X1006487Y706052D01*
X1006513Y706213D01*
X1006542Y706372D01*
X1006576Y706532D01*
X1006614Y706690D01*
X1006655Y706847D01*
X1006700Y707003D01*
X1006749Y707158D01*
X1006802Y707312D01*
X1006859Y707464D01*
X1006919Y707615D01*
X1006983Y707765D01*
X1007051Y707913D01*
X1007122Y708059D01*
X1007197Y708203D01*
X1007276Y708345D01*
X1007358Y708486D01*
X1007443Y708624D01*
X1007532Y708761D01*
X1007624Y708895D01*
X1007719Y709027D01*
X1007817Y709156D01*
X1007919Y709283D01*
X1008023Y709407D01*
X1008131Y709529D01*
X1008242Y709648D01*
X1008355Y709765D01*
X1008472Y709878D01*
X1008591Y709989D01*
X1008713Y710097D01*
X1008837Y710201D01*
X1008964Y710303D01*
X1009093Y710401D01*
X1009225Y710496D01*
X1009359Y710588D01*
X1009496Y710677D01*
X1009634Y710762D01*
X1009775Y710844D01*
X1009917Y710923D01*
X1010061Y710998D01*
X1010207Y711069D01*
X1010355Y711137D01*
X1010505Y711201D01*
X1010656Y711261D01*
X1010808Y711318D01*
X1010962Y711371D01*
X1011117Y711420D01*
X1011273Y711465D01*
X1011430Y711506D01*
X1011588Y711544D01*
X1011748Y711578D01*
X1011907Y711607D01*
X1012068Y711633D01*
X1012229Y711655D01*
X1012391Y711673D01*
X1012553Y711687D01*
X1012715Y711697D01*
X1012877Y711703D01*
X1013040Y711705D01*
X1013203Y711703D01*
X1013365Y711697D01*
X1013527Y711687D01*
X1013689Y711673D01*
X1013851Y711655D01*
X1014012Y711633D01*
X1014173Y711607D01*
X1014332Y711578D01*
X1014492Y711544D01*
X1014650Y711506D01*
X1014807Y711465D01*
X1014963Y711420D01*
X1015118Y711371D01*
X1015272Y711318D01*
X1015424Y711261D01*
X1015575Y711201D01*
X1015725Y711137D01*
X1015873Y711069D01*
X1016019Y710998D01*
X1016163Y710923D01*
X1016305Y710844D01*
X1016446Y710762D01*
X1016584Y710677D01*
X1016721Y710588D01*
X1016855Y710496D01*
X1016987Y710401D01*
X1017116Y710303D01*
X1017243Y710201D01*
X1017367Y710097D01*
X1017489Y709989D01*
X1017608Y709878D01*
X1017725Y709765D01*
X1017838Y709648D01*
X1017949Y709529D01*
X1018057Y709407D01*
X1018161Y709283D01*
X1018263Y709156D01*
X1018361Y709027D01*
X1018456Y708895D01*
X1018548Y708761D01*
X1018637Y708624D01*
X1018722Y708486D01*
X1018804Y708345D01*
X1018883Y708203D01*
X1018958Y708059D01*
X1019029Y707913D01*
X1019097Y707765D01*
X1019161Y707615D01*
X1019221Y707464D01*
X1019278Y707312D01*
X1019331Y707158D01*
X1019380Y707003D01*
X1019425Y706847D01*
X1019466Y706690D01*
X1019504Y706532D01*
X1019538Y706372D01*
X1019567Y706213D01*
X1019593Y706052D01*
X1019615Y705891D01*
X1019633Y705729D01*
X1019647Y705567D01*
X1019657Y705405D01*
X1019663Y705243D01*
X1019665Y705080D01*
X1019663Y704917D01*
X1019657Y704755D01*
X1019647Y704593D01*
X1019633Y704431D01*
X1019615Y704269D01*
X1019593Y704108D01*
X1019567Y703947D01*
X1019538Y703788D01*
X1019504Y703628D01*
X1019466Y703470D01*
X1019425Y703313D01*
X1019380Y703157D01*
X1019331Y703002D01*
X1019278Y702848D01*
X1019221Y702696D01*
X1019161Y702545D01*
X1019097Y702395D01*
X1019029Y702247D01*
X1018958Y702101D01*
X1018883Y701957D01*
X1018804Y701815D01*
X1018722Y701674D01*
X1018637Y701536D01*
X1018548Y701399D01*
X1018456Y701265D01*
X1018361Y701133D01*
X1018263Y701004D01*
X1018161Y700877D01*
X1018057Y700753D01*
X1017949Y700631D01*
X1017838Y700512D01*
X1017725Y700395D01*
X1017608Y700282D01*
X1017489Y700171D01*
X1017367Y700063D01*
X1017243Y699959D01*
X1017116Y699857D01*
X1016987Y699759D01*
X1016855Y699664D01*
X1016721Y699572D01*
X1016584Y699483D01*
X1016446Y699398D01*
X1016305Y699316D01*
X1016163Y699237D01*
X1016019Y699162D01*
X1015873Y699091D01*
X1015725Y699023D01*
X1015575Y698959D01*
X1015424Y698899D01*
X1015272Y698842D01*
X1015118Y698789D01*
X1014963Y698740D01*
X1014807Y698695D01*
X1014650Y698654D01*
X1014492Y698616D01*
X1014332Y698582D01*
X1014173Y698553D01*
X1014012Y698527D01*
X1013851Y698505D01*
X1013689Y698487D01*
X1013527Y698473D01*
X1013365Y698463D01*
X1013203Y698457D01*
X1013040Y698455D01*
X1012877Y698457D01*
X1012715Y698463D01*
X1012553Y698473D01*
X1012391Y698487D01*
X1012229Y698505D01*
X1012068Y698527D01*
X1011907Y698553D01*
X1011748Y698582D01*
X1011588Y698616D01*
X1011430Y698654D01*
X1011273Y698695D01*
X1011117Y698740D01*
X1010962Y698789D01*
X1010808Y698842D01*
X1010656Y698899D01*
X1010505Y698959D01*
X1010355Y699023D01*
X1010207Y699091D01*
X1010061Y699162D01*
X1009917Y699237D01*
X1009775Y699316D01*
X1009634Y699398D01*
X1009496Y699483D01*
X1009359Y699572D01*
X1009225Y699664D01*
X1009093Y699759D01*
X1008964Y699857D01*
X1008837Y699959D01*
X1008713Y700063D01*
X1008591Y700171D01*
X1008472Y700282D01*
X1008355Y700395D01*
X1008242Y700512D01*
X1008131Y700631D01*
X1008023Y700753D01*
X1007919Y700877D01*
X1007817Y701004D01*
X1007719Y701133D01*
X1007624Y701265D01*
X1007532Y701399D01*
X1007443Y701536D01*
X1007358Y701674D01*
X1007276Y701815D01*
X1007197Y701957D01*
X1007122Y702101D01*
X1007051Y702247D01*
X1006983Y702395D01*
X1006919Y702545D01*
X1006859Y702696D01*
X1006802Y702848D01*
X1006749Y703002D01*
X1006700Y703157D01*
X1006655Y703313D01*
X1006614Y703470D01*
X1006576Y703628D01*
X1006542Y703788D01*
X1006513Y703947D01*
X1006487Y704108D01*
X1006465Y704269D01*
X1006447Y704431D01*
X1006433Y704593D01*
X1006423Y704755D01*
X1006417Y704917D01*
X1006415Y705080D01*
D31*
X1006540Y705080D03*
D32*
X1013040Y711580D03*
X1013040Y698580D03*
D31*
X1019540Y705080D03*
D33*
X1052540Y737080D03*
X1052540Y753080D03*
X1093540Y753080D03*
X1093540Y737080D03*
D19*
X1111540Y620080D03*
X1094540Y620080D03*
X1094540Y635080D03*
X1111540Y635080D03*
X1094540Y680080D03*
X1111540Y680080D03*
X1094540Y665080D03*
X1111540Y665080D03*
X1111540Y650080D03*
X1094540Y650080D03*
X1111540Y605080D03*
X1094540Y605080D03*
D13*
X1048040Y700080D03*
X1048040Y710080D03*
D15*
X1304690Y706380D03*
X1304690Y719080D03*
X1304690Y731780D03*
X1304690Y744480D03*
X1304690Y693680D03*
X1317390Y706380D03*
X1317390Y719080D03*
X1317390Y731780D03*
X1317390Y744480D03*
X1317390Y693680D03*
D13*
X1260040Y574080D03*
X1260040Y564080D03*
D19*
X1241540Y540080D03*
X1224540Y540080D03*
D13*
X1260040Y556080D03*
X1260040Y546080D03*
D28*
X1026040Y496080D03*
D29*
X1013040Y505080D03*
D28*
X1036040Y496080D03*
X1036040Y514080D03*
X1026040Y514080D03*
D30*
X1006415Y505080D02*
X1006417Y505243D01*
X1006423Y505405D01*
X1006433Y505567D01*
X1006447Y505729D01*
X1006465Y505891D01*
X1006487Y506052D01*
X1006513Y506213D01*
X1006542Y506372D01*
X1006576Y506532D01*
X1006614Y506690D01*
X1006655Y506847D01*
X1006700Y507003D01*
X1006749Y507158D01*
X1006802Y507312D01*
X1006859Y507464D01*
X1006919Y507615D01*
X1006983Y507765D01*
X1007051Y507913D01*
X1007122Y508059D01*
X1007197Y508203D01*
X1007276Y508345D01*
X1007358Y508486D01*
X1007443Y508624D01*
X1007532Y508761D01*
X1007624Y508895D01*
X1007719Y509027D01*
X1007817Y509156D01*
X1007919Y509283D01*
X1008023Y509407D01*
X1008131Y509529D01*
X1008242Y509648D01*
X1008355Y509765D01*
X1008472Y509878D01*
X1008591Y509989D01*
X1008713Y510097D01*
X1008837Y510201D01*
X1008964Y510303D01*
X1009093Y510401D01*
X1009225Y510496D01*
X1009359Y510588D01*
X1009496Y510677D01*
X1009634Y510762D01*
X1009775Y510844D01*
X1009917Y510923D01*
X1010061Y510998D01*
X1010207Y511069D01*
X1010355Y511137D01*
X1010505Y511201D01*
X1010656Y511261D01*
X1010808Y511318D01*
X1010962Y511371D01*
X1011117Y511420D01*
X1011273Y511465D01*
X1011430Y511506D01*
X1011588Y511544D01*
X1011748Y511578D01*
X1011907Y511607D01*
X1012068Y511633D01*
X1012229Y511655D01*
X1012391Y511673D01*
X1012553Y511687D01*
X1012715Y511697D01*
X1012877Y511703D01*
X1013040Y511705D01*
X1013203Y511703D01*
X1013365Y511697D01*
X1013527Y511687D01*
X1013689Y511673D01*
X1013851Y511655D01*
X1014012Y511633D01*
X1014173Y511607D01*
X1014332Y511578D01*
X1014492Y511544D01*
X1014650Y511506D01*
X1014807Y511465D01*
X1014963Y511420D01*
X1015118Y511371D01*
X1015272Y511318D01*
X1015424Y511261D01*
X1015575Y511201D01*
X1015725Y511137D01*
X1015873Y511069D01*
X1016019Y510998D01*
X1016163Y510923D01*
X1016305Y510844D01*
X1016446Y510762D01*
X1016584Y510677D01*
X1016721Y510588D01*
X1016855Y510496D01*
X1016987Y510401D01*
X1017116Y510303D01*
X1017243Y510201D01*
X1017367Y510097D01*
X1017489Y509989D01*
X1017608Y509878D01*
X1017725Y509765D01*
X1017838Y509648D01*
X1017949Y509529D01*
X1018057Y509407D01*
X1018161Y509283D01*
X1018263Y509156D01*
X1018361Y509027D01*
X1018456Y508895D01*
X1018548Y508761D01*
X1018637Y508624D01*
X1018722Y508486D01*
X1018804Y508345D01*
X1018883Y508203D01*
X1018958Y508059D01*
X1019029Y507913D01*
X1019097Y507765D01*
X1019161Y507615D01*
X1019221Y507464D01*
X1019278Y507312D01*
X1019331Y507158D01*
X1019380Y507003D01*
X1019425Y506847D01*
X1019466Y506690D01*
X1019504Y506532D01*
X1019538Y506372D01*
X1019567Y506213D01*
X1019593Y506052D01*
X1019615Y505891D01*
X1019633Y505729D01*
X1019647Y505567D01*
X1019657Y505405D01*
X1019663Y505243D01*
X1019665Y505080D01*
X1019663Y504917D01*
X1019657Y504755D01*
X1019647Y504593D01*
X1019633Y504431D01*
X1019615Y504269D01*
X1019593Y504108D01*
X1019567Y503947D01*
X1019538Y503788D01*
X1019504Y503628D01*
X1019466Y503470D01*
X1019425Y503313D01*
X1019380Y503157D01*
X1019331Y503002D01*
X1019278Y502848D01*
X1019221Y502696D01*
X1019161Y502545D01*
X1019097Y502395D01*
X1019029Y502247D01*
X1018958Y502101D01*
X1018883Y501957D01*
X1018804Y501815D01*
X1018722Y501674D01*
X1018637Y501536D01*
X1018548Y501399D01*
X1018456Y501265D01*
X1018361Y501133D01*
X1018263Y501004D01*
X1018161Y500877D01*
X1018057Y500753D01*
X1017949Y500631D01*
X1017838Y500512D01*
X1017725Y500395D01*
X1017608Y500282D01*
X1017489Y500171D01*
X1017367Y500063D01*
X1017243Y499959D01*
X1017116Y499857D01*
X1016987Y499759D01*
X1016855Y499664D01*
X1016721Y499572D01*
X1016584Y499483D01*
X1016446Y499398D01*
X1016305Y499316D01*
X1016163Y499237D01*
X1016019Y499162D01*
X1015873Y499091D01*
X1015725Y499023D01*
X1015575Y498959D01*
X1015424Y498899D01*
X1015272Y498842D01*
X1015118Y498789D01*
X1014963Y498740D01*
X1014807Y498695D01*
X1014650Y498654D01*
X1014492Y498616D01*
X1014332Y498582D01*
X1014173Y498553D01*
X1014012Y498527D01*
X1013851Y498505D01*
X1013689Y498487D01*
X1013527Y498473D01*
X1013365Y498463D01*
X1013203Y498457D01*
X1013040Y498455D01*
X1012877Y498457D01*
X1012715Y498463D01*
X1012553Y498473D01*
X1012391Y498487D01*
X1012229Y498505D01*
X1012068Y498527D01*
X1011907Y498553D01*
X1011748Y498582D01*
X1011588Y498616D01*
X1011430Y498654D01*
X1011273Y498695D01*
X1011117Y498740D01*
X1010962Y498789D01*
X1010808Y498842D01*
X1010656Y498899D01*
X1010505Y498959D01*
X1010355Y499023D01*
X1010207Y499091D01*
X1010061Y499162D01*
X1009917Y499237D01*
X1009775Y499316D01*
X1009634Y499398D01*
X1009496Y499483D01*
X1009359Y499572D01*
X1009225Y499664D01*
X1009093Y499759D01*
X1008964Y499857D01*
X1008837Y499959D01*
X1008713Y500063D01*
X1008591Y500171D01*
X1008472Y500282D01*
X1008355Y500395D01*
X1008242Y500512D01*
X1008131Y500631D01*
X1008023Y500753D01*
X1007919Y500877D01*
X1007817Y501004D01*
X1007719Y501133D01*
X1007624Y501265D01*
X1007532Y501399D01*
X1007443Y501536D01*
X1007358Y501674D01*
X1007276Y501815D01*
X1007197Y501957D01*
X1007122Y502101D01*
X1007051Y502247D01*
X1006983Y502395D01*
X1006919Y502545D01*
X1006859Y502696D01*
X1006802Y502848D01*
X1006749Y503002D01*
X1006700Y503157D01*
X1006655Y503313D01*
X1006614Y503470D01*
X1006576Y503628D01*
X1006542Y503788D01*
X1006513Y503947D01*
X1006487Y504108D01*
X1006465Y504269D01*
X1006447Y504431D01*
X1006433Y504593D01*
X1006423Y504755D01*
X1006417Y504917D01*
X1006415Y505080D01*
D31*
X1006540Y505080D03*
D32*
X1013040Y511580D03*
X1013040Y498580D03*
D31*
X1019540Y505080D03*
D13*
X1048040Y500080D03*
X1048040Y510080D03*
D34*
X1135540Y751080D03*
D35*
X1261290Y763580D03*
D36*
X1274540Y760080D03*
X1111540Y760080D03*
D35*
X1124790Y763580D03*
D34*
X1140540Y751080D03*
X1145540Y751080D03*
X1150540Y751080D03*
X1155540Y751080D03*
X1160540Y751080D03*
X1165540Y751080D03*
X1170540Y751080D03*
X1175540Y751080D03*
X1180540Y751080D03*
X1185540Y751080D03*
X1190540Y751080D03*
X1195540Y751080D03*
X1200540Y751080D03*
X1205540Y751080D03*
X1210540Y751080D03*
X1215540Y751080D03*
X1220540Y751080D03*
X1225540Y751080D03*
X1230540Y751080D03*
X1235540Y751080D03*
X1240540Y751080D03*
X1245540Y751080D03*
X1250540Y751080D03*
D10*
X65000Y997460D03*
X65000Y972060D03*
X65000Y946660D03*
X65000Y1022860D03*
X65000Y1048260D03*
X65000Y1073660D03*
D11*
X15000Y1060960D03*
X15000Y959360D03*
D12*
X250000Y992660D03*
X250000Y967660D03*
D13*
X230000Y975160D03*
X230000Y965160D03*
X230000Y985160D03*
X230000Y995160D03*
D14*
X28284Y838444D03*
X371716Y838444D03*
X28284Y1181876D03*
X371716Y1181876D03*
D15*
X10000Y1200160D03*
X390000Y820160D03*
D16*
X197500Y912660D03*
X202500Y912660D03*
X202500Y927660D03*
X197500Y927660D03*
D17*
X192500Y927660D03*
X192500Y922660D03*
X192500Y912660D03*
X192500Y917660D03*
X207500Y912660D03*
X207500Y917660D03*
X207500Y922660D03*
X207500Y927660D03*
D18*
X240000Y928660D03*
X240000Y911660D03*
D13*
X225000Y925160D03*
X225000Y915160D03*
D18*
X250000Y1128660D03*
X250000Y1111660D03*
X270000Y1128660D03*
X270000Y1111660D03*
D19*
X168500Y930160D03*
X151500Y930160D03*
X168500Y910160D03*
X151500Y910160D03*
D20*
X121500Y975160D03*
X98500Y975160D03*
X121500Y995160D03*
X98500Y995160D03*
D21*
X180500Y1087159D03*
X190000Y1087159D03*
X199500Y1087159D03*
X199500Y1113161D03*
X180500Y1113161D03*
D13*
X210000Y1105160D03*
X210000Y1095160D03*
X185000Y1125160D03*
X195000Y1125160D03*
D22*
X173490Y844880D02*
X166510Y844880D01*
X173490Y844880D02*
X173490Y837900D01*
X166510Y837900D01*
X166510Y844880D01*
X166510Y842700D02*
X173490Y842700D01*
X173490Y862420D02*
X166510Y862420D01*
X173490Y862420D02*
X173490Y855440D01*
X166510Y855440D01*
X166510Y862420D01*
X166510Y860240D02*
X173490Y860240D01*
X153490Y844880D02*
X146510Y844880D01*
X153490Y844880D02*
X153490Y837900D01*
X146510Y837900D01*
X146510Y844880D01*
X146510Y842700D02*
X153490Y842700D01*
X153490Y862420D02*
X146510Y862420D01*
X153490Y862420D02*
X153490Y855440D01*
X146510Y855440D01*
X146510Y862420D01*
X146510Y860240D02*
X153490Y860240D01*
X206510Y844880D02*
X213490Y844880D01*
X213490Y837900D01*
X206510Y837900D01*
X206510Y844880D01*
X206510Y842700D02*
X213490Y842700D01*
X213490Y862420D02*
X206510Y862420D01*
X213490Y862420D02*
X213490Y855440D01*
X206510Y855440D01*
X206510Y862420D01*
X206510Y860240D02*
X213490Y860240D01*
X193490Y844880D02*
X186510Y844880D01*
X193490Y844880D02*
X193490Y837900D01*
X186510Y837900D01*
X186510Y844880D01*
X186510Y842700D02*
X193490Y842700D01*
X193490Y862420D02*
X186510Y862420D01*
X193490Y862420D02*
X193490Y855440D01*
X186510Y855440D01*
X186510Y862420D01*
X186510Y860240D02*
X193490Y860240D01*
D18*
X170000Y871660D03*
X170000Y888660D03*
X150000Y871660D03*
X150000Y888660D03*
X210000Y871660D03*
X210000Y888660D03*
X190000Y871660D03*
X190000Y888660D03*
D23*
X228600Y822860D03*
X254000Y822860D03*
X279400Y822860D03*
X304800Y822860D03*
X330200Y822860D03*
X228600Y848260D03*
X254000Y848260D03*
X279400Y848260D03*
X304800Y848260D03*
X330200Y848260D03*
D13*
X185000Y1073160D03*
X195000Y1073160D03*
D24*
X386750Y1072160D03*
X386750Y1128160D03*
D25*
X350000Y1085160D03*
X350000Y1095160D03*
X350000Y1105160D03*
X350000Y1115160D03*
D13*
X210000Y955160D03*
X210000Y945160D03*
X190000Y955160D03*
X190000Y945160D03*
D26*
X395000Y1055160D03*
X390000Y1047160D03*
X385000Y1055160D03*
X380000Y1047160D03*
X375000Y1055160D03*
X370000Y1047160D03*
X365000Y1055160D03*
X360000Y1047160D03*
X355000Y1055160D03*
X350000Y1047160D03*
X345000Y1055160D03*
X340000Y1047160D03*
X335000Y1055160D03*
X330000Y1047160D03*
X325000Y1055160D03*
X320000Y1047160D03*
X315000Y1055160D03*
X310000Y1047160D03*
X305000Y1055160D03*
X300000Y1047160D03*
X295000Y1055160D03*
D13*
X285000Y1055160D03*
D27*
X285000Y1045160D03*
X293000Y1040160D03*
X285000Y1035160D03*
X293000Y1030160D03*
X285000Y1025160D03*
X293000Y1020160D03*
X285000Y1015160D03*
X293000Y1010160D03*
X285000Y1005160D03*
X293000Y1000160D03*
X285000Y995160D03*
X293000Y990160D03*
X285000Y985160D03*
X293000Y980160D03*
X285000Y975160D03*
D13*
X285000Y965160D03*
D26*
X295000Y965160D03*
X300000Y973160D03*
X305000Y965160D03*
X310000Y973160D03*
X315000Y965160D03*
X320000Y973160D03*
X325000Y965160D03*
X330000Y973160D03*
X335000Y965160D03*
X340000Y973160D03*
X345000Y965160D03*
X350000Y973160D03*
X355000Y965160D03*
X360000Y973160D03*
X365000Y965160D03*
X370000Y973160D03*
X375000Y965160D03*
X380000Y973160D03*
X385000Y965160D03*
X390000Y973160D03*
X395000Y965160D03*
D28*
X33000Y1101160D03*
D29*
X20000Y1110160D03*
D28*
X43000Y1101160D03*
X43000Y1119160D03*
X33000Y1119160D03*
D30*
X13375Y1110160D02*
X13377Y1110323D01*
X13383Y1110485D01*
X13393Y1110647D01*
X13407Y1110809D01*
X13425Y1110971D01*
X13447Y1111132D01*
X13473Y1111293D01*
X13502Y1111452D01*
X13536Y1111612D01*
X13574Y1111770D01*
X13615Y1111927D01*
X13660Y1112083D01*
X13709Y1112238D01*
X13762Y1112392D01*
X13819Y1112544D01*
X13879Y1112695D01*
X13943Y1112845D01*
X14011Y1112993D01*
X14082Y1113139D01*
X14157Y1113283D01*
X14236Y1113425D01*
X14318Y1113566D01*
X14403Y1113704D01*
X14492Y1113841D01*
X14584Y1113975D01*
X14679Y1114107D01*
X14777Y1114236D01*
X14879Y1114363D01*
X14983Y1114487D01*
X15091Y1114609D01*
X15202Y1114728D01*
X15315Y1114845D01*
X15432Y1114958D01*
X15551Y1115069D01*
X15673Y1115177D01*
X15797Y1115281D01*
X15924Y1115383D01*
X16053Y1115481D01*
X16185Y1115576D01*
X16319Y1115668D01*
X16456Y1115757D01*
X16594Y1115842D01*
X16735Y1115924D01*
X16877Y1116003D01*
X17021Y1116078D01*
X17167Y1116149D01*
X17315Y1116217D01*
X17465Y1116281D01*
X17616Y1116341D01*
X17768Y1116398D01*
X17922Y1116451D01*
X18077Y1116500D01*
X18233Y1116545D01*
X18390Y1116586D01*
X18548Y1116624D01*
X18708Y1116658D01*
X18867Y1116687D01*
X19028Y1116713D01*
X19189Y1116735D01*
X19351Y1116753D01*
X19513Y1116767D01*
X19675Y1116777D01*
X19837Y1116783D01*
X20000Y1116785D01*
X20163Y1116783D01*
X20325Y1116777D01*
X20487Y1116767D01*
X20649Y1116753D01*
X20811Y1116735D01*
X20972Y1116713D01*
X21133Y1116687D01*
X21292Y1116658D01*
X21452Y1116624D01*
X21610Y1116586D01*
X21767Y1116545D01*
X21923Y1116500D01*
X22078Y1116451D01*
X22232Y1116398D01*
X22384Y1116341D01*
X22535Y1116281D01*
X22685Y1116217D01*
X22833Y1116149D01*
X22979Y1116078D01*
X23123Y1116003D01*
X23265Y1115924D01*
X23406Y1115842D01*
X23544Y1115757D01*
X23681Y1115668D01*
X23815Y1115576D01*
X23947Y1115481D01*
X24076Y1115383D01*
X24203Y1115281D01*
X24327Y1115177D01*
X24449Y1115069D01*
X24568Y1114958D01*
X24685Y1114845D01*
X24798Y1114728D01*
X24909Y1114609D01*
X25017Y1114487D01*
X25121Y1114363D01*
X25223Y1114236D01*
X25321Y1114107D01*
X25416Y1113975D01*
X25508Y1113841D01*
X25597Y1113704D01*
X25682Y1113566D01*
X25764Y1113425D01*
X25843Y1113283D01*
X25918Y1113139D01*
X25989Y1112993D01*
X26057Y1112845D01*
X26121Y1112695D01*
X26181Y1112544D01*
X26238Y1112392D01*
X26291Y1112238D01*
X26340Y1112083D01*
X26385Y1111927D01*
X26426Y1111770D01*
X26464Y1111612D01*
X26498Y1111452D01*
X26527Y1111293D01*
X26553Y1111132D01*
X26575Y1110971D01*
X26593Y1110809D01*
X26607Y1110647D01*
X26617Y1110485D01*
X26623Y1110323D01*
X26625Y1110160D01*
X26623Y1109997D01*
X26617Y1109835D01*
X26607Y1109673D01*
X26593Y1109511D01*
X26575Y1109349D01*
X26553Y1109188D01*
X26527Y1109027D01*
X26498Y1108868D01*
X26464Y1108708D01*
X26426Y1108550D01*
X26385Y1108393D01*
X26340Y1108237D01*
X26291Y1108082D01*
X26238Y1107928D01*
X26181Y1107776D01*
X26121Y1107625D01*
X26057Y1107475D01*
X25989Y1107327D01*
X25918Y1107181D01*
X25843Y1107037D01*
X25764Y1106895D01*
X25682Y1106754D01*
X25597Y1106616D01*
X25508Y1106479D01*
X25416Y1106345D01*
X25321Y1106213D01*
X25223Y1106084D01*
X25121Y1105957D01*
X25017Y1105833D01*
X24909Y1105711D01*
X24798Y1105592D01*
X24685Y1105475D01*
X24568Y1105362D01*
X24449Y1105251D01*
X24327Y1105143D01*
X24203Y1105039D01*
X24076Y1104937D01*
X23947Y1104839D01*
X23815Y1104744D01*
X23681Y1104652D01*
X23544Y1104563D01*
X23406Y1104478D01*
X23265Y1104396D01*
X23123Y1104317D01*
X22979Y1104242D01*
X22833Y1104171D01*
X22685Y1104103D01*
X22535Y1104039D01*
X22384Y1103979D01*
X22232Y1103922D01*
X22078Y1103869D01*
X21923Y1103820D01*
X21767Y1103775D01*
X21610Y1103734D01*
X21452Y1103696D01*
X21292Y1103662D01*
X21133Y1103633D01*
X20972Y1103607D01*
X20811Y1103585D01*
X20649Y1103567D01*
X20487Y1103553D01*
X20325Y1103543D01*
X20163Y1103537D01*
X20000Y1103535D01*
X19837Y1103537D01*
X19675Y1103543D01*
X19513Y1103553D01*
X19351Y1103567D01*
X19189Y1103585D01*
X19028Y1103607D01*
X18867Y1103633D01*
X18708Y1103662D01*
X18548Y1103696D01*
X18390Y1103734D01*
X18233Y1103775D01*
X18077Y1103820D01*
X17922Y1103869D01*
X17768Y1103922D01*
X17616Y1103979D01*
X17465Y1104039D01*
X17315Y1104103D01*
X17167Y1104171D01*
X17021Y1104242D01*
X16877Y1104317D01*
X16735Y1104396D01*
X16594Y1104478D01*
X16456Y1104563D01*
X16319Y1104652D01*
X16185Y1104744D01*
X16053Y1104839D01*
X15924Y1104937D01*
X15797Y1105039D01*
X15673Y1105143D01*
X15551Y1105251D01*
X15432Y1105362D01*
X15315Y1105475D01*
X15202Y1105592D01*
X15091Y1105711D01*
X14983Y1105833D01*
X14879Y1105957D01*
X14777Y1106084D01*
X14679Y1106213D01*
X14584Y1106345D01*
X14492Y1106479D01*
X14403Y1106616D01*
X14318Y1106754D01*
X14236Y1106895D01*
X14157Y1107037D01*
X14082Y1107181D01*
X14011Y1107327D01*
X13943Y1107475D01*
X13879Y1107625D01*
X13819Y1107776D01*
X13762Y1107928D01*
X13709Y1108082D01*
X13660Y1108237D01*
X13615Y1108393D01*
X13574Y1108550D01*
X13536Y1108708D01*
X13502Y1108868D01*
X13473Y1109027D01*
X13447Y1109188D01*
X13425Y1109349D01*
X13407Y1109511D01*
X13393Y1109673D01*
X13383Y1109835D01*
X13377Y1109997D01*
X13375Y1110160D01*
D31*
X13500Y1110160D03*
D32*
X20000Y1116660D03*
X20000Y1103660D03*
D31*
X26500Y1110160D03*
D33*
X59500Y1142160D03*
X59500Y1158160D03*
X100500Y1158160D03*
X100500Y1142160D03*
D19*
X118500Y1025160D03*
X101500Y1025160D03*
X101500Y1040160D03*
X118500Y1040160D03*
X101500Y1085160D03*
X118500Y1085160D03*
X101500Y1070160D03*
X118500Y1070160D03*
X118500Y1055160D03*
X101500Y1055160D03*
X118500Y1010160D03*
X101500Y1010160D03*
D13*
X55000Y1105160D03*
X55000Y1115160D03*
D15*
X311650Y1111460D03*
X311650Y1124160D03*
X311650Y1136860D03*
X311650Y1149560D03*
X311650Y1098760D03*
X324350Y1111460D03*
X324350Y1124160D03*
X324350Y1136860D03*
X324350Y1149560D03*
X324350Y1098760D03*
D13*
X267000Y979160D03*
X267000Y969160D03*
D19*
X248500Y945160D03*
X231500Y945160D03*
D13*
X267000Y961160D03*
X267000Y951160D03*
D28*
X33000Y901160D03*
D29*
X20000Y910160D03*
D28*
X43000Y901160D03*
X43000Y919160D03*
X33000Y919160D03*
D30*
X13375Y910160D02*
X13377Y910323D01*
X13383Y910485D01*
X13393Y910647D01*
X13407Y910809D01*
X13425Y910971D01*
X13447Y911132D01*
X13473Y911293D01*
X13502Y911452D01*
X13536Y911612D01*
X13574Y911770D01*
X13615Y911927D01*
X13660Y912083D01*
X13709Y912238D01*
X13762Y912392D01*
X13819Y912544D01*
X13879Y912695D01*
X13943Y912845D01*
X14011Y912993D01*
X14082Y913139D01*
X14157Y913283D01*
X14236Y913425D01*
X14318Y913566D01*
X14403Y913704D01*
X14492Y913841D01*
X14584Y913975D01*
X14679Y914107D01*
X14777Y914236D01*
X14879Y914363D01*
X14983Y914487D01*
X15091Y914609D01*
X15202Y914728D01*
X15315Y914845D01*
X15432Y914958D01*
X15551Y915069D01*
X15673Y915177D01*
X15797Y915281D01*
X15924Y915383D01*
X16053Y915481D01*
X16185Y915576D01*
X16319Y915668D01*
X16456Y915757D01*
X16594Y915842D01*
X16735Y915924D01*
X16877Y916003D01*
X17021Y916078D01*
X17167Y916149D01*
X17315Y916217D01*
X17465Y916281D01*
X17616Y916341D01*
X17768Y916398D01*
X17922Y916451D01*
X18077Y916500D01*
X18233Y916545D01*
X18390Y916586D01*
X18548Y916624D01*
X18708Y916658D01*
X18867Y916687D01*
X19028Y916713D01*
X19189Y916735D01*
X19351Y916753D01*
X19513Y916767D01*
X19675Y916777D01*
X19837Y916783D01*
X20000Y916785D01*
X20163Y916783D01*
X20325Y916777D01*
X20487Y916767D01*
X20649Y916753D01*
X20811Y916735D01*
X20972Y916713D01*
X21133Y916687D01*
X21292Y916658D01*
X21452Y916624D01*
X21610Y916586D01*
X21767Y916545D01*
X21923Y916500D01*
X22078Y916451D01*
X22232Y916398D01*
X22384Y916341D01*
X22535Y916281D01*
X22685Y916217D01*
X22833Y916149D01*
X22979Y916078D01*
X23123Y916003D01*
X23265Y915924D01*
X23406Y915842D01*
X23544Y915757D01*
X23681Y915668D01*
X23815Y915576D01*
X23947Y915481D01*
X24076Y915383D01*
X24203Y915281D01*
X24327Y915177D01*
X24449Y915069D01*
X24568Y914958D01*
X24685Y914845D01*
X24798Y914728D01*
X24909Y914609D01*
X25017Y914487D01*
X25121Y914363D01*
X25223Y914236D01*
X25321Y914107D01*
X25416Y913975D01*
X25508Y913841D01*
X25597Y913704D01*
X25682Y913566D01*
X25764Y913425D01*
X25843Y913283D01*
X25918Y913139D01*
X25989Y912993D01*
X26057Y912845D01*
X26121Y912695D01*
X26181Y912544D01*
X26238Y912392D01*
X26291Y912238D01*
X26340Y912083D01*
X26385Y911927D01*
X26426Y911770D01*
X26464Y911612D01*
X26498Y911452D01*
X26527Y911293D01*
X26553Y911132D01*
X26575Y910971D01*
X26593Y910809D01*
X26607Y910647D01*
X26617Y910485D01*
X26623Y910323D01*
X26625Y910160D01*
X26623Y909997D01*
X26617Y909835D01*
X26607Y909673D01*
X26593Y909511D01*
X26575Y909349D01*
X26553Y909188D01*
X26527Y909027D01*
X26498Y908868D01*
X26464Y908708D01*
X26426Y908550D01*
X26385Y908393D01*
X26340Y908237D01*
X26291Y908082D01*
X26238Y907928D01*
X26181Y907776D01*
X26121Y907625D01*
X26057Y907475D01*
X25989Y907327D01*
X25918Y907181D01*
X25843Y907037D01*
X25764Y906895D01*
X25682Y906754D01*
X25597Y906616D01*
X25508Y906479D01*
X25416Y906345D01*
X25321Y906213D01*
X25223Y906084D01*
X25121Y905957D01*
X25017Y905833D01*
X24909Y905711D01*
X24798Y905592D01*
X24685Y905475D01*
X24568Y905362D01*
X24449Y905251D01*
X24327Y905143D01*
X24203Y905039D01*
X24076Y904937D01*
X23947Y904839D01*
X23815Y904744D01*
X23681Y904652D01*
X23544Y904563D01*
X23406Y904478D01*
X23265Y904396D01*
X23123Y904317D01*
X22979Y904242D01*
X22833Y904171D01*
X22685Y904103D01*
X22535Y904039D01*
X22384Y903979D01*
X22232Y903922D01*
X22078Y903869D01*
X21923Y903820D01*
X21767Y903775D01*
X21610Y903734D01*
X21452Y903696D01*
X21292Y903662D01*
X21133Y903633D01*
X20972Y903607D01*
X20811Y903585D01*
X20649Y903567D01*
X20487Y903553D01*
X20325Y903543D01*
X20163Y903537D01*
X20000Y903535D01*
X19837Y903537D01*
X19675Y903543D01*
X19513Y903553D01*
X19351Y903567D01*
X19189Y903585D01*
X19028Y903607D01*
X18867Y903633D01*
X18708Y903662D01*
X18548Y903696D01*
X18390Y903734D01*
X18233Y903775D01*
X18077Y903820D01*
X17922Y903869D01*
X17768Y903922D01*
X17616Y903979D01*
X17465Y904039D01*
X17315Y904103D01*
X17167Y904171D01*
X17021Y904242D01*
X16877Y904317D01*
X16735Y904396D01*
X16594Y904478D01*
X16456Y904563D01*
X16319Y904652D01*
X16185Y904744D01*
X16053Y904839D01*
X15924Y904937D01*
X15797Y905039D01*
X15673Y905143D01*
X15551Y905251D01*
X15432Y905362D01*
X15315Y905475D01*
X15202Y905592D01*
X15091Y905711D01*
X14983Y905833D01*
X14879Y905957D01*
X14777Y906084D01*
X14679Y906213D01*
X14584Y906345D01*
X14492Y906479D01*
X14403Y906616D01*
X14318Y906754D01*
X14236Y906895D01*
X14157Y907037D01*
X14082Y907181D01*
X14011Y907327D01*
X13943Y907475D01*
X13879Y907625D01*
X13819Y907776D01*
X13762Y907928D01*
X13709Y908082D01*
X13660Y908237D01*
X13615Y908393D01*
X13574Y908550D01*
X13536Y908708D01*
X13502Y908868D01*
X13473Y909027D01*
X13447Y909188D01*
X13425Y909349D01*
X13407Y909511D01*
X13393Y909673D01*
X13383Y909835D01*
X13377Y909997D01*
X13375Y910160D01*
D31*
X13500Y910160D03*
D32*
X20000Y916660D03*
X20000Y903660D03*
D31*
X26500Y910160D03*
D13*
X55000Y905160D03*
X55000Y915160D03*
D34*
X142500Y1156160D03*
D35*
X268250Y1168660D03*
D36*
X281500Y1165160D03*
X118500Y1165160D03*
D35*
X131750Y1168660D03*
D34*
X147500Y1156160D03*
X152500Y1156160D03*
X157500Y1156160D03*
X162500Y1156160D03*
X167500Y1156160D03*
X172500Y1156160D03*
X177500Y1156160D03*
X182500Y1156160D03*
X187500Y1156160D03*
X192500Y1156160D03*
X197500Y1156160D03*
X202500Y1156160D03*
X207500Y1156160D03*
X212500Y1156160D03*
X217500Y1156160D03*
X222500Y1156160D03*
X227500Y1156160D03*
X232500Y1156160D03*
X237500Y1156160D03*
X242500Y1156160D03*
X247500Y1156160D03*
X252500Y1156160D03*
X257500Y1156160D03*
D10*
X561520Y997460D03*
X561520Y972060D03*
X561520Y946660D03*
X561520Y1022860D03*
X561520Y1048260D03*
X561520Y1073660D03*
D11*
X511520Y1060960D03*
X511520Y959360D03*
D12*
X746520Y992660D03*
X746520Y967660D03*
D13*
X726520Y975160D03*
X726520Y965160D03*
X726520Y985160D03*
X726520Y995160D03*
D14*
X524804Y838444D03*
X868236Y838444D03*
X524804Y1181876D03*
X868236Y1181876D03*
D15*
X506520Y1200160D03*
X886520Y820160D03*
D16*
X694020Y912660D03*
X699020Y912660D03*
X699020Y927660D03*
X694020Y927660D03*
D17*
X689020Y927660D03*
X689020Y922660D03*
X689020Y912660D03*
X689020Y917660D03*
X704020Y912660D03*
X704020Y917660D03*
X704020Y922660D03*
X704020Y927660D03*
D18*
X736520Y928660D03*
X736520Y911660D03*
D13*
X721520Y925160D03*
X721520Y915160D03*
D18*
X746520Y1128660D03*
X746520Y1111660D03*
X766520Y1128660D03*
X766520Y1111660D03*
D19*
X665020Y930160D03*
X648020Y930160D03*
X665020Y910160D03*
X648020Y910160D03*
D20*
X618020Y975160D03*
X595020Y975160D03*
X618020Y995160D03*
X595020Y995160D03*
D21*
X677020Y1087159D03*
X686520Y1087159D03*
X696020Y1087159D03*
X696020Y1113161D03*
X677020Y1113161D03*
D13*
X706520Y1105160D03*
X706520Y1095160D03*
X681520Y1125160D03*
X691520Y1125160D03*
D22*
X670010Y844880D02*
X663030Y844880D01*
X670010Y844880D02*
X670010Y837900D01*
X663030Y837900D01*
X663030Y844880D01*
X663030Y842700D02*
X670010Y842700D01*
X670010Y862420D02*
X663030Y862420D01*
X670010Y862420D02*
X670010Y855440D01*
X663030Y855440D01*
X663030Y862420D01*
X663030Y860240D02*
X670010Y860240D01*
X650010Y844880D02*
X643030Y844880D01*
X650010Y844880D02*
X650010Y837900D01*
X643030Y837900D01*
X643030Y844880D01*
X643030Y842700D02*
X650010Y842700D01*
X650010Y862420D02*
X643030Y862420D01*
X650010Y862420D02*
X650010Y855440D01*
X643030Y855440D01*
X643030Y862420D01*
X643030Y860240D02*
X650010Y860240D01*
X703030Y844880D02*
X710010Y844880D01*
X710010Y837900D01*
X703030Y837900D01*
X703030Y844880D01*
X703030Y842700D02*
X710010Y842700D01*
X710010Y862420D02*
X703030Y862420D01*
X710010Y862420D02*
X710010Y855440D01*
X703030Y855440D01*
X703030Y862420D01*
X703030Y860240D02*
X710010Y860240D01*
X690010Y844880D02*
X683030Y844880D01*
X690010Y844880D02*
X690010Y837900D01*
X683030Y837900D01*
X683030Y844880D01*
X683030Y842700D02*
X690010Y842700D01*
X690010Y862420D02*
X683030Y862420D01*
X690010Y862420D02*
X690010Y855440D01*
X683030Y855440D01*
X683030Y862420D01*
X683030Y860240D02*
X690010Y860240D01*
D18*
X666520Y871660D03*
X666520Y888660D03*
X646520Y871660D03*
X646520Y888660D03*
X706520Y871660D03*
X706520Y888660D03*
X686520Y871660D03*
X686520Y888660D03*
D23*
X725120Y822860D03*
X750520Y822860D03*
X775920Y822860D03*
X801320Y822860D03*
X826720Y822860D03*
X725120Y848260D03*
X750520Y848260D03*
X775920Y848260D03*
X801320Y848260D03*
X826720Y848260D03*
D13*
X681520Y1073160D03*
X691520Y1073160D03*
D24*
X883270Y1072160D03*
X883270Y1128160D03*
D25*
X846520Y1085160D03*
X846520Y1095160D03*
X846520Y1105160D03*
X846520Y1115160D03*
D13*
X706520Y955160D03*
X706520Y945160D03*
X686520Y955160D03*
X686520Y945160D03*
D26*
X891520Y1055160D03*
X886520Y1047160D03*
X881520Y1055160D03*
X876520Y1047160D03*
X871520Y1055160D03*
X866520Y1047160D03*
X861520Y1055160D03*
X856520Y1047160D03*
X851520Y1055160D03*
X846520Y1047160D03*
X841520Y1055160D03*
X836520Y1047160D03*
X831520Y1055160D03*
X826520Y1047160D03*
X821520Y1055160D03*
X816520Y1047160D03*
X811520Y1055160D03*
X806520Y1047160D03*
X801520Y1055160D03*
X796520Y1047160D03*
X791520Y1055160D03*
D13*
X781520Y1055160D03*
D27*
X781520Y1045160D03*
X789520Y1040160D03*
X781520Y1035160D03*
X789520Y1030160D03*
X781520Y1025160D03*
X789520Y1020160D03*
X781520Y1015160D03*
X789520Y1010160D03*
X781520Y1005160D03*
X789520Y1000160D03*
X781520Y995160D03*
X789520Y990160D03*
X781520Y985160D03*
X789520Y980160D03*
X781520Y975160D03*
D13*
X781520Y965160D03*
D26*
X791520Y965160D03*
X796520Y973160D03*
X801520Y965160D03*
X806520Y973160D03*
X811520Y965160D03*
X816520Y973160D03*
X821520Y965160D03*
X826520Y973160D03*
X831520Y965160D03*
X836520Y973160D03*
X841520Y965160D03*
X846520Y973160D03*
X851520Y965160D03*
X856520Y973160D03*
X861520Y965160D03*
X866520Y973160D03*
X871520Y965160D03*
X876520Y973160D03*
X881520Y965160D03*
X886520Y973160D03*
X891520Y965160D03*
D28*
X529520Y1101160D03*
D29*
X516520Y1110160D03*
D28*
X539520Y1101160D03*
X539520Y1119160D03*
X529520Y1119160D03*
D30*
X509895Y1110160D02*
X509897Y1110323D01*
X509903Y1110485D01*
X509913Y1110647D01*
X509927Y1110809D01*
X509945Y1110971D01*
X509967Y1111132D01*
X509993Y1111293D01*
X510022Y1111452D01*
X510056Y1111612D01*
X510094Y1111770D01*
X510135Y1111927D01*
X510180Y1112083D01*
X510229Y1112238D01*
X510282Y1112392D01*
X510339Y1112544D01*
X510399Y1112695D01*
X510463Y1112845D01*
X510531Y1112993D01*
X510602Y1113139D01*
X510677Y1113283D01*
X510756Y1113425D01*
X510838Y1113566D01*
X510923Y1113704D01*
X511012Y1113841D01*
X511104Y1113975D01*
X511199Y1114107D01*
X511297Y1114236D01*
X511399Y1114363D01*
X511503Y1114487D01*
X511611Y1114609D01*
X511722Y1114728D01*
X511835Y1114845D01*
X511952Y1114958D01*
X512071Y1115069D01*
X512193Y1115177D01*
X512317Y1115281D01*
X512444Y1115383D01*
X512573Y1115481D01*
X512705Y1115576D01*
X512839Y1115668D01*
X512976Y1115757D01*
X513114Y1115842D01*
X513255Y1115924D01*
X513397Y1116003D01*
X513541Y1116078D01*
X513687Y1116149D01*
X513835Y1116217D01*
X513985Y1116281D01*
X514136Y1116341D01*
X514288Y1116398D01*
X514442Y1116451D01*
X514597Y1116500D01*
X514753Y1116545D01*
X514910Y1116586D01*
X515068Y1116624D01*
X515228Y1116658D01*
X515387Y1116687D01*
X515548Y1116713D01*
X515709Y1116735D01*
X515871Y1116753D01*
X516033Y1116767D01*
X516195Y1116777D01*
X516357Y1116783D01*
X516520Y1116785D01*
X516683Y1116783D01*
X516845Y1116777D01*
X517007Y1116767D01*
X517169Y1116753D01*
X517331Y1116735D01*
X517492Y1116713D01*
X517653Y1116687D01*
X517812Y1116658D01*
X517972Y1116624D01*
X518130Y1116586D01*
X518287Y1116545D01*
X518443Y1116500D01*
X518598Y1116451D01*
X518752Y1116398D01*
X518904Y1116341D01*
X519055Y1116281D01*
X519205Y1116217D01*
X519353Y1116149D01*
X519499Y1116078D01*
X519643Y1116003D01*
X519785Y1115924D01*
X519926Y1115842D01*
X520064Y1115757D01*
X520201Y1115668D01*
X520335Y1115576D01*
X520467Y1115481D01*
X520596Y1115383D01*
X520723Y1115281D01*
X520847Y1115177D01*
X520969Y1115069D01*
X521088Y1114958D01*
X521205Y1114845D01*
X521318Y1114728D01*
X521429Y1114609D01*
X521537Y1114487D01*
X521641Y1114363D01*
X521743Y1114236D01*
X521841Y1114107D01*
X521936Y1113975D01*
X522028Y1113841D01*
X522117Y1113704D01*
X522202Y1113566D01*
X522284Y1113425D01*
X522363Y1113283D01*
X522438Y1113139D01*
X522509Y1112993D01*
X522577Y1112845D01*
X522641Y1112695D01*
X522701Y1112544D01*
X522758Y1112392D01*
X522811Y1112238D01*
X522860Y1112083D01*
X522905Y1111927D01*
X522946Y1111770D01*
X522984Y1111612D01*
X523018Y1111452D01*
X523047Y1111293D01*
X523073Y1111132D01*
X523095Y1110971D01*
X523113Y1110809D01*
X523127Y1110647D01*
X523137Y1110485D01*
X523143Y1110323D01*
X523145Y1110160D01*
X523143Y1109997D01*
X523137Y1109835D01*
X523127Y1109673D01*
X523113Y1109511D01*
X523095Y1109349D01*
X523073Y1109188D01*
X523047Y1109027D01*
X523018Y1108868D01*
X522984Y1108708D01*
X522946Y1108550D01*
X522905Y1108393D01*
X522860Y1108237D01*
X522811Y1108082D01*
X522758Y1107928D01*
X522701Y1107776D01*
X522641Y1107625D01*
X522577Y1107475D01*
X522509Y1107327D01*
X522438Y1107181D01*
X522363Y1107037D01*
X522284Y1106895D01*
X522202Y1106754D01*
X522117Y1106616D01*
X522028Y1106479D01*
X521936Y1106345D01*
X521841Y1106213D01*
X521743Y1106084D01*
X521641Y1105957D01*
X521537Y1105833D01*
X521429Y1105711D01*
X521318Y1105592D01*
X521205Y1105475D01*
X521088Y1105362D01*
X520969Y1105251D01*
X520847Y1105143D01*
X520723Y1105039D01*
X520596Y1104937D01*
X520467Y1104839D01*
X520335Y1104744D01*
X520201Y1104652D01*
X520064Y1104563D01*
X519926Y1104478D01*
X519785Y1104396D01*
X519643Y1104317D01*
X519499Y1104242D01*
X519353Y1104171D01*
X519205Y1104103D01*
X519055Y1104039D01*
X518904Y1103979D01*
X518752Y1103922D01*
X518598Y1103869D01*
X518443Y1103820D01*
X518287Y1103775D01*
X518130Y1103734D01*
X517972Y1103696D01*
X517812Y1103662D01*
X517653Y1103633D01*
X517492Y1103607D01*
X517331Y1103585D01*
X517169Y1103567D01*
X517007Y1103553D01*
X516845Y1103543D01*
X516683Y1103537D01*
X516520Y1103535D01*
X516357Y1103537D01*
X516195Y1103543D01*
X516033Y1103553D01*
X515871Y1103567D01*
X515709Y1103585D01*
X515548Y1103607D01*
X515387Y1103633D01*
X515228Y1103662D01*
X515068Y1103696D01*
X514910Y1103734D01*
X514753Y1103775D01*
X514597Y1103820D01*
X514442Y1103869D01*
X514288Y1103922D01*
X514136Y1103979D01*
X513985Y1104039D01*
X513835Y1104103D01*
X513687Y1104171D01*
X513541Y1104242D01*
X513397Y1104317D01*
X513255Y1104396D01*
X513114Y1104478D01*
X512976Y1104563D01*
X512839Y1104652D01*
X512705Y1104744D01*
X512573Y1104839D01*
X512444Y1104937D01*
X512317Y1105039D01*
X512193Y1105143D01*
X512071Y1105251D01*
X511952Y1105362D01*
X511835Y1105475D01*
X511722Y1105592D01*
X511611Y1105711D01*
X511503Y1105833D01*
X511399Y1105957D01*
X511297Y1106084D01*
X511199Y1106213D01*
X511104Y1106345D01*
X511012Y1106479D01*
X510923Y1106616D01*
X510838Y1106754D01*
X510756Y1106895D01*
X510677Y1107037D01*
X510602Y1107181D01*
X510531Y1107327D01*
X510463Y1107475D01*
X510399Y1107625D01*
X510339Y1107776D01*
X510282Y1107928D01*
X510229Y1108082D01*
X510180Y1108237D01*
X510135Y1108393D01*
X510094Y1108550D01*
X510056Y1108708D01*
X510022Y1108868D01*
X509993Y1109027D01*
X509967Y1109188D01*
X509945Y1109349D01*
X509927Y1109511D01*
X509913Y1109673D01*
X509903Y1109835D01*
X509897Y1109997D01*
X509895Y1110160D01*
D31*
X510020Y1110160D03*
D32*
X516520Y1116660D03*
X516520Y1103660D03*
D31*
X523020Y1110160D03*
D33*
X556020Y1142160D03*
X556020Y1158160D03*
X597020Y1158160D03*
X597020Y1142160D03*
D19*
X615020Y1025160D03*
X598020Y1025160D03*
X598020Y1040160D03*
X615020Y1040160D03*
X598020Y1085160D03*
X615020Y1085160D03*
X598020Y1070160D03*
X615020Y1070160D03*
X615020Y1055160D03*
X598020Y1055160D03*
X615020Y1010160D03*
X598020Y1010160D03*
D13*
X551520Y1105160D03*
X551520Y1115160D03*
D15*
X808170Y1111460D03*
X808170Y1124160D03*
X808170Y1136860D03*
X808170Y1149560D03*
X808170Y1098760D03*
X820870Y1111460D03*
X820870Y1124160D03*
X820870Y1136860D03*
X820870Y1149560D03*
X820870Y1098760D03*
D13*
X763520Y979160D03*
X763520Y969160D03*
D19*
X745020Y945160D03*
X728020Y945160D03*
D13*
X763520Y961160D03*
X763520Y951160D03*
D28*
X529520Y901160D03*
D29*
X516520Y910160D03*
D28*
X539520Y901160D03*
X539520Y919160D03*
X529520Y919160D03*
D30*
X509895Y910160D02*
X509897Y910323D01*
X509903Y910485D01*
X509913Y910647D01*
X509927Y910809D01*
X509945Y910971D01*
X509967Y911132D01*
X509993Y911293D01*
X510022Y911452D01*
X510056Y911612D01*
X510094Y911770D01*
X510135Y911927D01*
X510180Y912083D01*
X510229Y912238D01*
X510282Y912392D01*
X510339Y912544D01*
X510399Y912695D01*
X510463Y912845D01*
X510531Y912993D01*
X510602Y913139D01*
X510677Y913283D01*
X510756Y913425D01*
X510838Y913566D01*
X510923Y913704D01*
X511012Y913841D01*
X511104Y913975D01*
X511199Y914107D01*
X511297Y914236D01*
X511399Y914363D01*
X511503Y914487D01*
X511611Y914609D01*
X511722Y914728D01*
X511835Y914845D01*
X511952Y914958D01*
X512071Y915069D01*
X512193Y915177D01*
X512317Y915281D01*
X512444Y915383D01*
X512573Y915481D01*
X512705Y915576D01*
X512839Y915668D01*
X512976Y915757D01*
X513114Y915842D01*
X513255Y915924D01*
X513397Y916003D01*
X513541Y916078D01*
X513687Y916149D01*
X513835Y916217D01*
X513985Y916281D01*
X514136Y916341D01*
X514288Y916398D01*
X514442Y916451D01*
X514597Y916500D01*
X514753Y916545D01*
X514910Y916586D01*
X515068Y916624D01*
X515228Y916658D01*
X515387Y916687D01*
X515548Y916713D01*
X515709Y916735D01*
X515871Y916753D01*
X516033Y916767D01*
X516195Y916777D01*
X516357Y916783D01*
X516520Y916785D01*
X516683Y916783D01*
X516845Y916777D01*
X517007Y916767D01*
X517169Y916753D01*
X517331Y916735D01*
X517492Y916713D01*
X517653Y916687D01*
X517812Y916658D01*
X517972Y916624D01*
X518130Y916586D01*
X518287Y916545D01*
X518443Y916500D01*
X518598Y916451D01*
X518752Y916398D01*
X518904Y916341D01*
X519055Y916281D01*
X519205Y916217D01*
X519353Y916149D01*
X519499Y916078D01*
X519643Y916003D01*
X519785Y915924D01*
X519926Y915842D01*
X520064Y915757D01*
X520201Y915668D01*
X520335Y915576D01*
X520467Y915481D01*
X520596Y915383D01*
X520723Y915281D01*
X520847Y915177D01*
X520969Y915069D01*
X521088Y914958D01*
X521205Y914845D01*
X521318Y914728D01*
X521429Y914609D01*
X521537Y914487D01*
X521641Y914363D01*
X521743Y914236D01*
X521841Y914107D01*
X521936Y913975D01*
X522028Y913841D01*
X522117Y913704D01*
X522202Y913566D01*
X522284Y913425D01*
X522363Y913283D01*
X522438Y913139D01*
X522509Y912993D01*
X522577Y912845D01*
X522641Y912695D01*
X522701Y912544D01*
X522758Y912392D01*
X522811Y912238D01*
X522860Y912083D01*
X522905Y911927D01*
X522946Y911770D01*
X522984Y911612D01*
X523018Y911452D01*
X523047Y911293D01*
X523073Y911132D01*
X523095Y910971D01*
X523113Y910809D01*
X523127Y910647D01*
X523137Y910485D01*
X523143Y910323D01*
X523145Y910160D01*
X523143Y909997D01*
X523137Y909835D01*
X523127Y909673D01*
X523113Y909511D01*
X523095Y909349D01*
X523073Y909188D01*
X523047Y909027D01*
X523018Y908868D01*
X522984Y908708D01*
X522946Y908550D01*
X522905Y908393D01*
X522860Y908237D01*
X522811Y908082D01*
X522758Y907928D01*
X522701Y907776D01*
X522641Y907625D01*
X522577Y907475D01*
X522509Y907327D01*
X522438Y907181D01*
X522363Y907037D01*
X522284Y906895D01*
X522202Y906754D01*
X522117Y906616D01*
X522028Y906479D01*
X521936Y906345D01*
X521841Y906213D01*
X521743Y906084D01*
X521641Y905957D01*
X521537Y905833D01*
X521429Y905711D01*
X521318Y905592D01*
X521205Y905475D01*
X521088Y905362D01*
X520969Y905251D01*
X520847Y905143D01*
X520723Y905039D01*
X520596Y904937D01*
X520467Y904839D01*
X520335Y904744D01*
X520201Y904652D01*
X520064Y904563D01*
X519926Y904478D01*
X519785Y904396D01*
X519643Y904317D01*
X519499Y904242D01*
X519353Y904171D01*
X519205Y904103D01*
X519055Y904039D01*
X518904Y903979D01*
X518752Y903922D01*
X518598Y903869D01*
X518443Y903820D01*
X518287Y903775D01*
X518130Y903734D01*
X517972Y903696D01*
X517812Y903662D01*
X517653Y903633D01*
X517492Y903607D01*
X517331Y903585D01*
X517169Y903567D01*
X517007Y903553D01*
X516845Y903543D01*
X516683Y903537D01*
X516520Y903535D01*
X516357Y903537D01*
X516195Y903543D01*
X516033Y903553D01*
X515871Y903567D01*
X515709Y903585D01*
X515548Y903607D01*
X515387Y903633D01*
X515228Y903662D01*
X515068Y903696D01*
X514910Y903734D01*
X514753Y903775D01*
X514597Y903820D01*
X514442Y903869D01*
X514288Y903922D01*
X514136Y903979D01*
X513985Y904039D01*
X513835Y904103D01*
X513687Y904171D01*
X513541Y904242D01*
X513397Y904317D01*
X513255Y904396D01*
X513114Y904478D01*
X512976Y904563D01*
X512839Y904652D01*
X512705Y904744D01*
X512573Y904839D01*
X512444Y904937D01*
X512317Y905039D01*
X512193Y905143D01*
X512071Y905251D01*
X511952Y905362D01*
X511835Y905475D01*
X511722Y905592D01*
X511611Y905711D01*
X511503Y905833D01*
X511399Y905957D01*
X511297Y906084D01*
X511199Y906213D01*
X511104Y906345D01*
X511012Y906479D01*
X510923Y906616D01*
X510838Y906754D01*
X510756Y906895D01*
X510677Y907037D01*
X510602Y907181D01*
X510531Y907327D01*
X510463Y907475D01*
X510399Y907625D01*
X510339Y907776D01*
X510282Y907928D01*
X510229Y908082D01*
X510180Y908237D01*
X510135Y908393D01*
X510094Y908550D01*
X510056Y908708D01*
X510022Y908868D01*
X509993Y909027D01*
X509967Y909188D01*
X509945Y909349D01*
X509927Y909511D01*
X509913Y909673D01*
X509903Y909835D01*
X509897Y909997D01*
X509895Y910160D01*
D31*
X510020Y910160D03*
D32*
X516520Y916660D03*
X516520Y903660D03*
D31*
X523020Y910160D03*
D13*
X551520Y905160D03*
X551520Y915160D03*
D34*
X639020Y1156160D03*
D35*
X764770Y1168660D03*
D36*
X778020Y1165160D03*
X615020Y1165160D03*
D35*
X628270Y1168660D03*
D34*
X644020Y1156160D03*
X649020Y1156160D03*
X654020Y1156160D03*
X659020Y1156160D03*
X664020Y1156160D03*
X669020Y1156160D03*
X674020Y1156160D03*
X679020Y1156160D03*
X684020Y1156160D03*
X689020Y1156160D03*
X694020Y1156160D03*
X699020Y1156160D03*
X704020Y1156160D03*
X709020Y1156160D03*
X714020Y1156160D03*
X719020Y1156160D03*
X724020Y1156160D03*
X729020Y1156160D03*
X734020Y1156160D03*
X739020Y1156160D03*
X744020Y1156160D03*
X749020Y1156160D03*
X754020Y1156160D03*
D10*
X1058040Y997460D03*
X1058040Y972060D03*
X1058040Y946660D03*
X1058040Y1022860D03*
X1058040Y1048260D03*
X1058040Y1073660D03*
D11*
X1008040Y1060960D03*
X1008040Y959360D03*
D12*
X1243040Y992660D03*
X1243040Y967660D03*
D13*
X1223040Y975160D03*
X1223040Y965160D03*
X1223040Y985160D03*
X1223040Y995160D03*
D14*
X1021324Y838444D03*
X1364756Y838444D03*
X1021324Y1181876D03*
X1364756Y1181876D03*
D15*
X1003040Y1200160D03*
X1383040Y820160D03*
D16*
X1190540Y912660D03*
X1195540Y912660D03*
X1195540Y927660D03*
X1190540Y927660D03*
D17*
X1185540Y927660D03*
X1185540Y922660D03*
X1185540Y912660D03*
X1185540Y917660D03*
X1200540Y912660D03*
X1200540Y917660D03*
X1200540Y922660D03*
X1200540Y927660D03*
D18*
X1233040Y928660D03*
X1233040Y911660D03*
D13*
X1218040Y925160D03*
X1218040Y915160D03*
D18*
X1243040Y1128660D03*
X1243040Y1111660D03*
X1263040Y1128660D03*
X1263040Y1111660D03*
D19*
X1161540Y930160D03*
X1144540Y930160D03*
X1161540Y910160D03*
X1144540Y910160D03*
D20*
X1114540Y975160D03*
X1091540Y975160D03*
X1114540Y995160D03*
X1091540Y995160D03*
D21*
X1173540Y1087159D03*
X1183040Y1087159D03*
X1192540Y1087159D03*
X1192540Y1113161D03*
X1173540Y1113161D03*
D13*
X1203040Y1105160D03*
X1203040Y1095160D03*
X1178040Y1125160D03*
X1188040Y1125160D03*
D22*
X1166530Y844880D02*
X1159550Y844880D01*
X1166530Y844880D02*
X1166530Y837900D01*
X1159550Y837900D01*
X1159550Y844880D01*
X1159550Y842700D02*
X1166530Y842700D01*
X1166530Y862420D02*
X1159550Y862420D01*
X1166530Y862420D02*
X1166530Y855440D01*
X1159550Y855440D01*
X1159550Y862420D01*
X1159550Y860240D02*
X1166530Y860240D01*
X1146530Y844880D02*
X1139550Y844880D01*
X1146530Y844880D02*
X1146530Y837900D01*
X1139550Y837900D01*
X1139550Y844880D01*
X1139550Y842700D02*
X1146530Y842700D01*
X1146530Y862420D02*
X1139550Y862420D01*
X1146530Y862420D02*
X1146530Y855440D01*
X1139550Y855440D01*
X1139550Y862420D01*
X1139550Y860240D02*
X1146530Y860240D01*
X1199550Y844880D02*
X1206530Y844880D01*
X1206530Y837900D01*
X1199550Y837900D01*
X1199550Y844880D01*
X1199550Y842700D02*
X1206530Y842700D01*
X1206530Y862420D02*
X1199550Y862420D01*
X1206530Y862420D02*
X1206530Y855440D01*
X1199550Y855440D01*
X1199550Y862420D01*
X1199550Y860240D02*
X1206530Y860240D01*
X1186530Y844880D02*
X1179550Y844880D01*
X1186530Y844880D02*
X1186530Y837900D01*
X1179550Y837900D01*
X1179550Y844880D01*
X1179550Y842700D02*
X1186530Y842700D01*
X1186530Y862420D02*
X1179550Y862420D01*
X1186530Y862420D02*
X1186530Y855440D01*
X1179550Y855440D01*
X1179550Y862420D01*
X1179550Y860240D02*
X1186530Y860240D01*
D18*
X1163040Y871660D03*
X1163040Y888660D03*
X1143040Y871660D03*
X1143040Y888660D03*
X1203040Y871660D03*
X1203040Y888660D03*
X1183040Y871660D03*
X1183040Y888660D03*
D23*
X1221640Y822860D03*
X1247040Y822860D03*
X1272440Y822860D03*
X1297840Y822860D03*
X1323240Y822860D03*
X1221640Y848260D03*
X1247040Y848260D03*
X1272440Y848260D03*
X1297840Y848260D03*
X1323240Y848260D03*
D13*
X1178040Y1073160D03*
X1188040Y1073160D03*
D24*
X1379790Y1072160D03*
X1379790Y1128160D03*
D25*
X1343040Y1085160D03*
X1343040Y1095160D03*
X1343040Y1105160D03*
X1343040Y1115160D03*
D13*
X1203040Y955160D03*
X1203040Y945160D03*
X1183040Y955160D03*
X1183040Y945160D03*
D26*
X1388040Y1055160D03*
X1383040Y1047160D03*
X1378040Y1055160D03*
X1373040Y1047160D03*
X1368040Y1055160D03*
X1363040Y1047160D03*
X1358040Y1055160D03*
X1353040Y1047160D03*
X1348040Y1055160D03*
X1343040Y1047160D03*
X1338040Y1055160D03*
X1333040Y1047160D03*
X1328040Y1055160D03*
X1323040Y1047160D03*
X1318040Y1055160D03*
X1313040Y1047160D03*
X1308040Y1055160D03*
X1303040Y1047160D03*
X1298040Y1055160D03*
X1293040Y1047160D03*
X1288040Y1055160D03*
D13*
X1278040Y1055160D03*
D27*
X1278040Y1045160D03*
X1286040Y1040160D03*
X1278040Y1035160D03*
X1286040Y1030160D03*
X1278040Y1025160D03*
X1286040Y1020160D03*
X1278040Y1015160D03*
X1286040Y1010160D03*
X1278040Y1005160D03*
X1286040Y1000160D03*
X1278040Y995160D03*
X1286040Y990160D03*
X1278040Y985160D03*
X1286040Y980160D03*
X1278040Y975160D03*
D13*
X1278040Y965160D03*
D26*
X1288040Y965160D03*
X1293040Y973160D03*
X1298040Y965160D03*
X1303040Y973160D03*
X1308040Y965160D03*
X1313040Y973160D03*
X1318040Y965160D03*
X1323040Y973160D03*
X1328040Y965160D03*
X1333040Y973160D03*
X1338040Y965160D03*
X1343040Y973160D03*
X1348040Y965160D03*
X1353040Y973160D03*
X1358040Y965160D03*
X1363040Y973160D03*
X1368040Y965160D03*
X1373040Y973160D03*
X1378040Y965160D03*
X1383040Y973160D03*
X1388040Y965160D03*
D28*
X1026040Y1101160D03*
D29*
X1013040Y1110160D03*
D28*
X1036040Y1101160D03*
X1036040Y1119160D03*
X1026040Y1119160D03*
D30*
X1006415Y1110160D02*
X1006417Y1110323D01*
X1006423Y1110485D01*
X1006433Y1110647D01*
X1006447Y1110809D01*
X1006465Y1110971D01*
X1006487Y1111132D01*
X1006513Y1111293D01*
X1006542Y1111452D01*
X1006576Y1111612D01*
X1006614Y1111770D01*
X1006655Y1111927D01*
X1006700Y1112083D01*
X1006749Y1112238D01*
X1006802Y1112392D01*
X1006859Y1112544D01*
X1006919Y1112695D01*
X1006983Y1112845D01*
X1007051Y1112993D01*
X1007122Y1113139D01*
X1007197Y1113283D01*
X1007276Y1113425D01*
X1007358Y1113566D01*
X1007443Y1113704D01*
X1007532Y1113841D01*
X1007624Y1113975D01*
X1007719Y1114107D01*
X1007817Y1114236D01*
X1007919Y1114363D01*
X1008023Y1114487D01*
X1008131Y1114609D01*
X1008242Y1114728D01*
X1008355Y1114845D01*
X1008472Y1114958D01*
X1008591Y1115069D01*
X1008713Y1115177D01*
X1008837Y1115281D01*
X1008964Y1115383D01*
X1009093Y1115481D01*
X1009225Y1115576D01*
X1009359Y1115668D01*
X1009496Y1115757D01*
X1009634Y1115842D01*
X1009775Y1115924D01*
X1009917Y1116003D01*
X1010061Y1116078D01*
X1010207Y1116149D01*
X1010355Y1116217D01*
X1010505Y1116281D01*
X1010656Y1116341D01*
X1010808Y1116398D01*
X1010962Y1116451D01*
X1011117Y1116500D01*
X1011273Y1116545D01*
X1011430Y1116586D01*
X1011588Y1116624D01*
X1011748Y1116658D01*
X1011907Y1116687D01*
X1012068Y1116713D01*
X1012229Y1116735D01*
X1012391Y1116753D01*
X1012553Y1116767D01*
X1012715Y1116777D01*
X1012877Y1116783D01*
X1013040Y1116785D01*
X1013203Y1116783D01*
X1013365Y1116777D01*
X1013527Y1116767D01*
X1013689Y1116753D01*
X1013851Y1116735D01*
X1014012Y1116713D01*
X1014173Y1116687D01*
X1014332Y1116658D01*
X1014492Y1116624D01*
X1014650Y1116586D01*
X1014807Y1116545D01*
X1014963Y1116500D01*
X1015118Y1116451D01*
X1015272Y1116398D01*
X1015424Y1116341D01*
X1015575Y1116281D01*
X1015725Y1116217D01*
X1015873Y1116149D01*
X1016019Y1116078D01*
X1016163Y1116003D01*
X1016305Y1115924D01*
X1016446Y1115842D01*
X1016584Y1115757D01*
X1016721Y1115668D01*
X1016855Y1115576D01*
X1016987Y1115481D01*
X1017116Y1115383D01*
X1017243Y1115281D01*
X1017367Y1115177D01*
X1017489Y1115069D01*
X1017608Y1114958D01*
X1017725Y1114845D01*
X1017838Y1114728D01*
X1017949Y1114609D01*
X1018057Y1114487D01*
X1018161Y1114363D01*
X1018263Y1114236D01*
X1018361Y1114107D01*
X1018456Y1113975D01*
X1018548Y1113841D01*
X1018637Y1113704D01*
X1018722Y1113566D01*
X1018804Y1113425D01*
X1018883Y1113283D01*
X1018958Y1113139D01*
X1019029Y1112993D01*
X1019097Y1112845D01*
X1019161Y1112695D01*
X1019221Y1112544D01*
X1019278Y1112392D01*
X1019331Y1112238D01*
X1019380Y1112083D01*
X1019425Y1111927D01*
X1019466Y1111770D01*
X1019504Y1111612D01*
X1019538Y1111452D01*
X1019567Y1111293D01*
X1019593Y1111132D01*
X1019615Y1110971D01*
X1019633Y1110809D01*
X1019647Y1110647D01*
X1019657Y1110485D01*
X1019663Y1110323D01*
X1019665Y1110160D01*
X1019663Y1109997D01*
X1019657Y1109835D01*
X1019647Y1109673D01*
X1019633Y1109511D01*
X1019615Y1109349D01*
X1019593Y1109188D01*
X1019567Y1109027D01*
X1019538Y1108868D01*
X1019504Y1108708D01*
X1019466Y1108550D01*
X1019425Y1108393D01*
X1019380Y1108237D01*
X1019331Y1108082D01*
X1019278Y1107928D01*
X1019221Y1107776D01*
X1019161Y1107625D01*
X1019097Y1107475D01*
X1019029Y1107327D01*
X1018958Y1107181D01*
X1018883Y1107037D01*
X1018804Y1106895D01*
X1018722Y1106754D01*
X1018637Y1106616D01*
X1018548Y1106479D01*
X1018456Y1106345D01*
X1018361Y1106213D01*
X1018263Y1106084D01*
X1018161Y1105957D01*
X1018057Y1105833D01*
X1017949Y1105711D01*
X1017838Y1105592D01*
X1017725Y1105475D01*
X1017608Y1105362D01*
X1017489Y1105251D01*
X1017367Y1105143D01*
X1017243Y1105039D01*
X1017116Y1104937D01*
X1016987Y1104839D01*
X1016855Y1104744D01*
X1016721Y1104652D01*
X1016584Y1104563D01*
X1016446Y1104478D01*
X1016305Y1104396D01*
X1016163Y1104317D01*
X1016019Y1104242D01*
X1015873Y1104171D01*
X1015725Y1104103D01*
X1015575Y1104039D01*
X1015424Y1103979D01*
X1015272Y1103922D01*
X1015118Y1103869D01*
X1014963Y1103820D01*
X1014807Y1103775D01*
X1014650Y1103734D01*
X1014492Y1103696D01*
X1014332Y1103662D01*
X1014173Y1103633D01*
X1014012Y1103607D01*
X1013851Y1103585D01*
X1013689Y1103567D01*
X1013527Y1103553D01*
X1013365Y1103543D01*
X1013203Y1103537D01*
X1013040Y1103535D01*
X1012877Y1103537D01*
X1012715Y1103543D01*
X1012553Y1103553D01*
X1012391Y1103567D01*
X1012229Y1103585D01*
X1012068Y1103607D01*
X1011907Y1103633D01*
X1011748Y1103662D01*
X1011588Y1103696D01*
X1011430Y1103734D01*
X1011273Y1103775D01*
X1011117Y1103820D01*
X1010962Y1103869D01*
X1010808Y1103922D01*
X1010656Y1103979D01*
X1010505Y1104039D01*
X1010355Y1104103D01*
X1010207Y1104171D01*
X1010061Y1104242D01*
X1009917Y1104317D01*
X1009775Y1104396D01*
X1009634Y1104478D01*
X1009496Y1104563D01*
X1009359Y1104652D01*
X1009225Y1104744D01*
X1009093Y1104839D01*
X1008964Y1104937D01*
X1008837Y1105039D01*
X1008713Y1105143D01*
X1008591Y1105251D01*
X1008472Y1105362D01*
X1008355Y1105475D01*
X1008242Y1105592D01*
X1008131Y1105711D01*
X1008023Y1105833D01*
X1007919Y1105957D01*
X1007817Y1106084D01*
X1007719Y1106213D01*
X1007624Y1106345D01*
X1007532Y1106479D01*
X1007443Y1106616D01*
X1007358Y1106754D01*
X1007276Y1106895D01*
X1007197Y1107037D01*
X1007122Y1107181D01*
X1007051Y1107327D01*
X1006983Y1107475D01*
X1006919Y1107625D01*
X1006859Y1107776D01*
X1006802Y1107928D01*
X1006749Y1108082D01*
X1006700Y1108237D01*
X1006655Y1108393D01*
X1006614Y1108550D01*
X1006576Y1108708D01*
X1006542Y1108868D01*
X1006513Y1109027D01*
X1006487Y1109188D01*
X1006465Y1109349D01*
X1006447Y1109511D01*
X1006433Y1109673D01*
X1006423Y1109835D01*
X1006417Y1109997D01*
X1006415Y1110160D01*
D31*
X1006540Y1110160D03*
D32*
X1013040Y1116660D03*
X1013040Y1103660D03*
D31*
X1019540Y1110160D03*
D33*
X1052540Y1142160D03*
X1052540Y1158160D03*
X1093540Y1158160D03*
X1093540Y1142160D03*
D19*
X1111540Y1025160D03*
X1094540Y1025160D03*
X1094540Y1040160D03*
X1111540Y1040160D03*
X1094540Y1085160D03*
X1111540Y1085160D03*
X1094540Y1070160D03*
X1111540Y1070160D03*
X1111540Y1055160D03*
X1094540Y1055160D03*
X1111540Y1010160D03*
X1094540Y1010160D03*
D13*
X1048040Y1105160D03*
X1048040Y1115160D03*
D15*
X1304690Y1111460D03*
X1304690Y1124160D03*
X1304690Y1136860D03*
X1304690Y1149560D03*
X1304690Y1098760D03*
X1317390Y1111460D03*
X1317390Y1124160D03*
X1317390Y1136860D03*
X1317390Y1149560D03*
X1317390Y1098760D03*
D13*
X1260040Y979160D03*
X1260040Y969160D03*
D19*
X1241540Y945160D03*
X1224540Y945160D03*
D13*
X1260040Y961160D03*
X1260040Y951160D03*
D28*
X1026040Y901160D03*
D29*
X1013040Y910160D03*
D28*
X1036040Y901160D03*
X1036040Y919160D03*
X1026040Y919160D03*
D30*
X1006415Y910160D02*
X1006417Y910323D01*
X1006423Y910485D01*
X1006433Y910647D01*
X1006447Y910809D01*
X1006465Y910971D01*
X1006487Y911132D01*
X1006513Y911293D01*
X1006542Y911452D01*
X1006576Y911612D01*
X1006614Y911770D01*
X1006655Y911927D01*
X1006700Y912083D01*
X1006749Y912238D01*
X1006802Y912392D01*
X1006859Y912544D01*
X1006919Y912695D01*
X1006983Y912845D01*
X1007051Y912993D01*
X1007122Y913139D01*
X1007197Y913283D01*
X1007276Y913425D01*
X1007358Y913566D01*
X1007443Y913704D01*
X1007532Y913841D01*
X1007624Y913975D01*
X1007719Y914107D01*
X1007817Y914236D01*
X1007919Y914363D01*
X1008023Y914487D01*
X1008131Y914609D01*
X1008242Y914728D01*
X1008355Y914845D01*
X1008472Y914958D01*
X1008591Y915069D01*
X1008713Y915177D01*
X1008837Y915281D01*
X1008964Y915383D01*
X1009093Y915481D01*
X1009225Y915576D01*
X1009359Y915668D01*
X1009496Y915757D01*
X1009634Y915842D01*
X1009775Y915924D01*
X1009917Y916003D01*
X1010061Y916078D01*
X1010207Y916149D01*
X1010355Y916217D01*
X1010505Y916281D01*
X1010656Y916341D01*
X1010808Y916398D01*
X1010962Y916451D01*
X1011117Y916500D01*
X1011273Y916545D01*
X1011430Y916586D01*
X1011588Y916624D01*
X1011748Y916658D01*
X1011907Y916687D01*
X1012068Y916713D01*
X1012229Y916735D01*
X1012391Y916753D01*
X1012553Y916767D01*
X1012715Y916777D01*
X1012877Y916783D01*
X1013040Y916785D01*
X1013203Y916783D01*
X1013365Y916777D01*
X1013527Y916767D01*
X1013689Y916753D01*
X1013851Y916735D01*
X1014012Y916713D01*
X1014173Y916687D01*
X1014332Y916658D01*
X1014492Y916624D01*
X1014650Y916586D01*
X1014807Y916545D01*
X1014963Y916500D01*
X1015118Y916451D01*
X1015272Y916398D01*
X1015424Y916341D01*
X1015575Y916281D01*
X1015725Y916217D01*
X1015873Y916149D01*
X1016019Y916078D01*
X1016163Y916003D01*
X1016305Y915924D01*
X1016446Y915842D01*
X1016584Y915757D01*
X1016721Y915668D01*
X1016855Y915576D01*
X1016987Y915481D01*
X1017116Y915383D01*
X1017243Y915281D01*
X1017367Y915177D01*
X1017489Y915069D01*
X1017608Y914958D01*
X1017725Y914845D01*
X1017838Y914728D01*
X1017949Y914609D01*
X1018057Y914487D01*
X1018161Y914363D01*
X1018263Y914236D01*
X1018361Y914107D01*
X1018456Y913975D01*
X1018548Y913841D01*
X1018637Y913704D01*
X1018722Y913566D01*
X1018804Y913425D01*
X1018883Y913283D01*
X1018958Y913139D01*
X1019029Y912993D01*
X1019097Y912845D01*
X1019161Y912695D01*
X1019221Y912544D01*
X1019278Y912392D01*
X1019331Y912238D01*
X1019380Y912083D01*
X1019425Y911927D01*
X1019466Y911770D01*
X1019504Y911612D01*
X1019538Y911452D01*
X1019567Y911293D01*
X1019593Y911132D01*
X1019615Y910971D01*
X1019633Y910809D01*
X1019647Y910647D01*
X1019657Y910485D01*
X1019663Y910323D01*
X1019665Y910160D01*
X1019663Y909997D01*
X1019657Y909835D01*
X1019647Y909673D01*
X1019633Y909511D01*
X1019615Y909349D01*
X1019593Y909188D01*
X1019567Y909027D01*
X1019538Y908868D01*
X1019504Y908708D01*
X1019466Y908550D01*
X1019425Y908393D01*
X1019380Y908237D01*
X1019331Y908082D01*
X1019278Y907928D01*
X1019221Y907776D01*
X1019161Y907625D01*
X1019097Y907475D01*
X1019029Y907327D01*
X1018958Y907181D01*
X1018883Y907037D01*
X1018804Y906895D01*
X1018722Y906754D01*
X1018637Y906616D01*
X1018548Y906479D01*
X1018456Y906345D01*
X1018361Y906213D01*
X1018263Y906084D01*
X1018161Y905957D01*
X1018057Y905833D01*
X1017949Y905711D01*
X1017838Y905592D01*
X1017725Y905475D01*
X1017608Y905362D01*
X1017489Y905251D01*
X1017367Y905143D01*
X1017243Y905039D01*
X1017116Y904937D01*
X1016987Y904839D01*
X1016855Y904744D01*
X1016721Y904652D01*
X1016584Y904563D01*
X1016446Y904478D01*
X1016305Y904396D01*
X1016163Y904317D01*
X1016019Y904242D01*
X1015873Y904171D01*
X1015725Y904103D01*
X1015575Y904039D01*
X1015424Y903979D01*
X1015272Y903922D01*
X1015118Y903869D01*
X1014963Y903820D01*
X1014807Y903775D01*
X1014650Y903734D01*
X1014492Y903696D01*
X1014332Y903662D01*
X1014173Y903633D01*
X1014012Y903607D01*
X1013851Y903585D01*
X1013689Y903567D01*
X1013527Y903553D01*
X1013365Y903543D01*
X1013203Y903537D01*
X1013040Y903535D01*
X1012877Y903537D01*
X1012715Y903543D01*
X1012553Y903553D01*
X1012391Y903567D01*
X1012229Y903585D01*
X1012068Y903607D01*
X1011907Y903633D01*
X1011748Y903662D01*
X1011588Y903696D01*
X1011430Y903734D01*
X1011273Y903775D01*
X1011117Y903820D01*
X1010962Y903869D01*
X1010808Y903922D01*
X1010656Y903979D01*
X1010505Y904039D01*
X1010355Y904103D01*
X1010207Y904171D01*
X1010061Y904242D01*
X1009917Y904317D01*
X1009775Y904396D01*
X1009634Y904478D01*
X1009496Y904563D01*
X1009359Y904652D01*
X1009225Y904744D01*
X1009093Y904839D01*
X1008964Y904937D01*
X1008837Y905039D01*
X1008713Y905143D01*
X1008591Y905251D01*
X1008472Y905362D01*
X1008355Y905475D01*
X1008242Y905592D01*
X1008131Y905711D01*
X1008023Y905833D01*
X1007919Y905957D01*
X1007817Y906084D01*
X1007719Y906213D01*
X1007624Y906345D01*
X1007532Y906479D01*
X1007443Y906616D01*
X1007358Y906754D01*
X1007276Y906895D01*
X1007197Y907037D01*
X1007122Y907181D01*
X1007051Y907327D01*
X1006983Y907475D01*
X1006919Y907625D01*
X1006859Y907776D01*
X1006802Y907928D01*
X1006749Y908082D01*
X1006700Y908237D01*
X1006655Y908393D01*
X1006614Y908550D01*
X1006576Y908708D01*
X1006542Y908868D01*
X1006513Y909027D01*
X1006487Y909188D01*
X1006465Y909349D01*
X1006447Y909511D01*
X1006433Y909673D01*
X1006423Y909835D01*
X1006417Y909997D01*
X1006415Y910160D01*
D31*
X1006540Y910160D03*
D32*
X1013040Y916660D03*
X1013040Y903660D03*
D31*
X1019540Y910160D03*
D13*
X1048040Y905160D03*
X1048040Y915160D03*
D34*
X1135540Y1156160D03*
D35*
X1261290Y1168660D03*
D36*
X1274540Y1165160D03*
X1111540Y1165160D03*
D35*
X1124790Y1168660D03*
D34*
X1140540Y1156160D03*
X1145540Y1156160D03*
X1150540Y1156160D03*
X1155540Y1156160D03*
X1160540Y1156160D03*
X1165540Y1156160D03*
X1170540Y1156160D03*
X1175540Y1156160D03*
X1180540Y1156160D03*
X1185540Y1156160D03*
X1190540Y1156160D03*
X1195540Y1156160D03*
X1200540Y1156160D03*
X1205540Y1156160D03*
X1210540Y1156160D03*
X1215540Y1156160D03*
X1220540Y1156160D03*
X1225540Y1156160D03*
X1230540Y1156160D03*
X1235540Y1156160D03*
X1240540Y1156160D03*
X1245540Y1156160D03*
X1250540Y1156160D03*
D15*
X160020Y1231115D03*
X1233020Y1231115D03*
D37*
X150965Y-20955D02*
X150968Y-20733D01*
X150976Y-20511D01*
X150990Y-20289D01*
X151009Y-20067D01*
X151033Y-19847D01*
X151063Y-19626D01*
X151098Y-19407D01*
X151139Y-19188D01*
X151185Y-18971D01*
X151236Y-18755D01*
X151293Y-18540D01*
X151355Y-18326D01*
X151422Y-18115D01*
X151494Y-17904D01*
X151572Y-17696D01*
X151654Y-17490D01*
X151742Y-17286D01*
X151834Y-17083D01*
X151932Y-16884D01*
X152034Y-16687D01*
X152141Y-16492D01*
X152253Y-16300D01*
X152370Y-16111D01*
X152491Y-15924D01*
X152617Y-15741D01*
X152747Y-15561D01*
X152882Y-15384D01*
X153020Y-15211D01*
X153163Y-15041D01*
X153311Y-14874D01*
X153462Y-14711D01*
X153617Y-14552D01*
X153776Y-14397D01*
X153939Y-14246D01*
X154106Y-14098D01*
X154276Y-13955D01*
X154449Y-13817D01*
X154626Y-13682D01*
X154806Y-13552D01*
X154989Y-13426D01*
X155176Y-13305D01*
X155365Y-13188D01*
X155557Y-13076D01*
X155752Y-12969D01*
X155949Y-12867D01*
X156148Y-12769D01*
X156351Y-12677D01*
X156555Y-12589D01*
X156761Y-12507D01*
X156969Y-12429D01*
X157180Y-12357D01*
X157391Y-12290D01*
X157605Y-12228D01*
X157820Y-12171D01*
X158036Y-12120D01*
X158253Y-12074D01*
X158472Y-12033D01*
X158691Y-11998D01*
X158912Y-11968D01*
X159132Y-11944D01*
X159354Y-11925D01*
X159576Y-11911D01*
X159798Y-11903D01*
X160020Y-11900D01*
X160242Y-11903D01*
X160464Y-11911D01*
X160686Y-11925D01*
X160908Y-11944D01*
X161128Y-11968D01*
X161349Y-11998D01*
X161568Y-12033D01*
X161787Y-12074D01*
X162004Y-12120D01*
X162220Y-12171D01*
X162435Y-12228D01*
X162649Y-12290D01*
X162860Y-12357D01*
X163071Y-12429D01*
X163279Y-12507D01*
X163485Y-12589D01*
X163689Y-12677D01*
X163892Y-12769D01*
X164091Y-12867D01*
X164288Y-12969D01*
X164483Y-13076D01*
X164675Y-13188D01*
X164864Y-13305D01*
X165051Y-13426D01*
X165234Y-13552D01*
X165414Y-13682D01*
X165591Y-13817D01*
X165764Y-13955D01*
X165934Y-14098D01*
X166101Y-14246D01*
X166264Y-14397D01*
X166423Y-14552D01*
X166578Y-14711D01*
X166729Y-14874D01*
X166877Y-15041D01*
X167020Y-15211D01*
X167158Y-15384D01*
X167293Y-15561D01*
X167423Y-15741D01*
X167549Y-15924D01*
X167670Y-16111D01*
X167787Y-16300D01*
X167899Y-16492D01*
X168006Y-16687D01*
X168108Y-16884D01*
X168206Y-17083D01*
X168298Y-17286D01*
X168386Y-17490D01*
X168468Y-17696D01*
X168546Y-17904D01*
X168618Y-18115D01*
X168685Y-18326D01*
X168747Y-18540D01*
X168804Y-18755D01*
X168855Y-18971D01*
X168901Y-19188D01*
X168942Y-19407D01*
X168977Y-19626D01*
X169007Y-19847D01*
X169031Y-20067D01*
X169050Y-20289D01*
X169064Y-20511D01*
X169072Y-20733D01*
X169075Y-20955D01*
X169072Y-21177D01*
X169064Y-21399D01*
X169050Y-21621D01*
X169031Y-21843D01*
X169007Y-22063D01*
X168977Y-22284D01*
X168942Y-22503D01*
X168901Y-22722D01*
X168855Y-22939D01*
X168804Y-23155D01*
X168747Y-23370D01*
X168685Y-23584D01*
X168618Y-23795D01*
X168546Y-24006D01*
X168468Y-24214D01*
X168386Y-24420D01*
X168298Y-24624D01*
X168206Y-24827D01*
X168108Y-25026D01*
X168006Y-25223D01*
X167899Y-25418D01*
X167787Y-25610D01*
X167670Y-25799D01*
X167549Y-25986D01*
X167423Y-26169D01*
X167293Y-26349D01*
X167158Y-26526D01*
X167020Y-26699D01*
X166877Y-26869D01*
X166729Y-27036D01*
X166578Y-27199D01*
X166423Y-27358D01*
X166264Y-27513D01*
X166101Y-27664D01*
X165934Y-27812D01*
X165764Y-27955D01*
X165591Y-28093D01*
X165414Y-28228D01*
X165234Y-28358D01*
X165051Y-28484D01*
X164864Y-28605D01*
X164675Y-28722D01*
X164483Y-28834D01*
X164288Y-28941D01*
X164091Y-29043D01*
X163892Y-29141D01*
X163689Y-29233D01*
X163485Y-29321D01*
X163279Y-29403D01*
X163071Y-29481D01*
X162860Y-29553D01*
X162649Y-29620D01*
X162435Y-29682D01*
X162220Y-29739D01*
X162004Y-29790D01*
X161787Y-29836D01*
X161568Y-29877D01*
X161349Y-29912D01*
X161128Y-29942D01*
X160908Y-29966D01*
X160686Y-29985D01*
X160464Y-29999D01*
X160242Y-30007D01*
X160020Y-30010D01*
X159798Y-30007D01*
X159576Y-29999D01*
X159354Y-29985D01*
X159132Y-29966D01*
X158912Y-29942D01*
X158691Y-29912D01*
X158472Y-29877D01*
X158253Y-29836D01*
X158036Y-29790D01*
X157820Y-29739D01*
X157605Y-29682D01*
X157391Y-29620D01*
X157180Y-29553D01*
X156969Y-29481D01*
X156761Y-29403D01*
X156555Y-29321D01*
X156351Y-29233D01*
X156148Y-29141D01*
X155949Y-29043D01*
X155752Y-28941D01*
X155557Y-28834D01*
X155365Y-28722D01*
X155176Y-28605D01*
X154989Y-28484D01*
X154806Y-28358D01*
X154626Y-28228D01*
X154449Y-28093D01*
X154276Y-27955D01*
X154106Y-27812D01*
X153939Y-27664D01*
X153776Y-27513D01*
X153617Y-27358D01*
X153462Y-27199D01*
X153311Y-27036D01*
X153163Y-26869D01*
X153020Y-26699D01*
X152882Y-26526D01*
X152747Y-26349D01*
X152617Y-26169D01*
X152491Y-25986D01*
X152370Y-25799D01*
X152253Y-25610D01*
X152141Y-25418D01*
X152034Y-25223D01*
X151932Y-25026D01*
X151834Y-24827D01*
X151742Y-24624D01*
X151654Y-24420D01*
X151572Y-24214D01*
X151494Y-24006D01*
X151422Y-23795D01*
X151355Y-23584D01*
X151293Y-23370D01*
X151236Y-23155D01*
X151185Y-22939D01*
X151139Y-22722D01*
X151098Y-22503D01*
X151063Y-22284D01*
X151033Y-22063D01*
X151009Y-21843D01*
X150990Y-21621D01*
X150976Y-21399D01*
X150968Y-21177D01*
X150965Y-20955D01*
D38*
X160020Y-20955D03*
M02*
