G75*
%MOIN*%
%OFA0B0*%
%FSLAX25Y25*%
%IPPOS*%
%LPD*%
%AMOC8*
5,1,8,0,0,1.08239X$1,22.5*
%
%ADD10C,0.06312*%
%ADD11R,0.10800X0.07800*%
%ADD12C,0.32296*%
%ADD13C,0.13800*%
%ADD14C,0.04737*%
%ADD15C,0.08200*%
%ADD16C,0.05800*%
%ADD17C,0.03950*%
%ADD18C,0.05000*%
%ADD19C,0.06706*%
D10*
X0085302Y0114921D03*
X0085302Y0154921D03*
X0085302Y0274402D03*
X0085302Y0314402D03*
X0085302Y0433882D03*
X0085302Y0473882D03*
X0280782Y0473882D03*
X0280782Y0433882D03*
X0280782Y0314402D03*
X0280782Y0274402D03*
X0280782Y0154921D03*
X0280782Y0114921D03*
X0476262Y0114921D03*
X0476262Y0154921D03*
X0476262Y0274402D03*
X0476262Y0314402D03*
X0476262Y0433882D03*
X0476262Y0473882D03*
D11*
X0505593Y0497189D03*
X0517798Y0497189D03*
X0517798Y0410575D03*
X0505593Y0410575D03*
X0505593Y0337709D03*
X0517798Y0337709D03*
X0517798Y0251094D03*
X0505593Y0251094D03*
X0505593Y0178228D03*
X0517798Y0178228D03*
X0517798Y0091614D03*
X0505593Y0091614D03*
X0322318Y0091614D03*
X0310113Y0091614D03*
X0310113Y0178228D03*
X0322318Y0178228D03*
X0322318Y0251094D03*
X0310113Y0251094D03*
X0310113Y0337709D03*
X0322318Y0337709D03*
X0322318Y0410575D03*
X0310113Y0410575D03*
X0310113Y0497189D03*
X0322318Y0497189D03*
X0126837Y0497189D03*
X0114633Y0497189D03*
X0114633Y0410575D03*
X0126837Y0410575D03*
X0126837Y0337709D03*
X0114633Y0337709D03*
X0114633Y0251094D03*
X0126837Y0251094D03*
X0126837Y0178228D03*
X0114633Y0178228D03*
X0114633Y0091614D03*
X0126837Y0091614D03*
D12*
X0120735Y0125079D02*
X0120735Y0144763D01*
X0316215Y0144763D02*
X0316215Y0125079D01*
X0511696Y0125079D02*
X0511696Y0144763D01*
X0511696Y0284560D02*
X0511696Y0304244D01*
X0316215Y0304244D02*
X0316215Y0284560D01*
X0120735Y0284560D02*
X0120735Y0304244D01*
X0120735Y0444040D02*
X0120735Y0463724D01*
X0316215Y0463724D02*
X0316215Y0444040D01*
X0511696Y0444040D02*
X0511696Y0463724D01*
D13*
X0090532Y0067317D03*
X0225741Y0067317D03*
X0286012Y0067317D03*
X0421221Y0067317D03*
X0481492Y0067317D03*
X0616702Y0067317D03*
X0616702Y0202526D03*
X0616702Y0226797D03*
X0481492Y0226797D03*
X0481492Y0202526D03*
X0421221Y0202526D03*
X0421221Y0226797D03*
X0286012Y0226797D03*
X0286012Y0202526D03*
X0225741Y0202526D03*
X0225741Y0226797D03*
X0090532Y0226797D03*
X0090532Y0202526D03*
X0090532Y0362006D03*
X0090532Y0386277D03*
X0225741Y0386277D03*
X0225741Y0362006D03*
X0286012Y0362006D03*
X0286012Y0386277D03*
X0421221Y0386277D03*
X0421221Y0362006D03*
X0481492Y0362006D03*
X0481492Y0386277D03*
X0616702Y0386277D03*
X0616702Y0362006D03*
X0616702Y0521486D03*
X0481492Y0521486D03*
X0421221Y0521486D03*
X0286012Y0521486D03*
X0225741Y0521486D03*
X0090532Y0521486D03*
D14*
X0083333Y0528685D03*
X0142396Y0540872D03*
X0202093Y0508764D03*
X0207093Y0508764D03*
X0207093Y0503764D03*
X0202093Y0503764D03*
X0202093Y0498764D03*
X0207093Y0498764D03*
X0207093Y0493764D03*
X0202093Y0493764D03*
X0202093Y0488764D03*
X0207093Y0488764D03*
X0278814Y0528685D03*
X0397573Y0508764D03*
X0397573Y0503764D03*
X0397573Y0498764D03*
X0397573Y0493764D03*
X0397573Y0488764D03*
X0402573Y0488764D03*
X0402573Y0493764D03*
X0402573Y0498764D03*
X0402573Y0503764D03*
X0402573Y0508764D03*
X0474294Y0528685D03*
X0564837Y0540872D03*
X0593054Y0508764D03*
X0598054Y0508764D03*
X0598054Y0503764D03*
X0593054Y0503764D03*
X0593054Y0498764D03*
X0598054Y0498764D03*
X0598054Y0493764D03*
X0593054Y0493764D03*
X0593054Y0488764D03*
X0598054Y0488764D03*
X0623900Y0379079D03*
X0598054Y0349283D03*
X0598054Y0344283D03*
X0598054Y0339283D03*
X0598054Y0334283D03*
X0598054Y0329283D03*
X0593054Y0329283D03*
X0593054Y0334283D03*
X0593054Y0339283D03*
X0593054Y0344283D03*
X0593054Y0349283D03*
X0474294Y0369205D03*
X0428420Y0379079D03*
X0402573Y0349283D03*
X0397573Y0349283D03*
X0397573Y0344283D03*
X0397573Y0339283D03*
X0397573Y0334283D03*
X0397573Y0329283D03*
X0402573Y0329283D03*
X0402573Y0334283D03*
X0402573Y0339283D03*
X0402573Y0344283D03*
X0278814Y0369205D03*
X0232940Y0379079D03*
X0207093Y0349283D03*
X0207093Y0344283D03*
X0207093Y0339283D03*
X0207093Y0334283D03*
X0207093Y0329283D03*
X0202093Y0329283D03*
X0202093Y0334283D03*
X0202093Y0339283D03*
X0202093Y0344283D03*
X0202093Y0349283D03*
X0083333Y0369205D03*
X0232940Y0219598D03*
X0207093Y0189803D03*
X0202093Y0189803D03*
X0202093Y0184803D03*
X0202093Y0179803D03*
X0202093Y0174803D03*
X0202093Y0169803D03*
X0207093Y0169803D03*
X0207093Y0174803D03*
X0207093Y0179803D03*
X0207093Y0184803D03*
X0278814Y0209724D03*
X0397573Y0189803D03*
X0397573Y0184803D03*
X0397573Y0179803D03*
X0397573Y0174803D03*
X0397573Y0169803D03*
X0402573Y0169803D03*
X0402573Y0174803D03*
X0402573Y0179803D03*
X0402573Y0184803D03*
X0402573Y0189803D03*
X0428420Y0219598D03*
X0474294Y0209724D03*
X0593054Y0189803D03*
X0598054Y0189803D03*
X0598054Y0184803D03*
X0598054Y0179803D03*
X0598054Y0174803D03*
X0598054Y0169803D03*
X0593054Y0169803D03*
X0593054Y0174803D03*
X0593054Y0179803D03*
X0593054Y0184803D03*
X0623900Y0219598D03*
X0623900Y0060118D03*
X0428420Y0060118D03*
X0232940Y0060118D03*
X0083333Y0209724D03*
D15*
X0119396Y0227661D03*
X0129396Y0227661D03*
X0169396Y0230661D03*
X0179396Y0230661D03*
X0189396Y0230661D03*
X0199396Y0230661D03*
X0199396Y0220661D03*
X0189396Y0220661D03*
X0179396Y0220661D03*
X0169396Y0220661D03*
X0209396Y0220661D03*
X0209396Y0230661D03*
X0314877Y0227661D03*
X0324877Y0227661D03*
X0364877Y0230661D03*
X0374877Y0230661D03*
X0374877Y0220661D03*
X0364877Y0220661D03*
X0384877Y0220661D03*
X0394877Y0220661D03*
X0404877Y0220661D03*
X0404877Y0230661D03*
X0394877Y0230661D03*
X0384877Y0230661D03*
X0510357Y0227661D03*
X0520357Y0227661D03*
X0560357Y0230661D03*
X0570357Y0230661D03*
X0580357Y0230661D03*
X0590357Y0230661D03*
X0590357Y0220661D03*
X0580357Y0220661D03*
X0570357Y0220661D03*
X0560357Y0220661D03*
X0600357Y0220661D03*
X0600357Y0230661D03*
X0600357Y0380142D03*
X0600357Y0390142D03*
X0590357Y0390142D03*
X0580357Y0390142D03*
X0570357Y0390142D03*
X0560357Y0390142D03*
X0560357Y0380142D03*
X0570357Y0380142D03*
X0580357Y0380142D03*
X0590357Y0380142D03*
X0520357Y0387142D03*
X0510357Y0387142D03*
X0404877Y0390142D03*
X0394877Y0390142D03*
X0384877Y0390142D03*
X0384877Y0380142D03*
X0394877Y0380142D03*
X0404877Y0380142D03*
X0374877Y0380142D03*
X0364877Y0380142D03*
X0364877Y0390142D03*
X0374877Y0390142D03*
X0324877Y0387142D03*
X0314877Y0387142D03*
X0209396Y0390142D03*
X0199396Y0390142D03*
X0189396Y0390142D03*
X0179396Y0390142D03*
X0169396Y0390142D03*
X0169396Y0380142D03*
X0179396Y0380142D03*
X0189396Y0380142D03*
X0199396Y0380142D03*
X0209396Y0380142D03*
X0129396Y0387142D03*
X0119396Y0387142D03*
X0119396Y0068181D03*
X0129396Y0068181D03*
X0169396Y0071181D03*
X0179396Y0071181D03*
X0189396Y0071181D03*
X0199396Y0071181D03*
X0199396Y0061181D03*
X0189396Y0061181D03*
X0179396Y0061181D03*
X0169396Y0061181D03*
X0209396Y0061181D03*
X0209396Y0071181D03*
X0314877Y0068181D03*
X0324877Y0068181D03*
X0364877Y0071181D03*
X0374877Y0071181D03*
X0384877Y0071181D03*
X0394877Y0071181D03*
X0404877Y0071181D03*
X0404877Y0061181D03*
X0394877Y0061181D03*
X0384877Y0061181D03*
X0374877Y0061181D03*
X0364877Y0061181D03*
X0510357Y0068181D03*
X0520357Y0068181D03*
X0560357Y0071181D03*
X0570357Y0071181D03*
X0580357Y0071181D03*
X0590357Y0071181D03*
X0590357Y0061181D03*
X0580357Y0061181D03*
X0570357Y0061181D03*
X0560357Y0061181D03*
X0600357Y0061181D03*
X0600357Y0071181D03*
D16*
X0620357Y0165181D03*
X0620357Y0175181D03*
X0605357Y0196181D03*
X0595357Y0196181D03*
X0540829Y0180597D03*
X0485357Y0176181D03*
X0485357Y0186181D03*
X0424877Y0175181D03*
X0424877Y0165181D03*
X0409877Y0196181D03*
X0399877Y0196181D03*
X0345349Y0180597D03*
X0289877Y0176181D03*
X0289877Y0186181D03*
X0229396Y0175181D03*
X0229396Y0165181D03*
X0214396Y0196181D03*
X0204396Y0196181D03*
X0149869Y0180597D03*
X0094396Y0176181D03*
X0094396Y0186181D03*
X0229396Y0324661D03*
X0229396Y0334661D03*
X0214396Y0355661D03*
X0204396Y0355661D03*
X0149869Y0340077D03*
X0094396Y0335661D03*
X0094396Y0345661D03*
X0229396Y0484142D03*
X0229396Y0494142D03*
X0214396Y0515142D03*
X0204396Y0515142D03*
X0149869Y0499557D03*
X0094396Y0495142D03*
X0094396Y0505142D03*
X0289877Y0505142D03*
X0289877Y0495142D03*
X0345349Y0499557D03*
X0399877Y0515142D03*
X0409877Y0515142D03*
X0424877Y0494142D03*
X0424877Y0484142D03*
X0485357Y0495142D03*
X0485357Y0505142D03*
X0540829Y0499557D03*
X0595357Y0515142D03*
X0605357Y0515142D03*
X0620357Y0494142D03*
X0620357Y0484142D03*
X0605357Y0355661D03*
X0595357Y0355661D03*
X0620357Y0334661D03*
X0620357Y0324661D03*
X0540829Y0340077D03*
X0485357Y0335661D03*
X0485357Y0345661D03*
X0424877Y0334661D03*
X0424877Y0324661D03*
X0409877Y0355661D03*
X0399877Y0355661D03*
X0345349Y0340077D03*
X0289877Y0335661D03*
X0289877Y0345661D03*
D17*
X0282751Y0333772D03*
X0282751Y0255031D03*
X0282751Y0174291D03*
X0282751Y0095551D03*
X0087270Y0095551D03*
X0087270Y0174291D03*
X0087270Y0255031D03*
X0087270Y0333772D03*
X0087270Y0414512D03*
X0087270Y0493252D03*
X0282751Y0493252D03*
X0282751Y0414512D03*
X0478231Y0414512D03*
X0478231Y0493252D03*
X0478231Y0333772D03*
X0478231Y0255031D03*
X0478231Y0174291D03*
X0478231Y0095551D03*
D18*
X0138831Y0047931D02*
X0138833Y0048050D01*
X0138839Y0048169D01*
X0138849Y0048288D01*
X0138863Y0048406D01*
X0138881Y0048524D01*
X0138902Y0048641D01*
X0138928Y0048757D01*
X0138958Y0048873D01*
X0138991Y0048987D01*
X0139028Y0049100D01*
X0139069Y0049212D01*
X0139114Y0049323D01*
X0139162Y0049432D01*
X0139214Y0049539D01*
X0139270Y0049644D01*
X0139329Y0049748D01*
X0139391Y0049849D01*
X0139457Y0049949D01*
X0139526Y0050046D01*
X0139598Y0050140D01*
X0139674Y0050233D01*
X0139752Y0050322D01*
X0139833Y0050409D01*
X0139918Y0050494D01*
X0140005Y0050575D01*
X0140094Y0050653D01*
X0140187Y0050729D01*
X0140281Y0050801D01*
X0140378Y0050870D01*
X0140478Y0050936D01*
X0140579Y0050998D01*
X0140683Y0051057D01*
X0140788Y0051113D01*
X0140895Y0051165D01*
X0141004Y0051213D01*
X0141115Y0051258D01*
X0141227Y0051299D01*
X0141340Y0051336D01*
X0141454Y0051369D01*
X0141570Y0051399D01*
X0141686Y0051425D01*
X0141803Y0051446D01*
X0141921Y0051464D01*
X0142039Y0051478D01*
X0142158Y0051488D01*
X0142277Y0051494D01*
X0142396Y0051496D01*
X0142515Y0051494D01*
X0142634Y0051488D01*
X0142753Y0051478D01*
X0142871Y0051464D01*
X0142989Y0051446D01*
X0143106Y0051425D01*
X0143222Y0051399D01*
X0143338Y0051369D01*
X0143452Y0051336D01*
X0143565Y0051299D01*
X0143677Y0051258D01*
X0143788Y0051213D01*
X0143897Y0051165D01*
X0144004Y0051113D01*
X0144109Y0051057D01*
X0144213Y0050998D01*
X0144314Y0050936D01*
X0144414Y0050870D01*
X0144511Y0050801D01*
X0144605Y0050729D01*
X0144698Y0050653D01*
X0144787Y0050575D01*
X0144874Y0050494D01*
X0144959Y0050409D01*
X0145040Y0050322D01*
X0145118Y0050233D01*
X0145194Y0050140D01*
X0145266Y0050046D01*
X0145335Y0049949D01*
X0145401Y0049849D01*
X0145463Y0049748D01*
X0145522Y0049644D01*
X0145578Y0049539D01*
X0145630Y0049432D01*
X0145678Y0049323D01*
X0145723Y0049212D01*
X0145764Y0049100D01*
X0145801Y0048987D01*
X0145834Y0048873D01*
X0145864Y0048757D01*
X0145890Y0048641D01*
X0145911Y0048524D01*
X0145929Y0048406D01*
X0145943Y0048288D01*
X0145953Y0048169D01*
X0145959Y0048050D01*
X0145961Y0047931D01*
X0145959Y0047812D01*
X0145953Y0047693D01*
X0145943Y0047574D01*
X0145929Y0047456D01*
X0145911Y0047338D01*
X0145890Y0047221D01*
X0145864Y0047105D01*
X0145834Y0046989D01*
X0145801Y0046875D01*
X0145764Y0046762D01*
X0145723Y0046650D01*
X0145678Y0046539D01*
X0145630Y0046430D01*
X0145578Y0046323D01*
X0145522Y0046218D01*
X0145463Y0046114D01*
X0145401Y0046013D01*
X0145335Y0045913D01*
X0145266Y0045816D01*
X0145194Y0045722D01*
X0145118Y0045629D01*
X0145040Y0045540D01*
X0144959Y0045453D01*
X0144874Y0045368D01*
X0144787Y0045287D01*
X0144698Y0045209D01*
X0144605Y0045133D01*
X0144511Y0045061D01*
X0144414Y0044992D01*
X0144314Y0044926D01*
X0144213Y0044864D01*
X0144109Y0044805D01*
X0144004Y0044749D01*
X0143897Y0044697D01*
X0143788Y0044649D01*
X0143677Y0044604D01*
X0143565Y0044563D01*
X0143452Y0044526D01*
X0143338Y0044493D01*
X0143222Y0044463D01*
X0143106Y0044437D01*
X0142989Y0044416D01*
X0142871Y0044398D01*
X0142753Y0044384D01*
X0142634Y0044374D01*
X0142515Y0044368D01*
X0142396Y0044366D01*
X0142277Y0044368D01*
X0142158Y0044374D01*
X0142039Y0044384D01*
X0141921Y0044398D01*
X0141803Y0044416D01*
X0141686Y0044437D01*
X0141570Y0044463D01*
X0141454Y0044493D01*
X0141340Y0044526D01*
X0141227Y0044563D01*
X0141115Y0044604D01*
X0141004Y0044649D01*
X0140895Y0044697D01*
X0140788Y0044749D01*
X0140683Y0044805D01*
X0140579Y0044864D01*
X0140478Y0044926D01*
X0140378Y0044992D01*
X0140281Y0045061D01*
X0140187Y0045133D01*
X0140094Y0045209D01*
X0140005Y0045287D01*
X0139918Y0045368D01*
X0139833Y0045453D01*
X0139752Y0045540D01*
X0139674Y0045629D01*
X0139598Y0045722D01*
X0139526Y0045816D01*
X0139457Y0045913D01*
X0139391Y0046013D01*
X0139329Y0046114D01*
X0139270Y0046218D01*
X0139214Y0046323D01*
X0139162Y0046430D01*
X0139114Y0046539D01*
X0139069Y0046650D01*
X0139028Y0046762D01*
X0138991Y0046875D01*
X0138958Y0046989D01*
X0138928Y0047105D01*
X0138902Y0047221D01*
X0138881Y0047338D01*
X0138863Y0047456D01*
X0138849Y0047574D01*
X0138839Y0047693D01*
X0138833Y0047812D01*
X0138831Y0047931D01*
D19*
X0142396Y0047931D03*
M02*
