G04 EAGLE Gerber RS-274X export*
G75*
%MOMM*%
%FSLAX34Y34*%
%LPD*%
%INSoldermask Bottom*%
%IPPOS*%
%AMOC8*
5,1,8,0,0,1.08239X$1,22.5*%
G01*
%ADD10C,1.603200*%
%ADD11R,2.743200X1.981200*%
%ADD12C,8.203200*%
%ADD13C,3.505200*%
%ADD14C,1.203200*%
%ADD15C,2.082800*%
%ADD16C,1.473200*%
%ADD17C,1.003200*%
%ADD18C,1.270000*%
%ADD19C,1.703200*%


D10*
X15000Y250800D03*
X15000Y149200D03*
D11*
X120500Y90000D03*
D12*
X105000Y175000D02*
X105000Y225000D01*
D11*
X120500Y310000D03*
X89500Y90000D03*
X89500Y310000D03*
D13*
X28284Y28284D03*
X371716Y28284D03*
X28284Y371716D03*
X371716Y371716D03*
D14*
X10000Y390000D03*
X390000Y10000D03*
D15*
X228600Y12700D03*
X254000Y12700D03*
X279400Y12700D03*
X304800Y12700D03*
X330200Y12700D03*
X228600Y38100D03*
X254000Y38100D03*
X279400Y38100D03*
X304800Y38100D03*
X330200Y38100D03*
D16*
X342900Y355600D03*
X317500Y355600D03*
X381000Y302260D03*
X381000Y276860D03*
X38100Y330200D03*
X38100Y304800D03*
X179000Y316016D03*
D17*
X20000Y300000D03*
D14*
X311650Y301300D03*
X311650Y314000D03*
X311650Y326700D03*
X311650Y339400D03*
X311650Y288600D03*
X324350Y301300D03*
X324350Y314000D03*
X324350Y326700D03*
X324350Y339400D03*
X324350Y288600D03*
D17*
X20000Y100000D03*
D10*
X511520Y250800D03*
X511520Y149200D03*
D11*
X617020Y90000D03*
D12*
X601520Y175000D02*
X601520Y225000D01*
D11*
X617020Y310000D03*
X586020Y90000D03*
X586020Y310000D03*
D13*
X524804Y28284D03*
X868236Y28284D03*
X524804Y371716D03*
X868236Y371716D03*
D14*
X506520Y390000D03*
X886520Y10000D03*
D15*
X725120Y12700D03*
X750520Y12700D03*
X775920Y12700D03*
X801320Y12700D03*
X826720Y12700D03*
X725120Y38100D03*
X750520Y38100D03*
X775920Y38100D03*
X801320Y38100D03*
X826720Y38100D03*
D16*
X839420Y355600D03*
X814020Y355600D03*
X877520Y302260D03*
X877520Y276860D03*
X534620Y330200D03*
X534620Y304800D03*
X675520Y316016D03*
D17*
X516520Y300000D03*
D14*
X808170Y301300D03*
X808170Y314000D03*
X808170Y326700D03*
X808170Y339400D03*
X808170Y288600D03*
X820870Y301300D03*
X820870Y314000D03*
X820870Y326700D03*
X820870Y339400D03*
X820870Y288600D03*
D17*
X516520Y100000D03*
D10*
X1008040Y250800D03*
X1008040Y149200D03*
D11*
X1113540Y90000D03*
D12*
X1098040Y175000D02*
X1098040Y225000D01*
D11*
X1113540Y310000D03*
X1082540Y90000D03*
X1082540Y310000D03*
D13*
X1021324Y28284D03*
X1364756Y28284D03*
X1021324Y371716D03*
X1364756Y371716D03*
D14*
X1003040Y390000D03*
X1383040Y10000D03*
D15*
X1221640Y12700D03*
X1247040Y12700D03*
X1272440Y12700D03*
X1297840Y12700D03*
X1323240Y12700D03*
X1221640Y38100D03*
X1247040Y38100D03*
X1272440Y38100D03*
X1297840Y38100D03*
X1323240Y38100D03*
D16*
X1335940Y355600D03*
X1310540Y355600D03*
X1374040Y302260D03*
X1374040Y276860D03*
X1031140Y330200D03*
X1031140Y304800D03*
X1172040Y316016D03*
D17*
X1013040Y300000D03*
D14*
X1304690Y301300D03*
X1304690Y314000D03*
X1304690Y326700D03*
X1304690Y339400D03*
X1304690Y288600D03*
X1317390Y301300D03*
X1317390Y314000D03*
X1317390Y326700D03*
X1317390Y339400D03*
X1317390Y288600D03*
D17*
X1013040Y100000D03*
D10*
X15000Y655880D03*
X15000Y554280D03*
D11*
X120500Y495080D03*
D12*
X105000Y580080D02*
X105000Y630080D01*
D11*
X120500Y715080D03*
X89500Y495080D03*
X89500Y715080D03*
D13*
X28284Y433364D03*
X371716Y433364D03*
X28284Y776796D03*
X371716Y776796D03*
D14*
X10000Y795080D03*
X390000Y415080D03*
D15*
X228600Y417780D03*
X254000Y417780D03*
X279400Y417780D03*
X304800Y417780D03*
X330200Y417780D03*
X228600Y443180D03*
X254000Y443180D03*
X279400Y443180D03*
X304800Y443180D03*
X330200Y443180D03*
D16*
X342900Y760680D03*
X317500Y760680D03*
X381000Y707340D03*
X381000Y681940D03*
X38100Y735280D03*
X38100Y709880D03*
X179000Y721096D03*
D17*
X20000Y705080D03*
D14*
X311650Y706380D03*
X311650Y719080D03*
X311650Y731780D03*
X311650Y744480D03*
X311650Y693680D03*
X324350Y706380D03*
X324350Y719080D03*
X324350Y731780D03*
X324350Y744480D03*
X324350Y693680D03*
D17*
X20000Y505080D03*
D10*
X511520Y655880D03*
X511520Y554280D03*
D11*
X617020Y495080D03*
D12*
X601520Y580080D02*
X601520Y630080D01*
D11*
X617020Y715080D03*
X586020Y495080D03*
X586020Y715080D03*
D13*
X524804Y433364D03*
X868236Y433364D03*
X524804Y776796D03*
X868236Y776796D03*
D14*
X506520Y795080D03*
X886520Y415080D03*
D15*
X725120Y417780D03*
X750520Y417780D03*
X775920Y417780D03*
X801320Y417780D03*
X826720Y417780D03*
X725120Y443180D03*
X750520Y443180D03*
X775920Y443180D03*
X801320Y443180D03*
X826720Y443180D03*
D16*
X839420Y760680D03*
X814020Y760680D03*
X877520Y707340D03*
X877520Y681940D03*
X534620Y735280D03*
X534620Y709880D03*
X675520Y721096D03*
D17*
X516520Y705080D03*
D14*
X808170Y706380D03*
X808170Y719080D03*
X808170Y731780D03*
X808170Y744480D03*
X808170Y693680D03*
X820870Y706380D03*
X820870Y719080D03*
X820870Y731780D03*
X820870Y744480D03*
X820870Y693680D03*
D17*
X516520Y505080D03*
D10*
X1008040Y655880D03*
X1008040Y554280D03*
D11*
X1113540Y495080D03*
D12*
X1098040Y580080D02*
X1098040Y630080D01*
D11*
X1113540Y715080D03*
X1082540Y495080D03*
X1082540Y715080D03*
D13*
X1021324Y433364D03*
X1364756Y433364D03*
X1021324Y776796D03*
X1364756Y776796D03*
D14*
X1003040Y795080D03*
X1383040Y415080D03*
D15*
X1221640Y417780D03*
X1247040Y417780D03*
X1272440Y417780D03*
X1297840Y417780D03*
X1323240Y417780D03*
X1221640Y443180D03*
X1247040Y443180D03*
X1272440Y443180D03*
X1297840Y443180D03*
X1323240Y443180D03*
D16*
X1335940Y760680D03*
X1310540Y760680D03*
X1374040Y707340D03*
X1374040Y681940D03*
X1031140Y735280D03*
X1031140Y709880D03*
X1172040Y721096D03*
D17*
X1013040Y705080D03*
D14*
X1304690Y706380D03*
X1304690Y719080D03*
X1304690Y731780D03*
X1304690Y744480D03*
X1304690Y693680D03*
X1317390Y706380D03*
X1317390Y719080D03*
X1317390Y731780D03*
X1317390Y744480D03*
X1317390Y693680D03*
D17*
X1013040Y505080D03*
D10*
X15000Y1060960D03*
X15000Y959360D03*
D11*
X120500Y900160D03*
D12*
X105000Y985160D02*
X105000Y1035160D01*
D11*
X120500Y1120160D03*
X89500Y900160D03*
X89500Y1120160D03*
D13*
X28284Y838444D03*
X371716Y838444D03*
X28284Y1181876D03*
X371716Y1181876D03*
D14*
X10000Y1200160D03*
X390000Y820160D03*
D15*
X228600Y822860D03*
X254000Y822860D03*
X279400Y822860D03*
X304800Y822860D03*
X330200Y822860D03*
X228600Y848260D03*
X254000Y848260D03*
X279400Y848260D03*
X304800Y848260D03*
X330200Y848260D03*
D16*
X342900Y1165760D03*
X317500Y1165760D03*
X381000Y1112420D03*
X381000Y1087020D03*
X38100Y1140360D03*
X38100Y1114960D03*
X179000Y1126176D03*
D17*
X20000Y1110160D03*
D14*
X311650Y1111460D03*
X311650Y1124160D03*
X311650Y1136860D03*
X311650Y1149560D03*
X311650Y1098760D03*
X324350Y1111460D03*
X324350Y1124160D03*
X324350Y1136860D03*
X324350Y1149560D03*
X324350Y1098760D03*
D17*
X20000Y910160D03*
D10*
X511520Y1060960D03*
X511520Y959360D03*
D11*
X617020Y900160D03*
D12*
X601520Y985160D02*
X601520Y1035160D01*
D11*
X617020Y1120160D03*
X586020Y900160D03*
X586020Y1120160D03*
D13*
X524804Y838444D03*
X868236Y838444D03*
X524804Y1181876D03*
X868236Y1181876D03*
D14*
X506520Y1200160D03*
X886520Y820160D03*
D15*
X725120Y822860D03*
X750520Y822860D03*
X775920Y822860D03*
X801320Y822860D03*
X826720Y822860D03*
X725120Y848260D03*
X750520Y848260D03*
X775920Y848260D03*
X801320Y848260D03*
X826720Y848260D03*
D16*
X839420Y1165760D03*
X814020Y1165760D03*
X877520Y1112420D03*
X877520Y1087020D03*
X534620Y1140360D03*
X534620Y1114960D03*
X675520Y1126176D03*
D17*
X516520Y1110160D03*
D14*
X808170Y1111460D03*
X808170Y1124160D03*
X808170Y1136860D03*
X808170Y1149560D03*
X808170Y1098760D03*
X820870Y1111460D03*
X820870Y1124160D03*
X820870Y1136860D03*
X820870Y1149560D03*
X820870Y1098760D03*
D17*
X516520Y910160D03*
D10*
X1008040Y1060960D03*
X1008040Y959360D03*
D11*
X1113540Y900160D03*
D12*
X1098040Y985160D02*
X1098040Y1035160D01*
D11*
X1113540Y1120160D03*
X1082540Y900160D03*
X1082540Y1120160D03*
D13*
X1021324Y838444D03*
X1364756Y838444D03*
X1021324Y1181876D03*
X1364756Y1181876D03*
D14*
X1003040Y1200160D03*
X1383040Y820160D03*
D15*
X1221640Y822860D03*
X1247040Y822860D03*
X1272440Y822860D03*
X1297840Y822860D03*
X1323240Y822860D03*
X1221640Y848260D03*
X1247040Y848260D03*
X1272440Y848260D03*
X1297840Y848260D03*
X1323240Y848260D03*
D16*
X1335940Y1165760D03*
X1310540Y1165760D03*
X1374040Y1112420D03*
X1374040Y1087020D03*
X1031140Y1140360D03*
X1031140Y1114960D03*
X1172040Y1126176D03*
D17*
X1013040Y1110160D03*
D14*
X1304690Y1111460D03*
X1304690Y1124160D03*
X1304690Y1136860D03*
X1304690Y1149560D03*
X1304690Y1098760D03*
X1317390Y1111460D03*
X1317390Y1124160D03*
X1317390Y1136860D03*
X1317390Y1149560D03*
X1317390Y1098760D03*
D17*
X1013040Y910160D03*
D14*
X160020Y1231115D03*
X1233020Y1231115D03*
D18*
X150965Y-20955D02*
X150968Y-20733D01*
X150976Y-20511D01*
X150990Y-20289D01*
X151009Y-20067D01*
X151033Y-19847D01*
X151063Y-19626D01*
X151098Y-19407D01*
X151139Y-19188D01*
X151185Y-18971D01*
X151236Y-18755D01*
X151293Y-18540D01*
X151355Y-18326D01*
X151422Y-18115D01*
X151494Y-17904D01*
X151572Y-17696D01*
X151654Y-17490D01*
X151742Y-17286D01*
X151834Y-17083D01*
X151932Y-16884D01*
X152034Y-16687D01*
X152141Y-16492D01*
X152253Y-16300D01*
X152370Y-16111D01*
X152491Y-15924D01*
X152617Y-15741D01*
X152747Y-15561D01*
X152882Y-15384D01*
X153020Y-15211D01*
X153163Y-15041D01*
X153311Y-14874D01*
X153462Y-14711D01*
X153617Y-14552D01*
X153776Y-14397D01*
X153939Y-14246D01*
X154106Y-14098D01*
X154276Y-13955D01*
X154449Y-13817D01*
X154626Y-13682D01*
X154806Y-13552D01*
X154989Y-13426D01*
X155176Y-13305D01*
X155365Y-13188D01*
X155557Y-13076D01*
X155752Y-12969D01*
X155949Y-12867D01*
X156148Y-12769D01*
X156351Y-12677D01*
X156555Y-12589D01*
X156761Y-12507D01*
X156969Y-12429D01*
X157180Y-12357D01*
X157391Y-12290D01*
X157605Y-12228D01*
X157820Y-12171D01*
X158036Y-12120D01*
X158253Y-12074D01*
X158472Y-12033D01*
X158691Y-11998D01*
X158912Y-11968D01*
X159132Y-11944D01*
X159354Y-11925D01*
X159576Y-11911D01*
X159798Y-11903D01*
X160020Y-11900D01*
X160242Y-11903D01*
X160464Y-11911D01*
X160686Y-11925D01*
X160908Y-11944D01*
X161128Y-11968D01*
X161349Y-11998D01*
X161568Y-12033D01*
X161787Y-12074D01*
X162004Y-12120D01*
X162220Y-12171D01*
X162435Y-12228D01*
X162649Y-12290D01*
X162860Y-12357D01*
X163071Y-12429D01*
X163279Y-12507D01*
X163485Y-12589D01*
X163689Y-12677D01*
X163892Y-12769D01*
X164091Y-12867D01*
X164288Y-12969D01*
X164483Y-13076D01*
X164675Y-13188D01*
X164864Y-13305D01*
X165051Y-13426D01*
X165234Y-13552D01*
X165414Y-13682D01*
X165591Y-13817D01*
X165764Y-13955D01*
X165934Y-14098D01*
X166101Y-14246D01*
X166264Y-14397D01*
X166423Y-14552D01*
X166578Y-14711D01*
X166729Y-14874D01*
X166877Y-15041D01*
X167020Y-15211D01*
X167158Y-15384D01*
X167293Y-15561D01*
X167423Y-15741D01*
X167549Y-15924D01*
X167670Y-16111D01*
X167787Y-16300D01*
X167899Y-16492D01*
X168006Y-16687D01*
X168108Y-16884D01*
X168206Y-17083D01*
X168298Y-17286D01*
X168386Y-17490D01*
X168468Y-17696D01*
X168546Y-17904D01*
X168618Y-18115D01*
X168685Y-18326D01*
X168747Y-18540D01*
X168804Y-18755D01*
X168855Y-18971D01*
X168901Y-19188D01*
X168942Y-19407D01*
X168977Y-19626D01*
X169007Y-19847D01*
X169031Y-20067D01*
X169050Y-20289D01*
X169064Y-20511D01*
X169072Y-20733D01*
X169075Y-20955D01*
X169072Y-21177D01*
X169064Y-21399D01*
X169050Y-21621D01*
X169031Y-21843D01*
X169007Y-22063D01*
X168977Y-22284D01*
X168942Y-22503D01*
X168901Y-22722D01*
X168855Y-22939D01*
X168804Y-23155D01*
X168747Y-23370D01*
X168685Y-23584D01*
X168618Y-23795D01*
X168546Y-24006D01*
X168468Y-24214D01*
X168386Y-24420D01*
X168298Y-24624D01*
X168206Y-24827D01*
X168108Y-25026D01*
X168006Y-25223D01*
X167899Y-25418D01*
X167787Y-25610D01*
X167670Y-25799D01*
X167549Y-25986D01*
X167423Y-26169D01*
X167293Y-26349D01*
X167158Y-26526D01*
X167020Y-26699D01*
X166877Y-26869D01*
X166729Y-27036D01*
X166578Y-27199D01*
X166423Y-27358D01*
X166264Y-27513D01*
X166101Y-27664D01*
X165934Y-27812D01*
X165764Y-27955D01*
X165591Y-28093D01*
X165414Y-28228D01*
X165234Y-28358D01*
X165051Y-28484D01*
X164864Y-28605D01*
X164675Y-28722D01*
X164483Y-28834D01*
X164288Y-28941D01*
X164091Y-29043D01*
X163892Y-29141D01*
X163689Y-29233D01*
X163485Y-29321D01*
X163279Y-29403D01*
X163071Y-29481D01*
X162860Y-29553D01*
X162649Y-29620D01*
X162435Y-29682D01*
X162220Y-29739D01*
X162004Y-29790D01*
X161787Y-29836D01*
X161568Y-29877D01*
X161349Y-29912D01*
X161128Y-29942D01*
X160908Y-29966D01*
X160686Y-29985D01*
X160464Y-29999D01*
X160242Y-30007D01*
X160020Y-30010D01*
X159798Y-30007D01*
X159576Y-29999D01*
X159354Y-29985D01*
X159132Y-29966D01*
X158912Y-29942D01*
X158691Y-29912D01*
X158472Y-29877D01*
X158253Y-29836D01*
X158036Y-29790D01*
X157820Y-29739D01*
X157605Y-29682D01*
X157391Y-29620D01*
X157180Y-29553D01*
X156969Y-29481D01*
X156761Y-29403D01*
X156555Y-29321D01*
X156351Y-29233D01*
X156148Y-29141D01*
X155949Y-29043D01*
X155752Y-28941D01*
X155557Y-28834D01*
X155365Y-28722D01*
X155176Y-28605D01*
X154989Y-28484D01*
X154806Y-28358D01*
X154626Y-28228D01*
X154449Y-28093D01*
X154276Y-27955D01*
X154106Y-27812D01*
X153939Y-27664D01*
X153776Y-27513D01*
X153617Y-27358D01*
X153462Y-27199D01*
X153311Y-27036D01*
X153163Y-26869D01*
X153020Y-26699D01*
X152882Y-26526D01*
X152747Y-26349D01*
X152617Y-26169D01*
X152491Y-25986D01*
X152370Y-25799D01*
X152253Y-25610D01*
X152141Y-25418D01*
X152034Y-25223D01*
X151932Y-25026D01*
X151834Y-24827D01*
X151742Y-24624D01*
X151654Y-24420D01*
X151572Y-24214D01*
X151494Y-24006D01*
X151422Y-23795D01*
X151355Y-23584D01*
X151293Y-23370D01*
X151236Y-23155D01*
X151185Y-22939D01*
X151139Y-22722D01*
X151098Y-22503D01*
X151063Y-22284D01*
X151033Y-22063D01*
X151009Y-21843D01*
X150990Y-21621D01*
X150976Y-21399D01*
X150968Y-21177D01*
X150965Y-20955D01*
D19*
X160020Y-20955D03*
M02*
