G75*
%MOIN*%
%OFA0B0*%
%FSLAX25Y25*%
%IPPOS*%
%LPD*%
%AMOC8*
5,1,8,0,0,1.08239X$1,22.5*
%
%ADD10R,0.15748X0.15748*%
%ADD11R,0.24000X0.16000*%
%ADD12R,0.03937X0.04331*%
D10*
X0120735Y0134921D03*
X0314215Y0134921D03*
X0507696Y0134921D03*
X0507696Y0294402D03*
X0314215Y0294402D03*
X0120735Y0294402D03*
X0120735Y0453882D03*
X0314215Y0453882D03*
X0507696Y0453882D03*
D11*
X0120735Y0094921D03*
X0120735Y0174921D03*
X0120735Y0254402D03*
X0120735Y0334402D03*
X0120735Y0413882D03*
X0120735Y0493882D03*
X0314215Y0493882D03*
X0314215Y0413882D03*
X0314215Y0334402D03*
X0314215Y0254402D03*
X0314215Y0174921D03*
X0314215Y0094921D03*
X0507696Y0094921D03*
X0507696Y0174921D03*
X0507696Y0254402D03*
X0507696Y0334402D03*
X0507696Y0413882D03*
X0507696Y0493882D03*
D12*
X0604152Y0493842D03*
X0604152Y0500535D03*
X0604152Y0484787D03*
X0604152Y0478094D03*
X0604152Y0341055D03*
X0604152Y0334362D03*
X0604152Y0325307D03*
X0604152Y0318614D03*
X0604152Y0181575D03*
X0604152Y0174882D03*
X0604152Y0165827D03*
X0604152Y0159134D03*
X0410672Y0159134D03*
X0410672Y0165827D03*
X0410672Y0174882D03*
X0410672Y0181575D03*
X0410672Y0318614D03*
X0410672Y0325307D03*
X0410672Y0334362D03*
X0410672Y0341055D03*
X0410672Y0478094D03*
X0410672Y0484787D03*
X0410672Y0493842D03*
X0410672Y0500535D03*
X0217192Y0500535D03*
X0217192Y0493842D03*
X0217192Y0484787D03*
X0217192Y0478094D03*
X0217192Y0341055D03*
X0217192Y0334362D03*
X0217192Y0325307D03*
X0217192Y0318614D03*
X0217192Y0181575D03*
X0217192Y0174882D03*
X0217192Y0165827D03*
X0217192Y0159134D03*
M02*
