G75*
%MOIN*%
%OFA0B0*%
%FSLAX25Y25*%
%IPPOS*%
%LPD*%
%AMOC8*
5,1,8,0,0,1.08239X$1,22.5*
%
%ADD10R,0.02362X0.02362*%
%ADD11R,0.15748X0.15748*%
%ADD12R,0.24000X0.16000*%
D10*
X0167825Y0101728D03*
X0171762Y0101728D03*
X0172016Y0105665D03*
X0172016Y0109602D03*
X0179736Y0107640D03*
X0179736Y0103703D03*
X0180029Y0099366D03*
X0180029Y0095429D03*
X0184163Y0096510D03*
X0184163Y0100447D03*
X0188297Y0100350D03*
X0192234Y0100350D03*
X0192234Y0096217D03*
X0188297Y0096217D03*
X0189978Y0104681D03*
X0193915Y0104681D03*
X0193909Y0109209D03*
X0189972Y0109209D03*
X0185610Y0108709D03*
X0185610Y0104772D03*
X0175699Y0099366D03*
X0175699Y0095429D03*
X0350305Y0101728D03*
X0354242Y0101728D03*
X0354496Y0105665D03*
X0354496Y0109602D03*
X0362216Y0107640D03*
X0362216Y0103703D03*
X0362510Y0099366D03*
X0362510Y0095429D03*
X0366643Y0096510D03*
X0366643Y0100447D03*
X0370777Y0100350D03*
X0374714Y0100350D03*
X0374714Y0096217D03*
X0370777Y0096217D03*
X0372458Y0104681D03*
X0376395Y0104681D03*
X0376389Y0109209D03*
X0372452Y0109209D03*
X0368091Y0108709D03*
X0368091Y0104772D03*
X0358179Y0099366D03*
X0358179Y0095429D03*
X0532785Y0101728D03*
X0536722Y0101728D03*
X0536977Y0105665D03*
X0536977Y0109602D03*
X0544696Y0107640D03*
X0544696Y0103703D03*
X0544990Y0099366D03*
X0544990Y0095429D03*
X0549124Y0096510D03*
X0549124Y0100447D03*
X0553258Y0100350D03*
X0557195Y0100350D03*
X0557195Y0096217D03*
X0553258Y0096217D03*
X0554939Y0104681D03*
X0558876Y0104681D03*
X0558869Y0109209D03*
X0554932Y0109209D03*
X0550571Y0108709D03*
X0550571Y0104772D03*
X0540659Y0099366D03*
X0540659Y0095429D03*
X0540659Y0254909D03*
X0540659Y0258846D03*
X0544990Y0258846D03*
X0544990Y0254909D03*
X0549124Y0255991D03*
X0549124Y0259928D03*
X0553258Y0259831D03*
X0557195Y0259831D03*
X0557195Y0255697D03*
X0553258Y0255697D03*
X0554939Y0264161D03*
X0558876Y0264161D03*
X0558869Y0268689D03*
X0554932Y0268689D03*
X0550571Y0268189D03*
X0550571Y0264252D03*
X0544696Y0263183D03*
X0544696Y0267120D03*
X0536977Y0269083D03*
X0536977Y0265146D03*
X0536722Y0261209D03*
X0532785Y0261209D03*
X0376395Y0264161D03*
X0372458Y0264161D03*
X0368091Y0264252D03*
X0368091Y0268189D03*
X0372452Y0268689D03*
X0376389Y0268689D03*
X0374714Y0259831D03*
X0370777Y0259831D03*
X0370777Y0255697D03*
X0374714Y0255697D03*
X0366643Y0255991D03*
X0366643Y0259928D03*
X0362510Y0258846D03*
X0362510Y0254909D03*
X0358179Y0254909D03*
X0358179Y0258846D03*
X0354242Y0261209D03*
X0350305Y0261209D03*
X0354496Y0265146D03*
X0354496Y0269083D03*
X0362216Y0267120D03*
X0362216Y0263183D03*
X0193915Y0264161D03*
X0189978Y0264161D03*
X0185610Y0264252D03*
X0185610Y0268189D03*
X0189972Y0268689D03*
X0193909Y0268689D03*
X0192234Y0259831D03*
X0188297Y0259831D03*
X0188297Y0255697D03*
X0192234Y0255697D03*
X0184163Y0255991D03*
X0184163Y0259928D03*
X0180029Y0258846D03*
X0180029Y0254909D03*
X0175699Y0254909D03*
X0175699Y0258846D03*
X0171762Y0261209D03*
X0167825Y0261209D03*
X0172016Y0265146D03*
X0172016Y0269083D03*
X0179736Y0267120D03*
X0179736Y0263183D03*
X0180029Y0414390D03*
X0180029Y0418327D03*
X0184163Y0419408D03*
X0184163Y0415471D03*
X0188297Y0415177D03*
X0192234Y0415177D03*
X0192234Y0419311D03*
X0188297Y0419311D03*
X0189978Y0423642D03*
X0193915Y0423642D03*
X0193909Y0428169D03*
X0189972Y0428169D03*
X0185610Y0427669D03*
X0185610Y0423732D03*
X0179736Y0422664D03*
X0179736Y0426601D03*
X0172016Y0428563D03*
X0172016Y0424626D03*
X0171762Y0420689D03*
X0167825Y0420689D03*
X0175699Y0418327D03*
X0175699Y0414390D03*
X0350305Y0420689D03*
X0354242Y0420689D03*
X0354496Y0424626D03*
X0354496Y0428563D03*
X0362216Y0426601D03*
X0362216Y0422664D03*
X0362510Y0418327D03*
X0362510Y0414390D03*
X0366643Y0415471D03*
X0366643Y0419408D03*
X0370777Y0419311D03*
X0374714Y0419311D03*
X0374714Y0415177D03*
X0370777Y0415177D03*
X0358179Y0414390D03*
X0358179Y0418327D03*
X0368091Y0423732D03*
X0368091Y0427669D03*
X0372452Y0428169D03*
X0376389Y0428169D03*
X0376395Y0423642D03*
X0372458Y0423642D03*
X0532785Y0420689D03*
X0536722Y0420689D03*
X0536977Y0424626D03*
X0536977Y0428563D03*
X0544696Y0426601D03*
X0544696Y0422664D03*
X0544990Y0418327D03*
X0544990Y0414390D03*
X0549124Y0415471D03*
X0549124Y0419408D03*
X0553258Y0419311D03*
X0557195Y0419311D03*
X0557195Y0415177D03*
X0553258Y0415177D03*
X0554939Y0423642D03*
X0558876Y0423642D03*
X0558869Y0428169D03*
X0554932Y0428169D03*
X0550571Y0427669D03*
X0550571Y0423732D03*
X0540659Y0418327D03*
X0540659Y0414390D03*
D11*
X0607195Y0426201D03*
X0424714Y0426201D03*
X0242234Y0426201D03*
X0242234Y0266720D03*
X0424714Y0266720D03*
X0607195Y0266720D03*
X0607195Y0107240D03*
X0424714Y0107240D03*
X0242234Y0107240D03*
D12*
X0242234Y0154240D03*
X0242234Y0219720D03*
X0242234Y0313720D03*
X0242234Y0379201D03*
X0242234Y0473201D03*
X0424714Y0473201D03*
X0424714Y0379201D03*
X0424714Y0313720D03*
X0424714Y0219720D03*
X0424714Y0154240D03*
X0424714Y0060240D03*
X0242234Y0060240D03*
X0607195Y0060240D03*
X0607195Y0154240D03*
X0607195Y0219720D03*
X0607195Y0313720D03*
X0607195Y0379201D03*
X0607195Y0473201D03*
M02*
