%
M48
M72
T01C0.0120
T02C0.0200
T03C0.0315
T04C0.0400
T05C0.0551
T06C0.1300
%
T01
X10240Y8068
X8889Y9007
X8279Y10303
X10026Y10106
X10484Y9752
X11390Y10618
X11877Y10421
X13319Y9831
X15066Y9594
X15105Y10264
X15790Y11066
X15965Y11693
X16690Y11868
X16590Y11066
X16440Y10418
X16490Y9468
X15814Y8689
X15026Y8689
X17890Y9718
X19140Y11318
X19533Y11318
X20328Y10426
X21190Y11268
X21502Y11206
X21840Y11218
X22323Y11051
X22100Y10736
X22073Y10382
X23440Y11318
X23440Y12368
X21990Y12768
X21140Y12368
X20740Y12568
X20459Y14304
X21658Y14101
X21916Y14634
X22310Y14634
X22467Y14280
X23294Y14280
X23440Y14618
X21732Y15579
X22126Y16130
X22388Y16583
X22388Y17518
X19215Y16933
X18785Y15176
X18451Y14184
X18140Y12218
X14690Y11327
X14239Y13098
X14690Y13718
X13835Y13940
X14511Y14604
X14000Y14918
X13640Y15268
X13570Y16327
X12242Y17049
X11432Y16406
X10066Y16917
X9501Y16524
X9222Y16681
X8909Y18020
X10527Y18020
X10690Y18668
X11089Y19004
X12316Y19002
X12290Y18702
X13727Y18768
X13766Y19752
X15499Y18374
X15381Y17587
X15420Y16957
X16207Y16484
X15407Y15584
X16686Y18531
X16286Y19752
X13390Y22066
X15026Y24637
X15814Y24637
X16490Y25416
X16440Y26366
X16590Y27014
X15790Y27014
X15965Y27641
X16690Y27816
X18140Y28166
X19140Y27266
X19533Y27266
X20328Y26374
X21190Y27216
X21502Y27154
X21840Y27166
X22323Y26999
X22100Y26684
X22073Y26330
X23440Y27266
X23440Y28316
X21990Y28716
X21140Y28316
X20740Y28516
X20459Y30252
X21658Y30049
X21916Y30582
X22310Y30582
X22467Y30228
X23294Y30228
X23440Y30566
X21732Y31527
X22126Y32078
X22388Y32531
X22388Y33466
X19215Y32881
X18785Y31124
X18451Y30132
X16207Y32432
X15420Y32905
X15381Y33535
X15499Y34322
X16686Y34480
X16286Y35700
X13766Y35700
X12316Y34950
X12290Y34650
X13727Y34716
X12242Y32997
X11432Y32354
X10066Y32865
X9501Y32472
X9222Y32629
X8909Y33968
X10527Y33969
X10690Y34616
X11089Y34952
X13570Y32275
X13640Y31216
X14000Y30866
X14511Y30552
X13835Y29888
X14690Y29666
X14239Y29046
X14690Y27275
X15105Y26212
X15066Y25543
X13319Y25779
X11877Y26369
X11390Y26566
X10490Y27416
X10026Y26054
X10484Y25700
X8889Y24955
X8279Y26251
X10240Y24016
X17890Y25666
X10262Y30424
X15407Y31532
X13390Y38014
X10240Y39964
X8889Y40903
X10026Y42002
X10484Y41648
X11390Y42514
X11877Y42317
X13319Y41727
X15066Y41491
X15026Y40585
X15814Y40585
X16490Y41364
X16440Y42314
X16590Y42962
X15790Y42962
X15965Y43589
X16690Y43764
X18140Y44114
X19140Y43214
X19533Y43214
X20328Y42322
X21190Y43164
X21502Y43102
X21840Y43114
X22323Y42947
X22100Y42632
X22073Y42278
X23440Y43214
X23440Y44264
X21990Y44664
X21140Y44264
X20740Y44464
X21658Y45997
X21916Y46530
X22310Y46530
X22467Y46176
X23294Y46176
X23440Y46514
X21732Y47475
X22126Y48026
X22388Y48479
X22388Y49414
X19215Y48829
X18785Y47072
X18451Y46080
X20459Y46200
X16207Y48380
X15420Y48853
X15381Y49483
X15499Y50270
X16686Y50428
X16286Y51648
X13766Y51648
X13727Y50664
X12316Y50898
X12290Y50598
X11089Y50900
X10690Y50564
X10527Y49917
X10066Y48813
X9501Y48420
X9222Y48577
X8909Y49916
X11432Y48302
X12242Y48945
X13570Y48223
X13640Y47164
X14000Y46814
X14511Y46500
X14690Y45614
X14239Y44994
X13835Y45836
X15407Y47480
X14690Y43223
X15105Y42160
X17890Y41614
X10490Y43364
X8279Y42199
X10262Y46372
X27827Y42199
X29574Y42002
X30032Y41648
X30938Y42514
X31425Y42317
X32867Y41727
X34614Y41491
X34574Y40585
X35362Y40585
X36038Y41364
X35988Y42314
X36138Y42962
X35338Y42962
X35513Y43589
X36238Y43764
X37688Y44114
X38688Y43214
X39081Y43214
X39876Y42322
X40738Y43164
X41050Y43102
X41388Y43114
X41871Y42947
X41648Y42632
X41622Y42278
X42988Y43214
X42988Y44264
X41538Y44664
X40688Y44264
X40288Y44464
X41206Y45997
X41464Y46530
X41858Y46530
X42015Y46176
X42842Y46176
X42988Y46514
X41280Y47475
X41674Y48026
X41936Y48479
X41936Y49414
X38763Y48829
X36234Y50428
X35047Y50270
X34929Y49483
X34968Y48853
X35755Y48380
X34955Y47480
X34059Y46500
X33548Y46814
X33188Y47164
X33118Y48223
X31790Y48945
X30980Y48302
X29614Y48813
X29049Y48420
X28770Y48577
X28457Y49916
X30075Y49917
X30238Y50564
X30637Y50900
X31864Y50898
X31838Y50598
X33275Y50664
X33314Y51648
X35834Y51648
X38333Y47072
X37999Y46080
X40007Y46200
X34653Y42160
X34238Y43223
X33787Y44994
X34238Y45614
X33383Y45836
X30038Y43364
X28437Y40903
X29788Y39964
X32938Y38014
X33314Y35700
X33275Y34716
X31864Y34950
X31838Y34650
X30637Y34952
X30238Y34616
X30075Y33969
X29614Y32865
X29049Y32472
X28770Y32629
X28457Y33968
X30980Y32354
X31790Y32997
X33118Y32275
X33188Y31216
X33548Y30866
X34059Y30552
X33383Y29888
X34238Y29666
X33787Y29046
X35513Y27641
X35338Y27014
X36138Y27014
X36238Y27816
X37688Y28166
X38688Y27266
X39081Y27266
X39876Y26374
X40738Y27216
X41050Y27154
X41388Y27166
X41871Y26999
X41648Y26684
X41622Y26330
X42988Y27266
X42988Y28316
X41538Y28716
X40688Y28316
X40288Y28516
X40007Y30252
X41206Y30049
X41464Y30582
X41858Y30582
X42015Y30228
X42842Y30228
X42988Y30566
X41280Y31527
X41674Y32078
X41936Y32531
X41936Y33466
X38763Y32881
X38333Y31124
X37999Y30132
X35755Y32432
X34968Y32905
X34929Y33535
X35047Y34322
X36234Y34480
X35834Y35700
X34955Y31532
X29810Y30424
X30038Y27416
X30938Y26566
X31425Y26369
X30032Y25700
X29574Y26054
X28437Y24955
X27827Y26251
X29788Y24016
X32867Y25779
X34614Y25543
X34653Y26212
X35988Y26366
X36038Y25416
X35362Y24637
X34574Y24637
X37438Y25666
X34238Y27275
X32938Y22066
X33314Y19752
X33275Y18768
X31864Y19002
X31838Y18702
X30637Y19004
X30238Y18668
X30075Y18020
X29614Y16917
X29049Y16524
X28770Y16681
X28457Y18020
X30980Y16406
X31790Y17049
X33118Y16327
X33188Y15268
X33548Y14918
X34059Y14604
X34955Y15584
X35755Y16484
X34968Y16957
X34929Y17587
X35047Y18374
X36234Y18531
X35834Y19752
X38763Y16933
X38333Y15176
X37999Y14184
X40007Y14304
X41206Y14101
X41464Y14634
X41858Y14634
X42015Y14280
X42842Y14280
X42988Y14618
X41674Y16130
X41936Y16583
X41936Y17518
X41280Y15579
X41538Y12768
X40688Y12368
X40288Y12568
X40738Y11268
X41050Y11206
X41388Y11218
X41871Y11051
X41648Y10736
X41622Y10382
X42988Y11318
X42988Y12368
X39876Y10426
X39081Y11318
X38688Y11318
X37688Y12218
X36238Y11868
X35513Y11693
X35338Y11066
X36138Y11066
X35988Y10418
X34653Y10264
X34614Y9594
X36038Y9468
X35362Y8689
X34574Y8689
X32867Y9831
X31425Y10421
X30938Y10618
X30032Y9752
X29574Y10106
X30038Y11468
X27827Y10303
X28437Y9007
X29788Y8068
X32938Y6118
X37438Y9718
X34238Y11327
X33787Y13098
X34238Y13718
X33383Y13940
X29810Y14476
X13390Y6118
X10490Y11468
X10262Y14476
X47375Y10303
X47985Y9007
X49122Y10106
X49580Y9752
X50486Y10618
X50973Y10421
X52415Y9831
X54162Y9594
X54201Y10264
X54886Y11066
X55061Y11693
X55786Y11868
X55686Y11066
X55536Y10418
X55586Y9468
X54910Y8689
X54122Y8689
X56986Y9718
X58236Y11318
X58629Y11318
X59424Y10426
X60286Y11268
X60598Y11206
X60936Y11218
X61419Y11051
X61196Y10736
X61170Y10382
X62536Y11318
X62536Y12368
X61086Y12768
X60236Y12368
X59836Y12568
X59555Y14304
X60754Y14101
X61012Y14634
X61406Y14634
X61563Y14280
X62390Y14280
X62536Y14618
X60828Y15579
X61222Y16130
X61485Y16583
X61485Y17518
X58311Y16933
X57881Y15176
X57548Y14184
X57236Y12218
X53786Y11327
X53335Y13098
X53786Y13718
X52931Y13940
X53607Y14604
X53096Y14918
X52736Y15268
X52666Y16327
X51338Y17049
X50528Y16406
X49162Y16917
X48597Y16524
X48318Y16681
X48005Y18020
X49623Y18020
X49786Y18668
X50185Y19004
X51412Y19002
X51386Y18702
X52823Y18768
X52862Y19752
X54595Y18374
X54477Y17587
X54516Y16957
X55303Y16484
X54503Y15584
X55782Y18531
X55382Y19752
X52486Y22066
X54122Y24637
X54910Y24637
X55586Y25416
X55536Y26366
X55686Y27014
X54886Y27014
X55061Y27641
X55786Y27816
X57236Y28166
X58236Y27266
X58629Y27266
X59424Y26374
X60286Y27216
X60598Y27154
X60936Y27166
X61419Y26999
X61196Y26684
X61170Y26330
X62536Y27266
X62536Y28316
X61086Y28716
X60236Y28316
X59836Y28516
X59555Y30252
X60754Y30049
X61012Y30582
X61406Y30582
X61563Y30228
X62390Y30228
X62536Y30566
X60828Y31527
X61222Y32078
X61485Y32531
X61485Y33466
X58311Y32881
X57881Y31124
X57548Y30132
X55303Y32432
X54516Y32905
X54477Y33535
X54595Y34322
X55782Y34480
X55382Y35700
X52862Y35700
X51412Y34950
X51386Y34650
X52823Y34716
X51338Y32997
X50528Y32354
X49162Y32865
X48597Y32472
X48318Y32629
X48005Y33968
X49623Y33969
X49786Y34616
X50185Y34952
X52666Y32275
X52736Y31216
X53096Y30866
X53607Y30552
X52931Y29888
X53786Y29666
X53335Y29046
X53786Y27275
X54201Y26212
X54162Y25543
X52415Y25779
X50973Y26369
X50486Y26566
X49586Y27416
X49122Y26054
X49580Y25700
X47985Y24955
X47375Y26251
X49336Y24016
X56986Y25666
X49359Y30424
X54503Y31532
X52486Y38014
X49336Y39964
X47985Y40903
X49122Y42002
X49580Y41648
X50486Y42514
X50973Y42317
X52415Y41727
X54162Y41491
X54122Y40585
X54910Y40585
X55586Y41364
X55536Y42314
X55686Y42962
X54886Y42962
X55061Y43589
X55786Y43764
X57236Y44114
X58236Y43214
X58629Y43214
X59424Y42322
X60286Y43164
X60598Y43102
X60936Y43114
X61419Y42947
X61196Y42632
X61170Y42278
X62536Y43214
X62536Y44264
X61086Y44664
X60236Y44264
X59836Y44464
X60754Y45997
X61012Y46530
X61406Y46530
X61563Y46176
X62390Y46176
X62536Y46514
X60828Y47475
X61222Y48026
X61485Y48479
X61485Y49414
X58311Y48829
X57881Y47072
X57548Y46080
X59555Y46200
X55303Y48380
X54516Y48853
X54477Y49483
X54595Y50270
X55782Y50428
X55382Y51648
X52862Y51648
X52823Y50664
X51412Y50898
X51386Y50598
X50185Y50900
X49786Y50564
X49623Y49917
X49162Y48813
X48597Y48420
X48318Y48577
X48005Y49916
X50528Y48302
X51338Y48945
X52666Y48223
X52736Y47164
X53096Y46814
X53607Y46500
X53786Y45614
X53335Y44994
X52931Y45836
X54503Y47480
X53786Y43223
X54201Y42160
X56986Y41614
X49586Y43364
X47375Y42199
X49359Y46372
X37438Y41614
X29810Y46372
X49359Y14476
X49586Y11468
X49336Y8068
X52486Y6118
T02
X59305Y16980
X59305Y17480
X59305Y17980
X59305Y18480
X59305Y18980
X59805Y18980
X59805Y18480
X59805Y17980
X59805Y17480
X59805Y16980
X40257Y16980
X39757Y16980
X39757Y17480
X39757Y17980
X39757Y18480
X39757Y18980
X40257Y18980
X40257Y18480
X40257Y17980
X40257Y17480
X20709Y17480
X20209Y17480
X20209Y16980
X20709Y16980
X20709Y17980
X20209Y17980
X20209Y18480
X20209Y18980
X20709Y18980
X20709Y18480
X20709Y32928
X20209Y32928
X20209Y33428
X20709Y33428
X20709Y33928
X20209Y33928
X20209Y34428
X20709Y34428
X20709Y34928
X20209Y34928
X20209Y48876
X20709Y48876
X20709Y49376
X20209Y49376
X20209Y49876
X20709Y49876
X20709Y50376
X20209Y50376
X20209Y50876
X20709Y50876
X39757Y50876
X39757Y50376
X39757Y49876
X39757Y49376
X39757Y48876
X40257Y48876
X40257Y49376
X40257Y49876
X40257Y50376
X40257Y50876
X59305Y50876
X59305Y50376
X59305Y49876
X59305Y49376
X59305Y48876
X59805Y48876
X59805Y49376
X59805Y49876
X59805Y50376
X59805Y50876
X59805Y34928
X59305Y34928
X59305Y34428
X59305Y33928
X59305Y33428
X59305Y32928
X59805Y32928
X59805Y33428
X59805Y33928
X59805Y34428
X40257Y34428
X39757Y34428
X39757Y33928
X39757Y33428
X39757Y32928
X40257Y32928
X40257Y33428
X40257Y33928
X40257Y34928
X39757Y34928
T03
X47823Y33377
X47823Y25503
X47823Y17429
X47823Y9555
X28275Y9555
X28275Y17429
X28275Y25503
X28275Y33377
X28275Y41451
X28275Y49325
X8727Y49325
X8727Y41451
X8727Y33377
X8727Y25503
X8727Y17429
X8727Y9555
X47823Y41451
X47823Y49325
T04
X40488Y39014
X39488Y39014
X38488Y39014
X38488Y38014
X39488Y38014
X40488Y38014
X37488Y38014
X36488Y38014
X36488Y39014
X37488Y39014
X32488Y38714
X31488Y38714
X20940Y39014
X20940Y38014
X19940Y38014
X18940Y38014
X17940Y38014
X16940Y38014
X16940Y39014
X17940Y39014
X18940Y39014
X19940Y39014
X12940Y38714
X11940Y38714
X16940Y23066
X17940Y23066
X18940Y23066
X19940Y23066
X20940Y23066
X20940Y22066
X19940Y22066
X18940Y22066
X17940Y22066
X16940Y22066
X12940Y22766
X11940Y22766
X31488Y22766
X32488Y22766
X36488Y23066
X37488Y23066
X38488Y23066
X39488Y23066
X40488Y23066
X40488Y22066
X39488Y22066
X38488Y22066
X37488Y22066
X36488Y22066
X51036Y22766
X52036Y22766
X56036Y23066
X57036Y23066
X58036Y23066
X59036Y23066
X60036Y23066
X60036Y22066
X59036Y22066
X58036Y22066
X57036Y22066
X56036Y22066
X56036Y7118
X57036Y7118
X58036Y7118
X59036Y7118
X60036Y7118
X60036Y6118
X59036Y6118
X58036Y6118
X57036Y6118
X56036Y6118
X52036Y6818
X51036Y6818
X40488Y7118
X39488Y7118
X38488Y7118
X38488Y6118
X39488Y6118
X40488Y6118
X37488Y6118
X36488Y6118
X36488Y7118
X37488Y7118
X32488Y6818
X31488Y6818
X20940Y7118
X20940Y6118
X19940Y6118
X18940Y6118
X17940Y6118
X16940Y6118
X16940Y7118
X17940Y7118
X18940Y7118
X19940Y7118
X12940Y6818
X11940Y6818
X51036Y38714
X52036Y38714
X56036Y39014
X57036Y39014
X58036Y39014
X59036Y39014
X60036Y39014
X60036Y38014
X59036Y38014
X58036Y38014
X57036Y38014
X56036Y38014
T05
X47626Y43388
X47626Y47388
X28078Y47388
X28078Y43388
X28078Y31440
X28078Y27440
X28078Y15492
X28078Y11492
X8530Y11492
X8530Y15492
X8530Y27440
X8530Y31440
X8530Y43388
X8530Y47388
X47626Y31440
X47626Y27440
X47626Y15492
X47626Y11492
T06
X9053Y6732
X22574Y6732
X28601Y6732
X42122Y6732
X48149Y6732
X61670Y6732
X61670Y20253
X61670Y22680
X48149Y22680
X48149Y20253
X42122Y20253
X42122Y22680
X28601Y22680
X28601Y20253
X22574Y20253
X22574Y22680
X9053Y22680
X9053Y20253
X9053Y36201
X9053Y38628
X22574Y38628
X22574Y36201
X28601Y36201
X28601Y38628
X42122Y38628
X42122Y36201
X48149Y36201
X48149Y38628
X61670Y38628
X61670Y36201
X61670Y52149
X48149Y52149
X42122Y52149
X28601Y52149
X22574Y52149
X9053Y52149
M30
