G04 EAGLE Gerber RS-274X export*
G75*
%MOMM*%
%FSLAX34Y34*%
%LPD*%
%INSolderpaste Top*%
%IPPOS*%
%AMOC8*
5,1,8,0,0,1.08239X$1,22.5*%
G01*
%ADD10R,3.000000X1.000000*%
%ADD11R,1.800000X1.000000*%
%ADD12R,0.600000X0.600000*%
%ADD13R,0.250000X0.275000*%
%ADD14R,0.275000X0.250000*%
%ADD15R,1.000000X1.100000*%
%ADD16R,1.100000X1.000000*%
%ADD17R,0.630000X0.830000*%
%ADD18R,0.550000X1.200000*%
%ADD19C,0.300000*%
%ADD20R,2.000000X1.200000*%
%ADD21R,1.350000X0.600000*%
%ADD22R,0.400000X0.600000*%
%ADD23R,0.600000X0.400000*%
%ADD24R,0.522000X0.725000*%
%ADD25R,0.200000X0.500000*%
%ADD26R,0.500000X0.200000*%
%ADD27R,0.900000X1.000000*%
%ADD28R,0.300000X1.400000*%
%ADD29R,1.250000X2.300000*%
%ADD30R,1.400000X1.600000*%

G36*
X518097Y1102163D02*
X518097Y1102163D01*
X518106Y1102167D01*
X518146Y1102173D01*
X519633Y1102642D01*
X519642Y1102648D01*
X519680Y1102662D01*
X521041Y1103422D01*
X521061Y1103442D01*
X521086Y1103454D01*
X521109Y1103491D01*
X521140Y1103522D01*
X521145Y1103549D01*
X521160Y1103573D01*
X521160Y1103616D01*
X521169Y1103659D01*
X521159Y1103685D01*
X521158Y1103712D01*
X521126Y1103780D01*
X519726Y1105850D01*
X519722Y1105854D01*
X519719Y1105860D01*
X519668Y1105898D01*
X519619Y1105939D01*
X519613Y1105940D01*
X519608Y1105943D01*
X519544Y1105948D01*
X519480Y1105956D01*
X519474Y1105953D01*
X519468Y1105954D01*
X519399Y1105928D01*
X518492Y1105422D01*
X517527Y1105117D01*
X516520Y1105015D01*
X515513Y1105117D01*
X514548Y1105422D01*
X513641Y1105928D01*
X513635Y1105929D01*
X513631Y1105933D01*
X513568Y1105945D01*
X513505Y1105959D01*
X513499Y1105957D01*
X513493Y1105958D01*
X513434Y1105933D01*
X513374Y1105912D01*
X513370Y1105907D01*
X513364Y1105904D01*
X513314Y1105850D01*
X511914Y1103780D01*
X511905Y1103753D01*
X511888Y1103731D01*
X511884Y1103688D01*
X511871Y1103646D01*
X511878Y1103620D01*
X511875Y1103592D01*
X511895Y1103553D01*
X511906Y1103511D01*
X511927Y1103492D01*
X511940Y1103468D01*
X511999Y1103422D01*
X513360Y1102662D01*
X513371Y1102660D01*
X513407Y1102642D01*
X514894Y1102173D01*
X514904Y1102173D01*
X514943Y1102163D01*
X516495Y1102005D01*
X516505Y1102007D01*
X516545Y1102005D01*
X518097Y1102163D01*
G37*
G36*
X1014617Y1102163D02*
X1014617Y1102163D01*
X1014626Y1102167D01*
X1014666Y1102173D01*
X1016153Y1102642D01*
X1016162Y1102648D01*
X1016200Y1102662D01*
X1017561Y1103422D01*
X1017581Y1103442D01*
X1017606Y1103454D01*
X1017629Y1103491D01*
X1017659Y1103522D01*
X1017665Y1103549D01*
X1017680Y1103573D01*
X1017679Y1103616D01*
X1017688Y1103659D01*
X1017679Y1103685D01*
X1017678Y1103712D01*
X1017646Y1103780D01*
X1016246Y1105850D01*
X1016242Y1105854D01*
X1016239Y1105860D01*
X1016188Y1105898D01*
X1016139Y1105939D01*
X1016133Y1105940D01*
X1016127Y1105943D01*
X1016064Y1105948D01*
X1016000Y1105956D01*
X1015994Y1105953D01*
X1015988Y1105954D01*
X1015918Y1105928D01*
X1015012Y1105422D01*
X1014047Y1105117D01*
X1013040Y1105015D01*
X1012033Y1105117D01*
X1011068Y1105422D01*
X1010161Y1105928D01*
X1010155Y1105929D01*
X1010151Y1105933D01*
X1010088Y1105945D01*
X1010025Y1105959D01*
X1010019Y1105957D01*
X1010013Y1105958D01*
X1009954Y1105933D01*
X1009894Y1105912D01*
X1009890Y1105907D01*
X1009884Y1105904D01*
X1009833Y1105850D01*
X1008433Y1103780D01*
X1008425Y1103753D01*
X1008408Y1103731D01*
X1008404Y1103688D01*
X1008391Y1103646D01*
X1008398Y1103620D01*
X1008395Y1103592D01*
X1008415Y1103553D01*
X1008426Y1103511D01*
X1008447Y1103492D01*
X1008460Y1103468D01*
X1008518Y1103422D01*
X1009880Y1102662D01*
X1009890Y1102660D01*
X1009927Y1102642D01*
X1011414Y1102173D01*
X1011424Y1102173D01*
X1011463Y1102163D01*
X1013015Y1102005D01*
X1013025Y1102007D01*
X1013065Y1102005D01*
X1014617Y1102163D01*
G37*
G36*
X21577Y1102163D02*
X21577Y1102163D01*
X21586Y1102167D01*
X21626Y1102173D01*
X23113Y1102642D01*
X23122Y1102648D01*
X23160Y1102662D01*
X24521Y1103422D01*
X24541Y1103442D01*
X24566Y1103454D01*
X24589Y1103491D01*
X24620Y1103522D01*
X24625Y1103549D01*
X24640Y1103573D01*
X24640Y1103616D01*
X24649Y1103659D01*
X24639Y1103685D01*
X24638Y1103712D01*
X24606Y1103780D01*
X23206Y1105850D01*
X23202Y1105854D01*
X23199Y1105860D01*
X23148Y1105898D01*
X23099Y1105939D01*
X23093Y1105940D01*
X23088Y1105943D01*
X23024Y1105948D01*
X22960Y1105956D01*
X22954Y1105953D01*
X22948Y1105954D01*
X22879Y1105928D01*
X21972Y1105422D01*
X21007Y1105117D01*
X20000Y1105015D01*
X18993Y1105117D01*
X18028Y1105422D01*
X17121Y1105928D01*
X17115Y1105929D01*
X17111Y1105933D01*
X17048Y1105945D01*
X16985Y1105959D01*
X16979Y1105957D01*
X16973Y1105958D01*
X16914Y1105933D01*
X16854Y1105912D01*
X16850Y1105907D01*
X16844Y1105904D01*
X16794Y1105850D01*
X15394Y1103780D01*
X15385Y1103753D01*
X15368Y1103731D01*
X15364Y1103688D01*
X15351Y1103646D01*
X15358Y1103620D01*
X15355Y1103592D01*
X15375Y1103553D01*
X15387Y1103511D01*
X15407Y1103492D01*
X15420Y1103468D01*
X15479Y1103422D01*
X16840Y1102662D01*
X16851Y1102660D01*
X16887Y1102642D01*
X18374Y1102173D01*
X18384Y1102173D01*
X18423Y1102163D01*
X19975Y1102005D01*
X19985Y1102007D01*
X20025Y1102005D01*
X21577Y1102163D01*
G37*
G36*
X518097Y697083D02*
X518097Y697083D01*
X518106Y697087D01*
X518146Y697093D01*
X519633Y697562D01*
X519642Y697568D01*
X519680Y697582D01*
X521041Y698342D01*
X521061Y698362D01*
X521086Y698374D01*
X521109Y698411D01*
X521140Y698442D01*
X521145Y698469D01*
X521160Y698493D01*
X521160Y698536D01*
X521169Y698579D01*
X521159Y698605D01*
X521158Y698633D01*
X521126Y698700D01*
X519726Y700770D01*
X519722Y700774D01*
X519719Y700780D01*
X519668Y700818D01*
X519619Y700859D01*
X519613Y700860D01*
X519608Y700863D01*
X519544Y700868D01*
X519480Y700876D01*
X519474Y700873D01*
X519468Y700874D01*
X519399Y700848D01*
X518492Y700342D01*
X517527Y700038D01*
X516520Y699935D01*
X515513Y700038D01*
X514548Y700342D01*
X513641Y700848D01*
X513635Y700849D01*
X513631Y700853D01*
X513568Y700865D01*
X513505Y700879D01*
X513499Y700877D01*
X513493Y700878D01*
X513434Y700853D01*
X513374Y700832D01*
X513370Y700827D01*
X513364Y700824D01*
X513314Y700770D01*
X511914Y698700D01*
X511905Y698673D01*
X511888Y698651D01*
X511884Y698608D01*
X511871Y698567D01*
X511878Y698540D01*
X511875Y698512D01*
X511895Y698473D01*
X511906Y698431D01*
X511927Y698413D01*
X511940Y698388D01*
X511999Y698342D01*
X513360Y697582D01*
X513371Y697580D01*
X513407Y697562D01*
X514894Y697093D01*
X514904Y697093D01*
X514943Y697083D01*
X516495Y696925D01*
X516505Y696927D01*
X516545Y696925D01*
X518097Y697083D01*
G37*
G36*
X518097Y497083D02*
X518097Y497083D01*
X518106Y497087D01*
X518146Y497093D01*
X519633Y497562D01*
X519642Y497568D01*
X519680Y497582D01*
X521041Y498342D01*
X521061Y498362D01*
X521086Y498374D01*
X521109Y498411D01*
X521140Y498442D01*
X521145Y498469D01*
X521160Y498493D01*
X521160Y498536D01*
X521169Y498579D01*
X521159Y498605D01*
X521158Y498633D01*
X521126Y498700D01*
X519726Y500770D01*
X519722Y500774D01*
X519719Y500780D01*
X519668Y500818D01*
X519619Y500859D01*
X519613Y500860D01*
X519608Y500863D01*
X519544Y500868D01*
X519480Y500876D01*
X519474Y500873D01*
X519468Y500874D01*
X519399Y500848D01*
X518492Y500342D01*
X517527Y500038D01*
X516520Y499935D01*
X515513Y500038D01*
X514548Y500342D01*
X513641Y500848D01*
X513635Y500849D01*
X513631Y500853D01*
X513568Y500865D01*
X513505Y500879D01*
X513499Y500877D01*
X513493Y500878D01*
X513434Y500853D01*
X513374Y500832D01*
X513370Y500827D01*
X513364Y500824D01*
X513314Y500770D01*
X511914Y498700D01*
X511905Y498673D01*
X511888Y498651D01*
X511884Y498608D01*
X511871Y498567D01*
X511878Y498540D01*
X511875Y498512D01*
X511895Y498473D01*
X511906Y498431D01*
X511927Y498413D01*
X511940Y498388D01*
X511999Y498342D01*
X513360Y497582D01*
X513371Y497580D01*
X513407Y497562D01*
X514894Y497093D01*
X514904Y497093D01*
X514943Y497083D01*
X516495Y496925D01*
X516505Y496927D01*
X516545Y496925D01*
X518097Y497083D01*
G37*
G36*
X1014617Y902163D02*
X1014617Y902163D01*
X1014626Y902167D01*
X1014666Y902173D01*
X1016153Y902642D01*
X1016162Y902648D01*
X1016200Y902662D01*
X1017561Y903422D01*
X1017581Y903442D01*
X1017606Y903454D01*
X1017629Y903491D01*
X1017659Y903522D01*
X1017665Y903549D01*
X1017680Y903573D01*
X1017679Y903616D01*
X1017688Y903659D01*
X1017679Y903685D01*
X1017678Y903712D01*
X1017646Y903780D01*
X1016246Y905850D01*
X1016242Y905854D01*
X1016239Y905860D01*
X1016188Y905898D01*
X1016139Y905939D01*
X1016133Y905940D01*
X1016127Y905943D01*
X1016064Y905948D01*
X1016000Y905956D01*
X1015994Y905953D01*
X1015988Y905954D01*
X1015918Y905928D01*
X1015012Y905422D01*
X1014047Y905117D01*
X1013040Y905015D01*
X1012033Y905117D01*
X1011068Y905422D01*
X1010161Y905928D01*
X1010155Y905929D01*
X1010151Y905933D01*
X1010088Y905945D01*
X1010025Y905959D01*
X1010019Y905957D01*
X1010013Y905958D01*
X1009954Y905933D01*
X1009894Y905912D01*
X1009890Y905907D01*
X1009884Y905904D01*
X1009833Y905850D01*
X1008433Y903780D01*
X1008425Y903753D01*
X1008408Y903731D01*
X1008404Y903688D01*
X1008391Y903646D01*
X1008398Y903620D01*
X1008395Y903592D01*
X1008415Y903553D01*
X1008426Y903511D01*
X1008447Y903492D01*
X1008460Y903468D01*
X1008518Y903422D01*
X1009880Y902662D01*
X1009890Y902660D01*
X1009927Y902642D01*
X1011414Y902173D01*
X1011424Y902173D01*
X1011463Y902163D01*
X1013015Y902005D01*
X1013025Y902007D01*
X1013065Y902005D01*
X1014617Y902163D01*
G37*
G36*
X21577Y902163D02*
X21577Y902163D01*
X21586Y902167D01*
X21626Y902173D01*
X23113Y902642D01*
X23122Y902648D01*
X23160Y902662D01*
X24521Y903422D01*
X24541Y903442D01*
X24566Y903454D01*
X24589Y903491D01*
X24620Y903522D01*
X24625Y903549D01*
X24640Y903573D01*
X24640Y903616D01*
X24649Y903659D01*
X24639Y903685D01*
X24638Y903712D01*
X24606Y903780D01*
X23206Y905850D01*
X23202Y905854D01*
X23199Y905860D01*
X23148Y905898D01*
X23099Y905939D01*
X23093Y905940D01*
X23088Y905943D01*
X23024Y905948D01*
X22960Y905956D01*
X22954Y905953D01*
X22948Y905954D01*
X22879Y905928D01*
X21972Y905422D01*
X21007Y905117D01*
X20000Y905015D01*
X18993Y905117D01*
X18028Y905422D01*
X17121Y905928D01*
X17115Y905929D01*
X17111Y905933D01*
X17048Y905945D01*
X16985Y905959D01*
X16979Y905957D01*
X16973Y905958D01*
X16914Y905933D01*
X16854Y905912D01*
X16850Y905907D01*
X16844Y905904D01*
X16794Y905850D01*
X15394Y903780D01*
X15385Y903753D01*
X15368Y903731D01*
X15364Y903688D01*
X15351Y903646D01*
X15358Y903620D01*
X15355Y903592D01*
X15375Y903553D01*
X15387Y903511D01*
X15407Y903492D01*
X15420Y903468D01*
X15479Y903422D01*
X16840Y902662D01*
X16851Y902660D01*
X16887Y902642D01*
X18374Y902173D01*
X18384Y902173D01*
X18423Y902163D01*
X19975Y902005D01*
X19985Y902007D01*
X20025Y902005D01*
X21577Y902163D01*
G37*
G36*
X518097Y902163D02*
X518097Y902163D01*
X518106Y902167D01*
X518146Y902173D01*
X519633Y902642D01*
X519642Y902648D01*
X519680Y902662D01*
X521041Y903422D01*
X521061Y903442D01*
X521086Y903454D01*
X521109Y903491D01*
X521140Y903522D01*
X521145Y903549D01*
X521160Y903573D01*
X521160Y903616D01*
X521169Y903659D01*
X521159Y903685D01*
X521158Y903712D01*
X521126Y903780D01*
X519726Y905850D01*
X519722Y905854D01*
X519719Y905860D01*
X519668Y905898D01*
X519619Y905939D01*
X519613Y905940D01*
X519608Y905943D01*
X519544Y905948D01*
X519480Y905956D01*
X519474Y905953D01*
X519468Y905954D01*
X519399Y905928D01*
X518492Y905422D01*
X517527Y905117D01*
X516520Y905015D01*
X515513Y905117D01*
X514548Y905422D01*
X513641Y905928D01*
X513635Y905929D01*
X513631Y905933D01*
X513568Y905945D01*
X513505Y905959D01*
X513499Y905957D01*
X513493Y905958D01*
X513434Y905933D01*
X513374Y905912D01*
X513370Y905907D01*
X513364Y905904D01*
X513314Y905850D01*
X511914Y903780D01*
X511905Y903753D01*
X511888Y903731D01*
X511884Y903688D01*
X511871Y903646D01*
X511878Y903620D01*
X511875Y903592D01*
X511895Y903553D01*
X511906Y903511D01*
X511927Y903492D01*
X511940Y903468D01*
X511999Y903422D01*
X513360Y902662D01*
X513371Y902660D01*
X513407Y902642D01*
X514894Y902173D01*
X514904Y902173D01*
X514943Y902163D01*
X516495Y902005D01*
X516505Y902007D01*
X516545Y902005D01*
X518097Y902163D01*
G37*
G36*
X1014617Y697083D02*
X1014617Y697083D01*
X1014626Y697087D01*
X1014666Y697093D01*
X1016153Y697562D01*
X1016162Y697568D01*
X1016200Y697582D01*
X1017561Y698342D01*
X1017581Y698362D01*
X1017606Y698374D01*
X1017629Y698411D01*
X1017659Y698442D01*
X1017665Y698469D01*
X1017680Y698493D01*
X1017679Y698536D01*
X1017688Y698579D01*
X1017679Y698605D01*
X1017678Y698633D01*
X1017646Y698700D01*
X1016246Y700770D01*
X1016242Y700774D01*
X1016239Y700780D01*
X1016188Y700818D01*
X1016139Y700859D01*
X1016133Y700860D01*
X1016127Y700863D01*
X1016064Y700868D01*
X1016000Y700876D01*
X1015994Y700873D01*
X1015988Y700874D01*
X1015918Y700848D01*
X1015012Y700342D01*
X1014047Y700038D01*
X1013040Y699935D01*
X1012033Y700038D01*
X1011068Y700342D01*
X1010161Y700848D01*
X1010155Y700849D01*
X1010151Y700853D01*
X1010088Y700865D01*
X1010025Y700879D01*
X1010019Y700877D01*
X1010013Y700878D01*
X1009954Y700853D01*
X1009894Y700832D01*
X1009890Y700827D01*
X1009884Y700824D01*
X1009833Y700770D01*
X1008433Y698700D01*
X1008425Y698673D01*
X1008408Y698651D01*
X1008404Y698608D01*
X1008391Y698567D01*
X1008398Y698540D01*
X1008395Y698512D01*
X1008415Y698473D01*
X1008426Y698431D01*
X1008447Y698413D01*
X1008460Y698388D01*
X1008518Y698342D01*
X1009880Y697582D01*
X1009890Y697580D01*
X1009927Y697562D01*
X1011414Y697093D01*
X1011424Y697093D01*
X1011463Y697083D01*
X1013015Y696925D01*
X1013025Y696927D01*
X1013065Y696925D01*
X1014617Y697083D01*
G37*
G36*
X21577Y697083D02*
X21577Y697083D01*
X21586Y697087D01*
X21626Y697093D01*
X23113Y697562D01*
X23122Y697568D01*
X23160Y697582D01*
X24521Y698342D01*
X24541Y698362D01*
X24566Y698374D01*
X24589Y698411D01*
X24620Y698442D01*
X24625Y698469D01*
X24640Y698493D01*
X24640Y698536D01*
X24649Y698579D01*
X24639Y698605D01*
X24638Y698633D01*
X24606Y698700D01*
X23206Y700770D01*
X23202Y700774D01*
X23199Y700780D01*
X23148Y700818D01*
X23099Y700859D01*
X23093Y700860D01*
X23088Y700863D01*
X23024Y700868D01*
X22960Y700876D01*
X22954Y700873D01*
X22948Y700874D01*
X22879Y700848D01*
X21972Y700342D01*
X21007Y700038D01*
X20000Y699935D01*
X18993Y700038D01*
X18028Y700342D01*
X17121Y700848D01*
X17115Y700849D01*
X17111Y700853D01*
X17048Y700865D01*
X16985Y700879D01*
X16979Y700877D01*
X16973Y700878D01*
X16914Y700853D01*
X16854Y700832D01*
X16850Y700827D01*
X16844Y700824D01*
X16794Y700770D01*
X15394Y698700D01*
X15385Y698673D01*
X15368Y698651D01*
X15364Y698608D01*
X15351Y698567D01*
X15358Y698540D01*
X15355Y698512D01*
X15375Y698473D01*
X15387Y698431D01*
X15407Y698413D01*
X15420Y698388D01*
X15479Y698342D01*
X16840Y697582D01*
X16851Y697580D01*
X16887Y697562D01*
X18374Y697093D01*
X18384Y697093D01*
X18423Y697083D01*
X19975Y696925D01*
X19985Y696927D01*
X20025Y696925D01*
X21577Y697083D01*
G37*
G36*
X21577Y497083D02*
X21577Y497083D01*
X21586Y497087D01*
X21626Y497093D01*
X23113Y497562D01*
X23122Y497568D01*
X23160Y497582D01*
X24521Y498342D01*
X24541Y498362D01*
X24566Y498374D01*
X24589Y498411D01*
X24620Y498442D01*
X24625Y498469D01*
X24640Y498493D01*
X24640Y498536D01*
X24649Y498579D01*
X24639Y498605D01*
X24638Y498633D01*
X24606Y498700D01*
X23206Y500770D01*
X23202Y500774D01*
X23199Y500780D01*
X23148Y500818D01*
X23099Y500859D01*
X23093Y500860D01*
X23088Y500863D01*
X23024Y500868D01*
X22960Y500876D01*
X22954Y500873D01*
X22948Y500874D01*
X22879Y500848D01*
X21972Y500342D01*
X21007Y500038D01*
X20000Y499935D01*
X18993Y500038D01*
X18028Y500342D01*
X17121Y500848D01*
X17115Y500849D01*
X17111Y500853D01*
X17048Y500865D01*
X16985Y500879D01*
X16979Y500877D01*
X16973Y500878D01*
X16914Y500853D01*
X16854Y500832D01*
X16850Y500827D01*
X16844Y500824D01*
X16794Y500770D01*
X15394Y498700D01*
X15385Y498673D01*
X15368Y498651D01*
X15364Y498608D01*
X15351Y498567D01*
X15358Y498540D01*
X15355Y498512D01*
X15375Y498473D01*
X15387Y498431D01*
X15407Y498413D01*
X15420Y498388D01*
X15479Y498342D01*
X16840Y497582D01*
X16851Y497580D01*
X16887Y497562D01*
X18374Y497093D01*
X18384Y497093D01*
X18423Y497083D01*
X19975Y496925D01*
X19985Y496927D01*
X20025Y496925D01*
X21577Y497083D01*
G37*
G36*
X1014617Y497083D02*
X1014617Y497083D01*
X1014626Y497087D01*
X1014666Y497093D01*
X1016153Y497562D01*
X1016162Y497568D01*
X1016200Y497582D01*
X1017561Y498342D01*
X1017581Y498362D01*
X1017606Y498374D01*
X1017629Y498411D01*
X1017659Y498442D01*
X1017665Y498469D01*
X1017680Y498493D01*
X1017679Y498536D01*
X1017688Y498579D01*
X1017679Y498605D01*
X1017678Y498633D01*
X1017646Y498700D01*
X1016246Y500770D01*
X1016242Y500774D01*
X1016239Y500780D01*
X1016188Y500818D01*
X1016139Y500859D01*
X1016133Y500860D01*
X1016127Y500863D01*
X1016064Y500868D01*
X1016000Y500876D01*
X1015994Y500873D01*
X1015988Y500874D01*
X1015918Y500848D01*
X1015012Y500342D01*
X1014047Y500038D01*
X1013040Y499935D01*
X1012033Y500038D01*
X1011068Y500342D01*
X1010161Y500848D01*
X1010155Y500849D01*
X1010151Y500853D01*
X1010088Y500865D01*
X1010025Y500879D01*
X1010019Y500877D01*
X1010013Y500878D01*
X1009954Y500853D01*
X1009894Y500832D01*
X1009890Y500827D01*
X1009884Y500824D01*
X1009833Y500770D01*
X1008433Y498700D01*
X1008425Y498673D01*
X1008408Y498651D01*
X1008404Y498608D01*
X1008391Y498567D01*
X1008398Y498540D01*
X1008395Y498512D01*
X1008415Y498473D01*
X1008426Y498431D01*
X1008447Y498413D01*
X1008460Y498388D01*
X1008518Y498342D01*
X1009880Y497582D01*
X1009890Y497580D01*
X1009927Y497562D01*
X1011414Y497093D01*
X1011424Y497093D01*
X1011463Y497083D01*
X1013015Y496925D01*
X1013025Y496927D01*
X1013065Y496925D01*
X1014617Y497083D01*
G37*
G36*
X21577Y92003D02*
X21577Y92003D01*
X21586Y92007D01*
X21626Y92013D01*
X23113Y92482D01*
X23122Y92488D01*
X23160Y92502D01*
X24521Y93262D01*
X24541Y93282D01*
X24566Y93294D01*
X24589Y93331D01*
X24620Y93362D01*
X24625Y93389D01*
X24640Y93413D01*
X24640Y93456D01*
X24649Y93499D01*
X24639Y93525D01*
X24638Y93553D01*
X24606Y93620D01*
X23206Y95690D01*
X23202Y95694D01*
X23199Y95700D01*
X23148Y95738D01*
X23099Y95779D01*
X23093Y95780D01*
X23088Y95783D01*
X23024Y95788D01*
X22960Y95796D01*
X22954Y95793D01*
X22948Y95794D01*
X22879Y95768D01*
X21972Y95262D01*
X21007Y94958D01*
X20000Y94855D01*
X18993Y94958D01*
X18028Y95262D01*
X17121Y95768D01*
X17115Y95769D01*
X17111Y95773D01*
X17048Y95785D01*
X16985Y95799D01*
X16979Y95797D01*
X16973Y95798D01*
X16914Y95773D01*
X16854Y95752D01*
X16850Y95747D01*
X16844Y95744D01*
X16794Y95690D01*
X15394Y93620D01*
X15385Y93593D01*
X15368Y93571D01*
X15364Y93528D01*
X15351Y93487D01*
X15358Y93460D01*
X15355Y93432D01*
X15375Y93393D01*
X15387Y93351D01*
X15407Y93333D01*
X15420Y93308D01*
X15479Y93262D01*
X16840Y92502D01*
X16851Y92500D01*
X16887Y92482D01*
X18374Y92013D01*
X18384Y92013D01*
X18423Y92003D01*
X19975Y91845D01*
X19985Y91847D01*
X20025Y91845D01*
X21577Y92003D01*
G37*
G36*
X21577Y292003D02*
X21577Y292003D01*
X21586Y292007D01*
X21626Y292013D01*
X23113Y292482D01*
X23122Y292488D01*
X23160Y292502D01*
X24521Y293262D01*
X24541Y293282D01*
X24566Y293294D01*
X24589Y293331D01*
X24620Y293362D01*
X24625Y293389D01*
X24640Y293413D01*
X24640Y293456D01*
X24649Y293499D01*
X24639Y293525D01*
X24638Y293553D01*
X24606Y293620D01*
X23206Y295690D01*
X23202Y295694D01*
X23199Y295700D01*
X23148Y295738D01*
X23099Y295779D01*
X23093Y295780D01*
X23088Y295783D01*
X23024Y295788D01*
X22960Y295796D01*
X22954Y295793D01*
X22948Y295794D01*
X22879Y295768D01*
X21972Y295262D01*
X21007Y294958D01*
X20000Y294855D01*
X18993Y294958D01*
X18028Y295262D01*
X17121Y295768D01*
X17115Y295769D01*
X17111Y295773D01*
X17048Y295785D01*
X16985Y295799D01*
X16979Y295797D01*
X16973Y295798D01*
X16914Y295773D01*
X16854Y295752D01*
X16850Y295747D01*
X16844Y295744D01*
X16794Y295690D01*
X15394Y293620D01*
X15385Y293593D01*
X15368Y293571D01*
X15364Y293528D01*
X15351Y293487D01*
X15358Y293460D01*
X15355Y293432D01*
X15375Y293393D01*
X15387Y293351D01*
X15407Y293333D01*
X15420Y293308D01*
X15479Y293262D01*
X16840Y292502D01*
X16851Y292500D01*
X16887Y292482D01*
X18374Y292013D01*
X18384Y292013D01*
X18423Y292003D01*
X19975Y291845D01*
X19985Y291847D01*
X20025Y291845D01*
X21577Y292003D01*
G37*
G36*
X1014617Y292003D02*
X1014617Y292003D01*
X1014626Y292007D01*
X1014666Y292013D01*
X1016153Y292482D01*
X1016162Y292488D01*
X1016200Y292502D01*
X1017561Y293262D01*
X1017581Y293282D01*
X1017606Y293294D01*
X1017629Y293331D01*
X1017659Y293362D01*
X1017665Y293389D01*
X1017680Y293413D01*
X1017679Y293456D01*
X1017688Y293499D01*
X1017679Y293525D01*
X1017678Y293553D01*
X1017646Y293620D01*
X1016246Y295690D01*
X1016242Y295694D01*
X1016239Y295700D01*
X1016188Y295738D01*
X1016139Y295779D01*
X1016133Y295780D01*
X1016127Y295783D01*
X1016064Y295788D01*
X1016000Y295796D01*
X1015994Y295793D01*
X1015988Y295794D01*
X1015918Y295768D01*
X1015012Y295262D01*
X1014047Y294958D01*
X1013040Y294855D01*
X1012033Y294958D01*
X1011068Y295262D01*
X1010161Y295768D01*
X1010155Y295769D01*
X1010151Y295773D01*
X1010088Y295785D01*
X1010025Y295799D01*
X1010019Y295797D01*
X1010013Y295798D01*
X1009954Y295773D01*
X1009894Y295752D01*
X1009890Y295747D01*
X1009884Y295744D01*
X1009833Y295690D01*
X1008433Y293620D01*
X1008425Y293593D01*
X1008408Y293571D01*
X1008404Y293528D01*
X1008391Y293487D01*
X1008398Y293460D01*
X1008395Y293432D01*
X1008415Y293393D01*
X1008426Y293351D01*
X1008447Y293333D01*
X1008460Y293308D01*
X1008518Y293262D01*
X1009880Y292502D01*
X1009890Y292500D01*
X1009927Y292482D01*
X1011414Y292013D01*
X1011424Y292013D01*
X1011463Y292003D01*
X1013015Y291845D01*
X1013025Y291847D01*
X1013065Y291845D01*
X1014617Y292003D01*
G37*
G36*
X518097Y292003D02*
X518097Y292003D01*
X518106Y292007D01*
X518146Y292013D01*
X519633Y292482D01*
X519642Y292488D01*
X519680Y292502D01*
X521041Y293262D01*
X521061Y293282D01*
X521086Y293294D01*
X521109Y293331D01*
X521140Y293362D01*
X521145Y293389D01*
X521160Y293413D01*
X521160Y293456D01*
X521169Y293499D01*
X521159Y293525D01*
X521158Y293553D01*
X521126Y293620D01*
X519726Y295690D01*
X519722Y295694D01*
X519719Y295700D01*
X519668Y295738D01*
X519619Y295779D01*
X519613Y295780D01*
X519608Y295783D01*
X519544Y295788D01*
X519480Y295796D01*
X519474Y295793D01*
X519468Y295794D01*
X519399Y295768D01*
X518492Y295262D01*
X517527Y294958D01*
X516520Y294855D01*
X515513Y294958D01*
X514548Y295262D01*
X513641Y295768D01*
X513635Y295769D01*
X513631Y295773D01*
X513568Y295785D01*
X513505Y295799D01*
X513499Y295797D01*
X513493Y295798D01*
X513434Y295773D01*
X513374Y295752D01*
X513370Y295747D01*
X513364Y295744D01*
X513314Y295690D01*
X511914Y293620D01*
X511905Y293593D01*
X511888Y293571D01*
X511884Y293528D01*
X511871Y293487D01*
X511878Y293460D01*
X511875Y293432D01*
X511895Y293393D01*
X511906Y293351D01*
X511927Y293333D01*
X511940Y293308D01*
X511999Y293262D01*
X513360Y292502D01*
X513371Y292500D01*
X513407Y292482D01*
X514894Y292013D01*
X514904Y292013D01*
X514943Y292003D01*
X516495Y291845D01*
X516505Y291847D01*
X516545Y291845D01*
X518097Y292003D01*
G37*
G36*
X1014617Y92003D02*
X1014617Y92003D01*
X1014626Y92007D01*
X1014666Y92013D01*
X1016153Y92482D01*
X1016162Y92488D01*
X1016200Y92502D01*
X1017561Y93262D01*
X1017581Y93282D01*
X1017606Y93294D01*
X1017629Y93331D01*
X1017659Y93362D01*
X1017665Y93389D01*
X1017680Y93413D01*
X1017679Y93456D01*
X1017688Y93499D01*
X1017679Y93525D01*
X1017678Y93553D01*
X1017646Y93620D01*
X1016246Y95690D01*
X1016242Y95694D01*
X1016239Y95700D01*
X1016188Y95738D01*
X1016139Y95779D01*
X1016133Y95780D01*
X1016127Y95783D01*
X1016064Y95788D01*
X1016000Y95796D01*
X1015994Y95793D01*
X1015988Y95794D01*
X1015918Y95768D01*
X1015012Y95262D01*
X1014047Y94958D01*
X1013040Y94855D01*
X1012033Y94958D01*
X1011068Y95262D01*
X1010161Y95768D01*
X1010155Y95769D01*
X1010151Y95773D01*
X1010088Y95785D01*
X1010025Y95799D01*
X1010019Y95797D01*
X1010013Y95798D01*
X1009954Y95773D01*
X1009894Y95752D01*
X1009890Y95747D01*
X1009884Y95744D01*
X1009833Y95690D01*
X1008433Y93620D01*
X1008425Y93593D01*
X1008408Y93571D01*
X1008404Y93528D01*
X1008391Y93487D01*
X1008398Y93460D01*
X1008395Y93432D01*
X1008415Y93393D01*
X1008426Y93351D01*
X1008447Y93333D01*
X1008460Y93308D01*
X1008518Y93262D01*
X1009880Y92502D01*
X1009890Y92500D01*
X1009927Y92482D01*
X1011414Y92013D01*
X1011424Y92013D01*
X1011463Y92003D01*
X1013015Y91845D01*
X1013025Y91847D01*
X1013065Y91845D01*
X1014617Y92003D01*
G37*
G36*
X518097Y92003D02*
X518097Y92003D01*
X518106Y92007D01*
X518146Y92013D01*
X519633Y92482D01*
X519642Y92488D01*
X519680Y92502D01*
X521041Y93262D01*
X521061Y93282D01*
X521086Y93294D01*
X521109Y93331D01*
X521140Y93362D01*
X521145Y93389D01*
X521160Y93413D01*
X521160Y93456D01*
X521169Y93499D01*
X521159Y93525D01*
X521158Y93553D01*
X521126Y93620D01*
X519726Y95690D01*
X519722Y95694D01*
X519719Y95700D01*
X519668Y95738D01*
X519619Y95779D01*
X519613Y95780D01*
X519608Y95783D01*
X519544Y95788D01*
X519480Y95796D01*
X519474Y95793D01*
X519468Y95794D01*
X519399Y95768D01*
X518492Y95262D01*
X517527Y94958D01*
X516520Y94855D01*
X515513Y94958D01*
X514548Y95262D01*
X513641Y95768D01*
X513635Y95769D01*
X513631Y95773D01*
X513568Y95785D01*
X513505Y95799D01*
X513499Y95797D01*
X513493Y95798D01*
X513434Y95773D01*
X513374Y95752D01*
X513370Y95747D01*
X513364Y95744D01*
X513314Y95690D01*
X511914Y93620D01*
X511905Y93593D01*
X511888Y93571D01*
X511884Y93528D01*
X511871Y93487D01*
X511878Y93460D01*
X511875Y93432D01*
X511895Y93393D01*
X511906Y93351D01*
X511927Y93333D01*
X511940Y93308D01*
X511999Y93262D01*
X513360Y92502D01*
X513371Y92500D01*
X513407Y92482D01*
X514894Y92013D01*
X514904Y92013D01*
X514943Y92003D01*
X516495Y91845D01*
X516505Y91847D01*
X516545Y91845D01*
X518097Y92003D01*
G37*
G36*
X519541Y1114363D02*
X519541Y1114363D01*
X519547Y1114362D01*
X519606Y1114387D01*
X519666Y1114408D01*
X519670Y1114413D01*
X519676Y1114416D01*
X519726Y1114470D01*
X521126Y1116540D01*
X521135Y1116567D01*
X521152Y1116589D01*
X521156Y1116632D01*
X521169Y1116673D01*
X521162Y1116700D01*
X521165Y1116728D01*
X521145Y1116767D01*
X521133Y1116809D01*
X521113Y1116827D01*
X521100Y1116852D01*
X521041Y1116898D01*
X519680Y1117658D01*
X519669Y1117660D01*
X519633Y1117678D01*
X518146Y1118147D01*
X518136Y1118147D01*
X518097Y1118157D01*
X516545Y1118315D01*
X516535Y1118313D01*
X516495Y1118315D01*
X514943Y1118157D01*
X514934Y1118153D01*
X514894Y1118147D01*
X513407Y1117678D01*
X513398Y1117672D01*
X513360Y1117658D01*
X511999Y1116898D01*
X511979Y1116878D01*
X511954Y1116866D01*
X511931Y1116829D01*
X511900Y1116798D01*
X511895Y1116771D01*
X511880Y1116747D01*
X511880Y1116704D01*
X511871Y1116661D01*
X511881Y1116635D01*
X511882Y1116607D01*
X511914Y1116540D01*
X513314Y1114470D01*
X513318Y1114466D01*
X513321Y1114460D01*
X513372Y1114422D01*
X513421Y1114381D01*
X513427Y1114380D01*
X513432Y1114377D01*
X513496Y1114372D01*
X513560Y1114364D01*
X513566Y1114367D01*
X513572Y1114366D01*
X513641Y1114392D01*
X514548Y1114898D01*
X515513Y1115202D01*
X516520Y1115305D01*
X517527Y1115202D01*
X518492Y1114898D01*
X519399Y1114392D01*
X519405Y1114391D01*
X519409Y1114387D01*
X519472Y1114375D01*
X519535Y1114361D01*
X519541Y1114363D01*
G37*
G36*
X23021Y914363D02*
X23021Y914363D01*
X23027Y914362D01*
X23086Y914387D01*
X23146Y914408D01*
X23150Y914413D01*
X23156Y914416D01*
X23206Y914470D01*
X24606Y916540D01*
X24615Y916567D01*
X24632Y916589D01*
X24636Y916632D01*
X24649Y916673D01*
X24642Y916700D01*
X24645Y916728D01*
X24625Y916767D01*
X24614Y916809D01*
X24593Y916827D01*
X24580Y916852D01*
X24521Y916898D01*
X23160Y917658D01*
X23149Y917660D01*
X23113Y917678D01*
X21626Y918147D01*
X21616Y918147D01*
X21577Y918157D01*
X20025Y918315D01*
X20015Y918313D01*
X19975Y918315D01*
X18423Y918157D01*
X18414Y918153D01*
X18374Y918147D01*
X16887Y917678D01*
X16878Y917672D01*
X16840Y917658D01*
X15479Y916898D01*
X15459Y916878D01*
X15434Y916866D01*
X15411Y916829D01*
X15380Y916798D01*
X15375Y916771D01*
X15360Y916747D01*
X15360Y916704D01*
X15351Y916661D01*
X15361Y916635D01*
X15362Y916607D01*
X15394Y916540D01*
X16794Y914470D01*
X16798Y914466D01*
X16801Y914460D01*
X16852Y914422D01*
X16901Y914381D01*
X16907Y914380D01*
X16912Y914377D01*
X16976Y914372D01*
X17040Y914364D01*
X17046Y914367D01*
X17052Y914366D01*
X17121Y914392D01*
X18028Y914898D01*
X18993Y915202D01*
X20000Y915305D01*
X21007Y915202D01*
X21972Y914898D01*
X22879Y914392D01*
X22885Y914391D01*
X22889Y914387D01*
X22952Y914375D01*
X23015Y914361D01*
X23021Y914363D01*
G37*
G36*
X1016061Y914363D02*
X1016061Y914363D01*
X1016067Y914362D01*
X1016126Y914387D01*
X1016186Y914408D01*
X1016190Y914413D01*
X1016196Y914416D01*
X1016246Y914470D01*
X1017646Y916540D01*
X1017655Y916567D01*
X1017672Y916589D01*
X1017676Y916632D01*
X1017689Y916673D01*
X1017682Y916700D01*
X1017685Y916728D01*
X1017665Y916767D01*
X1017653Y916809D01*
X1017633Y916827D01*
X1017620Y916852D01*
X1017561Y916898D01*
X1016200Y917658D01*
X1016189Y917660D01*
X1016153Y917678D01*
X1014666Y918147D01*
X1014656Y918147D01*
X1014617Y918157D01*
X1013065Y918315D01*
X1013055Y918313D01*
X1013015Y918315D01*
X1011463Y918157D01*
X1011453Y918153D01*
X1011414Y918147D01*
X1009927Y917678D01*
X1009918Y917672D01*
X1009880Y917658D01*
X1008518Y916898D01*
X1008499Y916878D01*
X1008474Y916866D01*
X1008451Y916829D01*
X1008420Y916798D01*
X1008415Y916771D01*
X1008400Y916747D01*
X1008400Y916704D01*
X1008391Y916661D01*
X1008401Y916635D01*
X1008401Y916607D01*
X1008433Y916540D01*
X1009833Y914470D01*
X1009838Y914466D01*
X1009841Y914460D01*
X1009892Y914422D01*
X1009941Y914381D01*
X1009947Y914380D01*
X1009952Y914377D01*
X1010016Y914372D01*
X1010080Y914364D01*
X1010086Y914367D01*
X1010092Y914366D01*
X1010161Y914392D01*
X1011068Y914898D01*
X1012033Y915202D01*
X1013040Y915305D01*
X1014047Y915202D01*
X1015012Y914898D01*
X1015918Y914392D01*
X1015925Y914391D01*
X1015929Y914387D01*
X1015992Y914375D01*
X1016055Y914361D01*
X1016061Y914363D01*
G37*
G36*
X519541Y914363D02*
X519541Y914363D01*
X519547Y914362D01*
X519606Y914387D01*
X519666Y914408D01*
X519670Y914413D01*
X519676Y914416D01*
X519726Y914470D01*
X521126Y916540D01*
X521135Y916567D01*
X521152Y916589D01*
X521156Y916632D01*
X521169Y916673D01*
X521162Y916700D01*
X521165Y916728D01*
X521145Y916767D01*
X521133Y916809D01*
X521113Y916827D01*
X521100Y916852D01*
X521041Y916898D01*
X519680Y917658D01*
X519669Y917660D01*
X519633Y917678D01*
X518146Y918147D01*
X518136Y918147D01*
X518097Y918157D01*
X516545Y918315D01*
X516535Y918313D01*
X516495Y918315D01*
X514943Y918157D01*
X514934Y918153D01*
X514894Y918147D01*
X513407Y917678D01*
X513398Y917672D01*
X513360Y917658D01*
X511999Y916898D01*
X511979Y916878D01*
X511954Y916866D01*
X511931Y916829D01*
X511900Y916798D01*
X511895Y916771D01*
X511880Y916747D01*
X511880Y916704D01*
X511871Y916661D01*
X511881Y916635D01*
X511882Y916607D01*
X511914Y916540D01*
X513314Y914470D01*
X513318Y914466D01*
X513321Y914460D01*
X513372Y914422D01*
X513421Y914381D01*
X513427Y914380D01*
X513432Y914377D01*
X513496Y914372D01*
X513560Y914364D01*
X513566Y914367D01*
X513572Y914366D01*
X513641Y914392D01*
X514548Y914898D01*
X515513Y915202D01*
X516520Y915305D01*
X517527Y915202D01*
X518492Y914898D01*
X519399Y914392D01*
X519405Y914391D01*
X519409Y914387D01*
X519472Y914375D01*
X519535Y914361D01*
X519541Y914363D01*
G37*
G36*
X13525Y905521D02*
X13525Y905521D01*
X13553Y905521D01*
X13620Y905553D01*
X15690Y906953D01*
X15694Y906958D01*
X15700Y906961D01*
X15738Y907012D01*
X15779Y907061D01*
X15780Y907067D01*
X15783Y907072D01*
X15788Y907136D01*
X15796Y907200D01*
X15793Y907206D01*
X15794Y907212D01*
X15768Y907281D01*
X15262Y908188D01*
X14958Y909153D01*
X14855Y910160D01*
X14958Y911167D01*
X15262Y912132D01*
X15768Y913038D01*
X15769Y913045D01*
X15773Y913049D01*
X15785Y913112D01*
X15799Y913175D01*
X15797Y913181D01*
X15798Y913187D01*
X15773Y913246D01*
X15752Y913306D01*
X15747Y913310D01*
X15744Y913316D01*
X15690Y913366D01*
X13620Y914766D01*
X13593Y914775D01*
X13571Y914792D01*
X13528Y914796D01*
X13487Y914809D01*
X13460Y914802D01*
X13432Y914805D01*
X13393Y914785D01*
X13351Y914773D01*
X13333Y914753D01*
X13308Y914740D01*
X13262Y914681D01*
X12502Y913320D01*
X12500Y913309D01*
X12482Y913273D01*
X12013Y911786D01*
X12013Y911776D01*
X12003Y911737D01*
X11845Y910185D01*
X11847Y910175D01*
X11845Y910135D01*
X12003Y908583D01*
X12007Y908573D01*
X12013Y908534D01*
X12482Y907047D01*
X12488Y907038D01*
X12502Y907000D01*
X13262Y905638D01*
X13282Y905619D01*
X13294Y905594D01*
X13331Y905571D01*
X13362Y905540D01*
X13389Y905535D01*
X13413Y905520D01*
X13456Y905520D01*
X13499Y905511D01*
X13525Y905521D01*
G37*
G36*
X510045Y905521D02*
X510045Y905521D01*
X510073Y905521D01*
X510140Y905553D01*
X512210Y906953D01*
X512214Y906958D01*
X512220Y906961D01*
X512258Y907012D01*
X512299Y907061D01*
X512300Y907067D01*
X512303Y907072D01*
X512308Y907136D01*
X512316Y907200D01*
X512313Y907206D01*
X512314Y907212D01*
X512288Y907281D01*
X511782Y908188D01*
X511478Y909153D01*
X511375Y910160D01*
X511478Y911167D01*
X511782Y912132D01*
X512288Y913038D01*
X512289Y913045D01*
X512293Y913049D01*
X512305Y913112D01*
X512319Y913175D01*
X512317Y913181D01*
X512318Y913187D01*
X512293Y913246D01*
X512272Y913306D01*
X512267Y913310D01*
X512264Y913316D01*
X512210Y913366D01*
X510140Y914766D01*
X510113Y914775D01*
X510091Y914792D01*
X510048Y914796D01*
X510007Y914809D01*
X509980Y914802D01*
X509952Y914805D01*
X509913Y914785D01*
X509871Y914773D01*
X509853Y914753D01*
X509828Y914740D01*
X509782Y914681D01*
X509022Y913320D01*
X509020Y913309D01*
X509002Y913273D01*
X508533Y911786D01*
X508533Y911776D01*
X508523Y911737D01*
X508365Y910185D01*
X508367Y910175D01*
X508365Y910135D01*
X508523Y908583D01*
X508527Y908573D01*
X508533Y908534D01*
X509002Y907047D01*
X509008Y907038D01*
X509022Y907000D01*
X509782Y905638D01*
X509802Y905619D01*
X509814Y905594D01*
X509851Y905571D01*
X509882Y905540D01*
X509909Y905535D01*
X509933Y905520D01*
X509976Y905520D01*
X510019Y905511D01*
X510045Y905521D01*
G37*
G36*
X1006565Y905521D02*
X1006565Y905521D01*
X1006592Y905521D01*
X1006660Y905553D01*
X1008730Y906953D01*
X1008734Y906958D01*
X1008740Y906961D01*
X1008778Y907012D01*
X1008819Y907061D01*
X1008820Y907067D01*
X1008823Y907072D01*
X1008828Y907136D01*
X1008836Y907200D01*
X1008833Y907206D01*
X1008834Y907212D01*
X1008808Y907281D01*
X1008302Y908188D01*
X1007997Y909153D01*
X1007895Y910160D01*
X1007997Y911167D01*
X1008302Y912132D01*
X1008808Y913038D01*
X1008809Y913045D01*
X1008813Y913049D01*
X1008825Y913112D01*
X1008839Y913175D01*
X1008837Y913181D01*
X1008838Y913187D01*
X1008813Y913246D01*
X1008792Y913306D01*
X1008787Y913310D01*
X1008784Y913316D01*
X1008730Y913366D01*
X1006660Y914766D01*
X1006633Y914775D01*
X1006611Y914792D01*
X1006568Y914796D01*
X1006526Y914809D01*
X1006500Y914802D01*
X1006472Y914805D01*
X1006433Y914785D01*
X1006391Y914773D01*
X1006372Y914753D01*
X1006348Y914740D01*
X1006302Y914681D01*
X1005542Y913320D01*
X1005540Y913309D01*
X1005522Y913273D01*
X1005053Y911786D01*
X1005053Y911776D01*
X1005043Y911737D01*
X1004885Y910185D01*
X1004887Y910175D01*
X1004885Y910135D01*
X1005043Y908583D01*
X1005047Y908573D01*
X1005053Y908534D01*
X1005522Y907047D01*
X1005528Y907038D01*
X1005542Y907000D01*
X1006302Y905638D01*
X1006322Y905619D01*
X1006334Y905594D01*
X1006371Y905571D01*
X1006402Y905540D01*
X1006429Y905535D01*
X1006453Y905520D01*
X1006496Y905520D01*
X1006539Y905511D01*
X1006565Y905521D01*
G37*
G36*
X26540Y905518D02*
X26540Y905518D01*
X26568Y905515D01*
X26607Y905535D01*
X26649Y905546D01*
X26667Y905567D01*
X26692Y905580D01*
X26738Y905638D01*
X27498Y907000D01*
X27500Y907010D01*
X27518Y907047D01*
X27987Y908534D01*
X27987Y908544D01*
X27997Y908583D01*
X28155Y910135D01*
X28153Y910145D01*
X28155Y910185D01*
X27997Y911737D01*
X27993Y911746D01*
X27987Y911786D01*
X27518Y913273D01*
X27512Y913282D01*
X27498Y913320D01*
X26738Y914681D01*
X26718Y914701D01*
X26706Y914726D01*
X26669Y914749D01*
X26638Y914779D01*
X26611Y914785D01*
X26587Y914800D01*
X26544Y914799D01*
X26501Y914808D01*
X26475Y914799D01*
X26447Y914798D01*
X26380Y914766D01*
X24310Y913366D01*
X24306Y913362D01*
X24300Y913359D01*
X24262Y913308D01*
X24221Y913259D01*
X24220Y913253D01*
X24217Y913247D01*
X24212Y913184D01*
X24204Y913120D01*
X24207Y913114D01*
X24206Y913108D01*
X24232Y913038D01*
X24738Y912132D01*
X25042Y911167D01*
X25145Y910160D01*
X25042Y909153D01*
X24738Y908188D01*
X24232Y907281D01*
X24231Y907275D01*
X24227Y907271D01*
X24215Y907208D01*
X24201Y907145D01*
X24203Y907139D01*
X24202Y907133D01*
X24227Y907074D01*
X24248Y907014D01*
X24253Y907010D01*
X24256Y907004D01*
X24310Y906953D01*
X26380Y905553D01*
X26407Y905545D01*
X26429Y905528D01*
X26472Y905524D01*
X26513Y905511D01*
X26540Y905518D01*
G37*
G36*
X523060Y905518D02*
X523060Y905518D01*
X523088Y905515D01*
X523127Y905535D01*
X523169Y905546D01*
X523187Y905567D01*
X523212Y905580D01*
X523258Y905638D01*
X524018Y907000D01*
X524020Y907010D01*
X524038Y907047D01*
X524507Y908534D01*
X524507Y908544D01*
X524517Y908583D01*
X524675Y910135D01*
X524673Y910145D01*
X524675Y910185D01*
X524517Y911737D01*
X524513Y911746D01*
X524507Y911786D01*
X524038Y913273D01*
X524032Y913282D01*
X524018Y913320D01*
X523258Y914681D01*
X523238Y914701D01*
X523226Y914726D01*
X523189Y914749D01*
X523158Y914779D01*
X523131Y914785D01*
X523107Y914800D01*
X523064Y914799D01*
X523021Y914808D01*
X522995Y914799D01*
X522967Y914798D01*
X522900Y914766D01*
X520830Y913366D01*
X520826Y913362D01*
X520820Y913359D01*
X520782Y913308D01*
X520741Y913259D01*
X520740Y913253D01*
X520737Y913247D01*
X520732Y913184D01*
X520724Y913120D01*
X520727Y913114D01*
X520726Y913108D01*
X520752Y913038D01*
X521258Y912132D01*
X521562Y911167D01*
X521665Y910160D01*
X521562Y909153D01*
X521258Y908188D01*
X520752Y907281D01*
X520751Y907275D01*
X520747Y907271D01*
X520735Y907208D01*
X520721Y907145D01*
X520723Y907139D01*
X520722Y907133D01*
X520747Y907074D01*
X520768Y907014D01*
X520773Y907010D01*
X520776Y907004D01*
X520830Y906953D01*
X522900Y905553D01*
X522927Y905545D01*
X522949Y905528D01*
X522992Y905524D01*
X523033Y905511D01*
X523060Y905518D01*
G37*
G36*
X1019580Y905518D02*
X1019580Y905518D01*
X1019608Y905515D01*
X1019647Y905535D01*
X1019689Y905546D01*
X1019707Y905567D01*
X1019732Y905580D01*
X1019778Y905638D01*
X1020538Y907000D01*
X1020540Y907010D01*
X1020558Y907047D01*
X1021027Y908534D01*
X1021027Y908544D01*
X1021037Y908583D01*
X1021195Y910135D01*
X1021193Y910145D01*
X1021195Y910185D01*
X1021037Y911737D01*
X1021033Y911746D01*
X1021027Y911786D01*
X1020558Y913273D01*
X1020552Y913282D01*
X1020538Y913320D01*
X1019778Y914681D01*
X1019758Y914701D01*
X1019746Y914726D01*
X1019709Y914749D01*
X1019678Y914779D01*
X1019651Y914785D01*
X1019627Y914800D01*
X1019584Y914799D01*
X1019541Y914808D01*
X1019515Y914799D01*
X1019487Y914798D01*
X1019420Y914766D01*
X1017350Y913366D01*
X1017346Y913362D01*
X1017340Y913359D01*
X1017302Y913308D01*
X1017261Y913259D01*
X1017260Y913253D01*
X1017257Y913247D01*
X1017252Y913184D01*
X1017244Y913120D01*
X1017247Y913114D01*
X1017246Y913108D01*
X1017272Y913038D01*
X1017778Y912132D01*
X1018082Y911167D01*
X1018185Y910160D01*
X1018082Y909153D01*
X1017778Y908188D01*
X1017272Y907281D01*
X1017271Y907275D01*
X1017267Y907271D01*
X1017255Y907208D01*
X1017241Y907145D01*
X1017243Y907139D01*
X1017242Y907133D01*
X1017267Y907074D01*
X1017288Y907014D01*
X1017293Y907010D01*
X1017296Y907004D01*
X1017350Y906953D01*
X1019420Y905553D01*
X1019447Y905545D01*
X1019469Y905528D01*
X1019512Y905524D01*
X1019553Y905511D01*
X1019580Y905518D01*
G37*
G36*
X23021Y709283D02*
X23021Y709283D01*
X23027Y709282D01*
X23086Y709307D01*
X23146Y709328D01*
X23150Y709333D01*
X23156Y709336D01*
X23206Y709390D01*
X24606Y711460D01*
X24615Y711487D01*
X24632Y711509D01*
X24636Y711552D01*
X24649Y711593D01*
X24642Y711620D01*
X24645Y711648D01*
X24625Y711687D01*
X24614Y711729D01*
X24593Y711747D01*
X24580Y711772D01*
X24521Y711818D01*
X23160Y712578D01*
X23149Y712580D01*
X23113Y712598D01*
X21626Y713067D01*
X21616Y713067D01*
X21577Y713077D01*
X20025Y713235D01*
X20015Y713233D01*
X19975Y713235D01*
X18423Y713077D01*
X18414Y713073D01*
X18374Y713067D01*
X16887Y712598D01*
X16878Y712592D01*
X16840Y712578D01*
X15479Y711818D01*
X15459Y711798D01*
X15434Y711786D01*
X15411Y711749D01*
X15380Y711718D01*
X15375Y711691D01*
X15360Y711667D01*
X15360Y711624D01*
X15351Y711581D01*
X15361Y711555D01*
X15362Y711527D01*
X15394Y711460D01*
X16794Y709390D01*
X16798Y709386D01*
X16801Y709380D01*
X16852Y709342D01*
X16901Y709301D01*
X16907Y709300D01*
X16912Y709297D01*
X16976Y709292D01*
X17040Y709284D01*
X17046Y709287D01*
X17052Y709286D01*
X17121Y709312D01*
X18028Y709818D01*
X18993Y710122D01*
X20000Y710225D01*
X21007Y710122D01*
X21972Y709818D01*
X22879Y709312D01*
X22885Y709311D01*
X22889Y709307D01*
X22952Y709295D01*
X23015Y709281D01*
X23021Y709283D01*
G37*
G36*
X519541Y709283D02*
X519541Y709283D01*
X519547Y709282D01*
X519606Y709307D01*
X519666Y709328D01*
X519670Y709333D01*
X519676Y709336D01*
X519726Y709390D01*
X521126Y711460D01*
X521135Y711487D01*
X521152Y711509D01*
X521156Y711552D01*
X521169Y711593D01*
X521162Y711620D01*
X521165Y711648D01*
X521145Y711687D01*
X521133Y711729D01*
X521113Y711747D01*
X521100Y711772D01*
X521041Y711818D01*
X519680Y712578D01*
X519669Y712580D01*
X519633Y712598D01*
X518146Y713067D01*
X518136Y713067D01*
X518097Y713077D01*
X516545Y713235D01*
X516535Y713233D01*
X516495Y713235D01*
X514943Y713077D01*
X514934Y713073D01*
X514894Y713067D01*
X513407Y712598D01*
X513398Y712592D01*
X513360Y712578D01*
X511999Y711818D01*
X511979Y711798D01*
X511954Y711786D01*
X511931Y711749D01*
X511900Y711718D01*
X511895Y711691D01*
X511880Y711667D01*
X511880Y711624D01*
X511871Y711581D01*
X511881Y711555D01*
X511882Y711527D01*
X511914Y711460D01*
X513314Y709390D01*
X513318Y709386D01*
X513321Y709380D01*
X513372Y709342D01*
X513421Y709301D01*
X513427Y709300D01*
X513432Y709297D01*
X513496Y709292D01*
X513560Y709284D01*
X513566Y709287D01*
X513572Y709286D01*
X513641Y709312D01*
X514548Y709818D01*
X515513Y710122D01*
X516520Y710225D01*
X517527Y710122D01*
X518492Y709818D01*
X519399Y709312D01*
X519405Y709311D01*
X519409Y709307D01*
X519472Y709295D01*
X519535Y709281D01*
X519541Y709283D01*
G37*
G36*
X1016061Y709283D02*
X1016061Y709283D01*
X1016067Y709282D01*
X1016126Y709307D01*
X1016186Y709328D01*
X1016190Y709333D01*
X1016196Y709336D01*
X1016246Y709390D01*
X1017646Y711460D01*
X1017655Y711487D01*
X1017672Y711509D01*
X1017676Y711552D01*
X1017689Y711593D01*
X1017682Y711620D01*
X1017685Y711648D01*
X1017665Y711687D01*
X1017653Y711729D01*
X1017633Y711747D01*
X1017620Y711772D01*
X1017561Y711818D01*
X1016200Y712578D01*
X1016189Y712580D01*
X1016153Y712598D01*
X1014666Y713067D01*
X1014656Y713067D01*
X1014617Y713077D01*
X1013065Y713235D01*
X1013055Y713233D01*
X1013015Y713235D01*
X1011463Y713077D01*
X1011453Y713073D01*
X1011414Y713067D01*
X1009927Y712598D01*
X1009918Y712592D01*
X1009880Y712578D01*
X1008518Y711818D01*
X1008499Y711798D01*
X1008474Y711786D01*
X1008451Y711749D01*
X1008420Y711718D01*
X1008415Y711691D01*
X1008400Y711667D01*
X1008400Y711624D01*
X1008391Y711581D01*
X1008401Y711555D01*
X1008401Y711527D01*
X1008433Y711460D01*
X1009833Y709390D01*
X1009838Y709386D01*
X1009841Y709380D01*
X1009892Y709342D01*
X1009941Y709301D01*
X1009947Y709300D01*
X1009952Y709297D01*
X1010016Y709292D01*
X1010080Y709284D01*
X1010086Y709287D01*
X1010092Y709286D01*
X1010161Y709312D01*
X1011068Y709818D01*
X1012033Y710122D01*
X1013040Y710225D01*
X1014047Y710122D01*
X1015012Y709818D01*
X1015918Y709312D01*
X1015925Y709311D01*
X1015929Y709307D01*
X1015992Y709295D01*
X1016055Y709281D01*
X1016061Y709283D01*
G37*
G36*
X1006565Y700441D02*
X1006565Y700441D01*
X1006592Y700442D01*
X1006660Y700474D01*
X1008730Y701874D01*
X1008734Y701878D01*
X1008740Y701881D01*
X1008778Y701932D01*
X1008819Y701981D01*
X1008820Y701987D01*
X1008823Y701992D01*
X1008828Y702056D01*
X1008836Y702120D01*
X1008833Y702126D01*
X1008834Y702132D01*
X1008808Y702201D01*
X1008302Y703108D01*
X1007997Y704073D01*
X1007895Y705080D01*
X1007997Y706087D01*
X1008302Y707052D01*
X1008808Y707959D01*
X1008809Y707965D01*
X1008813Y707969D01*
X1008825Y708032D01*
X1008839Y708095D01*
X1008837Y708101D01*
X1008838Y708107D01*
X1008813Y708166D01*
X1008792Y708226D01*
X1008787Y708230D01*
X1008784Y708236D01*
X1008730Y708286D01*
X1006660Y709686D01*
X1006633Y709695D01*
X1006611Y709712D01*
X1006568Y709716D01*
X1006526Y709729D01*
X1006500Y709722D01*
X1006472Y709725D01*
X1006433Y709705D01*
X1006391Y709693D01*
X1006372Y709673D01*
X1006348Y709660D01*
X1006302Y709601D01*
X1005542Y708240D01*
X1005540Y708229D01*
X1005522Y708193D01*
X1005053Y706706D01*
X1005053Y706696D01*
X1005043Y706657D01*
X1004885Y705105D01*
X1004887Y705095D01*
X1004885Y705055D01*
X1005043Y703503D01*
X1005047Y703494D01*
X1005053Y703454D01*
X1005522Y701967D01*
X1005528Y701958D01*
X1005542Y701920D01*
X1006302Y700559D01*
X1006322Y700539D01*
X1006334Y700514D01*
X1006371Y700491D01*
X1006402Y700460D01*
X1006429Y700455D01*
X1006453Y700440D01*
X1006496Y700440D01*
X1006539Y700431D01*
X1006565Y700441D01*
G37*
G36*
X13525Y700441D02*
X13525Y700441D01*
X13553Y700442D01*
X13620Y700474D01*
X15690Y701874D01*
X15694Y701878D01*
X15700Y701881D01*
X15738Y701932D01*
X15779Y701981D01*
X15780Y701987D01*
X15783Y701992D01*
X15788Y702056D01*
X15796Y702120D01*
X15793Y702126D01*
X15794Y702132D01*
X15768Y702201D01*
X15262Y703108D01*
X14958Y704073D01*
X14855Y705080D01*
X14958Y706087D01*
X15262Y707052D01*
X15768Y707959D01*
X15769Y707965D01*
X15773Y707969D01*
X15785Y708032D01*
X15799Y708095D01*
X15797Y708101D01*
X15798Y708107D01*
X15773Y708166D01*
X15752Y708226D01*
X15747Y708230D01*
X15744Y708236D01*
X15690Y708286D01*
X13620Y709686D01*
X13593Y709695D01*
X13571Y709712D01*
X13528Y709716D01*
X13487Y709729D01*
X13460Y709722D01*
X13432Y709725D01*
X13393Y709705D01*
X13351Y709693D01*
X13333Y709673D01*
X13308Y709660D01*
X13262Y709601D01*
X12502Y708240D01*
X12500Y708229D01*
X12482Y708193D01*
X12013Y706706D01*
X12013Y706696D01*
X12003Y706657D01*
X11845Y705105D01*
X11847Y705095D01*
X11845Y705055D01*
X12003Y703503D01*
X12007Y703494D01*
X12013Y703454D01*
X12482Y701967D01*
X12488Y701958D01*
X12502Y701920D01*
X13262Y700559D01*
X13282Y700539D01*
X13294Y700514D01*
X13331Y700491D01*
X13362Y700460D01*
X13389Y700455D01*
X13413Y700440D01*
X13456Y700440D01*
X13499Y700431D01*
X13525Y700441D01*
G37*
G36*
X26540Y700438D02*
X26540Y700438D01*
X26568Y700435D01*
X26607Y700455D01*
X26649Y700466D01*
X26667Y700487D01*
X26692Y700500D01*
X26738Y700559D01*
X27498Y701920D01*
X27500Y701931D01*
X27518Y701967D01*
X27987Y703454D01*
X27987Y703464D01*
X27997Y703503D01*
X28155Y705055D01*
X28153Y705065D01*
X28155Y705105D01*
X27997Y706657D01*
X27993Y706666D01*
X27987Y706706D01*
X27518Y708193D01*
X27512Y708202D01*
X27498Y708240D01*
X26738Y709601D01*
X26718Y709621D01*
X26706Y709646D01*
X26669Y709669D01*
X26638Y709700D01*
X26611Y709705D01*
X26587Y709720D01*
X26544Y709720D01*
X26501Y709729D01*
X26475Y709719D01*
X26447Y709718D01*
X26380Y709686D01*
X24310Y708286D01*
X24306Y708282D01*
X24300Y708279D01*
X24262Y708228D01*
X24221Y708179D01*
X24220Y708173D01*
X24217Y708168D01*
X24212Y708104D01*
X24204Y708040D01*
X24207Y708034D01*
X24206Y708028D01*
X24232Y707959D01*
X24738Y707052D01*
X25042Y706087D01*
X25145Y705080D01*
X25042Y704073D01*
X24738Y703108D01*
X24232Y702201D01*
X24231Y702195D01*
X24227Y702191D01*
X24215Y702128D01*
X24201Y702065D01*
X24203Y702059D01*
X24202Y702053D01*
X24227Y701994D01*
X24248Y701934D01*
X24253Y701930D01*
X24256Y701924D01*
X24310Y701874D01*
X26380Y700474D01*
X26407Y700465D01*
X26429Y700448D01*
X26472Y700444D01*
X26513Y700431D01*
X26540Y700438D01*
G37*
G36*
X1019580Y700438D02*
X1019580Y700438D01*
X1019608Y700435D01*
X1019647Y700455D01*
X1019689Y700466D01*
X1019707Y700487D01*
X1019732Y700500D01*
X1019778Y700559D01*
X1020538Y701920D01*
X1020540Y701931D01*
X1020558Y701967D01*
X1021027Y703454D01*
X1021027Y703464D01*
X1021037Y703503D01*
X1021195Y705055D01*
X1021193Y705065D01*
X1021195Y705105D01*
X1021037Y706657D01*
X1021033Y706666D01*
X1021027Y706706D01*
X1020558Y708193D01*
X1020552Y708202D01*
X1020538Y708240D01*
X1019778Y709601D01*
X1019758Y709621D01*
X1019746Y709646D01*
X1019709Y709669D01*
X1019678Y709700D01*
X1019651Y709705D01*
X1019627Y709720D01*
X1019584Y709720D01*
X1019541Y709729D01*
X1019515Y709719D01*
X1019487Y709718D01*
X1019420Y709686D01*
X1017350Y708286D01*
X1017346Y708282D01*
X1017340Y708279D01*
X1017302Y708228D01*
X1017261Y708179D01*
X1017260Y708173D01*
X1017257Y708168D01*
X1017252Y708104D01*
X1017244Y708040D01*
X1017247Y708034D01*
X1017246Y708028D01*
X1017272Y707959D01*
X1017778Y707052D01*
X1018082Y706087D01*
X1018185Y705080D01*
X1018082Y704073D01*
X1017778Y703108D01*
X1017272Y702201D01*
X1017271Y702195D01*
X1017267Y702191D01*
X1017255Y702128D01*
X1017241Y702065D01*
X1017243Y702059D01*
X1017242Y702053D01*
X1017267Y701994D01*
X1017288Y701934D01*
X1017293Y701930D01*
X1017296Y701924D01*
X1017350Y701874D01*
X1019420Y700474D01*
X1019447Y700465D01*
X1019469Y700448D01*
X1019512Y700444D01*
X1019553Y700431D01*
X1019580Y700438D01*
G37*
G36*
X523060Y700438D02*
X523060Y700438D01*
X523088Y700435D01*
X523127Y700455D01*
X523169Y700466D01*
X523187Y700487D01*
X523212Y700500D01*
X523258Y700559D01*
X524018Y701920D01*
X524020Y701931D01*
X524038Y701967D01*
X524507Y703454D01*
X524507Y703464D01*
X524517Y703503D01*
X524675Y705055D01*
X524673Y705065D01*
X524675Y705105D01*
X524517Y706657D01*
X524513Y706666D01*
X524507Y706706D01*
X524038Y708193D01*
X524032Y708202D01*
X524018Y708240D01*
X523258Y709601D01*
X523238Y709621D01*
X523226Y709646D01*
X523189Y709669D01*
X523158Y709700D01*
X523131Y709705D01*
X523107Y709720D01*
X523064Y709720D01*
X523021Y709729D01*
X522995Y709719D01*
X522967Y709718D01*
X522900Y709686D01*
X520830Y708286D01*
X520826Y708282D01*
X520820Y708279D01*
X520782Y708228D01*
X520741Y708179D01*
X520740Y708173D01*
X520737Y708168D01*
X520732Y708104D01*
X520724Y708040D01*
X520727Y708034D01*
X520726Y708028D01*
X520752Y707959D01*
X521258Y707052D01*
X521562Y706087D01*
X521665Y705080D01*
X521562Y704073D01*
X521258Y703108D01*
X520752Y702201D01*
X520751Y702195D01*
X520747Y702191D01*
X520735Y702128D01*
X520721Y702065D01*
X520723Y702059D01*
X520722Y702053D01*
X520747Y701994D01*
X520768Y701934D01*
X520773Y701930D01*
X520776Y701924D01*
X520830Y701874D01*
X522900Y700474D01*
X522927Y700465D01*
X522949Y700448D01*
X522992Y700444D01*
X523033Y700431D01*
X523060Y700438D01*
G37*
G36*
X510045Y700441D02*
X510045Y700441D01*
X510073Y700442D01*
X510140Y700474D01*
X512210Y701874D01*
X512214Y701878D01*
X512220Y701881D01*
X512258Y701932D01*
X512299Y701981D01*
X512300Y701987D01*
X512303Y701992D01*
X512308Y702056D01*
X512316Y702120D01*
X512313Y702126D01*
X512314Y702132D01*
X512288Y702201D01*
X511782Y703108D01*
X511478Y704073D01*
X511375Y705080D01*
X511478Y706087D01*
X511782Y707052D01*
X512288Y707959D01*
X512289Y707965D01*
X512293Y707969D01*
X512305Y708032D01*
X512319Y708095D01*
X512317Y708101D01*
X512318Y708107D01*
X512293Y708166D01*
X512272Y708226D01*
X512267Y708230D01*
X512264Y708236D01*
X512210Y708286D01*
X510140Y709686D01*
X510113Y709695D01*
X510091Y709712D01*
X510048Y709716D01*
X510007Y709729D01*
X509980Y709722D01*
X509952Y709725D01*
X509913Y709705D01*
X509871Y709693D01*
X509853Y709673D01*
X509828Y709660D01*
X509782Y709601D01*
X509022Y708240D01*
X509020Y708229D01*
X509002Y708193D01*
X508533Y706706D01*
X508533Y706696D01*
X508523Y706657D01*
X508365Y705105D01*
X508367Y705095D01*
X508365Y705055D01*
X508523Y703503D01*
X508527Y703494D01*
X508533Y703454D01*
X509002Y701967D01*
X509008Y701958D01*
X509022Y701920D01*
X509782Y700559D01*
X509802Y700539D01*
X509814Y700514D01*
X509851Y700491D01*
X509882Y700460D01*
X509909Y700455D01*
X509933Y700440D01*
X509976Y700440D01*
X510019Y700431D01*
X510045Y700441D01*
G37*
G36*
X1016061Y509283D02*
X1016061Y509283D01*
X1016067Y509282D01*
X1016126Y509307D01*
X1016186Y509328D01*
X1016190Y509333D01*
X1016196Y509336D01*
X1016246Y509390D01*
X1017646Y511460D01*
X1017655Y511487D01*
X1017672Y511509D01*
X1017676Y511552D01*
X1017689Y511593D01*
X1017682Y511620D01*
X1017685Y511648D01*
X1017665Y511687D01*
X1017653Y511729D01*
X1017633Y511747D01*
X1017620Y511772D01*
X1017561Y511818D01*
X1016200Y512578D01*
X1016189Y512580D01*
X1016153Y512598D01*
X1014666Y513067D01*
X1014656Y513067D01*
X1014617Y513077D01*
X1013065Y513235D01*
X1013055Y513233D01*
X1013015Y513235D01*
X1011463Y513077D01*
X1011453Y513073D01*
X1011414Y513067D01*
X1009927Y512598D01*
X1009918Y512592D01*
X1009880Y512578D01*
X1008518Y511818D01*
X1008499Y511798D01*
X1008474Y511786D01*
X1008451Y511749D01*
X1008420Y511718D01*
X1008415Y511691D01*
X1008400Y511667D01*
X1008400Y511624D01*
X1008391Y511581D01*
X1008401Y511555D01*
X1008401Y511527D01*
X1008433Y511460D01*
X1009833Y509390D01*
X1009838Y509386D01*
X1009841Y509380D01*
X1009892Y509342D01*
X1009941Y509301D01*
X1009947Y509300D01*
X1009952Y509297D01*
X1010016Y509292D01*
X1010080Y509284D01*
X1010086Y509287D01*
X1010092Y509286D01*
X1010161Y509312D01*
X1011068Y509818D01*
X1012033Y510122D01*
X1013040Y510225D01*
X1014047Y510122D01*
X1015012Y509818D01*
X1015918Y509312D01*
X1015925Y509311D01*
X1015929Y509307D01*
X1015992Y509295D01*
X1016055Y509281D01*
X1016061Y509283D01*
G37*
G36*
X23021Y509283D02*
X23021Y509283D01*
X23027Y509282D01*
X23086Y509307D01*
X23146Y509328D01*
X23150Y509333D01*
X23156Y509336D01*
X23206Y509390D01*
X24606Y511460D01*
X24615Y511487D01*
X24632Y511509D01*
X24636Y511552D01*
X24649Y511593D01*
X24642Y511620D01*
X24645Y511648D01*
X24625Y511687D01*
X24614Y511729D01*
X24593Y511747D01*
X24580Y511772D01*
X24521Y511818D01*
X23160Y512578D01*
X23149Y512580D01*
X23113Y512598D01*
X21626Y513067D01*
X21616Y513067D01*
X21577Y513077D01*
X20025Y513235D01*
X20015Y513233D01*
X19975Y513235D01*
X18423Y513077D01*
X18414Y513073D01*
X18374Y513067D01*
X16887Y512598D01*
X16878Y512592D01*
X16840Y512578D01*
X15479Y511818D01*
X15459Y511798D01*
X15434Y511786D01*
X15411Y511749D01*
X15380Y511718D01*
X15375Y511691D01*
X15360Y511667D01*
X15360Y511624D01*
X15351Y511581D01*
X15361Y511555D01*
X15362Y511527D01*
X15394Y511460D01*
X16794Y509390D01*
X16798Y509386D01*
X16801Y509380D01*
X16852Y509342D01*
X16901Y509301D01*
X16907Y509300D01*
X16912Y509297D01*
X16976Y509292D01*
X17040Y509284D01*
X17046Y509287D01*
X17052Y509286D01*
X17121Y509312D01*
X18028Y509818D01*
X18993Y510122D01*
X20000Y510225D01*
X21007Y510122D01*
X21972Y509818D01*
X22879Y509312D01*
X22885Y509311D01*
X22889Y509307D01*
X22952Y509295D01*
X23015Y509281D01*
X23021Y509283D01*
G37*
G36*
X1006565Y500441D02*
X1006565Y500441D01*
X1006592Y500442D01*
X1006660Y500474D01*
X1008730Y501874D01*
X1008734Y501878D01*
X1008740Y501881D01*
X1008778Y501932D01*
X1008819Y501981D01*
X1008820Y501987D01*
X1008823Y501992D01*
X1008828Y502056D01*
X1008836Y502120D01*
X1008833Y502126D01*
X1008834Y502132D01*
X1008808Y502201D01*
X1008302Y503108D01*
X1007997Y504073D01*
X1007895Y505080D01*
X1007997Y506087D01*
X1008302Y507052D01*
X1008808Y507959D01*
X1008809Y507965D01*
X1008813Y507969D01*
X1008825Y508032D01*
X1008839Y508095D01*
X1008837Y508101D01*
X1008838Y508107D01*
X1008813Y508166D01*
X1008792Y508226D01*
X1008787Y508230D01*
X1008784Y508236D01*
X1008730Y508286D01*
X1006660Y509686D01*
X1006633Y509695D01*
X1006611Y509712D01*
X1006568Y509716D01*
X1006526Y509729D01*
X1006500Y509722D01*
X1006472Y509725D01*
X1006433Y509705D01*
X1006391Y509693D01*
X1006372Y509673D01*
X1006348Y509660D01*
X1006302Y509601D01*
X1005542Y508240D01*
X1005540Y508229D01*
X1005522Y508193D01*
X1005053Y506706D01*
X1005053Y506696D01*
X1005043Y506657D01*
X1004885Y505105D01*
X1004887Y505095D01*
X1004885Y505055D01*
X1005043Y503503D01*
X1005047Y503494D01*
X1005053Y503454D01*
X1005522Y501967D01*
X1005528Y501958D01*
X1005542Y501920D01*
X1006302Y500559D01*
X1006322Y500539D01*
X1006334Y500514D01*
X1006371Y500491D01*
X1006402Y500460D01*
X1006429Y500455D01*
X1006453Y500440D01*
X1006496Y500440D01*
X1006539Y500431D01*
X1006565Y500441D01*
G37*
G36*
X510045Y500441D02*
X510045Y500441D01*
X510073Y500442D01*
X510140Y500474D01*
X512210Y501874D01*
X512214Y501878D01*
X512220Y501881D01*
X512258Y501932D01*
X512299Y501981D01*
X512300Y501987D01*
X512303Y501992D01*
X512308Y502056D01*
X512316Y502120D01*
X512313Y502126D01*
X512314Y502132D01*
X512288Y502201D01*
X511782Y503108D01*
X511478Y504073D01*
X511375Y505080D01*
X511478Y506087D01*
X511782Y507052D01*
X512288Y507959D01*
X512289Y507965D01*
X512293Y507969D01*
X512305Y508032D01*
X512319Y508095D01*
X512317Y508101D01*
X512318Y508107D01*
X512293Y508166D01*
X512272Y508226D01*
X512267Y508230D01*
X512264Y508236D01*
X512210Y508286D01*
X510140Y509686D01*
X510113Y509695D01*
X510091Y509712D01*
X510048Y509716D01*
X510007Y509729D01*
X509980Y509722D01*
X509952Y509725D01*
X509913Y509705D01*
X509871Y509693D01*
X509853Y509673D01*
X509828Y509660D01*
X509782Y509601D01*
X509022Y508240D01*
X509020Y508229D01*
X509002Y508193D01*
X508533Y506706D01*
X508533Y506696D01*
X508523Y506657D01*
X508365Y505105D01*
X508367Y505095D01*
X508365Y505055D01*
X508523Y503503D01*
X508527Y503494D01*
X508533Y503454D01*
X509002Y501967D01*
X509008Y501958D01*
X509022Y501920D01*
X509782Y500559D01*
X509802Y500539D01*
X509814Y500514D01*
X509851Y500491D01*
X509882Y500460D01*
X509909Y500455D01*
X509933Y500440D01*
X509976Y500440D01*
X510019Y500431D01*
X510045Y500441D01*
G37*
G36*
X13525Y500441D02*
X13525Y500441D01*
X13553Y500442D01*
X13620Y500474D01*
X15690Y501874D01*
X15694Y501878D01*
X15700Y501881D01*
X15738Y501932D01*
X15779Y501981D01*
X15780Y501987D01*
X15783Y501992D01*
X15788Y502056D01*
X15796Y502120D01*
X15793Y502126D01*
X15794Y502132D01*
X15768Y502201D01*
X15262Y503108D01*
X14958Y504073D01*
X14855Y505080D01*
X14958Y506087D01*
X15262Y507052D01*
X15768Y507959D01*
X15769Y507965D01*
X15773Y507969D01*
X15785Y508032D01*
X15799Y508095D01*
X15797Y508101D01*
X15798Y508107D01*
X15773Y508166D01*
X15752Y508226D01*
X15747Y508230D01*
X15744Y508236D01*
X15690Y508286D01*
X13620Y509686D01*
X13593Y509695D01*
X13571Y509712D01*
X13528Y509716D01*
X13487Y509729D01*
X13460Y509722D01*
X13432Y509725D01*
X13393Y509705D01*
X13351Y509693D01*
X13333Y509673D01*
X13308Y509660D01*
X13262Y509601D01*
X12502Y508240D01*
X12500Y508229D01*
X12482Y508193D01*
X12013Y506706D01*
X12013Y506696D01*
X12003Y506657D01*
X11845Y505105D01*
X11847Y505095D01*
X11845Y505055D01*
X12003Y503503D01*
X12007Y503494D01*
X12013Y503454D01*
X12482Y501967D01*
X12488Y501958D01*
X12502Y501920D01*
X13262Y500559D01*
X13282Y500539D01*
X13294Y500514D01*
X13331Y500491D01*
X13362Y500460D01*
X13389Y500455D01*
X13413Y500440D01*
X13456Y500440D01*
X13499Y500431D01*
X13525Y500441D01*
G37*
G36*
X26540Y500438D02*
X26540Y500438D01*
X26568Y500435D01*
X26607Y500455D01*
X26649Y500466D01*
X26667Y500487D01*
X26692Y500500D01*
X26738Y500559D01*
X27498Y501920D01*
X27500Y501931D01*
X27518Y501967D01*
X27987Y503454D01*
X27987Y503464D01*
X27997Y503503D01*
X28155Y505055D01*
X28153Y505065D01*
X28155Y505105D01*
X27997Y506657D01*
X27993Y506666D01*
X27987Y506706D01*
X27518Y508193D01*
X27512Y508202D01*
X27498Y508240D01*
X26738Y509601D01*
X26718Y509621D01*
X26706Y509646D01*
X26669Y509669D01*
X26638Y509700D01*
X26611Y509705D01*
X26587Y509720D01*
X26544Y509720D01*
X26501Y509729D01*
X26475Y509719D01*
X26447Y509718D01*
X26380Y509686D01*
X24310Y508286D01*
X24306Y508282D01*
X24300Y508279D01*
X24262Y508228D01*
X24221Y508179D01*
X24220Y508173D01*
X24217Y508168D01*
X24212Y508104D01*
X24204Y508040D01*
X24207Y508034D01*
X24206Y508028D01*
X24232Y507959D01*
X24738Y507052D01*
X25042Y506087D01*
X25145Y505080D01*
X25042Y504073D01*
X24738Y503108D01*
X24232Y502201D01*
X24231Y502195D01*
X24227Y502191D01*
X24215Y502128D01*
X24201Y502065D01*
X24203Y502059D01*
X24202Y502053D01*
X24227Y501994D01*
X24248Y501934D01*
X24253Y501930D01*
X24256Y501924D01*
X24310Y501874D01*
X26380Y500474D01*
X26407Y500465D01*
X26429Y500448D01*
X26472Y500444D01*
X26513Y500431D01*
X26540Y500438D01*
G37*
G36*
X523060Y500438D02*
X523060Y500438D01*
X523088Y500435D01*
X523127Y500455D01*
X523169Y500466D01*
X523187Y500487D01*
X523212Y500500D01*
X523258Y500559D01*
X524018Y501920D01*
X524020Y501931D01*
X524038Y501967D01*
X524507Y503454D01*
X524507Y503464D01*
X524517Y503503D01*
X524675Y505055D01*
X524673Y505065D01*
X524675Y505105D01*
X524517Y506657D01*
X524513Y506666D01*
X524507Y506706D01*
X524038Y508193D01*
X524032Y508202D01*
X524018Y508240D01*
X523258Y509601D01*
X523238Y509621D01*
X523226Y509646D01*
X523189Y509669D01*
X523158Y509700D01*
X523131Y509705D01*
X523107Y509720D01*
X523064Y509720D01*
X523021Y509729D01*
X522995Y509719D01*
X522967Y509718D01*
X522900Y509686D01*
X520830Y508286D01*
X520826Y508282D01*
X520820Y508279D01*
X520782Y508228D01*
X520741Y508179D01*
X520740Y508173D01*
X520737Y508168D01*
X520732Y508104D01*
X520724Y508040D01*
X520727Y508034D01*
X520726Y508028D01*
X520752Y507959D01*
X521258Y507052D01*
X521562Y506087D01*
X521665Y505080D01*
X521562Y504073D01*
X521258Y503108D01*
X520752Y502201D01*
X520751Y502195D01*
X520747Y502191D01*
X520735Y502128D01*
X520721Y502065D01*
X520723Y502059D01*
X520722Y502053D01*
X520747Y501994D01*
X520768Y501934D01*
X520773Y501930D01*
X520776Y501924D01*
X520830Y501874D01*
X522900Y500474D01*
X522927Y500465D01*
X522949Y500448D01*
X522992Y500444D01*
X523033Y500431D01*
X523060Y500438D01*
G37*
G36*
X1019580Y500438D02*
X1019580Y500438D01*
X1019608Y500435D01*
X1019647Y500455D01*
X1019689Y500466D01*
X1019707Y500487D01*
X1019732Y500500D01*
X1019778Y500559D01*
X1020538Y501920D01*
X1020540Y501931D01*
X1020558Y501967D01*
X1021027Y503454D01*
X1021027Y503464D01*
X1021037Y503503D01*
X1021195Y505055D01*
X1021193Y505065D01*
X1021195Y505105D01*
X1021037Y506657D01*
X1021033Y506666D01*
X1021027Y506706D01*
X1020558Y508193D01*
X1020552Y508202D01*
X1020538Y508240D01*
X1019778Y509601D01*
X1019758Y509621D01*
X1019746Y509646D01*
X1019709Y509669D01*
X1019678Y509700D01*
X1019651Y509705D01*
X1019627Y509720D01*
X1019584Y509720D01*
X1019541Y509729D01*
X1019515Y509719D01*
X1019487Y509718D01*
X1019420Y509686D01*
X1017350Y508286D01*
X1017346Y508282D01*
X1017340Y508279D01*
X1017302Y508228D01*
X1017261Y508179D01*
X1017260Y508173D01*
X1017257Y508168D01*
X1017252Y508104D01*
X1017244Y508040D01*
X1017247Y508034D01*
X1017246Y508028D01*
X1017272Y507959D01*
X1017778Y507052D01*
X1018082Y506087D01*
X1018185Y505080D01*
X1018082Y504073D01*
X1017778Y503108D01*
X1017272Y502201D01*
X1017271Y502195D01*
X1017267Y502191D01*
X1017255Y502128D01*
X1017241Y502065D01*
X1017243Y502059D01*
X1017242Y502053D01*
X1017267Y501994D01*
X1017288Y501934D01*
X1017293Y501930D01*
X1017296Y501924D01*
X1017350Y501874D01*
X1019420Y500474D01*
X1019447Y500465D01*
X1019469Y500448D01*
X1019512Y500444D01*
X1019553Y500431D01*
X1019580Y500438D01*
G37*
G36*
X519541Y509283D02*
X519541Y509283D01*
X519547Y509282D01*
X519606Y509307D01*
X519666Y509328D01*
X519670Y509333D01*
X519676Y509336D01*
X519726Y509390D01*
X521126Y511460D01*
X521135Y511487D01*
X521152Y511509D01*
X521156Y511552D01*
X521169Y511593D01*
X521162Y511620D01*
X521165Y511648D01*
X521145Y511687D01*
X521133Y511729D01*
X521113Y511747D01*
X521100Y511772D01*
X521041Y511818D01*
X519680Y512578D01*
X519669Y512580D01*
X519633Y512598D01*
X518146Y513067D01*
X518136Y513067D01*
X518097Y513077D01*
X516545Y513235D01*
X516535Y513233D01*
X516495Y513235D01*
X514943Y513077D01*
X514934Y513073D01*
X514894Y513067D01*
X513407Y512598D01*
X513398Y512592D01*
X513360Y512578D01*
X511999Y511818D01*
X511979Y511798D01*
X511954Y511786D01*
X511931Y511749D01*
X511900Y511718D01*
X511895Y511691D01*
X511880Y511667D01*
X511880Y511624D01*
X511871Y511581D01*
X511881Y511555D01*
X511882Y511527D01*
X511914Y511460D01*
X513314Y509390D01*
X513318Y509386D01*
X513321Y509380D01*
X513372Y509342D01*
X513421Y509301D01*
X513427Y509300D01*
X513432Y509297D01*
X513496Y509292D01*
X513560Y509284D01*
X513566Y509287D01*
X513572Y509286D01*
X513641Y509312D01*
X514548Y509818D01*
X515513Y510122D01*
X516520Y510225D01*
X517527Y510122D01*
X518492Y509818D01*
X519399Y509312D01*
X519405Y509311D01*
X519409Y509307D01*
X519472Y509295D01*
X519535Y509281D01*
X519541Y509283D01*
G37*
G36*
X1016061Y1114363D02*
X1016061Y1114363D01*
X1016067Y1114362D01*
X1016126Y1114387D01*
X1016186Y1114408D01*
X1016190Y1114413D01*
X1016196Y1114416D01*
X1016246Y1114470D01*
X1017646Y1116540D01*
X1017655Y1116567D01*
X1017672Y1116589D01*
X1017676Y1116632D01*
X1017689Y1116673D01*
X1017682Y1116700D01*
X1017685Y1116728D01*
X1017665Y1116767D01*
X1017653Y1116809D01*
X1017633Y1116827D01*
X1017620Y1116852D01*
X1017561Y1116898D01*
X1016200Y1117658D01*
X1016189Y1117660D01*
X1016153Y1117678D01*
X1014666Y1118147D01*
X1014656Y1118147D01*
X1014617Y1118157D01*
X1013065Y1118315D01*
X1013055Y1118313D01*
X1013015Y1118315D01*
X1011463Y1118157D01*
X1011453Y1118153D01*
X1011414Y1118147D01*
X1009927Y1117678D01*
X1009918Y1117672D01*
X1009880Y1117658D01*
X1008518Y1116898D01*
X1008499Y1116878D01*
X1008474Y1116866D01*
X1008451Y1116829D01*
X1008420Y1116798D01*
X1008415Y1116771D01*
X1008400Y1116747D01*
X1008400Y1116704D01*
X1008391Y1116661D01*
X1008401Y1116635D01*
X1008401Y1116607D01*
X1008433Y1116540D01*
X1009833Y1114470D01*
X1009838Y1114466D01*
X1009841Y1114460D01*
X1009892Y1114422D01*
X1009941Y1114381D01*
X1009947Y1114380D01*
X1009952Y1114377D01*
X1010016Y1114372D01*
X1010080Y1114364D01*
X1010086Y1114367D01*
X1010092Y1114366D01*
X1010161Y1114392D01*
X1011068Y1114898D01*
X1012033Y1115202D01*
X1013040Y1115305D01*
X1014047Y1115202D01*
X1015012Y1114898D01*
X1015918Y1114392D01*
X1015925Y1114391D01*
X1015929Y1114387D01*
X1015992Y1114375D01*
X1016055Y1114361D01*
X1016061Y1114363D01*
G37*
G36*
X23021Y1114363D02*
X23021Y1114363D01*
X23027Y1114362D01*
X23086Y1114387D01*
X23146Y1114408D01*
X23150Y1114413D01*
X23156Y1114416D01*
X23206Y1114470D01*
X24606Y1116540D01*
X24615Y1116567D01*
X24632Y1116589D01*
X24636Y1116632D01*
X24649Y1116673D01*
X24642Y1116700D01*
X24645Y1116728D01*
X24625Y1116767D01*
X24614Y1116809D01*
X24593Y1116827D01*
X24580Y1116852D01*
X24521Y1116898D01*
X23160Y1117658D01*
X23149Y1117660D01*
X23113Y1117678D01*
X21626Y1118147D01*
X21616Y1118147D01*
X21577Y1118157D01*
X20025Y1118315D01*
X20015Y1118313D01*
X19975Y1118315D01*
X18423Y1118157D01*
X18414Y1118153D01*
X18374Y1118147D01*
X16887Y1117678D01*
X16878Y1117672D01*
X16840Y1117658D01*
X15479Y1116898D01*
X15459Y1116878D01*
X15434Y1116866D01*
X15411Y1116829D01*
X15380Y1116798D01*
X15375Y1116771D01*
X15360Y1116747D01*
X15360Y1116704D01*
X15351Y1116661D01*
X15361Y1116635D01*
X15362Y1116607D01*
X15394Y1116540D01*
X16794Y1114470D01*
X16798Y1114466D01*
X16801Y1114460D01*
X16852Y1114422D01*
X16901Y1114381D01*
X16907Y1114380D01*
X16912Y1114377D01*
X16976Y1114372D01*
X17040Y1114364D01*
X17046Y1114367D01*
X17052Y1114366D01*
X17121Y1114392D01*
X18028Y1114898D01*
X18993Y1115202D01*
X20000Y1115305D01*
X21007Y1115202D01*
X21972Y1114898D01*
X22879Y1114392D01*
X22885Y1114391D01*
X22889Y1114387D01*
X22952Y1114375D01*
X23015Y1114361D01*
X23021Y1114363D01*
G37*
G36*
X23021Y304203D02*
X23021Y304203D01*
X23027Y304202D01*
X23086Y304227D01*
X23146Y304248D01*
X23150Y304253D01*
X23156Y304256D01*
X23206Y304310D01*
X24606Y306380D01*
X24615Y306407D01*
X24632Y306429D01*
X24636Y306472D01*
X24649Y306513D01*
X24642Y306540D01*
X24645Y306568D01*
X24625Y306607D01*
X24614Y306649D01*
X24593Y306667D01*
X24580Y306692D01*
X24521Y306738D01*
X23160Y307498D01*
X23149Y307500D01*
X23113Y307518D01*
X21626Y307987D01*
X21616Y307987D01*
X21577Y307997D01*
X20025Y308155D01*
X20015Y308153D01*
X19975Y308155D01*
X18423Y307997D01*
X18414Y307993D01*
X18374Y307987D01*
X16887Y307518D01*
X16878Y307512D01*
X16840Y307498D01*
X15479Y306738D01*
X15459Y306718D01*
X15434Y306706D01*
X15411Y306669D01*
X15380Y306638D01*
X15375Y306611D01*
X15360Y306587D01*
X15360Y306544D01*
X15351Y306501D01*
X15361Y306475D01*
X15362Y306447D01*
X15394Y306380D01*
X16794Y304310D01*
X16798Y304306D01*
X16801Y304300D01*
X16852Y304262D01*
X16901Y304221D01*
X16907Y304220D01*
X16912Y304217D01*
X16976Y304212D01*
X17040Y304204D01*
X17046Y304207D01*
X17052Y304206D01*
X17121Y304232D01*
X18028Y304738D01*
X18993Y305042D01*
X20000Y305145D01*
X21007Y305042D01*
X21972Y304738D01*
X22879Y304232D01*
X22885Y304231D01*
X22889Y304227D01*
X22952Y304215D01*
X23015Y304201D01*
X23021Y304203D01*
G37*
G36*
X519541Y304203D02*
X519541Y304203D01*
X519547Y304202D01*
X519606Y304227D01*
X519666Y304248D01*
X519670Y304253D01*
X519676Y304256D01*
X519726Y304310D01*
X521126Y306380D01*
X521135Y306407D01*
X521152Y306429D01*
X521156Y306472D01*
X521169Y306513D01*
X521162Y306540D01*
X521165Y306568D01*
X521145Y306607D01*
X521133Y306649D01*
X521113Y306667D01*
X521100Y306692D01*
X521041Y306738D01*
X519680Y307498D01*
X519669Y307500D01*
X519633Y307518D01*
X518146Y307987D01*
X518136Y307987D01*
X518097Y307997D01*
X516545Y308155D01*
X516535Y308153D01*
X516495Y308155D01*
X514943Y307997D01*
X514934Y307993D01*
X514894Y307987D01*
X513407Y307518D01*
X513398Y307512D01*
X513360Y307498D01*
X511999Y306738D01*
X511979Y306718D01*
X511954Y306706D01*
X511931Y306669D01*
X511900Y306638D01*
X511895Y306611D01*
X511880Y306587D01*
X511880Y306544D01*
X511871Y306501D01*
X511881Y306475D01*
X511882Y306447D01*
X511914Y306380D01*
X513314Y304310D01*
X513318Y304306D01*
X513321Y304300D01*
X513372Y304262D01*
X513421Y304221D01*
X513427Y304220D01*
X513432Y304217D01*
X513496Y304212D01*
X513560Y304204D01*
X513566Y304207D01*
X513572Y304206D01*
X513641Y304232D01*
X514548Y304738D01*
X515513Y305042D01*
X516520Y305145D01*
X517527Y305042D01*
X518492Y304738D01*
X519399Y304232D01*
X519405Y304231D01*
X519409Y304227D01*
X519472Y304215D01*
X519535Y304201D01*
X519541Y304203D01*
G37*
G36*
X1016061Y304203D02*
X1016061Y304203D01*
X1016067Y304202D01*
X1016126Y304227D01*
X1016186Y304248D01*
X1016190Y304253D01*
X1016196Y304256D01*
X1016246Y304310D01*
X1017646Y306380D01*
X1017655Y306407D01*
X1017672Y306429D01*
X1017676Y306472D01*
X1017689Y306513D01*
X1017682Y306540D01*
X1017685Y306568D01*
X1017665Y306607D01*
X1017653Y306649D01*
X1017633Y306667D01*
X1017620Y306692D01*
X1017561Y306738D01*
X1016200Y307498D01*
X1016189Y307500D01*
X1016153Y307518D01*
X1014666Y307987D01*
X1014656Y307987D01*
X1014617Y307997D01*
X1013065Y308155D01*
X1013055Y308153D01*
X1013015Y308155D01*
X1011463Y307997D01*
X1011453Y307993D01*
X1011414Y307987D01*
X1009927Y307518D01*
X1009918Y307512D01*
X1009880Y307498D01*
X1008518Y306738D01*
X1008499Y306718D01*
X1008474Y306706D01*
X1008451Y306669D01*
X1008420Y306638D01*
X1008415Y306611D01*
X1008400Y306587D01*
X1008400Y306544D01*
X1008391Y306501D01*
X1008401Y306475D01*
X1008401Y306447D01*
X1008433Y306380D01*
X1009833Y304310D01*
X1009838Y304306D01*
X1009841Y304300D01*
X1009892Y304262D01*
X1009941Y304221D01*
X1009947Y304220D01*
X1009952Y304217D01*
X1010016Y304212D01*
X1010080Y304204D01*
X1010086Y304207D01*
X1010092Y304206D01*
X1010161Y304232D01*
X1011068Y304738D01*
X1012033Y305042D01*
X1013040Y305145D01*
X1014047Y305042D01*
X1015012Y304738D01*
X1015918Y304232D01*
X1015925Y304231D01*
X1015929Y304227D01*
X1015992Y304215D01*
X1016055Y304201D01*
X1016061Y304203D01*
G37*
G36*
X1006565Y295361D02*
X1006565Y295361D01*
X1006592Y295362D01*
X1006660Y295394D01*
X1008730Y296794D01*
X1008734Y296798D01*
X1008740Y296801D01*
X1008778Y296852D01*
X1008819Y296901D01*
X1008820Y296907D01*
X1008823Y296912D01*
X1008828Y296976D01*
X1008836Y297040D01*
X1008833Y297046D01*
X1008834Y297052D01*
X1008808Y297121D01*
X1008302Y298028D01*
X1007997Y298993D01*
X1007895Y300000D01*
X1007997Y301007D01*
X1008302Y301972D01*
X1008808Y302879D01*
X1008809Y302885D01*
X1008813Y302889D01*
X1008825Y302952D01*
X1008839Y303015D01*
X1008837Y303021D01*
X1008838Y303027D01*
X1008813Y303086D01*
X1008792Y303146D01*
X1008787Y303150D01*
X1008784Y303156D01*
X1008730Y303206D01*
X1006660Y304606D01*
X1006633Y304615D01*
X1006611Y304632D01*
X1006568Y304636D01*
X1006526Y304649D01*
X1006500Y304642D01*
X1006472Y304645D01*
X1006433Y304625D01*
X1006391Y304614D01*
X1006372Y304593D01*
X1006348Y304580D01*
X1006302Y304521D01*
X1005542Y303160D01*
X1005540Y303149D01*
X1005522Y303113D01*
X1005053Y301626D01*
X1005053Y301616D01*
X1005043Y301577D01*
X1004885Y300025D01*
X1004887Y300015D01*
X1004885Y299975D01*
X1005043Y298423D01*
X1005047Y298414D01*
X1005053Y298374D01*
X1005522Y296887D01*
X1005528Y296878D01*
X1005542Y296840D01*
X1006302Y295479D01*
X1006322Y295459D01*
X1006334Y295434D01*
X1006371Y295411D01*
X1006402Y295380D01*
X1006429Y295375D01*
X1006453Y295360D01*
X1006496Y295360D01*
X1006539Y295351D01*
X1006565Y295361D01*
G37*
G36*
X13499Y295351D02*
X13499Y295351D01*
X13525Y295361D01*
X13553Y295362D01*
X13620Y295394D01*
X15690Y296794D01*
X15694Y296798D01*
X15700Y296801D01*
X15738Y296852D01*
X15779Y296901D01*
X15780Y296907D01*
X15783Y296912D01*
X15788Y296976D01*
X15796Y297040D01*
X15793Y297046D01*
X15794Y297052D01*
X15768Y297121D01*
X15262Y298028D01*
X14958Y298993D01*
X14855Y300000D01*
X14958Y301007D01*
X15262Y301972D01*
X15768Y302879D01*
X15769Y302885D01*
X15773Y302889D01*
X15785Y302952D01*
X15799Y303015D01*
X15797Y303021D01*
X15798Y303027D01*
X15773Y303086D01*
X15752Y303146D01*
X15747Y303150D01*
X15744Y303156D01*
X15690Y303206D01*
X13620Y304606D01*
X13593Y304615D01*
X13571Y304632D01*
X13528Y304636D01*
X13487Y304649D01*
X13460Y304642D01*
X13432Y304645D01*
X13393Y304625D01*
X13351Y304614D01*
X13333Y304593D01*
X13308Y304580D01*
X13262Y304521D01*
X12502Y303160D01*
X12500Y303149D01*
X12482Y303113D01*
X12013Y301626D01*
X12013Y301616D01*
X12003Y301577D01*
X11845Y300025D01*
X11847Y300015D01*
X11845Y299975D01*
X12003Y298423D01*
X12007Y298414D01*
X12013Y298374D01*
X12482Y296887D01*
X12488Y296878D01*
X12502Y296840D01*
X13262Y295479D01*
X13282Y295459D01*
X13294Y295434D01*
X13331Y295411D01*
X13362Y295380D01*
X13389Y295375D01*
X13413Y295360D01*
X13456Y295360D01*
X13499Y295351D01*
G37*
G36*
X510045Y1105521D02*
X510045Y1105521D01*
X510073Y1105521D01*
X510140Y1105553D01*
X512210Y1106953D01*
X512214Y1106958D01*
X512220Y1106961D01*
X512258Y1107012D01*
X512299Y1107061D01*
X512300Y1107067D01*
X512303Y1107072D01*
X512308Y1107136D01*
X512316Y1107200D01*
X512313Y1107206D01*
X512314Y1107212D01*
X512288Y1107281D01*
X511782Y1108188D01*
X511478Y1109153D01*
X511375Y1110160D01*
X511478Y1111167D01*
X511782Y1112132D01*
X512288Y1113038D01*
X512289Y1113045D01*
X512293Y1113049D01*
X512305Y1113112D01*
X512319Y1113175D01*
X512317Y1113181D01*
X512318Y1113187D01*
X512293Y1113246D01*
X512272Y1113306D01*
X512267Y1113310D01*
X512264Y1113316D01*
X512210Y1113366D01*
X510140Y1114766D01*
X510113Y1114775D01*
X510091Y1114792D01*
X510048Y1114796D01*
X510007Y1114809D01*
X509980Y1114802D01*
X509952Y1114805D01*
X509913Y1114785D01*
X509871Y1114773D01*
X509853Y1114753D01*
X509828Y1114740D01*
X509782Y1114681D01*
X509022Y1113320D01*
X509020Y1113309D01*
X509002Y1113273D01*
X508533Y1111786D01*
X508533Y1111776D01*
X508523Y1111737D01*
X508365Y1110185D01*
X508367Y1110175D01*
X508365Y1110135D01*
X508523Y1108583D01*
X508527Y1108573D01*
X508533Y1108534D01*
X509002Y1107047D01*
X509008Y1107038D01*
X509022Y1107000D01*
X509782Y1105638D01*
X509802Y1105619D01*
X509814Y1105594D01*
X509851Y1105571D01*
X509882Y1105540D01*
X509909Y1105535D01*
X509933Y1105520D01*
X509976Y1105520D01*
X510019Y1105511D01*
X510045Y1105521D01*
G37*
G36*
X523060Y295358D02*
X523060Y295358D01*
X523088Y295355D01*
X523127Y295375D01*
X523169Y295387D01*
X523187Y295407D01*
X523212Y295420D01*
X523258Y295479D01*
X524018Y296840D01*
X524020Y296851D01*
X524038Y296887D01*
X524507Y298374D01*
X524507Y298384D01*
X524517Y298423D01*
X524675Y299975D01*
X524673Y299985D01*
X524675Y300025D01*
X524517Y301577D01*
X524513Y301586D01*
X524507Y301626D01*
X524038Y303113D01*
X524032Y303122D01*
X524018Y303160D01*
X523258Y304521D01*
X523238Y304541D01*
X523226Y304566D01*
X523189Y304589D01*
X523158Y304620D01*
X523131Y304625D01*
X523107Y304640D01*
X523064Y304640D01*
X523021Y304649D01*
X522995Y304639D01*
X522967Y304638D01*
X522900Y304606D01*
X520830Y303206D01*
X520826Y303202D01*
X520820Y303199D01*
X520782Y303148D01*
X520741Y303099D01*
X520740Y303093D01*
X520737Y303088D01*
X520732Y303024D01*
X520724Y302960D01*
X520727Y302954D01*
X520726Y302948D01*
X520752Y302879D01*
X521258Y301972D01*
X521562Y301007D01*
X521665Y300000D01*
X521562Y298993D01*
X521258Y298028D01*
X520752Y297121D01*
X520751Y297115D01*
X520747Y297111D01*
X520735Y297048D01*
X520721Y296985D01*
X520723Y296979D01*
X520722Y296973D01*
X520747Y296914D01*
X520768Y296854D01*
X520773Y296850D01*
X520776Y296844D01*
X520830Y296794D01*
X522900Y295394D01*
X522927Y295385D01*
X522949Y295368D01*
X522992Y295364D01*
X523033Y295351D01*
X523060Y295358D01*
G37*
G36*
X26540Y295358D02*
X26540Y295358D01*
X26568Y295355D01*
X26607Y295375D01*
X26649Y295387D01*
X26667Y295407D01*
X26692Y295420D01*
X26738Y295479D01*
X27498Y296840D01*
X27500Y296851D01*
X27518Y296887D01*
X27987Y298374D01*
X27987Y298384D01*
X27997Y298423D01*
X28155Y299975D01*
X28153Y299985D01*
X28155Y300025D01*
X27997Y301577D01*
X27993Y301586D01*
X27987Y301626D01*
X27518Y303113D01*
X27512Y303122D01*
X27498Y303160D01*
X26738Y304521D01*
X26718Y304541D01*
X26706Y304566D01*
X26669Y304589D01*
X26638Y304620D01*
X26611Y304625D01*
X26587Y304640D01*
X26544Y304640D01*
X26501Y304649D01*
X26475Y304639D01*
X26447Y304638D01*
X26380Y304606D01*
X24310Y303206D01*
X24306Y303202D01*
X24300Y303199D01*
X24262Y303148D01*
X24221Y303099D01*
X24220Y303093D01*
X24217Y303088D01*
X24212Y303024D01*
X24204Y302960D01*
X24207Y302954D01*
X24206Y302948D01*
X24232Y302879D01*
X24738Y301972D01*
X25042Y301007D01*
X25145Y300000D01*
X25042Y298993D01*
X24738Y298028D01*
X24232Y297121D01*
X24231Y297115D01*
X24227Y297111D01*
X24215Y297048D01*
X24201Y296985D01*
X24203Y296979D01*
X24202Y296973D01*
X24227Y296914D01*
X24248Y296854D01*
X24253Y296850D01*
X24256Y296844D01*
X24310Y296794D01*
X26380Y295394D01*
X26407Y295385D01*
X26429Y295368D01*
X26472Y295364D01*
X26513Y295351D01*
X26540Y295358D01*
G37*
G36*
X1019580Y295358D02*
X1019580Y295358D01*
X1019608Y295355D01*
X1019647Y295375D01*
X1019689Y295387D01*
X1019707Y295407D01*
X1019732Y295420D01*
X1019778Y295479D01*
X1020538Y296840D01*
X1020540Y296851D01*
X1020558Y296887D01*
X1021027Y298374D01*
X1021027Y298384D01*
X1021037Y298423D01*
X1021195Y299975D01*
X1021193Y299985D01*
X1021195Y300025D01*
X1021037Y301577D01*
X1021033Y301586D01*
X1021027Y301626D01*
X1020558Y303113D01*
X1020552Y303122D01*
X1020538Y303160D01*
X1019778Y304521D01*
X1019758Y304541D01*
X1019746Y304566D01*
X1019709Y304589D01*
X1019678Y304620D01*
X1019651Y304625D01*
X1019627Y304640D01*
X1019584Y304640D01*
X1019541Y304649D01*
X1019515Y304639D01*
X1019487Y304638D01*
X1019420Y304606D01*
X1017350Y303206D01*
X1017346Y303202D01*
X1017340Y303199D01*
X1017302Y303148D01*
X1017261Y303099D01*
X1017260Y303093D01*
X1017257Y303088D01*
X1017252Y303024D01*
X1017244Y302960D01*
X1017247Y302954D01*
X1017246Y302948D01*
X1017272Y302879D01*
X1017778Y301972D01*
X1018082Y301007D01*
X1018185Y300000D01*
X1018082Y298993D01*
X1017778Y298028D01*
X1017272Y297121D01*
X1017271Y297115D01*
X1017267Y297111D01*
X1017255Y297048D01*
X1017241Y296985D01*
X1017243Y296979D01*
X1017242Y296973D01*
X1017267Y296914D01*
X1017288Y296854D01*
X1017293Y296850D01*
X1017296Y296844D01*
X1017350Y296794D01*
X1019420Y295394D01*
X1019447Y295385D01*
X1019469Y295368D01*
X1019512Y295364D01*
X1019553Y295351D01*
X1019580Y295358D01*
G37*
G36*
X1006565Y1105521D02*
X1006565Y1105521D01*
X1006592Y1105521D01*
X1006660Y1105553D01*
X1008730Y1106953D01*
X1008734Y1106958D01*
X1008740Y1106961D01*
X1008778Y1107012D01*
X1008819Y1107061D01*
X1008820Y1107067D01*
X1008823Y1107072D01*
X1008828Y1107136D01*
X1008836Y1107200D01*
X1008833Y1107206D01*
X1008834Y1107212D01*
X1008808Y1107281D01*
X1008302Y1108188D01*
X1007997Y1109153D01*
X1007895Y1110160D01*
X1007997Y1111167D01*
X1008302Y1112132D01*
X1008808Y1113038D01*
X1008809Y1113045D01*
X1008813Y1113049D01*
X1008825Y1113112D01*
X1008839Y1113175D01*
X1008837Y1113181D01*
X1008838Y1113187D01*
X1008813Y1113246D01*
X1008792Y1113306D01*
X1008787Y1113310D01*
X1008784Y1113316D01*
X1008730Y1113366D01*
X1006660Y1114766D01*
X1006633Y1114775D01*
X1006611Y1114792D01*
X1006568Y1114796D01*
X1006526Y1114809D01*
X1006500Y1114802D01*
X1006472Y1114805D01*
X1006433Y1114785D01*
X1006391Y1114773D01*
X1006372Y1114753D01*
X1006348Y1114740D01*
X1006302Y1114681D01*
X1005542Y1113320D01*
X1005540Y1113309D01*
X1005522Y1113273D01*
X1005053Y1111786D01*
X1005053Y1111776D01*
X1005043Y1111737D01*
X1004885Y1110185D01*
X1004887Y1110175D01*
X1004885Y1110135D01*
X1005043Y1108583D01*
X1005047Y1108573D01*
X1005053Y1108534D01*
X1005522Y1107047D01*
X1005528Y1107038D01*
X1005542Y1107000D01*
X1006302Y1105638D01*
X1006322Y1105619D01*
X1006334Y1105594D01*
X1006371Y1105571D01*
X1006402Y1105540D01*
X1006429Y1105535D01*
X1006453Y1105520D01*
X1006496Y1105520D01*
X1006539Y1105511D01*
X1006565Y1105521D01*
G37*
G36*
X13525Y1105521D02*
X13525Y1105521D01*
X13553Y1105521D01*
X13620Y1105553D01*
X15690Y1106953D01*
X15694Y1106958D01*
X15700Y1106961D01*
X15738Y1107012D01*
X15779Y1107061D01*
X15780Y1107067D01*
X15783Y1107072D01*
X15788Y1107136D01*
X15796Y1107200D01*
X15793Y1107206D01*
X15794Y1107212D01*
X15768Y1107281D01*
X15262Y1108188D01*
X14958Y1109153D01*
X14855Y1110160D01*
X14958Y1111167D01*
X15262Y1112132D01*
X15768Y1113038D01*
X15769Y1113045D01*
X15773Y1113049D01*
X15785Y1113112D01*
X15799Y1113175D01*
X15797Y1113181D01*
X15798Y1113187D01*
X15773Y1113246D01*
X15752Y1113306D01*
X15747Y1113310D01*
X15744Y1113316D01*
X15690Y1113366D01*
X13620Y1114766D01*
X13593Y1114775D01*
X13571Y1114792D01*
X13528Y1114796D01*
X13487Y1114809D01*
X13460Y1114802D01*
X13432Y1114805D01*
X13393Y1114785D01*
X13351Y1114773D01*
X13333Y1114753D01*
X13308Y1114740D01*
X13262Y1114681D01*
X12502Y1113320D01*
X12500Y1113309D01*
X12482Y1113273D01*
X12013Y1111786D01*
X12013Y1111776D01*
X12003Y1111737D01*
X11845Y1110185D01*
X11847Y1110175D01*
X11845Y1110135D01*
X12003Y1108583D01*
X12007Y1108573D01*
X12013Y1108534D01*
X12482Y1107047D01*
X12488Y1107038D01*
X12502Y1107000D01*
X13262Y1105638D01*
X13282Y1105619D01*
X13294Y1105594D01*
X13331Y1105571D01*
X13362Y1105540D01*
X13389Y1105535D01*
X13413Y1105520D01*
X13456Y1105520D01*
X13499Y1105511D01*
X13525Y1105521D01*
G37*
G36*
X523060Y1105518D02*
X523060Y1105518D01*
X523088Y1105515D01*
X523127Y1105535D01*
X523169Y1105546D01*
X523187Y1105567D01*
X523212Y1105580D01*
X523258Y1105638D01*
X524018Y1107000D01*
X524020Y1107010D01*
X524038Y1107047D01*
X524507Y1108534D01*
X524507Y1108544D01*
X524517Y1108583D01*
X524675Y1110135D01*
X524673Y1110145D01*
X524675Y1110185D01*
X524517Y1111737D01*
X524513Y1111746D01*
X524507Y1111786D01*
X524038Y1113273D01*
X524032Y1113282D01*
X524018Y1113320D01*
X523258Y1114681D01*
X523238Y1114701D01*
X523226Y1114726D01*
X523189Y1114749D01*
X523158Y1114779D01*
X523131Y1114785D01*
X523107Y1114800D01*
X523064Y1114799D01*
X523021Y1114808D01*
X522995Y1114799D01*
X522967Y1114798D01*
X522900Y1114766D01*
X520830Y1113366D01*
X520826Y1113362D01*
X520820Y1113359D01*
X520782Y1113308D01*
X520741Y1113259D01*
X520740Y1113253D01*
X520737Y1113247D01*
X520732Y1113184D01*
X520724Y1113120D01*
X520727Y1113114D01*
X520726Y1113108D01*
X520752Y1113038D01*
X521258Y1112132D01*
X521562Y1111167D01*
X521665Y1110160D01*
X521562Y1109153D01*
X521258Y1108188D01*
X520752Y1107281D01*
X520751Y1107275D01*
X520747Y1107271D01*
X520735Y1107208D01*
X520721Y1107145D01*
X520723Y1107139D01*
X520722Y1107133D01*
X520747Y1107074D01*
X520768Y1107014D01*
X520773Y1107010D01*
X520776Y1107004D01*
X520830Y1106953D01*
X522900Y1105553D01*
X522927Y1105545D01*
X522949Y1105528D01*
X522992Y1105524D01*
X523033Y1105511D01*
X523060Y1105518D01*
G37*
G36*
X519541Y104203D02*
X519541Y104203D01*
X519547Y104202D01*
X519606Y104227D01*
X519666Y104248D01*
X519670Y104253D01*
X519676Y104256D01*
X519726Y104310D01*
X521126Y106380D01*
X521135Y106407D01*
X521152Y106429D01*
X521156Y106472D01*
X521169Y106513D01*
X521162Y106540D01*
X521165Y106568D01*
X521145Y106607D01*
X521133Y106649D01*
X521113Y106667D01*
X521100Y106692D01*
X521041Y106738D01*
X519680Y107498D01*
X519669Y107500D01*
X519633Y107518D01*
X518146Y107987D01*
X518136Y107987D01*
X518097Y107997D01*
X516545Y108155D01*
X516535Y108153D01*
X516495Y108155D01*
X514943Y107997D01*
X514934Y107993D01*
X514894Y107987D01*
X513407Y107518D01*
X513398Y107512D01*
X513360Y107498D01*
X511999Y106738D01*
X511979Y106718D01*
X511954Y106706D01*
X511931Y106669D01*
X511900Y106638D01*
X511895Y106611D01*
X511880Y106587D01*
X511880Y106544D01*
X511871Y106501D01*
X511881Y106475D01*
X511882Y106447D01*
X511914Y106380D01*
X513314Y104310D01*
X513318Y104306D01*
X513321Y104300D01*
X513372Y104262D01*
X513421Y104221D01*
X513427Y104220D01*
X513432Y104217D01*
X513496Y104212D01*
X513560Y104204D01*
X513566Y104207D01*
X513572Y104206D01*
X513641Y104232D01*
X514548Y104738D01*
X515513Y105042D01*
X516520Y105145D01*
X517527Y105042D01*
X518492Y104738D01*
X519399Y104232D01*
X519405Y104231D01*
X519409Y104227D01*
X519472Y104215D01*
X519535Y104201D01*
X519541Y104203D01*
G37*
G36*
X1016061Y104203D02*
X1016061Y104203D01*
X1016067Y104202D01*
X1016126Y104227D01*
X1016186Y104248D01*
X1016190Y104253D01*
X1016196Y104256D01*
X1016246Y104310D01*
X1017646Y106380D01*
X1017655Y106407D01*
X1017672Y106429D01*
X1017676Y106472D01*
X1017689Y106513D01*
X1017682Y106540D01*
X1017685Y106568D01*
X1017665Y106607D01*
X1017653Y106649D01*
X1017633Y106667D01*
X1017620Y106692D01*
X1017561Y106738D01*
X1016200Y107498D01*
X1016189Y107500D01*
X1016153Y107518D01*
X1014666Y107987D01*
X1014656Y107987D01*
X1014617Y107997D01*
X1013065Y108155D01*
X1013055Y108153D01*
X1013015Y108155D01*
X1011463Y107997D01*
X1011453Y107993D01*
X1011414Y107987D01*
X1009927Y107518D01*
X1009918Y107512D01*
X1009880Y107498D01*
X1008518Y106738D01*
X1008499Y106718D01*
X1008474Y106706D01*
X1008451Y106669D01*
X1008420Y106638D01*
X1008415Y106611D01*
X1008400Y106587D01*
X1008400Y106544D01*
X1008391Y106501D01*
X1008401Y106475D01*
X1008401Y106447D01*
X1008433Y106380D01*
X1009833Y104310D01*
X1009838Y104306D01*
X1009841Y104300D01*
X1009892Y104262D01*
X1009941Y104221D01*
X1009947Y104220D01*
X1009952Y104217D01*
X1010016Y104212D01*
X1010080Y104204D01*
X1010086Y104207D01*
X1010092Y104206D01*
X1010161Y104232D01*
X1011068Y104738D01*
X1012033Y105042D01*
X1013040Y105145D01*
X1014047Y105042D01*
X1015012Y104738D01*
X1015918Y104232D01*
X1015925Y104231D01*
X1015929Y104227D01*
X1015992Y104215D01*
X1016055Y104201D01*
X1016061Y104203D01*
G37*
G36*
X510045Y295361D02*
X510045Y295361D01*
X510073Y295362D01*
X510140Y295394D01*
X512210Y296794D01*
X512214Y296798D01*
X512220Y296801D01*
X512258Y296852D01*
X512299Y296901D01*
X512300Y296907D01*
X512303Y296912D01*
X512308Y296976D01*
X512316Y297040D01*
X512313Y297046D01*
X512314Y297052D01*
X512288Y297121D01*
X511782Y298028D01*
X511478Y298993D01*
X511375Y300000D01*
X511478Y301007D01*
X511782Y301972D01*
X512288Y302879D01*
X512289Y302885D01*
X512293Y302889D01*
X512305Y302952D01*
X512319Y303015D01*
X512317Y303021D01*
X512318Y303027D01*
X512293Y303086D01*
X512272Y303146D01*
X512267Y303150D01*
X512264Y303156D01*
X512210Y303206D01*
X510140Y304606D01*
X510113Y304615D01*
X510091Y304632D01*
X510048Y304636D01*
X510007Y304649D01*
X509980Y304642D01*
X509952Y304645D01*
X509913Y304625D01*
X509871Y304614D01*
X509853Y304593D01*
X509828Y304580D01*
X509782Y304521D01*
X509022Y303160D01*
X509020Y303149D01*
X509002Y303113D01*
X508533Y301626D01*
X508533Y301616D01*
X508523Y301577D01*
X508365Y300025D01*
X508367Y300015D01*
X508365Y299975D01*
X508523Y298423D01*
X508527Y298414D01*
X508533Y298374D01*
X509002Y296887D01*
X509008Y296878D01*
X509022Y296840D01*
X509782Y295479D01*
X509802Y295459D01*
X509814Y295434D01*
X509851Y295411D01*
X509882Y295380D01*
X509909Y295375D01*
X509933Y295360D01*
X509976Y295360D01*
X510019Y295351D01*
X510045Y295361D01*
G37*
G36*
X13525Y95361D02*
X13525Y95361D01*
X13553Y95362D01*
X13620Y95394D01*
X15690Y96794D01*
X15694Y96798D01*
X15700Y96801D01*
X15738Y96852D01*
X15779Y96901D01*
X15780Y96907D01*
X15783Y96912D01*
X15788Y96976D01*
X15796Y97040D01*
X15793Y97046D01*
X15794Y97052D01*
X15768Y97121D01*
X15262Y98028D01*
X14958Y98993D01*
X14855Y100000D01*
X14958Y101007D01*
X15262Y101972D01*
X15768Y102879D01*
X15769Y102885D01*
X15773Y102889D01*
X15785Y102952D01*
X15799Y103015D01*
X15797Y103021D01*
X15798Y103027D01*
X15773Y103086D01*
X15752Y103146D01*
X15747Y103150D01*
X15744Y103156D01*
X15690Y103206D01*
X13620Y104606D01*
X13593Y104615D01*
X13571Y104632D01*
X13528Y104636D01*
X13487Y104649D01*
X13460Y104642D01*
X13432Y104645D01*
X13393Y104625D01*
X13351Y104614D01*
X13333Y104593D01*
X13308Y104580D01*
X13262Y104521D01*
X12502Y103160D01*
X12500Y103149D01*
X12482Y103113D01*
X12013Y101626D01*
X12013Y101616D01*
X12003Y101577D01*
X11845Y100025D01*
X11847Y100015D01*
X11845Y99975D01*
X12003Y98423D01*
X12007Y98414D01*
X12013Y98374D01*
X12482Y96887D01*
X12488Y96878D01*
X12502Y96840D01*
X13262Y95479D01*
X13282Y95459D01*
X13294Y95434D01*
X13331Y95411D01*
X13362Y95380D01*
X13389Y95375D01*
X13413Y95360D01*
X13456Y95360D01*
X13499Y95351D01*
X13525Y95361D01*
G37*
G36*
X510045Y95361D02*
X510045Y95361D01*
X510073Y95362D01*
X510140Y95394D01*
X512210Y96794D01*
X512214Y96798D01*
X512220Y96801D01*
X512258Y96852D01*
X512299Y96901D01*
X512300Y96907D01*
X512303Y96912D01*
X512308Y96976D01*
X512316Y97040D01*
X512313Y97046D01*
X512314Y97052D01*
X512288Y97121D01*
X511782Y98028D01*
X511478Y98993D01*
X511375Y100000D01*
X511478Y101007D01*
X511782Y101972D01*
X512288Y102879D01*
X512289Y102885D01*
X512293Y102889D01*
X512305Y102952D01*
X512319Y103015D01*
X512317Y103021D01*
X512318Y103027D01*
X512293Y103086D01*
X512272Y103146D01*
X512267Y103150D01*
X512264Y103156D01*
X512210Y103206D01*
X510140Y104606D01*
X510113Y104615D01*
X510091Y104632D01*
X510048Y104636D01*
X510007Y104649D01*
X509980Y104642D01*
X509952Y104645D01*
X509913Y104625D01*
X509871Y104614D01*
X509853Y104593D01*
X509828Y104580D01*
X509782Y104521D01*
X509022Y103160D01*
X509020Y103149D01*
X509002Y103113D01*
X508533Y101626D01*
X508533Y101616D01*
X508523Y101577D01*
X508365Y100025D01*
X508367Y100015D01*
X508365Y99975D01*
X508523Y98423D01*
X508527Y98414D01*
X508533Y98374D01*
X509002Y96887D01*
X509008Y96878D01*
X509022Y96840D01*
X509782Y95479D01*
X509802Y95459D01*
X509814Y95434D01*
X509851Y95411D01*
X509882Y95380D01*
X509909Y95375D01*
X509933Y95360D01*
X509976Y95360D01*
X510019Y95351D01*
X510045Y95361D01*
G37*
G36*
X1006565Y95361D02*
X1006565Y95361D01*
X1006592Y95362D01*
X1006660Y95394D01*
X1008730Y96794D01*
X1008734Y96798D01*
X1008740Y96801D01*
X1008778Y96852D01*
X1008819Y96901D01*
X1008820Y96907D01*
X1008823Y96912D01*
X1008828Y96976D01*
X1008836Y97040D01*
X1008833Y97046D01*
X1008834Y97052D01*
X1008808Y97121D01*
X1008302Y98028D01*
X1007997Y98993D01*
X1007895Y100000D01*
X1007997Y101007D01*
X1008302Y101972D01*
X1008808Y102879D01*
X1008809Y102885D01*
X1008813Y102889D01*
X1008825Y102952D01*
X1008839Y103015D01*
X1008837Y103021D01*
X1008838Y103027D01*
X1008813Y103086D01*
X1008792Y103146D01*
X1008787Y103150D01*
X1008784Y103156D01*
X1008730Y103206D01*
X1006660Y104606D01*
X1006633Y104615D01*
X1006611Y104632D01*
X1006568Y104636D01*
X1006526Y104649D01*
X1006500Y104642D01*
X1006472Y104645D01*
X1006433Y104625D01*
X1006391Y104614D01*
X1006372Y104593D01*
X1006348Y104580D01*
X1006302Y104521D01*
X1005542Y103160D01*
X1005540Y103149D01*
X1005522Y103113D01*
X1005053Y101626D01*
X1005053Y101616D01*
X1005043Y101577D01*
X1004885Y100025D01*
X1004887Y100015D01*
X1004885Y99975D01*
X1005043Y98423D01*
X1005047Y98414D01*
X1005053Y98374D01*
X1005522Y96887D01*
X1005528Y96878D01*
X1005542Y96840D01*
X1006302Y95479D01*
X1006322Y95459D01*
X1006334Y95434D01*
X1006371Y95411D01*
X1006402Y95380D01*
X1006429Y95375D01*
X1006453Y95360D01*
X1006496Y95360D01*
X1006539Y95351D01*
X1006565Y95361D01*
G37*
G36*
X523060Y95358D02*
X523060Y95358D01*
X523088Y95355D01*
X523127Y95375D01*
X523169Y95387D01*
X523187Y95407D01*
X523212Y95420D01*
X523258Y95479D01*
X524018Y96840D01*
X524020Y96851D01*
X524038Y96887D01*
X524507Y98374D01*
X524507Y98384D01*
X524517Y98423D01*
X524675Y99975D01*
X524673Y99985D01*
X524675Y100025D01*
X524517Y101577D01*
X524513Y101586D01*
X524507Y101626D01*
X524038Y103113D01*
X524032Y103122D01*
X524018Y103160D01*
X523258Y104521D01*
X523238Y104541D01*
X523226Y104566D01*
X523189Y104589D01*
X523158Y104620D01*
X523131Y104625D01*
X523107Y104640D01*
X523064Y104640D01*
X523021Y104649D01*
X522995Y104639D01*
X522967Y104638D01*
X522900Y104606D01*
X520830Y103206D01*
X520826Y103202D01*
X520820Y103199D01*
X520782Y103148D01*
X520741Y103099D01*
X520740Y103093D01*
X520737Y103088D01*
X520732Y103024D01*
X520724Y102960D01*
X520727Y102954D01*
X520726Y102948D01*
X520752Y102879D01*
X521258Y101972D01*
X521562Y101007D01*
X521665Y100000D01*
X521562Y98993D01*
X521258Y98028D01*
X520752Y97121D01*
X520751Y97115D01*
X520747Y97111D01*
X520735Y97048D01*
X520721Y96985D01*
X520723Y96979D01*
X520722Y96973D01*
X520747Y96914D01*
X520768Y96854D01*
X520773Y96850D01*
X520776Y96844D01*
X520830Y96794D01*
X522900Y95394D01*
X522927Y95385D01*
X522949Y95368D01*
X522992Y95364D01*
X523033Y95351D01*
X523060Y95358D01*
G37*
G36*
X26540Y95358D02*
X26540Y95358D01*
X26568Y95355D01*
X26607Y95375D01*
X26649Y95387D01*
X26667Y95407D01*
X26692Y95420D01*
X26738Y95479D01*
X27498Y96840D01*
X27500Y96851D01*
X27518Y96887D01*
X27987Y98374D01*
X27987Y98384D01*
X27997Y98423D01*
X28155Y99975D01*
X28153Y99985D01*
X28155Y100025D01*
X27997Y101577D01*
X27993Y101586D01*
X27987Y101626D01*
X27518Y103113D01*
X27512Y103122D01*
X27498Y103160D01*
X26738Y104521D01*
X26718Y104541D01*
X26706Y104566D01*
X26669Y104589D01*
X26638Y104620D01*
X26611Y104625D01*
X26587Y104640D01*
X26544Y104640D01*
X26501Y104649D01*
X26475Y104639D01*
X26447Y104638D01*
X26380Y104606D01*
X24310Y103206D01*
X24306Y103202D01*
X24300Y103199D01*
X24262Y103148D01*
X24221Y103099D01*
X24220Y103093D01*
X24217Y103088D01*
X24212Y103024D01*
X24204Y102960D01*
X24207Y102954D01*
X24206Y102948D01*
X24232Y102879D01*
X24738Y101972D01*
X25042Y101007D01*
X25145Y100000D01*
X25042Y98993D01*
X24738Y98028D01*
X24232Y97121D01*
X24231Y97115D01*
X24227Y97111D01*
X24215Y97048D01*
X24201Y96985D01*
X24203Y96979D01*
X24202Y96973D01*
X24227Y96914D01*
X24248Y96854D01*
X24253Y96850D01*
X24256Y96844D01*
X24310Y96794D01*
X26380Y95394D01*
X26407Y95385D01*
X26429Y95368D01*
X26472Y95364D01*
X26513Y95351D01*
X26540Y95358D01*
G37*
G36*
X1019580Y95358D02*
X1019580Y95358D01*
X1019608Y95355D01*
X1019647Y95375D01*
X1019689Y95387D01*
X1019707Y95407D01*
X1019732Y95420D01*
X1019778Y95479D01*
X1020538Y96840D01*
X1020540Y96851D01*
X1020558Y96887D01*
X1021027Y98374D01*
X1021027Y98384D01*
X1021037Y98423D01*
X1021195Y99975D01*
X1021193Y99985D01*
X1021195Y100025D01*
X1021037Y101577D01*
X1021033Y101586D01*
X1021027Y101626D01*
X1020558Y103113D01*
X1020552Y103122D01*
X1020538Y103160D01*
X1019778Y104521D01*
X1019758Y104541D01*
X1019746Y104566D01*
X1019709Y104589D01*
X1019678Y104620D01*
X1019651Y104625D01*
X1019627Y104640D01*
X1019584Y104640D01*
X1019541Y104649D01*
X1019515Y104639D01*
X1019487Y104638D01*
X1019420Y104606D01*
X1017350Y103206D01*
X1017346Y103202D01*
X1017340Y103199D01*
X1017302Y103148D01*
X1017261Y103099D01*
X1017260Y103093D01*
X1017257Y103088D01*
X1017252Y103024D01*
X1017244Y102960D01*
X1017247Y102954D01*
X1017246Y102948D01*
X1017272Y102879D01*
X1017778Y101972D01*
X1018082Y101007D01*
X1018185Y100000D01*
X1018082Y98993D01*
X1017778Y98028D01*
X1017272Y97121D01*
X1017271Y97115D01*
X1017267Y97111D01*
X1017255Y97048D01*
X1017241Y96985D01*
X1017243Y96979D01*
X1017242Y96973D01*
X1017267Y96914D01*
X1017288Y96854D01*
X1017293Y96850D01*
X1017296Y96844D01*
X1017350Y96794D01*
X1019420Y95394D01*
X1019447Y95385D01*
X1019469Y95368D01*
X1019512Y95364D01*
X1019553Y95351D01*
X1019580Y95358D01*
G37*
G36*
X1019580Y1105518D02*
X1019580Y1105518D01*
X1019608Y1105515D01*
X1019647Y1105535D01*
X1019689Y1105546D01*
X1019707Y1105567D01*
X1019732Y1105580D01*
X1019778Y1105638D01*
X1020538Y1107000D01*
X1020540Y1107010D01*
X1020558Y1107047D01*
X1021027Y1108534D01*
X1021027Y1108544D01*
X1021037Y1108583D01*
X1021195Y1110135D01*
X1021193Y1110145D01*
X1021195Y1110185D01*
X1021037Y1111737D01*
X1021033Y1111746D01*
X1021027Y1111786D01*
X1020558Y1113273D01*
X1020552Y1113282D01*
X1020538Y1113320D01*
X1019778Y1114681D01*
X1019758Y1114701D01*
X1019746Y1114726D01*
X1019709Y1114749D01*
X1019678Y1114779D01*
X1019651Y1114785D01*
X1019627Y1114800D01*
X1019584Y1114799D01*
X1019541Y1114808D01*
X1019515Y1114799D01*
X1019487Y1114798D01*
X1019420Y1114766D01*
X1017350Y1113366D01*
X1017346Y1113362D01*
X1017340Y1113359D01*
X1017302Y1113308D01*
X1017261Y1113259D01*
X1017260Y1113253D01*
X1017257Y1113247D01*
X1017252Y1113184D01*
X1017244Y1113120D01*
X1017247Y1113114D01*
X1017246Y1113108D01*
X1017272Y1113038D01*
X1017778Y1112132D01*
X1018082Y1111167D01*
X1018185Y1110160D01*
X1018082Y1109153D01*
X1017778Y1108188D01*
X1017272Y1107281D01*
X1017271Y1107275D01*
X1017267Y1107271D01*
X1017255Y1107208D01*
X1017241Y1107145D01*
X1017243Y1107139D01*
X1017242Y1107133D01*
X1017267Y1107074D01*
X1017288Y1107014D01*
X1017293Y1107010D01*
X1017296Y1107004D01*
X1017350Y1106953D01*
X1019420Y1105553D01*
X1019447Y1105545D01*
X1019469Y1105528D01*
X1019512Y1105524D01*
X1019553Y1105511D01*
X1019580Y1105518D01*
G37*
G36*
X26540Y1105518D02*
X26540Y1105518D01*
X26568Y1105515D01*
X26607Y1105535D01*
X26649Y1105546D01*
X26667Y1105567D01*
X26692Y1105580D01*
X26738Y1105638D01*
X27498Y1107000D01*
X27500Y1107010D01*
X27518Y1107047D01*
X27987Y1108534D01*
X27987Y1108544D01*
X27997Y1108583D01*
X28155Y1110135D01*
X28153Y1110145D01*
X28155Y1110185D01*
X27997Y1111737D01*
X27993Y1111746D01*
X27987Y1111786D01*
X27518Y1113273D01*
X27512Y1113282D01*
X27498Y1113320D01*
X26738Y1114681D01*
X26718Y1114701D01*
X26706Y1114726D01*
X26669Y1114749D01*
X26638Y1114779D01*
X26611Y1114785D01*
X26587Y1114800D01*
X26544Y1114799D01*
X26501Y1114808D01*
X26475Y1114799D01*
X26447Y1114798D01*
X26380Y1114766D01*
X24310Y1113366D01*
X24306Y1113362D01*
X24300Y1113359D01*
X24262Y1113308D01*
X24221Y1113259D01*
X24220Y1113253D01*
X24217Y1113247D01*
X24212Y1113184D01*
X24204Y1113120D01*
X24207Y1113114D01*
X24206Y1113108D01*
X24232Y1113038D01*
X24738Y1112132D01*
X25042Y1111167D01*
X25145Y1110160D01*
X25042Y1109153D01*
X24738Y1108188D01*
X24232Y1107281D01*
X24231Y1107275D01*
X24227Y1107271D01*
X24215Y1107208D01*
X24201Y1107145D01*
X24203Y1107139D01*
X24202Y1107133D01*
X24227Y1107074D01*
X24248Y1107014D01*
X24253Y1107010D01*
X24256Y1107004D01*
X24310Y1106953D01*
X26380Y1105553D01*
X26407Y1105545D01*
X26429Y1105528D01*
X26472Y1105524D01*
X26513Y1105511D01*
X26540Y1105518D01*
G37*
G36*
X23021Y104203D02*
X23021Y104203D01*
X23027Y104202D01*
X23086Y104227D01*
X23146Y104248D01*
X23150Y104253D01*
X23156Y104256D01*
X23206Y104310D01*
X24606Y106380D01*
X24615Y106407D01*
X24632Y106429D01*
X24636Y106472D01*
X24649Y106513D01*
X24642Y106540D01*
X24645Y106568D01*
X24625Y106607D01*
X24614Y106649D01*
X24593Y106667D01*
X24580Y106692D01*
X24521Y106738D01*
X23160Y107498D01*
X23149Y107500D01*
X23113Y107518D01*
X21626Y107987D01*
X21616Y107987D01*
X21577Y107997D01*
X20025Y108155D01*
X20015Y108153D01*
X19975Y108155D01*
X18423Y107997D01*
X18414Y107993D01*
X18374Y107987D01*
X16887Y107518D01*
X16878Y107512D01*
X16840Y107498D01*
X15479Y106738D01*
X15459Y106718D01*
X15434Y106706D01*
X15411Y106669D01*
X15380Y106638D01*
X15375Y106611D01*
X15360Y106587D01*
X15360Y106544D01*
X15351Y106501D01*
X15361Y106475D01*
X15362Y106447D01*
X15394Y106380D01*
X16794Y104310D01*
X16798Y104306D01*
X16801Y104300D01*
X16852Y104262D01*
X16901Y104221D01*
X16907Y104220D01*
X16912Y104217D01*
X16976Y104212D01*
X17040Y104204D01*
X17046Y104207D01*
X17052Y104206D01*
X17121Y104232D01*
X18028Y104738D01*
X18993Y105042D01*
X20000Y105145D01*
X21007Y105042D01*
X21972Y104738D01*
X22879Y104232D01*
X22885Y104231D01*
X22889Y104227D01*
X22952Y104215D01*
X23015Y104201D01*
X23021Y104203D01*
G37*
D10*
X65000Y187300D03*
X65000Y161900D03*
X65000Y136500D03*
X65000Y212700D03*
X65000Y238100D03*
X65000Y263500D03*
D11*
X250000Y182500D03*
X250000Y157500D03*
D12*
X230000Y165000D03*
X230000Y155000D03*
X230000Y175000D03*
X230000Y185000D03*
D13*
X197500Y102500D03*
X202500Y102500D03*
X202500Y117500D03*
X197500Y117500D03*
D14*
X192500Y117500D03*
X192500Y112500D03*
X192500Y102500D03*
X192500Y107500D03*
X207500Y102500D03*
X207500Y107500D03*
X207500Y112500D03*
X207500Y117500D03*
D15*
X240000Y118500D03*
X240000Y101500D03*
D12*
X225000Y115000D03*
X225000Y105000D03*
D15*
X250000Y318500D03*
X250000Y301500D03*
X270000Y318500D03*
X270000Y301500D03*
D16*
X168500Y120000D03*
X151500Y120000D03*
X168500Y100000D03*
X151500Y100000D03*
D17*
X121500Y165000D03*
X98500Y165000D03*
X121500Y185000D03*
X98500Y185000D03*
D18*
X180500Y276999D03*
X190000Y276999D03*
X199500Y276999D03*
X199500Y303001D03*
X180500Y303001D03*
D12*
X210000Y295000D03*
X210000Y285000D03*
X185000Y315000D03*
X195000Y315000D03*
D19*
X173500Y34730D02*
X166500Y34730D01*
X173500Y34730D02*
X173500Y27730D01*
X166500Y27730D01*
X166500Y34730D01*
X166500Y30580D02*
X173500Y30580D01*
X173500Y33430D02*
X166500Y33430D01*
X166500Y52270D02*
X173500Y52270D01*
X173500Y45270D01*
X166500Y45270D01*
X166500Y52270D01*
X166500Y48120D02*
X173500Y48120D01*
X173500Y50970D02*
X166500Y50970D01*
X153500Y34730D02*
X146500Y34730D01*
X153500Y34730D02*
X153500Y27730D01*
X146500Y27730D01*
X146500Y34730D01*
X146500Y30580D02*
X153500Y30580D01*
X153500Y33430D02*
X146500Y33430D01*
X146500Y52270D02*
X153500Y52270D01*
X153500Y45270D01*
X146500Y45270D01*
X146500Y52270D01*
X146500Y48120D02*
X153500Y48120D01*
X153500Y50970D02*
X146500Y50970D01*
X206500Y34730D02*
X213500Y34730D01*
X213500Y27730D01*
X206500Y27730D01*
X206500Y34730D01*
X206500Y30580D02*
X213500Y30580D01*
X213500Y33430D02*
X206500Y33430D01*
X206500Y52270D02*
X213500Y52270D01*
X213500Y45270D01*
X206500Y45270D01*
X206500Y52270D01*
X206500Y48120D02*
X213500Y48120D01*
X213500Y50970D02*
X206500Y50970D01*
X193500Y34730D02*
X186500Y34730D01*
X193500Y34730D02*
X193500Y27730D01*
X186500Y27730D01*
X186500Y34730D01*
X186500Y30580D02*
X193500Y30580D01*
X193500Y33430D02*
X186500Y33430D01*
X186500Y52270D02*
X193500Y52270D01*
X193500Y45270D01*
X186500Y45270D01*
X186500Y52270D01*
X186500Y48120D02*
X193500Y48120D01*
X193500Y50970D02*
X186500Y50970D01*
D15*
X170000Y61500D03*
X170000Y78500D03*
X150000Y61500D03*
X150000Y78500D03*
X210000Y61500D03*
X210000Y78500D03*
X190000Y61500D03*
X190000Y78500D03*
D12*
X185000Y263000D03*
X195000Y263000D03*
D20*
X386750Y262000D03*
X386750Y318000D03*
D21*
X350000Y275000D03*
X350000Y285000D03*
X350000Y295000D03*
X350000Y305000D03*
D12*
X210000Y145000D03*
X210000Y135000D03*
X190000Y145000D03*
X190000Y135000D03*
D22*
X395000Y245000D03*
X390000Y237000D03*
X385000Y245000D03*
X380000Y237000D03*
X375000Y245000D03*
X370000Y237000D03*
X365000Y245000D03*
X360000Y237000D03*
X355000Y245000D03*
X350000Y237000D03*
X345000Y245000D03*
X340000Y237000D03*
X335000Y245000D03*
X330000Y237000D03*
X325000Y245000D03*
X320000Y237000D03*
X315000Y245000D03*
X310000Y237000D03*
X305000Y245000D03*
X300000Y237000D03*
X295000Y245000D03*
D12*
X285000Y245000D03*
D23*
X285000Y235000D03*
X293000Y230000D03*
X285000Y225000D03*
X293000Y220000D03*
X285000Y215000D03*
X293000Y210000D03*
X285000Y205000D03*
X293000Y200000D03*
X285000Y195000D03*
X293000Y190000D03*
X285000Y185000D03*
X293000Y180000D03*
X285000Y175000D03*
X293000Y170000D03*
X285000Y165000D03*
D12*
X285000Y155000D03*
D22*
X295000Y155000D03*
X300000Y163000D03*
X305000Y155000D03*
X310000Y163000D03*
X315000Y155000D03*
X320000Y163000D03*
X325000Y155000D03*
X330000Y163000D03*
X335000Y155000D03*
X340000Y163000D03*
X345000Y155000D03*
X350000Y163000D03*
X355000Y155000D03*
X360000Y163000D03*
X365000Y155000D03*
X370000Y163000D03*
X375000Y155000D03*
X380000Y163000D03*
X385000Y155000D03*
X390000Y163000D03*
X395000Y155000D03*
D24*
X33000Y291000D03*
X43000Y291000D03*
X43000Y309000D03*
X33000Y309000D03*
D25*
X13500Y300000D03*
D26*
X20000Y306500D03*
X20000Y293500D03*
D25*
X26500Y300000D03*
D27*
X59500Y332000D03*
X59500Y348000D03*
X100500Y348000D03*
X100500Y332000D03*
D16*
X118500Y215000D03*
X101500Y215000D03*
X101500Y230000D03*
X118500Y230000D03*
X101500Y275000D03*
X118500Y275000D03*
X101500Y260000D03*
X118500Y260000D03*
X118500Y245000D03*
X101500Y245000D03*
X118500Y200000D03*
X101500Y200000D03*
D12*
X55000Y295000D03*
X55000Y305000D03*
X267000Y169000D03*
X267000Y159000D03*
D16*
X248500Y135000D03*
X231500Y135000D03*
D12*
X267000Y151000D03*
X267000Y141000D03*
D24*
X33000Y91000D03*
X43000Y91000D03*
X43000Y109000D03*
X33000Y109000D03*
D25*
X13500Y100000D03*
D26*
X20000Y106500D03*
X20000Y93500D03*
D25*
X26500Y100000D03*
D12*
X55000Y95000D03*
X55000Y105000D03*
D28*
X142500Y346000D03*
D29*
X268250Y358500D03*
D30*
X281500Y355000D03*
X118500Y355000D03*
D29*
X131750Y358500D03*
D28*
X147500Y346000D03*
X152500Y346000D03*
X157500Y346000D03*
X162500Y346000D03*
X167500Y346000D03*
X172500Y346000D03*
X177500Y346000D03*
X182500Y346000D03*
X187500Y346000D03*
X192500Y346000D03*
X197500Y346000D03*
X202500Y346000D03*
X207500Y346000D03*
X212500Y346000D03*
X217500Y346000D03*
X222500Y346000D03*
X227500Y346000D03*
X232500Y346000D03*
X237500Y346000D03*
X242500Y346000D03*
X247500Y346000D03*
X252500Y346000D03*
X257500Y346000D03*
D10*
X561520Y187300D03*
X561520Y161900D03*
X561520Y136500D03*
X561520Y212700D03*
X561520Y238100D03*
X561520Y263500D03*
D11*
X746520Y182500D03*
X746520Y157500D03*
D12*
X726520Y165000D03*
X726520Y155000D03*
X726520Y175000D03*
X726520Y185000D03*
D13*
X694020Y102500D03*
X699020Y102500D03*
X699020Y117500D03*
X694020Y117500D03*
D14*
X689020Y117500D03*
X689020Y112500D03*
X689020Y102500D03*
X689020Y107500D03*
X704020Y102500D03*
X704020Y107500D03*
X704020Y112500D03*
X704020Y117500D03*
D15*
X736520Y118500D03*
X736520Y101500D03*
D12*
X721520Y115000D03*
X721520Y105000D03*
D15*
X746520Y318500D03*
X746520Y301500D03*
X766520Y318500D03*
X766520Y301500D03*
D16*
X665020Y120000D03*
X648020Y120000D03*
X665020Y100000D03*
X648020Y100000D03*
D17*
X618020Y165000D03*
X595020Y165000D03*
X618020Y185000D03*
X595020Y185000D03*
D18*
X677020Y276999D03*
X686520Y276999D03*
X696020Y276999D03*
X696020Y303001D03*
X677020Y303001D03*
D12*
X706520Y295000D03*
X706520Y285000D03*
X681520Y315000D03*
X691520Y315000D03*
D19*
X670020Y34730D02*
X663020Y34730D01*
X670020Y34730D02*
X670020Y27730D01*
X663020Y27730D01*
X663020Y34730D01*
X663020Y30580D02*
X670020Y30580D01*
X670020Y33430D02*
X663020Y33430D01*
X663020Y52270D02*
X670020Y52270D01*
X670020Y45270D01*
X663020Y45270D01*
X663020Y52270D01*
X663020Y48120D02*
X670020Y48120D01*
X670020Y50970D02*
X663020Y50970D01*
X650020Y34730D02*
X643020Y34730D01*
X650020Y34730D02*
X650020Y27730D01*
X643020Y27730D01*
X643020Y34730D01*
X643020Y30580D02*
X650020Y30580D01*
X650020Y33430D02*
X643020Y33430D01*
X643020Y52270D02*
X650020Y52270D01*
X650020Y45270D01*
X643020Y45270D01*
X643020Y52270D01*
X643020Y48120D02*
X650020Y48120D01*
X650020Y50970D02*
X643020Y50970D01*
X703020Y34730D02*
X710020Y34730D01*
X710020Y27730D01*
X703020Y27730D01*
X703020Y34730D01*
X703020Y30580D02*
X710020Y30580D01*
X710020Y33430D02*
X703020Y33430D01*
X703020Y52270D02*
X710020Y52270D01*
X710020Y45270D01*
X703020Y45270D01*
X703020Y52270D01*
X703020Y48120D02*
X710020Y48120D01*
X710020Y50970D02*
X703020Y50970D01*
X690020Y34730D02*
X683020Y34730D01*
X690020Y34730D02*
X690020Y27730D01*
X683020Y27730D01*
X683020Y34730D01*
X683020Y30580D02*
X690020Y30580D01*
X690020Y33430D02*
X683020Y33430D01*
X683020Y52270D02*
X690020Y52270D01*
X690020Y45270D01*
X683020Y45270D01*
X683020Y52270D01*
X683020Y48120D02*
X690020Y48120D01*
X690020Y50970D02*
X683020Y50970D01*
D15*
X666520Y61500D03*
X666520Y78500D03*
X646520Y61500D03*
X646520Y78500D03*
X706520Y61500D03*
X706520Y78500D03*
X686520Y61500D03*
X686520Y78500D03*
D12*
X681520Y263000D03*
X691520Y263000D03*
D20*
X883270Y262000D03*
X883270Y318000D03*
D21*
X846520Y275000D03*
X846520Y285000D03*
X846520Y295000D03*
X846520Y305000D03*
D12*
X706520Y145000D03*
X706520Y135000D03*
X686520Y145000D03*
X686520Y135000D03*
D22*
X891520Y245000D03*
X886520Y237000D03*
X881520Y245000D03*
X876520Y237000D03*
X871520Y245000D03*
X866520Y237000D03*
X861520Y245000D03*
X856520Y237000D03*
X851520Y245000D03*
X846520Y237000D03*
X841520Y245000D03*
X836520Y237000D03*
X831520Y245000D03*
X826520Y237000D03*
X821520Y245000D03*
X816520Y237000D03*
X811520Y245000D03*
X806520Y237000D03*
X801520Y245000D03*
X796520Y237000D03*
X791520Y245000D03*
D12*
X781520Y245000D03*
D23*
X781520Y235000D03*
X789520Y230000D03*
X781520Y225000D03*
X789520Y220000D03*
X781520Y215000D03*
X789520Y210000D03*
X781520Y205000D03*
X789520Y200000D03*
X781520Y195000D03*
X789520Y190000D03*
X781520Y185000D03*
X789520Y180000D03*
X781520Y175000D03*
X789520Y170000D03*
X781520Y165000D03*
D12*
X781520Y155000D03*
D22*
X791520Y155000D03*
X796520Y163000D03*
X801520Y155000D03*
X806520Y163000D03*
X811520Y155000D03*
X816520Y163000D03*
X821520Y155000D03*
X826520Y163000D03*
X831520Y155000D03*
X836520Y163000D03*
X841520Y155000D03*
X846520Y163000D03*
X851520Y155000D03*
X856520Y163000D03*
X861520Y155000D03*
X866520Y163000D03*
X871520Y155000D03*
X876520Y163000D03*
X881520Y155000D03*
X886520Y163000D03*
X891520Y155000D03*
D24*
X529520Y291000D03*
X539520Y291000D03*
X539520Y309000D03*
X529520Y309000D03*
D25*
X510020Y300000D03*
D26*
X516520Y306500D03*
X516520Y293500D03*
D25*
X523020Y300000D03*
D27*
X556020Y332000D03*
X556020Y348000D03*
X597020Y348000D03*
X597020Y332000D03*
D16*
X615020Y215000D03*
X598020Y215000D03*
X598020Y230000D03*
X615020Y230000D03*
X598020Y275000D03*
X615020Y275000D03*
X598020Y260000D03*
X615020Y260000D03*
X615020Y245000D03*
X598020Y245000D03*
X615020Y200000D03*
X598020Y200000D03*
D12*
X551520Y295000D03*
X551520Y305000D03*
X763520Y169000D03*
X763520Y159000D03*
D16*
X745020Y135000D03*
X728020Y135000D03*
D12*
X763520Y151000D03*
X763520Y141000D03*
D24*
X529520Y91000D03*
X539520Y91000D03*
X539520Y109000D03*
X529520Y109000D03*
D25*
X510020Y100000D03*
D26*
X516520Y106500D03*
X516520Y93500D03*
D25*
X523020Y100000D03*
D12*
X551520Y95000D03*
X551520Y105000D03*
D28*
X639020Y346000D03*
D29*
X764770Y358500D03*
D30*
X778020Y355000D03*
X615020Y355000D03*
D29*
X628270Y358500D03*
D28*
X644020Y346000D03*
X649020Y346000D03*
X654020Y346000D03*
X659020Y346000D03*
X664020Y346000D03*
X669020Y346000D03*
X674020Y346000D03*
X679020Y346000D03*
X684020Y346000D03*
X689020Y346000D03*
X694020Y346000D03*
X699020Y346000D03*
X704020Y346000D03*
X709020Y346000D03*
X714020Y346000D03*
X719020Y346000D03*
X724020Y346000D03*
X729020Y346000D03*
X734020Y346000D03*
X739020Y346000D03*
X744020Y346000D03*
X749020Y346000D03*
X754020Y346000D03*
D10*
X1058040Y187300D03*
X1058040Y161900D03*
X1058040Y136500D03*
X1058040Y212700D03*
X1058040Y238100D03*
X1058040Y263500D03*
D11*
X1243040Y182500D03*
X1243040Y157500D03*
D12*
X1223040Y165000D03*
X1223040Y155000D03*
X1223040Y175000D03*
X1223040Y185000D03*
D13*
X1190540Y102500D03*
X1195540Y102500D03*
X1195540Y117500D03*
X1190540Y117500D03*
D14*
X1185540Y117500D03*
X1185540Y112500D03*
X1185540Y102500D03*
X1185540Y107500D03*
X1200540Y102500D03*
X1200540Y107500D03*
X1200540Y112500D03*
X1200540Y117500D03*
D15*
X1233040Y118500D03*
X1233040Y101500D03*
D12*
X1218040Y115000D03*
X1218040Y105000D03*
D15*
X1243040Y318500D03*
X1243040Y301500D03*
X1263040Y318500D03*
X1263040Y301500D03*
D16*
X1161540Y120000D03*
X1144540Y120000D03*
X1161540Y100000D03*
X1144540Y100000D03*
D17*
X1114540Y165000D03*
X1091540Y165000D03*
X1114540Y185000D03*
X1091540Y185000D03*
D18*
X1173540Y276999D03*
X1183040Y276999D03*
X1192540Y276999D03*
X1192540Y303001D03*
X1173540Y303001D03*
D12*
X1203040Y295000D03*
X1203040Y285000D03*
X1178040Y315000D03*
X1188040Y315000D03*
D19*
X1166540Y34730D02*
X1159540Y34730D01*
X1166540Y34730D02*
X1166540Y27730D01*
X1159540Y27730D01*
X1159540Y34730D01*
X1159540Y30580D02*
X1166540Y30580D01*
X1166540Y33430D02*
X1159540Y33430D01*
X1159540Y52270D02*
X1166540Y52270D01*
X1166540Y45270D01*
X1159540Y45270D01*
X1159540Y52270D01*
X1159540Y48120D02*
X1166540Y48120D01*
X1166540Y50970D02*
X1159540Y50970D01*
X1146540Y34730D02*
X1139540Y34730D01*
X1146540Y34730D02*
X1146540Y27730D01*
X1139540Y27730D01*
X1139540Y34730D01*
X1139540Y30580D02*
X1146540Y30580D01*
X1146540Y33430D02*
X1139540Y33430D01*
X1139540Y52270D02*
X1146540Y52270D01*
X1146540Y45270D01*
X1139540Y45270D01*
X1139540Y52270D01*
X1139540Y48120D02*
X1146540Y48120D01*
X1146540Y50970D02*
X1139540Y50970D01*
X1199540Y34730D02*
X1206540Y34730D01*
X1206540Y27730D01*
X1199540Y27730D01*
X1199540Y34730D01*
X1199540Y30580D02*
X1206540Y30580D01*
X1206540Y33430D02*
X1199540Y33430D01*
X1199540Y52270D02*
X1206540Y52270D01*
X1206540Y45270D01*
X1199540Y45270D01*
X1199540Y52270D01*
X1199540Y48120D02*
X1206540Y48120D01*
X1206540Y50970D02*
X1199540Y50970D01*
X1186540Y34730D02*
X1179540Y34730D01*
X1186540Y34730D02*
X1186540Y27730D01*
X1179540Y27730D01*
X1179540Y34730D01*
X1179540Y30580D02*
X1186540Y30580D01*
X1186540Y33430D02*
X1179540Y33430D01*
X1179540Y52270D02*
X1186540Y52270D01*
X1186540Y45270D01*
X1179540Y45270D01*
X1179540Y52270D01*
X1179540Y48120D02*
X1186540Y48120D01*
X1186540Y50970D02*
X1179540Y50970D01*
D15*
X1163040Y61500D03*
X1163040Y78500D03*
X1143040Y61500D03*
X1143040Y78500D03*
X1203040Y61500D03*
X1203040Y78500D03*
X1183040Y61500D03*
X1183040Y78500D03*
D12*
X1178040Y263000D03*
X1188040Y263000D03*
D20*
X1379790Y262000D03*
X1379790Y318000D03*
D21*
X1343040Y275000D03*
X1343040Y285000D03*
X1343040Y295000D03*
X1343040Y305000D03*
D12*
X1203040Y145000D03*
X1203040Y135000D03*
X1183040Y145000D03*
X1183040Y135000D03*
D22*
X1388040Y245000D03*
X1383040Y237000D03*
X1378040Y245000D03*
X1373040Y237000D03*
X1368040Y245000D03*
X1363040Y237000D03*
X1358040Y245000D03*
X1353040Y237000D03*
X1348040Y245000D03*
X1343040Y237000D03*
X1338040Y245000D03*
X1333040Y237000D03*
X1328040Y245000D03*
X1323040Y237000D03*
X1318040Y245000D03*
X1313040Y237000D03*
X1308040Y245000D03*
X1303040Y237000D03*
X1298040Y245000D03*
X1293040Y237000D03*
X1288040Y245000D03*
D12*
X1278040Y245000D03*
D23*
X1278040Y235000D03*
X1286040Y230000D03*
X1278040Y225000D03*
X1286040Y220000D03*
X1278040Y215000D03*
X1286040Y210000D03*
X1278040Y205000D03*
X1286040Y200000D03*
X1278040Y195000D03*
X1286040Y190000D03*
X1278040Y185000D03*
X1286040Y180000D03*
X1278040Y175000D03*
X1286040Y170000D03*
X1278040Y165000D03*
D12*
X1278040Y155000D03*
D22*
X1288040Y155000D03*
X1293040Y163000D03*
X1298040Y155000D03*
X1303040Y163000D03*
X1308040Y155000D03*
X1313040Y163000D03*
X1318040Y155000D03*
X1323040Y163000D03*
X1328040Y155000D03*
X1333040Y163000D03*
X1338040Y155000D03*
X1343040Y163000D03*
X1348040Y155000D03*
X1353040Y163000D03*
X1358040Y155000D03*
X1363040Y163000D03*
X1368040Y155000D03*
X1373040Y163000D03*
X1378040Y155000D03*
X1383040Y163000D03*
X1388040Y155000D03*
D24*
X1026040Y291000D03*
X1036040Y291000D03*
X1036040Y309000D03*
X1026040Y309000D03*
D25*
X1006540Y300000D03*
D26*
X1013040Y306500D03*
X1013040Y293500D03*
D25*
X1019540Y300000D03*
D27*
X1052540Y332000D03*
X1052540Y348000D03*
X1093540Y348000D03*
X1093540Y332000D03*
D16*
X1111540Y215000D03*
X1094540Y215000D03*
X1094540Y230000D03*
X1111540Y230000D03*
X1094540Y275000D03*
X1111540Y275000D03*
X1094540Y260000D03*
X1111540Y260000D03*
X1111540Y245000D03*
X1094540Y245000D03*
X1111540Y200000D03*
X1094540Y200000D03*
D12*
X1048040Y295000D03*
X1048040Y305000D03*
X1260040Y169000D03*
X1260040Y159000D03*
D16*
X1241540Y135000D03*
X1224540Y135000D03*
D12*
X1260040Y151000D03*
X1260040Y141000D03*
D24*
X1026040Y91000D03*
X1036040Y91000D03*
X1036040Y109000D03*
X1026040Y109000D03*
D25*
X1006540Y100000D03*
D26*
X1013040Y106500D03*
X1013040Y93500D03*
D25*
X1019540Y100000D03*
D12*
X1048040Y95000D03*
X1048040Y105000D03*
D28*
X1135540Y346000D03*
D29*
X1261290Y358500D03*
D30*
X1274540Y355000D03*
X1111540Y355000D03*
D29*
X1124790Y358500D03*
D28*
X1140540Y346000D03*
X1145540Y346000D03*
X1150540Y346000D03*
X1155540Y346000D03*
X1160540Y346000D03*
X1165540Y346000D03*
X1170540Y346000D03*
X1175540Y346000D03*
X1180540Y346000D03*
X1185540Y346000D03*
X1190540Y346000D03*
X1195540Y346000D03*
X1200540Y346000D03*
X1205540Y346000D03*
X1210540Y346000D03*
X1215540Y346000D03*
X1220540Y346000D03*
X1225540Y346000D03*
X1230540Y346000D03*
X1235540Y346000D03*
X1240540Y346000D03*
X1245540Y346000D03*
X1250540Y346000D03*
D10*
X65000Y592380D03*
X65000Y566980D03*
X65000Y541580D03*
X65000Y617780D03*
X65000Y643180D03*
X65000Y668580D03*
D11*
X250000Y587580D03*
X250000Y562580D03*
D12*
X230000Y570080D03*
X230000Y560080D03*
X230000Y580080D03*
X230000Y590080D03*
D13*
X197500Y507580D03*
X202500Y507580D03*
X202500Y522580D03*
X197500Y522580D03*
D14*
X192500Y522580D03*
X192500Y517580D03*
X192500Y507580D03*
X192500Y512580D03*
X207500Y507580D03*
X207500Y512580D03*
X207500Y517580D03*
X207500Y522580D03*
D15*
X240000Y523580D03*
X240000Y506580D03*
D12*
X225000Y520080D03*
X225000Y510080D03*
D15*
X250000Y723580D03*
X250000Y706580D03*
X270000Y723580D03*
X270000Y706580D03*
D16*
X168500Y525080D03*
X151500Y525080D03*
X168500Y505080D03*
X151500Y505080D03*
D17*
X121500Y570080D03*
X98500Y570080D03*
X121500Y590080D03*
X98500Y590080D03*
D18*
X180500Y682079D03*
X190000Y682079D03*
X199500Y682079D03*
X199500Y708081D03*
X180500Y708081D03*
D12*
X210000Y700080D03*
X210000Y690080D03*
X185000Y720080D03*
X195000Y720080D03*
D19*
X173500Y439810D02*
X166500Y439810D01*
X173500Y439810D02*
X173500Y432810D01*
X166500Y432810D01*
X166500Y439810D01*
X166500Y435660D02*
X173500Y435660D01*
X173500Y438510D02*
X166500Y438510D01*
X166500Y457350D02*
X173500Y457350D01*
X173500Y450350D01*
X166500Y450350D01*
X166500Y457350D01*
X166500Y453200D02*
X173500Y453200D01*
X173500Y456050D02*
X166500Y456050D01*
X153500Y439810D02*
X146500Y439810D01*
X153500Y439810D02*
X153500Y432810D01*
X146500Y432810D01*
X146500Y439810D01*
X146500Y435660D02*
X153500Y435660D01*
X153500Y438510D02*
X146500Y438510D01*
X146500Y457350D02*
X153500Y457350D01*
X153500Y450350D01*
X146500Y450350D01*
X146500Y457350D01*
X146500Y453200D02*
X153500Y453200D01*
X153500Y456050D02*
X146500Y456050D01*
X206500Y439810D02*
X213500Y439810D01*
X213500Y432810D01*
X206500Y432810D01*
X206500Y439810D01*
X206500Y435660D02*
X213500Y435660D01*
X213500Y438510D02*
X206500Y438510D01*
X206500Y457350D02*
X213500Y457350D01*
X213500Y450350D01*
X206500Y450350D01*
X206500Y457350D01*
X206500Y453200D02*
X213500Y453200D01*
X213500Y456050D02*
X206500Y456050D01*
X193500Y439810D02*
X186500Y439810D01*
X193500Y439810D02*
X193500Y432810D01*
X186500Y432810D01*
X186500Y439810D01*
X186500Y435660D02*
X193500Y435660D01*
X193500Y438510D02*
X186500Y438510D01*
X186500Y457350D02*
X193500Y457350D01*
X193500Y450350D01*
X186500Y450350D01*
X186500Y457350D01*
X186500Y453200D02*
X193500Y453200D01*
X193500Y456050D02*
X186500Y456050D01*
D15*
X170000Y466580D03*
X170000Y483580D03*
X150000Y466580D03*
X150000Y483580D03*
X210000Y466580D03*
X210000Y483580D03*
X190000Y466580D03*
X190000Y483580D03*
D12*
X185000Y668080D03*
X195000Y668080D03*
D20*
X386750Y667080D03*
X386750Y723080D03*
D21*
X350000Y680080D03*
X350000Y690080D03*
X350000Y700080D03*
X350000Y710080D03*
D12*
X210000Y550080D03*
X210000Y540080D03*
X190000Y550080D03*
X190000Y540080D03*
D22*
X395000Y650080D03*
X390000Y642080D03*
X385000Y650080D03*
X380000Y642080D03*
X375000Y650080D03*
X370000Y642080D03*
X365000Y650080D03*
X360000Y642080D03*
X355000Y650080D03*
X350000Y642080D03*
X345000Y650080D03*
X340000Y642080D03*
X335000Y650080D03*
X330000Y642080D03*
X325000Y650080D03*
X320000Y642080D03*
X315000Y650080D03*
X310000Y642080D03*
X305000Y650080D03*
X300000Y642080D03*
X295000Y650080D03*
D12*
X285000Y650080D03*
D23*
X285000Y640080D03*
X293000Y635080D03*
X285000Y630080D03*
X293000Y625080D03*
X285000Y620080D03*
X293000Y615080D03*
X285000Y610080D03*
X293000Y605080D03*
X285000Y600080D03*
X293000Y595080D03*
X285000Y590080D03*
X293000Y585080D03*
X285000Y580080D03*
X293000Y575080D03*
X285000Y570080D03*
D12*
X285000Y560080D03*
D22*
X295000Y560080D03*
X300000Y568080D03*
X305000Y560080D03*
X310000Y568080D03*
X315000Y560080D03*
X320000Y568080D03*
X325000Y560080D03*
X330000Y568080D03*
X335000Y560080D03*
X340000Y568080D03*
X345000Y560080D03*
X350000Y568080D03*
X355000Y560080D03*
X360000Y568080D03*
X365000Y560080D03*
X370000Y568080D03*
X375000Y560080D03*
X380000Y568080D03*
X385000Y560080D03*
X390000Y568080D03*
X395000Y560080D03*
D24*
X33000Y696080D03*
X43000Y696080D03*
X43000Y714080D03*
X33000Y714080D03*
D25*
X13500Y705080D03*
D26*
X20000Y711580D03*
X20000Y698580D03*
D25*
X26500Y705080D03*
D27*
X59500Y737080D03*
X59500Y753080D03*
X100500Y753080D03*
X100500Y737080D03*
D16*
X118500Y620080D03*
X101500Y620080D03*
X101500Y635080D03*
X118500Y635080D03*
X101500Y680080D03*
X118500Y680080D03*
X101500Y665080D03*
X118500Y665080D03*
X118500Y650080D03*
X101500Y650080D03*
X118500Y605080D03*
X101500Y605080D03*
D12*
X55000Y700080D03*
X55000Y710080D03*
X267000Y574080D03*
X267000Y564080D03*
D16*
X248500Y540080D03*
X231500Y540080D03*
D12*
X267000Y556080D03*
X267000Y546080D03*
D24*
X33000Y496080D03*
X43000Y496080D03*
X43000Y514080D03*
X33000Y514080D03*
D25*
X13500Y505080D03*
D26*
X20000Y511580D03*
X20000Y498580D03*
D25*
X26500Y505080D03*
D12*
X55000Y500080D03*
X55000Y510080D03*
D28*
X142500Y751080D03*
D29*
X268250Y763580D03*
D30*
X281500Y760080D03*
X118500Y760080D03*
D29*
X131750Y763580D03*
D28*
X147500Y751080D03*
X152500Y751080D03*
X157500Y751080D03*
X162500Y751080D03*
X167500Y751080D03*
X172500Y751080D03*
X177500Y751080D03*
X182500Y751080D03*
X187500Y751080D03*
X192500Y751080D03*
X197500Y751080D03*
X202500Y751080D03*
X207500Y751080D03*
X212500Y751080D03*
X217500Y751080D03*
X222500Y751080D03*
X227500Y751080D03*
X232500Y751080D03*
X237500Y751080D03*
X242500Y751080D03*
X247500Y751080D03*
X252500Y751080D03*
X257500Y751080D03*
D10*
X561520Y592380D03*
X561520Y566980D03*
X561520Y541580D03*
X561520Y617780D03*
X561520Y643180D03*
X561520Y668580D03*
D11*
X746520Y587580D03*
X746520Y562580D03*
D12*
X726520Y570080D03*
X726520Y560080D03*
X726520Y580080D03*
X726520Y590080D03*
D13*
X694020Y507580D03*
X699020Y507580D03*
X699020Y522580D03*
X694020Y522580D03*
D14*
X689020Y522580D03*
X689020Y517580D03*
X689020Y507580D03*
X689020Y512580D03*
X704020Y507580D03*
X704020Y512580D03*
X704020Y517580D03*
X704020Y522580D03*
D15*
X736520Y523580D03*
X736520Y506580D03*
D12*
X721520Y520080D03*
X721520Y510080D03*
D15*
X746520Y723580D03*
X746520Y706580D03*
X766520Y723580D03*
X766520Y706580D03*
D16*
X665020Y525080D03*
X648020Y525080D03*
X665020Y505080D03*
X648020Y505080D03*
D17*
X618020Y570080D03*
X595020Y570080D03*
X618020Y590080D03*
X595020Y590080D03*
D18*
X677020Y682079D03*
X686520Y682079D03*
X696020Y682079D03*
X696020Y708081D03*
X677020Y708081D03*
D12*
X706520Y700080D03*
X706520Y690080D03*
X681520Y720080D03*
X691520Y720080D03*
D19*
X670020Y439810D02*
X663020Y439810D01*
X670020Y439810D02*
X670020Y432810D01*
X663020Y432810D01*
X663020Y439810D01*
X663020Y435660D02*
X670020Y435660D01*
X670020Y438510D02*
X663020Y438510D01*
X663020Y457350D02*
X670020Y457350D01*
X670020Y450350D01*
X663020Y450350D01*
X663020Y457350D01*
X663020Y453200D02*
X670020Y453200D01*
X670020Y456050D02*
X663020Y456050D01*
X650020Y439810D02*
X643020Y439810D01*
X650020Y439810D02*
X650020Y432810D01*
X643020Y432810D01*
X643020Y439810D01*
X643020Y435660D02*
X650020Y435660D01*
X650020Y438510D02*
X643020Y438510D01*
X643020Y457350D02*
X650020Y457350D01*
X650020Y450350D01*
X643020Y450350D01*
X643020Y457350D01*
X643020Y453200D02*
X650020Y453200D01*
X650020Y456050D02*
X643020Y456050D01*
X703020Y439810D02*
X710020Y439810D01*
X710020Y432810D01*
X703020Y432810D01*
X703020Y439810D01*
X703020Y435660D02*
X710020Y435660D01*
X710020Y438510D02*
X703020Y438510D01*
X703020Y457350D02*
X710020Y457350D01*
X710020Y450350D01*
X703020Y450350D01*
X703020Y457350D01*
X703020Y453200D02*
X710020Y453200D01*
X710020Y456050D02*
X703020Y456050D01*
X690020Y439810D02*
X683020Y439810D01*
X690020Y439810D02*
X690020Y432810D01*
X683020Y432810D01*
X683020Y439810D01*
X683020Y435660D02*
X690020Y435660D01*
X690020Y438510D02*
X683020Y438510D01*
X683020Y457350D02*
X690020Y457350D01*
X690020Y450350D01*
X683020Y450350D01*
X683020Y457350D01*
X683020Y453200D02*
X690020Y453200D01*
X690020Y456050D02*
X683020Y456050D01*
D15*
X666520Y466580D03*
X666520Y483580D03*
X646520Y466580D03*
X646520Y483580D03*
X706520Y466580D03*
X706520Y483580D03*
X686520Y466580D03*
X686520Y483580D03*
D12*
X681520Y668080D03*
X691520Y668080D03*
D20*
X883270Y667080D03*
X883270Y723080D03*
D21*
X846520Y680080D03*
X846520Y690080D03*
X846520Y700080D03*
X846520Y710080D03*
D12*
X706520Y550080D03*
X706520Y540080D03*
X686520Y550080D03*
X686520Y540080D03*
D22*
X891520Y650080D03*
X886520Y642080D03*
X881520Y650080D03*
X876520Y642080D03*
X871520Y650080D03*
X866520Y642080D03*
X861520Y650080D03*
X856520Y642080D03*
X851520Y650080D03*
X846520Y642080D03*
X841520Y650080D03*
X836520Y642080D03*
X831520Y650080D03*
X826520Y642080D03*
X821520Y650080D03*
X816520Y642080D03*
X811520Y650080D03*
X806520Y642080D03*
X801520Y650080D03*
X796520Y642080D03*
X791520Y650080D03*
D12*
X781520Y650080D03*
D23*
X781520Y640080D03*
X789520Y635080D03*
X781520Y630080D03*
X789520Y625080D03*
X781520Y620080D03*
X789520Y615080D03*
X781520Y610080D03*
X789520Y605080D03*
X781520Y600080D03*
X789520Y595080D03*
X781520Y590080D03*
X789520Y585080D03*
X781520Y580080D03*
X789520Y575080D03*
X781520Y570080D03*
D12*
X781520Y560080D03*
D22*
X791520Y560080D03*
X796520Y568080D03*
X801520Y560080D03*
X806520Y568080D03*
X811520Y560080D03*
X816520Y568080D03*
X821520Y560080D03*
X826520Y568080D03*
X831520Y560080D03*
X836520Y568080D03*
X841520Y560080D03*
X846520Y568080D03*
X851520Y560080D03*
X856520Y568080D03*
X861520Y560080D03*
X866520Y568080D03*
X871520Y560080D03*
X876520Y568080D03*
X881520Y560080D03*
X886520Y568080D03*
X891520Y560080D03*
D24*
X529520Y696080D03*
X539520Y696080D03*
X539520Y714080D03*
X529520Y714080D03*
D25*
X510020Y705080D03*
D26*
X516520Y711580D03*
X516520Y698580D03*
D25*
X523020Y705080D03*
D27*
X556020Y737080D03*
X556020Y753080D03*
X597020Y753080D03*
X597020Y737080D03*
D16*
X615020Y620080D03*
X598020Y620080D03*
X598020Y635080D03*
X615020Y635080D03*
X598020Y680080D03*
X615020Y680080D03*
X598020Y665080D03*
X615020Y665080D03*
X615020Y650080D03*
X598020Y650080D03*
X615020Y605080D03*
X598020Y605080D03*
D12*
X551520Y700080D03*
X551520Y710080D03*
X763520Y574080D03*
X763520Y564080D03*
D16*
X745020Y540080D03*
X728020Y540080D03*
D12*
X763520Y556080D03*
X763520Y546080D03*
D24*
X529520Y496080D03*
X539520Y496080D03*
X539520Y514080D03*
X529520Y514080D03*
D25*
X510020Y505080D03*
D26*
X516520Y511580D03*
X516520Y498580D03*
D25*
X523020Y505080D03*
D12*
X551520Y500080D03*
X551520Y510080D03*
D28*
X639020Y751080D03*
D29*
X764770Y763580D03*
D30*
X778020Y760080D03*
X615020Y760080D03*
D29*
X628270Y763580D03*
D28*
X644020Y751080D03*
X649020Y751080D03*
X654020Y751080D03*
X659020Y751080D03*
X664020Y751080D03*
X669020Y751080D03*
X674020Y751080D03*
X679020Y751080D03*
X684020Y751080D03*
X689020Y751080D03*
X694020Y751080D03*
X699020Y751080D03*
X704020Y751080D03*
X709020Y751080D03*
X714020Y751080D03*
X719020Y751080D03*
X724020Y751080D03*
X729020Y751080D03*
X734020Y751080D03*
X739020Y751080D03*
X744020Y751080D03*
X749020Y751080D03*
X754020Y751080D03*
D10*
X1058040Y592380D03*
X1058040Y566980D03*
X1058040Y541580D03*
X1058040Y617780D03*
X1058040Y643180D03*
X1058040Y668580D03*
D11*
X1243040Y587580D03*
X1243040Y562580D03*
D12*
X1223040Y570080D03*
X1223040Y560080D03*
X1223040Y580080D03*
X1223040Y590080D03*
D13*
X1190540Y507580D03*
X1195540Y507580D03*
X1195540Y522580D03*
X1190540Y522580D03*
D14*
X1185540Y522580D03*
X1185540Y517580D03*
X1185540Y507580D03*
X1185540Y512580D03*
X1200540Y507580D03*
X1200540Y512580D03*
X1200540Y517580D03*
X1200540Y522580D03*
D15*
X1233040Y523580D03*
X1233040Y506580D03*
D12*
X1218040Y520080D03*
X1218040Y510080D03*
D15*
X1243040Y723580D03*
X1243040Y706580D03*
X1263040Y723580D03*
X1263040Y706580D03*
D16*
X1161540Y525080D03*
X1144540Y525080D03*
X1161540Y505080D03*
X1144540Y505080D03*
D17*
X1114540Y570080D03*
X1091540Y570080D03*
X1114540Y590080D03*
X1091540Y590080D03*
D18*
X1173540Y682079D03*
X1183040Y682079D03*
X1192540Y682079D03*
X1192540Y708081D03*
X1173540Y708081D03*
D12*
X1203040Y700080D03*
X1203040Y690080D03*
X1178040Y720080D03*
X1188040Y720080D03*
D19*
X1166540Y439810D02*
X1159540Y439810D01*
X1166540Y439810D02*
X1166540Y432810D01*
X1159540Y432810D01*
X1159540Y439810D01*
X1159540Y435660D02*
X1166540Y435660D01*
X1166540Y438510D02*
X1159540Y438510D01*
X1159540Y457350D02*
X1166540Y457350D01*
X1166540Y450350D01*
X1159540Y450350D01*
X1159540Y457350D01*
X1159540Y453200D02*
X1166540Y453200D01*
X1166540Y456050D02*
X1159540Y456050D01*
X1146540Y439810D02*
X1139540Y439810D01*
X1146540Y439810D02*
X1146540Y432810D01*
X1139540Y432810D01*
X1139540Y439810D01*
X1139540Y435660D02*
X1146540Y435660D01*
X1146540Y438510D02*
X1139540Y438510D01*
X1139540Y457350D02*
X1146540Y457350D01*
X1146540Y450350D01*
X1139540Y450350D01*
X1139540Y457350D01*
X1139540Y453200D02*
X1146540Y453200D01*
X1146540Y456050D02*
X1139540Y456050D01*
X1199540Y439810D02*
X1206540Y439810D01*
X1206540Y432810D01*
X1199540Y432810D01*
X1199540Y439810D01*
X1199540Y435660D02*
X1206540Y435660D01*
X1206540Y438510D02*
X1199540Y438510D01*
X1199540Y457350D02*
X1206540Y457350D01*
X1206540Y450350D01*
X1199540Y450350D01*
X1199540Y457350D01*
X1199540Y453200D02*
X1206540Y453200D01*
X1206540Y456050D02*
X1199540Y456050D01*
X1186540Y439810D02*
X1179540Y439810D01*
X1186540Y439810D02*
X1186540Y432810D01*
X1179540Y432810D01*
X1179540Y439810D01*
X1179540Y435660D02*
X1186540Y435660D01*
X1186540Y438510D02*
X1179540Y438510D01*
X1179540Y457350D02*
X1186540Y457350D01*
X1186540Y450350D01*
X1179540Y450350D01*
X1179540Y457350D01*
X1179540Y453200D02*
X1186540Y453200D01*
X1186540Y456050D02*
X1179540Y456050D01*
D15*
X1163040Y466580D03*
X1163040Y483580D03*
X1143040Y466580D03*
X1143040Y483580D03*
X1203040Y466580D03*
X1203040Y483580D03*
X1183040Y466580D03*
X1183040Y483580D03*
D12*
X1178040Y668080D03*
X1188040Y668080D03*
D20*
X1379790Y667080D03*
X1379790Y723080D03*
D21*
X1343040Y680080D03*
X1343040Y690080D03*
X1343040Y700080D03*
X1343040Y710080D03*
D12*
X1203040Y550080D03*
X1203040Y540080D03*
X1183040Y550080D03*
X1183040Y540080D03*
D22*
X1388040Y650080D03*
X1383040Y642080D03*
X1378040Y650080D03*
X1373040Y642080D03*
X1368040Y650080D03*
X1363040Y642080D03*
X1358040Y650080D03*
X1353040Y642080D03*
X1348040Y650080D03*
X1343040Y642080D03*
X1338040Y650080D03*
X1333040Y642080D03*
X1328040Y650080D03*
X1323040Y642080D03*
X1318040Y650080D03*
X1313040Y642080D03*
X1308040Y650080D03*
X1303040Y642080D03*
X1298040Y650080D03*
X1293040Y642080D03*
X1288040Y650080D03*
D12*
X1278040Y650080D03*
D23*
X1278040Y640080D03*
X1286040Y635080D03*
X1278040Y630080D03*
X1286040Y625080D03*
X1278040Y620080D03*
X1286040Y615080D03*
X1278040Y610080D03*
X1286040Y605080D03*
X1278040Y600080D03*
X1286040Y595080D03*
X1278040Y590080D03*
X1286040Y585080D03*
X1278040Y580080D03*
X1286040Y575080D03*
X1278040Y570080D03*
D12*
X1278040Y560080D03*
D22*
X1288040Y560080D03*
X1293040Y568080D03*
X1298040Y560080D03*
X1303040Y568080D03*
X1308040Y560080D03*
X1313040Y568080D03*
X1318040Y560080D03*
X1323040Y568080D03*
X1328040Y560080D03*
X1333040Y568080D03*
X1338040Y560080D03*
X1343040Y568080D03*
X1348040Y560080D03*
X1353040Y568080D03*
X1358040Y560080D03*
X1363040Y568080D03*
X1368040Y560080D03*
X1373040Y568080D03*
X1378040Y560080D03*
X1383040Y568080D03*
X1388040Y560080D03*
D24*
X1026040Y696080D03*
X1036040Y696080D03*
X1036040Y714080D03*
X1026040Y714080D03*
D25*
X1006540Y705080D03*
D26*
X1013040Y711580D03*
X1013040Y698580D03*
D25*
X1019540Y705080D03*
D27*
X1052540Y737080D03*
X1052540Y753080D03*
X1093540Y753080D03*
X1093540Y737080D03*
D16*
X1111540Y620080D03*
X1094540Y620080D03*
X1094540Y635080D03*
X1111540Y635080D03*
X1094540Y680080D03*
X1111540Y680080D03*
X1094540Y665080D03*
X1111540Y665080D03*
X1111540Y650080D03*
X1094540Y650080D03*
X1111540Y605080D03*
X1094540Y605080D03*
D12*
X1048040Y700080D03*
X1048040Y710080D03*
X1260040Y574080D03*
X1260040Y564080D03*
D16*
X1241540Y540080D03*
X1224540Y540080D03*
D12*
X1260040Y556080D03*
X1260040Y546080D03*
D24*
X1026040Y496080D03*
X1036040Y496080D03*
X1036040Y514080D03*
X1026040Y514080D03*
D25*
X1006540Y505080D03*
D26*
X1013040Y511580D03*
X1013040Y498580D03*
D25*
X1019540Y505080D03*
D12*
X1048040Y500080D03*
X1048040Y510080D03*
D28*
X1135540Y751080D03*
D29*
X1261290Y763580D03*
D30*
X1274540Y760080D03*
X1111540Y760080D03*
D29*
X1124790Y763580D03*
D28*
X1140540Y751080D03*
X1145540Y751080D03*
X1150540Y751080D03*
X1155540Y751080D03*
X1160540Y751080D03*
X1165540Y751080D03*
X1170540Y751080D03*
X1175540Y751080D03*
X1180540Y751080D03*
X1185540Y751080D03*
X1190540Y751080D03*
X1195540Y751080D03*
X1200540Y751080D03*
X1205540Y751080D03*
X1210540Y751080D03*
X1215540Y751080D03*
X1220540Y751080D03*
X1225540Y751080D03*
X1230540Y751080D03*
X1235540Y751080D03*
X1240540Y751080D03*
X1245540Y751080D03*
X1250540Y751080D03*
D10*
X65000Y997460D03*
X65000Y972060D03*
X65000Y946660D03*
X65000Y1022860D03*
X65000Y1048260D03*
X65000Y1073660D03*
D11*
X250000Y992660D03*
X250000Y967660D03*
D12*
X230000Y975160D03*
X230000Y965160D03*
X230000Y985160D03*
X230000Y995160D03*
D13*
X197500Y912660D03*
X202500Y912660D03*
X202500Y927660D03*
X197500Y927660D03*
D14*
X192500Y927660D03*
X192500Y922660D03*
X192500Y912660D03*
X192500Y917660D03*
X207500Y912660D03*
X207500Y917660D03*
X207500Y922660D03*
X207500Y927660D03*
D15*
X240000Y928660D03*
X240000Y911660D03*
D12*
X225000Y925160D03*
X225000Y915160D03*
D15*
X250000Y1128660D03*
X250000Y1111660D03*
X270000Y1128660D03*
X270000Y1111660D03*
D16*
X168500Y930160D03*
X151500Y930160D03*
X168500Y910160D03*
X151500Y910160D03*
D17*
X121500Y975160D03*
X98500Y975160D03*
X121500Y995160D03*
X98500Y995160D03*
D18*
X180500Y1087159D03*
X190000Y1087159D03*
X199500Y1087159D03*
X199500Y1113161D03*
X180500Y1113161D03*
D12*
X210000Y1105160D03*
X210000Y1095160D03*
X185000Y1125160D03*
X195000Y1125160D03*
D19*
X173500Y844890D02*
X166500Y844890D01*
X173500Y844890D02*
X173500Y837890D01*
X166500Y837890D01*
X166500Y844890D01*
X166500Y840740D02*
X173500Y840740D01*
X173500Y843590D02*
X166500Y843590D01*
X166500Y862430D02*
X173500Y862430D01*
X173500Y855430D01*
X166500Y855430D01*
X166500Y862430D01*
X166500Y858280D02*
X173500Y858280D01*
X173500Y861130D02*
X166500Y861130D01*
X153500Y844890D02*
X146500Y844890D01*
X153500Y844890D02*
X153500Y837890D01*
X146500Y837890D01*
X146500Y844890D01*
X146500Y840740D02*
X153500Y840740D01*
X153500Y843590D02*
X146500Y843590D01*
X146500Y862430D02*
X153500Y862430D01*
X153500Y855430D01*
X146500Y855430D01*
X146500Y862430D01*
X146500Y858280D02*
X153500Y858280D01*
X153500Y861130D02*
X146500Y861130D01*
X206500Y844890D02*
X213500Y844890D01*
X213500Y837890D01*
X206500Y837890D01*
X206500Y844890D01*
X206500Y840740D02*
X213500Y840740D01*
X213500Y843590D02*
X206500Y843590D01*
X206500Y862430D02*
X213500Y862430D01*
X213500Y855430D01*
X206500Y855430D01*
X206500Y862430D01*
X206500Y858280D02*
X213500Y858280D01*
X213500Y861130D02*
X206500Y861130D01*
X193500Y844890D02*
X186500Y844890D01*
X193500Y844890D02*
X193500Y837890D01*
X186500Y837890D01*
X186500Y844890D01*
X186500Y840740D02*
X193500Y840740D01*
X193500Y843590D02*
X186500Y843590D01*
X186500Y862430D02*
X193500Y862430D01*
X193500Y855430D01*
X186500Y855430D01*
X186500Y862430D01*
X186500Y858280D02*
X193500Y858280D01*
X193500Y861130D02*
X186500Y861130D01*
D15*
X170000Y871660D03*
X170000Y888660D03*
X150000Y871660D03*
X150000Y888660D03*
X210000Y871660D03*
X210000Y888660D03*
X190000Y871660D03*
X190000Y888660D03*
D12*
X185000Y1073160D03*
X195000Y1073160D03*
D20*
X386750Y1072160D03*
X386750Y1128160D03*
D21*
X350000Y1085160D03*
X350000Y1095160D03*
X350000Y1105160D03*
X350000Y1115160D03*
D12*
X210000Y955160D03*
X210000Y945160D03*
X190000Y955160D03*
X190000Y945160D03*
D22*
X395000Y1055160D03*
X390000Y1047160D03*
X385000Y1055160D03*
X380000Y1047160D03*
X375000Y1055160D03*
X370000Y1047160D03*
X365000Y1055160D03*
X360000Y1047160D03*
X355000Y1055160D03*
X350000Y1047160D03*
X345000Y1055160D03*
X340000Y1047160D03*
X335000Y1055160D03*
X330000Y1047160D03*
X325000Y1055160D03*
X320000Y1047160D03*
X315000Y1055160D03*
X310000Y1047160D03*
X305000Y1055160D03*
X300000Y1047160D03*
X295000Y1055160D03*
D12*
X285000Y1055160D03*
D23*
X285000Y1045160D03*
X293000Y1040160D03*
X285000Y1035160D03*
X293000Y1030160D03*
X285000Y1025160D03*
X293000Y1020160D03*
X285000Y1015160D03*
X293000Y1010160D03*
X285000Y1005160D03*
X293000Y1000160D03*
X285000Y995160D03*
X293000Y990160D03*
X285000Y985160D03*
X293000Y980160D03*
X285000Y975160D03*
D12*
X285000Y965160D03*
D22*
X295000Y965160D03*
X300000Y973160D03*
X305000Y965160D03*
X310000Y973160D03*
X315000Y965160D03*
X320000Y973160D03*
X325000Y965160D03*
X330000Y973160D03*
X335000Y965160D03*
X340000Y973160D03*
X345000Y965160D03*
X350000Y973160D03*
X355000Y965160D03*
X360000Y973160D03*
X365000Y965160D03*
X370000Y973160D03*
X375000Y965160D03*
X380000Y973160D03*
X385000Y965160D03*
X390000Y973160D03*
X395000Y965160D03*
D24*
X33000Y1101160D03*
X43000Y1101160D03*
X43000Y1119160D03*
X33000Y1119160D03*
D25*
X13500Y1110160D03*
D26*
X20000Y1116660D03*
X20000Y1103660D03*
D25*
X26500Y1110160D03*
D27*
X59500Y1142160D03*
X59500Y1158160D03*
X100500Y1158160D03*
X100500Y1142160D03*
D16*
X118500Y1025160D03*
X101500Y1025160D03*
X101500Y1040160D03*
X118500Y1040160D03*
X101500Y1085160D03*
X118500Y1085160D03*
X101500Y1070160D03*
X118500Y1070160D03*
X118500Y1055160D03*
X101500Y1055160D03*
X118500Y1010160D03*
X101500Y1010160D03*
D12*
X55000Y1105160D03*
X55000Y1115160D03*
X267000Y979160D03*
X267000Y969160D03*
D16*
X248500Y945160D03*
X231500Y945160D03*
D12*
X267000Y961160D03*
X267000Y951160D03*
D24*
X33000Y901160D03*
X43000Y901160D03*
X43000Y919160D03*
X33000Y919160D03*
D25*
X13500Y910160D03*
D26*
X20000Y916660D03*
X20000Y903660D03*
D25*
X26500Y910160D03*
D12*
X55000Y905160D03*
X55000Y915160D03*
D28*
X142500Y1156160D03*
D29*
X268250Y1168660D03*
D30*
X281500Y1165160D03*
X118500Y1165160D03*
D29*
X131750Y1168660D03*
D28*
X147500Y1156160D03*
X152500Y1156160D03*
X157500Y1156160D03*
X162500Y1156160D03*
X167500Y1156160D03*
X172500Y1156160D03*
X177500Y1156160D03*
X182500Y1156160D03*
X187500Y1156160D03*
X192500Y1156160D03*
X197500Y1156160D03*
X202500Y1156160D03*
X207500Y1156160D03*
X212500Y1156160D03*
X217500Y1156160D03*
X222500Y1156160D03*
X227500Y1156160D03*
X232500Y1156160D03*
X237500Y1156160D03*
X242500Y1156160D03*
X247500Y1156160D03*
X252500Y1156160D03*
X257500Y1156160D03*
D10*
X561520Y997460D03*
X561520Y972060D03*
X561520Y946660D03*
X561520Y1022860D03*
X561520Y1048260D03*
X561520Y1073660D03*
D11*
X746520Y992660D03*
X746520Y967660D03*
D12*
X726520Y975160D03*
X726520Y965160D03*
X726520Y985160D03*
X726520Y995160D03*
D13*
X694020Y912660D03*
X699020Y912660D03*
X699020Y927660D03*
X694020Y927660D03*
D14*
X689020Y927660D03*
X689020Y922660D03*
X689020Y912660D03*
X689020Y917660D03*
X704020Y912660D03*
X704020Y917660D03*
X704020Y922660D03*
X704020Y927660D03*
D15*
X736520Y928660D03*
X736520Y911660D03*
D12*
X721520Y925160D03*
X721520Y915160D03*
D15*
X746520Y1128660D03*
X746520Y1111660D03*
X766520Y1128660D03*
X766520Y1111660D03*
D16*
X665020Y930160D03*
X648020Y930160D03*
X665020Y910160D03*
X648020Y910160D03*
D17*
X618020Y975160D03*
X595020Y975160D03*
X618020Y995160D03*
X595020Y995160D03*
D18*
X677020Y1087159D03*
X686520Y1087159D03*
X696020Y1087159D03*
X696020Y1113161D03*
X677020Y1113161D03*
D12*
X706520Y1105160D03*
X706520Y1095160D03*
X681520Y1125160D03*
X691520Y1125160D03*
D19*
X670020Y844890D02*
X663020Y844890D01*
X670020Y844890D02*
X670020Y837890D01*
X663020Y837890D01*
X663020Y844890D01*
X663020Y840740D02*
X670020Y840740D01*
X670020Y843590D02*
X663020Y843590D01*
X663020Y862430D02*
X670020Y862430D01*
X670020Y855430D01*
X663020Y855430D01*
X663020Y862430D01*
X663020Y858280D02*
X670020Y858280D01*
X670020Y861130D02*
X663020Y861130D01*
X650020Y844890D02*
X643020Y844890D01*
X650020Y844890D02*
X650020Y837890D01*
X643020Y837890D01*
X643020Y844890D01*
X643020Y840740D02*
X650020Y840740D01*
X650020Y843590D02*
X643020Y843590D01*
X643020Y862430D02*
X650020Y862430D01*
X650020Y855430D01*
X643020Y855430D01*
X643020Y862430D01*
X643020Y858280D02*
X650020Y858280D01*
X650020Y861130D02*
X643020Y861130D01*
X703020Y844890D02*
X710020Y844890D01*
X710020Y837890D01*
X703020Y837890D01*
X703020Y844890D01*
X703020Y840740D02*
X710020Y840740D01*
X710020Y843590D02*
X703020Y843590D01*
X703020Y862430D02*
X710020Y862430D01*
X710020Y855430D01*
X703020Y855430D01*
X703020Y862430D01*
X703020Y858280D02*
X710020Y858280D01*
X710020Y861130D02*
X703020Y861130D01*
X690020Y844890D02*
X683020Y844890D01*
X690020Y844890D02*
X690020Y837890D01*
X683020Y837890D01*
X683020Y844890D01*
X683020Y840740D02*
X690020Y840740D01*
X690020Y843590D02*
X683020Y843590D01*
X683020Y862430D02*
X690020Y862430D01*
X690020Y855430D01*
X683020Y855430D01*
X683020Y862430D01*
X683020Y858280D02*
X690020Y858280D01*
X690020Y861130D02*
X683020Y861130D01*
D15*
X666520Y871660D03*
X666520Y888660D03*
X646520Y871660D03*
X646520Y888660D03*
X706520Y871660D03*
X706520Y888660D03*
X686520Y871660D03*
X686520Y888660D03*
D12*
X681520Y1073160D03*
X691520Y1073160D03*
D20*
X883270Y1072160D03*
X883270Y1128160D03*
D21*
X846520Y1085160D03*
X846520Y1095160D03*
X846520Y1105160D03*
X846520Y1115160D03*
D12*
X706520Y955160D03*
X706520Y945160D03*
X686520Y955160D03*
X686520Y945160D03*
D22*
X891520Y1055160D03*
X886520Y1047160D03*
X881520Y1055160D03*
X876520Y1047160D03*
X871520Y1055160D03*
X866520Y1047160D03*
X861520Y1055160D03*
X856520Y1047160D03*
X851520Y1055160D03*
X846520Y1047160D03*
X841520Y1055160D03*
X836520Y1047160D03*
X831520Y1055160D03*
X826520Y1047160D03*
X821520Y1055160D03*
X816520Y1047160D03*
X811520Y1055160D03*
X806520Y1047160D03*
X801520Y1055160D03*
X796520Y1047160D03*
X791520Y1055160D03*
D12*
X781520Y1055160D03*
D23*
X781520Y1045160D03*
X789520Y1040160D03*
X781520Y1035160D03*
X789520Y1030160D03*
X781520Y1025160D03*
X789520Y1020160D03*
X781520Y1015160D03*
X789520Y1010160D03*
X781520Y1005160D03*
X789520Y1000160D03*
X781520Y995160D03*
X789520Y990160D03*
X781520Y985160D03*
X789520Y980160D03*
X781520Y975160D03*
D12*
X781520Y965160D03*
D22*
X791520Y965160D03*
X796520Y973160D03*
X801520Y965160D03*
X806520Y973160D03*
X811520Y965160D03*
X816520Y973160D03*
X821520Y965160D03*
X826520Y973160D03*
X831520Y965160D03*
X836520Y973160D03*
X841520Y965160D03*
X846520Y973160D03*
X851520Y965160D03*
X856520Y973160D03*
X861520Y965160D03*
X866520Y973160D03*
X871520Y965160D03*
X876520Y973160D03*
X881520Y965160D03*
X886520Y973160D03*
X891520Y965160D03*
D24*
X529520Y1101160D03*
X539520Y1101160D03*
X539520Y1119160D03*
X529520Y1119160D03*
D25*
X510020Y1110160D03*
D26*
X516520Y1116660D03*
X516520Y1103660D03*
D25*
X523020Y1110160D03*
D27*
X556020Y1142160D03*
X556020Y1158160D03*
X597020Y1158160D03*
X597020Y1142160D03*
D16*
X615020Y1025160D03*
X598020Y1025160D03*
X598020Y1040160D03*
X615020Y1040160D03*
X598020Y1085160D03*
X615020Y1085160D03*
X598020Y1070160D03*
X615020Y1070160D03*
X615020Y1055160D03*
X598020Y1055160D03*
X615020Y1010160D03*
X598020Y1010160D03*
D12*
X551520Y1105160D03*
X551520Y1115160D03*
X763520Y979160D03*
X763520Y969160D03*
D16*
X745020Y945160D03*
X728020Y945160D03*
D12*
X763520Y961160D03*
X763520Y951160D03*
D24*
X529520Y901160D03*
X539520Y901160D03*
X539520Y919160D03*
X529520Y919160D03*
D25*
X510020Y910160D03*
D26*
X516520Y916660D03*
X516520Y903660D03*
D25*
X523020Y910160D03*
D12*
X551520Y905160D03*
X551520Y915160D03*
D28*
X639020Y1156160D03*
D29*
X764770Y1168660D03*
D30*
X778020Y1165160D03*
X615020Y1165160D03*
D29*
X628270Y1168660D03*
D28*
X644020Y1156160D03*
X649020Y1156160D03*
X654020Y1156160D03*
X659020Y1156160D03*
X664020Y1156160D03*
X669020Y1156160D03*
X674020Y1156160D03*
X679020Y1156160D03*
X684020Y1156160D03*
X689020Y1156160D03*
X694020Y1156160D03*
X699020Y1156160D03*
X704020Y1156160D03*
X709020Y1156160D03*
X714020Y1156160D03*
X719020Y1156160D03*
X724020Y1156160D03*
X729020Y1156160D03*
X734020Y1156160D03*
X739020Y1156160D03*
X744020Y1156160D03*
X749020Y1156160D03*
X754020Y1156160D03*
D10*
X1058040Y997460D03*
X1058040Y972060D03*
X1058040Y946660D03*
X1058040Y1022860D03*
X1058040Y1048260D03*
X1058040Y1073660D03*
D11*
X1243040Y992660D03*
X1243040Y967660D03*
D12*
X1223040Y975160D03*
X1223040Y965160D03*
X1223040Y985160D03*
X1223040Y995160D03*
D13*
X1190540Y912660D03*
X1195540Y912660D03*
X1195540Y927660D03*
X1190540Y927660D03*
D14*
X1185540Y927660D03*
X1185540Y922660D03*
X1185540Y912660D03*
X1185540Y917660D03*
X1200540Y912660D03*
X1200540Y917660D03*
X1200540Y922660D03*
X1200540Y927660D03*
D15*
X1233040Y928660D03*
X1233040Y911660D03*
D12*
X1218040Y925160D03*
X1218040Y915160D03*
D15*
X1243040Y1128660D03*
X1243040Y1111660D03*
X1263040Y1128660D03*
X1263040Y1111660D03*
D16*
X1161540Y930160D03*
X1144540Y930160D03*
X1161540Y910160D03*
X1144540Y910160D03*
D17*
X1114540Y975160D03*
X1091540Y975160D03*
X1114540Y995160D03*
X1091540Y995160D03*
D18*
X1173540Y1087159D03*
X1183040Y1087159D03*
X1192540Y1087159D03*
X1192540Y1113161D03*
X1173540Y1113161D03*
D12*
X1203040Y1105160D03*
X1203040Y1095160D03*
X1178040Y1125160D03*
X1188040Y1125160D03*
D19*
X1166540Y844890D02*
X1159540Y844890D01*
X1166540Y844890D02*
X1166540Y837890D01*
X1159540Y837890D01*
X1159540Y844890D01*
X1159540Y840740D02*
X1166540Y840740D01*
X1166540Y843590D02*
X1159540Y843590D01*
X1159540Y862430D02*
X1166540Y862430D01*
X1166540Y855430D01*
X1159540Y855430D01*
X1159540Y862430D01*
X1159540Y858280D02*
X1166540Y858280D01*
X1166540Y861130D02*
X1159540Y861130D01*
X1146540Y844890D02*
X1139540Y844890D01*
X1146540Y844890D02*
X1146540Y837890D01*
X1139540Y837890D01*
X1139540Y844890D01*
X1139540Y840740D02*
X1146540Y840740D01*
X1146540Y843590D02*
X1139540Y843590D01*
X1139540Y862430D02*
X1146540Y862430D01*
X1146540Y855430D01*
X1139540Y855430D01*
X1139540Y862430D01*
X1139540Y858280D02*
X1146540Y858280D01*
X1146540Y861130D02*
X1139540Y861130D01*
X1199540Y844890D02*
X1206540Y844890D01*
X1206540Y837890D01*
X1199540Y837890D01*
X1199540Y844890D01*
X1199540Y840740D02*
X1206540Y840740D01*
X1206540Y843590D02*
X1199540Y843590D01*
X1199540Y862430D02*
X1206540Y862430D01*
X1206540Y855430D01*
X1199540Y855430D01*
X1199540Y862430D01*
X1199540Y858280D02*
X1206540Y858280D01*
X1206540Y861130D02*
X1199540Y861130D01*
X1186540Y844890D02*
X1179540Y844890D01*
X1186540Y844890D02*
X1186540Y837890D01*
X1179540Y837890D01*
X1179540Y844890D01*
X1179540Y840740D02*
X1186540Y840740D01*
X1186540Y843590D02*
X1179540Y843590D01*
X1179540Y862430D02*
X1186540Y862430D01*
X1186540Y855430D01*
X1179540Y855430D01*
X1179540Y862430D01*
X1179540Y858280D02*
X1186540Y858280D01*
X1186540Y861130D02*
X1179540Y861130D01*
D15*
X1163040Y871660D03*
X1163040Y888660D03*
X1143040Y871660D03*
X1143040Y888660D03*
X1203040Y871660D03*
X1203040Y888660D03*
X1183040Y871660D03*
X1183040Y888660D03*
D12*
X1178040Y1073160D03*
X1188040Y1073160D03*
D20*
X1379790Y1072160D03*
X1379790Y1128160D03*
D21*
X1343040Y1085160D03*
X1343040Y1095160D03*
X1343040Y1105160D03*
X1343040Y1115160D03*
D12*
X1203040Y955160D03*
X1203040Y945160D03*
X1183040Y955160D03*
X1183040Y945160D03*
D22*
X1388040Y1055160D03*
X1383040Y1047160D03*
X1378040Y1055160D03*
X1373040Y1047160D03*
X1368040Y1055160D03*
X1363040Y1047160D03*
X1358040Y1055160D03*
X1353040Y1047160D03*
X1348040Y1055160D03*
X1343040Y1047160D03*
X1338040Y1055160D03*
X1333040Y1047160D03*
X1328040Y1055160D03*
X1323040Y1047160D03*
X1318040Y1055160D03*
X1313040Y1047160D03*
X1308040Y1055160D03*
X1303040Y1047160D03*
X1298040Y1055160D03*
X1293040Y1047160D03*
X1288040Y1055160D03*
D12*
X1278040Y1055160D03*
D23*
X1278040Y1045160D03*
X1286040Y1040160D03*
X1278040Y1035160D03*
X1286040Y1030160D03*
X1278040Y1025160D03*
X1286040Y1020160D03*
X1278040Y1015160D03*
X1286040Y1010160D03*
X1278040Y1005160D03*
X1286040Y1000160D03*
X1278040Y995160D03*
X1286040Y990160D03*
X1278040Y985160D03*
X1286040Y980160D03*
X1278040Y975160D03*
D12*
X1278040Y965160D03*
D22*
X1288040Y965160D03*
X1293040Y973160D03*
X1298040Y965160D03*
X1303040Y973160D03*
X1308040Y965160D03*
X1313040Y973160D03*
X1318040Y965160D03*
X1323040Y973160D03*
X1328040Y965160D03*
X1333040Y973160D03*
X1338040Y965160D03*
X1343040Y973160D03*
X1348040Y965160D03*
X1353040Y973160D03*
X1358040Y965160D03*
X1363040Y973160D03*
X1368040Y965160D03*
X1373040Y973160D03*
X1378040Y965160D03*
X1383040Y973160D03*
X1388040Y965160D03*
D24*
X1026040Y1101160D03*
X1036040Y1101160D03*
X1036040Y1119160D03*
X1026040Y1119160D03*
D25*
X1006540Y1110160D03*
D26*
X1013040Y1116660D03*
X1013040Y1103660D03*
D25*
X1019540Y1110160D03*
D27*
X1052540Y1142160D03*
X1052540Y1158160D03*
X1093540Y1158160D03*
X1093540Y1142160D03*
D16*
X1111540Y1025160D03*
X1094540Y1025160D03*
X1094540Y1040160D03*
X1111540Y1040160D03*
X1094540Y1085160D03*
X1111540Y1085160D03*
X1094540Y1070160D03*
X1111540Y1070160D03*
X1111540Y1055160D03*
X1094540Y1055160D03*
X1111540Y1010160D03*
X1094540Y1010160D03*
D12*
X1048040Y1105160D03*
X1048040Y1115160D03*
X1260040Y979160D03*
X1260040Y969160D03*
D16*
X1241540Y945160D03*
X1224540Y945160D03*
D12*
X1260040Y961160D03*
X1260040Y951160D03*
D24*
X1026040Y901160D03*
X1036040Y901160D03*
X1036040Y919160D03*
X1026040Y919160D03*
D25*
X1006540Y910160D03*
D26*
X1013040Y916660D03*
X1013040Y903660D03*
D25*
X1019540Y910160D03*
D12*
X1048040Y905160D03*
X1048040Y915160D03*
D28*
X1135540Y1156160D03*
D29*
X1261290Y1168660D03*
D30*
X1274540Y1165160D03*
X1111540Y1165160D03*
D29*
X1124790Y1168660D03*
D28*
X1140540Y1156160D03*
X1145540Y1156160D03*
X1150540Y1156160D03*
X1155540Y1156160D03*
X1160540Y1156160D03*
X1165540Y1156160D03*
X1170540Y1156160D03*
X1175540Y1156160D03*
X1180540Y1156160D03*
X1185540Y1156160D03*
X1190540Y1156160D03*
X1195540Y1156160D03*
X1200540Y1156160D03*
X1205540Y1156160D03*
X1210540Y1156160D03*
X1215540Y1156160D03*
X1220540Y1156160D03*
X1225540Y1156160D03*
X1230540Y1156160D03*
X1235540Y1156160D03*
X1240540Y1156160D03*
X1245540Y1156160D03*
X1250540Y1156160D03*
M02*
