%
M48
M72
T01C0.0120
T02C0.0200
T03C0.0315
T04C0.0400
T05C0.0551
T06C0.1300
%
T01
X9990Y6818
X12270Y6012
X13290Y6818
X13058Y7980
X15026Y8689
X15814Y8689
X16490Y9468
X16440Y10468
X15105Y10264
X15066Y9594
X14690Y11327
X16590Y12318
X14239Y13098
X14239Y14280
X13790Y15268
X14042Y15854
X15406Y17235
X16306Y18335
X17861Y18610
X18990Y18618
X19140Y17018
X20640Y16368
X21339Y16169
X22388Y16583
X22178Y16839
X22388Y17518
X21325Y18157
X18785Y15176
X17900Y15729
X16053Y14964
X18451Y14184
X19908Y13492
X21140Y12368
X21190Y11268
X22100Y10736
X22073Y10382
X22323Y11051
X23440Y11318
X23440Y12368
X23294Y14280
X23440Y14618
X22467Y14280
X22310Y14634
X21916Y14634
X21698Y14258
X19533Y11318
X19140Y11318
X20328Y10526
X17890Y9718
X11877Y10421
X11390Y10618
X10490Y11468
X10262Y14476
X9948Y15539
X11590Y16918
X13825Y18709
X14324Y18689
X13747Y19791
X15420Y19752
X16306Y19831
X13290Y22766
X12270Y21960
X11916Y20972
X10066Y20933
X10890Y19318
X9990Y22766
X13058Y23928
X15026Y24637
X15814Y24637
X16490Y25416
X16440Y26416
X15105Y26212
X15066Y25543
X14690Y27275
X16590Y28266
X14239Y29046
X14239Y30228
X13790Y31216
X14042Y31802
X15406Y33183
X16306Y34283
X16306Y35779
X15420Y35700
X14324Y34637
X13825Y34657
X13747Y35739
X11916Y36920
X12270Y37908
X13290Y38714
X13058Y39876
X15026Y40585
X15814Y40585
X16490Y41364
X16440Y42364
X15105Y42160
X15066Y41491
X14690Y43223
X16590Y44214
X14239Y44994
X14239Y46176
X13790Y47164
X14042Y47750
X15406Y49131
X16306Y50231
X17861Y50506
X18990Y50514
X19140Y48914
X20640Y48264
X21339Y48065
X22178Y48735
X22388Y48479
X22388Y49414
X21325Y50054
X17900Y47625
X18785Y47072
X18451Y46080
X19908Y45388
X21140Y44264
X21190Y43164
X20328Y42422
X19533Y43214
X19140Y43214
X17890Y41614
X22073Y42278
X22100Y42632
X22323Y42947
X23440Y43214
X23440Y44264
X23294Y46176
X23440Y46514
X22467Y46176
X22310Y46530
X21916Y46530
X21698Y46154
X16053Y46860
X11590Y48814
X9948Y47435
X10262Y46372
X10490Y43364
X11390Y42514
X11877Y42317
X9990Y38714
X10066Y36881
X10890Y35266
X11590Y32866
X9948Y31487
X10262Y30424
X10490Y27416
X11390Y26566
X11877Y26369
X17890Y25666
X19140Y27266
X19533Y27266
X20328Y26474
X21190Y27216
X22100Y26684
X22073Y26330
X22323Y26999
X23440Y27266
X23440Y28316
X23294Y30228
X23440Y30566
X22467Y30228
X22310Y30582
X21916Y30582
X21698Y30206
X19908Y29440
X18451Y30132
X18785Y31124
X17900Y31677
X19140Y32966
X20640Y32316
X21339Y32117
X22178Y32787
X22388Y32531
X22388Y33466
X21325Y34106
X18990Y34566
X17861Y34558
X16053Y30912
X21140Y28316
X29610Y30424
X29296Y31487
X30938Y32866
X33390Y31802
X33138Y31216
X33587Y30228
X33587Y29046
X34038Y27275
X34453Y26212
X34414Y25543
X34374Y24637
X35162Y24637
X35838Y25416
X37238Y25666
X35788Y26416
X35938Y28266
X37799Y30132
X38133Y31124
X37248Y31677
X38488Y32966
X39988Y32316
X40687Y32117
X41526Y32787
X41736Y32531
X41736Y33466
X40673Y34106
X38338Y34566
X37209Y34558
X35654Y34283
X34754Y33183
X33672Y34637
X33173Y34657
X33095Y35739
X34768Y35700
X35654Y35779
X32638Y38714
X31618Y37908
X31264Y36920
X29414Y36881
X30238Y35266
X29338Y38714
X32406Y39876
X34374Y40585
X35162Y40585
X35838Y41364
X37238Y41614
X35788Y42364
X34453Y42160
X34414Y41491
X34038Y43223
X33587Y44994
X33587Y46176
X33138Y47164
X33390Y47750
X34754Y49131
X35654Y50231
X37209Y50506
X38338Y50514
X38488Y48914
X39988Y48264
X40687Y48065
X41526Y48735
X41736Y48479
X41736Y49414
X40673Y50054
X37248Y47625
X38133Y47072
X37799Y46080
X39256Y45388
X40488Y44264
X40538Y43164
X41448Y42632
X41422Y42278
X41671Y42947
X42788Y43214
X42788Y44264
X42642Y46176
X42788Y46514
X41815Y46176
X41658Y46530
X41264Y46530
X41046Y46154
X38881Y43214
X38488Y43214
X39676Y42422
X35938Y44214
X35401Y46860
X30938Y48814
X29296Y47435
X29610Y46372
X29838Y43364
X30738Y42514
X31225Y42317
X33173Y50605
X33672Y50585
X33095Y51687
X34768Y51648
X35654Y51727
X31264Y52869
X29414Y52829
X30238Y51214
X16306Y51727
X15420Y51648
X14324Y50585
X13825Y50605
X13747Y51687
X11916Y52869
X10066Y52829
X10890Y51214
X35401Y30912
X39256Y29440
X40488Y28316
X40538Y27216
X41448Y26684
X41422Y26330
X41671Y26999
X42788Y27266
X42788Y28316
X42642Y30228
X42788Y30566
X41815Y30228
X41658Y30582
X41264Y30582
X41046Y30206
X38881Y27266
X38488Y27266
X39676Y26474
X32406Y23928
X32638Y22766
X31618Y21960
X31264Y20972
X33095Y19791
X33173Y18709
X33672Y18689
X34768Y19752
X35654Y19831
X37209Y18610
X38338Y18618
X38488Y17018
X39988Y16368
X40687Y16169
X41736Y16583
X41526Y16839
X41736Y17518
X40673Y18157
X38133Y15176
X37248Y15729
X35401Y14964
X33587Y14280
X33138Y15268
X33390Y15854
X34754Y17235
X35654Y18335
X30938Y16918
X29296Y15539
X29610Y14476
X29838Y11468
X30738Y10618
X31225Y10421
X34038Y11327
X34453Y10264
X34414Y9594
X34374Y8689
X35162Y8689
X35838Y9468
X37238Y9718
X35788Y10468
X35938Y12318
X33587Y13098
X37799Y14184
X39256Y13492
X40488Y12368
X40538Y11268
X41448Y10736
X41422Y10382
X41671Y11051
X42788Y11318
X42788Y12368
X42642Y14280
X42788Y14618
X41815Y14280
X41658Y14634
X41264Y14634
X41046Y14258
X38881Y11318
X38488Y11318
X39676Y10526
X32406Y7980
X32638Y6818
X31618Y6012
X29338Y6818
X30238Y19318
X29414Y20933
X29338Y22766
X31225Y26369
X30738Y26566
X29838Y27416
X48644Y31487
X48959Y30424
X50286Y32866
X52738Y31802
X52486Y31216
X52935Y30228
X52935Y29046
X53386Y27275
X53801Y26212
X53762Y25543
X53722Y24637
X54510Y24637
X55186Y25416
X55136Y26416
X56586Y25666
X57836Y27266
X58229Y27266
X59024Y26474
X59886Y27216
X60796Y26684
X60770Y26330
X61019Y26999
X62136Y27266
X62136Y28316
X61990Y30228
X62136Y30566
X61163Y30228
X61006Y30582
X60612Y30582
X60394Y30206
X58604Y29440
X57148Y30132
X57481Y31124
X56596Y31677
X57836Y32966
X59336Y32316
X60035Y32117
X60875Y32787
X61085Y32531
X61085Y33466
X60022Y34106
X57686Y34566
X56557Y34558
X55002Y34283
X54102Y33183
X53020Y34637
X52522Y34657
X52443Y35739
X50612Y36920
X50966Y37908
X51986Y38714
X51754Y39876
X53722Y40585
X54510Y40585
X55186Y41364
X55136Y42364
X53801Y42160
X53762Y41491
X53386Y43223
X55286Y44214
X52935Y44994
X52935Y46176
X52486Y47164
X52738Y47750
X54102Y49131
X55002Y50231
X56557Y50506
X57686Y50514
X57836Y48914
X59336Y48264
X60035Y48065
X60875Y48735
X61085Y48479
X61085Y49414
X60022Y50054
X56596Y47625
X57481Y47072
X57148Y46080
X58604Y45388
X59836Y44264
X59886Y43164
X60796Y42632
X60770Y42278
X61019Y42947
X62136Y43214
X62136Y44264
X61990Y46176
X62136Y46514
X61163Y46176
X61006Y46530
X60612Y46530
X60394Y46154
X58229Y43214
X57836Y43214
X59024Y42422
X56586Y41614
X50573Y42317
X50086Y42514
X49186Y43364
X48959Y46372
X48644Y47435
X50286Y48814
X52522Y50605
X53020Y50585
X52443Y51687
X50612Y52869
X48762Y52829
X49586Y51214
X54116Y51648
X55002Y51727
X54749Y46860
X48686Y38714
X48762Y36881
X49586Y35266
X54116Y35700
X55002Y35779
X54749Y30912
X55286Y28266
X59836Y28316
X51754Y23928
X51986Y22766
X50966Y21960
X50612Y20972
X48762Y20933
X49586Y19318
X52443Y19791
X52522Y18709
X53020Y18689
X54116Y19752
X55002Y19831
X56557Y18610
X57686Y18618
X57836Y17018
X59336Y16368
X60035Y16169
X60875Y16839
X61085Y16583
X61085Y17518
X60022Y18157
X56596Y15729
X57481Y15176
X57148Y14184
X58604Y13492
X59836Y12368
X59886Y11268
X60796Y10736
X60770Y10382
X61019Y11051
X62136Y11318
X62136Y12368
X61990Y14280
X62136Y14618
X61163Y14280
X61006Y14634
X60612Y14634
X60394Y14258
X58229Y11318
X57836Y11318
X59024Y10526
X56586Y9718
X55186Y9468
X54510Y8689
X53722Y8689
X53762Y9594
X53801Y10264
X53386Y11327
X55136Y10468
X55286Y12318
X52935Y13098
X52935Y14280
X52486Y15268
X52738Y15854
X54102Y17235
X55002Y18335
X54749Y14964
X50286Y16918
X48644Y15539
X48959Y14476
X49186Y11468
X50086Y10618
X50573Y10421
X51754Y7980
X51986Y6818
X50966Y6012
X48686Y6818
X48686Y22766
X50573Y26369
X50086Y26566
X49186Y27416
T02
X40057Y32928
X39557Y32928
X39557Y33428
X39557Y33928
X39557Y34428
X39557Y34928
X40057Y34928
X40057Y34428
X40057Y33928
X40057Y33428
X58905Y33428
X58905Y32928
X59405Y32928
X59405Y33428
X59405Y33928
X58905Y33928
X58905Y34428
X58905Y34928
X59405Y34928
X59405Y34428
X59405Y48876
X58905Y48876
X58905Y49376
X58905Y49876
X58905Y50376
X58905Y50876
X59405Y50876
X59405Y50376
X59405Y49876
X59405Y49376
X40057Y49376
X40057Y48876
X39557Y48876
X39557Y49376
X39557Y49876
X40057Y49876
X40057Y50376
X39557Y50376
X39557Y50876
X40057Y50876
X20709Y50876
X20709Y50376
X20709Y49876
X20709Y49376
X20709Y48876
X20209Y48876
X20209Y49376
X20209Y49876
X20209Y50376
X20209Y50876
X20209Y34928
X20209Y34428
X20209Y33928
X20209Y33428
X20209Y32928
X20709Y32928
X20709Y33428
X20709Y33928
X20709Y34428
X20709Y34928
X20709Y18980
X20209Y18980
X20209Y18480
X20209Y17980
X20209Y17480
X20209Y16980
X20709Y16980
X20709Y17480
X20709Y17980
X20709Y18480
X39557Y18480
X39557Y17980
X39557Y17480
X39557Y16980
X40057Y16980
X40057Y17480
X40057Y17980
X40057Y18480
X40057Y18980
X39557Y18980
X58905Y18980
X58905Y18480
X58905Y17980
X58905Y17480
X58905Y16980
X59405Y16980
X59405Y17480
X59405Y17980
X59405Y18480
X59405Y18980
T03
X49392Y20185
X49392Y22747
X49392Y36133
X49392Y38695
X49392Y52081
X30044Y52081
X30044Y38695
X30044Y36133
X30044Y22747
X30044Y20185
X30044Y6799
X49392Y6799
X10696Y6799
X10696Y20185
X10696Y22747
X10696Y36133
X10696Y38695
X10696Y52081
T04
X16940Y39014
X17940Y39014
X18940Y39014
X19940Y39014
X20940Y39014
X20940Y38014
X19940Y38014
X18940Y38014
X17940Y38014
X16940Y38014
X36288Y38014
X37288Y38014
X38288Y38014
X39288Y38014
X40288Y38014
X40288Y39014
X39288Y39014
X38288Y39014
X37288Y39014
X36288Y39014
X55636Y39014
X56636Y39014
X57636Y39014
X58636Y39014
X59636Y39014
X59636Y38014
X58636Y38014
X57636Y38014
X56636Y38014
X55636Y38014
X55636Y23066
X56636Y23066
X57636Y23066
X58636Y23066
X59636Y23066
X59636Y22066
X58636Y22066
X57636Y22066
X56636Y22066
X55636Y22066
X40288Y22066
X39288Y22066
X38288Y22066
X37288Y22066
X37288Y23066
X38288Y23066
X39288Y23066
X40288Y23066
X36288Y23066
X36288Y22066
X20940Y22066
X19940Y22066
X19940Y23066
X20940Y23066
X18940Y23066
X17940Y23066
X16940Y23066
X16940Y22066
X17940Y22066
X18940Y22066
X18940Y7118
X17940Y7118
X16940Y7118
X16940Y6118
X17940Y6118
X18940Y6118
X19940Y6118
X20940Y6118
X20940Y7118
X19940Y7118
X36288Y7118
X37288Y7118
X38288Y7118
X39288Y7118
X40288Y7118
X40288Y6118
X39288Y6118
X38288Y6118
X37288Y6118
X36288Y6118
X55636Y6118
X56636Y6118
X57636Y6118
X58636Y6118
X59636Y6118
X59636Y7118
X58636Y7118
X57636Y7118
X56636Y7118
X55636Y7118
T05
X47226Y11492
X47226Y15492
X47226Y27440
X47226Y31440
X47226Y43388
X47226Y47388
X27878Y47388
X27878Y43388
X27878Y31440
X27878Y27440
X27878Y15492
X27878Y11492
X8530Y11492
X8530Y15492
X8530Y27440
X8530Y31440
X8530Y43388
X8530Y47388
T06
X9053Y6732
X22574Y6732
X28401Y6732
X41922Y6732
X47749Y6732
X61270Y6732
X61270Y20253
X61270Y22680
X47749Y22680
X47749Y20253
X41922Y20253
X41922Y22680
X28401Y22680
X28401Y20253
X22574Y20253
X22574Y22680
X9053Y22680
X9053Y20253
X9053Y36201
X9053Y38628
X22574Y38628
X22574Y36201
X28401Y36201
X28401Y38628
X41922Y38628
X41922Y36201
X47749Y36201
X47749Y38628
X61270Y38628
X61270Y36201
X61270Y52149
X47749Y52149
X41922Y52149
X28401Y52149
X22574Y52149
X9053Y52149
M30
