M48
;GenerationSoftware,Autodesk,EAGLE,9.4.2*%
;CreationDate,2019-07-25T22:15:45Z*%
FMAT,2
ICI,OFF
METRIC,TZ,000.000
T6C0.305
T5C0.508
T4C0.800
T3C1.016
T2C1.400
T1C3.302
%
G90
M71
T1
X86824Y118188
X136476Y83844
X102132Y118188
X2828Y2828
X37172Y2828
X2828Y37172
X37172Y37172
X37172Y118188
X136476Y118188
X102132Y43336
X136476Y43336
X52480Y2828
X86824Y2828
X52480Y37172
X86824Y37172
X102132Y83844
X102132Y77680
X136476Y77680
X86824Y43336
X102132Y2828
X136476Y2828
X102132Y37172
X136476Y37172
X2828Y118188
X52480Y83844
X2828Y83844
X37172Y83844
X2828Y43336
X37172Y43336
X2828Y77680
X37172Y77680
X86824Y83844
X52480Y118188
X52480Y43336
X52480Y77680
X86824Y77680
T2
X1500Y25080
X1500Y14920
X100804Y95936
X51152Y25080
X51152Y14920
X51152Y106096
X100804Y25080
X51152Y95936
X1500Y65588
X1500Y55428
X100804Y55428
X100804Y14920
X100804Y106096
X1500Y106096
X1500Y95936
X51152Y55428
X51152Y65588
X100804Y65588
T3
X25400Y44318
X22860Y44318
X33020Y41778
X30480Y41778
X122164Y1270
X124704Y1270
X72512Y44318
X33020Y44318
X127244Y1270
X129784Y1270
X132324Y1270
X122164Y3810
X124704Y3810
X127244Y3810
X129784Y3810
X132324Y3810
X27940Y41778
X25400Y41778
X22860Y41778
X22860Y1270
X25400Y1270
X27940Y1270
X30480Y1270
X33020Y1270
X22860Y3810
X25400Y3810
X27940Y3810
X30480Y3810
X33020Y3810
X132324Y41778
X129784Y41778
X127244Y41778
X124704Y41778
X122164Y41778
X82672Y44318
X80132Y44318
X77592Y44318
X75052Y44318
X82672Y41778
X72512Y1270
X75052Y1270
X77592Y1270
X80132Y1270
X82672Y1270
X72512Y3810
X75052Y3810
X77592Y3810
X80132Y3810
X82672Y3810
X80132Y41778
X77592Y41778
X75052Y41778
X72512Y41778
X30480Y44318
X27940Y44318
X122164Y44318
X124704Y44318
X127244Y44318
X129784Y44318
X132324Y44318
X80132Y84826
X22860Y82286
X25400Y82286
X27940Y82286
X30480Y82286
X33020Y82286
X22860Y84826
X25400Y84826
X27940Y84826
X30480Y84826
X33020Y84826
X72512Y82286
X75052Y82286
X77592Y82286
X80132Y82286
X82672Y82286
X72512Y84826
X75052Y84826
X77592Y84826
X82672Y84826
X122164Y82286
X124704Y82286
X127244Y82286
X129784Y82286
X132324Y82286
X122164Y84826
X124704Y84826
X127244Y84826
X129784Y84826
X132324Y84826
T4
X2000Y50508
X2000Y30000
X2000Y10000
X51652Y30000
X51652Y10000
X101304Y30000
X101304Y10000
X51652Y70508
X51652Y50508
X101304Y70508
X101304Y50508
X2000Y111016
X2000Y91016
X2000Y70508
X51652Y111016
X51652Y91016
X101304Y111016
X101304Y91016
T5
X80817Y70638
X80817Y71908
X80817Y73178
X80817Y74448
X80817Y69368
X82087Y70638
X82087Y71908
X82087Y73178
X82087Y74448
X82087Y69368
X31165Y28860
X31165Y33940
X31165Y32670
X31165Y31400
X31165Y30130
X130469Y28860
X131739Y30130
X131739Y31400
X131739Y32670
X131739Y33940
X130469Y70638
X130469Y71908
X130469Y73178
X130469Y74448
X130469Y69368
X131739Y70638
X131739Y71908
X131739Y28860
X131739Y74448
X131739Y69368
X130469Y32670
X130469Y31400
X130469Y30130
X82087Y28860
X82087Y33940
X82087Y32670
X82087Y31400
X82087Y30130
X80817Y28860
X31165Y70638
X31165Y111146
X31165Y112416
X31165Y113686
X31165Y114956
X31165Y109876
X32435Y111146
X32435Y112416
X32435Y113686
X32435Y114956
X32435Y109876
X31165Y71908
X31165Y73178
X31165Y74448
X31165Y69368
X32435Y70638
X32435Y71908
X32435Y73178
X32435Y74448
X131739Y73178
X32435Y69368
X80817Y111146
X80817Y112416
X80817Y113686
X80817Y114956
X80817Y109876
X82087Y111146
X82087Y112416
X82087Y113686
X82087Y114956
X82087Y109876
X80817Y33940
X80817Y32670
X80817Y31400
X80817Y30130
X32435Y28860
X130469Y33940
X32435Y33940
X32435Y32670
X32435Y31400
X32435Y30130
X130469Y111146
X130469Y112416
X130469Y113686
X130469Y114956
X130469Y109876
X131739Y111146
X131739Y112416
X131739Y113686
X131739Y114956
X131739Y109876
T6
X36700Y68358
X36533Y54308
X18200Y52308
X35967Y53508
X18100Y50608
X10000Y52708
X36700Y70734
X18900Y70908
X15100Y62408
X34846Y62054
X10929Y69541
X11049Y73741
X6985Y73655
X36500Y63408
X14300Y67708
X16000Y59508
X3967Y68208
X5300Y51908
X26700Y62265
X3256Y68608
X2411Y49116
X31800Y62570
X28639Y69247
X22217Y73308
X31467Y52975
X18000Y48308
X35900Y52608
X20000Y48308
X66797Y55008
X70647Y71008
X75652Y70608
X85685Y67208
X63241Y43556
X56129Y55367
X58415Y53208
X71623Y57526
X78100Y54986
X83307Y54859
X83180Y57653
X89022Y63368
X89022Y57653
X89022Y54986
X70652Y68108
X68852Y72908
X57652Y74508
X58523Y67910
X64511Y65019
X71369Y50287
X74925Y50922
X71242Y52827
X68652Y69308
X79100Y54986
X77200Y64786
X70852Y76408
X64352Y73908
X64452Y76408
X68620Y65822
X56223Y72010
X63315Y51208
X56115Y51008
X50515Y52408
X52115Y72008
X60769Y74503
X77211Y57399
X88652Y62508
X84685Y65808
X86552Y62508
X55552Y63008
X85152Y63408
X55052Y69208
X86352Y68358
X86185Y54308
X67852Y52308
X85619Y53508
X67752Y50608
X59652Y52708
X86352Y70734
X68552Y70908
X64752Y62408
X84498Y62054
X60581Y69541
X60701Y73741
X56637Y73655
X86152Y63408
X63952Y67708
X65652Y59508
X53619Y68208
X54952Y51908
X76352Y62265
X52908Y68608
X52063Y49116
X81452Y62570
X78291Y69247
X71869Y73308
X81119Y52975
X67652Y48308
X85552Y52608
X69652Y48308
X116449Y55008
X120299Y71008
X125304Y70608
X135337Y67208
X112893Y43556
X105781Y55367
X108067Y53208
X121275Y57526
X127752Y54986
X132959Y54859
X132832Y57653
X138674Y63368
X138674Y57653
X138674Y54986
X120304Y68108
X118504Y72908
X107304Y74508
X108175Y67910
X114163Y65019
X121021Y50287
X124577Y50922
X120894Y52827
X118304Y69308
X128752Y54986
X126852Y64786
X120504Y76408
X114004Y73908
X114104Y76408
X118272Y65822
X105875Y72010
X112967Y51208
X105767Y51008
X100167Y52408
X101767Y72008
X110421Y74503
X126863Y57399
X138304Y62508
X134337Y65808
X136204Y62508
X105204Y63008
X134804Y63408
X104704Y69208
X136004Y68358
X135837Y54308
X117504Y52308
X135271Y53508
X117404Y50608
X109304Y52708
X136004Y70734
X118204Y70908
X114404Y62408
X134150Y62054
X110233Y69541
X110353Y73741
X106289Y73655
X135804Y63408
X113604Y67708
X115304Y59508
X103271Y68208
X104604Y51908
X126004Y62265
X102560Y68608
X101715Y49116
X131104Y62570
X127943Y69247
X121521Y73308
X130771Y52975
X117304Y48308
X135204Y52608
X119304Y48308
X17145Y95516
X20995Y111516
X26000Y111116
X36033Y107716
X13589Y84064
X6477Y95875
X8763Y93716
X21971Y98034
X28448Y95494
X33655Y95367
X33528Y98161
X39370Y103876
X39370Y98161
X39370Y95494
X21000Y108616
X19200Y113416
X8000Y115016
X8871Y108418
X14859Y105527
X21717Y90795
X25273Y91430
X85152Y22900
X19000Y109816
X29448Y95494
X27548Y105294
X21200Y116916
X14700Y114416
X14800Y116916
X18968Y106330
X6571Y112518
X13663Y91716
X6463Y91516
X863Y92916
X2463Y112516
X11117Y115011
X27559Y97907
X39000Y103016
X35033Y106316
X36900Y103016
X5900Y103516
X35500Y103916
X5400Y109716
X36700Y108866
X36533Y94816
X18200Y92816
X35967Y94016
X18100Y91116
X10000Y93216
X36700Y111242
X18900Y111416
X15100Y102916
X34846Y102562
X10929Y110049
X11049Y114249
X6985Y114163
X36500Y103916
X14300Y108216
X16000Y100016
X3967Y108716
X5300Y92416
X26700Y102773
X3256Y109116
X2411Y89624
X31800Y103078
X28639Y109755
X22217Y113816
X31467Y93483
X18000Y88816
X35900Y93116
X20000Y88816
X66797Y95516
X70647Y111516
X75652Y111116
X85685Y107716
X63241Y84064
X56129Y95875
X58415Y93716
X71623Y98034
X78100Y95494
X83307Y95367
X83180Y98161
X89022Y103876
X89022Y98161
X89022Y95494
X70652Y108616
X68852Y113416
X57652Y115016
X58523Y108418
X64511Y105527
X71369Y90795
X74925Y91430
X71242Y93335
X68652Y109816
X79100Y95494
X77200Y105294
X70852Y116916
X64352Y114416
X64452Y116916
X68620Y106330
X56223Y112518
X63315Y91716
X56115Y91516
X50515Y92916
X52115Y112516
X60769Y115011
X77211Y97907
X88652Y103016
X84685Y106316
X86552Y103016
X55552Y103516
X85152Y103916
X55052Y109716
X86352Y108866
X86185Y94816
X67852Y92816
X85619Y94016
X67752Y91116
X59652Y93216
X86352Y111242
X68552Y111416
X64752Y102916
X84498Y102562
X60581Y110049
X60701Y114249
X56637Y114163
X86152Y103916
X63952Y108216
X65652Y100016
X53619Y108716
X54952Y92416
X76352Y102773
X52908Y109116
X52063Y89624
X81452Y103078
X78291Y109755
X71869Y113816
X81119Y93483
X67652Y88816
X85552Y93116
X69652Y88816
X116449Y95516
X120299Y111516
X125304Y111116
X135337Y107716
X112893Y84064
X105781Y95875
X108067Y93716
X121275Y98034
X127752Y95494
X132959Y95367
X132832Y98161
X138674Y103876
X138674Y98161
X138674Y95494
X120304Y108616
X118504Y113416
X107304Y115016
X108175Y108418
X114163Y105527
X121021Y90795
X124577Y91430
X120894Y93335
X118304Y109816
X128752Y95494
X126852Y105294
X120504Y116916
X114004Y114416
X114104Y116916
X118272Y106330
X105875Y112518
X112967Y91716
X105767Y91516
X100167Y92916
X101767Y112516
X110421Y115011
X126863Y97907
X138304Y103016
X134337Y106316
X136204Y103016
X105204Y103516
X134804Y103916
X104704Y109716
X136004Y108866
X135837Y94816
X117504Y92816
X135271Y94016
X117404Y91116
X109304Y93216
X136004Y111242
X118204Y111416
X114404Y102916
X134150Y102562
X110233Y110049
X110353Y114249
X106289Y114163
X135804Y103916
X113604Y108216
X115304Y100016
X103271Y108716
X104604Y92416
X126004Y102773
X102560Y109116
X101715Y89624
X131104Y103078
X127943Y109755
X121521Y113816
X130771Y93483
X117304Y88816
X135204Y93116
X119304Y88816
X17145Y14500
X20995Y30500
X26000Y30100
X36033Y26700
X13589Y3048
X6477Y14859
X8763Y12700
X21971Y17018
X28448Y14478
X33655Y14351
X33528Y17145
X39370Y22860
X39370Y17145
X39370Y14478
X21000Y27600
X19200Y32400
X8000Y34000
X8871Y27402
X14859Y24511
X21717Y9779
X25273Y10414
X21590Y12319
X19000Y28800
X29448Y14478
X27548Y24278
X21200Y35900
X14700Y33400
X14800Y35900
X18968Y25314
X6571Y31502
X13663Y10700
X6463Y10500
X863Y11900
X2463Y31500
X11117Y33995
X27559Y16891
X39000Y22000
X35033Y25300
X36900Y22000
X5900Y22500
X35500Y22900
X5400Y28700
X36700Y27850
X36533Y13800
X18200Y11800
X35967Y13000
X18100Y10100
X10000Y12200
X36700Y30226
X18900Y30400
X15100Y21900
X34846Y21546
X10929Y29033
X11049Y33233
X6985Y33147
X36500Y22900
X14300Y27200
X16000Y19000
X3967Y27700
X5300Y11400
X26700Y21757
X3256Y28100
X2411Y8608
X31800Y22062
X28639Y28739
X22217Y32800
X31467Y12467
X18000Y7800
X35900Y12100
X20000Y7800
X66797Y14500
X70647Y30500
X75652Y30100
X85685Y26700
X63241Y3048
X56129Y14859
X58415Y12700
X71623Y17018
X78100Y14478
X83307Y14351
X83180Y17145
X89022Y22860
X89022Y17145
X89022Y14478
X70652Y27600
X68852Y32400
X57652Y34000
X58523Y27402
X64511Y24511
X71369Y9779
X74925Y10414
X71242Y12319
X68652Y28800
X79100Y14478
X77200Y24278
X70852Y35900
X64352Y33400
X64452Y35900
X68620Y25314
X56223Y31502
X63315Y10700
X56115Y10500
X50515Y11900
X52115Y31500
X60769Y33995
X77211Y16891
X88652Y22000
X84685Y25300
X86552Y22000
X55552Y22500
X55052Y28700
X86352Y27850
X86185Y13800
X67852Y11800
X85619Y13000
X67752Y10100
X59652Y12200
X86352Y30226
X68552Y30400
X64752Y21900
X84498Y21546
X60581Y29033
X60701Y33233
X56637Y33147
X86152Y22900
X63952Y27200
X65652Y19000
X53619Y27700
X54952Y11400
X76352Y21757
X52908Y28100
X52063Y8608
X81452Y22062
X78291Y28739
X71869Y32800
X81119Y12467
X67652Y7800
X85552Y12100
X69652Y7800
X116449Y14500
X120299Y30500
X21590Y93335
X125304Y30100
X135337Y26700
X112893Y3048
X105781Y14859
X108067Y12700
X121275Y17018
X127752Y14478
X132959Y14351
X132832Y17145
X138674Y22860
X138674Y17145
X138674Y14478
X120304Y27600
X118504Y32400
X107304Y34000
X108175Y27402
X114163Y24511
X121021Y9779
X124577Y10414
X120894Y12319
X118304Y28800
X128752Y14478
X126852Y24278
X120504Y35900
X114004Y33400
X114104Y35900
X118272Y25314
X105875Y31502
X112967Y10700
X105767Y10500
X100167Y11900
X101767Y31500
X110421Y33995
X126863Y16891
X138304Y22000
X134337Y25300
X136204Y22000
X105204Y22500
X134804Y22900
X104704Y28700
X136004Y27850
X135837Y13800
X117504Y11800
X135271Y13000
X117404Y10100
X109304Y12200
X136004Y30226
X118204Y30400
X114404Y21900
X134150Y21546
X110233Y29033
X110353Y33233
X106289Y33147
X135804Y22900
X113604Y27200
X115304Y19000
X103271Y27700
X104604Y11400
X126004Y21757
X102560Y28100
X101715Y8608
X131104Y22062
X127943Y28739
X121521Y32800
X130771Y12467
X117304Y7800
X135204Y12100
X119304Y7800
X17145Y55008
X20995Y71008
X26000Y70608
X36033Y67208
X13589Y43556
X6477Y55367
X8763Y53208
X21971Y57526
X28448Y54986
X33655Y54859
X33528Y57653
X39370Y63368
X39370Y57653
X39370Y54986
X21000Y68108
X19200Y72908
X8000Y74508
X8871Y67910
X14859Y65019
X21717Y50287
X25273Y50922
X21590Y52827
X19000Y69308
X29448Y54986
X27548Y64786
X21200Y76408
X14700Y73908
X14800Y76408
X18968Y65822
X6571Y72010
X13663Y51208
X6463Y51008
X863Y52408
X2463Y72008
X11117Y74503
X27559Y57399
X39000Y62508
X35033Y65808
X36900Y62508
X5900Y63008
X35500Y63408
X5400Y69208
M30