G75*
%MOIN*%
%OFA0B0*%
%FSLAX25Y25*%
%IPPOS*%
%LPD*%
%AMOC8*
5,1,8,0,0,1.08239X$1,22.5*
%
%ADD10R,0.11811X0.03937*%
%ADD11R,0.07087X0.03937*%
%ADD12R,0.02362X0.02362*%
%ADD13R,0.00984X0.01083*%
%ADD14R,0.01083X0.00984*%
%ADD15R,0.03937X0.04331*%
%ADD16R,0.02480X0.03268*%
%ADD17R,0.02165X0.04724*%
%ADD18C,0.01181*%
%ADD19R,0.07874X0.04724*%
%ADD20R,0.05315X0.02362*%
%ADD21R,0.01575X0.02362*%
%ADD22R,0.02362X0.01575*%
%ADD23R,0.02055X0.02854*%
%ADD24R,0.00787X0.01969*%
%ADD25C,0.00197*%
%ADD26R,0.01969X0.00787*%
%ADD27R,0.03543X0.03937*%
%ADD28R,0.04331X0.03937*%
%ADD29R,0.01181X0.05512*%
%ADD30R,0.04921X0.09055*%
%ADD31R,0.05512X0.06299*%
D10*
X0104987Y0109921D03*
X0104987Y0119921D03*
X0104987Y0129921D03*
X0104987Y0139921D03*
X0104987Y0149921D03*
X0104987Y0159921D03*
X0104987Y0269402D03*
X0104987Y0279402D03*
X0104987Y0289402D03*
X0104987Y0299402D03*
X0104987Y0309402D03*
X0104987Y0319402D03*
X0104987Y0428882D03*
X0104987Y0438882D03*
X0104987Y0448882D03*
X0104987Y0458882D03*
X0104987Y0468882D03*
X0104987Y0478882D03*
X0300467Y0478882D03*
X0300467Y0468882D03*
X0300467Y0458882D03*
X0300467Y0448882D03*
X0300467Y0438882D03*
X0300467Y0428882D03*
X0300467Y0319402D03*
X0300467Y0309402D03*
X0300467Y0299402D03*
X0300467Y0289402D03*
X0300467Y0279402D03*
X0300467Y0269402D03*
X0300467Y0159921D03*
X0300467Y0149921D03*
X0300467Y0139921D03*
X0300467Y0129921D03*
X0300467Y0119921D03*
X0300467Y0109921D03*
X0495947Y0109921D03*
X0495947Y0119921D03*
X0495947Y0129921D03*
X0495947Y0139921D03*
X0495947Y0149921D03*
X0495947Y0159921D03*
X0495947Y0269402D03*
X0495947Y0279402D03*
X0495947Y0289402D03*
X0495947Y0299402D03*
X0495947Y0309402D03*
X0495947Y0319402D03*
X0495947Y0428882D03*
X0495947Y0438882D03*
X0495947Y0448882D03*
X0495947Y0458882D03*
X0495947Y0468882D03*
X0495947Y0478882D03*
D11*
X0568782Y0446992D03*
X0568782Y0437150D03*
X0568782Y0287512D03*
X0568782Y0277669D03*
X0373302Y0277669D03*
X0373302Y0287512D03*
X0177822Y0287512D03*
X0177822Y0277669D03*
X0177822Y0128031D03*
X0177822Y0118189D03*
X0373302Y0118189D03*
X0373302Y0128031D03*
X0568782Y0128031D03*
X0568782Y0118189D03*
X0373302Y0437150D03*
X0373302Y0446992D03*
X0177822Y0446992D03*
X0177822Y0437150D03*
D12*
X0184514Y0437740D03*
X0184514Y0434591D03*
X0184514Y0430654D03*
X0191601Y0436165D03*
X0184514Y0441677D03*
X0169948Y0440102D03*
X0169948Y0436165D03*
X0162073Y0432228D03*
X0162073Y0428291D03*
X0154199Y0428291D03*
X0154199Y0432228D03*
X0169948Y0444039D03*
X0169948Y0447976D03*
X0167979Y0420417D03*
X0167979Y0416480D03*
X0101050Y0416480D03*
X0101050Y0412543D03*
X0191601Y0471598D03*
X0162073Y0487346D03*
X0162073Y0491283D03*
X0156168Y0499157D03*
X0152231Y0499157D03*
X0152231Y0478685D03*
X0156168Y0478685D03*
X0101050Y0491283D03*
X0101050Y0495220D03*
X0296530Y0495220D03*
X0296530Y0491283D03*
X0347711Y0499157D03*
X0351648Y0499157D03*
X0357554Y0491283D03*
X0357554Y0487346D03*
X0351648Y0478685D03*
X0347711Y0478685D03*
X0387081Y0471598D03*
X0365428Y0447976D03*
X0365428Y0444039D03*
X0365428Y0440102D03*
X0365428Y0436165D03*
X0357554Y0432228D03*
X0357554Y0428291D03*
X0349680Y0428291D03*
X0349680Y0432228D03*
X0363459Y0420417D03*
X0363459Y0416480D03*
X0379995Y0430654D03*
X0379995Y0434591D03*
X0379995Y0437740D03*
X0379995Y0441677D03*
X0387081Y0436165D03*
X0296530Y0416480D03*
X0296530Y0412543D03*
X0347711Y0339677D03*
X0351648Y0339677D03*
X0357554Y0331803D03*
X0357554Y0327866D03*
X0351648Y0319205D03*
X0347711Y0319205D03*
X0365428Y0288496D03*
X0365428Y0284559D03*
X0365428Y0280622D03*
X0365428Y0276685D03*
X0357554Y0272748D03*
X0357554Y0268811D03*
X0349680Y0268811D03*
X0349680Y0272748D03*
X0363459Y0260937D03*
X0363459Y0257000D03*
X0379995Y0271173D03*
X0379995Y0275110D03*
X0379995Y0278260D03*
X0379995Y0282197D03*
X0387081Y0276685D03*
X0387081Y0312118D03*
X0296530Y0331803D03*
X0296530Y0335740D03*
X0296530Y0257000D03*
X0296530Y0253063D03*
X0347711Y0180197D03*
X0351648Y0180197D03*
X0357554Y0172323D03*
X0357554Y0168386D03*
X0351648Y0159724D03*
X0347711Y0159724D03*
X0387081Y0152638D03*
X0365428Y0129016D03*
X0365428Y0125079D03*
X0365428Y0121142D03*
X0365428Y0117205D03*
X0357554Y0113268D03*
X0357554Y0109331D03*
X0349680Y0109331D03*
X0349680Y0113268D03*
X0363459Y0101457D03*
X0363459Y0097520D03*
X0379995Y0111693D03*
X0379995Y0115630D03*
X0379995Y0118780D03*
X0379995Y0122717D03*
X0387081Y0117205D03*
X0296530Y0097520D03*
X0296530Y0093583D03*
X0296530Y0172323D03*
X0296530Y0176260D03*
X0191601Y0152638D03*
X0162073Y0168386D03*
X0162073Y0172323D03*
X0156168Y0180197D03*
X0152231Y0180197D03*
X0152231Y0159724D03*
X0156168Y0159724D03*
X0169948Y0129016D03*
X0169948Y0125079D03*
X0169948Y0121142D03*
X0169948Y0117205D03*
X0162073Y0113268D03*
X0162073Y0109331D03*
X0154199Y0109331D03*
X0154199Y0113268D03*
X0167979Y0101457D03*
X0167979Y0097520D03*
X0184514Y0111693D03*
X0184514Y0115630D03*
X0184514Y0118780D03*
X0184514Y0122717D03*
X0191601Y0117205D03*
X0101050Y0097520D03*
X0101050Y0093583D03*
X0101050Y0172323D03*
X0101050Y0176260D03*
X0101050Y0253063D03*
X0101050Y0257000D03*
X0154199Y0268811D03*
X0154199Y0272748D03*
X0162073Y0272748D03*
X0162073Y0268811D03*
X0167979Y0260937D03*
X0167979Y0257000D03*
X0184514Y0271173D03*
X0184514Y0275110D03*
X0184514Y0278260D03*
X0184514Y0282197D03*
X0191601Y0276685D03*
X0169948Y0276685D03*
X0169948Y0280622D03*
X0169948Y0284559D03*
X0169948Y0288496D03*
X0191601Y0312118D03*
X0162073Y0327866D03*
X0162073Y0331803D03*
X0156168Y0339677D03*
X0152231Y0339677D03*
X0152231Y0319205D03*
X0156168Y0319205D03*
X0101050Y0331803D03*
X0101050Y0335740D03*
X0492010Y0335740D03*
X0492010Y0331803D03*
X0543192Y0339677D03*
X0547129Y0339677D03*
X0553034Y0331803D03*
X0553034Y0327866D03*
X0547129Y0319205D03*
X0543192Y0319205D03*
X0560908Y0288496D03*
X0560908Y0284559D03*
X0560908Y0280622D03*
X0560908Y0276685D03*
X0553034Y0272748D03*
X0553034Y0268811D03*
X0545160Y0268811D03*
X0545160Y0272748D03*
X0558940Y0260937D03*
X0558940Y0257000D03*
X0575475Y0271173D03*
X0575475Y0275110D03*
X0575475Y0278260D03*
X0575475Y0282197D03*
X0582562Y0276685D03*
X0582562Y0312118D03*
X0492010Y0257000D03*
X0492010Y0253063D03*
X0543192Y0180197D03*
X0547129Y0180197D03*
X0553034Y0172323D03*
X0553034Y0168386D03*
X0547129Y0159724D03*
X0543192Y0159724D03*
X0582562Y0152638D03*
X0560908Y0129016D03*
X0560908Y0125079D03*
X0560908Y0121142D03*
X0560908Y0117205D03*
X0553034Y0113268D03*
X0553034Y0109331D03*
X0545160Y0109331D03*
X0545160Y0113268D03*
X0558940Y0101457D03*
X0558940Y0097520D03*
X0575475Y0111693D03*
X0575475Y0115630D03*
X0575475Y0118780D03*
X0575475Y0122717D03*
X0582562Y0117205D03*
X0492010Y0097520D03*
X0492010Y0093583D03*
X0492010Y0172323D03*
X0492010Y0176260D03*
X0492010Y0412543D03*
X0492010Y0416480D03*
X0545160Y0428291D03*
X0545160Y0432228D03*
X0553034Y0432228D03*
X0553034Y0428291D03*
X0560908Y0436165D03*
X0560908Y0440102D03*
X0560908Y0444039D03*
X0560908Y0447976D03*
X0575475Y0441677D03*
X0575475Y0437740D03*
X0575475Y0434591D03*
X0575475Y0430654D03*
X0582562Y0436165D03*
X0558940Y0420417D03*
X0558940Y0416480D03*
X0582562Y0471598D03*
X0553034Y0487346D03*
X0553034Y0491283D03*
X0547129Y0499157D03*
X0543192Y0499157D03*
X0543192Y0478685D03*
X0547129Y0478685D03*
X0492010Y0491283D03*
X0492010Y0495220D03*
D13*
X0548113Y0421402D03*
X0550081Y0421402D03*
X0550081Y0415496D03*
X0548113Y0415496D03*
X0354601Y0415496D03*
X0352633Y0415496D03*
X0352633Y0421402D03*
X0354601Y0421402D03*
X0159121Y0421402D03*
X0157152Y0421402D03*
X0157152Y0415496D03*
X0159121Y0415496D03*
X0159121Y0261921D03*
X0157152Y0261921D03*
X0157152Y0256016D03*
X0159121Y0256016D03*
X0352633Y0256016D03*
X0354601Y0256016D03*
X0354601Y0261921D03*
X0352633Y0261921D03*
X0548113Y0261921D03*
X0550081Y0261921D03*
X0550081Y0256016D03*
X0548113Y0256016D03*
X0548113Y0102441D03*
X0550081Y0102441D03*
X0550081Y0096535D03*
X0548113Y0096535D03*
X0354601Y0096535D03*
X0352633Y0096535D03*
X0352633Y0102441D03*
X0354601Y0102441D03*
X0159121Y0102441D03*
X0157152Y0102441D03*
X0157152Y0096535D03*
X0159121Y0096535D03*
D14*
X0161089Y0096535D03*
X0161089Y0098504D03*
X0161089Y0100472D03*
X0161089Y0102441D03*
X0155184Y0102441D03*
X0155184Y0100472D03*
X0155184Y0098504D03*
X0155184Y0096535D03*
X0350664Y0096535D03*
X0350664Y0098504D03*
X0350664Y0100472D03*
X0350664Y0102441D03*
X0356570Y0102441D03*
X0356570Y0100472D03*
X0356570Y0098504D03*
X0356570Y0096535D03*
X0546144Y0096535D03*
X0546144Y0098504D03*
X0546144Y0100472D03*
X0546144Y0102441D03*
X0552050Y0102441D03*
X0552050Y0100472D03*
X0552050Y0098504D03*
X0552050Y0096535D03*
X0552050Y0256016D03*
X0552050Y0257984D03*
X0552050Y0259953D03*
X0552050Y0261921D03*
X0546144Y0261921D03*
X0546144Y0259953D03*
X0546144Y0257984D03*
X0546144Y0256016D03*
X0356570Y0256016D03*
X0356570Y0257984D03*
X0356570Y0259953D03*
X0356570Y0261921D03*
X0350664Y0261921D03*
X0350664Y0259953D03*
X0350664Y0257984D03*
X0350664Y0256016D03*
X0161089Y0256016D03*
X0161089Y0257984D03*
X0161089Y0259953D03*
X0161089Y0261921D03*
X0155184Y0261921D03*
X0155184Y0259953D03*
X0155184Y0257984D03*
X0155184Y0256016D03*
X0155184Y0415496D03*
X0155184Y0417465D03*
X0155184Y0419433D03*
X0155184Y0421402D03*
X0161089Y0421402D03*
X0161089Y0419433D03*
X0161089Y0417465D03*
X0161089Y0415496D03*
X0350664Y0415496D03*
X0350664Y0417465D03*
X0350664Y0419433D03*
X0350664Y0421402D03*
X0356570Y0421402D03*
X0356570Y0419433D03*
X0356570Y0417465D03*
X0356570Y0415496D03*
X0546144Y0415496D03*
X0546144Y0417465D03*
X0546144Y0419433D03*
X0546144Y0421402D03*
X0552050Y0421402D03*
X0552050Y0419433D03*
X0552050Y0417465D03*
X0552050Y0415496D03*
D15*
X0553034Y0406047D03*
X0553034Y0399354D03*
X0545160Y0399354D03*
X0545160Y0406047D03*
X0537286Y0406047D03*
X0537286Y0399354D03*
X0529412Y0399354D03*
X0529412Y0406047D03*
X0564845Y0415102D03*
X0564845Y0421795D03*
X0369365Y0421795D03*
X0369365Y0415102D03*
X0357554Y0406047D03*
X0357554Y0399354D03*
X0349680Y0399354D03*
X0349680Y0406047D03*
X0341806Y0406047D03*
X0341806Y0399354D03*
X0333932Y0399354D03*
X0333932Y0406047D03*
X0173885Y0415102D03*
X0162073Y0406047D03*
X0162073Y0399354D03*
X0154199Y0399354D03*
X0154199Y0406047D03*
X0146325Y0406047D03*
X0146325Y0399354D03*
X0138451Y0399354D03*
X0138451Y0406047D03*
X0173885Y0421795D03*
X0173885Y0262315D03*
X0173885Y0255622D03*
X0162073Y0246567D03*
X0162073Y0239874D03*
X0154199Y0239874D03*
X0154199Y0246567D03*
X0146325Y0246567D03*
X0146325Y0239874D03*
X0138451Y0239874D03*
X0138451Y0246567D03*
X0173885Y0102835D03*
X0173885Y0096142D03*
X0162073Y0087087D03*
X0162073Y0080394D03*
X0154199Y0080394D03*
X0154199Y0087087D03*
X0146325Y0087087D03*
X0146325Y0080394D03*
X0138451Y0080394D03*
X0138451Y0087087D03*
X0333932Y0087087D03*
X0333932Y0080394D03*
X0341806Y0080394D03*
X0341806Y0087087D03*
X0349680Y0087087D03*
X0349680Y0080394D03*
X0357554Y0080394D03*
X0357554Y0087087D03*
X0369365Y0096142D03*
X0369365Y0102835D03*
X0529412Y0087087D03*
X0529412Y0080394D03*
X0537286Y0080394D03*
X0537286Y0087087D03*
X0545160Y0087087D03*
X0545160Y0080394D03*
X0553034Y0080394D03*
X0553034Y0087087D03*
X0564845Y0096142D03*
X0564845Y0102835D03*
X0553034Y0239874D03*
X0553034Y0246567D03*
X0545160Y0246567D03*
X0545160Y0239874D03*
X0537286Y0239874D03*
X0537286Y0246567D03*
X0529412Y0246567D03*
X0529412Y0239874D03*
X0564845Y0255622D03*
X0564845Y0262315D03*
X0369365Y0262315D03*
X0369365Y0255622D03*
X0357554Y0246567D03*
X0357554Y0239874D03*
X0349680Y0239874D03*
X0349680Y0246567D03*
X0341806Y0246567D03*
X0341806Y0239874D03*
X0333932Y0239874D03*
X0333932Y0246567D03*
D16*
X0322711Y0280622D03*
X0322711Y0288496D03*
X0313656Y0288496D03*
X0313656Y0280622D03*
X0127231Y0280622D03*
X0127231Y0288496D03*
X0118176Y0288496D03*
X0118176Y0280622D03*
X0118176Y0129016D03*
X0118176Y0121142D03*
X0127231Y0121142D03*
X0127231Y0129016D03*
X0313656Y0129016D03*
X0313656Y0121142D03*
X0322711Y0121142D03*
X0322711Y0129016D03*
X0509136Y0129016D03*
X0509136Y0121142D03*
X0518192Y0121142D03*
X0518192Y0129016D03*
X0518192Y0280622D03*
X0518192Y0288496D03*
X0509136Y0288496D03*
X0509136Y0280622D03*
X0509136Y0440102D03*
X0509136Y0447976D03*
X0518192Y0447976D03*
X0518192Y0440102D03*
X0322711Y0440102D03*
X0322711Y0447976D03*
X0313656Y0447976D03*
X0313656Y0440102D03*
X0127231Y0440102D03*
X0127231Y0447976D03*
X0118176Y0447976D03*
X0118176Y0440102D03*
D17*
X0150459Y0484196D03*
X0154199Y0484196D03*
X0157940Y0484196D03*
X0157940Y0494433D03*
X0150459Y0494433D03*
X0345940Y0494433D03*
X0353420Y0494433D03*
X0353420Y0484196D03*
X0349680Y0484196D03*
X0345940Y0484196D03*
X0541420Y0484196D03*
X0545160Y0484196D03*
X0548900Y0484196D03*
X0548900Y0494433D03*
X0541420Y0494433D03*
X0541420Y0334953D03*
X0548900Y0334953D03*
X0548900Y0324716D03*
X0545160Y0324716D03*
X0541420Y0324716D03*
X0353420Y0324716D03*
X0349680Y0324716D03*
X0345940Y0324716D03*
X0345940Y0334953D03*
X0353420Y0334953D03*
X0157940Y0334953D03*
X0150459Y0334953D03*
X0150459Y0324716D03*
X0154199Y0324716D03*
X0157940Y0324716D03*
X0157940Y0175473D03*
X0150459Y0175473D03*
X0150459Y0165236D03*
X0154199Y0165236D03*
X0157940Y0165236D03*
X0345940Y0165236D03*
X0349680Y0165236D03*
X0353420Y0165236D03*
X0353420Y0175473D03*
X0345940Y0175473D03*
X0541420Y0175473D03*
X0548900Y0175473D03*
X0548900Y0165236D03*
X0545160Y0165236D03*
X0541420Y0165236D03*
D18*
X0543782Y0229335D02*
X0546538Y0229335D01*
X0546538Y0226579D01*
X0543782Y0226579D01*
X0543782Y0229335D01*
X0543782Y0227701D02*
X0546538Y0227701D01*
X0546538Y0228823D02*
X0543782Y0228823D01*
X0543782Y0236240D02*
X0546538Y0236240D01*
X0546538Y0233484D01*
X0543782Y0233484D01*
X0543782Y0236240D01*
X0543782Y0234606D02*
X0546538Y0234606D01*
X0546538Y0235728D02*
X0543782Y0235728D01*
X0538664Y0236240D02*
X0535908Y0236240D01*
X0538664Y0236240D02*
X0538664Y0233484D01*
X0535908Y0233484D01*
X0535908Y0236240D01*
X0535908Y0234606D02*
X0538664Y0234606D01*
X0538664Y0235728D02*
X0535908Y0235728D01*
X0530790Y0236240D02*
X0528034Y0236240D01*
X0530790Y0236240D02*
X0530790Y0233484D01*
X0528034Y0233484D01*
X0528034Y0236240D01*
X0528034Y0234606D02*
X0530790Y0234606D01*
X0530790Y0235728D02*
X0528034Y0235728D01*
X0528034Y0229335D02*
X0530790Y0229335D01*
X0530790Y0226579D01*
X0528034Y0226579D01*
X0528034Y0229335D01*
X0528034Y0227701D02*
X0530790Y0227701D01*
X0530790Y0228823D02*
X0528034Y0228823D01*
X0535908Y0229335D02*
X0538664Y0229335D01*
X0538664Y0226579D01*
X0535908Y0226579D01*
X0535908Y0229335D01*
X0535908Y0227701D02*
X0538664Y0227701D01*
X0538664Y0228823D02*
X0535908Y0228823D01*
X0551656Y0229335D02*
X0554412Y0229335D01*
X0554412Y0226579D01*
X0551656Y0226579D01*
X0551656Y0229335D01*
X0551656Y0227701D02*
X0554412Y0227701D01*
X0554412Y0228823D02*
X0551656Y0228823D01*
X0551656Y0236240D02*
X0554412Y0236240D01*
X0554412Y0233484D01*
X0551656Y0233484D01*
X0551656Y0236240D01*
X0551656Y0234606D02*
X0554412Y0234606D01*
X0554412Y0235728D02*
X0551656Y0235728D01*
X0358932Y0236240D02*
X0356176Y0236240D01*
X0358932Y0236240D02*
X0358932Y0233484D01*
X0356176Y0233484D01*
X0356176Y0236240D01*
X0356176Y0234606D02*
X0358932Y0234606D01*
X0358932Y0235728D02*
X0356176Y0235728D01*
X0351058Y0236240D02*
X0348302Y0236240D01*
X0351058Y0236240D02*
X0351058Y0233484D01*
X0348302Y0233484D01*
X0348302Y0236240D01*
X0348302Y0234606D02*
X0351058Y0234606D01*
X0351058Y0235728D02*
X0348302Y0235728D01*
X0343184Y0236240D02*
X0340428Y0236240D01*
X0343184Y0236240D02*
X0343184Y0233484D01*
X0340428Y0233484D01*
X0340428Y0236240D01*
X0340428Y0234606D02*
X0343184Y0234606D01*
X0343184Y0235728D02*
X0340428Y0235728D01*
X0335310Y0236240D02*
X0332554Y0236240D01*
X0335310Y0236240D02*
X0335310Y0233484D01*
X0332554Y0233484D01*
X0332554Y0236240D01*
X0332554Y0234606D02*
X0335310Y0234606D01*
X0335310Y0235728D02*
X0332554Y0235728D01*
X0332554Y0229335D02*
X0335310Y0229335D01*
X0335310Y0226579D01*
X0332554Y0226579D01*
X0332554Y0229335D01*
X0332554Y0227701D02*
X0335310Y0227701D01*
X0335310Y0228823D02*
X0332554Y0228823D01*
X0340428Y0229335D02*
X0343184Y0229335D01*
X0343184Y0226579D01*
X0340428Y0226579D01*
X0340428Y0229335D01*
X0340428Y0227701D02*
X0343184Y0227701D01*
X0343184Y0228823D02*
X0340428Y0228823D01*
X0348302Y0229335D02*
X0351058Y0229335D01*
X0351058Y0226579D01*
X0348302Y0226579D01*
X0348302Y0229335D01*
X0348302Y0227701D02*
X0351058Y0227701D01*
X0351058Y0228823D02*
X0348302Y0228823D01*
X0356176Y0229335D02*
X0358932Y0229335D01*
X0358932Y0226579D01*
X0356176Y0226579D01*
X0356176Y0229335D01*
X0356176Y0227701D02*
X0358932Y0227701D01*
X0358932Y0228823D02*
X0356176Y0228823D01*
X0163451Y0229335D02*
X0160695Y0229335D01*
X0163451Y0229335D02*
X0163451Y0226579D01*
X0160695Y0226579D01*
X0160695Y0229335D01*
X0160695Y0227701D02*
X0163451Y0227701D01*
X0163451Y0228823D02*
X0160695Y0228823D01*
X0160695Y0236240D02*
X0163451Y0236240D01*
X0163451Y0233484D01*
X0160695Y0233484D01*
X0160695Y0236240D01*
X0160695Y0234606D02*
X0163451Y0234606D01*
X0163451Y0235728D02*
X0160695Y0235728D01*
X0155577Y0236240D02*
X0152821Y0236240D01*
X0155577Y0236240D02*
X0155577Y0233484D01*
X0152821Y0233484D01*
X0152821Y0236240D01*
X0152821Y0234606D02*
X0155577Y0234606D01*
X0155577Y0235728D02*
X0152821Y0235728D01*
X0147703Y0236240D02*
X0144947Y0236240D01*
X0147703Y0236240D02*
X0147703Y0233484D01*
X0144947Y0233484D01*
X0144947Y0236240D01*
X0144947Y0234606D02*
X0147703Y0234606D01*
X0147703Y0235728D02*
X0144947Y0235728D01*
X0139829Y0236240D02*
X0137073Y0236240D01*
X0139829Y0236240D02*
X0139829Y0233484D01*
X0137073Y0233484D01*
X0137073Y0236240D01*
X0137073Y0234606D02*
X0139829Y0234606D01*
X0139829Y0235728D02*
X0137073Y0235728D01*
X0137073Y0229335D02*
X0139829Y0229335D01*
X0139829Y0226579D01*
X0137073Y0226579D01*
X0137073Y0229335D01*
X0137073Y0227701D02*
X0139829Y0227701D01*
X0139829Y0228823D02*
X0137073Y0228823D01*
X0144947Y0229335D02*
X0147703Y0229335D01*
X0147703Y0226579D01*
X0144947Y0226579D01*
X0144947Y0229335D01*
X0144947Y0227701D02*
X0147703Y0227701D01*
X0147703Y0228823D02*
X0144947Y0228823D01*
X0152821Y0229335D02*
X0155577Y0229335D01*
X0155577Y0226579D01*
X0152821Y0226579D01*
X0152821Y0229335D01*
X0152821Y0227701D02*
X0155577Y0227701D01*
X0155577Y0228823D02*
X0152821Y0228823D01*
X0152821Y0076760D02*
X0155577Y0076760D01*
X0155577Y0074004D01*
X0152821Y0074004D01*
X0152821Y0076760D01*
X0152821Y0075126D02*
X0155577Y0075126D01*
X0155577Y0076248D02*
X0152821Y0076248D01*
X0147703Y0076760D02*
X0144947Y0076760D01*
X0147703Y0076760D02*
X0147703Y0074004D01*
X0144947Y0074004D01*
X0144947Y0076760D01*
X0144947Y0075126D02*
X0147703Y0075126D01*
X0147703Y0076248D02*
X0144947Y0076248D01*
X0139829Y0076760D02*
X0137073Y0076760D01*
X0139829Y0076760D02*
X0139829Y0074004D01*
X0137073Y0074004D01*
X0137073Y0076760D01*
X0137073Y0075126D02*
X0139829Y0075126D01*
X0139829Y0076248D02*
X0137073Y0076248D01*
X0137073Y0069854D02*
X0139829Y0069854D01*
X0139829Y0067098D01*
X0137073Y0067098D01*
X0137073Y0069854D01*
X0137073Y0068220D02*
X0139829Y0068220D01*
X0139829Y0069342D02*
X0137073Y0069342D01*
X0144947Y0069854D02*
X0147703Y0069854D01*
X0147703Y0067098D01*
X0144947Y0067098D01*
X0144947Y0069854D01*
X0144947Y0068220D02*
X0147703Y0068220D01*
X0147703Y0069342D02*
X0144947Y0069342D01*
X0152821Y0069854D02*
X0155577Y0069854D01*
X0155577Y0067098D01*
X0152821Y0067098D01*
X0152821Y0069854D01*
X0152821Y0068220D02*
X0155577Y0068220D01*
X0155577Y0069342D02*
X0152821Y0069342D01*
X0160695Y0069854D02*
X0163451Y0069854D01*
X0163451Y0067098D01*
X0160695Y0067098D01*
X0160695Y0069854D01*
X0160695Y0068220D02*
X0163451Y0068220D01*
X0163451Y0069342D02*
X0160695Y0069342D01*
X0160695Y0076760D02*
X0163451Y0076760D01*
X0163451Y0074004D01*
X0160695Y0074004D01*
X0160695Y0076760D01*
X0160695Y0075126D02*
X0163451Y0075126D01*
X0163451Y0076248D02*
X0160695Y0076248D01*
X0332554Y0076760D02*
X0335310Y0076760D01*
X0335310Y0074004D01*
X0332554Y0074004D01*
X0332554Y0076760D01*
X0332554Y0075126D02*
X0335310Y0075126D01*
X0335310Y0076248D02*
X0332554Y0076248D01*
X0332554Y0069854D02*
X0335310Y0069854D01*
X0335310Y0067098D01*
X0332554Y0067098D01*
X0332554Y0069854D01*
X0332554Y0068220D02*
X0335310Y0068220D01*
X0335310Y0069342D02*
X0332554Y0069342D01*
X0340428Y0069854D02*
X0343184Y0069854D01*
X0343184Y0067098D01*
X0340428Y0067098D01*
X0340428Y0069854D01*
X0340428Y0068220D02*
X0343184Y0068220D01*
X0343184Y0069342D02*
X0340428Y0069342D01*
X0340428Y0076760D02*
X0343184Y0076760D01*
X0343184Y0074004D01*
X0340428Y0074004D01*
X0340428Y0076760D01*
X0340428Y0075126D02*
X0343184Y0075126D01*
X0343184Y0076248D02*
X0340428Y0076248D01*
X0348302Y0076760D02*
X0351058Y0076760D01*
X0351058Y0074004D01*
X0348302Y0074004D01*
X0348302Y0076760D01*
X0348302Y0075126D02*
X0351058Y0075126D01*
X0351058Y0076248D02*
X0348302Y0076248D01*
X0348302Y0069854D02*
X0351058Y0069854D01*
X0351058Y0067098D01*
X0348302Y0067098D01*
X0348302Y0069854D01*
X0348302Y0068220D02*
X0351058Y0068220D01*
X0351058Y0069342D02*
X0348302Y0069342D01*
X0356176Y0069854D02*
X0358932Y0069854D01*
X0358932Y0067098D01*
X0356176Y0067098D01*
X0356176Y0069854D01*
X0356176Y0068220D02*
X0358932Y0068220D01*
X0358932Y0069342D02*
X0356176Y0069342D01*
X0356176Y0076760D02*
X0358932Y0076760D01*
X0358932Y0074004D01*
X0356176Y0074004D01*
X0356176Y0076760D01*
X0356176Y0075126D02*
X0358932Y0075126D01*
X0358932Y0076248D02*
X0356176Y0076248D01*
X0528034Y0076760D02*
X0530790Y0076760D01*
X0530790Y0074004D01*
X0528034Y0074004D01*
X0528034Y0076760D01*
X0528034Y0075126D02*
X0530790Y0075126D01*
X0530790Y0076248D02*
X0528034Y0076248D01*
X0528034Y0069854D02*
X0530790Y0069854D01*
X0530790Y0067098D01*
X0528034Y0067098D01*
X0528034Y0069854D01*
X0528034Y0068220D02*
X0530790Y0068220D01*
X0530790Y0069342D02*
X0528034Y0069342D01*
X0535908Y0069854D02*
X0538664Y0069854D01*
X0538664Y0067098D01*
X0535908Y0067098D01*
X0535908Y0069854D01*
X0535908Y0068220D02*
X0538664Y0068220D01*
X0538664Y0069342D02*
X0535908Y0069342D01*
X0535908Y0076760D02*
X0538664Y0076760D01*
X0538664Y0074004D01*
X0535908Y0074004D01*
X0535908Y0076760D01*
X0535908Y0075126D02*
X0538664Y0075126D01*
X0538664Y0076248D02*
X0535908Y0076248D01*
X0543782Y0076760D02*
X0546538Y0076760D01*
X0546538Y0074004D01*
X0543782Y0074004D01*
X0543782Y0076760D01*
X0543782Y0075126D02*
X0546538Y0075126D01*
X0546538Y0076248D02*
X0543782Y0076248D01*
X0543782Y0069854D02*
X0546538Y0069854D01*
X0546538Y0067098D01*
X0543782Y0067098D01*
X0543782Y0069854D01*
X0543782Y0068220D02*
X0546538Y0068220D01*
X0546538Y0069342D02*
X0543782Y0069342D01*
X0551656Y0069854D02*
X0554412Y0069854D01*
X0554412Y0067098D01*
X0551656Y0067098D01*
X0551656Y0069854D01*
X0551656Y0068220D02*
X0554412Y0068220D01*
X0554412Y0069342D02*
X0551656Y0069342D01*
X0551656Y0076760D02*
X0554412Y0076760D01*
X0554412Y0074004D01*
X0551656Y0074004D01*
X0551656Y0076760D01*
X0551656Y0075126D02*
X0554412Y0075126D01*
X0554412Y0076248D02*
X0551656Y0076248D01*
X0551656Y0388815D02*
X0554412Y0388815D01*
X0554412Y0386059D01*
X0551656Y0386059D01*
X0551656Y0388815D01*
X0551656Y0387181D02*
X0554412Y0387181D01*
X0554412Y0388303D02*
X0551656Y0388303D01*
X0551656Y0395720D02*
X0554412Y0395720D01*
X0554412Y0392964D01*
X0551656Y0392964D01*
X0551656Y0395720D01*
X0551656Y0394086D02*
X0554412Y0394086D01*
X0554412Y0395208D02*
X0551656Y0395208D01*
X0546538Y0395720D02*
X0543782Y0395720D01*
X0546538Y0395720D02*
X0546538Y0392964D01*
X0543782Y0392964D01*
X0543782Y0395720D01*
X0543782Y0394086D02*
X0546538Y0394086D01*
X0546538Y0395208D02*
X0543782Y0395208D01*
X0538664Y0395720D02*
X0535908Y0395720D01*
X0538664Y0395720D02*
X0538664Y0392964D01*
X0535908Y0392964D01*
X0535908Y0395720D01*
X0535908Y0394086D02*
X0538664Y0394086D01*
X0538664Y0395208D02*
X0535908Y0395208D01*
X0530790Y0395720D02*
X0528034Y0395720D01*
X0530790Y0395720D02*
X0530790Y0392964D01*
X0528034Y0392964D01*
X0528034Y0395720D01*
X0528034Y0394086D02*
X0530790Y0394086D01*
X0530790Y0395208D02*
X0528034Y0395208D01*
X0528034Y0388815D02*
X0530790Y0388815D01*
X0530790Y0386059D01*
X0528034Y0386059D01*
X0528034Y0388815D01*
X0528034Y0387181D02*
X0530790Y0387181D01*
X0530790Y0388303D02*
X0528034Y0388303D01*
X0535908Y0388815D02*
X0538664Y0388815D01*
X0538664Y0386059D01*
X0535908Y0386059D01*
X0535908Y0388815D01*
X0535908Y0387181D02*
X0538664Y0387181D01*
X0538664Y0388303D02*
X0535908Y0388303D01*
X0543782Y0388815D02*
X0546538Y0388815D01*
X0546538Y0386059D01*
X0543782Y0386059D01*
X0543782Y0388815D01*
X0543782Y0387181D02*
X0546538Y0387181D01*
X0546538Y0388303D02*
X0543782Y0388303D01*
X0358932Y0388815D02*
X0356176Y0388815D01*
X0358932Y0388815D02*
X0358932Y0386059D01*
X0356176Y0386059D01*
X0356176Y0388815D01*
X0356176Y0387181D02*
X0358932Y0387181D01*
X0358932Y0388303D02*
X0356176Y0388303D01*
X0356176Y0395720D02*
X0358932Y0395720D01*
X0358932Y0392964D01*
X0356176Y0392964D01*
X0356176Y0395720D01*
X0356176Y0394086D02*
X0358932Y0394086D01*
X0358932Y0395208D02*
X0356176Y0395208D01*
X0351058Y0395720D02*
X0348302Y0395720D01*
X0351058Y0395720D02*
X0351058Y0392964D01*
X0348302Y0392964D01*
X0348302Y0395720D01*
X0348302Y0394086D02*
X0351058Y0394086D01*
X0351058Y0395208D02*
X0348302Y0395208D01*
X0343184Y0395720D02*
X0340428Y0395720D01*
X0343184Y0395720D02*
X0343184Y0392964D01*
X0340428Y0392964D01*
X0340428Y0395720D01*
X0340428Y0394086D02*
X0343184Y0394086D01*
X0343184Y0395208D02*
X0340428Y0395208D01*
X0335310Y0395720D02*
X0332554Y0395720D01*
X0335310Y0395720D02*
X0335310Y0392964D01*
X0332554Y0392964D01*
X0332554Y0395720D01*
X0332554Y0394086D02*
X0335310Y0394086D01*
X0335310Y0395208D02*
X0332554Y0395208D01*
X0332554Y0388815D02*
X0335310Y0388815D01*
X0335310Y0386059D01*
X0332554Y0386059D01*
X0332554Y0388815D01*
X0332554Y0387181D02*
X0335310Y0387181D01*
X0335310Y0388303D02*
X0332554Y0388303D01*
X0340428Y0388815D02*
X0343184Y0388815D01*
X0343184Y0386059D01*
X0340428Y0386059D01*
X0340428Y0388815D01*
X0340428Y0387181D02*
X0343184Y0387181D01*
X0343184Y0388303D02*
X0340428Y0388303D01*
X0348302Y0388815D02*
X0351058Y0388815D01*
X0351058Y0386059D01*
X0348302Y0386059D01*
X0348302Y0388815D01*
X0348302Y0387181D02*
X0351058Y0387181D01*
X0351058Y0388303D02*
X0348302Y0388303D01*
X0163451Y0388815D02*
X0160695Y0388815D01*
X0163451Y0388815D02*
X0163451Y0386059D01*
X0160695Y0386059D01*
X0160695Y0388815D01*
X0160695Y0387181D02*
X0163451Y0387181D01*
X0163451Y0388303D02*
X0160695Y0388303D01*
X0160695Y0395720D02*
X0163451Y0395720D01*
X0163451Y0392964D01*
X0160695Y0392964D01*
X0160695Y0395720D01*
X0160695Y0394086D02*
X0163451Y0394086D01*
X0163451Y0395208D02*
X0160695Y0395208D01*
X0155577Y0395720D02*
X0152821Y0395720D01*
X0155577Y0395720D02*
X0155577Y0392964D01*
X0152821Y0392964D01*
X0152821Y0395720D01*
X0152821Y0394086D02*
X0155577Y0394086D01*
X0155577Y0395208D02*
X0152821Y0395208D01*
X0147703Y0395720D02*
X0144947Y0395720D01*
X0147703Y0395720D02*
X0147703Y0392964D01*
X0144947Y0392964D01*
X0144947Y0395720D01*
X0144947Y0394086D02*
X0147703Y0394086D01*
X0147703Y0395208D02*
X0144947Y0395208D01*
X0139829Y0395720D02*
X0137073Y0395720D01*
X0139829Y0395720D02*
X0139829Y0392964D01*
X0137073Y0392964D01*
X0137073Y0395720D01*
X0137073Y0394086D02*
X0139829Y0394086D01*
X0139829Y0395208D02*
X0137073Y0395208D01*
X0137073Y0388815D02*
X0139829Y0388815D01*
X0139829Y0386059D01*
X0137073Y0386059D01*
X0137073Y0388815D01*
X0137073Y0387181D02*
X0139829Y0387181D01*
X0139829Y0388303D02*
X0137073Y0388303D01*
X0144947Y0388815D02*
X0147703Y0388815D01*
X0147703Y0386059D01*
X0144947Y0386059D01*
X0144947Y0388815D01*
X0144947Y0387181D02*
X0147703Y0387181D01*
X0147703Y0388303D02*
X0144947Y0388303D01*
X0152821Y0388815D02*
X0155577Y0388815D01*
X0155577Y0386059D01*
X0152821Y0386059D01*
X0152821Y0388815D01*
X0152821Y0387181D02*
X0155577Y0387181D01*
X0155577Y0388303D02*
X0152821Y0388303D01*
D19*
X0231660Y0340858D03*
X0231660Y0318811D03*
X0231660Y0181378D03*
X0231660Y0159331D03*
X0427140Y0159331D03*
X0427140Y0181378D03*
X0427140Y0318811D03*
X0427140Y0340858D03*
X0427140Y0478291D03*
X0427140Y0500339D03*
X0231660Y0500339D03*
X0231660Y0478291D03*
X0622621Y0478291D03*
X0622621Y0500339D03*
X0622621Y0340858D03*
X0622621Y0318811D03*
X0622621Y0181378D03*
X0622621Y0159331D03*
D20*
X0608152Y0164449D03*
X0608152Y0168386D03*
X0608152Y0172323D03*
X0608152Y0176260D03*
X0608152Y0323929D03*
X0608152Y0327866D03*
X0608152Y0331803D03*
X0608152Y0335740D03*
X0412672Y0335740D03*
X0412672Y0331803D03*
X0412672Y0327866D03*
X0412672Y0323929D03*
X0217192Y0323929D03*
X0217192Y0327866D03*
X0217192Y0331803D03*
X0217192Y0335740D03*
X0217192Y0483409D03*
X0217192Y0487346D03*
X0217192Y0491283D03*
X0217192Y0495220D03*
X0412672Y0495220D03*
X0412672Y0491283D03*
X0412672Y0487346D03*
X0412672Y0483409D03*
X0608152Y0483409D03*
X0608152Y0487346D03*
X0608152Y0491283D03*
X0608152Y0495220D03*
X0412672Y0176260D03*
X0412672Y0172323D03*
X0412672Y0168386D03*
X0412672Y0164449D03*
X0217192Y0164449D03*
X0217192Y0168386D03*
X0217192Y0172323D03*
X0217192Y0176260D03*
D21*
X0219160Y0152638D03*
X0217192Y0149488D03*
X0215223Y0152638D03*
X0213255Y0149488D03*
X0211286Y0152638D03*
X0209318Y0149488D03*
X0207349Y0152638D03*
X0205381Y0149488D03*
X0203412Y0152638D03*
X0201444Y0149488D03*
X0199475Y0152638D03*
X0197507Y0149488D03*
X0195538Y0152638D03*
X0221129Y0149488D03*
X0223097Y0152638D03*
X0225066Y0149488D03*
X0227034Y0152638D03*
X0229003Y0149488D03*
X0230971Y0152638D03*
X0232940Y0149488D03*
X0234908Y0152638D03*
X0232940Y0120354D03*
X0234908Y0117205D03*
X0230971Y0117205D03*
X0229003Y0120354D03*
X0227034Y0117205D03*
X0225066Y0120354D03*
X0223097Y0117205D03*
X0221129Y0120354D03*
X0219160Y0117205D03*
X0217192Y0120354D03*
X0215223Y0117205D03*
X0213255Y0120354D03*
X0211286Y0117205D03*
X0209318Y0120354D03*
X0207349Y0117205D03*
X0205381Y0120354D03*
X0203412Y0117205D03*
X0201444Y0120354D03*
X0199475Y0117205D03*
X0197507Y0120354D03*
X0195538Y0117205D03*
X0391018Y0117205D03*
X0392987Y0120354D03*
X0394955Y0117205D03*
X0396924Y0120354D03*
X0398892Y0117205D03*
X0400861Y0120354D03*
X0402829Y0117205D03*
X0404798Y0120354D03*
X0406766Y0117205D03*
X0408735Y0120354D03*
X0410703Y0117205D03*
X0412672Y0120354D03*
X0414640Y0117205D03*
X0416609Y0120354D03*
X0418577Y0117205D03*
X0420546Y0120354D03*
X0422514Y0117205D03*
X0424483Y0120354D03*
X0426451Y0117205D03*
X0428420Y0120354D03*
X0430388Y0117205D03*
X0428420Y0149488D03*
X0430388Y0152638D03*
X0426451Y0152638D03*
X0424483Y0149488D03*
X0422514Y0152638D03*
X0420546Y0149488D03*
X0418577Y0152638D03*
X0416609Y0149488D03*
X0414640Y0152638D03*
X0412672Y0149488D03*
X0410703Y0152638D03*
X0408735Y0149488D03*
X0406766Y0152638D03*
X0404798Y0149488D03*
X0402829Y0152638D03*
X0400861Y0149488D03*
X0398892Y0152638D03*
X0396924Y0149488D03*
X0394955Y0152638D03*
X0392987Y0149488D03*
X0391018Y0152638D03*
X0391018Y0276685D03*
X0392987Y0279835D03*
X0394955Y0276685D03*
X0396924Y0279835D03*
X0398892Y0276685D03*
X0400861Y0279835D03*
X0402829Y0276685D03*
X0404798Y0279835D03*
X0406766Y0276685D03*
X0408735Y0279835D03*
X0410703Y0276685D03*
X0412672Y0279835D03*
X0414640Y0276685D03*
X0416609Y0279835D03*
X0418577Y0276685D03*
X0420546Y0279835D03*
X0422514Y0276685D03*
X0424483Y0279835D03*
X0426451Y0276685D03*
X0428420Y0279835D03*
X0430388Y0276685D03*
X0428420Y0308968D03*
X0430388Y0312118D03*
X0426451Y0312118D03*
X0424483Y0308968D03*
X0422514Y0312118D03*
X0420546Y0308968D03*
X0418577Y0312118D03*
X0416609Y0308968D03*
X0414640Y0312118D03*
X0412672Y0308968D03*
X0410703Y0312118D03*
X0408735Y0308968D03*
X0406766Y0312118D03*
X0404798Y0308968D03*
X0402829Y0312118D03*
X0400861Y0308968D03*
X0398892Y0312118D03*
X0396924Y0308968D03*
X0394955Y0312118D03*
X0392987Y0308968D03*
X0391018Y0312118D03*
X0234908Y0312118D03*
X0232940Y0308968D03*
X0230971Y0312118D03*
X0229003Y0308968D03*
X0227034Y0312118D03*
X0225066Y0308968D03*
X0223097Y0312118D03*
X0221129Y0308968D03*
X0219160Y0312118D03*
X0217192Y0308968D03*
X0215223Y0312118D03*
X0213255Y0308968D03*
X0211286Y0312118D03*
X0209318Y0308968D03*
X0207349Y0312118D03*
X0205381Y0308968D03*
X0203412Y0312118D03*
X0201444Y0308968D03*
X0199475Y0312118D03*
X0197507Y0308968D03*
X0195538Y0312118D03*
X0197507Y0279835D03*
X0199475Y0276685D03*
X0201444Y0279835D03*
X0203412Y0276685D03*
X0205381Y0279835D03*
X0207349Y0276685D03*
X0209318Y0279835D03*
X0211286Y0276685D03*
X0213255Y0279835D03*
X0215223Y0276685D03*
X0217192Y0279835D03*
X0219160Y0276685D03*
X0221129Y0279835D03*
X0223097Y0276685D03*
X0225066Y0279835D03*
X0227034Y0276685D03*
X0229003Y0279835D03*
X0230971Y0276685D03*
X0232940Y0279835D03*
X0234908Y0276685D03*
X0195538Y0276685D03*
X0195538Y0436165D03*
X0197507Y0439315D03*
X0199475Y0436165D03*
X0201444Y0439315D03*
X0203412Y0436165D03*
X0205381Y0439315D03*
X0207349Y0436165D03*
X0209318Y0439315D03*
X0211286Y0436165D03*
X0213255Y0439315D03*
X0215223Y0436165D03*
X0217192Y0439315D03*
X0219160Y0436165D03*
X0221129Y0439315D03*
X0223097Y0436165D03*
X0225066Y0439315D03*
X0227034Y0436165D03*
X0229003Y0439315D03*
X0230971Y0436165D03*
X0232940Y0439315D03*
X0234908Y0436165D03*
X0232940Y0468449D03*
X0234908Y0471598D03*
X0230971Y0471598D03*
X0229003Y0468449D03*
X0227034Y0471598D03*
X0225066Y0468449D03*
X0223097Y0471598D03*
X0221129Y0468449D03*
X0219160Y0471598D03*
X0217192Y0468449D03*
X0215223Y0471598D03*
X0213255Y0468449D03*
X0211286Y0471598D03*
X0209318Y0468449D03*
X0207349Y0471598D03*
X0205381Y0468449D03*
X0203412Y0471598D03*
X0201444Y0468449D03*
X0199475Y0471598D03*
X0197507Y0468449D03*
X0195538Y0471598D03*
X0391018Y0471598D03*
X0392987Y0468449D03*
X0394955Y0471598D03*
X0396924Y0468449D03*
X0398892Y0471598D03*
X0400861Y0468449D03*
X0402829Y0471598D03*
X0404798Y0468449D03*
X0406766Y0471598D03*
X0408735Y0468449D03*
X0410703Y0471598D03*
X0412672Y0468449D03*
X0414640Y0471598D03*
X0416609Y0468449D03*
X0418577Y0471598D03*
X0420546Y0468449D03*
X0422514Y0471598D03*
X0424483Y0468449D03*
X0426451Y0471598D03*
X0428420Y0468449D03*
X0430388Y0471598D03*
X0428420Y0439315D03*
X0430388Y0436165D03*
X0426451Y0436165D03*
X0424483Y0439315D03*
X0422514Y0436165D03*
X0420546Y0439315D03*
X0418577Y0436165D03*
X0416609Y0439315D03*
X0414640Y0436165D03*
X0412672Y0439315D03*
X0410703Y0436165D03*
X0408735Y0439315D03*
X0406766Y0436165D03*
X0404798Y0439315D03*
X0402829Y0436165D03*
X0400861Y0439315D03*
X0398892Y0436165D03*
X0396924Y0439315D03*
X0394955Y0436165D03*
X0392987Y0439315D03*
X0391018Y0436165D03*
X0586499Y0436165D03*
X0588467Y0439315D03*
X0590436Y0436165D03*
X0592404Y0439315D03*
X0594373Y0436165D03*
X0596341Y0439315D03*
X0598310Y0436165D03*
X0600278Y0439315D03*
X0602247Y0436165D03*
X0604215Y0439315D03*
X0606184Y0436165D03*
X0608152Y0439315D03*
X0610121Y0436165D03*
X0612089Y0439315D03*
X0614058Y0436165D03*
X0616026Y0439315D03*
X0617995Y0436165D03*
X0619963Y0439315D03*
X0621932Y0436165D03*
X0623900Y0439315D03*
X0625869Y0436165D03*
X0623900Y0468449D03*
X0621932Y0471598D03*
X0619963Y0468449D03*
X0617995Y0471598D03*
X0616026Y0468449D03*
X0614058Y0471598D03*
X0612089Y0468449D03*
X0610121Y0471598D03*
X0608152Y0468449D03*
X0606184Y0471598D03*
X0604215Y0468449D03*
X0602247Y0471598D03*
X0600278Y0468449D03*
X0598310Y0471598D03*
X0596341Y0468449D03*
X0594373Y0471598D03*
X0592404Y0468449D03*
X0590436Y0471598D03*
X0588467Y0468449D03*
X0586499Y0471598D03*
X0625869Y0471598D03*
X0625869Y0312118D03*
X0623900Y0308968D03*
X0621932Y0312118D03*
X0619963Y0308968D03*
X0617995Y0312118D03*
X0616026Y0308968D03*
X0614058Y0312118D03*
X0612089Y0308968D03*
X0610121Y0312118D03*
X0608152Y0308968D03*
X0606184Y0312118D03*
X0604215Y0308968D03*
X0602247Y0312118D03*
X0600278Y0308968D03*
X0598310Y0312118D03*
X0596341Y0308968D03*
X0594373Y0312118D03*
X0592404Y0308968D03*
X0590436Y0312118D03*
X0588467Y0308968D03*
X0586499Y0312118D03*
X0588467Y0279835D03*
X0586499Y0276685D03*
X0590436Y0276685D03*
X0592404Y0279835D03*
X0594373Y0276685D03*
X0596341Y0279835D03*
X0598310Y0276685D03*
X0600278Y0279835D03*
X0602247Y0276685D03*
X0604215Y0279835D03*
X0606184Y0276685D03*
X0608152Y0279835D03*
X0610121Y0276685D03*
X0612089Y0279835D03*
X0614058Y0276685D03*
X0616026Y0279835D03*
X0617995Y0276685D03*
X0619963Y0279835D03*
X0621932Y0276685D03*
X0623900Y0279835D03*
X0625869Y0276685D03*
X0625869Y0152638D03*
X0623900Y0149488D03*
X0621932Y0152638D03*
X0619963Y0149488D03*
X0617995Y0152638D03*
X0616026Y0149488D03*
X0614058Y0152638D03*
X0612089Y0149488D03*
X0610121Y0152638D03*
X0608152Y0149488D03*
X0606184Y0152638D03*
X0604215Y0149488D03*
X0602247Y0152638D03*
X0600278Y0149488D03*
X0598310Y0152638D03*
X0596341Y0149488D03*
X0594373Y0152638D03*
X0592404Y0149488D03*
X0590436Y0152638D03*
X0588467Y0149488D03*
X0586499Y0152638D03*
X0588467Y0120354D03*
X0586499Y0117205D03*
X0590436Y0117205D03*
X0592404Y0120354D03*
X0594373Y0117205D03*
X0596341Y0120354D03*
X0598310Y0117205D03*
X0600278Y0120354D03*
X0602247Y0117205D03*
X0604215Y0120354D03*
X0606184Y0117205D03*
X0608152Y0120354D03*
X0610121Y0117205D03*
X0612089Y0120354D03*
X0614058Y0117205D03*
X0616026Y0120354D03*
X0617995Y0117205D03*
X0619963Y0120354D03*
X0621932Y0117205D03*
X0623900Y0120354D03*
X0625869Y0117205D03*
D22*
X0585711Y0123110D03*
X0582562Y0121142D03*
X0582562Y0125079D03*
X0585711Y0127047D03*
X0582562Y0129016D03*
X0585711Y0130984D03*
X0582562Y0132953D03*
X0585711Y0134921D03*
X0582562Y0136890D03*
X0585711Y0138858D03*
X0582562Y0140827D03*
X0585711Y0142795D03*
X0582562Y0144764D03*
X0585711Y0146732D03*
X0582562Y0148701D03*
X0582562Y0280622D03*
X0585711Y0282591D03*
X0582562Y0284559D03*
X0585711Y0286528D03*
X0582562Y0288496D03*
X0585711Y0290465D03*
X0582562Y0292433D03*
X0585711Y0294402D03*
X0582562Y0296370D03*
X0585711Y0298339D03*
X0582562Y0300307D03*
X0585711Y0302276D03*
X0582562Y0304244D03*
X0585711Y0306213D03*
X0582562Y0308181D03*
X0582562Y0440102D03*
X0585711Y0442071D03*
X0582562Y0444039D03*
X0585711Y0446008D03*
X0582562Y0447976D03*
X0585711Y0449945D03*
X0582562Y0451913D03*
X0585711Y0453882D03*
X0582562Y0455850D03*
X0585711Y0457819D03*
X0582562Y0459787D03*
X0585711Y0461756D03*
X0582562Y0463724D03*
X0585711Y0465693D03*
X0582562Y0467661D03*
X0390231Y0465693D03*
X0387081Y0467661D03*
X0387081Y0463724D03*
X0390231Y0461756D03*
X0387081Y0459787D03*
X0390231Y0457819D03*
X0387081Y0455850D03*
X0390231Y0453882D03*
X0387081Y0451913D03*
X0390231Y0449945D03*
X0387081Y0447976D03*
X0390231Y0446008D03*
X0387081Y0444039D03*
X0390231Y0442071D03*
X0387081Y0440102D03*
X0387081Y0308181D03*
X0390231Y0306213D03*
X0387081Y0304244D03*
X0390231Y0302276D03*
X0387081Y0300307D03*
X0390231Y0298339D03*
X0387081Y0296370D03*
X0390231Y0294402D03*
X0387081Y0292433D03*
X0390231Y0290465D03*
X0387081Y0288496D03*
X0390231Y0286528D03*
X0387081Y0284559D03*
X0390231Y0282591D03*
X0387081Y0280622D03*
X0387081Y0148701D03*
X0390231Y0146732D03*
X0387081Y0144764D03*
X0390231Y0142795D03*
X0387081Y0140827D03*
X0390231Y0138858D03*
X0387081Y0136890D03*
X0390231Y0134921D03*
X0387081Y0132953D03*
X0390231Y0130984D03*
X0387081Y0129016D03*
X0390231Y0127047D03*
X0387081Y0125079D03*
X0390231Y0123110D03*
X0387081Y0121142D03*
X0194751Y0123110D03*
X0191601Y0121142D03*
X0191601Y0125079D03*
X0194751Y0127047D03*
X0191601Y0129016D03*
X0194751Y0130984D03*
X0191601Y0132953D03*
X0194751Y0134921D03*
X0191601Y0136890D03*
X0194751Y0138858D03*
X0191601Y0140827D03*
X0194751Y0142795D03*
X0191601Y0144764D03*
X0194751Y0146732D03*
X0191601Y0148701D03*
X0191601Y0280622D03*
X0194751Y0282591D03*
X0191601Y0284559D03*
X0194751Y0286528D03*
X0191601Y0288496D03*
X0194751Y0290465D03*
X0191601Y0292433D03*
X0194751Y0294402D03*
X0191601Y0296370D03*
X0194751Y0298339D03*
X0191601Y0300307D03*
X0194751Y0302276D03*
X0191601Y0304244D03*
X0194751Y0306213D03*
X0191601Y0308181D03*
X0191601Y0440102D03*
X0194751Y0442071D03*
X0191601Y0444039D03*
X0194751Y0446008D03*
X0191601Y0447976D03*
X0194751Y0449945D03*
X0191601Y0451913D03*
X0194751Y0453882D03*
X0191601Y0455850D03*
X0194751Y0457819D03*
X0191601Y0459787D03*
X0194751Y0461756D03*
X0191601Y0463724D03*
X0194751Y0465693D03*
X0191601Y0467661D03*
D23*
X0096325Y0489709D03*
X0092388Y0489709D03*
X0092388Y0496795D03*
X0096325Y0496795D03*
X0096325Y0418055D03*
X0092388Y0418055D03*
X0092388Y0410968D03*
X0096325Y0410968D03*
X0096325Y0337315D03*
X0092388Y0337315D03*
X0092388Y0330228D03*
X0096325Y0330228D03*
X0096325Y0258575D03*
X0092388Y0258575D03*
X0092388Y0251488D03*
X0096325Y0251488D03*
X0096325Y0177835D03*
X0092388Y0177835D03*
X0092388Y0170748D03*
X0096325Y0170748D03*
X0096325Y0099094D03*
X0092388Y0099094D03*
X0092388Y0092008D03*
X0096325Y0092008D03*
X0287869Y0092008D03*
X0291806Y0092008D03*
X0291806Y0099094D03*
X0287869Y0099094D03*
X0287869Y0170748D03*
X0291806Y0170748D03*
X0291806Y0177835D03*
X0287869Y0177835D03*
X0287869Y0251488D03*
X0291806Y0251488D03*
X0291806Y0258575D03*
X0287869Y0258575D03*
X0287869Y0330228D03*
X0291806Y0330228D03*
X0291806Y0337315D03*
X0287869Y0337315D03*
X0287869Y0410968D03*
X0291806Y0410968D03*
X0291806Y0418055D03*
X0287869Y0418055D03*
X0287869Y0489709D03*
X0291806Y0489709D03*
X0291806Y0496795D03*
X0287869Y0496795D03*
X0483349Y0496795D03*
X0487286Y0496795D03*
X0487286Y0489709D03*
X0483349Y0489709D03*
X0483349Y0418055D03*
X0487286Y0418055D03*
X0487286Y0410968D03*
X0483349Y0410968D03*
X0483349Y0337315D03*
X0487286Y0337315D03*
X0487286Y0330228D03*
X0483349Y0330228D03*
X0483349Y0258575D03*
X0487286Y0258575D03*
X0487286Y0251488D03*
X0483349Y0251488D03*
X0483349Y0177835D03*
X0487286Y0177835D03*
X0487286Y0170748D03*
X0483349Y0170748D03*
X0483349Y0099094D03*
X0487286Y0099094D03*
X0487286Y0092008D03*
X0483349Y0092008D03*
D24*
X0480790Y0095551D03*
X0475672Y0095551D03*
X0475672Y0174291D03*
X0480790Y0174291D03*
X0480790Y0255031D03*
X0475672Y0255031D03*
X0475672Y0333772D03*
X0480790Y0333772D03*
X0480790Y0414512D03*
X0475672Y0414512D03*
X0475672Y0493252D03*
X0480790Y0493252D03*
X0285310Y0493252D03*
X0280192Y0493252D03*
X0280192Y0414512D03*
X0285310Y0414512D03*
X0285310Y0333772D03*
X0280192Y0333772D03*
X0280192Y0255031D03*
X0285310Y0255031D03*
X0285310Y0174291D03*
X0280192Y0174291D03*
X0280192Y0095551D03*
X0285310Y0095551D03*
X0089829Y0095551D03*
X0084711Y0095551D03*
X0084711Y0174291D03*
X0089829Y0174291D03*
X0089829Y0255031D03*
X0084711Y0255031D03*
X0084711Y0333772D03*
X0089829Y0333772D03*
X0089829Y0414512D03*
X0084711Y0414512D03*
X0084711Y0493252D03*
X0089829Y0493252D03*
D25*
X0086089Y0093799D02*
X0085538Y0092984D01*
X0086074Y0092685D01*
X0086660Y0092500D01*
X0087270Y0092438D01*
X0087881Y0092500D01*
X0088467Y0092685D01*
X0089003Y0092984D01*
X0088451Y0093799D01*
X0088086Y0093595D01*
X0087687Y0093469D01*
X0087270Y0093427D01*
X0086854Y0093469D01*
X0086455Y0093595D01*
X0086089Y0093799D01*
X0086016Y0093691D02*
X0086284Y0093691D01*
X0085884Y0093495D02*
X0086772Y0093495D01*
X0086603Y0092518D02*
X0087938Y0092518D01*
X0088518Y0092714D02*
X0086023Y0092714D01*
X0085673Y0092909D02*
X0088868Y0092909D01*
X0088921Y0093104D02*
X0085619Y0093104D01*
X0085751Y0093300D02*
X0088789Y0093300D01*
X0088657Y0093495D02*
X0087769Y0093495D01*
X0088257Y0093691D02*
X0088525Y0093691D01*
X0089022Y0094370D02*
X0089837Y0093819D01*
X0090136Y0094355D01*
X0090321Y0094940D01*
X0090383Y0095551D01*
X0090321Y0096162D01*
X0090136Y0096747D01*
X0089837Y0097283D01*
X0089022Y0096732D01*
X0089226Y0096367D01*
X0089352Y0095968D01*
X0089395Y0095551D01*
X0089352Y0095135D01*
X0089226Y0094736D01*
X0089022Y0094370D01*
X0089079Y0094472D02*
X0090173Y0094472D01*
X0090235Y0094667D02*
X0089188Y0094667D01*
X0089266Y0094863D02*
X0090297Y0094863D01*
X0090333Y0095058D02*
X0089328Y0095058D01*
X0089364Y0095253D02*
X0090353Y0095253D01*
X0090373Y0095449D02*
X0089384Y0095449D01*
X0089385Y0095644D02*
X0090374Y0095644D01*
X0090354Y0095840D02*
X0089365Y0095840D01*
X0089331Y0096035D02*
X0090334Y0096035D01*
X0090300Y0096230D02*
X0089269Y0096230D01*
X0089193Y0096426D02*
X0090238Y0096426D01*
X0090176Y0096621D02*
X0089084Y0096621D01*
X0089147Y0096816D02*
X0090098Y0096816D01*
X0089989Y0097012D02*
X0089435Y0097012D01*
X0089724Y0097207D02*
X0089880Y0097207D01*
X0088915Y0097989D02*
X0085626Y0097989D01*
X0085538Y0098118D02*
X0086089Y0097303D01*
X0086455Y0097507D01*
X0086854Y0097633D01*
X0087270Y0097676D01*
X0087687Y0097633D01*
X0088086Y0097507D01*
X0088451Y0097303D01*
X0089003Y0098118D01*
X0088467Y0098417D01*
X0087881Y0098602D01*
X0087270Y0098664D01*
X0086660Y0098602D01*
X0086074Y0098417D01*
X0085538Y0098118D01*
X0085656Y0098184D02*
X0088885Y0098184D01*
X0088535Y0098379D02*
X0086006Y0098379D01*
X0086573Y0098575D02*
X0087968Y0098575D01*
X0087798Y0097598D02*
X0088651Y0097598D01*
X0088783Y0097793D02*
X0085758Y0097793D01*
X0085890Y0097598D02*
X0086742Y0097598D01*
X0086267Y0097402D02*
X0086022Y0097402D01*
X0085518Y0096732D02*
X0084703Y0097283D01*
X0084404Y0096747D01*
X0084220Y0096162D01*
X0084157Y0095551D01*
X0084220Y0094940D01*
X0084404Y0094355D01*
X0084703Y0093819D01*
X0085518Y0094370D01*
X0085314Y0094736D01*
X0085189Y0095135D01*
X0085146Y0095551D01*
X0085189Y0095968D01*
X0085314Y0096367D01*
X0085518Y0096732D01*
X0084703Y0097283D01*
X0084404Y0096747D01*
X0084220Y0096162D01*
X0084157Y0095551D01*
X0084220Y0094940D01*
X0084404Y0094355D01*
X0084703Y0093819D01*
X0085518Y0094370D01*
X0085314Y0094736D01*
X0085189Y0095135D01*
X0085146Y0095551D01*
X0085189Y0095968D01*
X0085314Y0096367D01*
X0085518Y0096732D01*
X0084703Y0097283D01*
X0084404Y0096747D01*
X0084220Y0096162D01*
X0084157Y0095551D01*
X0084220Y0094940D01*
X0084404Y0094355D01*
X0084703Y0093819D01*
X0085518Y0094370D01*
X0085314Y0094736D01*
X0085189Y0095135D01*
X0085146Y0095551D01*
X0085189Y0095968D01*
X0085314Y0096367D01*
X0085518Y0096732D01*
X0084703Y0097283D01*
X0084404Y0096747D01*
X0084220Y0096162D01*
X0084157Y0095551D01*
X0084220Y0094940D01*
X0084404Y0094355D01*
X0084703Y0093819D01*
X0085518Y0094370D01*
X0085314Y0094736D01*
X0085189Y0095135D01*
X0085146Y0095551D01*
X0085189Y0095968D01*
X0085314Y0096367D01*
X0085518Y0096732D01*
X0084703Y0097283D01*
X0084404Y0096747D01*
X0084220Y0096162D01*
X0084157Y0095551D01*
X0084220Y0094940D01*
X0084404Y0094355D01*
X0084703Y0093819D01*
X0085518Y0094370D01*
X0085314Y0094736D01*
X0085189Y0095135D01*
X0085146Y0095551D01*
X0085189Y0095968D01*
X0085314Y0096367D01*
X0085518Y0096732D01*
X0084703Y0097283D01*
X0084404Y0096747D01*
X0084220Y0096162D01*
X0084157Y0095551D01*
X0084220Y0094940D01*
X0084404Y0094355D01*
X0084703Y0093819D01*
X0085518Y0094370D01*
X0085314Y0094736D01*
X0085189Y0095135D01*
X0085146Y0095551D01*
X0085189Y0095968D01*
X0085314Y0096367D01*
X0085518Y0096732D01*
X0084703Y0097283D01*
X0084404Y0096747D01*
X0084220Y0096162D01*
X0084157Y0095551D01*
X0084220Y0094940D01*
X0084404Y0094355D01*
X0084703Y0093819D01*
X0085518Y0094370D01*
X0085314Y0094736D01*
X0085189Y0095135D01*
X0085146Y0095551D01*
X0085189Y0095968D01*
X0085314Y0096367D01*
X0085518Y0096732D01*
X0085456Y0096621D02*
X0084364Y0096621D01*
X0085456Y0096621D01*
X0084364Y0096621D01*
X0085456Y0096621D01*
X0084364Y0096621D01*
X0085456Y0096621D01*
X0084364Y0096621D01*
X0084303Y0096426D02*
X0085347Y0096426D01*
X0084303Y0096426D01*
X0085347Y0096426D01*
X0084303Y0096426D01*
X0085347Y0096426D01*
X0084303Y0096426D01*
X0085347Y0096426D01*
X0085271Y0096230D02*
X0084241Y0096230D01*
X0085271Y0096230D01*
X0084241Y0096230D01*
X0085271Y0096230D01*
X0084241Y0096230D01*
X0085271Y0096230D01*
X0084241Y0096230D01*
X0084207Y0096035D02*
X0085210Y0096035D01*
X0084207Y0096035D01*
X0085210Y0096035D01*
X0084207Y0096035D01*
X0085210Y0096035D01*
X0084207Y0096035D01*
X0085210Y0096035D01*
X0085175Y0095840D02*
X0084187Y0095840D01*
X0085175Y0095840D01*
X0084187Y0095840D01*
X0085175Y0095840D01*
X0084187Y0095840D01*
X0085175Y0095840D01*
X0084187Y0095840D01*
X0084167Y0095644D02*
X0085155Y0095644D01*
X0084167Y0095644D01*
X0085155Y0095644D01*
X0084167Y0095644D01*
X0085155Y0095644D01*
X0084167Y0095644D01*
X0085155Y0095644D01*
X0085156Y0095449D02*
X0084168Y0095449D01*
X0085156Y0095449D01*
X0084168Y0095449D01*
X0085156Y0095449D01*
X0084168Y0095449D01*
X0085156Y0095449D01*
X0084168Y0095449D01*
X0084188Y0095253D02*
X0085176Y0095253D01*
X0084188Y0095253D01*
X0085176Y0095253D01*
X0084188Y0095253D01*
X0085176Y0095253D01*
X0084188Y0095253D01*
X0085176Y0095253D01*
X0085213Y0095058D02*
X0084208Y0095058D01*
X0085213Y0095058D01*
X0084208Y0095058D01*
X0085213Y0095058D01*
X0084208Y0095058D01*
X0085213Y0095058D01*
X0084208Y0095058D01*
X0084244Y0094863D02*
X0085274Y0094863D01*
X0084244Y0094863D01*
X0085274Y0094863D01*
X0084244Y0094863D01*
X0085274Y0094863D01*
X0084244Y0094863D01*
X0085274Y0094863D01*
X0085352Y0094667D02*
X0084306Y0094667D01*
X0085352Y0094667D01*
X0084306Y0094667D01*
X0085352Y0094667D01*
X0084306Y0094667D01*
X0085352Y0094667D01*
X0084306Y0094667D01*
X0084367Y0094472D02*
X0085461Y0094472D01*
X0084367Y0094472D01*
X0085461Y0094472D01*
X0084367Y0094472D01*
X0085461Y0094472D01*
X0084367Y0094472D01*
X0085461Y0094472D01*
X0085380Y0094277D02*
X0084448Y0094277D01*
X0085380Y0094277D01*
X0084448Y0094277D01*
X0085380Y0094277D01*
X0084448Y0094277D01*
X0085380Y0094277D01*
X0084448Y0094277D01*
X0084557Y0094081D02*
X0085091Y0094081D01*
X0084557Y0094081D01*
X0085091Y0094081D01*
X0084557Y0094081D01*
X0085091Y0094081D01*
X0084557Y0094081D01*
X0085091Y0094081D01*
X0084802Y0093886D02*
X0084666Y0093886D01*
X0084802Y0093886D01*
X0084666Y0093886D01*
X0084802Y0093886D01*
X0084666Y0093886D01*
X0084802Y0093886D01*
X0084666Y0093886D01*
X0084443Y0096816D02*
X0085394Y0096816D01*
X0084443Y0096816D01*
X0085394Y0096816D01*
X0084443Y0096816D01*
X0085394Y0096816D01*
X0084443Y0096816D01*
X0085394Y0096816D01*
X0085105Y0097012D02*
X0084552Y0097012D01*
X0085105Y0097012D01*
X0084552Y0097012D01*
X0085105Y0097012D01*
X0084552Y0097012D01*
X0085105Y0097012D01*
X0084552Y0097012D01*
X0084661Y0097207D02*
X0084816Y0097207D01*
X0084661Y0097207D01*
X0084816Y0097207D01*
X0084661Y0097207D01*
X0084816Y0097207D01*
X0084661Y0097207D01*
X0084816Y0097207D01*
X0088274Y0097402D02*
X0088519Y0097402D01*
X0089160Y0094277D02*
X0090093Y0094277D01*
X0089984Y0094081D02*
X0089449Y0094081D01*
X0089738Y0093886D02*
X0089875Y0093886D01*
X0087270Y0171178D02*
X0087881Y0171241D01*
X0088467Y0171425D01*
X0089003Y0171724D01*
X0088451Y0172539D01*
X0088086Y0172335D01*
X0087687Y0172210D01*
X0087270Y0172167D01*
X0086854Y0172210D01*
X0086455Y0172335D01*
X0086089Y0172539D01*
X0085538Y0171724D01*
X0086074Y0171425D01*
X0086660Y0171241D01*
X0087270Y0171178D01*
X0086633Y0171249D02*
X0087908Y0171249D01*
X0088501Y0171445D02*
X0086040Y0171445D01*
X0085690Y0171640D02*
X0088851Y0171640D01*
X0088928Y0171835D02*
X0085613Y0171835D01*
X0085745Y0172031D02*
X0088796Y0172031D01*
X0088663Y0172226D02*
X0087739Y0172226D01*
X0088240Y0172421D02*
X0088531Y0172421D01*
X0089022Y0173110D02*
X0089837Y0172559D01*
X0090136Y0173095D01*
X0090321Y0173681D01*
X0090383Y0174291D01*
X0090321Y0174902D01*
X0090136Y0175488D01*
X0089837Y0176024D01*
X0089022Y0175472D01*
X0089226Y0175107D01*
X0089352Y0174708D01*
X0089395Y0174291D01*
X0089352Y0173875D01*
X0089226Y0173476D01*
X0089022Y0173110D01*
X0089074Y0173203D02*
X0090170Y0173203D01*
X0090232Y0173398D02*
X0089183Y0173398D01*
X0089263Y0173593D02*
X0090294Y0173593D01*
X0090332Y0173789D02*
X0089325Y0173789D01*
X0089363Y0173984D02*
X0090352Y0173984D01*
X0090372Y0174180D02*
X0089383Y0174180D01*
X0089386Y0174375D02*
X0090375Y0174375D01*
X0090355Y0174570D02*
X0089366Y0174570D01*
X0089334Y0174766D02*
X0090335Y0174766D01*
X0090302Y0174961D02*
X0089272Y0174961D01*
X0089199Y0175156D02*
X0090241Y0175156D01*
X0090179Y0175352D02*
X0089090Y0175352D01*
X0089133Y0175547D02*
X0090103Y0175547D01*
X0089994Y0175742D02*
X0089422Y0175742D01*
X0089710Y0175938D02*
X0089885Y0175938D01*
X0088909Y0176719D02*
X0085632Y0176719D01*
X0085538Y0176858D02*
X0086089Y0176043D01*
X0086455Y0176247D01*
X0086854Y0176373D01*
X0087270Y0176416D01*
X0087687Y0176373D01*
X0088086Y0176247D01*
X0088451Y0176043D01*
X0089003Y0176858D01*
X0088467Y0177157D01*
X0087881Y0177342D01*
X0087270Y0177404D01*
X0086660Y0177342D01*
X0086074Y0177157D01*
X0085538Y0176858D01*
X0085639Y0176915D02*
X0088902Y0176915D01*
X0088552Y0177110D02*
X0085989Y0177110D01*
X0086543Y0177305D02*
X0087997Y0177305D01*
X0087828Y0176329D02*
X0088644Y0176329D01*
X0088776Y0176524D02*
X0085764Y0176524D01*
X0085896Y0176329D02*
X0086712Y0176329D01*
X0086250Y0176133D02*
X0086028Y0176133D01*
X0085518Y0175472D02*
X0084703Y0176024D01*
X0084404Y0175488D01*
X0084220Y0174902D01*
X0084157Y0174291D01*
X0084220Y0173681D01*
X0084404Y0173095D01*
X0084703Y0172559D01*
X0085518Y0173110D01*
X0085314Y0173476D01*
X0085189Y0173875D01*
X0085146Y0174291D01*
X0085189Y0174708D01*
X0085314Y0175107D01*
X0085518Y0175472D01*
X0084703Y0176024D01*
X0084404Y0175488D01*
X0084220Y0174902D01*
X0084157Y0174291D01*
X0084220Y0173681D01*
X0084404Y0173095D01*
X0084703Y0172559D01*
X0085518Y0173110D01*
X0085314Y0173476D01*
X0085189Y0173875D01*
X0085146Y0174291D01*
X0085189Y0174708D01*
X0085314Y0175107D01*
X0085518Y0175472D01*
X0084703Y0176024D01*
X0084404Y0175488D01*
X0084220Y0174902D01*
X0084157Y0174291D01*
X0084220Y0173681D01*
X0084404Y0173095D01*
X0084703Y0172559D01*
X0085518Y0173110D01*
X0085314Y0173476D01*
X0085189Y0173875D01*
X0085146Y0174291D01*
X0085189Y0174708D01*
X0085314Y0175107D01*
X0085518Y0175472D01*
X0084703Y0176024D01*
X0084404Y0175488D01*
X0084220Y0174902D01*
X0084157Y0174291D01*
X0084220Y0173681D01*
X0084404Y0173095D01*
X0084703Y0172559D01*
X0085518Y0173110D01*
X0085314Y0173476D01*
X0085189Y0173875D01*
X0085146Y0174291D01*
X0085189Y0174708D01*
X0085314Y0175107D01*
X0085518Y0175472D01*
X0084703Y0176024D01*
X0084404Y0175488D01*
X0084220Y0174902D01*
X0084157Y0174291D01*
X0084220Y0173681D01*
X0084404Y0173095D01*
X0084703Y0172559D01*
X0085518Y0173110D01*
X0085314Y0173476D01*
X0085189Y0173875D01*
X0085146Y0174291D01*
X0085189Y0174708D01*
X0085314Y0175107D01*
X0085518Y0175472D01*
X0084703Y0176024D01*
X0084404Y0175488D01*
X0084220Y0174902D01*
X0084157Y0174291D01*
X0084220Y0173681D01*
X0084404Y0173095D01*
X0084703Y0172559D01*
X0085518Y0173110D01*
X0085314Y0173476D01*
X0085189Y0173875D01*
X0085146Y0174291D01*
X0085189Y0174708D01*
X0085314Y0175107D01*
X0085518Y0175472D01*
X0084703Y0176024D01*
X0084404Y0175488D01*
X0084220Y0174902D01*
X0084157Y0174291D01*
X0084220Y0173681D01*
X0084404Y0173095D01*
X0084703Y0172559D01*
X0085518Y0173110D01*
X0085314Y0173476D01*
X0085189Y0173875D01*
X0085146Y0174291D01*
X0085189Y0174708D01*
X0085314Y0175107D01*
X0085518Y0175472D01*
X0085408Y0175547D02*
X0084437Y0175547D01*
X0085408Y0175547D01*
X0084437Y0175547D01*
X0085408Y0175547D01*
X0084437Y0175547D01*
X0085408Y0175547D01*
X0084437Y0175547D01*
X0084361Y0175352D02*
X0085451Y0175352D01*
X0084361Y0175352D01*
X0085451Y0175352D01*
X0084361Y0175352D01*
X0085451Y0175352D01*
X0084361Y0175352D01*
X0085451Y0175352D01*
X0085342Y0175156D02*
X0084300Y0175156D01*
X0085342Y0175156D01*
X0084300Y0175156D01*
X0085342Y0175156D01*
X0084300Y0175156D01*
X0085342Y0175156D01*
X0084300Y0175156D01*
X0084238Y0174961D02*
X0085268Y0174961D01*
X0084238Y0174961D01*
X0085268Y0174961D01*
X0084238Y0174961D01*
X0085268Y0174961D01*
X0084238Y0174961D01*
X0085268Y0174961D01*
X0085207Y0174766D02*
X0084206Y0174766D01*
X0085207Y0174766D01*
X0084206Y0174766D01*
X0085207Y0174766D01*
X0084206Y0174766D01*
X0085207Y0174766D01*
X0084206Y0174766D01*
X0084186Y0174570D02*
X0085174Y0174570D01*
X0084186Y0174570D01*
X0085174Y0174570D01*
X0084186Y0174570D01*
X0085174Y0174570D01*
X0084186Y0174570D01*
X0085174Y0174570D01*
X0085155Y0174375D02*
X0084166Y0174375D01*
X0085155Y0174375D01*
X0084166Y0174375D01*
X0085155Y0174375D01*
X0084166Y0174375D01*
X0085155Y0174375D01*
X0084166Y0174375D01*
X0084169Y0174180D02*
X0085157Y0174180D01*
X0084169Y0174180D01*
X0085157Y0174180D01*
X0084169Y0174180D01*
X0085157Y0174180D01*
X0084169Y0174180D01*
X0085157Y0174180D01*
X0085177Y0173984D02*
X0084189Y0173984D01*
X0085177Y0173984D01*
X0084189Y0173984D01*
X0085177Y0173984D01*
X0084189Y0173984D01*
X0085177Y0173984D01*
X0084189Y0173984D01*
X0084209Y0173789D02*
X0085216Y0173789D01*
X0084209Y0173789D01*
X0085216Y0173789D01*
X0084209Y0173789D01*
X0085216Y0173789D01*
X0084209Y0173789D01*
X0085216Y0173789D01*
X0085277Y0173593D02*
X0084247Y0173593D01*
X0085277Y0173593D01*
X0084247Y0173593D01*
X0085277Y0173593D01*
X0084247Y0173593D01*
X0085277Y0173593D01*
X0084247Y0173593D01*
X0084309Y0173398D02*
X0085358Y0173398D01*
X0084309Y0173398D01*
X0085358Y0173398D01*
X0084309Y0173398D01*
X0085358Y0173398D01*
X0084309Y0173398D01*
X0085358Y0173398D01*
X0085467Y0173203D02*
X0084370Y0173203D01*
X0085467Y0173203D01*
X0084370Y0173203D01*
X0085467Y0173203D01*
X0084370Y0173203D01*
X0085467Y0173203D01*
X0084370Y0173203D01*
X0084453Y0173007D02*
X0085366Y0173007D01*
X0084453Y0173007D01*
X0085366Y0173007D01*
X0084453Y0173007D01*
X0085366Y0173007D01*
X0084453Y0173007D01*
X0085366Y0173007D01*
X0085077Y0172812D02*
X0084562Y0172812D01*
X0085077Y0172812D01*
X0084562Y0172812D01*
X0085077Y0172812D01*
X0084562Y0172812D01*
X0085077Y0172812D01*
X0084562Y0172812D01*
X0084671Y0172617D02*
X0084789Y0172617D01*
X0084671Y0172617D01*
X0084789Y0172617D01*
X0084671Y0172617D01*
X0084789Y0172617D01*
X0084671Y0172617D01*
X0084789Y0172617D01*
X0085877Y0172226D02*
X0086802Y0172226D01*
X0086301Y0172421D02*
X0086009Y0172421D01*
X0089174Y0173007D02*
X0090087Y0173007D01*
X0089978Y0172812D02*
X0089463Y0172812D01*
X0089752Y0172617D02*
X0089869Y0172617D01*
X0088512Y0176133D02*
X0088290Y0176133D01*
X0085119Y0175742D02*
X0084546Y0175742D01*
X0085119Y0175742D01*
X0084546Y0175742D01*
X0085119Y0175742D01*
X0084546Y0175742D01*
X0085119Y0175742D01*
X0084546Y0175742D01*
X0084656Y0175938D02*
X0084830Y0175938D01*
X0084656Y0175938D01*
X0084830Y0175938D01*
X0084656Y0175938D01*
X0084830Y0175938D01*
X0084656Y0175938D01*
X0084830Y0175938D01*
X0087270Y0251918D02*
X0087881Y0251981D01*
X0088467Y0252165D01*
X0089003Y0252465D01*
X0088451Y0253280D01*
X0088086Y0253076D01*
X0087687Y0252950D01*
X0087270Y0252907D01*
X0086854Y0252950D01*
X0086455Y0253076D01*
X0086089Y0253280D01*
X0085538Y0252465D01*
X0086074Y0252165D01*
X0086660Y0251981D01*
X0087270Y0251918D01*
X0087122Y0251934D02*
X0087419Y0251934D01*
X0088351Y0252129D02*
X0086190Y0252129D01*
X0085789Y0252324D02*
X0088751Y0252324D01*
X0088965Y0252520D02*
X0085575Y0252520D01*
X0085707Y0252715D02*
X0088833Y0252715D01*
X0088701Y0252910D02*
X0087302Y0252910D01*
X0087239Y0252910D02*
X0085840Y0252910D01*
X0085972Y0253106D02*
X0086401Y0253106D01*
X0085518Y0253850D02*
X0085314Y0254216D01*
X0085189Y0254615D01*
X0085146Y0255031D01*
X0085189Y0255448D01*
X0085314Y0255847D01*
X0085518Y0256213D01*
X0084703Y0256764D01*
X0084404Y0256228D01*
X0084220Y0255642D01*
X0084157Y0255031D01*
X0084220Y0254421D01*
X0084404Y0253835D01*
X0084703Y0253299D01*
X0085518Y0253850D01*
X0085314Y0254216D01*
X0085189Y0254615D01*
X0085146Y0255031D01*
X0085189Y0255448D01*
X0085314Y0255847D01*
X0085518Y0256213D01*
X0084703Y0256764D01*
X0084404Y0256228D01*
X0084220Y0255642D01*
X0084157Y0255031D01*
X0084220Y0254421D01*
X0084404Y0253835D01*
X0084703Y0253299D01*
X0085518Y0253850D01*
X0085314Y0254216D01*
X0085189Y0254615D01*
X0085146Y0255031D01*
X0085189Y0255448D01*
X0085314Y0255847D01*
X0085518Y0256213D01*
X0084703Y0256764D01*
X0084404Y0256228D01*
X0084220Y0255642D01*
X0084157Y0255031D01*
X0084220Y0254421D01*
X0084404Y0253835D01*
X0084703Y0253299D01*
X0085518Y0253850D01*
X0085314Y0254216D01*
X0085189Y0254615D01*
X0085146Y0255031D01*
X0085189Y0255448D01*
X0085314Y0255847D01*
X0085518Y0256213D01*
X0084703Y0256764D01*
X0084404Y0256228D01*
X0084220Y0255642D01*
X0084157Y0255031D01*
X0084220Y0254421D01*
X0084404Y0253835D01*
X0084703Y0253299D01*
X0085518Y0253850D01*
X0085314Y0254216D01*
X0085189Y0254615D01*
X0085146Y0255031D01*
X0085189Y0255448D01*
X0085314Y0255847D01*
X0085518Y0256213D01*
X0084703Y0256764D01*
X0084404Y0256228D01*
X0084220Y0255642D01*
X0084157Y0255031D01*
X0084220Y0254421D01*
X0084404Y0253835D01*
X0084703Y0253299D01*
X0085518Y0253850D01*
X0085314Y0254216D01*
X0085189Y0254615D01*
X0085146Y0255031D01*
X0085189Y0255448D01*
X0085314Y0255847D01*
X0085518Y0256213D01*
X0084703Y0256764D01*
X0084404Y0256228D01*
X0084220Y0255642D01*
X0084157Y0255031D01*
X0084220Y0254421D01*
X0084404Y0253835D01*
X0084703Y0253299D01*
X0085518Y0253850D01*
X0085314Y0254216D01*
X0085189Y0254615D01*
X0085146Y0255031D01*
X0085189Y0255448D01*
X0085314Y0255847D01*
X0085518Y0256213D01*
X0084703Y0256764D01*
X0084404Y0256228D01*
X0084220Y0255642D01*
X0084157Y0255031D01*
X0084220Y0254421D01*
X0084404Y0253835D01*
X0084703Y0253299D01*
X0085518Y0253850D01*
X0085498Y0253887D02*
X0084388Y0253887D01*
X0085498Y0253887D01*
X0084388Y0253887D01*
X0085498Y0253887D01*
X0084388Y0253887D01*
X0085498Y0253887D01*
X0084388Y0253887D01*
X0084326Y0254083D02*
X0085389Y0254083D01*
X0084326Y0254083D01*
X0085389Y0254083D01*
X0084326Y0254083D01*
X0085389Y0254083D01*
X0084326Y0254083D01*
X0085389Y0254083D01*
X0085295Y0254278D02*
X0084265Y0254278D01*
X0085295Y0254278D01*
X0084265Y0254278D01*
X0085295Y0254278D01*
X0084265Y0254278D01*
X0085295Y0254278D01*
X0084265Y0254278D01*
X0084214Y0254473D02*
X0085233Y0254473D01*
X0084214Y0254473D01*
X0085233Y0254473D01*
X0084214Y0254473D01*
X0085233Y0254473D01*
X0084214Y0254473D01*
X0085233Y0254473D01*
X0085183Y0254669D02*
X0084194Y0254669D01*
X0085183Y0254669D01*
X0084194Y0254669D01*
X0085183Y0254669D01*
X0084194Y0254669D01*
X0085183Y0254669D01*
X0084194Y0254669D01*
X0084174Y0254864D02*
X0085163Y0254864D01*
X0084174Y0254864D01*
X0085163Y0254864D01*
X0084174Y0254864D01*
X0085163Y0254864D01*
X0084174Y0254864D01*
X0085163Y0254864D01*
X0085149Y0255059D02*
X0084160Y0255059D01*
X0085149Y0255059D01*
X0084160Y0255059D01*
X0085149Y0255059D01*
X0084160Y0255059D01*
X0085149Y0255059D01*
X0084160Y0255059D01*
X0084180Y0255255D02*
X0085169Y0255255D01*
X0084180Y0255255D01*
X0085169Y0255255D01*
X0084180Y0255255D01*
X0085169Y0255255D01*
X0084180Y0255255D01*
X0085169Y0255255D01*
X0085189Y0255450D02*
X0084200Y0255450D01*
X0085189Y0255450D01*
X0084200Y0255450D01*
X0085189Y0255450D01*
X0084200Y0255450D01*
X0085189Y0255450D01*
X0084200Y0255450D01*
X0084221Y0255645D02*
X0085251Y0255645D01*
X0084221Y0255645D01*
X0085251Y0255645D01*
X0084221Y0255645D01*
X0085251Y0255645D01*
X0084221Y0255645D01*
X0085251Y0255645D01*
X0085312Y0255841D02*
X0084282Y0255841D01*
X0085312Y0255841D01*
X0084282Y0255841D01*
X0085312Y0255841D01*
X0084282Y0255841D01*
X0085312Y0255841D01*
X0084282Y0255841D01*
X0084344Y0256036D02*
X0085420Y0256036D01*
X0084344Y0256036D01*
X0085420Y0256036D01*
X0084344Y0256036D01*
X0085420Y0256036D01*
X0084344Y0256036D01*
X0085420Y0256036D01*
X0085490Y0256231D02*
X0084406Y0256231D01*
X0085490Y0256231D01*
X0084406Y0256231D01*
X0085490Y0256231D01*
X0084406Y0256231D01*
X0085490Y0256231D01*
X0084406Y0256231D01*
X0084515Y0256427D02*
X0085202Y0256427D01*
X0084515Y0256427D01*
X0085202Y0256427D01*
X0084515Y0256427D01*
X0085202Y0256427D01*
X0084515Y0256427D01*
X0085202Y0256427D01*
X0084913Y0256622D02*
X0084624Y0256622D01*
X0084913Y0256622D01*
X0084624Y0256622D01*
X0084913Y0256622D01*
X0084624Y0256622D01*
X0084913Y0256622D01*
X0084624Y0256622D01*
X0085670Y0257404D02*
X0088871Y0257404D01*
X0089002Y0257599D02*
X0085539Y0257599D01*
X0085538Y0257598D02*
X0086089Y0256783D01*
X0086455Y0256987D01*
X0086854Y0257113D01*
X0087270Y0257156D01*
X0087687Y0257113D01*
X0088086Y0256987D01*
X0088451Y0256783D01*
X0089003Y0257598D01*
X0088467Y0257898D01*
X0087881Y0258082D01*
X0087270Y0258145D01*
X0086660Y0258082D01*
X0086074Y0257898D01*
X0085538Y0257598D01*
X0085889Y0257794D02*
X0088651Y0257794D01*
X0088174Y0257990D02*
X0086366Y0257990D01*
X0085802Y0257208D02*
X0088739Y0257208D01*
X0088607Y0257013D02*
X0088005Y0257013D01*
X0088390Y0256818D02*
X0088475Y0256818D01*
X0089022Y0256213D02*
X0089226Y0255847D01*
X0089352Y0255448D01*
X0089395Y0255031D01*
X0089352Y0254615D01*
X0089226Y0254216D01*
X0089022Y0253850D01*
X0089837Y0253299D01*
X0090136Y0253835D01*
X0090321Y0254421D01*
X0090383Y0255031D01*
X0090321Y0255642D01*
X0090136Y0256228D01*
X0089837Y0256764D01*
X0089022Y0256213D01*
X0089050Y0256231D02*
X0090134Y0256231D01*
X0090197Y0256036D02*
X0089121Y0256036D01*
X0089228Y0255841D02*
X0090258Y0255841D01*
X0090320Y0255645D02*
X0089290Y0255645D01*
X0089351Y0255450D02*
X0090341Y0255450D01*
X0090361Y0255255D02*
X0089372Y0255255D01*
X0089392Y0255059D02*
X0090381Y0255059D01*
X0090366Y0254864D02*
X0089378Y0254864D01*
X0089358Y0254669D02*
X0090346Y0254669D01*
X0090326Y0254473D02*
X0089307Y0254473D01*
X0089246Y0254278D02*
X0090276Y0254278D01*
X0090214Y0254083D02*
X0089152Y0254083D01*
X0089043Y0253887D02*
X0090153Y0253887D01*
X0090056Y0253692D02*
X0089257Y0253692D01*
X0089546Y0253496D02*
X0089947Y0253496D01*
X0089838Y0253301D02*
X0089834Y0253301D01*
X0088569Y0253106D02*
X0088140Y0253106D01*
X0085284Y0253692D02*
X0084484Y0253692D01*
X0085284Y0253692D01*
X0084484Y0253692D01*
X0085284Y0253692D01*
X0084484Y0253692D01*
X0085284Y0253692D01*
X0084484Y0253692D01*
X0084593Y0253496D02*
X0084995Y0253496D01*
X0084593Y0253496D01*
X0084995Y0253496D01*
X0084593Y0253496D01*
X0084995Y0253496D01*
X0084593Y0253496D01*
X0084995Y0253496D01*
X0084706Y0253301D02*
X0084702Y0253301D01*
X0084706Y0253301D01*
X0084702Y0253301D01*
X0084706Y0253301D01*
X0084702Y0253301D01*
X0084706Y0253301D01*
X0084702Y0253301D01*
X0086066Y0256818D02*
X0086150Y0256818D01*
X0085934Y0257013D02*
X0086536Y0257013D01*
X0089339Y0256427D02*
X0090025Y0256427D01*
X0089916Y0256622D02*
X0089628Y0256622D01*
X0087270Y0330659D02*
X0087881Y0330721D01*
X0088467Y0330906D01*
X0089003Y0331205D01*
X0088451Y0332020D01*
X0088086Y0331816D01*
X0087687Y0331690D01*
X0087270Y0331647D01*
X0086854Y0331690D01*
X0086455Y0331816D01*
X0086089Y0332020D01*
X0085538Y0331205D01*
X0086074Y0330906D01*
X0086660Y0330721D01*
X0087270Y0330659D01*
X0087214Y0330664D02*
X0087327Y0330664D01*
X0088321Y0330860D02*
X0086220Y0330860D01*
X0085806Y0331055D02*
X0088734Y0331055D01*
X0088972Y0331250D02*
X0085569Y0331250D01*
X0085701Y0331446D02*
X0088840Y0331446D01*
X0088707Y0331641D02*
X0085833Y0331641D01*
X0085965Y0331836D02*
X0086417Y0331836D01*
X0085518Y0332591D02*
X0085314Y0332956D01*
X0085189Y0333355D01*
X0085146Y0333772D01*
X0085189Y0334188D01*
X0085314Y0334587D01*
X0085518Y0334953D01*
X0084703Y0335504D01*
X0084404Y0334968D01*
X0084220Y0334382D01*
X0084157Y0333772D01*
X0084220Y0333161D01*
X0084404Y0332575D01*
X0084703Y0332039D01*
X0085518Y0332591D01*
X0085314Y0332956D01*
X0085189Y0333355D01*
X0085146Y0333772D01*
X0085189Y0334188D01*
X0085314Y0334587D01*
X0085518Y0334953D01*
X0084703Y0335504D01*
X0084404Y0334968D01*
X0084220Y0334382D01*
X0084157Y0333772D01*
X0084220Y0333161D01*
X0084404Y0332575D01*
X0084703Y0332039D01*
X0085518Y0332591D01*
X0085314Y0332956D01*
X0085189Y0333355D01*
X0085146Y0333772D01*
X0085189Y0334188D01*
X0085314Y0334587D01*
X0085518Y0334953D01*
X0084703Y0335504D01*
X0084404Y0334968D01*
X0084220Y0334382D01*
X0084157Y0333772D01*
X0084220Y0333161D01*
X0084404Y0332575D01*
X0084703Y0332039D01*
X0085518Y0332591D01*
X0085314Y0332956D01*
X0085189Y0333355D01*
X0085146Y0333772D01*
X0085189Y0334188D01*
X0085314Y0334587D01*
X0085518Y0334953D01*
X0084703Y0335504D01*
X0084404Y0334968D01*
X0084220Y0334382D01*
X0084157Y0333772D01*
X0084220Y0333161D01*
X0084404Y0332575D01*
X0084703Y0332039D01*
X0085518Y0332591D01*
X0085314Y0332956D01*
X0085189Y0333355D01*
X0085146Y0333772D01*
X0085189Y0334188D01*
X0085314Y0334587D01*
X0085518Y0334953D01*
X0084703Y0335504D01*
X0084404Y0334968D01*
X0084220Y0334382D01*
X0084157Y0333772D01*
X0084220Y0333161D01*
X0084404Y0332575D01*
X0084703Y0332039D01*
X0085518Y0332591D01*
X0085314Y0332956D01*
X0085189Y0333355D01*
X0085146Y0333772D01*
X0085189Y0334188D01*
X0085314Y0334587D01*
X0085518Y0334953D01*
X0084703Y0335504D01*
X0084404Y0334968D01*
X0084220Y0334382D01*
X0084157Y0333772D01*
X0084220Y0333161D01*
X0084404Y0332575D01*
X0084703Y0332039D01*
X0085518Y0332591D01*
X0085314Y0332956D01*
X0085189Y0333355D01*
X0085146Y0333772D01*
X0085189Y0334188D01*
X0085314Y0334587D01*
X0085518Y0334953D01*
X0084703Y0335504D01*
X0084404Y0334968D01*
X0084220Y0334382D01*
X0084157Y0333772D01*
X0084220Y0333161D01*
X0084404Y0332575D01*
X0084703Y0332039D01*
X0085518Y0332591D01*
X0085503Y0332618D02*
X0084391Y0332618D01*
X0085503Y0332618D01*
X0084391Y0332618D01*
X0085503Y0332618D01*
X0084391Y0332618D01*
X0085503Y0332618D01*
X0084391Y0332618D01*
X0084329Y0332813D02*
X0085394Y0332813D01*
X0084329Y0332813D01*
X0085394Y0332813D01*
X0084329Y0332813D01*
X0085394Y0332813D01*
X0084329Y0332813D01*
X0085394Y0332813D01*
X0085298Y0333009D02*
X0084268Y0333009D01*
X0085298Y0333009D01*
X0084268Y0333009D01*
X0085298Y0333009D01*
X0084268Y0333009D01*
X0085298Y0333009D01*
X0084268Y0333009D01*
X0084215Y0333204D02*
X0085236Y0333204D01*
X0084215Y0333204D01*
X0085236Y0333204D01*
X0084215Y0333204D01*
X0085236Y0333204D01*
X0084215Y0333204D01*
X0085236Y0333204D01*
X0085184Y0333399D02*
X0084195Y0333399D01*
X0085184Y0333399D01*
X0084195Y0333399D01*
X0085184Y0333399D01*
X0084195Y0333399D01*
X0085184Y0333399D01*
X0084195Y0333399D01*
X0084175Y0333595D02*
X0085164Y0333595D01*
X0084175Y0333595D01*
X0085164Y0333595D01*
X0084175Y0333595D01*
X0085164Y0333595D01*
X0084175Y0333595D01*
X0085164Y0333595D01*
X0085148Y0333790D02*
X0084159Y0333790D01*
X0085148Y0333790D01*
X0084159Y0333790D01*
X0085148Y0333790D01*
X0084159Y0333790D01*
X0085148Y0333790D01*
X0084159Y0333790D01*
X0084179Y0333985D02*
X0085168Y0333985D01*
X0084179Y0333985D01*
X0085168Y0333985D01*
X0084179Y0333985D01*
X0085168Y0333985D01*
X0084179Y0333985D01*
X0085168Y0333985D01*
X0085188Y0334181D02*
X0084199Y0334181D01*
X0085188Y0334181D01*
X0084199Y0334181D01*
X0085188Y0334181D01*
X0084199Y0334181D01*
X0085188Y0334181D01*
X0084199Y0334181D01*
X0084219Y0334376D02*
X0085248Y0334376D01*
X0084219Y0334376D01*
X0085248Y0334376D01*
X0084219Y0334376D01*
X0085248Y0334376D01*
X0084219Y0334376D01*
X0085248Y0334376D01*
X0085309Y0334572D02*
X0084279Y0334572D01*
X0085309Y0334572D01*
X0084279Y0334572D01*
X0085309Y0334572D01*
X0084279Y0334572D01*
X0085309Y0334572D01*
X0084279Y0334572D01*
X0084341Y0334767D02*
X0085415Y0334767D01*
X0084341Y0334767D01*
X0085415Y0334767D01*
X0084341Y0334767D01*
X0085415Y0334767D01*
X0084341Y0334767D01*
X0085415Y0334767D01*
X0085504Y0334962D02*
X0084402Y0334962D01*
X0085504Y0334962D01*
X0084402Y0334962D01*
X0085504Y0334962D01*
X0084402Y0334962D01*
X0085504Y0334962D01*
X0084402Y0334962D01*
X0084510Y0335158D02*
X0085215Y0335158D01*
X0084510Y0335158D01*
X0085215Y0335158D01*
X0084510Y0335158D01*
X0085215Y0335158D01*
X0084510Y0335158D01*
X0085215Y0335158D01*
X0084927Y0335353D02*
X0084619Y0335353D01*
X0084927Y0335353D01*
X0084619Y0335353D01*
X0084927Y0335353D01*
X0084619Y0335353D01*
X0084927Y0335353D01*
X0084619Y0335353D01*
X0085676Y0336134D02*
X0088865Y0336134D01*
X0088732Y0335939D02*
X0085808Y0335939D01*
X0085940Y0335744D02*
X0086506Y0335744D01*
X0086455Y0335728D02*
X0086854Y0335853D01*
X0087270Y0335896D01*
X0087687Y0335853D01*
X0088086Y0335728D01*
X0088451Y0335524D01*
X0089003Y0336339D01*
X0088467Y0336638D01*
X0087881Y0336822D01*
X0087270Y0336885D01*
X0086660Y0336822D01*
X0086074Y0336638D01*
X0085538Y0336339D01*
X0086089Y0335524D01*
X0086455Y0335728D01*
X0086134Y0335548D02*
X0086072Y0335548D01*
X0085544Y0336330D02*
X0088997Y0336330D01*
X0088668Y0336525D02*
X0085872Y0336525D01*
X0086337Y0336721D02*
X0088204Y0336721D01*
X0088035Y0335744D02*
X0088600Y0335744D01*
X0088468Y0335548D02*
X0088407Y0335548D01*
X0089022Y0334953D02*
X0089226Y0334587D01*
X0089352Y0334188D01*
X0089395Y0333772D01*
X0089352Y0333355D01*
X0089226Y0332956D01*
X0089022Y0332591D01*
X0089837Y0332039D01*
X0090136Y0332575D01*
X0090321Y0333161D01*
X0090383Y0333772D01*
X0090321Y0334382D01*
X0090136Y0334968D01*
X0089837Y0335504D01*
X0089022Y0334953D01*
X0089036Y0334962D02*
X0090138Y0334962D01*
X0090200Y0334767D02*
X0089126Y0334767D01*
X0089231Y0334572D02*
X0090261Y0334572D01*
X0090322Y0334376D02*
X0089293Y0334376D01*
X0089353Y0334181D02*
X0090342Y0334181D01*
X0090362Y0333985D02*
X0089373Y0333985D01*
X0089393Y0333790D02*
X0090382Y0333790D01*
X0090365Y0333595D02*
X0089377Y0333595D01*
X0089357Y0333399D02*
X0090345Y0333399D01*
X0090325Y0333204D02*
X0089304Y0333204D01*
X0089243Y0333009D02*
X0090273Y0333009D01*
X0090211Y0332813D02*
X0089147Y0332813D01*
X0089038Y0332618D02*
X0090150Y0332618D01*
X0090051Y0332423D02*
X0089271Y0332423D01*
X0089560Y0332227D02*
X0089942Y0332227D01*
X0088575Y0331836D02*
X0088123Y0331836D01*
X0085270Y0332423D02*
X0084490Y0332423D01*
X0085270Y0332423D01*
X0084490Y0332423D01*
X0085270Y0332423D01*
X0084490Y0332423D01*
X0085270Y0332423D01*
X0084490Y0332423D01*
X0084599Y0332227D02*
X0084981Y0332227D01*
X0084599Y0332227D01*
X0084981Y0332227D01*
X0084599Y0332227D01*
X0084981Y0332227D01*
X0084599Y0332227D01*
X0084981Y0332227D01*
X0089325Y0335158D02*
X0090031Y0335158D01*
X0089922Y0335353D02*
X0089614Y0335353D01*
X0087270Y0411399D02*
X0087881Y0411461D01*
X0088467Y0411646D01*
X0089003Y0411945D01*
X0088451Y0412760D01*
X0088086Y0412556D01*
X0087687Y0412430D01*
X0087270Y0412387D01*
X0086854Y0412430D01*
X0086455Y0412556D01*
X0086089Y0412760D01*
X0085538Y0411945D01*
X0086074Y0411646D01*
X0086660Y0411461D01*
X0087270Y0411399D01*
X0086396Y0411544D02*
X0088144Y0411544D01*
X0088635Y0411739D02*
X0085906Y0411739D01*
X0085556Y0411935D02*
X0088985Y0411935D01*
X0088877Y0412130D02*
X0085663Y0412130D01*
X0085795Y0412326D02*
X0088745Y0412326D01*
X0088613Y0412521D02*
X0087975Y0412521D01*
X0088373Y0412716D02*
X0088481Y0412716D01*
X0089022Y0413331D02*
X0089837Y0412780D01*
X0090136Y0413316D01*
X0090321Y0413901D01*
X0090383Y0414512D01*
X0090321Y0415123D01*
X0090136Y0415708D01*
X0089837Y0416244D01*
X0089022Y0415693D01*
X0089226Y0415327D01*
X0089352Y0414928D01*
X0089395Y0414512D01*
X0089352Y0414095D01*
X0089226Y0413696D01*
X0089022Y0413331D01*
X0089064Y0413302D02*
X0090129Y0413302D01*
X0090194Y0413498D02*
X0089116Y0413498D01*
X0089225Y0413693D02*
X0090255Y0413693D01*
X0090317Y0413888D02*
X0089287Y0413888D01*
X0089349Y0414084D02*
X0090340Y0414084D01*
X0090360Y0414279D02*
X0089371Y0414279D01*
X0089391Y0414474D02*
X0090380Y0414474D01*
X0090367Y0414670D02*
X0089379Y0414670D01*
X0089359Y0414865D02*
X0090347Y0414865D01*
X0090327Y0415061D02*
X0089310Y0415061D01*
X0089249Y0415256D02*
X0090279Y0415256D01*
X0090217Y0415451D02*
X0089157Y0415451D01*
X0089048Y0415647D02*
X0090156Y0415647D01*
X0090062Y0415842D02*
X0089243Y0415842D01*
X0089532Y0416037D02*
X0089953Y0416037D01*
X0089844Y0416233D02*
X0089821Y0416233D01*
X0088827Y0416819D02*
X0085714Y0416819D01*
X0085582Y0417014D02*
X0088959Y0417014D01*
X0089003Y0417079D02*
X0088451Y0416264D01*
X0088086Y0416468D01*
X0087687Y0416594D01*
X0087270Y0416636D01*
X0086854Y0416594D01*
X0086455Y0416468D01*
X0086089Y0416264D01*
X0085538Y0417079D01*
X0086074Y0417378D01*
X0086660Y0417563D01*
X0087270Y0417625D01*
X0087881Y0417563D01*
X0088467Y0417378D01*
X0089003Y0417079D01*
X0088768Y0417210D02*
X0085772Y0417210D01*
X0086160Y0417405D02*
X0088381Y0417405D01*
X0088695Y0416623D02*
X0087395Y0416623D01*
X0087146Y0416623D02*
X0085846Y0416623D01*
X0085978Y0416428D02*
X0086384Y0416428D01*
X0085518Y0415693D02*
X0084703Y0416244D01*
X0084404Y0415708D01*
X0084220Y0415123D01*
X0084157Y0414512D01*
X0084220Y0413901D01*
X0084404Y0413316D01*
X0084703Y0412780D01*
X0085518Y0413331D01*
X0085314Y0413696D01*
X0085189Y0414095D01*
X0085146Y0414512D01*
X0085189Y0414928D01*
X0085314Y0415327D01*
X0085518Y0415693D01*
X0084703Y0416244D01*
X0084404Y0415708D01*
X0084220Y0415123D01*
X0084157Y0414512D01*
X0084220Y0413901D01*
X0084404Y0413316D01*
X0084703Y0412780D01*
X0085518Y0413331D01*
X0085314Y0413696D01*
X0085189Y0414095D01*
X0085146Y0414512D01*
X0085189Y0414928D01*
X0085314Y0415327D01*
X0085518Y0415693D01*
X0084703Y0416244D01*
X0084404Y0415708D01*
X0084220Y0415123D01*
X0084157Y0414512D01*
X0084220Y0413901D01*
X0084404Y0413316D01*
X0084703Y0412780D01*
X0085518Y0413331D01*
X0085314Y0413696D01*
X0085189Y0414095D01*
X0085146Y0414512D01*
X0085189Y0414928D01*
X0085314Y0415327D01*
X0085518Y0415693D01*
X0084703Y0416244D01*
X0084404Y0415708D01*
X0084220Y0415123D01*
X0084157Y0414512D01*
X0084220Y0413901D01*
X0084404Y0413316D01*
X0084703Y0412780D01*
X0085518Y0413331D01*
X0085314Y0413696D01*
X0085189Y0414095D01*
X0085146Y0414512D01*
X0085189Y0414928D01*
X0085314Y0415327D01*
X0085518Y0415693D01*
X0084703Y0416244D01*
X0084404Y0415708D01*
X0084220Y0415123D01*
X0084157Y0414512D01*
X0084220Y0413901D01*
X0084404Y0413316D01*
X0084703Y0412780D01*
X0085518Y0413331D01*
X0085314Y0413696D01*
X0085189Y0414095D01*
X0085146Y0414512D01*
X0085189Y0414928D01*
X0085314Y0415327D01*
X0085518Y0415693D01*
X0084703Y0416244D01*
X0084404Y0415708D01*
X0084220Y0415123D01*
X0084157Y0414512D01*
X0084220Y0413901D01*
X0084404Y0413316D01*
X0084703Y0412780D01*
X0085518Y0413331D01*
X0085314Y0413696D01*
X0085189Y0414095D01*
X0085146Y0414512D01*
X0085189Y0414928D01*
X0085314Y0415327D01*
X0085518Y0415693D01*
X0084703Y0416244D01*
X0084404Y0415708D01*
X0084220Y0415123D01*
X0084157Y0414512D01*
X0084220Y0413901D01*
X0084404Y0413316D01*
X0084703Y0412780D01*
X0085518Y0413331D01*
X0085314Y0413696D01*
X0085189Y0414095D01*
X0085146Y0414512D01*
X0085189Y0414928D01*
X0085314Y0415327D01*
X0085518Y0415693D01*
X0085493Y0415647D02*
X0084385Y0415647D01*
X0085493Y0415647D01*
X0084385Y0415647D01*
X0085493Y0415647D01*
X0084385Y0415647D01*
X0085493Y0415647D01*
X0084385Y0415647D01*
X0084323Y0415451D02*
X0085384Y0415451D01*
X0084323Y0415451D01*
X0085384Y0415451D01*
X0084323Y0415451D01*
X0085384Y0415451D01*
X0084323Y0415451D01*
X0085384Y0415451D01*
X0085292Y0415256D02*
X0084262Y0415256D01*
X0085292Y0415256D01*
X0084262Y0415256D01*
X0085292Y0415256D01*
X0084262Y0415256D01*
X0085292Y0415256D01*
X0084262Y0415256D01*
X0084213Y0415061D02*
X0085230Y0415061D01*
X0084213Y0415061D01*
X0085230Y0415061D01*
X0084213Y0415061D01*
X0085230Y0415061D01*
X0084213Y0415061D01*
X0085230Y0415061D01*
X0085182Y0414865D02*
X0084193Y0414865D01*
X0085182Y0414865D01*
X0084193Y0414865D01*
X0085182Y0414865D01*
X0084193Y0414865D01*
X0085182Y0414865D01*
X0084193Y0414865D01*
X0084173Y0414670D02*
X0085162Y0414670D01*
X0084173Y0414670D01*
X0085162Y0414670D01*
X0084173Y0414670D01*
X0085162Y0414670D01*
X0084173Y0414670D01*
X0085162Y0414670D01*
X0085150Y0414474D02*
X0084161Y0414474D01*
X0085150Y0414474D01*
X0084161Y0414474D01*
X0085150Y0414474D01*
X0084161Y0414474D01*
X0085150Y0414474D01*
X0084161Y0414474D01*
X0084181Y0414279D02*
X0085170Y0414279D01*
X0084181Y0414279D01*
X0085170Y0414279D01*
X0084181Y0414279D01*
X0085170Y0414279D01*
X0084181Y0414279D01*
X0085170Y0414279D01*
X0085192Y0414084D02*
X0084201Y0414084D01*
X0085192Y0414084D01*
X0084201Y0414084D01*
X0085192Y0414084D01*
X0084201Y0414084D01*
X0085192Y0414084D01*
X0084201Y0414084D01*
X0084224Y0413888D02*
X0085254Y0413888D01*
X0084224Y0413888D01*
X0085254Y0413888D01*
X0084224Y0413888D01*
X0085254Y0413888D01*
X0084224Y0413888D01*
X0085254Y0413888D01*
X0085316Y0413693D02*
X0084285Y0413693D01*
X0085316Y0413693D01*
X0084285Y0413693D01*
X0085316Y0413693D01*
X0084285Y0413693D01*
X0085316Y0413693D01*
X0084285Y0413693D01*
X0084347Y0413498D02*
X0085425Y0413498D01*
X0084347Y0413498D01*
X0085425Y0413498D01*
X0084347Y0413498D01*
X0085425Y0413498D01*
X0084347Y0413498D01*
X0085425Y0413498D01*
X0085476Y0413302D02*
X0084412Y0413302D01*
X0085476Y0413302D01*
X0084412Y0413302D01*
X0085476Y0413302D01*
X0084412Y0413302D01*
X0085476Y0413302D01*
X0084412Y0413302D01*
X0084521Y0413107D02*
X0085188Y0413107D01*
X0084521Y0413107D01*
X0085188Y0413107D01*
X0084521Y0413107D01*
X0085188Y0413107D01*
X0084521Y0413107D01*
X0085188Y0413107D01*
X0084899Y0412912D02*
X0084630Y0412912D01*
X0084899Y0412912D01*
X0084630Y0412912D01*
X0084899Y0412912D01*
X0084630Y0412912D01*
X0084899Y0412912D01*
X0084630Y0412912D01*
X0085928Y0412521D02*
X0086566Y0412521D01*
X0086167Y0412716D02*
X0086060Y0412716D01*
X0085298Y0415842D02*
X0084479Y0415842D01*
X0085298Y0415842D01*
X0084479Y0415842D01*
X0085298Y0415842D01*
X0084479Y0415842D01*
X0085298Y0415842D01*
X0084479Y0415842D01*
X0084588Y0416037D02*
X0085009Y0416037D01*
X0084588Y0416037D01*
X0085009Y0416037D01*
X0084588Y0416037D01*
X0085009Y0416037D01*
X0084588Y0416037D01*
X0085009Y0416037D01*
X0084720Y0416233D02*
X0084697Y0416233D01*
X0084720Y0416233D01*
X0084697Y0416233D01*
X0084720Y0416233D01*
X0084697Y0416233D01*
X0084720Y0416233D01*
X0084697Y0416233D01*
X0087029Y0417600D02*
X0087511Y0417600D01*
X0088157Y0416428D02*
X0088563Y0416428D01*
X0089353Y0413107D02*
X0090020Y0413107D01*
X0089911Y0412912D02*
X0089642Y0412912D01*
X0087270Y0490139D02*
X0087881Y0490201D01*
X0088467Y0490386D01*
X0089003Y0490685D01*
X0088451Y0491500D01*
X0088086Y0491296D01*
X0087687Y0491170D01*
X0087270Y0491128D01*
X0086854Y0491170D01*
X0086455Y0491296D01*
X0086089Y0491500D01*
X0085538Y0490685D01*
X0086074Y0490386D01*
X0086660Y0490201D01*
X0087270Y0490139D01*
X0086426Y0490275D02*
X0088115Y0490275D01*
X0088618Y0490470D02*
X0085923Y0490470D01*
X0085573Y0490666D02*
X0088968Y0490666D01*
X0088884Y0490861D02*
X0085657Y0490861D01*
X0085789Y0491056D02*
X0088752Y0491056D01*
X0088619Y0491252D02*
X0087945Y0491252D01*
X0088357Y0491447D02*
X0088487Y0491447D01*
X0089022Y0492071D02*
X0089837Y0491520D01*
X0090136Y0492056D01*
X0090321Y0492641D01*
X0090383Y0493252D01*
X0090321Y0493863D01*
X0090136Y0494448D01*
X0089837Y0494984D01*
X0089022Y0494433D01*
X0089226Y0494068D01*
X0089352Y0493668D01*
X0089395Y0493252D01*
X0089352Y0492836D01*
X0089226Y0492436D01*
X0089022Y0492071D01*
X0089078Y0492033D02*
X0090124Y0492033D01*
X0090191Y0492228D02*
X0089110Y0492228D01*
X0089219Y0492424D02*
X0090253Y0492424D01*
X0090314Y0492619D02*
X0089284Y0492619D01*
X0089346Y0492815D02*
X0090339Y0492815D01*
X0090359Y0493010D02*
X0089370Y0493010D01*
X0089390Y0493205D02*
X0090379Y0493205D01*
X0090368Y0493401D02*
X0089380Y0493401D01*
X0089360Y0493596D02*
X0090348Y0493596D01*
X0090328Y0493791D02*
X0089313Y0493791D01*
X0089252Y0493987D02*
X0090282Y0493987D01*
X0090220Y0494182D02*
X0089162Y0494182D01*
X0089053Y0494377D02*
X0090159Y0494377D01*
X0090067Y0494573D02*
X0089229Y0494573D01*
X0089518Y0494768D02*
X0089958Y0494768D01*
X0089849Y0494964D02*
X0089807Y0494964D01*
X0088820Y0495550D02*
X0085720Y0495550D01*
X0085588Y0495745D02*
X0088953Y0495745D01*
X0089003Y0495819D02*
X0088451Y0495004D01*
X0088086Y0495208D01*
X0087687Y0495334D01*
X0087270Y0495376D01*
X0086854Y0495334D01*
X0086455Y0495208D01*
X0086089Y0495004D01*
X0085538Y0495819D01*
X0086074Y0496118D01*
X0086660Y0496303D01*
X0087270Y0496365D01*
X0087881Y0496303D01*
X0088467Y0496118D01*
X0089003Y0495819D01*
X0088785Y0495940D02*
X0085756Y0495940D01*
X0086130Y0496136D02*
X0088411Y0496136D01*
X0088688Y0495354D02*
X0087486Y0495354D01*
X0087054Y0495354D02*
X0085852Y0495354D01*
X0085984Y0495159D02*
X0086367Y0495159D01*
X0085518Y0494433D02*
X0084703Y0494984D01*
X0084404Y0494448D01*
X0084220Y0493863D01*
X0084157Y0493252D01*
X0084220Y0492641D01*
X0084404Y0492056D01*
X0084703Y0491520D01*
X0085518Y0492071D01*
X0085314Y0492436D01*
X0085189Y0492836D01*
X0085146Y0493252D01*
X0085189Y0493668D01*
X0085314Y0494068D01*
X0085518Y0494433D01*
X0084703Y0494984D01*
X0084404Y0494448D01*
X0084220Y0493863D01*
X0084157Y0493252D01*
X0084220Y0492641D01*
X0084404Y0492056D01*
X0084703Y0491520D01*
X0085518Y0492071D01*
X0085314Y0492436D01*
X0085189Y0492836D01*
X0085146Y0493252D01*
X0085189Y0493668D01*
X0085314Y0494068D01*
X0085518Y0494433D01*
X0084703Y0494984D01*
X0084404Y0494448D01*
X0084220Y0493863D01*
X0084157Y0493252D01*
X0084220Y0492641D01*
X0084404Y0492056D01*
X0084703Y0491520D01*
X0085518Y0492071D01*
X0085314Y0492436D01*
X0085189Y0492836D01*
X0085146Y0493252D01*
X0085189Y0493668D01*
X0085314Y0494068D01*
X0085518Y0494433D01*
X0084703Y0494984D01*
X0084404Y0494448D01*
X0084220Y0493863D01*
X0084157Y0493252D01*
X0084220Y0492641D01*
X0084404Y0492056D01*
X0084703Y0491520D01*
X0085518Y0492071D01*
X0085314Y0492436D01*
X0085189Y0492836D01*
X0085146Y0493252D01*
X0085189Y0493668D01*
X0085314Y0494068D01*
X0085518Y0494433D01*
X0084703Y0494984D01*
X0084404Y0494448D01*
X0084220Y0493863D01*
X0084157Y0493252D01*
X0084220Y0492641D01*
X0084404Y0492056D01*
X0084703Y0491520D01*
X0085518Y0492071D01*
X0085314Y0492436D01*
X0085189Y0492836D01*
X0085146Y0493252D01*
X0085189Y0493668D01*
X0085314Y0494068D01*
X0085518Y0494433D01*
X0084703Y0494984D01*
X0084404Y0494448D01*
X0084220Y0493863D01*
X0084157Y0493252D01*
X0084220Y0492641D01*
X0084404Y0492056D01*
X0084703Y0491520D01*
X0085518Y0492071D01*
X0085314Y0492436D01*
X0085189Y0492836D01*
X0085146Y0493252D01*
X0085189Y0493668D01*
X0085314Y0494068D01*
X0085518Y0494433D01*
X0084703Y0494984D01*
X0084404Y0494448D01*
X0084220Y0493863D01*
X0084157Y0493252D01*
X0084220Y0492641D01*
X0084404Y0492056D01*
X0084703Y0491520D01*
X0085518Y0492071D01*
X0085314Y0492436D01*
X0085189Y0492836D01*
X0085146Y0493252D01*
X0085189Y0493668D01*
X0085314Y0494068D01*
X0085518Y0494433D01*
X0085487Y0494377D02*
X0084382Y0494377D01*
X0085487Y0494377D01*
X0084382Y0494377D01*
X0085487Y0494377D01*
X0084382Y0494377D01*
X0085487Y0494377D01*
X0084382Y0494377D01*
X0084320Y0494182D02*
X0085378Y0494182D01*
X0084320Y0494182D01*
X0085378Y0494182D01*
X0084320Y0494182D01*
X0085378Y0494182D01*
X0084320Y0494182D01*
X0085378Y0494182D01*
X0085289Y0493987D02*
X0084259Y0493987D01*
X0085289Y0493987D01*
X0084259Y0493987D01*
X0085289Y0493987D01*
X0084259Y0493987D01*
X0085289Y0493987D01*
X0084259Y0493987D01*
X0084212Y0493791D02*
X0085227Y0493791D01*
X0084212Y0493791D01*
X0085227Y0493791D01*
X0084212Y0493791D01*
X0085227Y0493791D01*
X0084212Y0493791D01*
X0085227Y0493791D01*
X0085181Y0493596D02*
X0084192Y0493596D01*
X0085181Y0493596D01*
X0084192Y0493596D01*
X0085181Y0493596D01*
X0084192Y0493596D01*
X0085181Y0493596D01*
X0084192Y0493596D01*
X0084172Y0493401D02*
X0085161Y0493401D01*
X0084172Y0493401D01*
X0085161Y0493401D01*
X0084172Y0493401D01*
X0085161Y0493401D01*
X0084172Y0493401D01*
X0085161Y0493401D01*
X0085151Y0493205D02*
X0084162Y0493205D01*
X0085151Y0493205D01*
X0084162Y0493205D01*
X0085151Y0493205D01*
X0084162Y0493205D01*
X0085151Y0493205D01*
X0084162Y0493205D01*
X0084182Y0493010D02*
X0085171Y0493010D01*
X0084182Y0493010D01*
X0085171Y0493010D01*
X0084182Y0493010D01*
X0085171Y0493010D01*
X0084182Y0493010D01*
X0085171Y0493010D01*
X0085195Y0492815D02*
X0084202Y0492815D01*
X0085195Y0492815D01*
X0084202Y0492815D01*
X0085195Y0492815D01*
X0084202Y0492815D01*
X0085195Y0492815D01*
X0084202Y0492815D01*
X0084227Y0492619D02*
X0085257Y0492619D01*
X0084227Y0492619D01*
X0085257Y0492619D01*
X0084227Y0492619D01*
X0085257Y0492619D01*
X0084227Y0492619D01*
X0085257Y0492619D01*
X0085321Y0492424D02*
X0084288Y0492424D01*
X0085321Y0492424D01*
X0084288Y0492424D01*
X0085321Y0492424D01*
X0084288Y0492424D01*
X0085321Y0492424D01*
X0084288Y0492424D01*
X0084350Y0492228D02*
X0085430Y0492228D01*
X0084350Y0492228D01*
X0085430Y0492228D01*
X0084350Y0492228D01*
X0085430Y0492228D01*
X0084350Y0492228D01*
X0085430Y0492228D01*
X0085463Y0492033D02*
X0084417Y0492033D01*
X0085463Y0492033D01*
X0084417Y0492033D01*
X0085463Y0492033D01*
X0084417Y0492033D01*
X0085463Y0492033D01*
X0084417Y0492033D01*
X0084526Y0491838D02*
X0085174Y0491838D01*
X0084526Y0491838D01*
X0085174Y0491838D01*
X0084526Y0491838D01*
X0085174Y0491838D01*
X0084526Y0491838D01*
X0085174Y0491838D01*
X0084885Y0491642D02*
X0084635Y0491642D01*
X0084885Y0491642D01*
X0084635Y0491642D01*
X0084885Y0491642D01*
X0084635Y0491642D01*
X0084885Y0491642D01*
X0084635Y0491642D01*
X0085921Y0491252D02*
X0086595Y0491252D01*
X0086184Y0491447D02*
X0086053Y0491447D01*
X0085312Y0494573D02*
X0084474Y0494573D01*
X0085312Y0494573D01*
X0084474Y0494573D01*
X0085312Y0494573D01*
X0084474Y0494573D01*
X0085312Y0494573D01*
X0084474Y0494573D01*
X0084583Y0494768D02*
X0085023Y0494768D01*
X0084583Y0494768D01*
X0085023Y0494768D01*
X0084583Y0494768D01*
X0085023Y0494768D01*
X0084583Y0494768D01*
X0085023Y0494768D01*
X0084734Y0494964D02*
X0084692Y0494964D01*
X0084734Y0494964D01*
X0084692Y0494964D01*
X0084734Y0494964D01*
X0084692Y0494964D01*
X0084734Y0494964D01*
X0084692Y0494964D01*
X0086937Y0496331D02*
X0087603Y0496331D01*
X0088174Y0495159D02*
X0088556Y0495159D01*
X0089367Y0491838D02*
X0090015Y0491838D01*
X0089906Y0491642D02*
X0089656Y0491642D01*
X0279638Y0493252D02*
X0279700Y0492641D01*
X0279885Y0492056D01*
X0280184Y0491520D01*
X0280999Y0492071D01*
X0280795Y0492436D01*
X0280669Y0492836D01*
X0280626Y0493252D01*
X0280669Y0493668D01*
X0280795Y0494068D01*
X0280999Y0494433D01*
X0280184Y0494984D01*
X0279885Y0494448D01*
X0279700Y0493863D01*
X0279638Y0493252D01*
X0279700Y0492641D01*
X0279885Y0492056D01*
X0280184Y0491520D01*
X0280999Y0492071D01*
X0280795Y0492436D01*
X0280669Y0492836D01*
X0280626Y0493252D01*
X0280669Y0493668D01*
X0280795Y0494068D01*
X0280999Y0494433D01*
X0280184Y0494984D01*
X0279885Y0494448D01*
X0279700Y0493863D01*
X0279638Y0493252D01*
X0279700Y0492641D01*
X0279885Y0492056D01*
X0280184Y0491520D01*
X0280999Y0492071D01*
X0280795Y0492436D01*
X0280669Y0492836D01*
X0280626Y0493252D01*
X0280669Y0493668D01*
X0280795Y0494068D01*
X0280999Y0494433D01*
X0280184Y0494984D01*
X0279885Y0494448D01*
X0279700Y0493863D01*
X0279638Y0493252D01*
X0279700Y0492641D01*
X0279885Y0492056D01*
X0280184Y0491520D01*
X0280999Y0492071D01*
X0280795Y0492436D01*
X0280669Y0492836D01*
X0280626Y0493252D01*
X0280669Y0493668D01*
X0280795Y0494068D01*
X0280999Y0494433D01*
X0280184Y0494984D01*
X0279885Y0494448D01*
X0279700Y0493863D01*
X0279638Y0493252D01*
X0279700Y0492641D01*
X0279885Y0492056D01*
X0280184Y0491520D01*
X0280999Y0492071D01*
X0280795Y0492436D01*
X0280669Y0492836D01*
X0280626Y0493252D01*
X0280669Y0493668D01*
X0280795Y0494068D01*
X0280999Y0494433D01*
X0280184Y0494984D01*
X0279885Y0494448D01*
X0279700Y0493863D01*
X0279638Y0493252D01*
X0279700Y0492641D01*
X0279885Y0492056D01*
X0280184Y0491520D01*
X0280999Y0492071D01*
X0280795Y0492436D01*
X0280669Y0492836D01*
X0280626Y0493252D01*
X0280669Y0493668D01*
X0280795Y0494068D01*
X0280999Y0494433D01*
X0280184Y0494984D01*
X0279885Y0494448D01*
X0279700Y0493863D01*
X0279638Y0493252D01*
X0279700Y0492641D01*
X0279885Y0492056D01*
X0280184Y0491520D01*
X0280999Y0492071D01*
X0280795Y0492436D01*
X0280669Y0492836D01*
X0280626Y0493252D01*
X0280669Y0493668D01*
X0280795Y0494068D01*
X0280999Y0494433D01*
X0280184Y0494984D01*
X0279885Y0494448D01*
X0279700Y0493863D01*
X0279638Y0493252D01*
X0279642Y0493205D02*
X0280631Y0493205D01*
X0279642Y0493205D01*
X0280631Y0493205D01*
X0279642Y0493205D01*
X0280631Y0493205D01*
X0279642Y0493205D01*
X0280631Y0493205D01*
X0280641Y0493401D02*
X0279653Y0493401D01*
X0280641Y0493401D01*
X0279653Y0493401D01*
X0280641Y0493401D01*
X0279653Y0493401D01*
X0280641Y0493401D01*
X0279653Y0493401D01*
X0279673Y0493596D02*
X0280661Y0493596D01*
X0279673Y0493596D01*
X0280661Y0493596D01*
X0279673Y0493596D01*
X0280661Y0493596D01*
X0279673Y0493596D01*
X0280661Y0493596D01*
X0280708Y0493791D02*
X0279693Y0493791D01*
X0280708Y0493791D01*
X0279693Y0493791D01*
X0280708Y0493791D01*
X0279693Y0493791D01*
X0280708Y0493791D01*
X0279693Y0493791D01*
X0279739Y0493987D02*
X0280769Y0493987D01*
X0279739Y0493987D01*
X0280769Y0493987D01*
X0279739Y0493987D01*
X0280769Y0493987D01*
X0279739Y0493987D01*
X0280769Y0493987D01*
X0280859Y0494182D02*
X0279801Y0494182D01*
X0280859Y0494182D01*
X0279801Y0494182D01*
X0280859Y0494182D01*
X0279801Y0494182D01*
X0280859Y0494182D01*
X0279801Y0494182D01*
X0279862Y0494377D02*
X0280968Y0494377D01*
X0279862Y0494377D01*
X0280968Y0494377D01*
X0279862Y0494377D01*
X0280968Y0494377D01*
X0279862Y0494377D01*
X0280968Y0494377D01*
X0280792Y0494573D02*
X0279954Y0494573D01*
X0280792Y0494573D01*
X0279954Y0494573D01*
X0280792Y0494573D01*
X0279954Y0494573D01*
X0280792Y0494573D01*
X0279954Y0494573D01*
X0280063Y0494768D02*
X0280503Y0494768D01*
X0280063Y0494768D01*
X0280503Y0494768D01*
X0280063Y0494768D01*
X0280503Y0494768D01*
X0280063Y0494768D01*
X0280503Y0494768D01*
X0280214Y0494964D02*
X0280172Y0494964D01*
X0280214Y0494964D01*
X0280172Y0494964D01*
X0280214Y0494964D01*
X0280172Y0494964D01*
X0280214Y0494964D01*
X0280172Y0494964D01*
X0281200Y0495550D02*
X0284301Y0495550D01*
X0284433Y0495745D02*
X0281068Y0495745D01*
X0281018Y0495819D02*
X0281570Y0495004D01*
X0281935Y0495208D01*
X0282334Y0495334D01*
X0282751Y0495376D01*
X0283167Y0495334D01*
X0283566Y0495208D01*
X0283932Y0495004D01*
X0284483Y0495819D01*
X0283947Y0496118D01*
X0283361Y0496303D01*
X0282751Y0496365D01*
X0282140Y0496303D01*
X0281554Y0496118D01*
X0281018Y0495819D01*
X0281236Y0495940D02*
X0284265Y0495940D01*
X0283891Y0496136D02*
X0281610Y0496136D01*
X0281333Y0495354D02*
X0282534Y0495354D01*
X0282967Y0495354D02*
X0284169Y0495354D01*
X0284037Y0495159D02*
X0283654Y0495159D01*
X0284503Y0494433D02*
X0284707Y0494068D01*
X0284832Y0493668D01*
X0284875Y0493252D01*
X0284832Y0492836D01*
X0284707Y0492436D01*
X0284503Y0492071D01*
X0285318Y0491520D01*
X0285617Y0492056D01*
X0285801Y0492641D01*
X0285864Y0493252D01*
X0285801Y0493863D01*
X0285617Y0494448D01*
X0285318Y0494984D01*
X0284503Y0494433D01*
X0284534Y0494377D02*
X0285639Y0494377D01*
X0285701Y0494182D02*
X0284643Y0494182D01*
X0284732Y0493987D02*
X0285762Y0493987D01*
X0285809Y0493791D02*
X0284794Y0493791D01*
X0284840Y0493596D02*
X0285829Y0493596D01*
X0285849Y0493401D02*
X0284860Y0493401D01*
X0284870Y0493205D02*
X0285859Y0493205D01*
X0285839Y0493010D02*
X0284850Y0493010D01*
X0284826Y0492815D02*
X0285819Y0492815D01*
X0285794Y0492619D02*
X0284764Y0492619D01*
X0284700Y0492424D02*
X0285733Y0492424D01*
X0285671Y0492228D02*
X0284591Y0492228D01*
X0284558Y0492033D02*
X0285604Y0492033D01*
X0285495Y0491838D02*
X0284847Y0491838D01*
X0285136Y0491642D02*
X0285386Y0491642D01*
X0284364Y0490861D02*
X0281137Y0490861D01*
X0281018Y0490685D02*
X0281570Y0491500D01*
X0281935Y0491296D01*
X0282334Y0491170D01*
X0282751Y0491128D01*
X0283167Y0491170D01*
X0283566Y0491296D01*
X0283932Y0491500D01*
X0284483Y0490685D01*
X0283947Y0490386D01*
X0283361Y0490201D01*
X0282751Y0490139D01*
X0282140Y0490201D01*
X0281554Y0490386D01*
X0281018Y0490685D01*
X0281053Y0490666D02*
X0284448Y0490666D01*
X0284098Y0490470D02*
X0281403Y0490470D01*
X0281906Y0490275D02*
X0283595Y0490275D01*
X0283426Y0491252D02*
X0284100Y0491252D01*
X0283968Y0491447D02*
X0283837Y0491447D01*
X0284232Y0491056D02*
X0281269Y0491056D01*
X0281402Y0491252D02*
X0282076Y0491252D01*
X0281664Y0491447D02*
X0281534Y0491447D01*
X0280943Y0492033D02*
X0279897Y0492033D01*
X0280943Y0492033D01*
X0279897Y0492033D01*
X0280943Y0492033D01*
X0279897Y0492033D01*
X0280943Y0492033D01*
X0279897Y0492033D01*
X0279830Y0492228D02*
X0280911Y0492228D01*
X0279830Y0492228D01*
X0280911Y0492228D01*
X0279830Y0492228D01*
X0280911Y0492228D01*
X0279830Y0492228D01*
X0280911Y0492228D01*
X0280802Y0492424D02*
X0279768Y0492424D01*
X0280802Y0492424D01*
X0279768Y0492424D01*
X0280802Y0492424D01*
X0279768Y0492424D01*
X0280802Y0492424D01*
X0279768Y0492424D01*
X0279707Y0492619D02*
X0280737Y0492619D01*
X0279707Y0492619D01*
X0280737Y0492619D01*
X0279707Y0492619D01*
X0280737Y0492619D01*
X0279707Y0492619D01*
X0280737Y0492619D01*
X0280675Y0492815D02*
X0279682Y0492815D01*
X0280675Y0492815D01*
X0279682Y0492815D01*
X0280675Y0492815D01*
X0279682Y0492815D01*
X0280675Y0492815D01*
X0279682Y0492815D01*
X0279662Y0493010D02*
X0280651Y0493010D01*
X0279662Y0493010D01*
X0280651Y0493010D01*
X0279662Y0493010D01*
X0280651Y0493010D01*
X0279662Y0493010D01*
X0280651Y0493010D01*
X0280654Y0491838D02*
X0280006Y0491838D01*
X0280654Y0491838D01*
X0280006Y0491838D01*
X0280654Y0491838D01*
X0280006Y0491838D01*
X0280654Y0491838D01*
X0280006Y0491838D01*
X0280115Y0491642D02*
X0280365Y0491642D01*
X0280115Y0491642D01*
X0280365Y0491642D01*
X0280115Y0491642D01*
X0280365Y0491642D01*
X0280115Y0491642D01*
X0280365Y0491642D01*
X0281465Y0495159D02*
X0281847Y0495159D01*
X0282418Y0496331D02*
X0283084Y0496331D01*
X0284709Y0494573D02*
X0285547Y0494573D01*
X0285438Y0494768D02*
X0284998Y0494768D01*
X0285287Y0494964D02*
X0285329Y0494964D01*
X0282751Y0417625D02*
X0282140Y0417563D01*
X0281554Y0417378D01*
X0281018Y0417079D01*
X0281570Y0416264D01*
X0281935Y0416468D01*
X0282334Y0416594D01*
X0282751Y0416636D01*
X0283167Y0416594D01*
X0283566Y0416468D01*
X0283932Y0416264D01*
X0284483Y0417079D01*
X0283947Y0417378D01*
X0283361Y0417563D01*
X0282751Y0417625D01*
X0282510Y0417600D02*
X0282992Y0417600D01*
X0283861Y0417405D02*
X0281640Y0417405D01*
X0281253Y0417210D02*
X0284249Y0417210D01*
X0284439Y0417014D02*
X0281062Y0417014D01*
X0281194Y0416819D02*
X0284307Y0416819D01*
X0284175Y0416623D02*
X0282875Y0416623D01*
X0282626Y0416623D02*
X0281326Y0416623D01*
X0281458Y0416428D02*
X0281864Y0416428D01*
X0280999Y0415693D02*
X0280184Y0416244D01*
X0279885Y0415708D01*
X0279700Y0415123D01*
X0279638Y0414512D01*
X0279700Y0413901D01*
X0279885Y0413316D01*
X0280184Y0412780D01*
X0280999Y0413331D01*
X0280795Y0413696D01*
X0280669Y0414095D01*
X0280626Y0414512D01*
X0280669Y0414928D01*
X0280795Y0415327D01*
X0280999Y0415693D01*
X0280184Y0416244D01*
X0279885Y0415708D01*
X0279700Y0415123D01*
X0279638Y0414512D01*
X0279700Y0413901D01*
X0279885Y0413316D01*
X0280184Y0412780D01*
X0280999Y0413331D01*
X0280795Y0413696D01*
X0280669Y0414095D01*
X0280626Y0414512D01*
X0280669Y0414928D01*
X0280795Y0415327D01*
X0280999Y0415693D01*
X0280184Y0416244D01*
X0279885Y0415708D01*
X0279700Y0415123D01*
X0279638Y0414512D01*
X0279700Y0413901D01*
X0279885Y0413316D01*
X0280184Y0412780D01*
X0280999Y0413331D01*
X0280795Y0413696D01*
X0280669Y0414095D01*
X0280626Y0414512D01*
X0280669Y0414928D01*
X0280795Y0415327D01*
X0280999Y0415693D01*
X0280184Y0416244D01*
X0279885Y0415708D01*
X0279700Y0415123D01*
X0279638Y0414512D01*
X0279700Y0413901D01*
X0279885Y0413316D01*
X0280184Y0412780D01*
X0280999Y0413331D01*
X0280795Y0413696D01*
X0280669Y0414095D01*
X0280626Y0414512D01*
X0280669Y0414928D01*
X0280795Y0415327D01*
X0280999Y0415693D01*
X0280184Y0416244D01*
X0279885Y0415708D01*
X0279700Y0415123D01*
X0279638Y0414512D01*
X0279700Y0413901D01*
X0279885Y0413316D01*
X0280184Y0412780D01*
X0280999Y0413331D01*
X0280795Y0413696D01*
X0280669Y0414095D01*
X0280626Y0414512D01*
X0280669Y0414928D01*
X0280795Y0415327D01*
X0280999Y0415693D01*
X0280184Y0416244D01*
X0279885Y0415708D01*
X0279700Y0415123D01*
X0279638Y0414512D01*
X0279700Y0413901D01*
X0279885Y0413316D01*
X0280184Y0412780D01*
X0280999Y0413331D01*
X0280795Y0413696D01*
X0280669Y0414095D01*
X0280626Y0414512D01*
X0280669Y0414928D01*
X0280795Y0415327D01*
X0280999Y0415693D01*
X0280184Y0416244D01*
X0279885Y0415708D01*
X0279700Y0415123D01*
X0279638Y0414512D01*
X0279700Y0413901D01*
X0279885Y0413316D01*
X0280184Y0412780D01*
X0280999Y0413331D01*
X0280795Y0413696D01*
X0280669Y0414095D01*
X0280626Y0414512D01*
X0280669Y0414928D01*
X0280795Y0415327D01*
X0280999Y0415693D01*
X0280973Y0415647D02*
X0279865Y0415647D01*
X0280973Y0415647D01*
X0279865Y0415647D01*
X0280973Y0415647D01*
X0279865Y0415647D01*
X0280973Y0415647D01*
X0279865Y0415647D01*
X0279804Y0415451D02*
X0280864Y0415451D01*
X0279804Y0415451D01*
X0280864Y0415451D01*
X0279804Y0415451D01*
X0280864Y0415451D01*
X0279804Y0415451D01*
X0280864Y0415451D01*
X0280772Y0415256D02*
X0279742Y0415256D01*
X0280772Y0415256D01*
X0279742Y0415256D01*
X0280772Y0415256D01*
X0279742Y0415256D01*
X0280772Y0415256D01*
X0279742Y0415256D01*
X0279694Y0415061D02*
X0280711Y0415061D01*
X0279694Y0415061D01*
X0280711Y0415061D01*
X0279694Y0415061D01*
X0280711Y0415061D01*
X0279694Y0415061D01*
X0280711Y0415061D01*
X0280662Y0414865D02*
X0279674Y0414865D01*
X0280662Y0414865D01*
X0279674Y0414865D01*
X0280662Y0414865D01*
X0279674Y0414865D01*
X0280662Y0414865D01*
X0279674Y0414865D01*
X0279654Y0414670D02*
X0280642Y0414670D01*
X0279654Y0414670D01*
X0280642Y0414670D01*
X0279654Y0414670D01*
X0280642Y0414670D01*
X0279654Y0414670D01*
X0280642Y0414670D01*
X0280630Y0414474D02*
X0279641Y0414474D01*
X0280630Y0414474D01*
X0279641Y0414474D01*
X0280630Y0414474D01*
X0279641Y0414474D01*
X0280630Y0414474D01*
X0279641Y0414474D01*
X0279661Y0414279D02*
X0280650Y0414279D01*
X0279661Y0414279D01*
X0280650Y0414279D01*
X0279661Y0414279D01*
X0280650Y0414279D01*
X0279661Y0414279D01*
X0280650Y0414279D01*
X0280672Y0414084D02*
X0279681Y0414084D01*
X0280672Y0414084D01*
X0279681Y0414084D01*
X0280672Y0414084D01*
X0279681Y0414084D01*
X0280672Y0414084D01*
X0279681Y0414084D01*
X0279704Y0413888D02*
X0280734Y0413888D01*
X0279704Y0413888D01*
X0280734Y0413888D01*
X0279704Y0413888D01*
X0280734Y0413888D01*
X0279704Y0413888D01*
X0280734Y0413888D01*
X0280796Y0413693D02*
X0279766Y0413693D01*
X0280796Y0413693D01*
X0279766Y0413693D01*
X0280796Y0413693D01*
X0279766Y0413693D01*
X0280796Y0413693D01*
X0279766Y0413693D01*
X0279827Y0413498D02*
X0280905Y0413498D01*
X0279827Y0413498D01*
X0280905Y0413498D01*
X0279827Y0413498D01*
X0280905Y0413498D01*
X0279827Y0413498D01*
X0280905Y0413498D01*
X0280957Y0413302D02*
X0279892Y0413302D01*
X0280957Y0413302D01*
X0279892Y0413302D01*
X0280957Y0413302D01*
X0279892Y0413302D01*
X0280957Y0413302D01*
X0279892Y0413302D01*
X0280001Y0413107D02*
X0280668Y0413107D01*
X0280001Y0413107D01*
X0280668Y0413107D01*
X0280001Y0413107D01*
X0280668Y0413107D01*
X0280001Y0413107D01*
X0280668Y0413107D01*
X0280379Y0412912D02*
X0280110Y0412912D01*
X0280379Y0412912D01*
X0280110Y0412912D01*
X0280379Y0412912D01*
X0280110Y0412912D01*
X0280379Y0412912D01*
X0280110Y0412912D01*
X0281144Y0412130D02*
X0284358Y0412130D01*
X0284465Y0411935D02*
X0281036Y0411935D01*
X0281018Y0411945D02*
X0281570Y0412760D01*
X0281935Y0412556D01*
X0282334Y0412430D01*
X0282751Y0412387D01*
X0283167Y0412430D01*
X0283566Y0412556D01*
X0283932Y0412760D01*
X0284483Y0411945D01*
X0283947Y0411646D01*
X0283361Y0411461D01*
X0282751Y0411399D01*
X0282140Y0411461D01*
X0281554Y0411646D01*
X0281018Y0411945D01*
X0281386Y0411739D02*
X0284115Y0411739D01*
X0283625Y0411544D02*
X0281877Y0411544D01*
X0281276Y0412326D02*
X0284225Y0412326D01*
X0284093Y0412521D02*
X0283455Y0412521D01*
X0283854Y0412716D02*
X0283961Y0412716D01*
X0284503Y0413331D02*
X0285318Y0412780D01*
X0285617Y0413316D01*
X0285801Y0413901D01*
X0285864Y0414512D01*
X0285801Y0415123D01*
X0285617Y0415708D01*
X0285318Y0416244D01*
X0284503Y0415693D01*
X0284707Y0415327D01*
X0284832Y0414928D01*
X0284875Y0414512D01*
X0284832Y0414095D01*
X0284707Y0413696D01*
X0284503Y0413331D01*
X0284545Y0413302D02*
X0285609Y0413302D01*
X0285674Y0413498D02*
X0284596Y0413498D01*
X0284705Y0413693D02*
X0285736Y0413693D01*
X0285797Y0413888D02*
X0284767Y0413888D01*
X0284829Y0414084D02*
X0285820Y0414084D01*
X0285840Y0414279D02*
X0284851Y0414279D01*
X0284871Y0414474D02*
X0285860Y0414474D01*
X0285848Y0414670D02*
X0284859Y0414670D01*
X0284839Y0414865D02*
X0285828Y0414865D01*
X0285808Y0415061D02*
X0284791Y0415061D01*
X0284729Y0415256D02*
X0285759Y0415256D01*
X0285698Y0415451D02*
X0284637Y0415451D01*
X0284528Y0415647D02*
X0285636Y0415647D01*
X0285542Y0415842D02*
X0284723Y0415842D01*
X0285012Y0416037D02*
X0285433Y0416037D01*
X0285324Y0416233D02*
X0285301Y0416233D01*
X0284043Y0416428D02*
X0283637Y0416428D01*
X0280778Y0415842D02*
X0279959Y0415842D01*
X0280778Y0415842D01*
X0279959Y0415842D01*
X0280778Y0415842D01*
X0279959Y0415842D01*
X0280778Y0415842D01*
X0279959Y0415842D01*
X0280068Y0416037D02*
X0280489Y0416037D01*
X0280068Y0416037D01*
X0280489Y0416037D01*
X0280068Y0416037D01*
X0280489Y0416037D01*
X0280068Y0416037D01*
X0280489Y0416037D01*
X0280200Y0416233D02*
X0280177Y0416233D01*
X0280200Y0416233D01*
X0280177Y0416233D01*
X0280200Y0416233D01*
X0280177Y0416233D01*
X0280200Y0416233D01*
X0280177Y0416233D01*
X0281540Y0412716D02*
X0281648Y0412716D01*
X0281408Y0412521D02*
X0282046Y0412521D01*
X0284833Y0413107D02*
X0285500Y0413107D01*
X0285391Y0412912D02*
X0285122Y0412912D01*
X0282751Y0336885D02*
X0282140Y0336822D01*
X0281554Y0336638D01*
X0281018Y0336339D01*
X0281570Y0335524D01*
X0281935Y0335728D01*
X0282334Y0335853D01*
X0282751Y0335896D01*
X0283167Y0335853D01*
X0283566Y0335728D01*
X0283932Y0335524D01*
X0284483Y0336339D01*
X0283947Y0336638D01*
X0283361Y0336822D01*
X0282751Y0336885D01*
X0283684Y0336721D02*
X0281817Y0336721D01*
X0281353Y0336525D02*
X0284149Y0336525D01*
X0284477Y0336330D02*
X0281024Y0336330D01*
X0281156Y0336134D02*
X0284345Y0336134D01*
X0284213Y0335939D02*
X0281289Y0335939D01*
X0281421Y0335744D02*
X0281986Y0335744D01*
X0281614Y0335548D02*
X0281553Y0335548D01*
X0280999Y0334953D02*
X0280184Y0335504D01*
X0279885Y0334968D01*
X0279700Y0334382D01*
X0279638Y0333772D01*
X0279700Y0333161D01*
X0279885Y0332575D01*
X0280184Y0332039D01*
X0280999Y0332591D01*
X0280795Y0332956D01*
X0280669Y0333355D01*
X0280626Y0333772D01*
X0280669Y0334188D01*
X0280795Y0334587D01*
X0280999Y0334953D01*
X0280184Y0335504D01*
X0279885Y0334968D01*
X0279700Y0334382D01*
X0279638Y0333772D01*
X0279700Y0333161D01*
X0279885Y0332575D01*
X0280184Y0332039D01*
X0280999Y0332591D01*
X0280795Y0332956D01*
X0280669Y0333355D01*
X0280626Y0333772D01*
X0280669Y0334188D01*
X0280795Y0334587D01*
X0280999Y0334953D01*
X0280184Y0335504D01*
X0279885Y0334968D01*
X0279700Y0334382D01*
X0279638Y0333772D01*
X0279700Y0333161D01*
X0279885Y0332575D01*
X0280184Y0332039D01*
X0280999Y0332591D01*
X0280795Y0332956D01*
X0280669Y0333355D01*
X0280626Y0333772D01*
X0280669Y0334188D01*
X0280795Y0334587D01*
X0280999Y0334953D01*
X0280184Y0335504D01*
X0279885Y0334968D01*
X0279700Y0334382D01*
X0279638Y0333772D01*
X0279700Y0333161D01*
X0279885Y0332575D01*
X0280184Y0332039D01*
X0280999Y0332591D01*
X0280795Y0332956D01*
X0280669Y0333355D01*
X0280626Y0333772D01*
X0280669Y0334188D01*
X0280795Y0334587D01*
X0280999Y0334953D01*
X0280184Y0335504D01*
X0279885Y0334968D01*
X0279700Y0334382D01*
X0279638Y0333772D01*
X0279700Y0333161D01*
X0279885Y0332575D01*
X0280184Y0332039D01*
X0280999Y0332591D01*
X0280795Y0332956D01*
X0280669Y0333355D01*
X0280626Y0333772D01*
X0280669Y0334188D01*
X0280795Y0334587D01*
X0280999Y0334953D01*
X0280184Y0335504D01*
X0279885Y0334968D01*
X0279700Y0334382D01*
X0279638Y0333772D01*
X0279700Y0333161D01*
X0279885Y0332575D01*
X0280184Y0332039D01*
X0280999Y0332591D01*
X0280795Y0332956D01*
X0280669Y0333355D01*
X0280626Y0333772D01*
X0280669Y0334188D01*
X0280795Y0334587D01*
X0280999Y0334953D01*
X0280184Y0335504D01*
X0279885Y0334968D01*
X0279700Y0334382D01*
X0279638Y0333772D01*
X0279700Y0333161D01*
X0279885Y0332575D01*
X0280184Y0332039D01*
X0280999Y0332591D01*
X0280795Y0332956D01*
X0280669Y0333355D01*
X0280626Y0333772D01*
X0280669Y0334188D01*
X0280795Y0334587D01*
X0280999Y0334953D01*
X0280985Y0334962D02*
X0279883Y0334962D01*
X0280985Y0334962D01*
X0279883Y0334962D01*
X0280985Y0334962D01*
X0279883Y0334962D01*
X0280985Y0334962D01*
X0279883Y0334962D01*
X0279821Y0334767D02*
X0280895Y0334767D01*
X0279821Y0334767D01*
X0280895Y0334767D01*
X0279821Y0334767D01*
X0280895Y0334767D01*
X0279821Y0334767D01*
X0280895Y0334767D01*
X0280790Y0334572D02*
X0279760Y0334572D01*
X0280790Y0334572D01*
X0279760Y0334572D01*
X0280790Y0334572D01*
X0279760Y0334572D01*
X0280790Y0334572D01*
X0279760Y0334572D01*
X0279699Y0334376D02*
X0280728Y0334376D01*
X0279699Y0334376D01*
X0280728Y0334376D01*
X0279699Y0334376D01*
X0280728Y0334376D01*
X0279699Y0334376D01*
X0280728Y0334376D01*
X0280668Y0334181D02*
X0279679Y0334181D01*
X0280668Y0334181D01*
X0279679Y0334181D01*
X0280668Y0334181D01*
X0279679Y0334181D01*
X0280668Y0334181D01*
X0279679Y0334181D01*
X0279659Y0333985D02*
X0280648Y0333985D01*
X0279659Y0333985D01*
X0280648Y0333985D01*
X0279659Y0333985D01*
X0280648Y0333985D01*
X0279659Y0333985D01*
X0280648Y0333985D01*
X0280628Y0333790D02*
X0279639Y0333790D01*
X0280628Y0333790D01*
X0279639Y0333790D01*
X0280628Y0333790D01*
X0279639Y0333790D01*
X0280628Y0333790D01*
X0279639Y0333790D01*
X0279656Y0333595D02*
X0280644Y0333595D01*
X0279656Y0333595D01*
X0280644Y0333595D01*
X0279656Y0333595D01*
X0280644Y0333595D01*
X0279656Y0333595D01*
X0280644Y0333595D01*
X0280664Y0333399D02*
X0279676Y0333399D01*
X0280664Y0333399D01*
X0279676Y0333399D01*
X0280664Y0333399D01*
X0279676Y0333399D01*
X0280664Y0333399D01*
X0279676Y0333399D01*
X0279696Y0333204D02*
X0280716Y0333204D01*
X0279696Y0333204D01*
X0280716Y0333204D01*
X0279696Y0333204D01*
X0280716Y0333204D01*
X0279696Y0333204D01*
X0280716Y0333204D01*
X0280778Y0333009D02*
X0279748Y0333009D01*
X0280778Y0333009D01*
X0279748Y0333009D01*
X0280778Y0333009D01*
X0279748Y0333009D01*
X0280778Y0333009D01*
X0279748Y0333009D01*
X0279810Y0332813D02*
X0280874Y0332813D01*
X0279810Y0332813D01*
X0280874Y0332813D01*
X0279810Y0332813D01*
X0280874Y0332813D01*
X0279810Y0332813D01*
X0280874Y0332813D01*
X0280983Y0332618D02*
X0279871Y0332618D01*
X0280983Y0332618D01*
X0279871Y0332618D01*
X0280983Y0332618D01*
X0279871Y0332618D01*
X0280983Y0332618D01*
X0279871Y0332618D01*
X0279970Y0332423D02*
X0280750Y0332423D01*
X0279970Y0332423D01*
X0280750Y0332423D01*
X0279970Y0332423D01*
X0280750Y0332423D01*
X0279970Y0332423D01*
X0280750Y0332423D01*
X0280461Y0332227D02*
X0280079Y0332227D01*
X0280461Y0332227D01*
X0280079Y0332227D01*
X0280461Y0332227D01*
X0280079Y0332227D01*
X0280461Y0332227D01*
X0280079Y0332227D01*
X0281181Y0331446D02*
X0284320Y0331446D01*
X0284188Y0331641D02*
X0281314Y0331641D01*
X0281446Y0331836D02*
X0281898Y0331836D01*
X0281935Y0331816D02*
X0281570Y0332020D01*
X0281018Y0331205D01*
X0281554Y0330906D01*
X0282140Y0330721D01*
X0282751Y0330659D01*
X0283361Y0330721D01*
X0283947Y0330906D01*
X0284483Y0331205D01*
X0283932Y0332020D01*
X0283566Y0331816D01*
X0283167Y0331690D01*
X0282751Y0331647D01*
X0282334Y0331690D01*
X0281935Y0331816D01*
X0281700Y0330860D02*
X0283801Y0330860D01*
X0284215Y0331055D02*
X0281287Y0331055D01*
X0281049Y0331250D02*
X0284452Y0331250D01*
X0284056Y0331836D02*
X0283604Y0331836D01*
X0284503Y0332591D02*
X0285318Y0332039D01*
X0285617Y0332575D01*
X0285801Y0333161D01*
X0285864Y0333772D01*
X0285801Y0334382D01*
X0285617Y0334968D01*
X0285318Y0335504D01*
X0284503Y0334953D01*
X0284707Y0334587D01*
X0284832Y0334188D01*
X0284875Y0333772D01*
X0284832Y0333355D01*
X0284707Y0332956D01*
X0284503Y0332591D01*
X0284518Y0332618D02*
X0285630Y0332618D01*
X0285692Y0332813D02*
X0284627Y0332813D01*
X0284723Y0333009D02*
X0285753Y0333009D01*
X0285806Y0333204D02*
X0284785Y0333204D01*
X0284837Y0333399D02*
X0285826Y0333399D01*
X0285846Y0333595D02*
X0284857Y0333595D01*
X0284873Y0333790D02*
X0285862Y0333790D01*
X0285842Y0333985D02*
X0284853Y0333985D01*
X0284833Y0334181D02*
X0285822Y0334181D01*
X0285802Y0334376D02*
X0284773Y0334376D01*
X0284712Y0334572D02*
X0285742Y0334572D01*
X0285680Y0334767D02*
X0284606Y0334767D01*
X0284517Y0334962D02*
X0285619Y0334962D01*
X0285511Y0335158D02*
X0284806Y0335158D01*
X0285094Y0335353D02*
X0285402Y0335353D01*
X0284081Y0335744D02*
X0283515Y0335744D01*
X0283887Y0335548D02*
X0283948Y0335548D01*
X0284751Y0332423D02*
X0285531Y0332423D01*
X0285422Y0332227D02*
X0285040Y0332227D01*
X0282807Y0330664D02*
X0282694Y0330664D01*
X0280696Y0335158D02*
X0279990Y0335158D01*
X0280696Y0335158D01*
X0279990Y0335158D01*
X0280696Y0335158D01*
X0279990Y0335158D01*
X0280696Y0335158D01*
X0279990Y0335158D01*
X0280099Y0335353D02*
X0280407Y0335353D01*
X0280099Y0335353D01*
X0280407Y0335353D01*
X0280099Y0335353D01*
X0280407Y0335353D01*
X0280099Y0335353D01*
X0280407Y0335353D01*
X0282751Y0258145D02*
X0282140Y0258082D01*
X0281554Y0257898D01*
X0281018Y0257598D01*
X0281570Y0256783D01*
X0281935Y0256987D01*
X0282334Y0257113D01*
X0282751Y0257156D01*
X0283167Y0257113D01*
X0283566Y0256987D01*
X0283932Y0256783D01*
X0284483Y0257598D01*
X0283947Y0257898D01*
X0283361Y0258082D01*
X0282751Y0258145D01*
X0281847Y0257990D02*
X0283655Y0257990D01*
X0284132Y0257794D02*
X0281370Y0257794D01*
X0281019Y0257599D02*
X0284482Y0257599D01*
X0284351Y0257404D02*
X0281150Y0257404D01*
X0281282Y0257208D02*
X0284219Y0257208D01*
X0284087Y0257013D02*
X0283485Y0257013D01*
X0283871Y0256818D02*
X0283955Y0256818D01*
X0284503Y0256213D02*
X0284707Y0255847D01*
X0284832Y0255448D01*
X0284875Y0255031D01*
X0284832Y0254615D01*
X0284707Y0254216D01*
X0284503Y0253850D01*
X0285318Y0253299D01*
X0285617Y0253835D01*
X0285801Y0254421D01*
X0285864Y0255031D01*
X0285801Y0255642D01*
X0285617Y0256228D01*
X0285318Y0256764D01*
X0284503Y0256213D01*
X0284531Y0256231D02*
X0285615Y0256231D01*
X0285677Y0256036D02*
X0284601Y0256036D01*
X0284709Y0255841D02*
X0285739Y0255841D01*
X0285800Y0255645D02*
X0284770Y0255645D01*
X0284832Y0255450D02*
X0285821Y0255450D01*
X0285841Y0255255D02*
X0284852Y0255255D01*
X0284872Y0255059D02*
X0285861Y0255059D01*
X0285847Y0254864D02*
X0284858Y0254864D01*
X0284838Y0254669D02*
X0285827Y0254669D01*
X0285807Y0254473D02*
X0284788Y0254473D01*
X0284726Y0254278D02*
X0285756Y0254278D01*
X0285695Y0254083D02*
X0284632Y0254083D01*
X0284523Y0253887D02*
X0285633Y0253887D01*
X0285537Y0253692D02*
X0284737Y0253692D01*
X0285026Y0253496D02*
X0285428Y0253496D01*
X0285319Y0253301D02*
X0285315Y0253301D01*
X0284314Y0252715D02*
X0281188Y0252715D01*
X0281320Y0252910D02*
X0282719Y0252910D01*
X0282751Y0252907D02*
X0282334Y0252950D01*
X0281935Y0253076D01*
X0281570Y0253280D01*
X0281018Y0252465D01*
X0281554Y0252165D01*
X0282140Y0251981D01*
X0282751Y0251918D01*
X0283361Y0251981D01*
X0283947Y0252165D01*
X0284483Y0252465D01*
X0283932Y0253280D01*
X0283566Y0253076D01*
X0283167Y0252950D01*
X0282751Y0252907D01*
X0282782Y0252910D02*
X0284181Y0252910D01*
X0284049Y0253106D02*
X0283620Y0253106D01*
X0284232Y0252324D02*
X0281270Y0252324D01*
X0281056Y0252520D02*
X0284446Y0252520D01*
X0283831Y0252129D02*
X0281670Y0252129D01*
X0282602Y0251934D02*
X0282899Y0251934D01*
X0281881Y0253106D02*
X0281452Y0253106D01*
X0280999Y0253850D02*
X0280795Y0254216D01*
X0280669Y0254615D01*
X0280626Y0255031D01*
X0280669Y0255448D01*
X0280795Y0255847D01*
X0280999Y0256213D01*
X0280184Y0256764D01*
X0279885Y0256228D01*
X0279700Y0255642D01*
X0279638Y0255031D01*
X0279700Y0254421D01*
X0279885Y0253835D01*
X0280184Y0253299D01*
X0280999Y0253850D01*
X0280795Y0254216D01*
X0280669Y0254615D01*
X0280626Y0255031D01*
X0280669Y0255448D01*
X0280795Y0255847D01*
X0280999Y0256213D01*
X0280184Y0256764D01*
X0279885Y0256228D01*
X0279700Y0255642D01*
X0279638Y0255031D01*
X0279700Y0254421D01*
X0279885Y0253835D01*
X0280184Y0253299D01*
X0280999Y0253850D01*
X0280795Y0254216D01*
X0280669Y0254615D01*
X0280626Y0255031D01*
X0280669Y0255448D01*
X0280795Y0255847D01*
X0280999Y0256213D01*
X0280184Y0256764D01*
X0279885Y0256228D01*
X0279700Y0255642D01*
X0279638Y0255031D01*
X0279700Y0254421D01*
X0279885Y0253835D01*
X0280184Y0253299D01*
X0280999Y0253850D01*
X0280795Y0254216D01*
X0280669Y0254615D01*
X0280626Y0255031D01*
X0280669Y0255448D01*
X0280795Y0255847D01*
X0280999Y0256213D01*
X0280184Y0256764D01*
X0279885Y0256228D01*
X0279700Y0255642D01*
X0279638Y0255031D01*
X0279700Y0254421D01*
X0279885Y0253835D01*
X0280184Y0253299D01*
X0280999Y0253850D01*
X0280795Y0254216D01*
X0280669Y0254615D01*
X0280626Y0255031D01*
X0280669Y0255448D01*
X0280795Y0255847D01*
X0280999Y0256213D01*
X0280184Y0256764D01*
X0279885Y0256228D01*
X0279700Y0255642D01*
X0279638Y0255031D01*
X0279700Y0254421D01*
X0279885Y0253835D01*
X0280184Y0253299D01*
X0280999Y0253850D01*
X0280795Y0254216D01*
X0280669Y0254615D01*
X0280626Y0255031D01*
X0280669Y0255448D01*
X0280795Y0255847D01*
X0280999Y0256213D01*
X0280184Y0256764D01*
X0279885Y0256228D01*
X0279700Y0255642D01*
X0279638Y0255031D01*
X0279700Y0254421D01*
X0279885Y0253835D01*
X0280184Y0253299D01*
X0280999Y0253850D01*
X0280795Y0254216D01*
X0280669Y0254615D01*
X0280626Y0255031D01*
X0280669Y0255448D01*
X0280795Y0255847D01*
X0280999Y0256213D01*
X0280184Y0256764D01*
X0279885Y0256228D01*
X0279700Y0255642D01*
X0279638Y0255031D01*
X0279700Y0254421D01*
X0279885Y0253835D01*
X0280184Y0253299D01*
X0280999Y0253850D01*
X0280978Y0253887D02*
X0279868Y0253887D01*
X0280978Y0253887D01*
X0279868Y0253887D01*
X0280978Y0253887D01*
X0279868Y0253887D01*
X0280978Y0253887D01*
X0279868Y0253887D01*
X0279807Y0254083D02*
X0280869Y0254083D01*
X0279807Y0254083D01*
X0280869Y0254083D01*
X0279807Y0254083D01*
X0280869Y0254083D01*
X0279807Y0254083D01*
X0280869Y0254083D01*
X0280775Y0254278D02*
X0279745Y0254278D01*
X0280775Y0254278D01*
X0279745Y0254278D01*
X0280775Y0254278D01*
X0279745Y0254278D01*
X0280775Y0254278D01*
X0279745Y0254278D01*
X0279695Y0254473D02*
X0280714Y0254473D01*
X0279695Y0254473D01*
X0280714Y0254473D01*
X0279695Y0254473D01*
X0280714Y0254473D01*
X0279695Y0254473D01*
X0280714Y0254473D01*
X0280663Y0254669D02*
X0279675Y0254669D01*
X0280663Y0254669D01*
X0279675Y0254669D01*
X0280663Y0254669D01*
X0279675Y0254669D01*
X0280663Y0254669D01*
X0279675Y0254669D01*
X0279655Y0254864D02*
X0280643Y0254864D01*
X0279655Y0254864D01*
X0280643Y0254864D01*
X0279655Y0254864D01*
X0280643Y0254864D01*
X0279655Y0254864D01*
X0280643Y0254864D01*
X0280629Y0255059D02*
X0279640Y0255059D01*
X0280629Y0255059D01*
X0279640Y0255059D01*
X0280629Y0255059D01*
X0279640Y0255059D01*
X0280629Y0255059D01*
X0279640Y0255059D01*
X0279660Y0255255D02*
X0280649Y0255255D01*
X0279660Y0255255D01*
X0280649Y0255255D01*
X0279660Y0255255D01*
X0280649Y0255255D01*
X0279660Y0255255D01*
X0280649Y0255255D01*
X0280669Y0255450D02*
X0279680Y0255450D01*
X0280669Y0255450D01*
X0279680Y0255450D01*
X0280669Y0255450D01*
X0279680Y0255450D01*
X0280669Y0255450D01*
X0279680Y0255450D01*
X0279701Y0255645D02*
X0280731Y0255645D01*
X0279701Y0255645D01*
X0280731Y0255645D01*
X0279701Y0255645D01*
X0280731Y0255645D01*
X0279701Y0255645D01*
X0280731Y0255645D01*
X0280793Y0255841D02*
X0279763Y0255841D01*
X0280793Y0255841D01*
X0279763Y0255841D01*
X0280793Y0255841D01*
X0279763Y0255841D01*
X0280793Y0255841D01*
X0279763Y0255841D01*
X0279824Y0256036D02*
X0280900Y0256036D01*
X0279824Y0256036D01*
X0280900Y0256036D01*
X0279824Y0256036D01*
X0280900Y0256036D01*
X0279824Y0256036D01*
X0280900Y0256036D01*
X0280971Y0256231D02*
X0279887Y0256231D01*
X0280971Y0256231D01*
X0279887Y0256231D01*
X0280971Y0256231D01*
X0279887Y0256231D01*
X0280971Y0256231D01*
X0279887Y0256231D01*
X0279996Y0256427D02*
X0280682Y0256427D01*
X0279996Y0256427D01*
X0280682Y0256427D01*
X0279996Y0256427D01*
X0280682Y0256427D01*
X0279996Y0256427D01*
X0280682Y0256427D01*
X0280393Y0256622D02*
X0280105Y0256622D01*
X0280393Y0256622D01*
X0280105Y0256622D01*
X0280393Y0256622D01*
X0280105Y0256622D01*
X0280393Y0256622D01*
X0280105Y0256622D01*
X0281414Y0257013D02*
X0282016Y0257013D01*
X0281631Y0256818D02*
X0281546Y0256818D01*
X0280764Y0253692D02*
X0279965Y0253692D01*
X0280764Y0253692D01*
X0279965Y0253692D01*
X0280764Y0253692D01*
X0279965Y0253692D01*
X0280764Y0253692D01*
X0279965Y0253692D01*
X0280074Y0253496D02*
X0280475Y0253496D01*
X0280074Y0253496D01*
X0280475Y0253496D01*
X0280074Y0253496D01*
X0280475Y0253496D01*
X0280074Y0253496D01*
X0280475Y0253496D01*
X0280186Y0253301D02*
X0280183Y0253301D01*
X0280186Y0253301D01*
X0280183Y0253301D01*
X0280186Y0253301D01*
X0280183Y0253301D01*
X0280186Y0253301D01*
X0280183Y0253301D01*
X0284819Y0256427D02*
X0285506Y0256427D01*
X0285397Y0256622D02*
X0285108Y0256622D01*
X0282751Y0177404D02*
X0282140Y0177342D01*
X0281554Y0177157D01*
X0281018Y0176858D01*
X0281570Y0176043D01*
X0281935Y0176247D01*
X0282334Y0176373D01*
X0282751Y0176416D01*
X0283167Y0176373D01*
X0283566Y0176247D01*
X0283932Y0176043D01*
X0284483Y0176858D01*
X0283947Y0177157D01*
X0283361Y0177342D01*
X0282751Y0177404D01*
X0282024Y0177305D02*
X0283478Y0177305D01*
X0284032Y0177110D02*
X0281469Y0177110D01*
X0281119Y0176915D02*
X0284382Y0176915D01*
X0284389Y0176719D02*
X0281112Y0176719D01*
X0281244Y0176524D02*
X0284257Y0176524D01*
X0284125Y0176329D02*
X0283309Y0176329D01*
X0283771Y0176133D02*
X0283993Y0176133D01*
X0284503Y0175472D02*
X0284707Y0175107D01*
X0284832Y0174708D01*
X0284875Y0174291D01*
X0284832Y0173875D01*
X0284707Y0173476D01*
X0284503Y0173110D01*
X0285318Y0172559D01*
X0285617Y0173095D01*
X0285801Y0173681D01*
X0285864Y0174291D01*
X0285801Y0174902D01*
X0285617Y0175488D01*
X0285318Y0176024D01*
X0284503Y0175472D01*
X0284613Y0175547D02*
X0285584Y0175547D01*
X0285660Y0175352D02*
X0284570Y0175352D01*
X0284679Y0175156D02*
X0285721Y0175156D01*
X0285783Y0174961D02*
X0284753Y0174961D01*
X0284814Y0174766D02*
X0285815Y0174766D01*
X0285835Y0174570D02*
X0284847Y0174570D01*
X0284866Y0174375D02*
X0285855Y0174375D01*
X0285852Y0174180D02*
X0284864Y0174180D01*
X0284844Y0173984D02*
X0285832Y0173984D01*
X0285812Y0173789D02*
X0284805Y0173789D01*
X0284744Y0173593D02*
X0285774Y0173593D01*
X0285712Y0173398D02*
X0284663Y0173398D01*
X0284554Y0173203D02*
X0285651Y0173203D01*
X0285568Y0173007D02*
X0284655Y0173007D01*
X0284944Y0172812D02*
X0285459Y0172812D01*
X0285350Y0172617D02*
X0285232Y0172617D01*
X0284276Y0172031D02*
X0281225Y0172031D01*
X0281358Y0172226D02*
X0282282Y0172226D01*
X0282334Y0172210D02*
X0281935Y0172335D01*
X0281570Y0172539D01*
X0281018Y0171724D01*
X0281554Y0171425D01*
X0282140Y0171241D01*
X0282751Y0171178D01*
X0283361Y0171241D01*
X0283947Y0171425D01*
X0284483Y0171724D01*
X0283932Y0172539D01*
X0283566Y0172335D01*
X0283167Y0172210D01*
X0282751Y0172167D01*
X0282334Y0172210D01*
X0281781Y0172421D02*
X0281490Y0172421D01*
X0281093Y0171835D02*
X0284408Y0171835D01*
X0284331Y0171640D02*
X0281170Y0171640D01*
X0281520Y0171445D02*
X0283981Y0171445D01*
X0283388Y0171249D02*
X0282113Y0171249D01*
X0283219Y0172226D02*
X0284144Y0172226D01*
X0284012Y0172421D02*
X0283720Y0172421D01*
X0280999Y0173110D02*
X0280795Y0173476D01*
X0280669Y0173875D01*
X0280626Y0174291D01*
X0280669Y0174708D01*
X0280795Y0175107D01*
X0280999Y0175472D01*
X0280184Y0176024D01*
X0279885Y0175488D01*
X0279700Y0174902D01*
X0279638Y0174291D01*
X0279700Y0173681D01*
X0279885Y0173095D01*
X0280184Y0172559D01*
X0280999Y0173110D01*
X0280795Y0173476D01*
X0280669Y0173875D01*
X0280626Y0174291D01*
X0280669Y0174708D01*
X0280795Y0175107D01*
X0280999Y0175472D01*
X0280184Y0176024D01*
X0279885Y0175488D01*
X0279700Y0174902D01*
X0279638Y0174291D01*
X0279700Y0173681D01*
X0279885Y0173095D01*
X0280184Y0172559D01*
X0280999Y0173110D01*
X0280795Y0173476D01*
X0280669Y0173875D01*
X0280626Y0174291D01*
X0280669Y0174708D01*
X0280795Y0175107D01*
X0280999Y0175472D01*
X0280184Y0176024D01*
X0279885Y0175488D01*
X0279700Y0174902D01*
X0279638Y0174291D01*
X0279700Y0173681D01*
X0279885Y0173095D01*
X0280184Y0172559D01*
X0280999Y0173110D01*
X0280795Y0173476D01*
X0280669Y0173875D01*
X0280626Y0174291D01*
X0280669Y0174708D01*
X0280795Y0175107D01*
X0280999Y0175472D01*
X0280184Y0176024D01*
X0279885Y0175488D01*
X0279700Y0174902D01*
X0279638Y0174291D01*
X0279700Y0173681D01*
X0279885Y0173095D01*
X0280184Y0172559D01*
X0280999Y0173110D01*
X0280795Y0173476D01*
X0280669Y0173875D01*
X0280626Y0174291D01*
X0280669Y0174708D01*
X0280795Y0175107D01*
X0280999Y0175472D01*
X0280184Y0176024D01*
X0279885Y0175488D01*
X0279700Y0174902D01*
X0279638Y0174291D01*
X0279700Y0173681D01*
X0279885Y0173095D01*
X0280184Y0172559D01*
X0280999Y0173110D01*
X0280795Y0173476D01*
X0280669Y0173875D01*
X0280626Y0174291D01*
X0280669Y0174708D01*
X0280795Y0175107D01*
X0280999Y0175472D01*
X0280184Y0176024D01*
X0279885Y0175488D01*
X0279700Y0174902D01*
X0279638Y0174291D01*
X0279700Y0173681D01*
X0279885Y0173095D01*
X0280184Y0172559D01*
X0280999Y0173110D01*
X0280795Y0173476D01*
X0280669Y0173875D01*
X0280626Y0174291D01*
X0280669Y0174708D01*
X0280795Y0175107D01*
X0280999Y0175472D01*
X0280184Y0176024D01*
X0279885Y0175488D01*
X0279700Y0174902D01*
X0279638Y0174291D01*
X0279700Y0173681D01*
X0279885Y0173095D01*
X0280184Y0172559D01*
X0280999Y0173110D01*
X0280947Y0173203D02*
X0279851Y0173203D01*
X0280947Y0173203D01*
X0279851Y0173203D01*
X0280947Y0173203D01*
X0279851Y0173203D01*
X0280947Y0173203D01*
X0279851Y0173203D01*
X0279789Y0173398D02*
X0280838Y0173398D01*
X0279789Y0173398D01*
X0280838Y0173398D01*
X0279789Y0173398D01*
X0280838Y0173398D01*
X0279789Y0173398D01*
X0280838Y0173398D01*
X0280758Y0173593D02*
X0279727Y0173593D01*
X0280758Y0173593D01*
X0279727Y0173593D01*
X0280758Y0173593D01*
X0279727Y0173593D01*
X0280758Y0173593D01*
X0279727Y0173593D01*
X0279689Y0173789D02*
X0280696Y0173789D01*
X0279689Y0173789D01*
X0280696Y0173789D01*
X0279689Y0173789D01*
X0280696Y0173789D01*
X0279689Y0173789D01*
X0280696Y0173789D01*
X0280658Y0173984D02*
X0279669Y0173984D01*
X0280658Y0173984D01*
X0279669Y0173984D01*
X0280658Y0173984D01*
X0279669Y0173984D01*
X0280658Y0173984D01*
X0279669Y0173984D01*
X0279649Y0174180D02*
X0280638Y0174180D01*
X0279649Y0174180D01*
X0280638Y0174180D01*
X0279649Y0174180D01*
X0280638Y0174180D01*
X0279649Y0174180D01*
X0280638Y0174180D01*
X0280635Y0174375D02*
X0279646Y0174375D01*
X0280635Y0174375D01*
X0279646Y0174375D01*
X0280635Y0174375D01*
X0279646Y0174375D01*
X0280635Y0174375D01*
X0279646Y0174375D01*
X0279666Y0174570D02*
X0280655Y0174570D01*
X0279666Y0174570D01*
X0280655Y0174570D01*
X0279666Y0174570D01*
X0280655Y0174570D01*
X0279666Y0174570D01*
X0280655Y0174570D01*
X0280687Y0174766D02*
X0279686Y0174766D01*
X0280687Y0174766D01*
X0279686Y0174766D01*
X0280687Y0174766D01*
X0279686Y0174766D01*
X0280687Y0174766D01*
X0279686Y0174766D01*
X0279719Y0174961D02*
X0280749Y0174961D01*
X0279719Y0174961D01*
X0280749Y0174961D01*
X0279719Y0174961D01*
X0280749Y0174961D01*
X0279719Y0174961D01*
X0280749Y0174961D01*
X0280822Y0175156D02*
X0279780Y0175156D01*
X0280822Y0175156D01*
X0279780Y0175156D01*
X0280822Y0175156D01*
X0279780Y0175156D01*
X0280822Y0175156D01*
X0279780Y0175156D01*
X0279842Y0175352D02*
X0280931Y0175352D01*
X0279842Y0175352D01*
X0280931Y0175352D01*
X0279842Y0175352D01*
X0280931Y0175352D01*
X0279842Y0175352D01*
X0280931Y0175352D01*
X0280888Y0175547D02*
X0279918Y0175547D01*
X0280888Y0175547D01*
X0279918Y0175547D01*
X0280888Y0175547D01*
X0279918Y0175547D01*
X0280888Y0175547D01*
X0279918Y0175547D01*
X0280027Y0175742D02*
X0280599Y0175742D01*
X0280027Y0175742D01*
X0280599Y0175742D01*
X0280027Y0175742D01*
X0280599Y0175742D01*
X0280027Y0175742D01*
X0280599Y0175742D01*
X0280311Y0175938D02*
X0280136Y0175938D01*
X0280311Y0175938D01*
X0280136Y0175938D01*
X0280311Y0175938D01*
X0280136Y0175938D01*
X0280311Y0175938D01*
X0280136Y0175938D01*
X0281377Y0176329D02*
X0282193Y0176329D01*
X0281731Y0176133D02*
X0281509Y0176133D01*
X0280847Y0173007D02*
X0279933Y0173007D01*
X0280847Y0173007D01*
X0279933Y0173007D01*
X0280847Y0173007D01*
X0279933Y0173007D01*
X0280847Y0173007D01*
X0279933Y0173007D01*
X0280043Y0172812D02*
X0280558Y0172812D01*
X0280043Y0172812D01*
X0280558Y0172812D01*
X0280043Y0172812D01*
X0280558Y0172812D01*
X0280043Y0172812D01*
X0280558Y0172812D01*
X0280269Y0172617D02*
X0280152Y0172617D01*
X0280269Y0172617D01*
X0280152Y0172617D01*
X0280269Y0172617D01*
X0280152Y0172617D01*
X0280269Y0172617D01*
X0280152Y0172617D01*
X0284902Y0175742D02*
X0285474Y0175742D01*
X0285365Y0175938D02*
X0285191Y0175938D01*
X0282751Y0098664D02*
X0282140Y0098602D01*
X0281554Y0098417D01*
X0281018Y0098118D01*
X0281570Y0097303D01*
X0281935Y0097507D01*
X0282334Y0097633D01*
X0282751Y0097676D01*
X0283167Y0097633D01*
X0283566Y0097507D01*
X0283932Y0097303D01*
X0284483Y0098118D01*
X0283947Y0098417D01*
X0283361Y0098602D01*
X0282751Y0098664D01*
X0283448Y0098575D02*
X0282053Y0098575D01*
X0281486Y0098379D02*
X0284015Y0098379D01*
X0284365Y0098184D02*
X0281136Y0098184D01*
X0281106Y0097989D02*
X0284395Y0097989D01*
X0284263Y0097793D02*
X0281238Y0097793D01*
X0281370Y0097598D02*
X0282223Y0097598D01*
X0281747Y0097402D02*
X0281502Y0097402D01*
X0280999Y0096732D02*
X0280184Y0097283D01*
X0279885Y0096747D01*
X0279700Y0096162D01*
X0279638Y0095551D01*
X0279700Y0094940D01*
X0279885Y0094355D01*
X0280184Y0093819D01*
X0280999Y0094370D01*
X0280795Y0094736D01*
X0280669Y0095135D01*
X0280626Y0095551D01*
X0280669Y0095968D01*
X0280795Y0096367D01*
X0280999Y0096732D01*
X0280184Y0097283D01*
X0279885Y0096747D01*
X0279700Y0096162D01*
X0279638Y0095551D01*
X0279700Y0094940D01*
X0279885Y0094355D01*
X0280184Y0093819D01*
X0280999Y0094370D01*
X0280795Y0094736D01*
X0280669Y0095135D01*
X0280626Y0095551D01*
X0280669Y0095968D01*
X0280795Y0096367D01*
X0280999Y0096732D01*
X0280184Y0097283D01*
X0279885Y0096747D01*
X0279700Y0096162D01*
X0279638Y0095551D01*
X0279700Y0094940D01*
X0279885Y0094355D01*
X0280184Y0093819D01*
X0280999Y0094370D01*
X0280795Y0094736D01*
X0280669Y0095135D01*
X0280626Y0095551D01*
X0280669Y0095968D01*
X0280795Y0096367D01*
X0280999Y0096732D01*
X0280184Y0097283D01*
X0279885Y0096747D01*
X0279700Y0096162D01*
X0279638Y0095551D01*
X0279700Y0094940D01*
X0279885Y0094355D01*
X0280184Y0093819D01*
X0280999Y0094370D01*
X0280795Y0094736D01*
X0280669Y0095135D01*
X0280626Y0095551D01*
X0280669Y0095968D01*
X0280795Y0096367D01*
X0280999Y0096732D01*
X0280184Y0097283D01*
X0279885Y0096747D01*
X0279700Y0096162D01*
X0279638Y0095551D01*
X0279700Y0094940D01*
X0279885Y0094355D01*
X0280184Y0093819D01*
X0280999Y0094370D01*
X0280795Y0094736D01*
X0280669Y0095135D01*
X0280626Y0095551D01*
X0280669Y0095968D01*
X0280795Y0096367D01*
X0280999Y0096732D01*
X0280184Y0097283D01*
X0279885Y0096747D01*
X0279700Y0096162D01*
X0279638Y0095551D01*
X0279700Y0094940D01*
X0279885Y0094355D01*
X0280184Y0093819D01*
X0280999Y0094370D01*
X0280795Y0094736D01*
X0280669Y0095135D01*
X0280626Y0095551D01*
X0280669Y0095968D01*
X0280795Y0096367D01*
X0280999Y0096732D01*
X0280184Y0097283D01*
X0279885Y0096747D01*
X0279700Y0096162D01*
X0279638Y0095551D01*
X0279700Y0094940D01*
X0279885Y0094355D01*
X0280184Y0093819D01*
X0280999Y0094370D01*
X0280795Y0094736D01*
X0280669Y0095135D01*
X0280626Y0095551D01*
X0280669Y0095968D01*
X0280795Y0096367D01*
X0280999Y0096732D01*
X0280937Y0096621D02*
X0279845Y0096621D01*
X0280937Y0096621D01*
X0279845Y0096621D01*
X0280937Y0096621D01*
X0279845Y0096621D01*
X0280937Y0096621D01*
X0279845Y0096621D01*
X0279783Y0096426D02*
X0280828Y0096426D01*
X0279783Y0096426D01*
X0280828Y0096426D01*
X0279783Y0096426D01*
X0280828Y0096426D01*
X0279783Y0096426D01*
X0280828Y0096426D01*
X0280752Y0096230D02*
X0279721Y0096230D01*
X0280752Y0096230D01*
X0279721Y0096230D01*
X0280752Y0096230D01*
X0279721Y0096230D01*
X0280752Y0096230D01*
X0279721Y0096230D01*
X0279687Y0096035D02*
X0280690Y0096035D01*
X0279687Y0096035D01*
X0280690Y0096035D01*
X0279687Y0096035D01*
X0280690Y0096035D01*
X0279687Y0096035D01*
X0280690Y0096035D01*
X0280656Y0095840D02*
X0279667Y0095840D01*
X0280656Y0095840D01*
X0279667Y0095840D01*
X0280656Y0095840D01*
X0279667Y0095840D01*
X0280656Y0095840D01*
X0279667Y0095840D01*
X0279647Y0095644D02*
X0280636Y0095644D01*
X0279647Y0095644D01*
X0280636Y0095644D01*
X0279647Y0095644D01*
X0280636Y0095644D01*
X0279647Y0095644D01*
X0280636Y0095644D01*
X0280637Y0095449D02*
X0279648Y0095449D01*
X0280637Y0095449D01*
X0279648Y0095449D01*
X0280637Y0095449D01*
X0279648Y0095449D01*
X0280637Y0095449D01*
X0279648Y0095449D01*
X0279668Y0095253D02*
X0280657Y0095253D01*
X0279668Y0095253D01*
X0280657Y0095253D01*
X0279668Y0095253D01*
X0280657Y0095253D01*
X0279668Y0095253D01*
X0280657Y0095253D01*
X0280693Y0095058D02*
X0279688Y0095058D01*
X0280693Y0095058D01*
X0279688Y0095058D01*
X0280693Y0095058D01*
X0279688Y0095058D01*
X0280693Y0095058D01*
X0279688Y0095058D01*
X0279724Y0094863D02*
X0280755Y0094863D01*
X0279724Y0094863D01*
X0280755Y0094863D01*
X0279724Y0094863D01*
X0280755Y0094863D01*
X0279724Y0094863D01*
X0280755Y0094863D01*
X0280833Y0094667D02*
X0279786Y0094667D01*
X0280833Y0094667D01*
X0279786Y0094667D01*
X0280833Y0094667D01*
X0279786Y0094667D01*
X0280833Y0094667D01*
X0279786Y0094667D01*
X0279848Y0094472D02*
X0280942Y0094472D01*
X0279848Y0094472D01*
X0280942Y0094472D01*
X0279848Y0094472D01*
X0280942Y0094472D01*
X0279848Y0094472D01*
X0280942Y0094472D01*
X0280861Y0094277D02*
X0279928Y0094277D01*
X0280861Y0094277D01*
X0279928Y0094277D01*
X0280861Y0094277D01*
X0279928Y0094277D01*
X0280861Y0094277D01*
X0279928Y0094277D01*
X0280037Y0094081D02*
X0280572Y0094081D01*
X0280037Y0094081D01*
X0280572Y0094081D01*
X0280037Y0094081D01*
X0280572Y0094081D01*
X0280037Y0094081D01*
X0280572Y0094081D01*
X0280283Y0093886D02*
X0280146Y0093886D01*
X0280283Y0093886D01*
X0280146Y0093886D01*
X0280283Y0093886D01*
X0280146Y0093886D01*
X0280283Y0093886D01*
X0280146Y0093886D01*
X0281100Y0093104D02*
X0284402Y0093104D01*
X0284483Y0092984D02*
X0283932Y0093799D01*
X0283566Y0093595D01*
X0283167Y0093469D01*
X0282751Y0093427D01*
X0282334Y0093469D01*
X0281935Y0093595D01*
X0281570Y0093799D01*
X0281018Y0092984D01*
X0281554Y0092685D01*
X0282140Y0092500D01*
X0282751Y0092438D01*
X0283361Y0092500D01*
X0283947Y0092685D01*
X0284483Y0092984D01*
X0284348Y0092909D02*
X0281153Y0092909D01*
X0281232Y0093300D02*
X0284270Y0093300D01*
X0284137Y0093495D02*
X0283249Y0093495D01*
X0283737Y0093691D02*
X0284005Y0093691D01*
X0284503Y0094370D02*
X0285318Y0093819D01*
X0285617Y0094355D01*
X0285801Y0094940D01*
X0285864Y0095551D01*
X0285801Y0096162D01*
X0285617Y0096747D01*
X0285318Y0097283D01*
X0284503Y0096732D01*
X0284707Y0096367D01*
X0284832Y0095968D01*
X0284875Y0095551D01*
X0284832Y0095135D01*
X0284707Y0094736D01*
X0284503Y0094370D01*
X0284559Y0094472D02*
X0285654Y0094472D01*
X0285715Y0094667D02*
X0284669Y0094667D01*
X0284747Y0094863D02*
X0285777Y0094863D01*
X0285813Y0095058D02*
X0284808Y0095058D01*
X0284845Y0095253D02*
X0285833Y0095253D01*
X0285853Y0095449D02*
X0284865Y0095449D01*
X0284866Y0095644D02*
X0285854Y0095644D01*
X0285834Y0095840D02*
X0284846Y0095840D01*
X0284811Y0096035D02*
X0285814Y0096035D01*
X0285780Y0096230D02*
X0284750Y0096230D01*
X0284674Y0096426D02*
X0285718Y0096426D01*
X0285657Y0096621D02*
X0284565Y0096621D01*
X0284627Y0096816D02*
X0285578Y0096816D01*
X0285469Y0097012D02*
X0284916Y0097012D01*
X0285205Y0097207D02*
X0285360Y0097207D01*
X0284131Y0097598D02*
X0283279Y0097598D01*
X0283754Y0097402D02*
X0283999Y0097402D01*
X0280874Y0096816D02*
X0279923Y0096816D01*
X0280874Y0096816D01*
X0279923Y0096816D01*
X0280874Y0096816D01*
X0279923Y0096816D01*
X0280874Y0096816D01*
X0279923Y0096816D01*
X0280032Y0097012D02*
X0280586Y0097012D01*
X0280032Y0097012D01*
X0280586Y0097012D01*
X0280032Y0097012D01*
X0280586Y0097012D01*
X0280032Y0097012D01*
X0280586Y0097012D01*
X0280297Y0097207D02*
X0280141Y0097207D01*
X0280297Y0097207D01*
X0280141Y0097207D01*
X0280297Y0097207D01*
X0280141Y0097207D01*
X0280297Y0097207D01*
X0280141Y0097207D01*
X0281496Y0093691D02*
X0281764Y0093691D01*
X0281364Y0093495D02*
X0282252Y0093495D01*
X0282083Y0092518D02*
X0283418Y0092518D01*
X0283998Y0092714D02*
X0281503Y0092714D01*
X0284641Y0094277D02*
X0285573Y0094277D01*
X0285464Y0094081D02*
X0284930Y0094081D01*
X0285218Y0093886D02*
X0285355Y0093886D01*
X0475118Y0095551D02*
X0475180Y0094940D01*
X0475365Y0094355D01*
X0475664Y0093819D01*
X0476479Y0094370D01*
X0476275Y0094736D01*
X0476149Y0095135D01*
X0476107Y0095551D01*
X0476149Y0095968D01*
X0476275Y0096367D01*
X0476479Y0096732D01*
X0475664Y0097283D01*
X0475365Y0096747D01*
X0475180Y0096162D01*
X0475118Y0095551D01*
X0475180Y0094940D01*
X0475365Y0094355D01*
X0475664Y0093819D01*
X0476479Y0094370D01*
X0476275Y0094736D01*
X0476149Y0095135D01*
X0476107Y0095551D01*
X0476149Y0095968D01*
X0476275Y0096367D01*
X0476479Y0096732D01*
X0475664Y0097283D01*
X0475365Y0096747D01*
X0475180Y0096162D01*
X0475118Y0095551D01*
X0475180Y0094940D01*
X0475365Y0094355D01*
X0475664Y0093819D01*
X0476479Y0094370D01*
X0476275Y0094736D01*
X0476149Y0095135D01*
X0476107Y0095551D01*
X0476149Y0095968D01*
X0476275Y0096367D01*
X0476479Y0096732D01*
X0475664Y0097283D01*
X0475365Y0096747D01*
X0475180Y0096162D01*
X0475118Y0095551D01*
X0475180Y0094940D01*
X0475365Y0094355D01*
X0475664Y0093819D01*
X0476479Y0094370D01*
X0476275Y0094736D01*
X0476149Y0095135D01*
X0476107Y0095551D01*
X0476149Y0095968D01*
X0476275Y0096367D01*
X0476479Y0096732D01*
X0475664Y0097283D01*
X0475365Y0096747D01*
X0475180Y0096162D01*
X0475118Y0095551D01*
X0475180Y0094940D01*
X0475365Y0094355D01*
X0475664Y0093819D01*
X0476479Y0094370D01*
X0476275Y0094736D01*
X0476149Y0095135D01*
X0476107Y0095551D01*
X0476149Y0095968D01*
X0476275Y0096367D01*
X0476479Y0096732D01*
X0475664Y0097283D01*
X0475365Y0096747D01*
X0475180Y0096162D01*
X0475118Y0095551D01*
X0475180Y0094940D01*
X0475365Y0094355D01*
X0475664Y0093819D01*
X0476479Y0094370D01*
X0476275Y0094736D01*
X0476149Y0095135D01*
X0476107Y0095551D01*
X0476149Y0095968D01*
X0476275Y0096367D01*
X0476479Y0096732D01*
X0475664Y0097283D01*
X0475365Y0096747D01*
X0475180Y0096162D01*
X0475118Y0095551D01*
X0475180Y0094940D01*
X0475365Y0094355D01*
X0475664Y0093819D01*
X0476479Y0094370D01*
X0476275Y0094736D01*
X0476149Y0095135D01*
X0476107Y0095551D01*
X0476149Y0095968D01*
X0476275Y0096367D01*
X0476479Y0096732D01*
X0475664Y0097283D01*
X0475365Y0096747D01*
X0475180Y0096162D01*
X0475118Y0095551D01*
X0475127Y0095644D02*
X0476116Y0095644D01*
X0475127Y0095644D01*
X0476116Y0095644D01*
X0475127Y0095644D01*
X0476116Y0095644D01*
X0475127Y0095644D01*
X0476116Y0095644D01*
X0476117Y0095449D02*
X0475128Y0095449D01*
X0476117Y0095449D01*
X0475128Y0095449D01*
X0476117Y0095449D01*
X0475128Y0095449D01*
X0476117Y0095449D01*
X0475128Y0095449D01*
X0475148Y0095253D02*
X0476137Y0095253D01*
X0475148Y0095253D01*
X0476137Y0095253D01*
X0475148Y0095253D01*
X0476137Y0095253D01*
X0475148Y0095253D01*
X0476137Y0095253D01*
X0476173Y0095058D02*
X0475168Y0095058D01*
X0476173Y0095058D01*
X0475168Y0095058D01*
X0476173Y0095058D01*
X0475168Y0095058D01*
X0476173Y0095058D01*
X0475168Y0095058D01*
X0475205Y0094863D02*
X0476235Y0094863D01*
X0475205Y0094863D01*
X0476235Y0094863D01*
X0475205Y0094863D01*
X0476235Y0094863D01*
X0475205Y0094863D01*
X0476235Y0094863D01*
X0476313Y0094667D02*
X0475266Y0094667D01*
X0476313Y0094667D01*
X0475266Y0094667D01*
X0476313Y0094667D01*
X0475266Y0094667D01*
X0476313Y0094667D01*
X0475266Y0094667D01*
X0475328Y0094472D02*
X0476422Y0094472D01*
X0475328Y0094472D01*
X0476422Y0094472D01*
X0475328Y0094472D01*
X0476422Y0094472D01*
X0475328Y0094472D01*
X0476422Y0094472D01*
X0476341Y0094277D02*
X0475409Y0094277D01*
X0476341Y0094277D01*
X0475409Y0094277D01*
X0476341Y0094277D01*
X0475409Y0094277D01*
X0476341Y0094277D01*
X0475409Y0094277D01*
X0475518Y0094081D02*
X0476052Y0094081D01*
X0475518Y0094081D01*
X0476052Y0094081D01*
X0475518Y0094081D01*
X0476052Y0094081D01*
X0475518Y0094081D01*
X0476052Y0094081D01*
X0475763Y0093886D02*
X0475627Y0093886D01*
X0475763Y0093886D01*
X0475627Y0093886D01*
X0475763Y0093886D01*
X0475627Y0093886D01*
X0475763Y0093886D01*
X0475627Y0093886D01*
X0476580Y0093104D02*
X0479882Y0093104D01*
X0479963Y0092984D02*
X0479412Y0093799D01*
X0479047Y0093595D01*
X0478647Y0093469D01*
X0478231Y0093427D01*
X0477815Y0093469D01*
X0477415Y0093595D01*
X0477050Y0093799D01*
X0476499Y0092984D01*
X0477035Y0092685D01*
X0477620Y0092500D01*
X0478231Y0092438D01*
X0478842Y0092500D01*
X0479427Y0092685D01*
X0479963Y0092984D01*
X0479829Y0092909D02*
X0476633Y0092909D01*
X0476712Y0093300D02*
X0479750Y0093300D01*
X0479618Y0093495D02*
X0478729Y0093495D01*
X0479217Y0093691D02*
X0479486Y0093691D01*
X0479983Y0094370D02*
X0480798Y0093819D01*
X0481097Y0094355D01*
X0481282Y0094940D01*
X0481344Y0095551D01*
X0481282Y0096162D01*
X0481097Y0096747D01*
X0480798Y0097283D01*
X0479983Y0096732D01*
X0480187Y0096367D01*
X0480313Y0095968D01*
X0480355Y0095551D01*
X0480313Y0095135D01*
X0480187Y0094736D01*
X0479983Y0094370D01*
X0480040Y0094472D02*
X0481134Y0094472D01*
X0481196Y0094667D02*
X0480149Y0094667D01*
X0480227Y0094863D02*
X0481257Y0094863D01*
X0481294Y0095058D02*
X0480289Y0095058D01*
X0480325Y0095253D02*
X0481314Y0095253D01*
X0481334Y0095449D02*
X0480345Y0095449D01*
X0480346Y0095644D02*
X0481335Y0095644D01*
X0481315Y0095840D02*
X0480326Y0095840D01*
X0480292Y0096035D02*
X0481295Y0096035D01*
X0481260Y0096230D02*
X0480230Y0096230D01*
X0480154Y0096426D02*
X0481199Y0096426D01*
X0481137Y0096621D02*
X0480045Y0096621D01*
X0480107Y0096816D02*
X0481059Y0096816D01*
X0480950Y0097012D02*
X0480396Y0097012D01*
X0480685Y0097207D02*
X0480841Y0097207D01*
X0479876Y0097989D02*
X0476586Y0097989D01*
X0476499Y0098118D02*
X0477050Y0097303D01*
X0477415Y0097507D01*
X0477815Y0097633D01*
X0478231Y0097676D01*
X0478647Y0097633D01*
X0479047Y0097507D01*
X0479412Y0097303D01*
X0479963Y0098118D01*
X0479427Y0098417D01*
X0478842Y0098602D01*
X0478231Y0098664D01*
X0477620Y0098602D01*
X0477035Y0098417D01*
X0476499Y0098118D01*
X0476616Y0098184D02*
X0479845Y0098184D01*
X0479495Y0098379D02*
X0476967Y0098379D01*
X0477534Y0098575D02*
X0478928Y0098575D01*
X0478759Y0097598D02*
X0479611Y0097598D01*
X0479743Y0097793D02*
X0476718Y0097793D01*
X0476851Y0097598D02*
X0477703Y0097598D01*
X0477228Y0097402D02*
X0476983Y0097402D01*
X0476355Y0096816D02*
X0475403Y0096816D01*
X0476355Y0096816D01*
X0475403Y0096816D01*
X0476355Y0096816D01*
X0475403Y0096816D01*
X0476355Y0096816D01*
X0475403Y0096816D01*
X0475325Y0096621D02*
X0476417Y0096621D01*
X0475325Y0096621D01*
X0476417Y0096621D01*
X0475325Y0096621D01*
X0476417Y0096621D01*
X0475325Y0096621D01*
X0476417Y0096621D01*
X0476308Y0096426D02*
X0475263Y0096426D01*
X0476308Y0096426D01*
X0475263Y0096426D01*
X0476308Y0096426D01*
X0475263Y0096426D01*
X0476308Y0096426D01*
X0475263Y0096426D01*
X0475202Y0096230D02*
X0476232Y0096230D01*
X0475202Y0096230D01*
X0476232Y0096230D01*
X0475202Y0096230D01*
X0476232Y0096230D01*
X0475202Y0096230D01*
X0476232Y0096230D01*
X0476170Y0096035D02*
X0475167Y0096035D01*
X0476170Y0096035D01*
X0475167Y0096035D01*
X0476170Y0096035D01*
X0475167Y0096035D01*
X0476170Y0096035D01*
X0475167Y0096035D01*
X0475147Y0095840D02*
X0476136Y0095840D01*
X0475147Y0095840D01*
X0476136Y0095840D01*
X0475147Y0095840D01*
X0476136Y0095840D01*
X0475147Y0095840D01*
X0476136Y0095840D01*
X0476066Y0097012D02*
X0475512Y0097012D01*
X0476066Y0097012D01*
X0475512Y0097012D01*
X0476066Y0097012D01*
X0475512Y0097012D01*
X0476066Y0097012D01*
X0475512Y0097012D01*
X0475621Y0097207D02*
X0475777Y0097207D01*
X0475621Y0097207D01*
X0475777Y0097207D01*
X0475621Y0097207D01*
X0475777Y0097207D01*
X0475621Y0097207D01*
X0475777Y0097207D01*
X0479234Y0097402D02*
X0479479Y0097402D01*
X0480121Y0094277D02*
X0481053Y0094277D01*
X0480944Y0094081D02*
X0480410Y0094081D01*
X0480699Y0093886D02*
X0480835Y0093886D01*
X0479479Y0092714D02*
X0476983Y0092714D01*
X0477563Y0092518D02*
X0478899Y0092518D01*
X0477733Y0093495D02*
X0476844Y0093495D01*
X0476976Y0093691D02*
X0477245Y0093691D01*
X0478231Y0171178D02*
X0478842Y0171241D01*
X0479427Y0171425D01*
X0479963Y0171724D01*
X0479412Y0172539D01*
X0479047Y0172335D01*
X0478647Y0172210D01*
X0478231Y0172167D01*
X0477815Y0172210D01*
X0477415Y0172335D01*
X0477050Y0172539D01*
X0476499Y0171724D01*
X0477035Y0171425D01*
X0477620Y0171241D01*
X0478231Y0171178D01*
X0477593Y0171249D02*
X0478869Y0171249D01*
X0479462Y0171445D02*
X0477000Y0171445D01*
X0476650Y0171640D02*
X0479812Y0171640D01*
X0479888Y0171835D02*
X0476574Y0171835D01*
X0476706Y0172031D02*
X0479756Y0172031D01*
X0479624Y0172226D02*
X0478700Y0172226D01*
X0479201Y0172421D02*
X0479492Y0172421D01*
X0479983Y0173110D02*
X0480798Y0172559D01*
X0481097Y0173095D01*
X0481282Y0173681D01*
X0481344Y0174291D01*
X0481282Y0174902D01*
X0481097Y0175488D01*
X0480798Y0176024D01*
X0479983Y0175472D01*
X0480187Y0175107D01*
X0480313Y0174708D01*
X0480355Y0174291D01*
X0480313Y0173875D01*
X0480187Y0173476D01*
X0479983Y0173110D01*
X0480035Y0173203D02*
X0481131Y0173203D01*
X0481193Y0173398D02*
X0480144Y0173398D01*
X0480224Y0173593D02*
X0481254Y0173593D01*
X0481293Y0173789D02*
X0480286Y0173789D01*
X0480324Y0173984D02*
X0481313Y0173984D01*
X0481333Y0174180D02*
X0480344Y0174180D01*
X0480347Y0174375D02*
X0481336Y0174375D01*
X0481316Y0174570D02*
X0480327Y0174570D01*
X0480295Y0174766D02*
X0481296Y0174766D01*
X0481263Y0174961D02*
X0480233Y0174961D01*
X0480159Y0175156D02*
X0481201Y0175156D01*
X0481140Y0175352D02*
X0480050Y0175352D01*
X0480093Y0175547D02*
X0481064Y0175547D01*
X0480955Y0175742D02*
X0480382Y0175742D01*
X0480671Y0175938D02*
X0480846Y0175938D01*
X0479869Y0176719D02*
X0476593Y0176719D01*
X0476499Y0176858D02*
X0477050Y0176043D01*
X0477415Y0176247D01*
X0477815Y0176373D01*
X0478231Y0176416D01*
X0478647Y0176373D01*
X0479047Y0176247D01*
X0479412Y0176043D01*
X0479963Y0176858D01*
X0479427Y0177157D01*
X0478842Y0177342D01*
X0478231Y0177404D01*
X0477620Y0177342D01*
X0477035Y0177157D01*
X0476499Y0176858D01*
X0476600Y0176915D02*
X0479862Y0176915D01*
X0479512Y0177110D02*
X0476950Y0177110D01*
X0477504Y0177305D02*
X0478958Y0177305D01*
X0478789Y0176329D02*
X0479605Y0176329D01*
X0479737Y0176524D02*
X0476725Y0176524D01*
X0476857Y0176329D02*
X0477673Y0176329D01*
X0477211Y0176133D02*
X0476989Y0176133D01*
X0476479Y0175472D02*
X0475664Y0176024D01*
X0475365Y0175488D01*
X0475180Y0174902D01*
X0475118Y0174291D01*
X0475180Y0173681D01*
X0475365Y0173095D01*
X0475664Y0172559D01*
X0476479Y0173110D01*
X0476275Y0173476D01*
X0476149Y0173875D01*
X0476107Y0174291D01*
X0476149Y0174708D01*
X0476275Y0175107D01*
X0476479Y0175472D01*
X0475664Y0176024D01*
X0475365Y0175488D01*
X0475180Y0174902D01*
X0475118Y0174291D01*
X0475180Y0173681D01*
X0475365Y0173095D01*
X0475664Y0172559D01*
X0476479Y0173110D01*
X0476275Y0173476D01*
X0476149Y0173875D01*
X0476107Y0174291D01*
X0476149Y0174708D01*
X0476275Y0175107D01*
X0476479Y0175472D01*
X0475664Y0176024D01*
X0475365Y0175488D01*
X0475180Y0174902D01*
X0475118Y0174291D01*
X0475180Y0173681D01*
X0475365Y0173095D01*
X0475664Y0172559D01*
X0476479Y0173110D01*
X0476275Y0173476D01*
X0476149Y0173875D01*
X0476107Y0174291D01*
X0476149Y0174708D01*
X0476275Y0175107D01*
X0476479Y0175472D01*
X0475664Y0176024D01*
X0475365Y0175488D01*
X0475180Y0174902D01*
X0475118Y0174291D01*
X0475180Y0173681D01*
X0475365Y0173095D01*
X0475664Y0172559D01*
X0476479Y0173110D01*
X0476275Y0173476D01*
X0476149Y0173875D01*
X0476107Y0174291D01*
X0476149Y0174708D01*
X0476275Y0175107D01*
X0476479Y0175472D01*
X0475664Y0176024D01*
X0475365Y0175488D01*
X0475180Y0174902D01*
X0475118Y0174291D01*
X0475180Y0173681D01*
X0475365Y0173095D01*
X0475664Y0172559D01*
X0476479Y0173110D01*
X0476275Y0173476D01*
X0476149Y0173875D01*
X0476107Y0174291D01*
X0476149Y0174708D01*
X0476275Y0175107D01*
X0476479Y0175472D01*
X0475664Y0176024D01*
X0475365Y0175488D01*
X0475180Y0174902D01*
X0475118Y0174291D01*
X0475180Y0173681D01*
X0475365Y0173095D01*
X0475664Y0172559D01*
X0476479Y0173110D01*
X0476275Y0173476D01*
X0476149Y0173875D01*
X0476107Y0174291D01*
X0476149Y0174708D01*
X0476275Y0175107D01*
X0476479Y0175472D01*
X0475664Y0176024D01*
X0475365Y0175488D01*
X0475180Y0174902D01*
X0475118Y0174291D01*
X0475180Y0173681D01*
X0475365Y0173095D01*
X0475664Y0172559D01*
X0476479Y0173110D01*
X0476275Y0173476D01*
X0476149Y0173875D01*
X0476107Y0174291D01*
X0476149Y0174708D01*
X0476275Y0175107D01*
X0476479Y0175472D01*
X0476369Y0175547D02*
X0475398Y0175547D01*
X0476369Y0175547D01*
X0475398Y0175547D01*
X0476369Y0175547D01*
X0475398Y0175547D01*
X0476369Y0175547D01*
X0475398Y0175547D01*
X0475322Y0175352D02*
X0476412Y0175352D01*
X0475322Y0175352D01*
X0476412Y0175352D01*
X0475322Y0175352D01*
X0476412Y0175352D01*
X0475322Y0175352D01*
X0476412Y0175352D01*
X0476303Y0175156D02*
X0475260Y0175156D01*
X0476303Y0175156D01*
X0475260Y0175156D01*
X0476303Y0175156D01*
X0475260Y0175156D01*
X0476303Y0175156D01*
X0475260Y0175156D01*
X0475199Y0174961D02*
X0476229Y0174961D01*
X0475199Y0174961D01*
X0476229Y0174961D01*
X0475199Y0174961D01*
X0476229Y0174961D01*
X0475199Y0174961D01*
X0476229Y0174961D01*
X0476167Y0174766D02*
X0475166Y0174766D01*
X0476167Y0174766D01*
X0475166Y0174766D01*
X0476167Y0174766D01*
X0475166Y0174766D01*
X0476167Y0174766D01*
X0475166Y0174766D01*
X0475146Y0174570D02*
X0476135Y0174570D01*
X0475146Y0174570D01*
X0476135Y0174570D01*
X0475146Y0174570D01*
X0476135Y0174570D01*
X0475146Y0174570D01*
X0476135Y0174570D01*
X0476115Y0174375D02*
X0475126Y0174375D01*
X0476115Y0174375D01*
X0475126Y0174375D01*
X0476115Y0174375D01*
X0475126Y0174375D01*
X0476115Y0174375D01*
X0475126Y0174375D01*
X0475129Y0174180D02*
X0476118Y0174180D01*
X0475129Y0174180D01*
X0476118Y0174180D01*
X0475129Y0174180D01*
X0476118Y0174180D01*
X0475129Y0174180D01*
X0476118Y0174180D01*
X0476138Y0173984D02*
X0475149Y0173984D01*
X0476138Y0173984D01*
X0475149Y0173984D01*
X0476138Y0173984D01*
X0475149Y0173984D01*
X0476138Y0173984D01*
X0475149Y0173984D01*
X0475169Y0173789D02*
X0476176Y0173789D01*
X0475169Y0173789D01*
X0476176Y0173789D01*
X0475169Y0173789D01*
X0476176Y0173789D01*
X0475169Y0173789D01*
X0476176Y0173789D01*
X0476238Y0173593D02*
X0475208Y0173593D01*
X0476238Y0173593D01*
X0475208Y0173593D01*
X0476238Y0173593D01*
X0475208Y0173593D01*
X0476238Y0173593D01*
X0475208Y0173593D01*
X0475269Y0173398D02*
X0476318Y0173398D01*
X0475269Y0173398D01*
X0476318Y0173398D01*
X0475269Y0173398D01*
X0476318Y0173398D01*
X0475269Y0173398D01*
X0476318Y0173398D01*
X0476427Y0173203D02*
X0475331Y0173203D01*
X0476427Y0173203D01*
X0475331Y0173203D01*
X0476427Y0173203D01*
X0475331Y0173203D01*
X0476427Y0173203D01*
X0475331Y0173203D01*
X0475414Y0173007D02*
X0476327Y0173007D01*
X0475414Y0173007D01*
X0476327Y0173007D01*
X0475414Y0173007D01*
X0476327Y0173007D01*
X0475414Y0173007D01*
X0476327Y0173007D01*
X0476038Y0172812D02*
X0475523Y0172812D01*
X0476038Y0172812D01*
X0475523Y0172812D01*
X0476038Y0172812D01*
X0475523Y0172812D01*
X0476038Y0172812D01*
X0475523Y0172812D01*
X0475632Y0172617D02*
X0475749Y0172617D01*
X0475632Y0172617D01*
X0475749Y0172617D01*
X0475632Y0172617D01*
X0475749Y0172617D01*
X0475632Y0172617D01*
X0475749Y0172617D01*
X0476838Y0172226D02*
X0477762Y0172226D01*
X0477261Y0172421D02*
X0476970Y0172421D01*
X0480135Y0173007D02*
X0481048Y0173007D01*
X0480939Y0172812D02*
X0480424Y0172812D01*
X0480713Y0172617D02*
X0480830Y0172617D01*
X0479473Y0176133D02*
X0479251Y0176133D01*
X0476080Y0175742D02*
X0475507Y0175742D01*
X0476080Y0175742D01*
X0475507Y0175742D01*
X0476080Y0175742D01*
X0475507Y0175742D01*
X0476080Y0175742D01*
X0475507Y0175742D01*
X0475616Y0175938D02*
X0475791Y0175938D01*
X0475616Y0175938D01*
X0475791Y0175938D01*
X0475616Y0175938D01*
X0475791Y0175938D01*
X0475616Y0175938D01*
X0475791Y0175938D01*
X0478231Y0251918D02*
X0478842Y0251981D01*
X0479427Y0252165D01*
X0479963Y0252465D01*
X0479412Y0253280D01*
X0479047Y0253076D01*
X0478647Y0252950D01*
X0478231Y0252907D01*
X0477815Y0252950D01*
X0477415Y0253076D01*
X0477050Y0253280D01*
X0476499Y0252465D01*
X0477035Y0252165D01*
X0477620Y0251981D01*
X0478231Y0251918D01*
X0478379Y0251934D02*
X0478082Y0251934D01*
X0477150Y0252129D02*
X0479312Y0252129D01*
X0479712Y0252324D02*
X0476750Y0252324D01*
X0476536Y0252520D02*
X0479926Y0252520D01*
X0479794Y0252715D02*
X0476668Y0252715D01*
X0476800Y0252910D02*
X0478199Y0252910D01*
X0478263Y0252910D02*
X0479662Y0252910D01*
X0479530Y0253106D02*
X0479101Y0253106D01*
X0479983Y0253850D02*
X0480798Y0253299D01*
X0481097Y0253835D01*
X0481282Y0254421D01*
X0481344Y0255031D01*
X0481282Y0255642D01*
X0481097Y0256228D01*
X0480798Y0256764D01*
X0479983Y0256213D01*
X0480187Y0255847D01*
X0480313Y0255448D01*
X0480355Y0255031D01*
X0480313Y0254615D01*
X0480187Y0254216D01*
X0479983Y0253850D01*
X0480003Y0253887D02*
X0481113Y0253887D01*
X0481175Y0254083D02*
X0480112Y0254083D01*
X0480206Y0254278D02*
X0481237Y0254278D01*
X0481287Y0254473D02*
X0480268Y0254473D01*
X0480318Y0254669D02*
X0481307Y0254669D01*
X0481327Y0254864D02*
X0480338Y0254864D01*
X0480352Y0255059D02*
X0481341Y0255059D01*
X0481321Y0255255D02*
X0480333Y0255255D01*
X0480312Y0255450D02*
X0481301Y0255450D01*
X0481281Y0255645D02*
X0480250Y0255645D01*
X0480189Y0255841D02*
X0481219Y0255841D01*
X0481157Y0256036D02*
X0480081Y0256036D01*
X0480011Y0256231D02*
X0481095Y0256231D01*
X0480986Y0256427D02*
X0480300Y0256427D01*
X0480589Y0256622D02*
X0480877Y0256622D01*
X0479832Y0257404D02*
X0476630Y0257404D01*
X0476500Y0257599D02*
X0479962Y0257599D01*
X0479963Y0257598D02*
X0479412Y0256783D01*
X0479047Y0256987D01*
X0478647Y0257113D01*
X0478231Y0257156D01*
X0477815Y0257113D01*
X0477415Y0256987D01*
X0477050Y0256783D01*
X0476499Y0257598D01*
X0477035Y0257898D01*
X0477620Y0258082D01*
X0478231Y0258145D01*
X0478842Y0258082D01*
X0479427Y0257898D01*
X0479963Y0257598D01*
X0479612Y0257794D02*
X0476850Y0257794D01*
X0477327Y0257990D02*
X0479135Y0257990D01*
X0479699Y0257208D02*
X0476762Y0257208D01*
X0476895Y0257013D02*
X0477496Y0257013D01*
X0477111Y0256818D02*
X0477027Y0256818D01*
X0476479Y0256213D02*
X0475664Y0256764D01*
X0475365Y0256228D01*
X0475180Y0255642D01*
X0475118Y0255031D01*
X0475180Y0254421D01*
X0475365Y0253835D01*
X0475664Y0253299D01*
X0476479Y0253850D01*
X0476275Y0254216D01*
X0476149Y0254615D01*
X0476107Y0255031D01*
X0476149Y0255448D01*
X0476275Y0255847D01*
X0476479Y0256213D01*
X0475664Y0256764D01*
X0475365Y0256228D01*
X0475180Y0255642D01*
X0475118Y0255031D01*
X0475180Y0254421D01*
X0475365Y0253835D01*
X0475664Y0253299D01*
X0476479Y0253850D01*
X0476275Y0254216D01*
X0476149Y0254615D01*
X0476107Y0255031D01*
X0476149Y0255448D01*
X0476275Y0255847D01*
X0476479Y0256213D01*
X0475664Y0256764D01*
X0475365Y0256228D01*
X0475180Y0255642D01*
X0475118Y0255031D01*
X0475180Y0254421D01*
X0475365Y0253835D01*
X0475664Y0253299D01*
X0476479Y0253850D01*
X0476275Y0254216D01*
X0476149Y0254615D01*
X0476107Y0255031D01*
X0476149Y0255448D01*
X0476275Y0255847D01*
X0476479Y0256213D01*
X0475664Y0256764D01*
X0475365Y0256228D01*
X0475180Y0255642D01*
X0475118Y0255031D01*
X0475180Y0254421D01*
X0475365Y0253835D01*
X0475664Y0253299D01*
X0476479Y0253850D01*
X0476275Y0254216D01*
X0476149Y0254615D01*
X0476107Y0255031D01*
X0476149Y0255448D01*
X0476275Y0255847D01*
X0476479Y0256213D01*
X0475664Y0256764D01*
X0475365Y0256228D01*
X0475180Y0255642D01*
X0475118Y0255031D01*
X0475180Y0254421D01*
X0475365Y0253835D01*
X0475664Y0253299D01*
X0476479Y0253850D01*
X0476275Y0254216D01*
X0476149Y0254615D01*
X0476107Y0255031D01*
X0476149Y0255448D01*
X0476275Y0255847D01*
X0476479Y0256213D01*
X0475664Y0256764D01*
X0475365Y0256228D01*
X0475180Y0255642D01*
X0475118Y0255031D01*
X0475180Y0254421D01*
X0475365Y0253835D01*
X0475664Y0253299D01*
X0476479Y0253850D01*
X0476275Y0254216D01*
X0476149Y0254615D01*
X0476107Y0255031D01*
X0476149Y0255448D01*
X0476275Y0255847D01*
X0476479Y0256213D01*
X0475664Y0256764D01*
X0475365Y0256228D01*
X0475180Y0255642D01*
X0475118Y0255031D01*
X0475180Y0254421D01*
X0475365Y0253835D01*
X0475664Y0253299D01*
X0476479Y0253850D01*
X0476275Y0254216D01*
X0476149Y0254615D01*
X0476107Y0255031D01*
X0476149Y0255448D01*
X0476275Y0255847D01*
X0476479Y0256213D01*
X0476451Y0256231D02*
X0475367Y0256231D01*
X0476451Y0256231D01*
X0475367Y0256231D01*
X0476451Y0256231D01*
X0475367Y0256231D01*
X0476451Y0256231D01*
X0475367Y0256231D01*
X0475304Y0256036D02*
X0476380Y0256036D01*
X0475304Y0256036D01*
X0476380Y0256036D01*
X0475304Y0256036D01*
X0476380Y0256036D01*
X0475304Y0256036D01*
X0476380Y0256036D01*
X0476273Y0255841D02*
X0475243Y0255841D01*
X0476273Y0255841D01*
X0475243Y0255841D01*
X0476273Y0255841D01*
X0475243Y0255841D01*
X0476273Y0255841D01*
X0475243Y0255841D01*
X0475181Y0255645D02*
X0476211Y0255645D01*
X0475181Y0255645D01*
X0476211Y0255645D01*
X0475181Y0255645D01*
X0476211Y0255645D01*
X0475181Y0255645D01*
X0476211Y0255645D01*
X0476150Y0255450D02*
X0475161Y0255450D01*
X0476150Y0255450D01*
X0475161Y0255450D01*
X0476150Y0255450D01*
X0475161Y0255450D01*
X0476150Y0255450D01*
X0475161Y0255450D01*
X0475141Y0255255D02*
X0476129Y0255255D01*
X0475141Y0255255D01*
X0476129Y0255255D01*
X0475141Y0255255D01*
X0476129Y0255255D01*
X0475141Y0255255D01*
X0476129Y0255255D01*
X0476109Y0255059D02*
X0475121Y0255059D01*
X0476109Y0255059D01*
X0475121Y0255059D01*
X0476109Y0255059D01*
X0475121Y0255059D01*
X0476109Y0255059D01*
X0475121Y0255059D01*
X0475135Y0254864D02*
X0476124Y0254864D01*
X0475135Y0254864D01*
X0476124Y0254864D01*
X0475135Y0254864D01*
X0476124Y0254864D01*
X0475135Y0254864D01*
X0476124Y0254864D01*
X0476144Y0254669D02*
X0475155Y0254669D01*
X0476144Y0254669D01*
X0475155Y0254669D01*
X0476144Y0254669D01*
X0475155Y0254669D01*
X0476144Y0254669D01*
X0475155Y0254669D01*
X0475175Y0254473D02*
X0476194Y0254473D01*
X0475175Y0254473D01*
X0476194Y0254473D01*
X0475175Y0254473D01*
X0476194Y0254473D01*
X0475175Y0254473D01*
X0476194Y0254473D01*
X0476255Y0254278D02*
X0475225Y0254278D01*
X0476255Y0254278D01*
X0475225Y0254278D01*
X0476255Y0254278D01*
X0475225Y0254278D01*
X0476255Y0254278D01*
X0475225Y0254278D01*
X0475287Y0254083D02*
X0476349Y0254083D01*
X0475287Y0254083D01*
X0476349Y0254083D01*
X0475287Y0254083D01*
X0476349Y0254083D01*
X0475287Y0254083D01*
X0476349Y0254083D01*
X0476458Y0253887D02*
X0475348Y0253887D01*
X0476458Y0253887D01*
X0475348Y0253887D01*
X0476458Y0253887D01*
X0475348Y0253887D01*
X0476458Y0253887D01*
X0475348Y0253887D01*
X0475445Y0253692D02*
X0476244Y0253692D01*
X0475445Y0253692D01*
X0476244Y0253692D01*
X0475445Y0253692D01*
X0476244Y0253692D01*
X0475445Y0253692D01*
X0476244Y0253692D01*
X0475956Y0253496D02*
X0475554Y0253496D01*
X0475956Y0253496D01*
X0475554Y0253496D01*
X0475956Y0253496D01*
X0475554Y0253496D01*
X0475956Y0253496D01*
X0475554Y0253496D01*
X0475663Y0253301D02*
X0475667Y0253301D01*
X0475663Y0253301D01*
X0475667Y0253301D01*
X0475663Y0253301D01*
X0475667Y0253301D01*
X0475663Y0253301D01*
X0475667Y0253301D01*
X0476932Y0253106D02*
X0477361Y0253106D01*
X0480217Y0253692D02*
X0481017Y0253692D01*
X0480908Y0253496D02*
X0480506Y0253496D01*
X0480795Y0253301D02*
X0480799Y0253301D01*
X0479435Y0256818D02*
X0479351Y0256818D01*
X0479567Y0257013D02*
X0478966Y0257013D01*
X0476162Y0256427D02*
X0475476Y0256427D01*
X0476162Y0256427D01*
X0475476Y0256427D01*
X0476162Y0256427D01*
X0475476Y0256427D01*
X0476162Y0256427D01*
X0475476Y0256427D01*
X0475585Y0256622D02*
X0475873Y0256622D01*
X0475585Y0256622D01*
X0475873Y0256622D01*
X0475585Y0256622D01*
X0475873Y0256622D01*
X0475585Y0256622D01*
X0475873Y0256622D01*
X0478231Y0330659D02*
X0478842Y0330721D01*
X0479427Y0330906D01*
X0479963Y0331205D01*
X0479412Y0332020D01*
X0479047Y0331816D01*
X0478647Y0331690D01*
X0478231Y0331647D01*
X0477815Y0331690D01*
X0477415Y0331816D01*
X0477050Y0332020D01*
X0476499Y0331205D01*
X0477035Y0330906D01*
X0477620Y0330721D01*
X0478231Y0330659D01*
X0478174Y0330664D02*
X0478288Y0330664D01*
X0479282Y0330860D02*
X0477180Y0330860D01*
X0476767Y0331055D02*
X0479695Y0331055D01*
X0479932Y0331250D02*
X0476530Y0331250D01*
X0476662Y0331446D02*
X0479800Y0331446D01*
X0479668Y0331641D02*
X0476794Y0331641D01*
X0476926Y0331836D02*
X0477378Y0331836D01*
X0476479Y0332591D02*
X0476275Y0332956D01*
X0476149Y0333355D01*
X0476107Y0333772D01*
X0476149Y0334188D01*
X0476275Y0334587D01*
X0476479Y0334953D01*
X0475664Y0335504D01*
X0475365Y0334968D01*
X0475180Y0334382D01*
X0475118Y0333772D01*
X0475180Y0333161D01*
X0475365Y0332575D01*
X0475664Y0332039D01*
X0476479Y0332591D01*
X0476275Y0332956D01*
X0476149Y0333355D01*
X0476107Y0333772D01*
X0476149Y0334188D01*
X0476275Y0334587D01*
X0476479Y0334953D01*
X0475664Y0335504D01*
X0475365Y0334968D01*
X0475180Y0334382D01*
X0475118Y0333772D01*
X0475180Y0333161D01*
X0475365Y0332575D01*
X0475664Y0332039D01*
X0476479Y0332591D01*
X0476275Y0332956D01*
X0476149Y0333355D01*
X0476107Y0333772D01*
X0476149Y0334188D01*
X0476275Y0334587D01*
X0476479Y0334953D01*
X0475664Y0335504D01*
X0475365Y0334968D01*
X0475180Y0334382D01*
X0475118Y0333772D01*
X0475180Y0333161D01*
X0475365Y0332575D01*
X0475664Y0332039D01*
X0476479Y0332591D01*
X0476275Y0332956D01*
X0476149Y0333355D01*
X0476107Y0333772D01*
X0476149Y0334188D01*
X0476275Y0334587D01*
X0476479Y0334953D01*
X0475664Y0335504D01*
X0475365Y0334968D01*
X0475180Y0334382D01*
X0475118Y0333772D01*
X0475180Y0333161D01*
X0475365Y0332575D01*
X0475664Y0332039D01*
X0476479Y0332591D01*
X0476275Y0332956D01*
X0476149Y0333355D01*
X0476107Y0333772D01*
X0476149Y0334188D01*
X0476275Y0334587D01*
X0476479Y0334953D01*
X0475664Y0335504D01*
X0475365Y0334968D01*
X0475180Y0334382D01*
X0475118Y0333772D01*
X0475180Y0333161D01*
X0475365Y0332575D01*
X0475664Y0332039D01*
X0476479Y0332591D01*
X0476275Y0332956D01*
X0476149Y0333355D01*
X0476107Y0333772D01*
X0476149Y0334188D01*
X0476275Y0334587D01*
X0476479Y0334953D01*
X0475664Y0335504D01*
X0475365Y0334968D01*
X0475180Y0334382D01*
X0475118Y0333772D01*
X0475180Y0333161D01*
X0475365Y0332575D01*
X0475664Y0332039D01*
X0476479Y0332591D01*
X0476275Y0332956D01*
X0476149Y0333355D01*
X0476107Y0333772D01*
X0476149Y0334188D01*
X0476275Y0334587D01*
X0476479Y0334953D01*
X0475664Y0335504D01*
X0475365Y0334968D01*
X0475180Y0334382D01*
X0475118Y0333772D01*
X0475180Y0333161D01*
X0475365Y0332575D01*
X0475664Y0332039D01*
X0476479Y0332591D01*
X0476464Y0332618D02*
X0475351Y0332618D01*
X0476464Y0332618D01*
X0475351Y0332618D01*
X0476464Y0332618D01*
X0475351Y0332618D01*
X0476464Y0332618D01*
X0475351Y0332618D01*
X0475290Y0332813D02*
X0476355Y0332813D01*
X0475290Y0332813D01*
X0476355Y0332813D01*
X0475290Y0332813D01*
X0476355Y0332813D01*
X0475290Y0332813D01*
X0476355Y0332813D01*
X0476258Y0333009D02*
X0475228Y0333009D01*
X0476258Y0333009D01*
X0475228Y0333009D01*
X0476258Y0333009D01*
X0475228Y0333009D01*
X0476258Y0333009D01*
X0475228Y0333009D01*
X0475176Y0333204D02*
X0476197Y0333204D01*
X0475176Y0333204D01*
X0476197Y0333204D01*
X0475176Y0333204D01*
X0476197Y0333204D01*
X0475176Y0333204D01*
X0476197Y0333204D01*
X0476145Y0333399D02*
X0475156Y0333399D01*
X0476145Y0333399D01*
X0475156Y0333399D01*
X0476145Y0333399D01*
X0475156Y0333399D01*
X0476145Y0333399D01*
X0475156Y0333399D01*
X0475136Y0333595D02*
X0476125Y0333595D01*
X0475136Y0333595D01*
X0476125Y0333595D01*
X0475136Y0333595D01*
X0476125Y0333595D01*
X0475136Y0333595D01*
X0476125Y0333595D01*
X0476108Y0333790D02*
X0475120Y0333790D01*
X0476108Y0333790D01*
X0475120Y0333790D01*
X0476108Y0333790D01*
X0475120Y0333790D01*
X0476108Y0333790D01*
X0475120Y0333790D01*
X0475140Y0333985D02*
X0476128Y0333985D01*
X0475140Y0333985D01*
X0476128Y0333985D01*
X0475140Y0333985D01*
X0476128Y0333985D01*
X0475140Y0333985D01*
X0476128Y0333985D01*
X0476148Y0334181D02*
X0475160Y0334181D01*
X0476148Y0334181D01*
X0475160Y0334181D01*
X0476148Y0334181D01*
X0475160Y0334181D01*
X0476148Y0334181D01*
X0475160Y0334181D01*
X0475180Y0334376D02*
X0476208Y0334376D01*
X0475180Y0334376D01*
X0476208Y0334376D01*
X0475180Y0334376D01*
X0476208Y0334376D01*
X0475180Y0334376D01*
X0476208Y0334376D01*
X0476270Y0334572D02*
X0475240Y0334572D01*
X0476270Y0334572D01*
X0475240Y0334572D01*
X0476270Y0334572D01*
X0475240Y0334572D01*
X0476270Y0334572D01*
X0475240Y0334572D01*
X0475301Y0334767D02*
X0476375Y0334767D01*
X0475301Y0334767D01*
X0476375Y0334767D01*
X0475301Y0334767D01*
X0476375Y0334767D01*
X0475301Y0334767D01*
X0476375Y0334767D01*
X0476465Y0334962D02*
X0475363Y0334962D01*
X0476465Y0334962D01*
X0475363Y0334962D01*
X0476465Y0334962D01*
X0475363Y0334962D01*
X0476465Y0334962D01*
X0475363Y0334962D01*
X0475471Y0335158D02*
X0476176Y0335158D01*
X0475471Y0335158D01*
X0476176Y0335158D01*
X0475471Y0335158D01*
X0476176Y0335158D01*
X0475471Y0335158D01*
X0476176Y0335158D01*
X0475887Y0335353D02*
X0475580Y0335353D01*
X0475887Y0335353D01*
X0475580Y0335353D01*
X0475887Y0335353D01*
X0475580Y0335353D01*
X0475887Y0335353D01*
X0475580Y0335353D01*
X0476637Y0336134D02*
X0479825Y0336134D01*
X0479693Y0335939D02*
X0476769Y0335939D01*
X0476901Y0335744D02*
X0477466Y0335744D01*
X0477415Y0335728D02*
X0477815Y0335853D01*
X0478231Y0335896D01*
X0478647Y0335853D01*
X0479047Y0335728D01*
X0479412Y0335524D01*
X0479963Y0336339D01*
X0479427Y0336638D01*
X0478842Y0336822D01*
X0478231Y0336885D01*
X0477620Y0336822D01*
X0477035Y0336638D01*
X0476499Y0336339D01*
X0477050Y0335524D01*
X0477415Y0335728D01*
X0477094Y0335548D02*
X0477033Y0335548D01*
X0476505Y0336330D02*
X0479957Y0336330D01*
X0479629Y0336525D02*
X0476833Y0336525D01*
X0477297Y0336721D02*
X0479165Y0336721D01*
X0478995Y0335744D02*
X0479561Y0335744D01*
X0479429Y0335548D02*
X0479368Y0335548D01*
X0479983Y0334953D02*
X0480187Y0334587D01*
X0480313Y0334188D01*
X0480355Y0333772D01*
X0480313Y0333355D01*
X0480187Y0332956D01*
X0479983Y0332591D01*
X0480798Y0332039D01*
X0481097Y0332575D01*
X0481282Y0333161D01*
X0481344Y0333772D01*
X0481282Y0334382D01*
X0481097Y0334968D01*
X0480798Y0335504D01*
X0479983Y0334953D01*
X0479997Y0334962D02*
X0481099Y0334962D01*
X0481160Y0334767D02*
X0480087Y0334767D01*
X0480192Y0334572D02*
X0481222Y0334572D01*
X0481282Y0334376D02*
X0480253Y0334376D01*
X0480313Y0334181D02*
X0481302Y0334181D01*
X0481322Y0333985D02*
X0480333Y0333985D01*
X0480353Y0333790D02*
X0481342Y0333790D01*
X0481326Y0333595D02*
X0480337Y0333595D01*
X0480317Y0333399D02*
X0481306Y0333399D01*
X0481286Y0333204D02*
X0480265Y0333204D01*
X0480203Y0333009D02*
X0481234Y0333009D01*
X0481172Y0332813D02*
X0480107Y0332813D01*
X0479998Y0332618D02*
X0481110Y0332618D01*
X0481012Y0332423D02*
X0480231Y0332423D01*
X0480520Y0332227D02*
X0480903Y0332227D01*
X0479536Y0331836D02*
X0479084Y0331836D01*
X0476231Y0332423D02*
X0475450Y0332423D01*
X0476231Y0332423D01*
X0475450Y0332423D01*
X0476231Y0332423D01*
X0475450Y0332423D01*
X0476231Y0332423D01*
X0475450Y0332423D01*
X0475559Y0332227D02*
X0475942Y0332227D01*
X0475559Y0332227D01*
X0475942Y0332227D01*
X0475559Y0332227D01*
X0475942Y0332227D01*
X0475559Y0332227D01*
X0475942Y0332227D01*
X0480286Y0335158D02*
X0480991Y0335158D01*
X0480882Y0335353D02*
X0480575Y0335353D01*
X0478231Y0411399D02*
X0478842Y0411461D01*
X0479427Y0411646D01*
X0479963Y0411945D01*
X0479412Y0412760D01*
X0479047Y0412556D01*
X0478647Y0412430D01*
X0478231Y0412387D01*
X0477815Y0412430D01*
X0477415Y0412556D01*
X0477050Y0412760D01*
X0476499Y0411945D01*
X0477035Y0411646D01*
X0477620Y0411461D01*
X0478231Y0411399D01*
X0477357Y0411544D02*
X0479105Y0411544D01*
X0479595Y0411739D02*
X0476867Y0411739D01*
X0476517Y0411935D02*
X0479945Y0411935D01*
X0479838Y0412130D02*
X0476624Y0412130D01*
X0476756Y0412326D02*
X0479706Y0412326D01*
X0479574Y0412521D02*
X0478936Y0412521D01*
X0479334Y0412716D02*
X0479442Y0412716D01*
X0479983Y0413331D02*
X0480798Y0412780D01*
X0481097Y0413316D01*
X0481282Y0413901D01*
X0481344Y0414512D01*
X0481282Y0415123D01*
X0481097Y0415708D01*
X0480798Y0416244D01*
X0479983Y0415693D01*
X0480187Y0415327D01*
X0480313Y0414928D01*
X0480355Y0414512D01*
X0480313Y0414095D01*
X0480187Y0413696D01*
X0479983Y0413331D01*
X0480025Y0413302D02*
X0481090Y0413302D01*
X0481154Y0413498D02*
X0480076Y0413498D01*
X0480185Y0413693D02*
X0481216Y0413693D01*
X0481278Y0413888D02*
X0480248Y0413888D01*
X0480309Y0414084D02*
X0481300Y0414084D01*
X0481320Y0414279D02*
X0480332Y0414279D01*
X0480352Y0414474D02*
X0481340Y0414474D01*
X0481328Y0414670D02*
X0480339Y0414670D01*
X0480319Y0414865D02*
X0481308Y0414865D01*
X0481288Y0415061D02*
X0480271Y0415061D01*
X0480209Y0415256D02*
X0481240Y0415256D01*
X0481178Y0415451D02*
X0480118Y0415451D01*
X0480009Y0415647D02*
X0481116Y0415647D01*
X0481022Y0415842D02*
X0480203Y0415842D01*
X0480492Y0416037D02*
X0480913Y0416037D01*
X0480804Y0416233D02*
X0480781Y0416233D01*
X0479787Y0416819D02*
X0476674Y0416819D01*
X0476542Y0417014D02*
X0479920Y0417014D01*
X0479963Y0417079D02*
X0479412Y0416264D01*
X0479047Y0416468D01*
X0478647Y0416594D01*
X0478231Y0416636D01*
X0477815Y0416594D01*
X0477415Y0416468D01*
X0477050Y0416264D01*
X0476499Y0417079D01*
X0477035Y0417378D01*
X0477620Y0417563D01*
X0478231Y0417625D01*
X0478842Y0417563D01*
X0479427Y0417378D01*
X0479963Y0417079D01*
X0479729Y0417210D02*
X0476733Y0417210D01*
X0477120Y0417405D02*
X0479342Y0417405D01*
X0479655Y0416623D02*
X0478355Y0416623D01*
X0478107Y0416623D02*
X0476807Y0416623D01*
X0476939Y0416428D02*
X0477344Y0416428D01*
X0476479Y0415693D02*
X0475664Y0416244D01*
X0475365Y0415708D01*
X0475180Y0415123D01*
X0475118Y0414512D01*
X0475180Y0413901D01*
X0475365Y0413316D01*
X0475664Y0412780D01*
X0476479Y0413331D01*
X0476275Y0413696D01*
X0476149Y0414095D01*
X0476107Y0414512D01*
X0476149Y0414928D01*
X0476275Y0415327D01*
X0476479Y0415693D01*
X0475664Y0416244D01*
X0475365Y0415708D01*
X0475180Y0415123D01*
X0475118Y0414512D01*
X0475180Y0413901D01*
X0475365Y0413316D01*
X0475664Y0412780D01*
X0476479Y0413331D01*
X0476275Y0413696D01*
X0476149Y0414095D01*
X0476107Y0414512D01*
X0476149Y0414928D01*
X0476275Y0415327D01*
X0476479Y0415693D01*
X0475664Y0416244D01*
X0475365Y0415708D01*
X0475180Y0415123D01*
X0475118Y0414512D01*
X0475180Y0413901D01*
X0475365Y0413316D01*
X0475664Y0412780D01*
X0476479Y0413331D01*
X0476275Y0413696D01*
X0476149Y0414095D01*
X0476107Y0414512D01*
X0476149Y0414928D01*
X0476275Y0415327D01*
X0476479Y0415693D01*
X0475664Y0416244D01*
X0475365Y0415708D01*
X0475180Y0415123D01*
X0475118Y0414512D01*
X0475180Y0413901D01*
X0475365Y0413316D01*
X0475664Y0412780D01*
X0476479Y0413331D01*
X0476275Y0413696D01*
X0476149Y0414095D01*
X0476107Y0414512D01*
X0476149Y0414928D01*
X0476275Y0415327D01*
X0476479Y0415693D01*
X0475664Y0416244D01*
X0475365Y0415708D01*
X0475180Y0415123D01*
X0475118Y0414512D01*
X0475180Y0413901D01*
X0475365Y0413316D01*
X0475664Y0412780D01*
X0476479Y0413331D01*
X0476275Y0413696D01*
X0476149Y0414095D01*
X0476107Y0414512D01*
X0476149Y0414928D01*
X0476275Y0415327D01*
X0476479Y0415693D01*
X0475664Y0416244D01*
X0475365Y0415708D01*
X0475180Y0415123D01*
X0475118Y0414512D01*
X0475180Y0413901D01*
X0475365Y0413316D01*
X0475664Y0412780D01*
X0476479Y0413331D01*
X0476275Y0413696D01*
X0476149Y0414095D01*
X0476107Y0414512D01*
X0476149Y0414928D01*
X0476275Y0415327D01*
X0476479Y0415693D01*
X0475664Y0416244D01*
X0475365Y0415708D01*
X0475180Y0415123D01*
X0475118Y0414512D01*
X0475180Y0413901D01*
X0475365Y0413316D01*
X0475664Y0412780D01*
X0476479Y0413331D01*
X0476275Y0413696D01*
X0476149Y0414095D01*
X0476107Y0414512D01*
X0476149Y0414928D01*
X0476275Y0415327D01*
X0476479Y0415693D01*
X0476453Y0415647D02*
X0475345Y0415647D01*
X0476453Y0415647D01*
X0475345Y0415647D01*
X0476453Y0415647D01*
X0475345Y0415647D01*
X0476453Y0415647D01*
X0475345Y0415647D01*
X0475284Y0415451D02*
X0476344Y0415451D01*
X0475284Y0415451D01*
X0476344Y0415451D01*
X0475284Y0415451D01*
X0476344Y0415451D01*
X0475284Y0415451D01*
X0476344Y0415451D01*
X0476252Y0415256D02*
X0475222Y0415256D01*
X0476252Y0415256D01*
X0475222Y0415256D01*
X0476252Y0415256D01*
X0475222Y0415256D01*
X0476252Y0415256D01*
X0475222Y0415256D01*
X0475174Y0415061D02*
X0476191Y0415061D01*
X0475174Y0415061D01*
X0476191Y0415061D01*
X0475174Y0415061D01*
X0476191Y0415061D01*
X0475174Y0415061D01*
X0476191Y0415061D01*
X0476143Y0414865D02*
X0475154Y0414865D01*
X0476143Y0414865D01*
X0475154Y0414865D01*
X0476143Y0414865D01*
X0475154Y0414865D01*
X0476143Y0414865D01*
X0475154Y0414865D01*
X0475134Y0414670D02*
X0476123Y0414670D01*
X0475134Y0414670D01*
X0476123Y0414670D01*
X0475134Y0414670D01*
X0476123Y0414670D01*
X0475134Y0414670D01*
X0476123Y0414670D01*
X0476110Y0414474D02*
X0475122Y0414474D01*
X0476110Y0414474D01*
X0475122Y0414474D01*
X0476110Y0414474D01*
X0475122Y0414474D01*
X0476110Y0414474D01*
X0475122Y0414474D01*
X0475142Y0414279D02*
X0476130Y0414279D01*
X0475142Y0414279D01*
X0476130Y0414279D01*
X0475142Y0414279D01*
X0476130Y0414279D01*
X0475142Y0414279D01*
X0476130Y0414279D01*
X0476153Y0414084D02*
X0475162Y0414084D01*
X0476153Y0414084D01*
X0475162Y0414084D01*
X0476153Y0414084D01*
X0475162Y0414084D01*
X0476153Y0414084D01*
X0475162Y0414084D01*
X0475184Y0413888D02*
X0476214Y0413888D01*
X0475184Y0413888D01*
X0476214Y0413888D01*
X0475184Y0413888D01*
X0476214Y0413888D01*
X0475184Y0413888D01*
X0476214Y0413888D01*
X0476277Y0413693D02*
X0475246Y0413693D01*
X0476277Y0413693D01*
X0475246Y0413693D01*
X0476277Y0413693D01*
X0475246Y0413693D01*
X0476277Y0413693D01*
X0475246Y0413693D01*
X0475307Y0413498D02*
X0476386Y0413498D01*
X0475307Y0413498D01*
X0476386Y0413498D01*
X0475307Y0413498D01*
X0476386Y0413498D01*
X0475307Y0413498D01*
X0476386Y0413498D01*
X0476437Y0413302D02*
X0475372Y0413302D01*
X0476437Y0413302D01*
X0475372Y0413302D01*
X0476437Y0413302D01*
X0475372Y0413302D01*
X0476437Y0413302D01*
X0475372Y0413302D01*
X0475481Y0413107D02*
X0476148Y0413107D01*
X0475481Y0413107D01*
X0476148Y0413107D01*
X0475481Y0413107D01*
X0476148Y0413107D01*
X0475481Y0413107D01*
X0476148Y0413107D01*
X0475859Y0412912D02*
X0475590Y0412912D01*
X0475859Y0412912D01*
X0475590Y0412912D01*
X0475859Y0412912D01*
X0475590Y0412912D01*
X0475859Y0412912D01*
X0475590Y0412912D01*
X0476888Y0412521D02*
X0477526Y0412521D01*
X0477128Y0412716D02*
X0477020Y0412716D01*
X0476258Y0415842D02*
X0475440Y0415842D01*
X0476258Y0415842D01*
X0475440Y0415842D01*
X0476258Y0415842D01*
X0475440Y0415842D01*
X0476258Y0415842D01*
X0475440Y0415842D01*
X0475549Y0416037D02*
X0475970Y0416037D01*
X0475549Y0416037D01*
X0475970Y0416037D01*
X0475549Y0416037D01*
X0475970Y0416037D01*
X0475549Y0416037D01*
X0475970Y0416037D01*
X0475681Y0416233D02*
X0475658Y0416233D01*
X0475681Y0416233D01*
X0475658Y0416233D01*
X0475681Y0416233D01*
X0475658Y0416233D01*
X0475681Y0416233D01*
X0475658Y0416233D01*
X0477990Y0417600D02*
X0478472Y0417600D01*
X0479118Y0416428D02*
X0479523Y0416428D01*
X0480314Y0413107D02*
X0480981Y0413107D01*
X0480872Y0412912D02*
X0480603Y0412912D01*
X0478231Y0490139D02*
X0478842Y0490201D01*
X0479427Y0490386D01*
X0479963Y0490685D01*
X0479412Y0491500D01*
X0479047Y0491296D01*
X0478647Y0491170D01*
X0478231Y0491128D01*
X0477815Y0491170D01*
X0477415Y0491296D01*
X0477050Y0491500D01*
X0476499Y0490685D01*
X0477035Y0490386D01*
X0477620Y0490201D01*
X0478231Y0490139D01*
X0477387Y0490275D02*
X0479075Y0490275D01*
X0479578Y0490470D02*
X0476884Y0490470D01*
X0476534Y0490666D02*
X0479928Y0490666D01*
X0479844Y0490861D02*
X0476618Y0490861D01*
X0476750Y0491056D02*
X0479712Y0491056D01*
X0479580Y0491252D02*
X0478906Y0491252D01*
X0479317Y0491447D02*
X0479448Y0491447D01*
X0479983Y0492071D02*
X0480798Y0491520D01*
X0481097Y0492056D01*
X0481282Y0492641D01*
X0481344Y0493252D01*
X0481282Y0493863D01*
X0481097Y0494448D01*
X0480798Y0494984D01*
X0479983Y0494433D01*
X0480187Y0494068D01*
X0480313Y0493668D01*
X0480355Y0493252D01*
X0480313Y0492836D01*
X0480187Y0492436D01*
X0479983Y0492071D01*
X0480039Y0492033D02*
X0481084Y0492033D01*
X0481152Y0492228D02*
X0480071Y0492228D01*
X0480180Y0492424D02*
X0481213Y0492424D01*
X0481275Y0492619D02*
X0480245Y0492619D01*
X0480306Y0492815D02*
X0481299Y0492815D01*
X0481319Y0493010D02*
X0480331Y0493010D01*
X0480351Y0493205D02*
X0481339Y0493205D01*
X0481329Y0493401D02*
X0480340Y0493401D01*
X0480320Y0493596D02*
X0481309Y0493596D01*
X0481289Y0493791D02*
X0480274Y0493791D01*
X0480212Y0493987D02*
X0481243Y0493987D01*
X0481181Y0494182D02*
X0480123Y0494182D01*
X0480014Y0494377D02*
X0481119Y0494377D01*
X0481028Y0494573D02*
X0480190Y0494573D01*
X0480478Y0494768D02*
X0480918Y0494768D01*
X0480809Y0494964D02*
X0480767Y0494964D01*
X0479781Y0495550D02*
X0476681Y0495550D01*
X0476549Y0495745D02*
X0479913Y0495745D01*
X0479963Y0495819D02*
X0479412Y0495004D01*
X0479047Y0495208D01*
X0478647Y0495334D01*
X0478231Y0495376D01*
X0477815Y0495334D01*
X0477415Y0495208D01*
X0477050Y0495004D01*
X0476499Y0495819D01*
X0477035Y0496118D01*
X0477620Y0496303D01*
X0478231Y0496365D01*
X0478842Y0496303D01*
X0479427Y0496118D01*
X0479963Y0495819D01*
X0479746Y0495940D02*
X0476716Y0495940D01*
X0477091Y0496136D02*
X0479371Y0496136D01*
X0479649Y0495354D02*
X0478447Y0495354D01*
X0478015Y0495354D02*
X0476813Y0495354D01*
X0476945Y0495159D02*
X0477327Y0495159D01*
X0476479Y0494433D02*
X0475664Y0494984D01*
X0475365Y0494448D01*
X0475180Y0493863D01*
X0475118Y0493252D01*
X0475180Y0492641D01*
X0475365Y0492056D01*
X0475664Y0491520D01*
X0476479Y0492071D01*
X0476275Y0492436D01*
X0476149Y0492836D01*
X0476107Y0493252D01*
X0476149Y0493668D01*
X0476275Y0494068D01*
X0476479Y0494433D01*
X0475664Y0494984D01*
X0475365Y0494448D01*
X0475180Y0493863D01*
X0475118Y0493252D01*
X0475180Y0492641D01*
X0475365Y0492056D01*
X0475664Y0491520D01*
X0476479Y0492071D01*
X0476275Y0492436D01*
X0476149Y0492836D01*
X0476107Y0493252D01*
X0476149Y0493668D01*
X0476275Y0494068D01*
X0476479Y0494433D01*
X0475664Y0494984D01*
X0475365Y0494448D01*
X0475180Y0493863D01*
X0475118Y0493252D01*
X0475180Y0492641D01*
X0475365Y0492056D01*
X0475664Y0491520D01*
X0476479Y0492071D01*
X0476275Y0492436D01*
X0476149Y0492836D01*
X0476107Y0493252D01*
X0476149Y0493668D01*
X0476275Y0494068D01*
X0476479Y0494433D01*
X0475664Y0494984D01*
X0475365Y0494448D01*
X0475180Y0493863D01*
X0475118Y0493252D01*
X0475180Y0492641D01*
X0475365Y0492056D01*
X0475664Y0491520D01*
X0476479Y0492071D01*
X0476275Y0492436D01*
X0476149Y0492836D01*
X0476107Y0493252D01*
X0476149Y0493668D01*
X0476275Y0494068D01*
X0476479Y0494433D01*
X0475664Y0494984D01*
X0475365Y0494448D01*
X0475180Y0493863D01*
X0475118Y0493252D01*
X0475180Y0492641D01*
X0475365Y0492056D01*
X0475664Y0491520D01*
X0476479Y0492071D01*
X0476275Y0492436D01*
X0476149Y0492836D01*
X0476107Y0493252D01*
X0476149Y0493668D01*
X0476275Y0494068D01*
X0476479Y0494433D01*
X0475664Y0494984D01*
X0475365Y0494448D01*
X0475180Y0493863D01*
X0475118Y0493252D01*
X0475180Y0492641D01*
X0475365Y0492056D01*
X0475664Y0491520D01*
X0476479Y0492071D01*
X0476275Y0492436D01*
X0476149Y0492836D01*
X0476107Y0493252D01*
X0476149Y0493668D01*
X0476275Y0494068D01*
X0476479Y0494433D01*
X0475664Y0494984D01*
X0475365Y0494448D01*
X0475180Y0493863D01*
X0475118Y0493252D01*
X0475180Y0492641D01*
X0475365Y0492056D01*
X0475664Y0491520D01*
X0476479Y0492071D01*
X0476275Y0492436D01*
X0476149Y0492836D01*
X0476107Y0493252D01*
X0476149Y0493668D01*
X0476275Y0494068D01*
X0476479Y0494433D01*
X0476448Y0494377D02*
X0475343Y0494377D01*
X0476448Y0494377D01*
X0475343Y0494377D01*
X0476448Y0494377D01*
X0475343Y0494377D01*
X0476448Y0494377D01*
X0475343Y0494377D01*
X0475281Y0494182D02*
X0476339Y0494182D01*
X0475281Y0494182D01*
X0476339Y0494182D01*
X0475281Y0494182D01*
X0476339Y0494182D01*
X0475281Y0494182D01*
X0476339Y0494182D01*
X0476249Y0493987D02*
X0475219Y0493987D01*
X0476249Y0493987D01*
X0475219Y0493987D01*
X0476249Y0493987D01*
X0475219Y0493987D01*
X0476249Y0493987D01*
X0475219Y0493987D01*
X0475173Y0493791D02*
X0476188Y0493791D01*
X0475173Y0493791D01*
X0476188Y0493791D01*
X0475173Y0493791D01*
X0476188Y0493791D01*
X0475173Y0493791D01*
X0476188Y0493791D01*
X0476142Y0493596D02*
X0475153Y0493596D01*
X0476142Y0493596D01*
X0475153Y0493596D01*
X0476142Y0493596D01*
X0475153Y0493596D01*
X0476142Y0493596D01*
X0475153Y0493596D01*
X0475133Y0493401D02*
X0476122Y0493401D01*
X0475133Y0493401D01*
X0476122Y0493401D01*
X0475133Y0493401D01*
X0476122Y0493401D01*
X0475133Y0493401D01*
X0476122Y0493401D01*
X0476111Y0493205D02*
X0475123Y0493205D01*
X0476111Y0493205D01*
X0475123Y0493205D01*
X0476111Y0493205D01*
X0475123Y0493205D01*
X0476111Y0493205D01*
X0475123Y0493205D01*
X0475143Y0493010D02*
X0476131Y0493010D01*
X0475143Y0493010D01*
X0476131Y0493010D01*
X0475143Y0493010D01*
X0476131Y0493010D01*
X0475143Y0493010D01*
X0476131Y0493010D01*
X0476156Y0492815D02*
X0475162Y0492815D01*
X0476156Y0492815D01*
X0475162Y0492815D01*
X0476156Y0492815D01*
X0475162Y0492815D01*
X0476156Y0492815D01*
X0475162Y0492815D01*
X0475187Y0492619D02*
X0476217Y0492619D01*
X0475187Y0492619D01*
X0476217Y0492619D01*
X0475187Y0492619D01*
X0476217Y0492619D01*
X0475187Y0492619D01*
X0476217Y0492619D01*
X0476282Y0492424D02*
X0475249Y0492424D01*
X0476282Y0492424D01*
X0475249Y0492424D01*
X0476282Y0492424D01*
X0475249Y0492424D01*
X0476282Y0492424D01*
X0475249Y0492424D01*
X0475310Y0492228D02*
X0476391Y0492228D01*
X0475310Y0492228D01*
X0476391Y0492228D01*
X0475310Y0492228D01*
X0476391Y0492228D01*
X0475310Y0492228D01*
X0476391Y0492228D01*
X0476423Y0492033D02*
X0475377Y0492033D01*
X0476423Y0492033D01*
X0475377Y0492033D01*
X0476423Y0492033D01*
X0475377Y0492033D01*
X0476423Y0492033D01*
X0475377Y0492033D01*
X0475486Y0491838D02*
X0476134Y0491838D01*
X0475486Y0491838D01*
X0476134Y0491838D01*
X0475486Y0491838D01*
X0476134Y0491838D01*
X0475486Y0491838D01*
X0476134Y0491838D01*
X0475845Y0491642D02*
X0475596Y0491642D01*
X0475845Y0491642D01*
X0475596Y0491642D01*
X0475845Y0491642D01*
X0475596Y0491642D01*
X0475845Y0491642D01*
X0475596Y0491642D01*
X0476882Y0491252D02*
X0477556Y0491252D01*
X0477145Y0491447D02*
X0477014Y0491447D01*
X0476272Y0494573D02*
X0475434Y0494573D01*
X0476272Y0494573D01*
X0475434Y0494573D01*
X0476272Y0494573D01*
X0475434Y0494573D01*
X0476272Y0494573D01*
X0475434Y0494573D01*
X0475543Y0494768D02*
X0475984Y0494768D01*
X0475543Y0494768D01*
X0475984Y0494768D01*
X0475543Y0494768D01*
X0475984Y0494768D01*
X0475543Y0494768D01*
X0475984Y0494768D01*
X0475695Y0494964D02*
X0475652Y0494964D01*
X0475695Y0494964D01*
X0475652Y0494964D01*
X0475695Y0494964D01*
X0475652Y0494964D01*
X0475695Y0494964D01*
X0475652Y0494964D01*
X0477898Y0496331D02*
X0478564Y0496331D01*
X0479134Y0495159D02*
X0479517Y0495159D01*
X0480328Y0491838D02*
X0480975Y0491838D01*
X0480866Y0491642D02*
X0480616Y0491642D01*
D26*
X0478231Y0490693D03*
X0478231Y0495811D03*
X0478231Y0417071D03*
X0478231Y0411953D03*
X0478231Y0336331D03*
X0478231Y0331213D03*
X0478231Y0257591D03*
X0478231Y0252472D03*
X0478231Y0176850D03*
X0478231Y0171732D03*
X0478231Y0098110D03*
X0478231Y0092992D03*
X0282751Y0092992D03*
X0282751Y0098110D03*
X0282751Y0171732D03*
X0282751Y0176850D03*
X0282751Y0252472D03*
X0282751Y0257591D03*
X0282751Y0331213D03*
X0282751Y0336331D03*
X0282751Y0411953D03*
X0282751Y0417071D03*
X0282751Y0490693D03*
X0282751Y0495811D03*
X0087270Y0495811D03*
X0087270Y0490693D03*
X0087270Y0417071D03*
X0087270Y0411953D03*
X0087270Y0336331D03*
X0087270Y0331213D03*
X0087270Y0257591D03*
X0087270Y0252472D03*
X0087270Y0176850D03*
X0087270Y0171732D03*
X0087270Y0098110D03*
X0087270Y0092992D03*
D27*
X0102822Y0186890D03*
X0102822Y0193189D03*
X0118963Y0193189D03*
X0118963Y0186890D03*
X0298302Y0186890D03*
X0298302Y0193189D03*
X0314444Y0193189D03*
X0314444Y0186890D03*
X0493782Y0186890D03*
X0493782Y0193189D03*
X0509924Y0193189D03*
X0509924Y0186890D03*
X0509924Y0346370D03*
X0509924Y0352669D03*
X0493782Y0352669D03*
X0493782Y0346370D03*
X0314444Y0346370D03*
X0314444Y0352669D03*
X0298302Y0352669D03*
X0298302Y0346370D03*
X0118963Y0346370D03*
X0118963Y0352669D03*
X0102822Y0352669D03*
X0102822Y0346370D03*
X0102822Y0505850D03*
X0102822Y0512150D03*
X0118963Y0512150D03*
X0118963Y0505850D03*
X0298302Y0505850D03*
X0298302Y0512150D03*
X0314444Y0512150D03*
X0314444Y0505850D03*
X0493782Y0505850D03*
X0493782Y0512150D03*
X0509924Y0512150D03*
X0509924Y0505850D03*
D28*
X0510318Y0482622D03*
X0510318Y0477110D03*
X0510318Y0471598D03*
X0517010Y0471598D03*
X0517010Y0477110D03*
X0517010Y0482622D03*
X0517010Y0465693D03*
X0517010Y0459787D03*
X0517010Y0453882D03*
X0510318Y0453882D03*
X0510318Y0459787D03*
X0510318Y0465693D03*
X0561499Y0428291D03*
X0568192Y0428291D03*
X0517010Y0323142D03*
X0517010Y0317630D03*
X0517010Y0312118D03*
X0517010Y0306213D03*
X0517010Y0300307D03*
X0517010Y0294402D03*
X0510318Y0294402D03*
X0510318Y0300307D03*
X0510318Y0306213D03*
X0510318Y0312118D03*
X0510318Y0317630D03*
X0510318Y0323142D03*
X0561499Y0268811D03*
X0568192Y0268811D03*
X0517010Y0163661D03*
X0517010Y0158150D03*
X0517010Y0152638D03*
X0517010Y0146732D03*
X0517010Y0140827D03*
X0517010Y0134921D03*
X0510318Y0134921D03*
X0510318Y0140827D03*
X0510318Y0146732D03*
X0510318Y0152638D03*
X0510318Y0158150D03*
X0510318Y0163661D03*
X0561499Y0109331D03*
X0568192Y0109331D03*
X0372711Y0109331D03*
X0366018Y0109331D03*
X0321530Y0134921D03*
X0321530Y0140827D03*
X0321530Y0146732D03*
X0321530Y0152638D03*
X0321530Y0158150D03*
X0321530Y0163661D03*
X0314837Y0163661D03*
X0314837Y0158150D03*
X0314837Y0152638D03*
X0314837Y0146732D03*
X0314837Y0140827D03*
X0314837Y0134921D03*
X0177231Y0109331D03*
X0170538Y0109331D03*
X0126050Y0134921D03*
X0126050Y0140827D03*
X0126050Y0146732D03*
X0126050Y0152638D03*
X0126050Y0158150D03*
X0126050Y0163661D03*
X0119357Y0163661D03*
X0119357Y0158150D03*
X0119357Y0152638D03*
X0119357Y0146732D03*
X0119357Y0140827D03*
X0119357Y0134921D03*
X0170538Y0268811D03*
X0177231Y0268811D03*
X0126050Y0294402D03*
X0126050Y0300307D03*
X0126050Y0306213D03*
X0126050Y0312118D03*
X0126050Y0317630D03*
X0126050Y0323142D03*
X0119357Y0323142D03*
X0119357Y0317630D03*
X0119357Y0312118D03*
X0119357Y0306213D03*
X0119357Y0300307D03*
X0119357Y0294402D03*
X0170538Y0428291D03*
X0177231Y0428291D03*
X0126050Y0453882D03*
X0126050Y0459787D03*
X0126050Y0465693D03*
X0119357Y0465693D03*
X0119357Y0459787D03*
X0119357Y0453882D03*
X0119357Y0471598D03*
X0119357Y0477110D03*
X0119357Y0482622D03*
X0126050Y0482622D03*
X0126050Y0477110D03*
X0126050Y0471598D03*
X0314837Y0471598D03*
X0314837Y0477110D03*
X0314837Y0482622D03*
X0321530Y0482622D03*
X0321530Y0477110D03*
X0321530Y0471598D03*
X0321530Y0465693D03*
X0321530Y0459787D03*
X0321530Y0453882D03*
X0314837Y0453882D03*
X0314837Y0459787D03*
X0314837Y0465693D03*
X0366018Y0428291D03*
X0372711Y0428291D03*
X0321530Y0323142D03*
X0321530Y0317630D03*
X0321530Y0312118D03*
X0321530Y0306213D03*
X0321530Y0300307D03*
X0321530Y0294402D03*
X0314837Y0294402D03*
X0314837Y0300307D03*
X0314837Y0306213D03*
X0314837Y0312118D03*
X0314837Y0317630D03*
X0314837Y0323142D03*
X0366018Y0268811D03*
X0372711Y0268811D03*
D29*
X0372318Y0192402D03*
X0374286Y0192402D03*
X0376255Y0192402D03*
X0370349Y0192402D03*
X0368381Y0192402D03*
X0366412Y0192402D03*
X0364444Y0192402D03*
X0362475Y0192402D03*
X0360507Y0192402D03*
X0358538Y0192402D03*
X0356570Y0192402D03*
X0354601Y0192402D03*
X0352633Y0192402D03*
X0350664Y0192402D03*
X0348696Y0192402D03*
X0346727Y0192402D03*
X0344759Y0192402D03*
X0342790Y0192402D03*
X0340822Y0192402D03*
X0338853Y0192402D03*
X0336884Y0192402D03*
X0334916Y0192402D03*
X0332947Y0192402D03*
X0330979Y0192402D03*
X0180774Y0192402D03*
X0178806Y0192402D03*
X0176837Y0192402D03*
X0174869Y0192402D03*
X0172900Y0192402D03*
X0170932Y0192402D03*
X0168963Y0192402D03*
X0166995Y0192402D03*
X0165026Y0192402D03*
X0163058Y0192402D03*
X0161089Y0192402D03*
X0159121Y0192402D03*
X0157152Y0192402D03*
X0155184Y0192402D03*
X0153215Y0192402D03*
X0151247Y0192402D03*
X0149278Y0192402D03*
X0147310Y0192402D03*
X0145341Y0192402D03*
X0143373Y0192402D03*
X0141404Y0192402D03*
X0139436Y0192402D03*
X0137467Y0192402D03*
X0135499Y0192402D03*
X0135499Y0351882D03*
X0137467Y0351882D03*
X0139436Y0351882D03*
X0141404Y0351882D03*
X0143373Y0351882D03*
X0145341Y0351882D03*
X0147310Y0351882D03*
X0149278Y0351882D03*
X0151247Y0351882D03*
X0153215Y0351882D03*
X0155184Y0351882D03*
X0157152Y0351882D03*
X0159121Y0351882D03*
X0161089Y0351882D03*
X0163058Y0351882D03*
X0165026Y0351882D03*
X0166995Y0351882D03*
X0168963Y0351882D03*
X0170932Y0351882D03*
X0172900Y0351882D03*
X0174869Y0351882D03*
X0176837Y0351882D03*
X0178806Y0351882D03*
X0180774Y0351882D03*
X0330979Y0351882D03*
X0332947Y0351882D03*
X0334916Y0351882D03*
X0336884Y0351882D03*
X0338853Y0351882D03*
X0340822Y0351882D03*
X0342790Y0351882D03*
X0344759Y0351882D03*
X0346727Y0351882D03*
X0348696Y0351882D03*
X0350664Y0351882D03*
X0352633Y0351882D03*
X0354601Y0351882D03*
X0356570Y0351882D03*
X0358538Y0351882D03*
X0360507Y0351882D03*
X0362475Y0351882D03*
X0364444Y0351882D03*
X0366412Y0351882D03*
X0368381Y0351882D03*
X0370349Y0351882D03*
X0372318Y0351882D03*
X0374286Y0351882D03*
X0376255Y0351882D03*
X0526459Y0351882D03*
X0528428Y0351882D03*
X0530396Y0351882D03*
X0532365Y0351882D03*
X0534333Y0351882D03*
X0536302Y0351882D03*
X0538270Y0351882D03*
X0540239Y0351882D03*
X0542207Y0351882D03*
X0544176Y0351882D03*
X0546144Y0351882D03*
X0548113Y0351882D03*
X0550081Y0351882D03*
X0552050Y0351882D03*
X0554018Y0351882D03*
X0555987Y0351882D03*
X0557955Y0351882D03*
X0559924Y0351882D03*
X0561892Y0351882D03*
X0563861Y0351882D03*
X0565829Y0351882D03*
X0567798Y0351882D03*
X0569766Y0351882D03*
X0571735Y0351882D03*
X0571735Y0192402D03*
X0569766Y0192402D03*
X0567798Y0192402D03*
X0565829Y0192402D03*
X0563861Y0192402D03*
X0561892Y0192402D03*
X0559924Y0192402D03*
X0557955Y0192402D03*
X0555987Y0192402D03*
X0554018Y0192402D03*
X0552050Y0192402D03*
X0550081Y0192402D03*
X0548113Y0192402D03*
X0546144Y0192402D03*
X0544176Y0192402D03*
X0542207Y0192402D03*
X0540239Y0192402D03*
X0538270Y0192402D03*
X0536302Y0192402D03*
X0534333Y0192402D03*
X0532365Y0192402D03*
X0530396Y0192402D03*
X0528428Y0192402D03*
X0526459Y0192402D03*
X0526459Y0511362D03*
X0528428Y0511362D03*
X0530396Y0511362D03*
X0532365Y0511362D03*
X0534333Y0511362D03*
X0536302Y0511362D03*
X0538270Y0511362D03*
X0540239Y0511362D03*
X0542207Y0511362D03*
X0544176Y0511362D03*
X0546144Y0511362D03*
X0548113Y0511362D03*
X0550081Y0511362D03*
X0552050Y0511362D03*
X0554018Y0511362D03*
X0555987Y0511362D03*
X0557955Y0511362D03*
X0559924Y0511362D03*
X0561892Y0511362D03*
X0563861Y0511362D03*
X0565829Y0511362D03*
X0567798Y0511362D03*
X0569766Y0511362D03*
X0571735Y0511362D03*
X0376255Y0511362D03*
X0374286Y0511362D03*
X0372318Y0511362D03*
X0370349Y0511362D03*
X0368381Y0511362D03*
X0366412Y0511362D03*
X0364444Y0511362D03*
X0362475Y0511362D03*
X0360507Y0511362D03*
X0358538Y0511362D03*
X0356570Y0511362D03*
X0354601Y0511362D03*
X0352633Y0511362D03*
X0350664Y0511362D03*
X0348696Y0511362D03*
X0346727Y0511362D03*
X0344759Y0511362D03*
X0342790Y0511362D03*
X0340822Y0511362D03*
X0338853Y0511362D03*
X0336884Y0511362D03*
X0334916Y0511362D03*
X0332947Y0511362D03*
X0330979Y0511362D03*
X0180774Y0511362D03*
X0178806Y0511362D03*
X0176837Y0511362D03*
X0174869Y0511362D03*
X0172900Y0511362D03*
X0170932Y0511362D03*
X0168963Y0511362D03*
X0166995Y0511362D03*
X0165026Y0511362D03*
X0163058Y0511362D03*
X0161089Y0511362D03*
X0159121Y0511362D03*
X0157152Y0511362D03*
X0155184Y0511362D03*
X0153215Y0511362D03*
X0151247Y0511362D03*
X0149278Y0511362D03*
X0147310Y0511362D03*
X0145341Y0511362D03*
X0143373Y0511362D03*
X0141404Y0511362D03*
X0139436Y0511362D03*
X0137467Y0511362D03*
X0135499Y0511362D03*
D30*
X0131266Y0516283D03*
X0185007Y0516283D03*
X0326747Y0516283D03*
X0380487Y0516283D03*
X0522227Y0516283D03*
X0575967Y0516283D03*
X0575967Y0356803D03*
X0522227Y0356803D03*
X0380487Y0356803D03*
X0326747Y0356803D03*
X0185007Y0356803D03*
X0131266Y0356803D03*
X0131266Y0197323D03*
X0185007Y0197323D03*
X0326747Y0197323D03*
X0380487Y0197323D03*
X0522227Y0197323D03*
X0575967Y0197323D03*
D31*
X0581184Y0195945D03*
X0517010Y0195945D03*
X0385703Y0195945D03*
X0321530Y0195945D03*
X0190223Y0195945D03*
X0126050Y0195945D03*
X0126050Y0355425D03*
X0190223Y0355425D03*
X0321530Y0355425D03*
X0385703Y0355425D03*
X0517010Y0355425D03*
X0581184Y0355425D03*
X0581184Y0514905D03*
X0517010Y0514905D03*
X0385703Y0514905D03*
X0321530Y0514905D03*
X0190223Y0514905D03*
X0126050Y0514905D03*
M02*
